G04 #@! TF.GenerationSoftware,KiCad,Pcbnew,8.0.4*
G04 #@! TF.CreationDate,2024-08-26T20:04:34+02:00*
G04 #@! TF.ProjectId,keyboard,6b657962-6f61-4726-942e-6b696361645f,rev?*
G04 #@! TF.SameCoordinates,Original*
G04 #@! TF.FileFunction,Legend,Bot*
G04 #@! TF.FilePolarity,Positive*
%FSLAX46Y46*%
G04 Gerber Fmt 4.6, Leading zero omitted, Abs format (unit mm)*
G04 Created by KiCad (PCBNEW 8.0.4) date 2024-08-26 20:04:34*
%MOMM*%
%LPD*%
G01*
G04 APERTURE LIST*
G04 Aperture macros list*
%AMRoundRect*
0 Rectangle with rounded corners*
0 $1 Rounding radius*
0 $2 $3 $4 $5 $6 $7 $8 $9 X,Y pos of 4 corners*
0 Add a 4 corners polygon primitive as box body*
4,1,4,$2,$3,$4,$5,$6,$7,$8,$9,$2,$3,0*
0 Add four circle primitives for the rounded corners*
1,1,$1+$1,$2,$3*
1,1,$1+$1,$4,$5*
1,1,$1+$1,$6,$7*
1,1,$1+$1,$8,$9*
0 Add four rect primitives between the rounded corners*
20,1,$1+$1,$2,$3,$4,$5,0*
20,1,$1+$1,$4,$5,$6,$7,0*
20,1,$1+$1,$6,$7,$8,$9,0*
20,1,$1+$1,$8,$9,$2,$3,0*%
G04 Aperture macros list end*
%ADD10C,0.160000*%
%ADD11C,0.120000*%
%ADD12C,1.750000*%
%ADD13C,4.000000*%
%ADD14C,2.500000*%
%ADD15O,4.900000X2.500000*%
%ADD16C,3.048000*%
%ADD17C,3.987800*%
%ADD18RoundRect,0.225000X-0.375000X0.225000X-0.375000X-0.225000X0.375000X-0.225000X0.375000X0.225000X0*%
%ADD19RoundRect,0.225000X0.375000X-0.225000X0.375000X0.225000X-0.375000X0.225000X-0.375000X-0.225000X0*%
%ADD20RoundRect,0.140000X0.219203X0.021213X0.021213X0.219203X-0.219203X-0.021213X-0.021213X-0.219203X0*%
%ADD21RoundRect,0.140000X-0.219203X-0.021213X-0.021213X-0.219203X0.219203X0.021213X0.021213X0.219203X0*%
%ADD22RoundRect,0.140000X-0.021213X0.219203X-0.219203X0.021213X0.021213X-0.219203X0.219203X-0.021213X0*%
%ADD23RoundRect,0.237500X-0.344715X0.008839X0.008839X-0.344715X0.344715X-0.008839X-0.008839X0.344715X0*%
%ADD24O,8.000000X5.000000*%
%ADD25O,10.000000X5.000000*%
%ADD26RoundRect,0.237500X-0.250000X-0.237500X0.250000X-0.237500X0.250000X0.237500X-0.250000X0.237500X0*%
%ADD27RoundRect,0.237500X0.250000X0.237500X-0.250000X0.237500X-0.250000X-0.237500X0.250000X-0.237500X0*%
%ADD28RoundRect,0.250000X-0.375000X-0.625000X0.375000X-0.625000X0.375000X0.625000X-0.375000X0.625000X0*%
%ADD29R,1.700000X1.700000*%
%ADD30O,1.700000X1.700000*%
%ADD31RoundRect,0.140000X0.021213X-0.219203X0.219203X-0.021213X-0.021213X0.219203X-0.219203X0.021213X0*%
%ADD32RoundRect,0.075000X-0.415425X-0.521491X0.521491X0.415425X0.415425X0.521491X-0.521491X-0.415425X0*%
%ADD33RoundRect,0.075000X0.415425X-0.521491X0.521491X-0.415425X-0.415425X0.521491X-0.521491X0.415425X0*%
%ADD34C,5.000000*%
%ADD35R,3.000000X3.000000*%
%ADD36RoundRect,0.150000X-0.275000X0.150000X-0.275000X-0.150000X0.275000X-0.150000X0.275000X0.150000X0*%
%ADD37RoundRect,0.175000X-0.225000X0.175000X-0.225000X-0.175000X0.225000X-0.175000X0.225000X0.175000X0*%
%ADD38R,1.700000X1.000000*%
%ADD39RoundRect,0.225000X0.017678X-0.335876X0.335876X-0.017678X-0.017678X0.335876X-0.335876X0.017678X0*%
%ADD40C,0.650000*%
%ADD41R,0.600000X1.100000*%
%ADD42R,0.300000X1.240000*%
%ADD43R,0.300000X1.020000*%
%ADD44R,0.300000X1.120000*%
%ADD45O,1.000000X1.800000*%
%ADD46O,1.000000X2.200000*%
%ADD47RoundRect,0.150000X-0.256326X-0.468458X0.468458X0.256326X0.256326X0.468458X-0.468458X-0.256326X0*%
%ADD48C,6.000000*%
%ADD49RoundRect,0.175000X0.106066X-0.353553X0.353553X-0.106066X-0.106066X0.353553X-0.353553X0.106066X0*%
%ADD50RoundRect,0.150000X-0.035355X-0.247487X0.247487X0.035355X0.035355X0.247487X-0.247487X-0.035355X0*%
G04 APERTURE END LIST*
D10*
X93542858Y-64934060D02*
X93590477Y-64981680D01*
X93590477Y-64981680D02*
X93733334Y-65029299D01*
X93733334Y-65029299D02*
X93828572Y-65029299D01*
X93828572Y-65029299D02*
X93971429Y-64981680D01*
X93971429Y-64981680D02*
X94066667Y-64886441D01*
X94066667Y-64886441D02*
X94114286Y-64791203D01*
X94114286Y-64791203D02*
X94161905Y-64600727D01*
X94161905Y-64600727D02*
X94161905Y-64457870D01*
X94161905Y-64457870D02*
X94114286Y-64267394D01*
X94114286Y-64267394D02*
X94066667Y-64172156D01*
X94066667Y-64172156D02*
X93971429Y-64076918D01*
X93971429Y-64076918D02*
X93828572Y-64029299D01*
X93828572Y-64029299D02*
X93733334Y-64029299D01*
X93733334Y-64029299D02*
X93590477Y-64076918D01*
X93590477Y-64076918D02*
X93542858Y-64124537D01*
X92590477Y-65029299D02*
X93161905Y-65029299D01*
X92876191Y-65029299D02*
X92876191Y-64029299D01*
X92876191Y-64029299D02*
X92971429Y-64172156D01*
X92971429Y-64172156D02*
X93066667Y-64267394D01*
X93066667Y-64267394D02*
X93161905Y-64315013D01*
X92114286Y-65029299D02*
X91923810Y-65029299D01*
X91923810Y-65029299D02*
X91828572Y-64981680D01*
X91828572Y-64981680D02*
X91780953Y-64934060D01*
X91780953Y-64934060D02*
X91685715Y-64791203D01*
X91685715Y-64791203D02*
X91638096Y-64600727D01*
X91638096Y-64600727D02*
X91638096Y-64219775D01*
X91638096Y-64219775D02*
X91685715Y-64124537D01*
X91685715Y-64124537D02*
X91733334Y-64076918D01*
X91733334Y-64076918D02*
X91828572Y-64029299D01*
X91828572Y-64029299D02*
X92019048Y-64029299D01*
X92019048Y-64029299D02*
X92114286Y-64076918D01*
X92114286Y-64076918D02*
X92161905Y-64124537D01*
X92161905Y-64124537D02*
X92209524Y-64219775D01*
X92209524Y-64219775D02*
X92209524Y-64457870D01*
X92209524Y-64457870D02*
X92161905Y-64553108D01*
X92161905Y-64553108D02*
X92114286Y-64600727D01*
X92114286Y-64600727D02*
X92019048Y-64648346D01*
X92019048Y-64648346D02*
X91828572Y-64648346D01*
X91828572Y-64648346D02*
X91733334Y-64600727D01*
X91733334Y-64600727D02*
X91685715Y-64553108D01*
X91685715Y-64553108D02*
X91638096Y-64457870D01*
X89157142Y-79940939D02*
X89109523Y-79893320D01*
X89109523Y-79893320D02*
X88966666Y-79845700D01*
X88966666Y-79845700D02*
X88871428Y-79845700D01*
X88871428Y-79845700D02*
X88728571Y-79893320D01*
X88728571Y-79893320D02*
X88633333Y-79988558D01*
X88633333Y-79988558D02*
X88585714Y-80083796D01*
X88585714Y-80083796D02*
X88538095Y-80274272D01*
X88538095Y-80274272D02*
X88538095Y-80417129D01*
X88538095Y-80417129D02*
X88585714Y-80607605D01*
X88585714Y-80607605D02*
X88633333Y-80702843D01*
X88633333Y-80702843D02*
X88728571Y-80798081D01*
X88728571Y-80798081D02*
X88871428Y-80845700D01*
X88871428Y-80845700D02*
X88966666Y-80845700D01*
X88966666Y-80845700D02*
X89109523Y-80798081D01*
X89109523Y-80798081D02*
X89157142Y-80750462D01*
X89538095Y-80750462D02*
X89585714Y-80798081D01*
X89585714Y-80798081D02*
X89680952Y-80845700D01*
X89680952Y-80845700D02*
X89919047Y-80845700D01*
X89919047Y-80845700D02*
X90014285Y-80798081D01*
X90014285Y-80798081D02*
X90061904Y-80750462D01*
X90061904Y-80750462D02*
X90109523Y-80655224D01*
X90109523Y-80655224D02*
X90109523Y-80559986D01*
X90109523Y-80559986D02*
X90061904Y-80417129D01*
X90061904Y-80417129D02*
X89490476Y-79845700D01*
X89490476Y-79845700D02*
X90109523Y-79845700D01*
X90728571Y-80845700D02*
X90823809Y-80845700D01*
X90823809Y-80845700D02*
X90919047Y-80798081D01*
X90919047Y-80798081D02*
X90966666Y-80750462D01*
X90966666Y-80750462D02*
X91014285Y-80655224D01*
X91014285Y-80655224D02*
X91061904Y-80464748D01*
X91061904Y-80464748D02*
X91061904Y-80226653D01*
X91061904Y-80226653D02*
X91014285Y-80036177D01*
X91014285Y-80036177D02*
X90966666Y-79940939D01*
X90966666Y-79940939D02*
X90919047Y-79893320D01*
X90919047Y-79893320D02*
X90823809Y-79845700D01*
X90823809Y-79845700D02*
X90728571Y-79845700D01*
X90728571Y-79845700D02*
X90633333Y-79893320D01*
X90633333Y-79893320D02*
X90585714Y-79940939D01*
X90585714Y-79940939D02*
X90538095Y-80036177D01*
X90538095Y-80036177D02*
X90490476Y-80226653D01*
X90490476Y-80226653D02*
X90490476Y-80464748D01*
X90490476Y-80464748D02*
X90538095Y-80655224D01*
X90538095Y-80655224D02*
X90585714Y-80750462D01*
X90585714Y-80750462D02*
X90633333Y-80798081D01*
X90633333Y-80798081D02*
X90728571Y-80845700D01*
X100342857Y-84459060D02*
X100390476Y-84506680D01*
X100390476Y-84506680D02*
X100533333Y-84554299D01*
X100533333Y-84554299D02*
X100628571Y-84554299D01*
X100628571Y-84554299D02*
X100771428Y-84506680D01*
X100771428Y-84506680D02*
X100866666Y-84411441D01*
X100866666Y-84411441D02*
X100914285Y-84316203D01*
X100914285Y-84316203D02*
X100961904Y-84125727D01*
X100961904Y-84125727D02*
X100961904Y-83982870D01*
X100961904Y-83982870D02*
X100914285Y-83792394D01*
X100914285Y-83792394D02*
X100866666Y-83697156D01*
X100866666Y-83697156D02*
X100771428Y-83601918D01*
X100771428Y-83601918D02*
X100628571Y-83554299D01*
X100628571Y-83554299D02*
X100533333Y-83554299D01*
X100533333Y-83554299D02*
X100390476Y-83601918D01*
X100390476Y-83601918D02*
X100342857Y-83649537D01*
X99390476Y-84554299D02*
X99961904Y-84554299D01*
X99676190Y-84554299D02*
X99676190Y-83554299D01*
X99676190Y-83554299D02*
X99771428Y-83697156D01*
X99771428Y-83697156D02*
X99866666Y-83792394D01*
X99866666Y-83792394D02*
X99961904Y-83840013D01*
X99057142Y-83554299D02*
X98438095Y-83554299D01*
X98438095Y-83554299D02*
X98771428Y-83935251D01*
X98771428Y-83935251D02*
X98628571Y-83935251D01*
X98628571Y-83935251D02*
X98533333Y-83982870D01*
X98533333Y-83982870D02*
X98485714Y-84030489D01*
X98485714Y-84030489D02*
X98438095Y-84125727D01*
X98438095Y-84125727D02*
X98438095Y-84363822D01*
X98438095Y-84363822D02*
X98485714Y-84459060D01*
X98485714Y-84459060D02*
X98533333Y-84506680D01*
X98533333Y-84506680D02*
X98628571Y-84554299D01*
X98628571Y-84554299D02*
X98914285Y-84554299D01*
X98914285Y-84554299D02*
X99009523Y-84506680D01*
X99009523Y-84506680D02*
X99057142Y-84459060D01*
X107642857Y-80454299D02*
X107976190Y-79978108D01*
X108214285Y-80454299D02*
X108214285Y-79454299D01*
X108214285Y-79454299D02*
X107833333Y-79454299D01*
X107833333Y-79454299D02*
X107738095Y-79501918D01*
X107738095Y-79501918D02*
X107690476Y-79549537D01*
X107690476Y-79549537D02*
X107642857Y-79644775D01*
X107642857Y-79644775D02*
X107642857Y-79787632D01*
X107642857Y-79787632D02*
X107690476Y-79882870D01*
X107690476Y-79882870D02*
X107738095Y-79930489D01*
X107738095Y-79930489D02*
X107833333Y-79978108D01*
X107833333Y-79978108D02*
X108214285Y-79978108D01*
X106690476Y-80454299D02*
X107261904Y-80454299D01*
X106976190Y-80454299D02*
X106976190Y-79454299D01*
X106976190Y-79454299D02*
X107071428Y-79597156D01*
X107071428Y-79597156D02*
X107166666Y-79692394D01*
X107166666Y-79692394D02*
X107261904Y-79740013D01*
X106071428Y-79454299D02*
X105976190Y-79454299D01*
X105976190Y-79454299D02*
X105880952Y-79501918D01*
X105880952Y-79501918D02*
X105833333Y-79549537D01*
X105833333Y-79549537D02*
X105785714Y-79644775D01*
X105785714Y-79644775D02*
X105738095Y-79835251D01*
X105738095Y-79835251D02*
X105738095Y-80073346D01*
X105738095Y-80073346D02*
X105785714Y-80263822D01*
X105785714Y-80263822D02*
X105833333Y-80359060D01*
X105833333Y-80359060D02*
X105880952Y-80406680D01*
X105880952Y-80406680D02*
X105976190Y-80454299D01*
X105976190Y-80454299D02*
X106071428Y-80454299D01*
X106071428Y-80454299D02*
X106166666Y-80406680D01*
X106166666Y-80406680D02*
X106214285Y-80359060D01*
X106214285Y-80359060D02*
X106261904Y-80263822D01*
X106261904Y-80263822D02*
X106309523Y-80073346D01*
X106309523Y-80073346D02*
X106309523Y-79835251D01*
X106309523Y-79835251D02*
X106261904Y-79644775D01*
X106261904Y-79644775D02*
X106214285Y-79549537D01*
X106214285Y-79549537D02*
X106166666Y-79501918D01*
X106166666Y-79501918D02*
X106071428Y-79454299D01*
X141566666Y6945700D02*
X141899999Y7421891D01*
X142138094Y6945700D02*
X142138094Y7945700D01*
X142138094Y7945700D02*
X141757142Y7945700D01*
X141757142Y7945700D02*
X141661904Y7898081D01*
X141661904Y7898081D02*
X141614285Y7850462D01*
X141614285Y7850462D02*
X141566666Y7755224D01*
X141566666Y7755224D02*
X141566666Y7612367D01*
X141566666Y7612367D02*
X141614285Y7517129D01*
X141614285Y7517129D02*
X141661904Y7469510D01*
X141661904Y7469510D02*
X141757142Y7421891D01*
X141757142Y7421891D02*
X142138094Y7421891D01*
X141233332Y7945700D02*
X140614285Y7945700D01*
X140614285Y7945700D02*
X140947618Y7564748D01*
X140947618Y7564748D02*
X140804761Y7564748D01*
X140804761Y7564748D02*
X140709523Y7517129D01*
X140709523Y7517129D02*
X140661904Y7469510D01*
X140661904Y7469510D02*
X140614285Y7374272D01*
X140614285Y7374272D02*
X140614285Y7136177D01*
X140614285Y7136177D02*
X140661904Y7040939D01*
X140661904Y7040939D02*
X140709523Y6993320D01*
X140709523Y6993320D02*
X140804761Y6945700D01*
X140804761Y6945700D02*
X141090475Y6945700D01*
X141090475Y6945700D02*
X141185713Y6993320D01*
X141185713Y6993320D02*
X141233332Y7040939D01*
X114792857Y-78009059D02*
X114840476Y-78056679D01*
X114840476Y-78056679D02*
X114983333Y-78104298D01*
X114983333Y-78104298D02*
X115078571Y-78104298D01*
X115078571Y-78104298D02*
X115221428Y-78056679D01*
X115221428Y-78056679D02*
X115316666Y-77961440D01*
X115316666Y-77961440D02*
X115364285Y-77866202D01*
X115364285Y-77866202D02*
X115411904Y-77675726D01*
X115411904Y-77675726D02*
X115411904Y-77532869D01*
X115411904Y-77532869D02*
X115364285Y-77342393D01*
X115364285Y-77342393D02*
X115316666Y-77247155D01*
X115316666Y-77247155D02*
X115221428Y-77151917D01*
X115221428Y-77151917D02*
X115078571Y-77104298D01*
X115078571Y-77104298D02*
X114983333Y-77104298D01*
X114983333Y-77104298D02*
X114840476Y-77151917D01*
X114840476Y-77151917D02*
X114792857Y-77199536D01*
X113840476Y-78104298D02*
X114411904Y-78104298D01*
X114126190Y-78104298D02*
X114126190Y-77104298D01*
X114126190Y-77104298D02*
X114221428Y-77247155D01*
X114221428Y-77247155D02*
X114316666Y-77342393D01*
X114316666Y-77342393D02*
X114411904Y-77390012D01*
X112983333Y-77437631D02*
X112983333Y-78104298D01*
X113221428Y-77056679D02*
X113459523Y-77770964D01*
X113459523Y-77770964D02*
X112840476Y-77770964D01*
X141591666Y1795700D02*
X141924999Y2271891D01*
X142163094Y1795700D02*
X142163094Y2795700D01*
X142163094Y2795700D02*
X141782142Y2795700D01*
X141782142Y2795700D02*
X141686904Y2748081D01*
X141686904Y2748081D02*
X141639285Y2700462D01*
X141639285Y2700462D02*
X141591666Y2605224D01*
X141591666Y2605224D02*
X141591666Y2462367D01*
X141591666Y2462367D02*
X141639285Y2367129D01*
X141639285Y2367129D02*
X141686904Y2319510D01*
X141686904Y2319510D02*
X141782142Y2271891D01*
X141782142Y2271891D02*
X142163094Y2271891D01*
X140734523Y2462367D02*
X140734523Y1795700D01*
X140972618Y2843320D02*
X141210713Y2129034D01*
X141210713Y2129034D02*
X140591666Y2129034D01*
X23583333Y-44430489D02*
X23916666Y-44430489D01*
X23916666Y-44954299D02*
X23916666Y-43954299D01*
X23916666Y-43954299D02*
X23440476Y-43954299D01*
X22535714Y-44954299D02*
X23107142Y-44954299D01*
X22821428Y-44954299D02*
X22821428Y-43954299D01*
X22821428Y-43954299D02*
X22916666Y-44097156D01*
X22916666Y-44097156D02*
X23011904Y-44192394D01*
X23011904Y-44192394D02*
X23107142Y-44240013D01*
X24533333Y-27554299D02*
X24533333Y-28268584D01*
X24533333Y-28268584D02*
X24580952Y-28411441D01*
X24580952Y-28411441D02*
X24676190Y-28506680D01*
X24676190Y-28506680D02*
X24819047Y-28554299D01*
X24819047Y-28554299D02*
X24914285Y-28554299D01*
X23914285Y-27982870D02*
X24009523Y-27935251D01*
X24009523Y-27935251D02*
X24057142Y-27887632D01*
X24057142Y-27887632D02*
X24104761Y-27792394D01*
X24104761Y-27792394D02*
X24104761Y-27744775D01*
X24104761Y-27744775D02*
X24057142Y-27649537D01*
X24057142Y-27649537D02*
X24009523Y-27601918D01*
X24009523Y-27601918D02*
X23914285Y-27554299D01*
X23914285Y-27554299D02*
X23723809Y-27554299D01*
X23723809Y-27554299D02*
X23628571Y-27601918D01*
X23628571Y-27601918D02*
X23580952Y-27649537D01*
X23580952Y-27649537D02*
X23533333Y-27744775D01*
X23533333Y-27744775D02*
X23533333Y-27792394D01*
X23533333Y-27792394D02*
X23580952Y-27887632D01*
X23580952Y-27887632D02*
X23628571Y-27935251D01*
X23628571Y-27935251D02*
X23723809Y-27982870D01*
X23723809Y-27982870D02*
X23914285Y-27982870D01*
X23914285Y-27982870D02*
X24009523Y-28030489D01*
X24009523Y-28030489D02*
X24057142Y-28078108D01*
X24057142Y-28078108D02*
X24104761Y-28173346D01*
X24104761Y-28173346D02*
X24104761Y-28363822D01*
X24104761Y-28363822D02*
X24057142Y-28459060D01*
X24057142Y-28459060D02*
X24009523Y-28506680D01*
X24009523Y-28506680D02*
X23914285Y-28554299D01*
X23914285Y-28554299D02*
X23723809Y-28554299D01*
X23723809Y-28554299D02*
X23628571Y-28506680D01*
X23628571Y-28506680D02*
X23580952Y-28459060D01*
X23580952Y-28459060D02*
X23533333Y-28363822D01*
X23533333Y-28363822D02*
X23533333Y-28173346D01*
X23533333Y-28173346D02*
X23580952Y-28078108D01*
X23580952Y-28078108D02*
X23628571Y-28030489D01*
X23628571Y-28030489D02*
X23723809Y-27982870D01*
X102555503Y-84204299D02*
X102888836Y-83728108D01*
X103126931Y-84204299D02*
X103126931Y-83204299D01*
X103126931Y-83204299D02*
X102745979Y-83204299D01*
X102745979Y-83204299D02*
X102650741Y-83251918D01*
X102650741Y-83251918D02*
X102603122Y-83299537D01*
X102603122Y-83299537D02*
X102555503Y-83394775D01*
X102555503Y-83394775D02*
X102555503Y-83537632D01*
X102555503Y-83537632D02*
X102603122Y-83632870D01*
X102603122Y-83632870D02*
X102650741Y-83680489D01*
X102650741Y-83680489D02*
X102745979Y-83728108D01*
X102745979Y-83728108D02*
X103126931Y-83728108D01*
X102079312Y-84204299D02*
X101888836Y-84204299D01*
X101888836Y-84204299D02*
X101793598Y-84156680D01*
X101793598Y-84156680D02*
X101745979Y-84109060D01*
X101745979Y-84109060D02*
X101650741Y-83966203D01*
X101650741Y-83966203D02*
X101603122Y-83775727D01*
X101603122Y-83775727D02*
X101603122Y-83394775D01*
X101603122Y-83394775D02*
X101650741Y-83299537D01*
X101650741Y-83299537D02*
X101698360Y-83251918D01*
X101698360Y-83251918D02*
X101793598Y-83204299D01*
X101793598Y-83204299D02*
X101984074Y-83204299D01*
X101984074Y-83204299D02*
X102079312Y-83251918D01*
X102079312Y-83251918D02*
X102126931Y-83299537D01*
X102126931Y-83299537D02*
X102174550Y-83394775D01*
X102174550Y-83394775D02*
X102174550Y-83632870D01*
X102174550Y-83632870D02*
X102126931Y-83728108D01*
X102126931Y-83728108D02*
X102079312Y-83775727D01*
X102079312Y-83775727D02*
X101984074Y-83823346D01*
X101984074Y-83823346D02*
X101793598Y-83823346D01*
X101793598Y-83823346D02*
X101698360Y-83775727D01*
X101698360Y-83775727D02*
X101650741Y-83728108D01*
X101650741Y-83728108D02*
X101603122Y-83632870D01*
X88692857Y-79209059D02*
X88740476Y-79256679D01*
X88740476Y-79256679D02*
X88883333Y-79304298D01*
X88883333Y-79304298D02*
X88978571Y-79304298D01*
X88978571Y-79304298D02*
X89121428Y-79256679D01*
X89121428Y-79256679D02*
X89216666Y-79161440D01*
X89216666Y-79161440D02*
X89264285Y-79066202D01*
X89264285Y-79066202D02*
X89311904Y-78875726D01*
X89311904Y-78875726D02*
X89311904Y-78732869D01*
X89311904Y-78732869D02*
X89264285Y-78542393D01*
X89264285Y-78542393D02*
X89216666Y-78447155D01*
X89216666Y-78447155D02*
X89121428Y-78351917D01*
X89121428Y-78351917D02*
X88978571Y-78304298D01*
X88978571Y-78304298D02*
X88883333Y-78304298D01*
X88883333Y-78304298D02*
X88740476Y-78351917D01*
X88740476Y-78351917D02*
X88692857Y-78399536D01*
X87740476Y-79304298D02*
X88311904Y-79304298D01*
X88026190Y-79304298D02*
X88026190Y-78304298D01*
X88026190Y-78304298D02*
X88121428Y-78447155D01*
X88121428Y-78447155D02*
X88216666Y-78542393D01*
X88216666Y-78542393D02*
X88311904Y-78590012D01*
X86835714Y-78304298D02*
X87311904Y-78304298D01*
X87311904Y-78304298D02*
X87359523Y-78780488D01*
X87359523Y-78780488D02*
X87311904Y-78732869D01*
X87311904Y-78732869D02*
X87216666Y-78685250D01*
X87216666Y-78685250D02*
X86978571Y-78685250D01*
X86978571Y-78685250D02*
X86883333Y-78732869D01*
X86883333Y-78732869D02*
X86835714Y-78780488D01*
X86835714Y-78780488D02*
X86788095Y-78875726D01*
X86788095Y-78875726D02*
X86788095Y-79113821D01*
X86788095Y-79113821D02*
X86835714Y-79209059D01*
X86835714Y-79209059D02*
X86883333Y-79256679D01*
X86883333Y-79256679D02*
X86978571Y-79304298D01*
X86978571Y-79304298D02*
X87216666Y-79304298D01*
X87216666Y-79304298D02*
X87311904Y-79256679D01*
X87311904Y-79256679D02*
X87359523Y-79209059D01*
X107042857Y-76409060D02*
X107090476Y-76456680D01*
X107090476Y-76456680D02*
X107233333Y-76504299D01*
X107233333Y-76504299D02*
X107328571Y-76504299D01*
X107328571Y-76504299D02*
X107471428Y-76456680D01*
X107471428Y-76456680D02*
X107566666Y-76361441D01*
X107566666Y-76361441D02*
X107614285Y-76266203D01*
X107614285Y-76266203D02*
X107661904Y-76075727D01*
X107661904Y-76075727D02*
X107661904Y-75932870D01*
X107661904Y-75932870D02*
X107614285Y-75742394D01*
X107614285Y-75742394D02*
X107566666Y-75647156D01*
X107566666Y-75647156D02*
X107471428Y-75551918D01*
X107471428Y-75551918D02*
X107328571Y-75504299D01*
X107328571Y-75504299D02*
X107233333Y-75504299D01*
X107233333Y-75504299D02*
X107090476Y-75551918D01*
X107090476Y-75551918D02*
X107042857Y-75599537D01*
X106090476Y-76504299D02*
X106661904Y-76504299D01*
X106376190Y-76504299D02*
X106376190Y-75504299D01*
X106376190Y-75504299D02*
X106471428Y-75647156D01*
X106471428Y-75647156D02*
X106566666Y-75742394D01*
X106566666Y-75742394D02*
X106661904Y-75790013D01*
X105757142Y-75504299D02*
X105090476Y-75504299D01*
X105090476Y-75504299D02*
X105519047Y-76504299D01*
X97961904Y-80254299D02*
X97961904Y-81063822D01*
X97961904Y-81063822D02*
X97914285Y-81159060D01*
X97914285Y-81159060D02*
X97866666Y-81206680D01*
X97866666Y-81206680D02*
X97771428Y-81254299D01*
X97771428Y-81254299D02*
X97580952Y-81254299D01*
X97580952Y-81254299D02*
X97485714Y-81206680D01*
X97485714Y-81206680D02*
X97438095Y-81159060D01*
X97438095Y-81159060D02*
X97390476Y-81063822D01*
X97390476Y-81063822D02*
X97390476Y-80254299D01*
X97009523Y-80254299D02*
X96390476Y-80254299D01*
X96390476Y-80254299D02*
X96723809Y-80635251D01*
X96723809Y-80635251D02*
X96580952Y-80635251D01*
X96580952Y-80635251D02*
X96485714Y-80682870D01*
X96485714Y-80682870D02*
X96438095Y-80730489D01*
X96438095Y-80730489D02*
X96390476Y-80825727D01*
X96390476Y-80825727D02*
X96390476Y-81063822D01*
X96390476Y-81063822D02*
X96438095Y-81159060D01*
X96438095Y-81159060D02*
X96485714Y-81206680D01*
X96485714Y-81206680D02*
X96580952Y-81254299D01*
X96580952Y-81254299D02*
X96866666Y-81254299D01*
X96866666Y-81254299D02*
X96961904Y-81206680D01*
X96961904Y-81206680D02*
X97009523Y-81159060D01*
X17341666Y5350700D02*
X17674999Y5826891D01*
X17913094Y5350700D02*
X17913094Y6350700D01*
X17913094Y6350700D02*
X17532142Y6350700D01*
X17532142Y6350700D02*
X17436904Y6303081D01*
X17436904Y6303081D02*
X17389285Y6255462D01*
X17389285Y6255462D02*
X17341666Y6160224D01*
X17341666Y6160224D02*
X17341666Y6017367D01*
X17341666Y6017367D02*
X17389285Y5922129D01*
X17389285Y5922129D02*
X17436904Y5874510D01*
X17436904Y5874510D02*
X17532142Y5826891D01*
X17532142Y5826891D02*
X17913094Y5826891D01*
X16960713Y6255462D02*
X16913094Y6303081D01*
X16913094Y6303081D02*
X16817856Y6350700D01*
X16817856Y6350700D02*
X16579761Y6350700D01*
X16579761Y6350700D02*
X16484523Y6303081D01*
X16484523Y6303081D02*
X16436904Y6255462D01*
X16436904Y6255462D02*
X16389285Y6160224D01*
X16389285Y6160224D02*
X16389285Y6064986D01*
X16389285Y6064986D02*
X16436904Y5922129D01*
X16436904Y5922129D02*
X17008332Y5350700D01*
X17008332Y5350700D02*
X16389285Y5350700D01*
X80333333Y-75104299D02*
X80333333Y-75818584D01*
X80333333Y-75818584D02*
X80380952Y-75961441D01*
X80380952Y-75961441D02*
X80476190Y-76056680D01*
X80476190Y-76056680D02*
X80619047Y-76104299D01*
X80619047Y-76104299D02*
X80714285Y-76104299D01*
X79428571Y-75104299D02*
X79619047Y-75104299D01*
X79619047Y-75104299D02*
X79714285Y-75151918D01*
X79714285Y-75151918D02*
X79761904Y-75199537D01*
X79761904Y-75199537D02*
X79857142Y-75342394D01*
X79857142Y-75342394D02*
X79904761Y-75532870D01*
X79904761Y-75532870D02*
X79904761Y-75913822D01*
X79904761Y-75913822D02*
X79857142Y-76009060D01*
X79857142Y-76009060D02*
X79809523Y-76056680D01*
X79809523Y-76056680D02*
X79714285Y-76104299D01*
X79714285Y-76104299D02*
X79523809Y-76104299D01*
X79523809Y-76104299D02*
X79428571Y-76056680D01*
X79428571Y-76056680D02*
X79380952Y-76009060D01*
X79380952Y-76009060D02*
X79333333Y-75913822D01*
X79333333Y-75913822D02*
X79333333Y-75675727D01*
X79333333Y-75675727D02*
X79380952Y-75580489D01*
X79380952Y-75580489D02*
X79428571Y-75532870D01*
X79428571Y-75532870D02*
X79523809Y-75485251D01*
X79523809Y-75485251D02*
X79714285Y-75485251D01*
X79714285Y-75485251D02*
X79809523Y-75532870D01*
X79809523Y-75532870D02*
X79857142Y-75580489D01*
X79857142Y-75580489D02*
X79904761Y-75675727D01*
X104453446Y-69548470D02*
X104501065Y-69596090D01*
X104501065Y-69596090D02*
X104643922Y-69643709D01*
X104643922Y-69643709D02*
X104739160Y-69643709D01*
X104739160Y-69643709D02*
X104882017Y-69596090D01*
X104882017Y-69596090D02*
X104977255Y-69500851D01*
X104977255Y-69500851D02*
X105024874Y-69405613D01*
X105024874Y-69405613D02*
X105072493Y-69215137D01*
X105072493Y-69215137D02*
X105072493Y-69072280D01*
X105072493Y-69072280D02*
X105024874Y-68881804D01*
X105024874Y-68881804D02*
X104977255Y-68786566D01*
X104977255Y-68786566D02*
X104882017Y-68691328D01*
X104882017Y-68691328D02*
X104739160Y-68643709D01*
X104739160Y-68643709D02*
X104643922Y-68643709D01*
X104643922Y-68643709D02*
X104501065Y-68691328D01*
X104501065Y-68691328D02*
X104453446Y-68738947D01*
X103501065Y-69643709D02*
X104072493Y-69643709D01*
X103786779Y-69643709D02*
X103786779Y-68643709D01*
X103786779Y-68643709D02*
X103882017Y-68786566D01*
X103882017Y-68786566D02*
X103977255Y-68881804D01*
X103977255Y-68881804D02*
X104072493Y-68929423D01*
X102929636Y-69072280D02*
X103024874Y-69024661D01*
X103024874Y-69024661D02*
X103072493Y-68977042D01*
X103072493Y-68977042D02*
X103120112Y-68881804D01*
X103120112Y-68881804D02*
X103120112Y-68834185D01*
X103120112Y-68834185D02*
X103072493Y-68738947D01*
X103072493Y-68738947D02*
X103024874Y-68691328D01*
X103024874Y-68691328D02*
X102929636Y-68643709D01*
X102929636Y-68643709D02*
X102739160Y-68643709D01*
X102739160Y-68643709D02*
X102643922Y-68691328D01*
X102643922Y-68691328D02*
X102596303Y-68738947D01*
X102596303Y-68738947D02*
X102548684Y-68834185D01*
X102548684Y-68834185D02*
X102548684Y-68881804D01*
X102548684Y-68881804D02*
X102596303Y-68977042D01*
X102596303Y-68977042D02*
X102643922Y-69024661D01*
X102643922Y-69024661D02*
X102739160Y-69072280D01*
X102739160Y-69072280D02*
X102929636Y-69072280D01*
X102929636Y-69072280D02*
X103024874Y-69119899D01*
X103024874Y-69119899D02*
X103072493Y-69167518D01*
X103072493Y-69167518D02*
X103120112Y-69262756D01*
X103120112Y-69262756D02*
X103120112Y-69453232D01*
X103120112Y-69453232D02*
X103072493Y-69548470D01*
X103072493Y-69548470D02*
X103024874Y-69596090D01*
X103024874Y-69596090D02*
X102929636Y-69643709D01*
X102929636Y-69643709D02*
X102739160Y-69643709D01*
X102739160Y-69643709D02*
X102643922Y-69596090D01*
X102643922Y-69596090D02*
X102596303Y-69548470D01*
X102596303Y-69548470D02*
X102548684Y-69453232D01*
X102548684Y-69453232D02*
X102548684Y-69262756D01*
X102548684Y-69262756D02*
X102596303Y-69167518D01*
X102596303Y-69167518D02*
X102643922Y-69119899D01*
X102643922Y-69119899D02*
X102739160Y-69072280D01*
X1466666Y4950700D02*
X1799999Y5426891D01*
X2038094Y4950700D02*
X2038094Y5950700D01*
X2038094Y5950700D02*
X1657142Y5950700D01*
X1657142Y5950700D02*
X1561904Y5903081D01*
X1561904Y5903081D02*
X1514285Y5855462D01*
X1514285Y5855462D02*
X1466666Y5760224D01*
X1466666Y5760224D02*
X1466666Y5617367D01*
X1466666Y5617367D02*
X1514285Y5522129D01*
X1514285Y5522129D02*
X1561904Y5474510D01*
X1561904Y5474510D02*
X1657142Y5426891D01*
X1657142Y5426891D02*
X2038094Y5426891D01*
X514285Y4950700D02*
X1085713Y4950700D01*
X799999Y4950700D02*
X799999Y5950700D01*
X799999Y5950700D02*
X895237Y5807843D01*
X895237Y5807843D02*
X990475Y5712605D01*
X990475Y5712605D02*
X1085713Y5664986D01*
X19333333Y-27454299D02*
X19333333Y-28168584D01*
X19333333Y-28168584D02*
X19380952Y-28311441D01*
X19380952Y-28311441D02*
X19476190Y-28406680D01*
X19476190Y-28406680D02*
X19619047Y-28454299D01*
X19619047Y-28454299D02*
X19714285Y-28454299D01*
X18428571Y-27787632D02*
X18428571Y-28454299D01*
X18666666Y-27406680D02*
X18904761Y-28120965D01*
X18904761Y-28120965D02*
X18285714Y-28120965D01*
X68833333Y-75079299D02*
X68833333Y-75793584D01*
X68833333Y-75793584D02*
X68880952Y-75936441D01*
X68880952Y-75936441D02*
X68976190Y-76031680D01*
X68976190Y-76031680D02*
X69119047Y-76079299D01*
X69119047Y-76079299D02*
X69214285Y-76079299D01*
X67880952Y-75079299D02*
X68357142Y-75079299D01*
X68357142Y-75079299D02*
X68404761Y-75555489D01*
X68404761Y-75555489D02*
X68357142Y-75507870D01*
X68357142Y-75507870D02*
X68261904Y-75460251D01*
X68261904Y-75460251D02*
X68023809Y-75460251D01*
X68023809Y-75460251D02*
X67928571Y-75507870D01*
X67928571Y-75507870D02*
X67880952Y-75555489D01*
X67880952Y-75555489D02*
X67833333Y-75650727D01*
X67833333Y-75650727D02*
X67833333Y-75888822D01*
X67833333Y-75888822D02*
X67880952Y-75984060D01*
X67880952Y-75984060D02*
X67928571Y-76031680D01*
X67928571Y-76031680D02*
X68023809Y-76079299D01*
X68023809Y-76079299D02*
X68261904Y-76079299D01*
X68261904Y-76079299D02*
X68357142Y-76031680D01*
X68357142Y-76031680D02*
X68404761Y-75984060D01*
X157583333Y-71680490D02*
X157440476Y-71728109D01*
X157440476Y-71728109D02*
X157392857Y-71775728D01*
X157392857Y-71775728D02*
X157345238Y-71870966D01*
X157345238Y-71870966D02*
X157345238Y-72013823D01*
X157345238Y-72013823D02*
X157392857Y-72109061D01*
X157392857Y-72109061D02*
X157440476Y-72156681D01*
X157440476Y-72156681D02*
X157535714Y-72204300D01*
X157535714Y-72204300D02*
X157916666Y-72204300D01*
X157916666Y-72204300D02*
X157916666Y-71204300D01*
X157916666Y-71204300D02*
X157583333Y-71204300D01*
X157583333Y-71204300D02*
X157488095Y-71251919D01*
X157488095Y-71251919D02*
X157440476Y-71299538D01*
X157440476Y-71299538D02*
X157392857Y-71394776D01*
X157392857Y-71394776D02*
X157392857Y-71490014D01*
X157392857Y-71490014D02*
X157440476Y-71585252D01*
X157440476Y-71585252D02*
X157488095Y-71632871D01*
X157488095Y-71632871D02*
X157583333Y-71680490D01*
X157583333Y-71680490D02*
X157916666Y-71680490D01*
X156726190Y-71204300D02*
X156535714Y-71204300D01*
X156535714Y-71204300D02*
X156440476Y-71251919D01*
X156440476Y-71251919D02*
X156345238Y-71347157D01*
X156345238Y-71347157D02*
X156297619Y-71537633D01*
X156297619Y-71537633D02*
X156297619Y-71870966D01*
X156297619Y-71870966D02*
X156345238Y-72061442D01*
X156345238Y-72061442D02*
X156440476Y-72156681D01*
X156440476Y-72156681D02*
X156535714Y-72204300D01*
X156535714Y-72204300D02*
X156726190Y-72204300D01*
X156726190Y-72204300D02*
X156821428Y-72156681D01*
X156821428Y-72156681D02*
X156916666Y-72061442D01*
X156916666Y-72061442D02*
X156964285Y-71870966D01*
X156964285Y-71870966D02*
X156964285Y-71537633D01*
X156964285Y-71537633D02*
X156916666Y-71347157D01*
X156916666Y-71347157D02*
X156821428Y-71251919D01*
X156821428Y-71251919D02*
X156726190Y-71204300D01*
X155678571Y-71204300D02*
X155488095Y-71204300D01*
X155488095Y-71204300D02*
X155392857Y-71251919D01*
X155392857Y-71251919D02*
X155297619Y-71347157D01*
X155297619Y-71347157D02*
X155250000Y-71537633D01*
X155250000Y-71537633D02*
X155250000Y-71870966D01*
X155250000Y-71870966D02*
X155297619Y-72061442D01*
X155297619Y-72061442D02*
X155392857Y-72156681D01*
X155392857Y-72156681D02*
X155488095Y-72204300D01*
X155488095Y-72204300D02*
X155678571Y-72204300D01*
X155678571Y-72204300D02*
X155773809Y-72156681D01*
X155773809Y-72156681D02*
X155869047Y-72061442D01*
X155869047Y-72061442D02*
X155916666Y-71870966D01*
X155916666Y-71870966D02*
X155916666Y-71537633D01*
X155916666Y-71537633D02*
X155869047Y-71347157D01*
X155869047Y-71347157D02*
X155773809Y-71251919D01*
X155773809Y-71251919D02*
X155678571Y-71204300D01*
X154964285Y-71204300D02*
X154392857Y-71204300D01*
X154678571Y-72204300D02*
X154678571Y-71204300D01*
X153535714Y-72204300D02*
X154107142Y-72204300D01*
X153821428Y-72204300D02*
X153821428Y-71204300D01*
X153821428Y-71204300D02*
X153916666Y-71347157D01*
X153916666Y-71347157D02*
X154011904Y-71442395D01*
X154011904Y-71442395D02*
X154107142Y-71490014D01*
X97142857Y-83109060D02*
X97190476Y-83156680D01*
X97190476Y-83156680D02*
X97333333Y-83204299D01*
X97333333Y-83204299D02*
X97428571Y-83204299D01*
X97428571Y-83204299D02*
X97571428Y-83156680D01*
X97571428Y-83156680D02*
X97666666Y-83061441D01*
X97666666Y-83061441D02*
X97714285Y-82966203D01*
X97714285Y-82966203D02*
X97761904Y-82775727D01*
X97761904Y-82775727D02*
X97761904Y-82632870D01*
X97761904Y-82632870D02*
X97714285Y-82442394D01*
X97714285Y-82442394D02*
X97666666Y-82347156D01*
X97666666Y-82347156D02*
X97571428Y-82251918D01*
X97571428Y-82251918D02*
X97428571Y-82204299D01*
X97428571Y-82204299D02*
X97333333Y-82204299D01*
X97333333Y-82204299D02*
X97190476Y-82251918D01*
X97190476Y-82251918D02*
X97142857Y-82299537D01*
X96190476Y-83204299D02*
X96761904Y-83204299D01*
X96476190Y-83204299D02*
X96476190Y-82204299D01*
X96476190Y-82204299D02*
X96571428Y-82347156D01*
X96571428Y-82347156D02*
X96666666Y-82442394D01*
X96666666Y-82442394D02*
X96761904Y-82490013D01*
X95333333Y-82204299D02*
X95523809Y-82204299D01*
X95523809Y-82204299D02*
X95619047Y-82251918D01*
X95619047Y-82251918D02*
X95666666Y-82299537D01*
X95666666Y-82299537D02*
X95761904Y-82442394D01*
X95761904Y-82442394D02*
X95809523Y-82632870D01*
X95809523Y-82632870D02*
X95809523Y-83013822D01*
X95809523Y-83013822D02*
X95761904Y-83109060D01*
X95761904Y-83109060D02*
X95714285Y-83156680D01*
X95714285Y-83156680D02*
X95619047Y-83204299D01*
X95619047Y-83204299D02*
X95428571Y-83204299D01*
X95428571Y-83204299D02*
X95333333Y-83156680D01*
X95333333Y-83156680D02*
X95285714Y-83109060D01*
X95285714Y-83109060D02*
X95238095Y-83013822D01*
X95238095Y-83013822D02*
X95238095Y-82775727D01*
X95238095Y-82775727D02*
X95285714Y-82680489D01*
X95285714Y-82680489D02*
X95333333Y-82632870D01*
X95333333Y-82632870D02*
X95428571Y-82585251D01*
X95428571Y-82585251D02*
X95619047Y-82585251D01*
X95619047Y-82585251D02*
X95714285Y-82632870D01*
X95714285Y-82632870D02*
X95761904Y-82680489D01*
X95761904Y-82680489D02*
X95809523Y-82775727D01*
X105842857Y-74859060D02*
X105890476Y-74906680D01*
X105890476Y-74906680D02*
X106033333Y-74954299D01*
X106033333Y-74954299D02*
X106128571Y-74954299D01*
X106128571Y-74954299D02*
X106271428Y-74906680D01*
X106271428Y-74906680D02*
X106366666Y-74811441D01*
X106366666Y-74811441D02*
X106414285Y-74716203D01*
X106414285Y-74716203D02*
X106461904Y-74525727D01*
X106461904Y-74525727D02*
X106461904Y-74382870D01*
X106461904Y-74382870D02*
X106414285Y-74192394D01*
X106414285Y-74192394D02*
X106366666Y-74097156D01*
X106366666Y-74097156D02*
X106271428Y-74001918D01*
X106271428Y-74001918D02*
X106128571Y-73954299D01*
X106128571Y-73954299D02*
X106033333Y-73954299D01*
X106033333Y-73954299D02*
X105890476Y-74001918D01*
X105890476Y-74001918D02*
X105842857Y-74049537D01*
X104890476Y-74954299D02*
X105461904Y-74954299D01*
X105176190Y-74954299D02*
X105176190Y-73954299D01*
X105176190Y-73954299D02*
X105271428Y-74097156D01*
X105271428Y-74097156D02*
X105366666Y-74192394D01*
X105366666Y-74192394D02*
X105461904Y-74240013D01*
X104509523Y-74049537D02*
X104461904Y-74001918D01*
X104461904Y-74001918D02*
X104366666Y-73954299D01*
X104366666Y-73954299D02*
X104128571Y-73954299D01*
X104128571Y-73954299D02*
X104033333Y-74001918D01*
X104033333Y-74001918D02*
X103985714Y-74049537D01*
X103985714Y-74049537D02*
X103938095Y-74144775D01*
X103938095Y-74144775D02*
X103938095Y-74240013D01*
X103938095Y-74240013D02*
X103985714Y-74382870D01*
X103985714Y-74382870D02*
X104557142Y-74954299D01*
X104557142Y-74954299D02*
X103938095Y-74954299D01*
X112142857Y-69459060D02*
X112190476Y-69506680D01*
X112190476Y-69506680D02*
X112333333Y-69554299D01*
X112333333Y-69554299D02*
X112428571Y-69554299D01*
X112428571Y-69554299D02*
X112571428Y-69506680D01*
X112571428Y-69506680D02*
X112666666Y-69411441D01*
X112666666Y-69411441D02*
X112714285Y-69316203D01*
X112714285Y-69316203D02*
X112761904Y-69125727D01*
X112761904Y-69125727D02*
X112761904Y-68982870D01*
X112761904Y-68982870D02*
X112714285Y-68792394D01*
X112714285Y-68792394D02*
X112666666Y-68697156D01*
X112666666Y-68697156D02*
X112571428Y-68601918D01*
X112571428Y-68601918D02*
X112428571Y-68554299D01*
X112428571Y-68554299D02*
X112333333Y-68554299D01*
X112333333Y-68554299D02*
X112190476Y-68601918D01*
X112190476Y-68601918D02*
X112142857Y-68649537D01*
X111190476Y-69554299D02*
X111761904Y-69554299D01*
X111476190Y-69554299D02*
X111476190Y-68554299D01*
X111476190Y-68554299D02*
X111571428Y-68697156D01*
X111571428Y-68697156D02*
X111666666Y-68792394D01*
X111666666Y-68792394D02*
X111761904Y-68840013D01*
X110238095Y-69554299D02*
X110809523Y-69554299D01*
X110523809Y-69554299D02*
X110523809Y-68554299D01*
X110523809Y-68554299D02*
X110619047Y-68697156D01*
X110619047Y-68697156D02*
X110714285Y-68792394D01*
X110714285Y-68792394D02*
X110809523Y-68840013D01*
X133683333Y8445700D02*
X133683333Y7731415D01*
X133683333Y7731415D02*
X133730952Y7588558D01*
X133730952Y7588558D02*
X133826190Y7493320D01*
X133826190Y7493320D02*
X133969047Y7445700D01*
X133969047Y7445700D02*
X134064285Y7445700D01*
X133254761Y8350462D02*
X133207142Y8398081D01*
X133207142Y8398081D02*
X133111904Y8445700D01*
X133111904Y8445700D02*
X132873809Y8445700D01*
X132873809Y8445700D02*
X132778571Y8398081D01*
X132778571Y8398081D02*
X132730952Y8350462D01*
X132730952Y8350462D02*
X132683333Y8255224D01*
X132683333Y8255224D02*
X132683333Y8159986D01*
X132683333Y8159986D02*
X132730952Y8017129D01*
X132730952Y8017129D02*
X133302380Y7445700D01*
X133302380Y7445700D02*
X132683333Y7445700D01*
X113961904Y-72604299D02*
X113961904Y-73413822D01*
X113961904Y-73413822D02*
X113914285Y-73509060D01*
X113914285Y-73509060D02*
X113866666Y-73556680D01*
X113866666Y-73556680D02*
X113771428Y-73604299D01*
X113771428Y-73604299D02*
X113580952Y-73604299D01*
X113580952Y-73604299D02*
X113485714Y-73556680D01*
X113485714Y-73556680D02*
X113438095Y-73509060D01*
X113438095Y-73509060D02*
X113390476Y-73413822D01*
X113390476Y-73413822D02*
X113390476Y-72604299D01*
X112390476Y-73604299D02*
X112961904Y-73604299D01*
X112676190Y-73604299D02*
X112676190Y-72604299D01*
X112676190Y-72604299D02*
X112771428Y-72747156D01*
X112771428Y-72747156D02*
X112866666Y-72842394D01*
X112866666Y-72842394D02*
X112961904Y-72890013D01*
X9383333Y6845700D02*
X9383333Y6131415D01*
X9383333Y6131415D02*
X9430952Y5988558D01*
X9430952Y5988558D02*
X9526190Y5893320D01*
X9526190Y5893320D02*
X9669047Y5845700D01*
X9669047Y5845700D02*
X9764285Y5845700D01*
X8383333Y5845700D02*
X8954761Y5845700D01*
X8669047Y5845700D02*
X8669047Y6845700D01*
X8669047Y6845700D02*
X8764285Y6702843D01*
X8764285Y6702843D02*
X8859523Y6607605D01*
X8859523Y6607605D02*
X8954761Y6559986D01*
X109811904Y-66454299D02*
X109811904Y-67263822D01*
X109811904Y-67263822D02*
X109764285Y-67359060D01*
X109764285Y-67359060D02*
X109716666Y-67406680D01*
X109716666Y-67406680D02*
X109621428Y-67454299D01*
X109621428Y-67454299D02*
X109430952Y-67454299D01*
X109430952Y-67454299D02*
X109335714Y-67406680D01*
X109335714Y-67406680D02*
X109288095Y-67359060D01*
X109288095Y-67359060D02*
X109240476Y-67263822D01*
X109240476Y-67263822D02*
X109240476Y-66454299D01*
X108335714Y-66787632D02*
X108335714Y-67454299D01*
X108573809Y-66406680D02*
X108811904Y-67120965D01*
X108811904Y-67120965D02*
X108192857Y-67120965D01*
D11*
X245150000Y-72399999D02*
X245150000Y-68389999D01*
X247150000Y-68389999D02*
X245150000Y-68389999D01*
X247150000Y-72399999D02*
X247150000Y-68389999D01*
X125350000Y-21700000D02*
X125350000Y-25710000D01*
X125350000Y-25710000D02*
X127350000Y-25710000D01*
X127350000Y-21700000D02*
X127350000Y-25710000D01*
X206300000Y-40800000D02*
X206300000Y-44810000D01*
X206300000Y-44810000D02*
X208300000Y-44810000D01*
X208300000Y-40800000D02*
X208300000Y-44810000D01*
X114000000Y-3725000D02*
X114000000Y-7735000D01*
X114000000Y-7735000D02*
X116000000Y-7735000D01*
X116000000Y-3725000D02*
X116000000Y-7735000D01*
X239600000Y-21700000D02*
X239600000Y-25710000D01*
X239600000Y-25710000D02*
X241600000Y-25710000D01*
X241600000Y-21700000D02*
X241600000Y-25710000D01*
X92883151Y-66450132D02*
X93035654Y-66602635D01*
X93392268Y-65941015D02*
X93544771Y-66093518D01*
X59500000Y-69700000D02*
X59500000Y-73710000D01*
X59500000Y-73710000D02*
X61500000Y-73710000D01*
X61500000Y-69700000D02*
X61500000Y-73710000D01*
X94950000Y-3725000D02*
X94950000Y-7735000D01*
X94950000Y-7735000D02*
X96950000Y-7735000D01*
X96950000Y-3725000D02*
X96950000Y-7735000D01*
X91611104Y-80070221D02*
X91458601Y-79917718D01*
X92120221Y-79561104D02*
X91967718Y-79408601D01*
X225400000Y-40800000D02*
X225400000Y-44810000D01*
X225400000Y-44810000D02*
X227400000Y-44810000D01*
X227400000Y-40800000D02*
X227400000Y-44810000D01*
X158700000Y-59700000D02*
X158700000Y-63710000D01*
X158700000Y-63710000D02*
X160700000Y-63710000D01*
X160700000Y-59700000D02*
X160700000Y-63710000D01*
X99369190Y-82271693D02*
X99521693Y-82119190D01*
X99878307Y-82780810D02*
X100030810Y-82628307D01*
X101500000Y-59700000D02*
X101500000Y-63710000D01*
X101500000Y-63710000D02*
X103500000Y-63710000D01*
X103500000Y-59700000D02*
X103500000Y-63710000D01*
X190200000Y-3725000D02*
X190200000Y-7735000D01*
X190200000Y-7735000D02*
X192200000Y-7735000D01*
X192200000Y-3725000D02*
X192200000Y-7735000D01*
X263200000Y-7700000D02*
X263200000Y-11710000D01*
X263200000Y-11710000D02*
X265200000Y-11710000D01*
X265200000Y-7700000D02*
X265200000Y-11710000D01*
X104355889Y-81494815D02*
X103995655Y-81134581D01*
X105094815Y-80755889D02*
X104734581Y-80395655D01*
X56850000Y-3725000D02*
X56850000Y-7735000D01*
X56850000Y-7735000D02*
X58850000Y-7735000D01*
X58850000Y-3725000D02*
X58850000Y-7735000D01*
X141679724Y6147500D02*
X141170276Y6147500D01*
X141679724Y5102500D02*
X141170276Y5102500D01*
X112063337Y-76341506D02*
X112215840Y-76189003D01*
X112572454Y-76850623D02*
X112724957Y-76698120D01*
X49150000Y-21700000D02*
X49150000Y-25710000D01*
X49150000Y-25710000D02*
X51150000Y-25710000D01*
X51150000Y-21700000D02*
X51150000Y-25710000D01*
X141170276Y4572500D02*
X141679724Y4572500D01*
X141170276Y3527500D02*
X141679724Y3527500D01*
X23902064Y-41390000D02*
X22697936Y-41390000D01*
X23902064Y-43210000D02*
X22697936Y-43210000D01*
X120600000Y-59700000D02*
X120600000Y-63710000D01*
X120600000Y-63710000D02*
X122600000Y-63710000D01*
X122600000Y-59700000D02*
X122600000Y-63710000D01*
X171150000Y-3725000D02*
X171150000Y-7735000D01*
X171150000Y-7735000D02*
X173150000Y-7735000D01*
X173150000Y-3725000D02*
X173150000Y-7735000D01*
X197600000Y-72399999D02*
X197600000Y-68389999D01*
X199600000Y-68389999D02*
X197600000Y-68389999D01*
X199600000Y-72399999D02*
X199600000Y-68389999D01*
X37800000Y-3725000D02*
X37800000Y-7735000D01*
X37800000Y-7735000D02*
X39800000Y-7735000D01*
X39800000Y-3725000D02*
X39800000Y-7735000D01*
X168200000Y-40800000D02*
X168200000Y-44810000D01*
X168200000Y-44810000D02*
X170200000Y-44810000D01*
X170200000Y-40800000D02*
X170200000Y-44810000D01*
X252400000Y-59100000D02*
X252400000Y-63110000D01*
X252400000Y-63110000D02*
X254400000Y-63110000D01*
X254400000Y-59100000D02*
X254400000Y-63110000D01*
X149200000Y-40800000D02*
X149200000Y-44810000D01*
X149200000Y-44810000D02*
X151200000Y-44810000D01*
X151200000Y-40800000D02*
X151200000Y-44810000D01*
X22870000Y-32270001D02*
X25530000Y-32270001D01*
X22870000Y-39950000D02*
X22870000Y-32270001D01*
X22870000Y-39950000D02*
X25530000Y-39950000D01*
X24200000Y-29670000D02*
X25530000Y-29670000D01*
X25530000Y-29670000D02*
X25530000Y-31000000D01*
X25530000Y-39950000D02*
X25530000Y-32270001D01*
X103210654Y-82649580D02*
X102850420Y-82289346D01*
X103949580Y-81910654D02*
X103589346Y-81550420D01*
X245300000Y-40300000D02*
X245300000Y-44310000D01*
X245300000Y-44310000D02*
X247300000Y-44310000D01*
X247300000Y-40300000D02*
X247300000Y-44310000D01*
X90054724Y-78528307D02*
X90207227Y-78680810D01*
X90563841Y-78019190D02*
X90716344Y-78171693D01*
X108121693Y-73919190D02*
X107969190Y-74071693D01*
X108630810Y-74428307D02*
X108478307Y-74580810D01*
X30100000Y-21700000D02*
X30100000Y-25710000D01*
X30100000Y-25710000D02*
X32100000Y-25710000D01*
X32100000Y-21700000D02*
X32100000Y-25710000D01*
X152100000Y-3725000D02*
X152100000Y-7735000D01*
X152100000Y-7735000D02*
X154100000Y-7735000D01*
X154100000Y-3725000D02*
X154100000Y-7735000D01*
X187300000Y-40800000D02*
X187300000Y-44810000D01*
X187300000Y-44810000D02*
X189300000Y-44810000D01*
X189300000Y-40800000D02*
X189300000Y-44810000D01*
X91997737Y-74050000D02*
X92315935Y-73731802D01*
X92315935Y-74368198D02*
X91997737Y-74050000D01*
X96784850Y-78837113D02*
X97103048Y-79155311D01*
X97103048Y-68944689D02*
X96784850Y-69262887D01*
X97103048Y-79155311D02*
X97421246Y-78837113D01*
X97421246Y-69262887D02*
X97103048Y-68944689D01*
X101890161Y-73731802D02*
X102208359Y-74050000D01*
X102208359Y-74050000D02*
X101890161Y-74368198D01*
X96940413Y-79346230D02*
X96459581Y-79827062D01*
X96367657Y-79254306D01*
X96940413Y-79346230D01*
G36*
X96940413Y-79346230D02*
G01*
X96459581Y-79827062D01*
X96367657Y-79254306D01*
X96940413Y-79346230D01*
G37*
X139700000Y-59700000D02*
X139700000Y-63710000D01*
X139700000Y-63710000D02*
X141700000Y-63710000D01*
X141700000Y-59700000D02*
X141700000Y-63710000D01*
X16920276Y4897500D02*
X17429724Y4897500D01*
X16920276Y3852500D02*
X17429724Y3852500D01*
X53950000Y-40800000D02*
X53950000Y-44810000D01*
X53950000Y-44810000D02*
X55950000Y-44810000D01*
X55950000Y-40800000D02*
X55950000Y-44810000D01*
X138100000Y-71100000D02*
X138100000Y-67090000D01*
X140100000Y-67090000D02*
X138100000Y-67090000D01*
X140100000Y-71100000D02*
X140100000Y-67090000D01*
X75150000Y-73950000D02*
X78550000Y-73950000D01*
X75150000Y-77350000D02*
X75150000Y-73950000D01*
X78550000Y-73950000D02*
X78550000Y-77350000D01*
X78550000Y-77350000D02*
X75150000Y-77350000D01*
X104671693Y-70569190D02*
X104519190Y-70721693D01*
X105180810Y-71078307D02*
X105028307Y-71230810D01*
X1045276Y4497500D02*
X1554724Y4497500D01*
X1045276Y3452500D02*
X1554724Y3452500D01*
X12400000Y-3700000D02*
X12400000Y-7710000D01*
X12400000Y-7710000D02*
X14400000Y-7710000D01*
X14400000Y-3700000D02*
X14400000Y-7710000D01*
X15846447Y-30750000D02*
X15846447Y-31250000D01*
X15846447Y-31250000D02*
X16200000Y-31000000D01*
X16200000Y-31000000D02*
X15846447Y-30750000D01*
X16699999Y-30440000D02*
X16910000Y-30440000D01*
X16910000Y-29390000D02*
X20240000Y-29389999D01*
X16910000Y-30440000D02*
X16910000Y-29390000D01*
X16910000Y-35160000D02*
X16910000Y-36210000D01*
X16910000Y-36210000D02*
X20240000Y-36210001D01*
X21130000Y-31260000D02*
X21630000Y-30960000D01*
X21130000Y-34340000D02*
X21130000Y-31260000D01*
X21630000Y-30960000D02*
X21630000Y-30460000D01*
X21630000Y-34640000D02*
X21130000Y-34340000D01*
X21630000Y-35140000D02*
X21630000Y-34640000D01*
X92100000Y-40800000D02*
X92100000Y-44810000D01*
X92100000Y-44810000D02*
X94100000Y-44810000D01*
X94100000Y-40800000D02*
X94100000Y-44810000D01*
X268900000Y-72399999D02*
X268900000Y-68389999D01*
X270900000Y-68389999D02*
X268900000Y-68389999D01*
X270900000Y-72399999D02*
X270900000Y-68389999D01*
X38370000Y-72399999D02*
X38370000Y-68389999D01*
X40370000Y-68389999D02*
X38370000Y-68389999D01*
X40370000Y-72399999D02*
X40370000Y-68389999D01*
X8700000Y-40800000D02*
X8700000Y-44810000D01*
X8700000Y-44810000D02*
X10700000Y-44810000D01*
X10700000Y-40800000D02*
X10700000Y-44810000D01*
X44400000Y-59700000D02*
X44400000Y-63710000D01*
X44400000Y-63710000D02*
X46400000Y-63710000D01*
X46400000Y-59700000D02*
X46400000Y-63710000D01*
X69899999Y-73950000D02*
X73299999Y-73950000D01*
X69899999Y-77350000D02*
X69899999Y-73950000D01*
X73299999Y-73950000D02*
X73299999Y-77350000D01*
X73299999Y-77350000D02*
X69899999Y-77350000D01*
X261800000Y-40300000D02*
X261800000Y-44310000D01*
X261800000Y-44310000D02*
X263800000Y-44310000D01*
X263800000Y-40300000D02*
X263800000Y-44310000D01*
X73000000Y-40800000D02*
X73000000Y-44810000D01*
X73000000Y-44810000D02*
X75000000Y-44810000D01*
X75000000Y-40800000D02*
X75000000Y-44810000D01*
X153000000Y-76500000D02*
X153000000Y-74500000D01*
X154500000Y-72750000D02*
X154050000Y-73200000D01*
X154500000Y-72750000D02*
X157000000Y-72750000D01*
X154500000Y-78250000D02*
X154050000Y-77800000D01*
X154500000Y-78250000D02*
X157000000Y-78250000D01*
X157000000Y-72750000D02*
X157450000Y-73200000D01*
X157000000Y-78250000D02*
X157450000Y-77800000D01*
X158500000Y-76500000D02*
X158500000Y-74500000D01*
X220600000Y-21700000D02*
X220600000Y-25710000D01*
X220600000Y-25710000D02*
X222600000Y-25710000D01*
X222600000Y-21700000D02*
X222600000Y-25710000D01*
X93696693Y-82155810D02*
X93544190Y-82003307D01*
X94205810Y-81646693D02*
X94053307Y-81494190D01*
X221400000Y-72399999D02*
X221400000Y-68389999D01*
X223400000Y-68389999D02*
X221400000Y-68389999D01*
X223400000Y-72399999D02*
X223400000Y-68389999D01*
X68200000Y-21700000D02*
X68200000Y-25710000D01*
X68200000Y-25710000D02*
X70200000Y-25710000D01*
X70200000Y-21700000D02*
X70200000Y-25710000D01*
X182500000Y-21700000D02*
X182500000Y-25710000D01*
X182500000Y-25710000D02*
X184500000Y-25710000D01*
X184500000Y-21700000D02*
X184500000Y-25710000D01*
X34900000Y-40800000D02*
X34900000Y-44810000D01*
X34900000Y-44810000D02*
X36900000Y-44810000D01*
X36900000Y-40800000D02*
X36900000Y-44810000D01*
X105586789Y-71741962D02*
X105387978Y-71940773D01*
X106308038Y-72463211D02*
X106109227Y-72662022D01*
X82500000Y-59700000D02*
X82500000Y-63710000D01*
X82500000Y-63710000D02*
X84500000Y-63710000D01*
X84500000Y-59700000D02*
X84500000Y-63710000D01*
X108929779Y-70311104D02*
X109082282Y-70158601D01*
X109438896Y-70820221D02*
X109591399Y-70667718D01*
X215850000Y-59700000D02*
X215850000Y-63710000D01*
X215850000Y-63710000D02*
X217850000Y-63710000D01*
X217850000Y-59700000D02*
X217850000Y-63710000D01*
X196800000Y-59700000D02*
X196800000Y-63710000D01*
X196800000Y-63710000D02*
X198800000Y-63710000D01*
X198800000Y-59700000D02*
X198800000Y-63710000D01*
X106300000Y-21700000D02*
X106300000Y-25710000D01*
X106300000Y-25710000D02*
X108300000Y-25710000D01*
X108300000Y-21700000D02*
X108300000Y-25710000D01*
X128770000Y6595000D02*
X128770000Y4675000D01*
X137930000Y4675000D02*
X137930000Y6595000D01*
X108669463Y-74856344D02*
X109235148Y-74290658D01*
X109800834Y-73724973D02*
X109235148Y-74290658D01*
X110875636Y-77062517D02*
X111441322Y-76496832D01*
X112007007Y-75931146D02*
X111441322Y-76496832D01*
X110889778Y-77444355D02*
X110550367Y-77783766D01*
X110486727Y-77380715D01*
X110889778Y-77444355D01*
G36*
X110889778Y-77444355D02*
G01*
X110550367Y-77783766D01*
X110486727Y-77380715D01*
X110889778Y-77444355D01*
G37*
X26200000Y-59100000D02*
X26200000Y-63110000D01*
X26200000Y-63110000D02*
X28200000Y-63110000D01*
X28200000Y-59100000D02*
X28200000Y-63110000D01*
X14800000Y-59100000D02*
X14800000Y-63110000D01*
X14800000Y-63110000D02*
X16800000Y-63110000D01*
X16800000Y-59100000D02*
X16800000Y-63110000D01*
X4470000Y6395000D02*
X4470000Y4475000D01*
X13630000Y4475000D02*
X13630000Y6395000D01*
X6350000Y-21775000D02*
X6350000Y-25785000D01*
X6350000Y-25785000D02*
X8350000Y-25785000D01*
X8350000Y-21775000D02*
X8350000Y-25785000D01*
X-300000Y-3725000D02*
X-300000Y-7735000D01*
X-300000Y-7735000D02*
X1700000Y-7735000D01*
X1700000Y-3725000D02*
X1700000Y-7735000D01*
X269000000Y-59100000D02*
X269000000Y-63110000D01*
X269000000Y-63110000D02*
X271000000Y-63110000D01*
X271000000Y-59100000D02*
X271000000Y-63110000D01*
X9920000Y-72399999D02*
X9920000Y-68389999D01*
X11920000Y-68389999D02*
X9920000Y-68389999D01*
X11920000Y-72399999D02*
X11920000Y-68389999D01*
X63450000Y-59700000D02*
X63450000Y-63710000D01*
X63450000Y-63710000D02*
X65450000Y-63710000D01*
X65450000Y-59700000D02*
X65450000Y-63710000D01*
X201550000Y-21700000D02*
X201550000Y-25710000D01*
X201550000Y-25710000D02*
X203550000Y-25710000D01*
X203550000Y-21700000D02*
X203550000Y-25710000D01*
X163450000Y-21700000D02*
X163450000Y-25710000D01*
X163450000Y-25710000D02*
X165450000Y-25710000D01*
X165450000Y-21700000D02*
X165450000Y-25710000D01*
X177750000Y-59700000D02*
X177750000Y-63710000D01*
X177750000Y-63710000D02*
X179750000Y-63710000D01*
X179750000Y-59700000D02*
X179750000Y-63710000D01*
X255450000Y-21800000D02*
X255450000Y-25810000D01*
X255450000Y-25810000D02*
X257450000Y-25810000D01*
X257450000Y-21800000D02*
X257450000Y-25810000D01*
X87250000Y-21700000D02*
X87250000Y-25710000D01*
X87250000Y-25710000D02*
X89250000Y-25710000D01*
X89250000Y-21700000D02*
X89250000Y-25710000D01*
X228300000Y-3725000D02*
X228300000Y-7735000D01*
X228300000Y-7735000D02*
X230300000Y-7735000D01*
X230300000Y-3725000D02*
X230300000Y-7735000D01*
X144400000Y-21700000D02*
X144400000Y-25710000D01*
X144400000Y-25710000D02*
X146400000Y-25710000D01*
X146400000Y-21700000D02*
X146400000Y-25710000D01*
X75900000Y-3725000D02*
X75900000Y-7735000D01*
X75900000Y-7735000D02*
X77900000Y-7735000D01*
X77900000Y-3725000D02*
X77900000Y-7735000D01*
X106606533Y-67637294D02*
X105687294Y-68556533D01*
X107914680Y-70741493D02*
X108812706Y-69843467D01*
X108013675Y-71038478D02*
X107674264Y-71377889D01*
X107610624Y-70974838D01*
X108013675Y-71038478D01*
G36*
X108013675Y-71038478D02*
G01*
X107674264Y-71377889D01*
X107610624Y-70974838D01*
X108013675Y-71038478D01*
G37*
X133050000Y-3725000D02*
X133050000Y-7735000D01*
X133050000Y-7735000D02*
X135050000Y-7735000D01*
X135050000Y-3725000D02*
X135050000Y-7735000D01*
X130100000Y-40800000D02*
X130100000Y-44810000D01*
X130100000Y-44810000D02*
X132100000Y-44810000D01*
X132100000Y-40800000D02*
X132100000Y-44810000D01*
X209250000Y-3725000D02*
X209250000Y-7735000D01*
X209250000Y-7735000D02*
X211250000Y-7735000D01*
X211250000Y-3725000D02*
X211250000Y-7735000D01*
X253700000Y-7700000D02*
X253700000Y-11710000D01*
X253700000Y-11710000D02*
X255700000Y-11710000D01*
X255700000Y-7700000D02*
X255700000Y-11710000D01*
X111100000Y-40800000D02*
X111100000Y-44810000D01*
X111100000Y-44810000D02*
X113100000Y-44810000D01*
X113100000Y-40800000D02*
X113100000Y-44810000D01*
%LPC*%
D12*
X118745000Y-19050000D03*
D13*
X123825000Y-19050000D03*
D12*
X128905000Y-19050000D03*
D14*
X120015000Y-16510000D03*
X126365000Y-13970000D03*
D12*
X175895000Y-19050000D03*
D13*
X180975000Y-19050000D03*
D12*
X186055000Y-19050000D03*
D14*
X177165000Y-16510000D03*
X183515000Y-13970000D03*
D12*
X176530000Y0D03*
D13*
X171450000Y0D03*
D12*
X166370000Y0D03*
D14*
X175260000Y-2540000D03*
X168910000Y-5080000D03*
D12*
X209213750Y-76200000D03*
X211613750Y-76200000D03*
X219373750Y-76200000D03*
X221773750Y-76200000D03*
D15*
X211683750Y-73660000D03*
D14*
X212883750Y-73660000D03*
D15*
X218033750Y-71120000D03*
D14*
X219233750Y-71120000D03*
D12*
X100330000Y0D03*
D13*
X95250000Y0D03*
D12*
X90170000Y0D03*
D14*
X99060000Y-2540000D03*
X92710000Y-5080000D03*
D12*
X233026250Y-76200000D03*
X235426250Y-76200000D03*
X243186250Y-76200000D03*
X245586250Y-76200000D03*
D15*
X235496250Y-73660000D03*
D14*
X236696250Y-73660000D03*
D15*
X241846250Y-71120000D03*
D14*
X243046250Y-71120000D03*
D12*
X252730000Y0D03*
D13*
X247650000Y0D03*
D12*
X242570000Y0D03*
D14*
X251460000Y-2540000D03*
X245110000Y-5080000D03*
D12*
X43180000Y0D03*
D13*
X38100000Y0D03*
D12*
X33020000Y0D03*
D14*
X41910000Y-2540000D03*
X35560000Y-5080000D03*
D12*
X24130000Y0D03*
D13*
X19050000Y0D03*
D12*
X13970000Y0D03*
D14*
X22860000Y-2540000D03*
X16510000Y-5080000D03*
D12*
X261620000Y-57150000D03*
D13*
X266700000Y-57150000D03*
D12*
X271780000Y-57150000D03*
D14*
X262890000Y-54610000D03*
X269240000Y-52070000D03*
D12*
X213995000Y-19050000D03*
D13*
X219075000Y-19050000D03*
D12*
X224155000Y-19050000D03*
D14*
X215265000Y-16510000D03*
X221615000Y-13970000D03*
D12*
X199707500Y-38100000D03*
D13*
X204787500Y-38100000D03*
D12*
X209867500Y-38100000D03*
D14*
X200977500Y-35560000D03*
X207327500Y-33020000D03*
D12*
X138430000Y0D03*
D13*
X133350000Y0D03*
D12*
X128270000Y0D03*
D14*
X137160000Y-2540000D03*
X130810000Y-5080000D03*
D12*
X157480000Y0D03*
D13*
X152400000Y0D03*
D12*
X147320000Y0D03*
D14*
X156210000Y-2540000D03*
X149860000Y-5080000D03*
D12*
X256838750Y-76200000D03*
X259238750Y-76200000D03*
X266998750Y-76200000D03*
X269398750Y-76200000D03*
D15*
X259308750Y-73660000D03*
D14*
X260508750Y-73660000D03*
D15*
X265658750Y-71120000D03*
D14*
X266858750Y-71120000D03*
D16*
X242855750Y-31115000D03*
D17*
X242855750Y-46325000D03*
D16*
X266731750Y-31115000D03*
D17*
X266731750Y-46325000D03*
D12*
X28257500Y-38100000D03*
D13*
X33337500Y-38100000D03*
D12*
X38417500Y-38100000D03*
D14*
X29527500Y-35560000D03*
X35877500Y-33020000D03*
D12*
X237820000Y-38100000D03*
D13*
X242900000Y-38100000D03*
D12*
X247980000Y-38100000D03*
D14*
X239090000Y-35560000D03*
X245440000Y-33020000D03*
D12*
X5080000Y0D03*
D13*
X0Y0D03*
D12*
X-5080000Y0D03*
D14*
X3810000Y-2540000D03*
X-2540000Y-5080000D03*
D12*
X-2700000Y-57150000D03*
D13*
X2380000Y-57150000D03*
D12*
X7460000Y-57150000D03*
D14*
X-1430000Y-54610000D03*
X4920000Y-52070000D03*
D12*
X194945000Y-19050000D03*
D13*
X200025000Y-19050000D03*
D12*
X205105000Y-19050000D03*
D14*
X196215000Y-16510000D03*
X202565000Y-13970000D03*
D12*
X249713750Y-38100000D03*
D13*
X254793750Y-38100000D03*
D12*
X259873750Y-38100000D03*
D14*
X250983750Y-35560000D03*
X257333750Y-33020000D03*
D12*
X152082500Y-57150000D03*
D13*
X157162500Y-57150000D03*
D12*
X162242500Y-57150000D03*
D14*
X153352500Y-54610000D03*
X159702500Y-52070000D03*
D12*
X94932500Y-57150000D03*
D13*
X100012500Y-57150000D03*
D12*
X105092500Y-57150000D03*
D14*
X96202500Y-54610000D03*
X102552500Y-52070000D03*
D12*
X119380000Y0D03*
D13*
X114300000Y0D03*
D12*
X109220000Y0D03*
D14*
X118110000Y-2540000D03*
X111760000Y-5080000D03*
D12*
X195580000Y0D03*
D13*
X190500000Y0D03*
D12*
X185420000Y0D03*
D14*
X194310000Y-2540000D03*
X187960000Y-5080000D03*
D16*
X171443750Y-83185000D03*
D17*
X171443750Y-67975000D03*
D16*
X71443750Y-83185000D03*
D17*
X71443750Y-67975000D03*
D12*
X262280000Y0D03*
D13*
X257200000Y0D03*
D12*
X252120000Y0D03*
D14*
X261010000Y-2540000D03*
X254660000Y-5080000D03*
D12*
X233045000Y-19050000D03*
D13*
X238125000Y-19050000D03*
D12*
X243205000Y-19050000D03*
D14*
X234315000Y-16510000D03*
X240665000Y-13970000D03*
D12*
X99695000Y-19050000D03*
D13*
X104775000Y-19050000D03*
D12*
X109855000Y-19050000D03*
D14*
X100965000Y-16510000D03*
X107315000Y-13970000D03*
D16*
X-31750Y-50165000D03*
D17*
X-31750Y-65375000D03*
D16*
X23844250Y-50165000D03*
D17*
X23844250Y-65375000D03*
D12*
X264320000Y-23490000D03*
D13*
X264320000Y-28570000D03*
D12*
X264320000Y-33650000D03*
D14*
X266860000Y-24760000D03*
X269400000Y-31110000D03*
D12*
X123507500Y-38100000D03*
D13*
X128587500Y-38100000D03*
D12*
X133667500Y-38100000D03*
D14*
X124777500Y-35560000D03*
X131127500Y-33020000D03*
D12*
X161607500Y-38100000D03*
D13*
X166687500Y-38100000D03*
D12*
X171767500Y-38100000D03*
D14*
X162877500Y-35560000D03*
X169227500Y-33020000D03*
D12*
X-2698750Y-76200000D03*
X-298750Y-76200000D03*
X7461250Y-76200000D03*
X9861250Y-76200000D03*
D15*
X-228750Y-73660000D03*
D14*
X971250Y-73660000D03*
D15*
X6121250Y-71120000D03*
D14*
X7321250Y-71120000D03*
D16*
X257335000Y-40508000D03*
D17*
X272545000Y-40508000D03*
D16*
X257335000Y-16632000D03*
D17*
X272545000Y-16632000D03*
D12*
X142557500Y-38100000D03*
D13*
X147637500Y-38100000D03*
D12*
X152717500Y-38100000D03*
D14*
X143827500Y-35560000D03*
X150177500Y-33020000D03*
D12*
X23495000Y-19050000D03*
D13*
X28575000Y-19050000D03*
D12*
X33655000Y-19050000D03*
D14*
X24765000Y-16510000D03*
X31115000Y-13970000D03*
D12*
X233680000Y0D03*
D13*
X228600000Y0D03*
D12*
X223520000Y0D03*
D14*
X232410000Y-2540000D03*
X226060000Y-5080000D03*
D12*
X18720000Y-57150000D03*
D13*
X23800000Y-57150000D03*
D12*
X28880000Y-57150000D03*
D14*
X19990000Y-54610000D03*
X26340000Y-52070000D03*
D12*
X75882500Y-57150000D03*
D13*
X80962500Y-57150000D03*
D12*
X86042500Y-57150000D03*
D14*
X77152500Y-54610000D03*
X83502500Y-52070000D03*
D12*
X180657500Y-38100000D03*
D13*
X185737500Y-38100000D03*
D12*
X190817500Y-38100000D03*
D14*
X181927500Y-35560000D03*
X188277500Y-33020000D03*
D16*
X190500000Y-83186270D03*
D17*
X190500000Y-67976270D03*
D16*
X76200000Y-83186270D03*
D17*
X76200000Y-67976270D03*
D12*
X187801250Y-76200000D03*
D13*
X192881250Y-76200000D03*
D12*
X197961250Y-76200000D03*
D14*
X189071250Y-73660000D03*
X195421250Y-71120000D03*
D16*
X238093250Y-50160050D03*
D17*
X238093250Y-65370050D03*
D16*
X261969250Y-50160050D03*
D17*
X261969250Y-65370050D03*
D12*
X44926250Y-76200000D03*
X47326250Y-76200000D03*
X55086250Y-76200000D03*
X57486250Y-76200000D03*
D15*
X47396250Y-73660000D03*
D14*
X48596250Y-73660000D03*
D15*
X53746250Y-71120000D03*
D14*
X54946250Y-71120000D03*
D12*
X116363750Y-76200000D03*
D13*
X121443750Y-76200000D03*
D12*
X126523750Y-76200000D03*
D14*
X117633750Y-73660000D03*
X123983750Y-71120000D03*
D12*
X137795000Y-19050000D03*
D13*
X142875000Y-19050000D03*
D12*
X147955000Y-19050000D03*
D14*
X139065000Y-16510000D03*
X145415000Y-13970000D03*
D12*
X66357500Y-38100000D03*
D13*
X71437500Y-38100000D03*
D12*
X76517500Y-38100000D03*
D14*
X67627500Y-35560000D03*
X73977500Y-33020000D03*
D12*
X244951250Y-57150000D03*
D13*
X250031250Y-57150000D03*
D12*
X255111250Y-57150000D03*
D14*
X246221250Y-54610000D03*
X252571250Y-52070000D03*
D12*
X156845000Y-19050000D03*
D13*
X161925000Y-19050000D03*
D12*
X167005000Y-19050000D03*
D14*
X158115000Y-16510000D03*
X164465000Y-13970000D03*
D12*
X113982500Y-57150000D03*
D13*
X119062500Y-57150000D03*
D12*
X124142500Y-57150000D03*
D14*
X115252500Y-54610000D03*
X121602500Y-52070000D03*
D12*
X104457500Y-38100000D03*
D13*
X109537500Y-38100000D03*
D12*
X114617500Y-38100000D03*
D14*
X105727500Y-35560000D03*
X112077500Y-33020000D03*
D12*
X56832500Y-57150000D03*
D13*
X61912500Y-57150000D03*
D12*
X66992500Y-57150000D03*
D14*
X58102500Y-54610000D03*
X64452500Y-52070000D03*
D12*
X214630000Y0D03*
D13*
X209550000Y0D03*
D12*
X204470000Y0D03*
D14*
X213360000Y-2540000D03*
X207010000Y-5080000D03*
D12*
X209232500Y-57150000D03*
D13*
X214312500Y-57150000D03*
D12*
X219392500Y-57150000D03*
D14*
X210502500Y-54610000D03*
X216852500Y-52070000D03*
D12*
X171132500Y-57150000D03*
D13*
X176212500Y-57150000D03*
D12*
X181292500Y-57150000D03*
D14*
X172402500Y-54610000D03*
X178752500Y-52070000D03*
D12*
X271780000Y0D03*
D13*
X266700000Y0D03*
D12*
X261620000Y0D03*
D14*
X270510000Y-2540000D03*
X264160000Y-5080000D03*
D12*
X81280000Y0D03*
D13*
X76200000Y0D03*
D12*
X71120000Y0D03*
D14*
X80010000Y-2540000D03*
X73660000Y-5080000D03*
D12*
X61595000Y-19050000D03*
D13*
X66675000Y-19050000D03*
D12*
X71755000Y-19050000D03*
D14*
X62865000Y-16510000D03*
X69215000Y-13970000D03*
D12*
X267017500Y-19050000D03*
D13*
X261937500Y-19050000D03*
D12*
X256857500Y-19050000D03*
D14*
X265747500Y-21590000D03*
X259397500Y-24130000D03*
D12*
X47307500Y-38100000D03*
D13*
X52387500Y-38100000D03*
D12*
X57467500Y-38100000D03*
D14*
X48577500Y-35560000D03*
X54927500Y-33020000D03*
D12*
X235420000Y-57150000D03*
D13*
X240500000Y-57150000D03*
D12*
X245580000Y-57150000D03*
D14*
X236690000Y-54610000D03*
X243040000Y-52070000D03*
D12*
X6826250Y-57150000D03*
D13*
X11906250Y-57150000D03*
D12*
X16986250Y-57150000D03*
D14*
X8096250Y-54610000D03*
X14446250Y-52070000D03*
D16*
X245262000Y6985000D03*
D17*
X245262000Y-8225000D03*
D16*
X269138000Y6985000D03*
D17*
X269138000Y-8225000D03*
D12*
X190182500Y-57150000D03*
D13*
X195262500Y-57150000D03*
D12*
X200342500Y-57150000D03*
D14*
X191452500Y-54610000D03*
X197802500Y-52070000D03*
D12*
X133032500Y-57150000D03*
D13*
X138112500Y-57150000D03*
D12*
X143192500Y-57150000D03*
D14*
X134302500Y-54610000D03*
X140652500Y-52070000D03*
D12*
X62230000Y0D03*
D13*
X57150000Y0D03*
D12*
X52070000Y0D03*
D14*
X60960000Y-2540000D03*
X54610000Y-5080000D03*
D12*
X218757500Y-38100000D03*
D13*
X223837500Y-38100000D03*
D12*
X228917500Y-38100000D03*
D14*
X220027500Y-35560000D03*
X226377500Y-33020000D03*
D12*
X-2695000Y-38100000D03*
D13*
X2385000Y-38100000D03*
D12*
X7465000Y-38100000D03*
D14*
X-1425000Y-35560000D03*
X4925000Y-33020000D03*
D12*
X85407500Y-38100000D03*
D13*
X90487500Y-38100000D03*
D12*
X95567500Y-38100000D03*
D14*
X86677500Y-35560000D03*
X93027500Y-33020000D03*
D12*
X37782500Y-57150000D03*
D13*
X42862500Y-57150000D03*
D12*
X47942500Y-57150000D03*
D14*
X39052500Y-54610000D03*
X45402500Y-52070000D03*
D12*
X-317500Y-19050000D03*
D13*
X4762500Y-19050000D03*
D12*
X9842500Y-19050000D03*
D14*
X952500Y-16510000D03*
X7302500Y-13970000D03*
D12*
X21120000Y-76200000D03*
X23520000Y-76200000D03*
X31280000Y-76200000D03*
X33680000Y-76200000D03*
D15*
X23590000Y-73660000D03*
D14*
X24790000Y-73660000D03*
D15*
X29940000Y-71120000D03*
D14*
X31140000Y-71120000D03*
D12*
X2063750Y-38100000D03*
D13*
X7143750Y-38100000D03*
D12*
X12223750Y-38100000D03*
D14*
X3333750Y-35560000D03*
X9683750Y-33020000D03*
D12*
X42545000Y-19050000D03*
D13*
X47625000Y-19050000D03*
D12*
X52705000Y-19050000D03*
D14*
X43815000Y-16510000D03*
X50165000Y-13970000D03*
D12*
X80645000Y-19050000D03*
D13*
X85725000Y-19050000D03*
D12*
X90805000Y-19050000D03*
D14*
X81915000Y-16510000D03*
X88265000Y-13970000D03*
D12*
X128270000Y-76201270D03*
D13*
X133350000Y-76201270D03*
D12*
X138430000Y-76201270D03*
D14*
X129540000Y-73661270D03*
X135890000Y-71121270D03*
D18*
X246150000Y-69099999D03*
X246150000Y-72399999D03*
D19*
X126350000Y-25000000D03*
X126350000Y-21700000D03*
X207300000Y-44100000D03*
X207300000Y-40800000D03*
X115000000Y-7025000D03*
X115000000Y-3725000D03*
X240600000Y-25000000D03*
X240600000Y-21700000D03*
D20*
X93553372Y-66611236D03*
X92874550Y-65932414D03*
D19*
X60500000Y-73000000D03*
X60500000Y-69700000D03*
X95950000Y-7025000D03*
X95950000Y-3725000D03*
D21*
X91450000Y-79400000D03*
X92128822Y-80078822D03*
D19*
X226400000Y-44100000D03*
X226400000Y-40800000D03*
X159700000Y-63000000D03*
X159700000Y-59700000D03*
D22*
X100039411Y-82110589D03*
X99360589Y-82789411D03*
D19*
X102500000Y-63000000D03*
X102500000Y-59700000D03*
X191200000Y-7025000D03*
X191200000Y-3725000D03*
X264200000Y-11000000D03*
X264200000Y-7699999D03*
D23*
X103900000Y-80300000D03*
X105190470Y-81590470D03*
D24*
X181350000Y-76000000D03*
D19*
X57850000Y-7025000D03*
X57850000Y-3725000D03*
D25*
X274500000Y-47100000D03*
D26*
X140512500Y5625000D03*
X142337500Y5625000D03*
D22*
X112733558Y-76180402D03*
X112054736Y-76859224D03*
D19*
X50150000Y-25000000D03*
X50150000Y-21700000D03*
D27*
X142337500Y4050000D03*
X140512500Y4050000D03*
D28*
X21900001Y-42300000D03*
X24699999Y-42300000D03*
D19*
X121600000Y-63000000D03*
X121600000Y-59700000D03*
X172150000Y-7025000D03*
X172150000Y-3725000D03*
D18*
X198600000Y-69099999D03*
X198600000Y-72399999D03*
D19*
X38800000Y-7025000D03*
X38800000Y-3725000D03*
X169200000Y-44100000D03*
X169200000Y-40800000D03*
X253400000Y-62400000D03*
X253400000Y-59100000D03*
X150200000Y-44100000D03*
X150200000Y-40800000D03*
D29*
X24200000Y-31000000D03*
D30*
X24200000Y-33540000D03*
X24200000Y-36079999D03*
X24200000Y-38620000D03*
D23*
X102754765Y-81454765D03*
X104045235Y-82745235D03*
D19*
X246300000Y-43600000D03*
X246300000Y-40300000D03*
D20*
X90724945Y-78689411D03*
X90046123Y-78010589D03*
D31*
X107960589Y-74589411D03*
X108639411Y-73910589D03*
D19*
X31100000Y-25000000D03*
X31100000Y-21700000D03*
X153100000Y-7025000D03*
X153100000Y-3725000D03*
X188300000Y-44100000D03*
X188300000Y-40800000D03*
D32*
X96104260Y-78937876D03*
X95750706Y-78584322D03*
X95397153Y-78230769D03*
X95043599Y-77877215D03*
X94690046Y-77523662D03*
X94336493Y-77170109D03*
X93982939Y-76816555D03*
X93629386Y-76463002D03*
X93275833Y-76109449D03*
X92922279Y-75755895D03*
X92568726Y-75402342D03*
X92215172Y-75048788D03*
D33*
X92215172Y-73051212D03*
X92568726Y-72697658D03*
X92922279Y-72344105D03*
X93275833Y-71990551D03*
X93629386Y-71636998D03*
X93982939Y-71283445D03*
X94336493Y-70929891D03*
X94690046Y-70576338D03*
X95043599Y-70222785D03*
X95397153Y-69869231D03*
X95750706Y-69515678D03*
X96104260Y-69162124D03*
D32*
X98101836Y-69162124D03*
X98455390Y-69515678D03*
X98808943Y-69869231D03*
X99162497Y-70222785D03*
X99516050Y-70576338D03*
X99869603Y-70929891D03*
X100223157Y-71283445D03*
X100576710Y-71636998D03*
X100930263Y-71990551D03*
X101283817Y-72344105D03*
X101637370Y-72697658D03*
X101990924Y-73051212D03*
D33*
X101990924Y-75048788D03*
X101637370Y-75402342D03*
X101283817Y-75755895D03*
X100930263Y-76109449D03*
X100576710Y-76463002D03*
X100223157Y-76816555D03*
X99869603Y-77170109D03*
X99516050Y-77523662D03*
X99162497Y-77877215D03*
X98808943Y-78230769D03*
X98455390Y-78584322D03*
X98101836Y-78937876D03*
D19*
X140700000Y-63000000D03*
X140700000Y-59700000D03*
D27*
X18087500Y4375000D03*
X16262500Y4375000D03*
D34*
X16050000Y-18700000D03*
D19*
X54950000Y-44100000D03*
X54950000Y-40800000D03*
D18*
X139100000Y-67800000D03*
X139100000Y-71100000D03*
D35*
X76850000Y-75650000D03*
D31*
X104510589Y-71239411D03*
X105189411Y-70560589D03*
D27*
X2212500Y3975000D03*
X387500Y3975000D03*
D19*
X13400000Y-7000000D03*
X13400000Y-3700000D03*
D36*
X17125000Y-31000000D03*
X17125000Y-32200000D03*
X17125000Y-33400000D03*
X17125000Y-34600000D03*
D37*
X20900000Y-29850000D03*
X20900000Y-35750000D03*
D19*
X93100000Y-44100000D03*
X93100000Y-40800000D03*
D18*
X269900000Y-69099999D03*
X269900000Y-72399999D03*
X39370000Y-69099999D03*
X39370000Y-72399999D03*
D19*
X9700000Y-44100000D03*
X9700000Y-40800000D03*
X45400000Y-63000000D03*
X45400000Y-59700000D03*
D35*
X71599999Y-75650000D03*
D19*
X262800000Y-43600000D03*
X262800000Y-40300000D03*
X74000000Y-44100000D03*
X74000000Y-40800000D03*
D38*
X158899999Y-73600000D03*
X152600001Y-73600000D03*
X158899999Y-77400000D03*
X152600001Y-77400000D03*
D19*
X221600000Y-25000000D03*
X221600000Y-21700000D03*
D21*
X93535589Y-81485589D03*
X94214411Y-82164411D03*
D18*
X222400000Y-69099999D03*
X222400000Y-72399999D03*
D19*
X69200000Y-25000000D03*
X69200000Y-21700000D03*
X183500000Y-25000000D03*
X183500000Y-21700000D03*
X35900000Y-44100000D03*
X35900000Y-40800000D03*
D39*
X105300000Y-72750000D03*
X106396016Y-71653984D03*
D19*
X83500000Y-63000000D03*
X83500000Y-59700000D03*
D22*
X109600000Y-70150000D03*
X108921178Y-70828822D03*
D19*
X216850000Y-63000000D03*
X216850000Y-59700000D03*
D24*
X250900000Y-18700000D03*
D19*
X197800000Y-63000000D03*
X197800000Y-59700000D03*
D25*
X-6900000Y-47300000D03*
D19*
X107300000Y-25000000D03*
X107300000Y-21700000D03*
D40*
X130460000Y3900000D03*
X136240000Y3900000D03*
D41*
X130150000Y2725000D03*
X130950000Y2725000D03*
D42*
X132100000Y2800000D03*
D43*
X133100000Y2910000D03*
X133600000Y2910000D03*
D42*
X134600000Y2800000D03*
D41*
X135750000Y2725000D03*
X136550000Y2725000D03*
X136550000Y2725000D03*
X135750000Y2725000D03*
D42*
X135100000Y2800000D03*
D44*
X134100000Y2860000D03*
X132600000Y2860000D03*
D42*
X131600000Y2800000D03*
D41*
X130950000Y2725000D03*
X130150000Y2725000D03*
D45*
X129030000Y7600000D03*
D46*
X129030000Y3400000D03*
D45*
X137670000Y7600000D03*
D46*
X137670000Y3400000D03*
D47*
X110205652Y-76869830D03*
X108862150Y-75526328D03*
X111142569Y-74589411D03*
D19*
X27200000Y-62400000D03*
X27200000Y-59100000D03*
D48*
X119050000Y-37800000D03*
D19*
X15800000Y-62400000D03*
X15800000Y-59100000D03*
D40*
X6160000Y3700000D03*
X11940000Y3700000D03*
D41*
X5850000Y2525000D03*
X6650000Y2525000D03*
D42*
X7800000Y2600000D03*
X8800000Y2600000D03*
X9300000Y2600000D03*
X10300000Y2600000D03*
D41*
X11450000Y2525000D03*
X12250000Y2525000D03*
X12250000Y2525000D03*
X11450000Y2525000D03*
D42*
X10800000Y2600000D03*
X9800000Y2600000D03*
X8300000Y2600000D03*
X7300000Y2600000D03*
D41*
X6650000Y2525000D03*
X5850000Y2525000D03*
D45*
X4730000Y7400000D03*
D46*
X4730000Y3200000D03*
D45*
X13370000Y7400000D03*
D46*
X13370000Y3200000D03*
D19*
X7350000Y-25075000D03*
X7350000Y-21775000D03*
X700000Y-7025000D03*
X700000Y-3725000D03*
X270000000Y-62400000D03*
X270000000Y-59100000D03*
D18*
X10920000Y-69099999D03*
X10920000Y-72399999D03*
D19*
X64450000Y-63000000D03*
X64450000Y-59700000D03*
X202550000Y-25000000D03*
X202550000Y-21700000D03*
X164450000Y-25000000D03*
X164450000Y-21700000D03*
X178750000Y-63000000D03*
X178750000Y-59700000D03*
X256450000Y-25100000D03*
X256450000Y-21800000D03*
X88250000Y-25000000D03*
X88250000Y-21700000D03*
X229300000Y-7025000D03*
X229300000Y-3725000D03*
X145400000Y-25000000D03*
X145400000Y-21700000D03*
X76900000Y-7025000D03*
X76900000Y-3725000D03*
D49*
X107073223Y-70437437D03*
D50*
X105871142Y-69235355D03*
X107285355Y-67821142D03*
X108628858Y-69164645D03*
D19*
X134050000Y-7025000D03*
X134050000Y-3725000D03*
X131100000Y-44100000D03*
X131100000Y-40800000D03*
X210250000Y-7025000D03*
X210250000Y-3725000D03*
X254700000Y-11000000D03*
X254700000Y-7700000D03*
X112100000Y-44100000D03*
X112100000Y-40800000D03*
%LPD*%
M02*
