M48
; DRILL file {KiCad 8.0.4} date 2024-08-26T20:04:37+0200
; FORMAT={-:-/ absolute / metric / decimal}
; #@! TF.CreationDate,2024-08-26T20:04:37+02:00
; #@! TF.GenerationSoftware,Kicad,Pcbnew,8.0.4
; #@! TF.FileFunction,Plated,1,2,PTH
FMAT,2
METRIC
; #@! TA.AperFunction,Plated,PTH,ViaDrill
T1C0.200
; #@! TA.AperFunction,Plated,PTH,ComponentDrill
T2C0.600
; #@! TA.AperFunction,Plated,PTH,ComponentDrill
T3C1.000
; #@! TA.AperFunction,Plated,PTH,ComponentDrill
T4C1.500
; #@! TA.AperFunction,Plated,PTH,ComponentDrill
T5C2.500
%
G90
G05
T1
X5.5Y1.5
X8.6Y1.2
X9.5Y1.2
X9.898Y-9.052
X10.85Y-8.5
X10.9Y-3.15
X12.7Y-11.2
X12.8Y1.3
X15.35Y-31.65
X15.95Y-31.65
X17.15Y-28.25
X25.8Y-43.4
X28.05Y-45.65
X28.05Y-46.3
X28.05Y-46.9
X90.05Y-55.15
X90.65Y-71.0
X91.2Y-70.45
X91.75Y-69.9
X92.15Y-77.8
X92.2Y-69.35
X92.6Y-68.8
X93.375Y-67.875
X94.35Y-73.6
X95.95Y-76.3
X96.25Y-72.0
X97.6Y-25.0
X98.75Y-72.1
X98.9Y-7.025
X99.15Y-44.1
X99.15Y-75.5
X101.225Y-65.075
X101.4Y-81.4
X101.4Y-82.1
X102.07Y-65.07
X102.45Y-70.05
X102.8Y-45.65
X102.8Y-46.3
X102.8Y-46.9
X102.85Y-70.6
X102.919Y-65.069
X103.65Y-73.5
X103.768Y-65.068
X104.618Y-65.068
X105.175Y-67.325
X106.2Y-67.25
X106.5Y-82.9
X106.685Y-63.0
X107.693Y-61.143
X109.55Y-68.25
X111.5Y-65.2
X118.3Y-65.65
X123.8Y-9.05
X124.6Y-6.0
X125.35Y-8.05
X126.5Y-8.45
X129.55Y1.45
X130.3Y-1.3
X131.7Y4.05
X132.2Y4.75
X133.85Y4.75
X137.4Y1.35
X139.6Y5.625
X140.675Y-76.725
X141.125Y-77.175
X141.575Y-77.575
X141.999Y-77.999
X142.425Y-78.425
X142.85Y-78.85
X149.175Y-73.6
X155.9Y-64.75
X155.9Y-65.35
X198.45Y-64.7
X217.85Y-65.25
T3
X24.2Y-31.0
X24.2Y-33.54
X24.2Y-36.08
X24.2Y-38.62
T4
X-2.54Y-5.08
X-1.43Y-54.61
X-1.429Y-73.66
X-1.425Y-35.56
X0.952Y-16.51
X0.971Y-73.66
X3.334Y-35.56
X3.81Y-2.54
X4.92Y-52.07
X4.921Y-71.12
X4.925Y-33.02
X7.302Y-13.97
X7.321Y-71.12
X8.096Y-54.61
X9.684Y-33.02
X14.446Y-52.07
X16.51Y-5.08
X19.99Y-54.61
X22.39Y-73.66
X22.86Y-2.54
X24.765Y-16.51
X24.79Y-73.66
X26.34Y-52.07
X28.74Y-71.12
X29.527Y-35.56
X31.115Y-13.97
X31.14Y-71.12
X35.56Y-5.08
X35.877Y-33.02
X39.052Y-54.61
X41.91Y-2.54
X43.815Y-16.51
X45.402Y-52.07
X46.196Y-73.66
X48.578Y-35.56
X48.596Y-73.66
X50.165Y-13.97
X52.546Y-71.12
X54.61Y-5.08
X54.927Y-33.02
X54.946Y-71.12
X58.102Y-54.61
X60.96Y-2.54
X62.865Y-16.51
X64.453Y-52.07
X67.627Y-35.56
X69.215Y-13.97
X73.66Y-5.08
X73.977Y-33.02
X77.153Y-54.61
X80.01Y-2.54
X81.915Y-16.51
X83.502Y-52.07
X86.677Y-35.56
X88.265Y-13.97
X92.71Y-5.08
X93.027Y-33.02
X96.203Y-54.61
X99.06Y-2.54
X100.965Y-16.51
X102.552Y-52.07
X105.727Y-35.56
X107.315Y-13.97
X111.76Y-5.08
X112.078Y-33.02
X115.252Y-54.61
X117.634Y-73.66
X118.11Y-2.54
X120.015Y-16.51
X121.602Y-52.07
X123.984Y-71.12
X124.777Y-35.56
X126.365Y-13.97
X129.54Y-73.661
X130.81Y-5.08
X131.127Y-33.02
X134.302Y-54.61
X135.89Y-71.121
X137.16Y-2.54
X139.065Y-16.51
X140.653Y-52.07
X143.827Y-35.56
X145.415Y-13.97
X149.86Y-5.08
X150.177Y-33.02
X153.352Y-54.61
X156.21Y-2.54
X158.115Y-16.51
X159.702Y-52.07
X162.877Y-35.56
X164.465Y-13.97
X168.91Y-5.08
X169.227Y-33.02
X172.403Y-54.61
X175.26Y-2.54
X177.165Y-16.51
X178.752Y-52.07
X181.927Y-35.56
X183.515Y-13.97
X187.96Y-5.08
X188.278Y-33.02
X189.071Y-73.66
X191.452Y-54.61
X194.31Y-2.54
X195.421Y-71.12
X196.215Y-16.51
X197.802Y-52.07
X200.977Y-35.56
X202.565Y-13.97
X207.01Y-5.08
X207.327Y-33.02
X210.484Y-73.66
X210.502Y-54.61
X212.884Y-73.66
X213.36Y-2.54
X215.265Y-16.51
X216.834Y-71.12
X216.852Y-52.07
X219.234Y-71.12
X220.028Y-35.56
X221.615Y-13.97
X226.06Y-5.08
X226.377Y-33.02
X232.41Y-2.54
X234.296Y-73.66
X234.315Y-16.51
X236.69Y-54.61
X236.696Y-73.66
X239.09Y-35.56
X240.646Y-71.12
X240.665Y-13.97
X243.04Y-52.07
X243.046Y-71.12
X245.11Y-5.08
X245.44Y-33.02
X246.221Y-54.61
X250.984Y-35.56
X251.46Y-2.54
X252.571Y-52.07
X254.66Y-5.08
X257.334Y-33.02
X258.109Y-73.66
X259.397Y-24.13
X260.509Y-73.66
X261.01Y-2.54
X262.89Y-54.61
X264.16Y-5.08
X264.459Y-71.12
X265.748Y-21.59
X266.859Y-71.12
X266.86Y-24.76
X269.24Y-52.07
X269.4Y-31.11
X270.51Y-2.54
T5
X16.05Y-18.7
T2
X4.73Y7.8G85X4.73Y7.0
G05
X4.73Y3.75G85X4.73Y2.65
G05
X13.37Y7.8G85X13.37Y7.0
G05
X13.37Y3.75G85X13.37Y2.65
G05
X129.03Y8.0G85X129.03Y7.2
G05
X129.03Y3.95G85X129.03Y2.85
G05
X137.67Y8.0G85X137.67Y7.2
G05
X137.67Y3.95G85X137.67Y2.85
G05
T5
X-4.65Y-47.3G85X-9.15Y-47.3
G05
X120.3Y-37.8G85X117.8Y-37.8
G05
X182.6Y-76.0G85X180.1Y-76.0
G05
X252.15Y-18.7G85X249.65Y-18.7
G05
X276.75Y-47.1G85X272.25Y-47.1
G05
M30
