G04 #@! TF.GenerationSoftware,KiCad,Pcbnew,8.0.4*
G04 #@! TF.CreationDate,2024-08-26T20:04:34+02:00*
G04 #@! TF.ProjectId,keyboard,6b657962-6f61-4726-942e-6b696361645f,rev?*
G04 #@! TF.SameCoordinates,Original*
G04 #@! TF.FileFunction,Legend,Top*
G04 #@! TF.FilePolarity,Positive*
%FSLAX46Y46*%
G04 Gerber Fmt 4.6, Leading zero omitted, Abs format (unit mm)*
G04 Created by KiCad (PCBNEW 8.0.4) date 2024-08-26 20:04:34*
%MOMM*%
%LPD*%
G01*
G04 APERTURE LIST*
%ADD10C,0.160000*%
%ADD11C,0.120000*%
%ADD12C,1.750000*%
%ADD13C,4.000000*%
%ADD14C,2.500000*%
%ADD15O,4.900000X2.500000*%
%ADD16C,3.048000*%
%ADD17C,3.987800*%
%ADD18O,8.000000X5.000000*%
%ADD19O,10.000000X5.000000*%
%ADD20R,1.700000X1.700000*%
%ADD21O,1.700000X1.700000*%
%ADD22C,5.000000*%
%ADD23C,0.650000*%
%ADD24O,1.000000X1.800000*%
%ADD25O,1.000000X2.200000*%
%ADD26C,6.000000*%
G04 APERTURE END LIST*
D10*
X126954762Y-25554299D02*
X126954762Y-24554299D01*
X127526190Y-25554299D02*
X127097619Y-24982870D01*
X127526190Y-24554299D02*
X126954762Y-25125727D01*
X127716667Y-25649537D02*
X128478571Y-25649537D01*
X128669048Y-24649537D02*
X128716667Y-24601918D01*
X128716667Y-24601918D02*
X128811905Y-24554299D01*
X128811905Y-24554299D02*
X129050000Y-24554299D01*
X129050000Y-24554299D02*
X129145238Y-24601918D01*
X129145238Y-24601918D02*
X129192857Y-24649537D01*
X129192857Y-24649537D02*
X129240476Y-24744775D01*
X129240476Y-24744775D02*
X129240476Y-24840013D01*
X129240476Y-24840013D02*
X129192857Y-24982870D01*
X129192857Y-24982870D02*
X128621429Y-25554299D01*
X128621429Y-25554299D02*
X129240476Y-25554299D01*
X130192857Y-25554299D02*
X129621429Y-25554299D01*
X129907143Y-25554299D02*
X129907143Y-24554299D01*
X129907143Y-24554299D02*
X129811905Y-24697156D01*
X129811905Y-24697156D02*
X129716667Y-24792394D01*
X129716667Y-24792394D02*
X129621429Y-24840013D01*
X184104762Y-25554299D02*
X184104762Y-24554299D01*
X184676190Y-25554299D02*
X184247619Y-24982870D01*
X184676190Y-24554299D02*
X184104762Y-25125727D01*
X184866667Y-25649537D02*
X185628571Y-25649537D01*
X185819048Y-24649537D02*
X185866667Y-24601918D01*
X185866667Y-24601918D02*
X185961905Y-24554299D01*
X185961905Y-24554299D02*
X186200000Y-24554299D01*
X186200000Y-24554299D02*
X186295238Y-24601918D01*
X186295238Y-24601918D02*
X186342857Y-24649537D01*
X186342857Y-24649537D02*
X186390476Y-24744775D01*
X186390476Y-24744775D02*
X186390476Y-24840013D01*
X186390476Y-24840013D02*
X186342857Y-24982870D01*
X186342857Y-24982870D02*
X185771429Y-25554299D01*
X185771429Y-25554299D02*
X186390476Y-25554299D01*
X187247619Y-24887632D02*
X187247619Y-25554299D01*
X187009524Y-24506680D02*
X186771429Y-25220965D01*
X186771429Y-25220965D02*
X187390476Y-25220965D01*
X175480952Y-6454299D02*
X175480952Y-5454299D01*
X176052380Y-6454299D02*
X175623809Y-5882870D01*
X176052380Y-5454299D02*
X175480952Y-6025727D01*
X176242857Y-6549537D02*
X177004761Y-6549537D01*
X177290476Y-6454299D02*
X177480952Y-6454299D01*
X177480952Y-6454299D02*
X177576190Y-6406680D01*
X177576190Y-6406680D02*
X177623809Y-6359060D01*
X177623809Y-6359060D02*
X177719047Y-6216203D01*
X177719047Y-6216203D02*
X177766666Y-6025727D01*
X177766666Y-6025727D02*
X177766666Y-5644775D01*
X177766666Y-5644775D02*
X177719047Y-5549537D01*
X177719047Y-5549537D02*
X177671428Y-5501918D01*
X177671428Y-5501918D02*
X177576190Y-5454299D01*
X177576190Y-5454299D02*
X177385714Y-5454299D01*
X177385714Y-5454299D02*
X177290476Y-5501918D01*
X177290476Y-5501918D02*
X177242857Y-5549537D01*
X177242857Y-5549537D02*
X177195238Y-5644775D01*
X177195238Y-5644775D02*
X177195238Y-5882870D01*
X177195238Y-5882870D02*
X177242857Y-5978108D01*
X177242857Y-5978108D02*
X177290476Y-6025727D01*
X177290476Y-6025727D02*
X177385714Y-6073346D01*
X177385714Y-6073346D02*
X177576190Y-6073346D01*
X177576190Y-6073346D02*
X177671428Y-6025727D01*
X177671428Y-6025727D02*
X177719047Y-5978108D01*
X177719047Y-5978108D02*
X177766666Y-5882870D01*
X219598512Y-82654299D02*
X219598512Y-81654299D01*
X220169940Y-82654299D02*
X219741369Y-82082870D01*
X220169940Y-81654299D02*
X219598512Y-82225727D01*
X220360417Y-82749537D02*
X221122321Y-82749537D01*
X221836607Y-81654299D02*
X221360417Y-81654299D01*
X221360417Y-81654299D02*
X221312798Y-82130489D01*
X221312798Y-82130489D02*
X221360417Y-82082870D01*
X221360417Y-82082870D02*
X221455655Y-82035251D01*
X221455655Y-82035251D02*
X221693750Y-82035251D01*
X221693750Y-82035251D02*
X221788988Y-82082870D01*
X221788988Y-82082870D02*
X221836607Y-82130489D01*
X221836607Y-82130489D02*
X221884226Y-82225727D01*
X221884226Y-82225727D02*
X221884226Y-82463822D01*
X221884226Y-82463822D02*
X221836607Y-82559060D01*
X221836607Y-82559060D02*
X221788988Y-82606680D01*
X221788988Y-82606680D02*
X221693750Y-82654299D01*
X221693750Y-82654299D02*
X221455655Y-82654299D01*
X221455655Y-82654299D02*
X221360417Y-82606680D01*
X221360417Y-82606680D02*
X221312798Y-82559060D01*
X222360417Y-82654299D02*
X222550893Y-82654299D01*
X222550893Y-82654299D02*
X222646131Y-82606680D01*
X222646131Y-82606680D02*
X222693750Y-82559060D01*
X222693750Y-82559060D02*
X222788988Y-82416203D01*
X222788988Y-82416203D02*
X222836607Y-82225727D01*
X222836607Y-82225727D02*
X222836607Y-81844775D01*
X222836607Y-81844775D02*
X222788988Y-81749537D01*
X222788988Y-81749537D02*
X222741369Y-81701918D01*
X222741369Y-81701918D02*
X222646131Y-81654299D01*
X222646131Y-81654299D02*
X222455655Y-81654299D01*
X222455655Y-81654299D02*
X222360417Y-81701918D01*
X222360417Y-81701918D02*
X222312798Y-81749537D01*
X222312798Y-81749537D02*
X222265179Y-81844775D01*
X222265179Y-81844775D02*
X222265179Y-82082870D01*
X222265179Y-82082870D02*
X222312798Y-82178108D01*
X222312798Y-82178108D02*
X222360417Y-82225727D01*
X222360417Y-82225727D02*
X222455655Y-82273346D01*
X222455655Y-82273346D02*
X222646131Y-82273346D01*
X222646131Y-82273346D02*
X222741369Y-82225727D01*
X222741369Y-82225727D02*
X222788988Y-82178108D01*
X222788988Y-82178108D02*
X222836607Y-82082870D01*
X99480952Y-6454299D02*
X99480952Y-5454299D01*
X100052380Y-6454299D02*
X99623809Y-5882870D01*
X100052380Y-5454299D02*
X99480952Y-6025727D01*
X100242857Y-6549537D02*
X101004761Y-6549537D01*
X101719047Y-5454299D02*
X101242857Y-5454299D01*
X101242857Y-5454299D02*
X101195238Y-5930489D01*
X101195238Y-5930489D02*
X101242857Y-5882870D01*
X101242857Y-5882870D02*
X101338095Y-5835251D01*
X101338095Y-5835251D02*
X101576190Y-5835251D01*
X101576190Y-5835251D02*
X101671428Y-5882870D01*
X101671428Y-5882870D02*
X101719047Y-5930489D01*
X101719047Y-5930489D02*
X101766666Y-6025727D01*
X101766666Y-6025727D02*
X101766666Y-6263822D01*
X101766666Y-6263822D02*
X101719047Y-6359060D01*
X101719047Y-6359060D02*
X101671428Y-6406680D01*
X101671428Y-6406680D02*
X101576190Y-6454299D01*
X101576190Y-6454299D02*
X101338095Y-6454299D01*
X101338095Y-6454299D02*
X101242857Y-6406680D01*
X101242857Y-6406680D02*
X101195238Y-6359060D01*
X243511012Y-82854299D02*
X243511012Y-81854299D01*
X244082440Y-82854299D02*
X243653869Y-82282870D01*
X244082440Y-81854299D02*
X243511012Y-82425727D01*
X244272917Y-82949537D02*
X245034821Y-82949537D01*
X245701488Y-81854299D02*
X245511012Y-81854299D01*
X245511012Y-81854299D02*
X245415774Y-81901918D01*
X245415774Y-81901918D02*
X245368155Y-81949537D01*
X245368155Y-81949537D02*
X245272917Y-82092394D01*
X245272917Y-82092394D02*
X245225298Y-82282870D01*
X245225298Y-82282870D02*
X245225298Y-82663822D01*
X245225298Y-82663822D02*
X245272917Y-82759060D01*
X245272917Y-82759060D02*
X245320536Y-82806680D01*
X245320536Y-82806680D02*
X245415774Y-82854299D01*
X245415774Y-82854299D02*
X245606250Y-82854299D01*
X245606250Y-82854299D02*
X245701488Y-82806680D01*
X245701488Y-82806680D02*
X245749107Y-82759060D01*
X245749107Y-82759060D02*
X245796726Y-82663822D01*
X245796726Y-82663822D02*
X245796726Y-82425727D01*
X245796726Y-82425727D02*
X245749107Y-82330489D01*
X245749107Y-82330489D02*
X245701488Y-82282870D01*
X245701488Y-82282870D02*
X245606250Y-82235251D01*
X245606250Y-82235251D02*
X245415774Y-82235251D01*
X245415774Y-82235251D02*
X245320536Y-82282870D01*
X245320536Y-82282870D02*
X245272917Y-82330489D01*
X245272917Y-82330489D02*
X245225298Y-82425727D01*
X246415774Y-81854299D02*
X246511012Y-81854299D01*
X246511012Y-81854299D02*
X246606250Y-81901918D01*
X246606250Y-81901918D02*
X246653869Y-81949537D01*
X246653869Y-81949537D02*
X246701488Y-82044775D01*
X246701488Y-82044775D02*
X246749107Y-82235251D01*
X246749107Y-82235251D02*
X246749107Y-82473346D01*
X246749107Y-82473346D02*
X246701488Y-82663822D01*
X246701488Y-82663822D02*
X246653869Y-82759060D01*
X246653869Y-82759060D02*
X246606250Y-82806680D01*
X246606250Y-82806680D02*
X246511012Y-82854299D01*
X246511012Y-82854299D02*
X246415774Y-82854299D01*
X246415774Y-82854299D02*
X246320536Y-82806680D01*
X246320536Y-82806680D02*
X246272917Y-82759060D01*
X246272917Y-82759060D02*
X246225298Y-82663822D01*
X246225298Y-82663822D02*
X246177679Y-82473346D01*
X246177679Y-82473346D02*
X246177679Y-82235251D01*
X246177679Y-82235251D02*
X246225298Y-82044775D01*
X246225298Y-82044775D02*
X246272917Y-81949537D01*
X246272917Y-81949537D02*
X246320536Y-81901918D01*
X246320536Y-81901918D02*
X246415774Y-81854299D01*
X242154762Y2795700D02*
X242154762Y3795700D01*
X242726190Y2795700D02*
X242297619Y3367129D01*
X242726190Y3795700D02*
X242154762Y3224272D01*
X242916667Y2700462D02*
X243678571Y2700462D01*
X244440476Y2795700D02*
X243869048Y2795700D01*
X244154762Y2795700D02*
X244154762Y3795700D01*
X244154762Y3795700D02*
X244059524Y3652843D01*
X244059524Y3652843D02*
X243964286Y3557605D01*
X243964286Y3557605D02*
X243869048Y3509986D01*
X244773810Y3795700D02*
X245392857Y3795700D01*
X245392857Y3795700D02*
X245059524Y3414748D01*
X245059524Y3414748D02*
X245202381Y3414748D01*
X245202381Y3414748D02*
X245297619Y3367129D01*
X245297619Y3367129D02*
X245345238Y3319510D01*
X245345238Y3319510D02*
X245392857Y3224272D01*
X245392857Y3224272D02*
X245392857Y2986177D01*
X245392857Y2986177D02*
X245345238Y2890939D01*
X245345238Y2890939D02*
X245297619Y2843320D01*
X245297619Y2843320D02*
X245202381Y2795700D01*
X245202381Y2795700D02*
X244916667Y2795700D01*
X244916667Y2795700D02*
X244821429Y2843320D01*
X244821429Y2843320D02*
X244773810Y2890939D01*
X42080952Y-6454299D02*
X42080952Y-5454299D01*
X42652380Y-6454299D02*
X42223809Y-5882870D01*
X42652380Y-5454299D02*
X42080952Y-6025727D01*
X42842857Y-6549537D02*
X43604761Y-6549537D01*
X43795238Y-5549537D02*
X43842857Y-5501918D01*
X43842857Y-5501918D02*
X43938095Y-5454299D01*
X43938095Y-5454299D02*
X44176190Y-5454299D01*
X44176190Y-5454299D02*
X44271428Y-5501918D01*
X44271428Y-5501918D02*
X44319047Y-5549537D01*
X44319047Y-5549537D02*
X44366666Y-5644775D01*
X44366666Y-5644775D02*
X44366666Y-5740013D01*
X44366666Y-5740013D02*
X44319047Y-5882870D01*
X44319047Y-5882870D02*
X43747619Y-6454299D01*
X43747619Y-6454299D02*
X44366666Y-6454299D01*
X23280952Y-6454299D02*
X23280952Y-5454299D01*
X23852380Y-6454299D02*
X23423809Y-5882870D01*
X23852380Y-5454299D02*
X23280952Y-6025727D01*
X24042857Y-6549537D02*
X24804761Y-6549537D01*
X25566666Y-6454299D02*
X24995238Y-6454299D01*
X25280952Y-6454299D02*
X25280952Y-5454299D01*
X25280952Y-5454299D02*
X25185714Y-5597156D01*
X25185714Y-5597156D02*
X25090476Y-5692394D01*
X25090476Y-5692394D02*
X24995238Y-5740013D01*
X269804762Y-63654299D02*
X269804762Y-62654299D01*
X270376190Y-63654299D02*
X269947619Y-63082870D01*
X270376190Y-62654299D02*
X269804762Y-63225727D01*
X270566667Y-63749537D02*
X271328571Y-63749537D01*
X271471429Y-62654299D02*
X272138095Y-62654299D01*
X272138095Y-62654299D02*
X271709524Y-63654299D01*
X272423810Y-62654299D02*
X273090476Y-62654299D01*
X273090476Y-62654299D02*
X272661905Y-63654299D01*
X222204762Y-25554299D02*
X222204762Y-24554299D01*
X222776190Y-25554299D02*
X222347619Y-24982870D01*
X222776190Y-24554299D02*
X222204762Y-25125727D01*
X222966667Y-25649537D02*
X223728571Y-25649537D01*
X223919048Y-24649537D02*
X223966667Y-24601918D01*
X223966667Y-24601918D02*
X224061905Y-24554299D01*
X224061905Y-24554299D02*
X224300000Y-24554299D01*
X224300000Y-24554299D02*
X224395238Y-24601918D01*
X224395238Y-24601918D02*
X224442857Y-24649537D01*
X224442857Y-24649537D02*
X224490476Y-24744775D01*
X224490476Y-24744775D02*
X224490476Y-24840013D01*
X224490476Y-24840013D02*
X224442857Y-24982870D01*
X224442857Y-24982870D02*
X223871429Y-25554299D01*
X223871429Y-25554299D02*
X224490476Y-25554299D01*
X225347619Y-24554299D02*
X225157143Y-24554299D01*
X225157143Y-24554299D02*
X225061905Y-24601918D01*
X225061905Y-24601918D02*
X225014286Y-24649537D01*
X225014286Y-24649537D02*
X224919048Y-24792394D01*
X224919048Y-24792394D02*
X224871429Y-24982870D01*
X224871429Y-24982870D02*
X224871429Y-25363822D01*
X224871429Y-25363822D02*
X224919048Y-25459060D01*
X224919048Y-25459060D02*
X224966667Y-25506680D01*
X224966667Y-25506680D02*
X225061905Y-25554299D01*
X225061905Y-25554299D02*
X225252381Y-25554299D01*
X225252381Y-25554299D02*
X225347619Y-25506680D01*
X225347619Y-25506680D02*
X225395238Y-25459060D01*
X225395238Y-25459060D02*
X225442857Y-25363822D01*
X225442857Y-25363822D02*
X225442857Y-25125727D01*
X225442857Y-25125727D02*
X225395238Y-25030489D01*
X225395238Y-25030489D02*
X225347619Y-24982870D01*
X225347619Y-24982870D02*
X225252381Y-24935251D01*
X225252381Y-24935251D02*
X225061905Y-24935251D01*
X225061905Y-24935251D02*
X224966667Y-24982870D01*
X224966667Y-24982870D02*
X224919048Y-25030489D01*
X224919048Y-25030489D02*
X224871429Y-25125727D01*
X208042262Y-44654299D02*
X208042262Y-43654299D01*
X208613690Y-44654299D02*
X208185119Y-44082870D01*
X208613690Y-43654299D02*
X208042262Y-44225727D01*
X208804167Y-44749537D02*
X209566071Y-44749537D01*
X209708929Y-43654299D02*
X210327976Y-43654299D01*
X210327976Y-43654299D02*
X209994643Y-44035251D01*
X209994643Y-44035251D02*
X210137500Y-44035251D01*
X210137500Y-44035251D02*
X210232738Y-44082870D01*
X210232738Y-44082870D02*
X210280357Y-44130489D01*
X210280357Y-44130489D02*
X210327976Y-44225727D01*
X210327976Y-44225727D02*
X210327976Y-44463822D01*
X210327976Y-44463822D02*
X210280357Y-44559060D01*
X210280357Y-44559060D02*
X210232738Y-44606680D01*
X210232738Y-44606680D02*
X210137500Y-44654299D01*
X210137500Y-44654299D02*
X209851786Y-44654299D01*
X209851786Y-44654299D02*
X209756548Y-44606680D01*
X209756548Y-44606680D02*
X209708929Y-44559060D01*
X210804167Y-44654299D02*
X210994643Y-44654299D01*
X210994643Y-44654299D02*
X211089881Y-44606680D01*
X211089881Y-44606680D02*
X211137500Y-44559060D01*
X211137500Y-44559060D02*
X211232738Y-44416203D01*
X211232738Y-44416203D02*
X211280357Y-44225727D01*
X211280357Y-44225727D02*
X211280357Y-43844775D01*
X211280357Y-43844775D02*
X211232738Y-43749537D01*
X211232738Y-43749537D02*
X211185119Y-43701918D01*
X211185119Y-43701918D02*
X211089881Y-43654299D01*
X211089881Y-43654299D02*
X210899405Y-43654299D01*
X210899405Y-43654299D02*
X210804167Y-43701918D01*
X210804167Y-43701918D02*
X210756548Y-43749537D01*
X210756548Y-43749537D02*
X210708929Y-43844775D01*
X210708929Y-43844775D02*
X210708929Y-44082870D01*
X210708929Y-44082870D02*
X210756548Y-44178108D01*
X210756548Y-44178108D02*
X210804167Y-44225727D01*
X210804167Y-44225727D02*
X210899405Y-44273346D01*
X210899405Y-44273346D02*
X211089881Y-44273346D01*
X211089881Y-44273346D02*
X211185119Y-44225727D01*
X211185119Y-44225727D02*
X211232738Y-44178108D01*
X211232738Y-44178108D02*
X211280357Y-44082870D01*
X137480952Y-6454299D02*
X137480952Y-5454299D01*
X138052380Y-6454299D02*
X137623809Y-5882870D01*
X138052380Y-5454299D02*
X137480952Y-6025727D01*
X138242857Y-6549537D02*
X139004761Y-6549537D01*
X139147619Y-5454299D02*
X139814285Y-5454299D01*
X139814285Y-5454299D02*
X139385714Y-6454299D01*
X156480952Y-6454299D02*
X156480952Y-5454299D01*
X157052380Y-6454299D02*
X156623809Y-5882870D01*
X157052380Y-5454299D02*
X156480952Y-6025727D01*
X157242857Y-6549537D02*
X158004761Y-6549537D01*
X158385714Y-5882870D02*
X158290476Y-5835251D01*
X158290476Y-5835251D02*
X158242857Y-5787632D01*
X158242857Y-5787632D02*
X158195238Y-5692394D01*
X158195238Y-5692394D02*
X158195238Y-5644775D01*
X158195238Y-5644775D02*
X158242857Y-5549537D01*
X158242857Y-5549537D02*
X158290476Y-5501918D01*
X158290476Y-5501918D02*
X158385714Y-5454299D01*
X158385714Y-5454299D02*
X158576190Y-5454299D01*
X158576190Y-5454299D02*
X158671428Y-5501918D01*
X158671428Y-5501918D02*
X158719047Y-5549537D01*
X158719047Y-5549537D02*
X158766666Y-5644775D01*
X158766666Y-5644775D02*
X158766666Y-5692394D01*
X158766666Y-5692394D02*
X158719047Y-5787632D01*
X158719047Y-5787632D02*
X158671428Y-5835251D01*
X158671428Y-5835251D02*
X158576190Y-5882870D01*
X158576190Y-5882870D02*
X158385714Y-5882870D01*
X158385714Y-5882870D02*
X158290476Y-5930489D01*
X158290476Y-5930489D02*
X158242857Y-5978108D01*
X158242857Y-5978108D02*
X158195238Y-6073346D01*
X158195238Y-6073346D02*
X158195238Y-6263822D01*
X158195238Y-6263822D02*
X158242857Y-6359060D01*
X158242857Y-6359060D02*
X158290476Y-6406680D01*
X158290476Y-6406680D02*
X158385714Y-6454299D01*
X158385714Y-6454299D02*
X158576190Y-6454299D01*
X158576190Y-6454299D02*
X158671428Y-6406680D01*
X158671428Y-6406680D02*
X158719047Y-6359060D01*
X158719047Y-6359060D02*
X158766666Y-6263822D01*
X158766666Y-6263822D02*
X158766666Y-6073346D01*
X158766666Y-6073346D02*
X158719047Y-5978108D01*
X158719047Y-5978108D02*
X158671428Y-5930489D01*
X158671428Y-5930489D02*
X158576190Y-5882870D01*
X267223512Y-82654299D02*
X267223512Y-81654299D01*
X267794940Y-82654299D02*
X267366369Y-82082870D01*
X267794940Y-81654299D02*
X267223512Y-82225727D01*
X267985417Y-82749537D02*
X268747321Y-82749537D01*
X269413988Y-81654299D02*
X269223512Y-81654299D01*
X269223512Y-81654299D02*
X269128274Y-81701918D01*
X269128274Y-81701918D02*
X269080655Y-81749537D01*
X269080655Y-81749537D02*
X268985417Y-81892394D01*
X268985417Y-81892394D02*
X268937798Y-82082870D01*
X268937798Y-82082870D02*
X268937798Y-82463822D01*
X268937798Y-82463822D02*
X268985417Y-82559060D01*
X268985417Y-82559060D02*
X269033036Y-82606680D01*
X269033036Y-82606680D02*
X269128274Y-82654299D01*
X269128274Y-82654299D02*
X269318750Y-82654299D01*
X269318750Y-82654299D02*
X269413988Y-82606680D01*
X269413988Y-82606680D02*
X269461607Y-82559060D01*
X269461607Y-82559060D02*
X269509226Y-82463822D01*
X269509226Y-82463822D02*
X269509226Y-82225727D01*
X269509226Y-82225727D02*
X269461607Y-82130489D01*
X269461607Y-82130489D02*
X269413988Y-82082870D01*
X269413988Y-82082870D02*
X269318750Y-82035251D01*
X269318750Y-82035251D02*
X269128274Y-82035251D01*
X269128274Y-82035251D02*
X269033036Y-82082870D01*
X269033036Y-82082870D02*
X268985417Y-82130489D01*
X268985417Y-82130489D02*
X268937798Y-82225727D01*
X270461607Y-82654299D02*
X269890179Y-82654299D01*
X270175893Y-82654299D02*
X270175893Y-81654299D01*
X270175893Y-81654299D02*
X270080655Y-81797156D01*
X270080655Y-81797156D02*
X269985417Y-81892394D01*
X269985417Y-81892394D02*
X269890179Y-81940013D01*
X36592262Y-44654299D02*
X36592262Y-43654299D01*
X37163690Y-44654299D02*
X36735119Y-44082870D01*
X37163690Y-43654299D02*
X36592262Y-44225727D01*
X37354167Y-44749537D02*
X38116071Y-44749537D01*
X38258929Y-43654299D02*
X38877976Y-43654299D01*
X38877976Y-43654299D02*
X38544643Y-44035251D01*
X38544643Y-44035251D02*
X38687500Y-44035251D01*
X38687500Y-44035251D02*
X38782738Y-44082870D01*
X38782738Y-44082870D02*
X38830357Y-44130489D01*
X38830357Y-44130489D02*
X38877976Y-44225727D01*
X38877976Y-44225727D02*
X38877976Y-44463822D01*
X38877976Y-44463822D02*
X38830357Y-44559060D01*
X38830357Y-44559060D02*
X38782738Y-44606680D01*
X38782738Y-44606680D02*
X38687500Y-44654299D01*
X38687500Y-44654299D02*
X38401786Y-44654299D01*
X38401786Y-44654299D02*
X38306548Y-44606680D01*
X38306548Y-44606680D02*
X38258929Y-44559060D01*
X39497024Y-43654299D02*
X39592262Y-43654299D01*
X39592262Y-43654299D02*
X39687500Y-43701918D01*
X39687500Y-43701918D02*
X39735119Y-43749537D01*
X39735119Y-43749537D02*
X39782738Y-43844775D01*
X39782738Y-43844775D02*
X39830357Y-44035251D01*
X39830357Y-44035251D02*
X39830357Y-44273346D01*
X39830357Y-44273346D02*
X39782738Y-44463822D01*
X39782738Y-44463822D02*
X39735119Y-44559060D01*
X39735119Y-44559060D02*
X39687500Y-44606680D01*
X39687500Y-44606680D02*
X39592262Y-44654299D01*
X39592262Y-44654299D02*
X39497024Y-44654299D01*
X39497024Y-44654299D02*
X39401786Y-44606680D01*
X39401786Y-44606680D02*
X39354167Y-44559060D01*
X39354167Y-44559060D02*
X39306548Y-44463822D01*
X39306548Y-44463822D02*
X39258929Y-44273346D01*
X39258929Y-44273346D02*
X39258929Y-44035251D01*
X39258929Y-44035251D02*
X39306548Y-43844775D01*
X39306548Y-43844775D02*
X39354167Y-43749537D01*
X39354167Y-43749537D02*
X39401786Y-43701918D01*
X39401786Y-43701918D02*
X39497024Y-43654299D01*
X236454762Y-44654299D02*
X236454762Y-43654299D01*
X237026190Y-44654299D02*
X236597619Y-44082870D01*
X237026190Y-43654299D02*
X236454762Y-44225727D01*
X237216667Y-44749537D02*
X237978571Y-44749537D01*
X238121429Y-43654299D02*
X238788095Y-43654299D01*
X238788095Y-43654299D02*
X238359524Y-44654299D01*
X239216667Y-44654299D02*
X239407143Y-44654299D01*
X239407143Y-44654299D02*
X239502381Y-44606680D01*
X239502381Y-44606680D02*
X239550000Y-44559060D01*
X239550000Y-44559060D02*
X239645238Y-44416203D01*
X239645238Y-44416203D02*
X239692857Y-44225727D01*
X239692857Y-44225727D02*
X239692857Y-43844775D01*
X239692857Y-43844775D02*
X239645238Y-43749537D01*
X239645238Y-43749537D02*
X239597619Y-43701918D01*
X239597619Y-43701918D02*
X239502381Y-43654299D01*
X239502381Y-43654299D02*
X239311905Y-43654299D01*
X239311905Y-43654299D02*
X239216667Y-43701918D01*
X239216667Y-43701918D02*
X239169048Y-43749537D01*
X239169048Y-43749537D02*
X239121429Y-43844775D01*
X239121429Y-43844775D02*
X239121429Y-44082870D01*
X239121429Y-44082870D02*
X239169048Y-44178108D01*
X239169048Y-44178108D02*
X239216667Y-44225727D01*
X239216667Y-44225727D02*
X239311905Y-44273346D01*
X239311905Y-44273346D02*
X239502381Y-44273346D01*
X239502381Y-44273346D02*
X239597619Y-44225727D01*
X239597619Y-44225727D02*
X239645238Y-44178108D01*
X239645238Y-44178108D02*
X239692857Y-44082870D01*
X4080952Y-6454299D02*
X4080952Y-5454299D01*
X4652380Y-6454299D02*
X4223809Y-5882870D01*
X4652380Y-5454299D02*
X4080952Y-6025727D01*
X4842857Y-6549537D02*
X5604761Y-6549537D01*
X6033333Y-5454299D02*
X6128571Y-5454299D01*
X6128571Y-5454299D02*
X6223809Y-5501918D01*
X6223809Y-5501918D02*
X6271428Y-5549537D01*
X6271428Y-5549537D02*
X6319047Y-5644775D01*
X6319047Y-5644775D02*
X6366666Y-5835251D01*
X6366666Y-5835251D02*
X6366666Y-6073346D01*
X6366666Y-6073346D02*
X6319047Y-6263822D01*
X6319047Y-6263822D02*
X6271428Y-6359060D01*
X6271428Y-6359060D02*
X6223809Y-6406680D01*
X6223809Y-6406680D02*
X6128571Y-6454299D01*
X6128571Y-6454299D02*
X6033333Y-6454299D01*
X6033333Y-6454299D02*
X5938095Y-6406680D01*
X5938095Y-6406680D02*
X5890476Y-6359060D01*
X5890476Y-6359060D02*
X5842857Y-6263822D01*
X5842857Y-6263822D02*
X5795238Y-6073346D01*
X5795238Y-6073346D02*
X5795238Y-5835251D01*
X5795238Y-5835251D02*
X5842857Y-5644775D01*
X5842857Y-5644775D02*
X5890476Y-5549537D01*
X5890476Y-5549537D02*
X5938095Y-5501918D01*
X5938095Y-5501918D02*
X6033333Y-5454299D01*
X-3595237Y-62704299D02*
X-3595237Y-61704299D01*
X-3023809Y-62704299D02*
X-3452380Y-62132870D01*
X-3023809Y-61704299D02*
X-3595237Y-62275727D01*
X-2833333Y-62799537D02*
X-2071428Y-62799537D01*
X-1928570Y-61704299D02*
X-1261904Y-61704299D01*
X-1261904Y-61704299D02*
X-1690475Y-62704299D01*
X-976189Y-61704299D02*
X-357142Y-61704299D01*
X-357142Y-61704299D02*
X-690475Y-62085251D01*
X-690475Y-62085251D02*
X-547618Y-62085251D01*
X-547618Y-62085251D02*
X-452380Y-62132870D01*
X-452380Y-62132870D02*
X-404761Y-62180489D01*
X-404761Y-62180489D02*
X-357142Y-62275727D01*
X-357142Y-62275727D02*
X-357142Y-62513822D01*
X-357142Y-62513822D02*
X-404761Y-62609060D01*
X-404761Y-62609060D02*
X-452380Y-62656680D01*
X-452380Y-62656680D02*
X-547618Y-62704299D01*
X-547618Y-62704299D02*
X-833332Y-62704299D01*
X-833332Y-62704299D02*
X-928570Y-62656680D01*
X-928570Y-62656680D02*
X-976189Y-62609060D01*
X203154762Y-25554299D02*
X203154762Y-24554299D01*
X203726190Y-25554299D02*
X203297619Y-24982870D01*
X203726190Y-24554299D02*
X203154762Y-25125727D01*
X203916667Y-25649537D02*
X204678571Y-25649537D01*
X204869048Y-24649537D02*
X204916667Y-24601918D01*
X204916667Y-24601918D02*
X205011905Y-24554299D01*
X205011905Y-24554299D02*
X205250000Y-24554299D01*
X205250000Y-24554299D02*
X205345238Y-24601918D01*
X205345238Y-24601918D02*
X205392857Y-24649537D01*
X205392857Y-24649537D02*
X205440476Y-24744775D01*
X205440476Y-24744775D02*
X205440476Y-24840013D01*
X205440476Y-24840013D02*
X205392857Y-24982870D01*
X205392857Y-24982870D02*
X204821429Y-25554299D01*
X204821429Y-25554299D02*
X205440476Y-25554299D01*
X206345238Y-24554299D02*
X205869048Y-24554299D01*
X205869048Y-24554299D02*
X205821429Y-25030489D01*
X205821429Y-25030489D02*
X205869048Y-24982870D01*
X205869048Y-24982870D02*
X205964286Y-24935251D01*
X205964286Y-24935251D02*
X206202381Y-24935251D01*
X206202381Y-24935251D02*
X206297619Y-24982870D01*
X206297619Y-24982870D02*
X206345238Y-25030489D01*
X206345238Y-25030489D02*
X206392857Y-25125727D01*
X206392857Y-25125727D02*
X206392857Y-25363822D01*
X206392857Y-25363822D02*
X206345238Y-25459060D01*
X206345238Y-25459060D02*
X206297619Y-25506680D01*
X206297619Y-25506680D02*
X206202381Y-25554299D01*
X206202381Y-25554299D02*
X205964286Y-25554299D01*
X205964286Y-25554299D02*
X205869048Y-25506680D01*
X205869048Y-25506680D02*
X205821429Y-25459060D01*
X258154762Y-44654299D02*
X258154762Y-43654299D01*
X258726190Y-44654299D02*
X258297619Y-44082870D01*
X258726190Y-43654299D02*
X258154762Y-44225727D01*
X258916667Y-44749537D02*
X259678571Y-44749537D01*
X260345238Y-43987632D02*
X260345238Y-44654299D01*
X260107143Y-43606680D02*
X259869048Y-44320965D01*
X259869048Y-44320965D02*
X260488095Y-44320965D01*
X261392857Y-44654299D02*
X260821429Y-44654299D01*
X261107143Y-44654299D02*
X261107143Y-43654299D01*
X261107143Y-43654299D02*
X261011905Y-43797156D01*
X261011905Y-43797156D02*
X260916667Y-43892394D01*
X260916667Y-43892394D02*
X260821429Y-43940013D01*
X160454762Y-63554299D02*
X160454762Y-62554299D01*
X161026190Y-63554299D02*
X160597619Y-62982870D01*
X161026190Y-62554299D02*
X160454762Y-63125727D01*
X161216667Y-63649537D02*
X161978571Y-63649537D01*
X162645238Y-62887632D02*
X162645238Y-63554299D01*
X162407143Y-62506680D02*
X162169048Y-63220965D01*
X162169048Y-63220965D02*
X162788095Y-63220965D01*
X163216667Y-63554299D02*
X163407143Y-63554299D01*
X163407143Y-63554299D02*
X163502381Y-63506680D01*
X163502381Y-63506680D02*
X163550000Y-63459060D01*
X163550000Y-63459060D02*
X163645238Y-63316203D01*
X163645238Y-63316203D02*
X163692857Y-63125727D01*
X163692857Y-63125727D02*
X163692857Y-62744775D01*
X163692857Y-62744775D02*
X163645238Y-62649537D01*
X163645238Y-62649537D02*
X163597619Y-62601918D01*
X163597619Y-62601918D02*
X163502381Y-62554299D01*
X163502381Y-62554299D02*
X163311905Y-62554299D01*
X163311905Y-62554299D02*
X163216667Y-62601918D01*
X163216667Y-62601918D02*
X163169048Y-62649537D01*
X163169048Y-62649537D02*
X163121429Y-62744775D01*
X163121429Y-62744775D02*
X163121429Y-62982870D01*
X163121429Y-62982870D02*
X163169048Y-63078108D01*
X163169048Y-63078108D02*
X163216667Y-63125727D01*
X163216667Y-63125727D02*
X163311905Y-63173346D01*
X163311905Y-63173346D02*
X163502381Y-63173346D01*
X163502381Y-63173346D02*
X163597619Y-63125727D01*
X163597619Y-63125727D02*
X163645238Y-63078108D01*
X163645238Y-63078108D02*
X163692857Y-62982870D01*
X103304762Y-63554299D02*
X103304762Y-62554299D01*
X103876190Y-63554299D02*
X103447619Y-62982870D01*
X103876190Y-62554299D02*
X103304762Y-63125727D01*
X104066667Y-63649537D02*
X104828571Y-63649537D01*
X105495238Y-62887632D02*
X105495238Y-63554299D01*
X105257143Y-62506680D02*
X105019048Y-63220965D01*
X105019048Y-63220965D02*
X105638095Y-63220965D01*
X106447619Y-62554299D02*
X106257143Y-62554299D01*
X106257143Y-62554299D02*
X106161905Y-62601918D01*
X106161905Y-62601918D02*
X106114286Y-62649537D01*
X106114286Y-62649537D02*
X106019048Y-62792394D01*
X106019048Y-62792394D02*
X105971429Y-62982870D01*
X105971429Y-62982870D02*
X105971429Y-63363822D01*
X105971429Y-63363822D02*
X106019048Y-63459060D01*
X106019048Y-63459060D02*
X106066667Y-63506680D01*
X106066667Y-63506680D02*
X106161905Y-63554299D01*
X106161905Y-63554299D02*
X106352381Y-63554299D01*
X106352381Y-63554299D02*
X106447619Y-63506680D01*
X106447619Y-63506680D02*
X106495238Y-63459060D01*
X106495238Y-63459060D02*
X106542857Y-63363822D01*
X106542857Y-63363822D02*
X106542857Y-63125727D01*
X106542857Y-63125727D02*
X106495238Y-63030489D01*
X106495238Y-63030489D02*
X106447619Y-62982870D01*
X106447619Y-62982870D02*
X106352381Y-62935251D01*
X106352381Y-62935251D02*
X106161905Y-62935251D01*
X106161905Y-62935251D02*
X106066667Y-62982870D01*
X106066667Y-62982870D02*
X106019048Y-63030489D01*
X106019048Y-63030489D02*
X105971429Y-63125727D01*
X118480952Y-6454299D02*
X118480952Y-5454299D01*
X119052380Y-6454299D02*
X118623809Y-5882870D01*
X119052380Y-5454299D02*
X118480952Y-6025727D01*
X119242857Y-6549537D02*
X120004761Y-6549537D01*
X120671428Y-5454299D02*
X120480952Y-5454299D01*
X120480952Y-5454299D02*
X120385714Y-5501918D01*
X120385714Y-5501918D02*
X120338095Y-5549537D01*
X120338095Y-5549537D02*
X120242857Y-5692394D01*
X120242857Y-5692394D02*
X120195238Y-5882870D01*
X120195238Y-5882870D02*
X120195238Y-6263822D01*
X120195238Y-6263822D02*
X120242857Y-6359060D01*
X120242857Y-6359060D02*
X120290476Y-6406680D01*
X120290476Y-6406680D02*
X120385714Y-6454299D01*
X120385714Y-6454299D02*
X120576190Y-6454299D01*
X120576190Y-6454299D02*
X120671428Y-6406680D01*
X120671428Y-6406680D02*
X120719047Y-6359060D01*
X120719047Y-6359060D02*
X120766666Y-6263822D01*
X120766666Y-6263822D02*
X120766666Y-6025727D01*
X120766666Y-6025727D02*
X120719047Y-5930489D01*
X120719047Y-5930489D02*
X120671428Y-5882870D01*
X120671428Y-5882870D02*
X120576190Y-5835251D01*
X120576190Y-5835251D02*
X120385714Y-5835251D01*
X120385714Y-5835251D02*
X120290476Y-5882870D01*
X120290476Y-5882870D02*
X120242857Y-5930489D01*
X120242857Y-5930489D02*
X120195238Y-6025727D01*
X193654762Y-6454299D02*
X193654762Y-5454299D01*
X194226190Y-6454299D02*
X193797619Y-5882870D01*
X194226190Y-5454299D02*
X193654762Y-6025727D01*
X194416667Y-6549537D02*
X195178571Y-6549537D01*
X195940476Y-6454299D02*
X195369048Y-6454299D01*
X195654762Y-6454299D02*
X195654762Y-5454299D01*
X195654762Y-5454299D02*
X195559524Y-5597156D01*
X195559524Y-5597156D02*
X195464286Y-5692394D01*
X195464286Y-5692394D02*
X195369048Y-5740013D01*
X196559524Y-5454299D02*
X196654762Y-5454299D01*
X196654762Y-5454299D02*
X196750000Y-5501918D01*
X196750000Y-5501918D02*
X196797619Y-5549537D01*
X196797619Y-5549537D02*
X196845238Y-5644775D01*
X196845238Y-5644775D02*
X196892857Y-5835251D01*
X196892857Y-5835251D02*
X196892857Y-6073346D01*
X196892857Y-6073346D02*
X196845238Y-6263822D01*
X196845238Y-6263822D02*
X196797619Y-6359060D01*
X196797619Y-6359060D02*
X196750000Y-6406680D01*
X196750000Y-6406680D02*
X196654762Y-6454299D01*
X196654762Y-6454299D02*
X196559524Y-6454299D01*
X196559524Y-6454299D02*
X196464286Y-6406680D01*
X196464286Y-6406680D02*
X196416667Y-6359060D01*
X196416667Y-6359060D02*
X196369048Y-6263822D01*
X196369048Y-6263822D02*
X196321429Y-6073346D01*
X196321429Y-6073346D02*
X196321429Y-5835251D01*
X196321429Y-5835251D02*
X196369048Y-5644775D01*
X196369048Y-5644775D02*
X196416667Y-5549537D01*
X196416667Y-5549537D02*
X196464286Y-5501918D01*
X196464286Y-5501918D02*
X196559524Y-5454299D01*
X255654762Y5295700D02*
X255654762Y6295700D01*
X256226190Y5295700D02*
X255797619Y5867129D01*
X256226190Y6295700D02*
X255654762Y5724272D01*
X256416667Y5200462D02*
X257178571Y5200462D01*
X257892857Y6295700D02*
X257416667Y6295700D01*
X257416667Y6295700D02*
X257369048Y5819510D01*
X257369048Y5819510D02*
X257416667Y5867129D01*
X257416667Y5867129D02*
X257511905Y5914748D01*
X257511905Y5914748D02*
X257750000Y5914748D01*
X257750000Y5914748D02*
X257845238Y5867129D01*
X257845238Y5867129D02*
X257892857Y5819510D01*
X257892857Y5819510D02*
X257940476Y5724272D01*
X257940476Y5724272D02*
X257940476Y5486177D01*
X257940476Y5486177D02*
X257892857Y5390939D01*
X257892857Y5390939D02*
X257845238Y5343320D01*
X257845238Y5343320D02*
X257750000Y5295700D01*
X257750000Y5295700D02*
X257511905Y5295700D01*
X257511905Y5295700D02*
X257416667Y5343320D01*
X257416667Y5343320D02*
X257369048Y5390939D01*
X258797619Y5962367D02*
X258797619Y5295700D01*
X258559524Y6343320D02*
X258321429Y5629034D01*
X258321429Y5629034D02*
X258940476Y5629034D01*
X241254762Y-25554299D02*
X241254762Y-24554299D01*
X241826190Y-25554299D02*
X241397619Y-24982870D01*
X241826190Y-24554299D02*
X241254762Y-25125727D01*
X242016667Y-25649537D02*
X242778571Y-25649537D01*
X242969048Y-24649537D02*
X243016667Y-24601918D01*
X243016667Y-24601918D02*
X243111905Y-24554299D01*
X243111905Y-24554299D02*
X243350000Y-24554299D01*
X243350000Y-24554299D02*
X243445238Y-24601918D01*
X243445238Y-24601918D02*
X243492857Y-24649537D01*
X243492857Y-24649537D02*
X243540476Y-24744775D01*
X243540476Y-24744775D02*
X243540476Y-24840013D01*
X243540476Y-24840013D02*
X243492857Y-24982870D01*
X243492857Y-24982870D02*
X242921429Y-25554299D01*
X242921429Y-25554299D02*
X243540476Y-25554299D01*
X243873810Y-24554299D02*
X244540476Y-24554299D01*
X244540476Y-24554299D02*
X244111905Y-25554299D01*
X107904762Y-25554299D02*
X107904762Y-24554299D01*
X108476190Y-25554299D02*
X108047619Y-24982870D01*
X108476190Y-24554299D02*
X107904762Y-25125727D01*
X108666667Y-25649537D02*
X109428571Y-25649537D01*
X109619048Y-24649537D02*
X109666667Y-24601918D01*
X109666667Y-24601918D02*
X109761905Y-24554299D01*
X109761905Y-24554299D02*
X110000000Y-24554299D01*
X110000000Y-24554299D02*
X110095238Y-24601918D01*
X110095238Y-24601918D02*
X110142857Y-24649537D01*
X110142857Y-24649537D02*
X110190476Y-24744775D01*
X110190476Y-24744775D02*
X110190476Y-24840013D01*
X110190476Y-24840013D02*
X110142857Y-24982870D01*
X110142857Y-24982870D02*
X109571429Y-25554299D01*
X109571429Y-25554299D02*
X110190476Y-25554299D01*
X110809524Y-24554299D02*
X110904762Y-24554299D01*
X110904762Y-24554299D02*
X111000000Y-24601918D01*
X111000000Y-24601918D02*
X111047619Y-24649537D01*
X111047619Y-24649537D02*
X111095238Y-24744775D01*
X111095238Y-24744775D02*
X111142857Y-24935251D01*
X111142857Y-24935251D02*
X111142857Y-25173346D01*
X111142857Y-25173346D02*
X111095238Y-25363822D01*
X111095238Y-25363822D02*
X111047619Y-25459060D01*
X111047619Y-25459060D02*
X111000000Y-25506680D01*
X111000000Y-25506680D02*
X110904762Y-25554299D01*
X110904762Y-25554299D02*
X110809524Y-25554299D01*
X110809524Y-25554299D02*
X110714286Y-25506680D01*
X110714286Y-25506680D02*
X110666667Y-25459060D01*
X110666667Y-25459060D02*
X110619048Y-25363822D01*
X110619048Y-25363822D02*
X110571429Y-25173346D01*
X110571429Y-25173346D02*
X110571429Y-24935251D01*
X110571429Y-24935251D02*
X110619048Y-24744775D01*
X110619048Y-24744775D02*
X110666667Y-24649537D01*
X110666667Y-24649537D02*
X110714286Y-24601918D01*
X110714286Y-24601918D02*
X110809524Y-24554299D01*
X267754762Y-35254299D02*
X267754762Y-34254299D01*
X268326190Y-35254299D02*
X267897619Y-34682870D01*
X268326190Y-34254299D02*
X267754762Y-34825727D01*
X268516667Y-35349537D02*
X269278571Y-35349537D01*
X269659524Y-34682870D02*
X269564286Y-34635251D01*
X269564286Y-34635251D02*
X269516667Y-34587632D01*
X269516667Y-34587632D02*
X269469048Y-34492394D01*
X269469048Y-34492394D02*
X269469048Y-34444775D01*
X269469048Y-34444775D02*
X269516667Y-34349537D01*
X269516667Y-34349537D02*
X269564286Y-34301918D01*
X269564286Y-34301918D02*
X269659524Y-34254299D01*
X269659524Y-34254299D02*
X269850000Y-34254299D01*
X269850000Y-34254299D02*
X269945238Y-34301918D01*
X269945238Y-34301918D02*
X269992857Y-34349537D01*
X269992857Y-34349537D02*
X270040476Y-34444775D01*
X270040476Y-34444775D02*
X270040476Y-34492394D01*
X270040476Y-34492394D02*
X269992857Y-34587632D01*
X269992857Y-34587632D02*
X269945238Y-34635251D01*
X269945238Y-34635251D02*
X269850000Y-34682870D01*
X269850000Y-34682870D02*
X269659524Y-34682870D01*
X269659524Y-34682870D02*
X269564286Y-34730489D01*
X269564286Y-34730489D02*
X269516667Y-34778108D01*
X269516667Y-34778108D02*
X269469048Y-34873346D01*
X269469048Y-34873346D02*
X269469048Y-35063822D01*
X269469048Y-35063822D02*
X269516667Y-35159060D01*
X269516667Y-35159060D02*
X269564286Y-35206680D01*
X269564286Y-35206680D02*
X269659524Y-35254299D01*
X269659524Y-35254299D02*
X269850000Y-35254299D01*
X269850000Y-35254299D02*
X269945238Y-35206680D01*
X269945238Y-35206680D02*
X269992857Y-35159060D01*
X269992857Y-35159060D02*
X270040476Y-35063822D01*
X270040476Y-35063822D02*
X270040476Y-34873346D01*
X270040476Y-34873346D02*
X269992857Y-34778108D01*
X269992857Y-34778108D02*
X269945238Y-34730489D01*
X269945238Y-34730489D02*
X269850000Y-34682870D01*
X270659524Y-34254299D02*
X270754762Y-34254299D01*
X270754762Y-34254299D02*
X270850000Y-34301918D01*
X270850000Y-34301918D02*
X270897619Y-34349537D01*
X270897619Y-34349537D02*
X270945238Y-34444775D01*
X270945238Y-34444775D02*
X270992857Y-34635251D01*
X270992857Y-34635251D02*
X270992857Y-34873346D01*
X270992857Y-34873346D02*
X270945238Y-35063822D01*
X270945238Y-35063822D02*
X270897619Y-35159060D01*
X270897619Y-35159060D02*
X270850000Y-35206680D01*
X270850000Y-35206680D02*
X270754762Y-35254299D01*
X270754762Y-35254299D02*
X270659524Y-35254299D01*
X270659524Y-35254299D02*
X270564286Y-35206680D01*
X270564286Y-35206680D02*
X270516667Y-35159060D01*
X270516667Y-35159060D02*
X270469048Y-35063822D01*
X270469048Y-35063822D02*
X270421429Y-34873346D01*
X270421429Y-34873346D02*
X270421429Y-34635251D01*
X270421429Y-34635251D02*
X270469048Y-34444775D01*
X270469048Y-34444775D02*
X270516667Y-34349537D01*
X270516667Y-34349537D02*
X270564286Y-34301918D01*
X270564286Y-34301918D02*
X270659524Y-34254299D01*
X131842262Y-44654299D02*
X131842262Y-43654299D01*
X132413690Y-44654299D02*
X131985119Y-44082870D01*
X132413690Y-43654299D02*
X131842262Y-44225727D01*
X132604167Y-44749537D02*
X133366071Y-44749537D01*
X133508929Y-43654299D02*
X134127976Y-43654299D01*
X134127976Y-43654299D02*
X133794643Y-44035251D01*
X133794643Y-44035251D02*
X133937500Y-44035251D01*
X133937500Y-44035251D02*
X134032738Y-44082870D01*
X134032738Y-44082870D02*
X134080357Y-44130489D01*
X134080357Y-44130489D02*
X134127976Y-44225727D01*
X134127976Y-44225727D02*
X134127976Y-44463822D01*
X134127976Y-44463822D02*
X134080357Y-44559060D01*
X134080357Y-44559060D02*
X134032738Y-44606680D01*
X134032738Y-44606680D02*
X133937500Y-44654299D01*
X133937500Y-44654299D02*
X133651786Y-44654299D01*
X133651786Y-44654299D02*
X133556548Y-44606680D01*
X133556548Y-44606680D02*
X133508929Y-44559060D01*
X135032738Y-43654299D02*
X134556548Y-43654299D01*
X134556548Y-43654299D02*
X134508929Y-44130489D01*
X134508929Y-44130489D02*
X134556548Y-44082870D01*
X134556548Y-44082870D02*
X134651786Y-44035251D01*
X134651786Y-44035251D02*
X134889881Y-44035251D01*
X134889881Y-44035251D02*
X134985119Y-44082870D01*
X134985119Y-44082870D02*
X135032738Y-44130489D01*
X135032738Y-44130489D02*
X135080357Y-44225727D01*
X135080357Y-44225727D02*
X135080357Y-44463822D01*
X135080357Y-44463822D02*
X135032738Y-44559060D01*
X135032738Y-44559060D02*
X134985119Y-44606680D01*
X134985119Y-44606680D02*
X134889881Y-44654299D01*
X134889881Y-44654299D02*
X134651786Y-44654299D01*
X134651786Y-44654299D02*
X134556548Y-44606680D01*
X134556548Y-44606680D02*
X134508929Y-44559060D01*
X169942262Y-44654299D02*
X169942262Y-43654299D01*
X170513690Y-44654299D02*
X170085119Y-44082870D01*
X170513690Y-43654299D02*
X169942262Y-44225727D01*
X170704167Y-44749537D02*
X171466071Y-44749537D01*
X171608929Y-43654299D02*
X172227976Y-43654299D01*
X172227976Y-43654299D02*
X171894643Y-44035251D01*
X171894643Y-44035251D02*
X172037500Y-44035251D01*
X172037500Y-44035251D02*
X172132738Y-44082870D01*
X172132738Y-44082870D02*
X172180357Y-44130489D01*
X172180357Y-44130489D02*
X172227976Y-44225727D01*
X172227976Y-44225727D02*
X172227976Y-44463822D01*
X172227976Y-44463822D02*
X172180357Y-44559060D01*
X172180357Y-44559060D02*
X172132738Y-44606680D01*
X172132738Y-44606680D02*
X172037500Y-44654299D01*
X172037500Y-44654299D02*
X171751786Y-44654299D01*
X171751786Y-44654299D02*
X171656548Y-44606680D01*
X171656548Y-44606680D02*
X171608929Y-44559060D01*
X172561310Y-43654299D02*
X173227976Y-43654299D01*
X173227976Y-43654299D02*
X172799405Y-44654299D01*
X7686012Y-82654299D02*
X7686012Y-81654299D01*
X8257440Y-82654299D02*
X7828869Y-82082870D01*
X8257440Y-81654299D02*
X7686012Y-82225727D01*
X8447917Y-82749537D02*
X9209821Y-82749537D01*
X9876488Y-81654299D02*
X9686012Y-81654299D01*
X9686012Y-81654299D02*
X9590774Y-81701918D01*
X9590774Y-81701918D02*
X9543155Y-81749537D01*
X9543155Y-81749537D02*
X9447917Y-81892394D01*
X9447917Y-81892394D02*
X9400298Y-82082870D01*
X9400298Y-82082870D02*
X9400298Y-82463822D01*
X9400298Y-82463822D02*
X9447917Y-82559060D01*
X9447917Y-82559060D02*
X9495536Y-82606680D01*
X9495536Y-82606680D02*
X9590774Y-82654299D01*
X9590774Y-82654299D02*
X9781250Y-82654299D01*
X9781250Y-82654299D02*
X9876488Y-82606680D01*
X9876488Y-82606680D02*
X9924107Y-82559060D01*
X9924107Y-82559060D02*
X9971726Y-82463822D01*
X9971726Y-82463822D02*
X9971726Y-82225727D01*
X9971726Y-82225727D02*
X9924107Y-82130489D01*
X9924107Y-82130489D02*
X9876488Y-82082870D01*
X9876488Y-82082870D02*
X9781250Y-82035251D01*
X9781250Y-82035251D02*
X9590774Y-82035251D01*
X9590774Y-82035251D02*
X9495536Y-82082870D01*
X9495536Y-82082870D02*
X9447917Y-82130489D01*
X9447917Y-82130489D02*
X9400298Y-82225727D01*
X10828869Y-81987632D02*
X10828869Y-82654299D01*
X10590774Y-81606680D02*
X10352679Y-82320965D01*
X10352679Y-82320965D02*
X10971726Y-82320965D01*
X150892262Y-44654299D02*
X150892262Y-43654299D01*
X151463690Y-44654299D02*
X151035119Y-44082870D01*
X151463690Y-43654299D02*
X150892262Y-44225727D01*
X151654167Y-44749537D02*
X152416071Y-44749537D01*
X152558929Y-43654299D02*
X153177976Y-43654299D01*
X153177976Y-43654299D02*
X152844643Y-44035251D01*
X152844643Y-44035251D02*
X152987500Y-44035251D01*
X152987500Y-44035251D02*
X153082738Y-44082870D01*
X153082738Y-44082870D02*
X153130357Y-44130489D01*
X153130357Y-44130489D02*
X153177976Y-44225727D01*
X153177976Y-44225727D02*
X153177976Y-44463822D01*
X153177976Y-44463822D02*
X153130357Y-44559060D01*
X153130357Y-44559060D02*
X153082738Y-44606680D01*
X153082738Y-44606680D02*
X152987500Y-44654299D01*
X152987500Y-44654299D02*
X152701786Y-44654299D01*
X152701786Y-44654299D02*
X152606548Y-44606680D01*
X152606548Y-44606680D02*
X152558929Y-44559060D01*
X154035119Y-43654299D02*
X153844643Y-43654299D01*
X153844643Y-43654299D02*
X153749405Y-43701918D01*
X153749405Y-43701918D02*
X153701786Y-43749537D01*
X153701786Y-43749537D02*
X153606548Y-43892394D01*
X153606548Y-43892394D02*
X153558929Y-44082870D01*
X153558929Y-44082870D02*
X153558929Y-44463822D01*
X153558929Y-44463822D02*
X153606548Y-44559060D01*
X153606548Y-44559060D02*
X153654167Y-44606680D01*
X153654167Y-44606680D02*
X153749405Y-44654299D01*
X153749405Y-44654299D02*
X153939881Y-44654299D01*
X153939881Y-44654299D02*
X154035119Y-44606680D01*
X154035119Y-44606680D02*
X154082738Y-44559060D01*
X154082738Y-44559060D02*
X154130357Y-44463822D01*
X154130357Y-44463822D02*
X154130357Y-44225727D01*
X154130357Y-44225727D02*
X154082738Y-44130489D01*
X154082738Y-44130489D02*
X154035119Y-44082870D01*
X154035119Y-44082870D02*
X153939881Y-44035251D01*
X153939881Y-44035251D02*
X153749405Y-44035251D01*
X153749405Y-44035251D02*
X153654167Y-44082870D01*
X153654167Y-44082870D02*
X153606548Y-44130489D01*
X153606548Y-44130489D02*
X153558929Y-44225727D01*
X31704762Y-25554299D02*
X31704762Y-24554299D01*
X32276190Y-25554299D02*
X31847619Y-24982870D01*
X32276190Y-24554299D02*
X31704762Y-25125727D01*
X32466667Y-25649537D02*
X33228571Y-25649537D01*
X33990476Y-25554299D02*
X33419048Y-25554299D01*
X33704762Y-25554299D02*
X33704762Y-24554299D01*
X33704762Y-24554299D02*
X33609524Y-24697156D01*
X33609524Y-24697156D02*
X33514286Y-24792394D01*
X33514286Y-24792394D02*
X33419048Y-24840013D01*
X34847619Y-24554299D02*
X34657143Y-24554299D01*
X34657143Y-24554299D02*
X34561905Y-24601918D01*
X34561905Y-24601918D02*
X34514286Y-24649537D01*
X34514286Y-24649537D02*
X34419048Y-24792394D01*
X34419048Y-24792394D02*
X34371429Y-24982870D01*
X34371429Y-24982870D02*
X34371429Y-25363822D01*
X34371429Y-25363822D02*
X34419048Y-25459060D01*
X34419048Y-25459060D02*
X34466667Y-25506680D01*
X34466667Y-25506680D02*
X34561905Y-25554299D01*
X34561905Y-25554299D02*
X34752381Y-25554299D01*
X34752381Y-25554299D02*
X34847619Y-25506680D01*
X34847619Y-25506680D02*
X34895238Y-25459060D01*
X34895238Y-25459060D02*
X34942857Y-25363822D01*
X34942857Y-25363822D02*
X34942857Y-25125727D01*
X34942857Y-25125727D02*
X34895238Y-25030489D01*
X34895238Y-25030489D02*
X34847619Y-24982870D01*
X34847619Y-24982870D02*
X34752381Y-24935251D01*
X34752381Y-24935251D02*
X34561905Y-24935251D01*
X34561905Y-24935251D02*
X34466667Y-24982870D01*
X34466667Y-24982870D02*
X34419048Y-25030489D01*
X34419048Y-25030489D02*
X34371429Y-25125727D01*
X231604762Y-6454299D02*
X231604762Y-5454299D01*
X232176190Y-6454299D02*
X231747619Y-5882870D01*
X232176190Y-5454299D02*
X231604762Y-6025727D01*
X232366667Y-6549537D02*
X233128571Y-6549537D01*
X233890476Y-6454299D02*
X233319048Y-6454299D01*
X233604762Y-6454299D02*
X233604762Y-5454299D01*
X233604762Y-5454299D02*
X233509524Y-5597156D01*
X233509524Y-5597156D02*
X233414286Y-5692394D01*
X233414286Y-5692394D02*
X233319048Y-5740013D01*
X234271429Y-5549537D02*
X234319048Y-5501918D01*
X234319048Y-5501918D02*
X234414286Y-5454299D01*
X234414286Y-5454299D02*
X234652381Y-5454299D01*
X234652381Y-5454299D02*
X234747619Y-5501918D01*
X234747619Y-5501918D02*
X234795238Y-5549537D01*
X234795238Y-5549537D02*
X234842857Y-5644775D01*
X234842857Y-5644775D02*
X234842857Y-5740013D01*
X234842857Y-5740013D02*
X234795238Y-5882870D01*
X234795238Y-5882870D02*
X234223810Y-6454299D01*
X234223810Y-6454299D02*
X234842857Y-6454299D01*
X27004762Y-63654299D02*
X27004762Y-62654299D01*
X27576190Y-63654299D02*
X27147619Y-63082870D01*
X27576190Y-62654299D02*
X27004762Y-63225727D01*
X27766667Y-63749537D02*
X28528571Y-63749537D01*
X28671429Y-62654299D02*
X29338095Y-62654299D01*
X29338095Y-62654299D02*
X28909524Y-63654299D01*
X30147619Y-62987632D02*
X30147619Y-63654299D01*
X29909524Y-62606680D02*
X29671429Y-63320965D01*
X29671429Y-63320965D02*
X30290476Y-63320965D01*
X84254762Y-63554299D02*
X84254762Y-62554299D01*
X84826190Y-63554299D02*
X84397619Y-62982870D01*
X84826190Y-62554299D02*
X84254762Y-63125727D01*
X85016667Y-63649537D02*
X85778571Y-63649537D01*
X86445238Y-62887632D02*
X86445238Y-63554299D01*
X86207143Y-62506680D02*
X85969048Y-63220965D01*
X85969048Y-63220965D02*
X86588095Y-63220965D01*
X87445238Y-62554299D02*
X86969048Y-62554299D01*
X86969048Y-62554299D02*
X86921429Y-63030489D01*
X86921429Y-63030489D02*
X86969048Y-62982870D01*
X86969048Y-62982870D02*
X87064286Y-62935251D01*
X87064286Y-62935251D02*
X87302381Y-62935251D01*
X87302381Y-62935251D02*
X87397619Y-62982870D01*
X87397619Y-62982870D02*
X87445238Y-63030489D01*
X87445238Y-63030489D02*
X87492857Y-63125727D01*
X87492857Y-63125727D02*
X87492857Y-63363822D01*
X87492857Y-63363822D02*
X87445238Y-63459060D01*
X87445238Y-63459060D02*
X87397619Y-63506680D01*
X87397619Y-63506680D02*
X87302381Y-63554299D01*
X87302381Y-63554299D02*
X87064286Y-63554299D01*
X87064286Y-63554299D02*
X86969048Y-63506680D01*
X86969048Y-63506680D02*
X86921429Y-63459060D01*
X188992262Y-44654299D02*
X188992262Y-43654299D01*
X189563690Y-44654299D02*
X189135119Y-44082870D01*
X189563690Y-43654299D02*
X188992262Y-44225727D01*
X189754167Y-44749537D02*
X190516071Y-44749537D01*
X190658929Y-43654299D02*
X191277976Y-43654299D01*
X191277976Y-43654299D02*
X190944643Y-44035251D01*
X190944643Y-44035251D02*
X191087500Y-44035251D01*
X191087500Y-44035251D02*
X191182738Y-44082870D01*
X191182738Y-44082870D02*
X191230357Y-44130489D01*
X191230357Y-44130489D02*
X191277976Y-44225727D01*
X191277976Y-44225727D02*
X191277976Y-44463822D01*
X191277976Y-44463822D02*
X191230357Y-44559060D01*
X191230357Y-44559060D02*
X191182738Y-44606680D01*
X191182738Y-44606680D02*
X191087500Y-44654299D01*
X191087500Y-44654299D02*
X190801786Y-44654299D01*
X190801786Y-44654299D02*
X190706548Y-44606680D01*
X190706548Y-44606680D02*
X190658929Y-44559060D01*
X191849405Y-44082870D02*
X191754167Y-44035251D01*
X191754167Y-44035251D02*
X191706548Y-43987632D01*
X191706548Y-43987632D02*
X191658929Y-43892394D01*
X191658929Y-43892394D02*
X191658929Y-43844775D01*
X191658929Y-43844775D02*
X191706548Y-43749537D01*
X191706548Y-43749537D02*
X191754167Y-43701918D01*
X191754167Y-43701918D02*
X191849405Y-43654299D01*
X191849405Y-43654299D02*
X192039881Y-43654299D01*
X192039881Y-43654299D02*
X192135119Y-43701918D01*
X192135119Y-43701918D02*
X192182738Y-43749537D01*
X192182738Y-43749537D02*
X192230357Y-43844775D01*
X192230357Y-43844775D02*
X192230357Y-43892394D01*
X192230357Y-43892394D02*
X192182738Y-43987632D01*
X192182738Y-43987632D02*
X192135119Y-44035251D01*
X192135119Y-44035251D02*
X192039881Y-44082870D01*
X192039881Y-44082870D02*
X191849405Y-44082870D01*
X191849405Y-44082870D02*
X191754167Y-44130489D01*
X191754167Y-44130489D02*
X191706548Y-44178108D01*
X191706548Y-44178108D02*
X191658929Y-44273346D01*
X191658929Y-44273346D02*
X191658929Y-44463822D01*
X191658929Y-44463822D02*
X191706548Y-44559060D01*
X191706548Y-44559060D02*
X191754167Y-44606680D01*
X191754167Y-44606680D02*
X191849405Y-44654299D01*
X191849405Y-44654299D02*
X192039881Y-44654299D01*
X192039881Y-44654299D02*
X192135119Y-44606680D01*
X192135119Y-44606680D02*
X192182738Y-44559060D01*
X192182738Y-44559060D02*
X192230357Y-44463822D01*
X192230357Y-44463822D02*
X192230357Y-44273346D01*
X192230357Y-44273346D02*
X192182738Y-44178108D01*
X192182738Y-44178108D02*
X192135119Y-44130489D01*
X192135119Y-44130489D02*
X192039881Y-44082870D01*
X132438095Y-68606680D02*
X132580952Y-68654299D01*
X132580952Y-68654299D02*
X132819047Y-68654299D01*
X132819047Y-68654299D02*
X132914285Y-68606680D01*
X132914285Y-68606680D02*
X132961904Y-68559060D01*
X132961904Y-68559060D02*
X133009523Y-68463822D01*
X133009523Y-68463822D02*
X133009523Y-68368584D01*
X133009523Y-68368584D02*
X132961904Y-68273346D01*
X132961904Y-68273346D02*
X132914285Y-68225727D01*
X132914285Y-68225727D02*
X132819047Y-68178108D01*
X132819047Y-68178108D02*
X132628571Y-68130489D01*
X132628571Y-68130489D02*
X132533333Y-68082870D01*
X132533333Y-68082870D02*
X132485714Y-68035251D01*
X132485714Y-68035251D02*
X132438095Y-67940013D01*
X132438095Y-67940013D02*
X132438095Y-67844775D01*
X132438095Y-67844775D02*
X132485714Y-67749537D01*
X132485714Y-67749537D02*
X132533333Y-67701918D01*
X132533333Y-67701918D02*
X132628571Y-67654299D01*
X132628571Y-67654299D02*
X132866666Y-67654299D01*
X132866666Y-67654299D02*
X133009523Y-67701918D01*
X133914285Y-67654299D02*
X133438095Y-67654299D01*
X133438095Y-67654299D02*
X133390476Y-68130489D01*
X133390476Y-68130489D02*
X133438095Y-68082870D01*
X133438095Y-68082870D02*
X133533333Y-68035251D01*
X133533333Y-68035251D02*
X133771428Y-68035251D01*
X133771428Y-68035251D02*
X133866666Y-68082870D01*
X133866666Y-68082870D02*
X133914285Y-68130489D01*
X133914285Y-68130489D02*
X133961904Y-68225727D01*
X133961904Y-68225727D02*
X133961904Y-68463822D01*
X133961904Y-68463822D02*
X133914285Y-68559060D01*
X133914285Y-68559060D02*
X133866666Y-68606680D01*
X133866666Y-68606680D02*
X133771428Y-68654299D01*
X133771428Y-68654299D02*
X133533333Y-68654299D01*
X133533333Y-68654299D02*
X133438095Y-68606680D01*
X133438095Y-68606680D02*
X133390476Y-68559060D01*
X196004762Y-82854299D02*
X196004762Y-81854299D01*
X196576190Y-82854299D02*
X196147619Y-82282870D01*
X196576190Y-81854299D02*
X196004762Y-82425727D01*
X196766667Y-82949537D02*
X197528571Y-82949537D01*
X198242857Y-81854299D02*
X197766667Y-81854299D01*
X197766667Y-81854299D02*
X197719048Y-82330489D01*
X197719048Y-82330489D02*
X197766667Y-82282870D01*
X197766667Y-82282870D02*
X197861905Y-82235251D01*
X197861905Y-82235251D02*
X198100000Y-82235251D01*
X198100000Y-82235251D02*
X198195238Y-82282870D01*
X198195238Y-82282870D02*
X198242857Y-82330489D01*
X198242857Y-82330489D02*
X198290476Y-82425727D01*
X198290476Y-82425727D02*
X198290476Y-82663822D01*
X198290476Y-82663822D02*
X198242857Y-82759060D01*
X198242857Y-82759060D02*
X198195238Y-82806680D01*
X198195238Y-82806680D02*
X198100000Y-82854299D01*
X198100000Y-82854299D02*
X197861905Y-82854299D01*
X197861905Y-82854299D02*
X197766667Y-82806680D01*
X197766667Y-82806680D02*
X197719048Y-82759060D01*
X198861905Y-82282870D02*
X198766667Y-82235251D01*
X198766667Y-82235251D02*
X198719048Y-82187632D01*
X198719048Y-82187632D02*
X198671429Y-82092394D01*
X198671429Y-82092394D02*
X198671429Y-82044775D01*
X198671429Y-82044775D02*
X198719048Y-81949537D01*
X198719048Y-81949537D02*
X198766667Y-81901918D01*
X198766667Y-81901918D02*
X198861905Y-81854299D01*
X198861905Y-81854299D02*
X199052381Y-81854299D01*
X199052381Y-81854299D02*
X199147619Y-81901918D01*
X199147619Y-81901918D02*
X199195238Y-81949537D01*
X199195238Y-81949537D02*
X199242857Y-82044775D01*
X199242857Y-82044775D02*
X199242857Y-82092394D01*
X199242857Y-82092394D02*
X199195238Y-82187632D01*
X199195238Y-82187632D02*
X199147619Y-82235251D01*
X199147619Y-82235251D02*
X199052381Y-82282870D01*
X199052381Y-82282870D02*
X198861905Y-82282870D01*
X198861905Y-82282870D02*
X198766667Y-82330489D01*
X198766667Y-82330489D02*
X198719048Y-82378108D01*
X198719048Y-82378108D02*
X198671429Y-82473346D01*
X198671429Y-82473346D02*
X198671429Y-82663822D01*
X198671429Y-82663822D02*
X198719048Y-82759060D01*
X198719048Y-82759060D02*
X198766667Y-82806680D01*
X198766667Y-82806680D02*
X198861905Y-82854299D01*
X198861905Y-82854299D02*
X199052381Y-82854299D01*
X199052381Y-82854299D02*
X199147619Y-82806680D01*
X199147619Y-82806680D02*
X199195238Y-82759060D01*
X199195238Y-82759060D02*
X199242857Y-82663822D01*
X199242857Y-82663822D02*
X199242857Y-82473346D01*
X199242857Y-82473346D02*
X199195238Y-82378108D01*
X199195238Y-82378108D02*
X199147619Y-82330489D01*
X199147619Y-82330489D02*
X199052381Y-82282870D01*
X55311012Y-82654299D02*
X55311012Y-81654299D01*
X55882440Y-82654299D02*
X55453869Y-82082870D01*
X55882440Y-81654299D02*
X55311012Y-82225727D01*
X56072917Y-82749537D02*
X56834821Y-82749537D01*
X57549107Y-81654299D02*
X57072917Y-81654299D01*
X57072917Y-81654299D02*
X57025298Y-82130489D01*
X57025298Y-82130489D02*
X57072917Y-82082870D01*
X57072917Y-82082870D02*
X57168155Y-82035251D01*
X57168155Y-82035251D02*
X57406250Y-82035251D01*
X57406250Y-82035251D02*
X57501488Y-82082870D01*
X57501488Y-82082870D02*
X57549107Y-82130489D01*
X57549107Y-82130489D02*
X57596726Y-82225727D01*
X57596726Y-82225727D02*
X57596726Y-82463822D01*
X57596726Y-82463822D02*
X57549107Y-82559060D01*
X57549107Y-82559060D02*
X57501488Y-82606680D01*
X57501488Y-82606680D02*
X57406250Y-82654299D01*
X57406250Y-82654299D02*
X57168155Y-82654299D01*
X57168155Y-82654299D02*
X57072917Y-82606680D01*
X57072917Y-82606680D02*
X57025298Y-82559060D01*
X58453869Y-81654299D02*
X58263393Y-81654299D01*
X58263393Y-81654299D02*
X58168155Y-81701918D01*
X58168155Y-81701918D02*
X58120536Y-81749537D01*
X58120536Y-81749537D02*
X58025298Y-81892394D01*
X58025298Y-81892394D02*
X57977679Y-82082870D01*
X57977679Y-82082870D02*
X57977679Y-82463822D01*
X57977679Y-82463822D02*
X58025298Y-82559060D01*
X58025298Y-82559060D02*
X58072917Y-82606680D01*
X58072917Y-82606680D02*
X58168155Y-82654299D01*
X58168155Y-82654299D02*
X58358631Y-82654299D01*
X58358631Y-82654299D02*
X58453869Y-82606680D01*
X58453869Y-82606680D02*
X58501488Y-82559060D01*
X58501488Y-82559060D02*
X58549107Y-82463822D01*
X58549107Y-82463822D02*
X58549107Y-82225727D01*
X58549107Y-82225727D02*
X58501488Y-82130489D01*
X58501488Y-82130489D02*
X58453869Y-82082870D01*
X58453869Y-82082870D02*
X58358631Y-82035251D01*
X58358631Y-82035251D02*
X58168155Y-82035251D01*
X58168155Y-82035251D02*
X58072917Y-82082870D01*
X58072917Y-82082870D02*
X58025298Y-82130489D01*
X58025298Y-82130489D02*
X57977679Y-82225727D01*
X114904762Y-82754299D02*
X114904762Y-81754299D01*
X115476190Y-82754299D02*
X115047619Y-82182870D01*
X115476190Y-81754299D02*
X114904762Y-82325727D01*
X115666667Y-82849537D02*
X116428571Y-82849537D01*
X117142857Y-81754299D02*
X116666667Y-81754299D01*
X116666667Y-81754299D02*
X116619048Y-82230489D01*
X116619048Y-82230489D02*
X116666667Y-82182870D01*
X116666667Y-82182870D02*
X116761905Y-82135251D01*
X116761905Y-82135251D02*
X117000000Y-82135251D01*
X117000000Y-82135251D02*
X117095238Y-82182870D01*
X117095238Y-82182870D02*
X117142857Y-82230489D01*
X117142857Y-82230489D02*
X117190476Y-82325727D01*
X117190476Y-82325727D02*
X117190476Y-82563822D01*
X117190476Y-82563822D02*
X117142857Y-82659060D01*
X117142857Y-82659060D02*
X117095238Y-82706680D01*
X117095238Y-82706680D02*
X117000000Y-82754299D01*
X117000000Y-82754299D02*
X116761905Y-82754299D01*
X116761905Y-82754299D02*
X116666667Y-82706680D01*
X116666667Y-82706680D02*
X116619048Y-82659060D01*
X117523810Y-81754299D02*
X118190476Y-81754299D01*
X118190476Y-81754299D02*
X117761905Y-82754299D01*
X146004762Y-25554299D02*
X146004762Y-24554299D01*
X146576190Y-25554299D02*
X146147619Y-24982870D01*
X146576190Y-24554299D02*
X146004762Y-25125727D01*
X146766667Y-25649537D02*
X147528571Y-25649537D01*
X147719048Y-24649537D02*
X147766667Y-24601918D01*
X147766667Y-24601918D02*
X147861905Y-24554299D01*
X147861905Y-24554299D02*
X148100000Y-24554299D01*
X148100000Y-24554299D02*
X148195238Y-24601918D01*
X148195238Y-24601918D02*
X148242857Y-24649537D01*
X148242857Y-24649537D02*
X148290476Y-24744775D01*
X148290476Y-24744775D02*
X148290476Y-24840013D01*
X148290476Y-24840013D02*
X148242857Y-24982870D01*
X148242857Y-24982870D02*
X147671429Y-25554299D01*
X147671429Y-25554299D02*
X148290476Y-25554299D01*
X148671429Y-24649537D02*
X148719048Y-24601918D01*
X148719048Y-24601918D02*
X148814286Y-24554299D01*
X148814286Y-24554299D02*
X149052381Y-24554299D01*
X149052381Y-24554299D02*
X149147619Y-24601918D01*
X149147619Y-24601918D02*
X149195238Y-24649537D01*
X149195238Y-24649537D02*
X149242857Y-24744775D01*
X149242857Y-24744775D02*
X149242857Y-24840013D01*
X149242857Y-24840013D02*
X149195238Y-24982870D01*
X149195238Y-24982870D02*
X148623810Y-25554299D01*
X148623810Y-25554299D02*
X149242857Y-25554299D01*
X74692262Y-44654299D02*
X74692262Y-43654299D01*
X75263690Y-44654299D02*
X74835119Y-44082870D01*
X75263690Y-43654299D02*
X74692262Y-44225727D01*
X75454167Y-44749537D02*
X76216071Y-44749537D01*
X76358929Y-43654299D02*
X76977976Y-43654299D01*
X76977976Y-43654299D02*
X76644643Y-44035251D01*
X76644643Y-44035251D02*
X76787500Y-44035251D01*
X76787500Y-44035251D02*
X76882738Y-44082870D01*
X76882738Y-44082870D02*
X76930357Y-44130489D01*
X76930357Y-44130489D02*
X76977976Y-44225727D01*
X76977976Y-44225727D02*
X76977976Y-44463822D01*
X76977976Y-44463822D02*
X76930357Y-44559060D01*
X76930357Y-44559060D02*
X76882738Y-44606680D01*
X76882738Y-44606680D02*
X76787500Y-44654299D01*
X76787500Y-44654299D02*
X76501786Y-44654299D01*
X76501786Y-44654299D02*
X76406548Y-44606680D01*
X76406548Y-44606680D02*
X76358929Y-44559060D01*
X77358929Y-43749537D02*
X77406548Y-43701918D01*
X77406548Y-43701918D02*
X77501786Y-43654299D01*
X77501786Y-43654299D02*
X77739881Y-43654299D01*
X77739881Y-43654299D02*
X77835119Y-43701918D01*
X77835119Y-43701918D02*
X77882738Y-43749537D01*
X77882738Y-43749537D02*
X77930357Y-43844775D01*
X77930357Y-43844775D02*
X77930357Y-43940013D01*
X77930357Y-43940013D02*
X77882738Y-44082870D01*
X77882738Y-44082870D02*
X77311310Y-44654299D01*
X77311310Y-44654299D02*
X77930357Y-44654299D01*
X248404762Y-63654299D02*
X248404762Y-62654299D01*
X248976190Y-63654299D02*
X248547619Y-63082870D01*
X248976190Y-62654299D02*
X248404762Y-63225727D01*
X249166667Y-63749537D02*
X249928571Y-63749537D01*
X250642857Y-62654299D02*
X250166667Y-62654299D01*
X250166667Y-62654299D02*
X250119048Y-63130489D01*
X250119048Y-63130489D02*
X250166667Y-63082870D01*
X250166667Y-63082870D02*
X250261905Y-63035251D01*
X250261905Y-63035251D02*
X250500000Y-63035251D01*
X250500000Y-63035251D02*
X250595238Y-63082870D01*
X250595238Y-63082870D02*
X250642857Y-63130489D01*
X250642857Y-63130489D02*
X250690476Y-63225727D01*
X250690476Y-63225727D02*
X250690476Y-63463822D01*
X250690476Y-63463822D02*
X250642857Y-63559060D01*
X250642857Y-63559060D02*
X250595238Y-63606680D01*
X250595238Y-63606680D02*
X250500000Y-63654299D01*
X250500000Y-63654299D02*
X250261905Y-63654299D01*
X250261905Y-63654299D02*
X250166667Y-63606680D01*
X250166667Y-63606680D02*
X250119048Y-63559060D01*
X251023810Y-62654299D02*
X251642857Y-62654299D01*
X251642857Y-62654299D02*
X251309524Y-63035251D01*
X251309524Y-63035251D02*
X251452381Y-63035251D01*
X251452381Y-63035251D02*
X251547619Y-63082870D01*
X251547619Y-63082870D02*
X251595238Y-63130489D01*
X251595238Y-63130489D02*
X251642857Y-63225727D01*
X251642857Y-63225727D02*
X251642857Y-63463822D01*
X251642857Y-63463822D02*
X251595238Y-63559060D01*
X251595238Y-63559060D02*
X251547619Y-63606680D01*
X251547619Y-63606680D02*
X251452381Y-63654299D01*
X251452381Y-63654299D02*
X251166667Y-63654299D01*
X251166667Y-63654299D02*
X251071429Y-63606680D01*
X251071429Y-63606680D02*
X251023810Y-63559060D01*
X165054762Y-25554299D02*
X165054762Y-24554299D01*
X165626190Y-25554299D02*
X165197619Y-24982870D01*
X165626190Y-24554299D02*
X165054762Y-25125727D01*
X165816667Y-25649537D02*
X166578571Y-25649537D01*
X166769048Y-24649537D02*
X166816667Y-24601918D01*
X166816667Y-24601918D02*
X166911905Y-24554299D01*
X166911905Y-24554299D02*
X167150000Y-24554299D01*
X167150000Y-24554299D02*
X167245238Y-24601918D01*
X167245238Y-24601918D02*
X167292857Y-24649537D01*
X167292857Y-24649537D02*
X167340476Y-24744775D01*
X167340476Y-24744775D02*
X167340476Y-24840013D01*
X167340476Y-24840013D02*
X167292857Y-24982870D01*
X167292857Y-24982870D02*
X166721429Y-25554299D01*
X166721429Y-25554299D02*
X167340476Y-25554299D01*
X167673810Y-24554299D02*
X168292857Y-24554299D01*
X168292857Y-24554299D02*
X167959524Y-24935251D01*
X167959524Y-24935251D02*
X168102381Y-24935251D01*
X168102381Y-24935251D02*
X168197619Y-24982870D01*
X168197619Y-24982870D02*
X168245238Y-25030489D01*
X168245238Y-25030489D02*
X168292857Y-25125727D01*
X168292857Y-25125727D02*
X168292857Y-25363822D01*
X168292857Y-25363822D02*
X168245238Y-25459060D01*
X168245238Y-25459060D02*
X168197619Y-25506680D01*
X168197619Y-25506680D02*
X168102381Y-25554299D01*
X168102381Y-25554299D02*
X167816667Y-25554299D01*
X167816667Y-25554299D02*
X167721429Y-25506680D01*
X167721429Y-25506680D02*
X167673810Y-25459060D01*
X122354762Y-63554299D02*
X122354762Y-62554299D01*
X122926190Y-63554299D02*
X122497619Y-62982870D01*
X122926190Y-62554299D02*
X122354762Y-63125727D01*
X123116667Y-63649537D02*
X123878571Y-63649537D01*
X124545238Y-62887632D02*
X124545238Y-63554299D01*
X124307143Y-62506680D02*
X124069048Y-63220965D01*
X124069048Y-63220965D02*
X124688095Y-63220965D01*
X124973810Y-62554299D02*
X125640476Y-62554299D01*
X125640476Y-62554299D02*
X125211905Y-63554299D01*
X112792262Y-44654299D02*
X112792262Y-43654299D01*
X113363690Y-44654299D02*
X112935119Y-44082870D01*
X113363690Y-43654299D02*
X112792262Y-44225727D01*
X113554167Y-44749537D02*
X114316071Y-44749537D01*
X114458929Y-43654299D02*
X115077976Y-43654299D01*
X115077976Y-43654299D02*
X114744643Y-44035251D01*
X114744643Y-44035251D02*
X114887500Y-44035251D01*
X114887500Y-44035251D02*
X114982738Y-44082870D01*
X114982738Y-44082870D02*
X115030357Y-44130489D01*
X115030357Y-44130489D02*
X115077976Y-44225727D01*
X115077976Y-44225727D02*
X115077976Y-44463822D01*
X115077976Y-44463822D02*
X115030357Y-44559060D01*
X115030357Y-44559060D02*
X114982738Y-44606680D01*
X114982738Y-44606680D02*
X114887500Y-44654299D01*
X114887500Y-44654299D02*
X114601786Y-44654299D01*
X114601786Y-44654299D02*
X114506548Y-44606680D01*
X114506548Y-44606680D02*
X114458929Y-44559060D01*
X115935119Y-43987632D02*
X115935119Y-44654299D01*
X115697024Y-43606680D02*
X115458929Y-44320965D01*
X115458929Y-44320965D02*
X116077976Y-44320965D01*
X65204762Y-63554299D02*
X65204762Y-62554299D01*
X65776190Y-63554299D02*
X65347619Y-62982870D01*
X65776190Y-62554299D02*
X65204762Y-63125727D01*
X65966667Y-63649537D02*
X66728571Y-63649537D01*
X67395238Y-62887632D02*
X67395238Y-63554299D01*
X67157143Y-62506680D02*
X66919048Y-63220965D01*
X66919048Y-63220965D02*
X67538095Y-63220965D01*
X68347619Y-62887632D02*
X68347619Y-63554299D01*
X68109524Y-62506680D02*
X67871429Y-63220965D01*
X67871429Y-63220965D02*
X68490476Y-63220965D01*
X212704762Y-6454299D02*
X212704762Y-5454299D01*
X213276190Y-6454299D02*
X212847619Y-5882870D01*
X213276190Y-5454299D02*
X212704762Y-6025727D01*
X213466667Y-6549537D02*
X214228571Y-6549537D01*
X214990476Y-6454299D02*
X214419048Y-6454299D01*
X214704762Y-6454299D02*
X214704762Y-5454299D01*
X214704762Y-5454299D02*
X214609524Y-5597156D01*
X214609524Y-5597156D02*
X214514286Y-5692394D01*
X214514286Y-5692394D02*
X214419048Y-5740013D01*
X215942857Y-6454299D02*
X215371429Y-6454299D01*
X215657143Y-6454299D02*
X215657143Y-5454299D01*
X215657143Y-5454299D02*
X215561905Y-5597156D01*
X215561905Y-5597156D02*
X215466667Y-5692394D01*
X215466667Y-5692394D02*
X215371429Y-5740013D01*
X217604762Y-63554299D02*
X217604762Y-62554299D01*
X218176190Y-63554299D02*
X217747619Y-62982870D01*
X218176190Y-62554299D02*
X217604762Y-63125727D01*
X218366667Y-63649537D02*
X219128571Y-63649537D01*
X219842857Y-62554299D02*
X219366667Y-62554299D01*
X219366667Y-62554299D02*
X219319048Y-63030489D01*
X219319048Y-63030489D02*
X219366667Y-62982870D01*
X219366667Y-62982870D02*
X219461905Y-62935251D01*
X219461905Y-62935251D02*
X219700000Y-62935251D01*
X219700000Y-62935251D02*
X219795238Y-62982870D01*
X219795238Y-62982870D02*
X219842857Y-63030489D01*
X219842857Y-63030489D02*
X219890476Y-63125727D01*
X219890476Y-63125727D02*
X219890476Y-63363822D01*
X219890476Y-63363822D02*
X219842857Y-63459060D01*
X219842857Y-63459060D02*
X219795238Y-63506680D01*
X219795238Y-63506680D02*
X219700000Y-63554299D01*
X219700000Y-63554299D02*
X219461905Y-63554299D01*
X219461905Y-63554299D02*
X219366667Y-63506680D01*
X219366667Y-63506680D02*
X219319048Y-63459060D01*
X220271429Y-62649537D02*
X220319048Y-62601918D01*
X220319048Y-62601918D02*
X220414286Y-62554299D01*
X220414286Y-62554299D02*
X220652381Y-62554299D01*
X220652381Y-62554299D02*
X220747619Y-62601918D01*
X220747619Y-62601918D02*
X220795238Y-62649537D01*
X220795238Y-62649537D02*
X220842857Y-62744775D01*
X220842857Y-62744775D02*
X220842857Y-62840013D01*
X220842857Y-62840013D02*
X220795238Y-62982870D01*
X220795238Y-62982870D02*
X220223810Y-63554299D01*
X220223810Y-63554299D02*
X220842857Y-63554299D01*
X179554762Y-62954299D02*
X179554762Y-61954299D01*
X180126190Y-62954299D02*
X179697619Y-62382870D01*
X180126190Y-61954299D02*
X179554762Y-62525727D01*
X180316667Y-63049537D02*
X181078571Y-63049537D01*
X181792857Y-61954299D02*
X181316667Y-61954299D01*
X181316667Y-61954299D02*
X181269048Y-62430489D01*
X181269048Y-62430489D02*
X181316667Y-62382870D01*
X181316667Y-62382870D02*
X181411905Y-62335251D01*
X181411905Y-62335251D02*
X181650000Y-62335251D01*
X181650000Y-62335251D02*
X181745238Y-62382870D01*
X181745238Y-62382870D02*
X181792857Y-62430489D01*
X181792857Y-62430489D02*
X181840476Y-62525727D01*
X181840476Y-62525727D02*
X181840476Y-62763822D01*
X181840476Y-62763822D02*
X181792857Y-62859060D01*
X181792857Y-62859060D02*
X181745238Y-62906680D01*
X181745238Y-62906680D02*
X181650000Y-62954299D01*
X181650000Y-62954299D02*
X181411905Y-62954299D01*
X181411905Y-62954299D02*
X181316667Y-62906680D01*
X181316667Y-62906680D02*
X181269048Y-62859060D01*
X182459524Y-61954299D02*
X182554762Y-61954299D01*
X182554762Y-61954299D02*
X182650000Y-62001918D01*
X182650000Y-62001918D02*
X182697619Y-62049537D01*
X182697619Y-62049537D02*
X182745238Y-62144775D01*
X182745238Y-62144775D02*
X182792857Y-62335251D01*
X182792857Y-62335251D02*
X182792857Y-62573346D01*
X182792857Y-62573346D02*
X182745238Y-62763822D01*
X182745238Y-62763822D02*
X182697619Y-62859060D01*
X182697619Y-62859060D02*
X182650000Y-62906680D01*
X182650000Y-62906680D02*
X182554762Y-62954299D01*
X182554762Y-62954299D02*
X182459524Y-62954299D01*
X182459524Y-62954299D02*
X182364286Y-62906680D01*
X182364286Y-62906680D02*
X182316667Y-62859060D01*
X182316667Y-62859060D02*
X182269048Y-62763822D01*
X182269048Y-62763822D02*
X182221429Y-62573346D01*
X182221429Y-62573346D02*
X182221429Y-62335251D01*
X182221429Y-62335251D02*
X182269048Y-62144775D01*
X182269048Y-62144775D02*
X182316667Y-62049537D01*
X182316667Y-62049537D02*
X182364286Y-62001918D01*
X182364286Y-62001918D02*
X182459524Y-61954299D01*
X270154762Y4295700D02*
X270154762Y5295700D01*
X270726190Y4295700D02*
X270297619Y4867129D01*
X270726190Y5295700D02*
X270154762Y4724272D01*
X270916667Y4200462D02*
X271678571Y4200462D01*
X272440476Y4295700D02*
X271869048Y4295700D01*
X272154762Y4295700D02*
X272154762Y5295700D01*
X272154762Y5295700D02*
X272059524Y5152843D01*
X272059524Y5152843D02*
X271964286Y5057605D01*
X271964286Y5057605D02*
X271869048Y5009986D01*
X273297619Y4962367D02*
X273297619Y4295700D01*
X273059524Y5343320D02*
X272821429Y4629034D01*
X272821429Y4629034D02*
X273440476Y4629034D01*
X80480952Y-6454299D02*
X80480952Y-5454299D01*
X81052380Y-6454299D02*
X80623809Y-5882870D01*
X81052380Y-5454299D02*
X80480952Y-6025727D01*
X81242857Y-6549537D02*
X82004761Y-6549537D01*
X82671428Y-5787632D02*
X82671428Y-6454299D01*
X82433333Y-5406680D02*
X82195238Y-6120965D01*
X82195238Y-6120965D02*
X82814285Y-6120965D01*
X69804762Y-25554299D02*
X69804762Y-24554299D01*
X70376190Y-25554299D02*
X69947619Y-24982870D01*
X70376190Y-24554299D02*
X69804762Y-25125727D01*
X70566667Y-25649537D02*
X71328571Y-25649537D01*
X72090476Y-25554299D02*
X71519048Y-25554299D01*
X71804762Y-25554299D02*
X71804762Y-24554299D01*
X71804762Y-24554299D02*
X71709524Y-24697156D01*
X71709524Y-24697156D02*
X71614286Y-24792394D01*
X71614286Y-24792394D02*
X71519048Y-24840013D01*
X72661905Y-24982870D02*
X72566667Y-24935251D01*
X72566667Y-24935251D02*
X72519048Y-24887632D01*
X72519048Y-24887632D02*
X72471429Y-24792394D01*
X72471429Y-24792394D02*
X72471429Y-24744775D01*
X72471429Y-24744775D02*
X72519048Y-24649537D01*
X72519048Y-24649537D02*
X72566667Y-24601918D01*
X72566667Y-24601918D02*
X72661905Y-24554299D01*
X72661905Y-24554299D02*
X72852381Y-24554299D01*
X72852381Y-24554299D02*
X72947619Y-24601918D01*
X72947619Y-24601918D02*
X72995238Y-24649537D01*
X72995238Y-24649537D02*
X73042857Y-24744775D01*
X73042857Y-24744775D02*
X73042857Y-24792394D01*
X73042857Y-24792394D02*
X72995238Y-24887632D01*
X72995238Y-24887632D02*
X72947619Y-24935251D01*
X72947619Y-24935251D02*
X72852381Y-24982870D01*
X72852381Y-24982870D02*
X72661905Y-24982870D01*
X72661905Y-24982870D02*
X72566667Y-25030489D01*
X72566667Y-25030489D02*
X72519048Y-25078108D01*
X72519048Y-25078108D02*
X72471429Y-25173346D01*
X72471429Y-25173346D02*
X72471429Y-25363822D01*
X72471429Y-25363822D02*
X72519048Y-25459060D01*
X72519048Y-25459060D02*
X72566667Y-25506680D01*
X72566667Y-25506680D02*
X72661905Y-25554299D01*
X72661905Y-25554299D02*
X72852381Y-25554299D01*
X72852381Y-25554299D02*
X72947619Y-25506680D01*
X72947619Y-25506680D02*
X72995238Y-25459060D01*
X72995238Y-25459060D02*
X73042857Y-25363822D01*
X73042857Y-25363822D02*
X73042857Y-25173346D01*
X73042857Y-25173346D02*
X72995238Y-25078108D01*
X72995238Y-25078108D02*
X72947619Y-25030489D01*
X72947619Y-25030489D02*
X72852381Y-24982870D01*
X265154762Y-13554299D02*
X265154762Y-12554299D01*
X265726190Y-13554299D02*
X265297619Y-12982870D01*
X265726190Y-12554299D02*
X265154762Y-13125727D01*
X265916667Y-13649537D02*
X266678571Y-13649537D01*
X266869048Y-12649537D02*
X266916667Y-12601918D01*
X266916667Y-12601918D02*
X267011905Y-12554299D01*
X267011905Y-12554299D02*
X267250000Y-12554299D01*
X267250000Y-12554299D02*
X267345238Y-12601918D01*
X267345238Y-12601918D02*
X267392857Y-12649537D01*
X267392857Y-12649537D02*
X267440476Y-12744775D01*
X267440476Y-12744775D02*
X267440476Y-12840013D01*
X267440476Y-12840013D02*
X267392857Y-12982870D01*
X267392857Y-12982870D02*
X266821429Y-13554299D01*
X266821429Y-13554299D02*
X267440476Y-13554299D01*
X268011905Y-12982870D02*
X267916667Y-12935251D01*
X267916667Y-12935251D02*
X267869048Y-12887632D01*
X267869048Y-12887632D02*
X267821429Y-12792394D01*
X267821429Y-12792394D02*
X267821429Y-12744775D01*
X267821429Y-12744775D02*
X267869048Y-12649537D01*
X267869048Y-12649537D02*
X267916667Y-12601918D01*
X267916667Y-12601918D02*
X268011905Y-12554299D01*
X268011905Y-12554299D02*
X268202381Y-12554299D01*
X268202381Y-12554299D02*
X268297619Y-12601918D01*
X268297619Y-12601918D02*
X268345238Y-12649537D01*
X268345238Y-12649537D02*
X268392857Y-12744775D01*
X268392857Y-12744775D02*
X268392857Y-12792394D01*
X268392857Y-12792394D02*
X268345238Y-12887632D01*
X268345238Y-12887632D02*
X268297619Y-12935251D01*
X268297619Y-12935251D02*
X268202381Y-12982870D01*
X268202381Y-12982870D02*
X268011905Y-12982870D01*
X268011905Y-12982870D02*
X267916667Y-13030489D01*
X267916667Y-13030489D02*
X267869048Y-13078108D01*
X267869048Y-13078108D02*
X267821429Y-13173346D01*
X267821429Y-13173346D02*
X267821429Y-13363822D01*
X267821429Y-13363822D02*
X267869048Y-13459060D01*
X267869048Y-13459060D02*
X267916667Y-13506680D01*
X267916667Y-13506680D02*
X268011905Y-13554299D01*
X268011905Y-13554299D02*
X268202381Y-13554299D01*
X268202381Y-13554299D02*
X268297619Y-13506680D01*
X268297619Y-13506680D02*
X268345238Y-13459060D01*
X268345238Y-13459060D02*
X268392857Y-13363822D01*
X268392857Y-13363822D02*
X268392857Y-13173346D01*
X268392857Y-13173346D02*
X268345238Y-13078108D01*
X268345238Y-13078108D02*
X268297619Y-13030489D01*
X268297619Y-13030489D02*
X268202381Y-12982870D01*
X55642262Y-44654299D02*
X55642262Y-43654299D01*
X56213690Y-44654299D02*
X55785119Y-44082870D01*
X56213690Y-43654299D02*
X55642262Y-44225727D01*
X56404167Y-44749537D02*
X57166071Y-44749537D01*
X57308929Y-43654299D02*
X57927976Y-43654299D01*
X57927976Y-43654299D02*
X57594643Y-44035251D01*
X57594643Y-44035251D02*
X57737500Y-44035251D01*
X57737500Y-44035251D02*
X57832738Y-44082870D01*
X57832738Y-44082870D02*
X57880357Y-44130489D01*
X57880357Y-44130489D02*
X57927976Y-44225727D01*
X57927976Y-44225727D02*
X57927976Y-44463822D01*
X57927976Y-44463822D02*
X57880357Y-44559060D01*
X57880357Y-44559060D02*
X57832738Y-44606680D01*
X57832738Y-44606680D02*
X57737500Y-44654299D01*
X57737500Y-44654299D02*
X57451786Y-44654299D01*
X57451786Y-44654299D02*
X57356548Y-44606680D01*
X57356548Y-44606680D02*
X57308929Y-44559060D01*
X58880357Y-44654299D02*
X58308929Y-44654299D01*
X58594643Y-44654299D02*
X58594643Y-43654299D01*
X58594643Y-43654299D02*
X58499405Y-43797156D01*
X58499405Y-43797156D02*
X58404167Y-43892394D01*
X58404167Y-43892394D02*
X58308929Y-43940013D01*
X234154762Y-62204299D02*
X234154762Y-61204299D01*
X234726190Y-62204299D02*
X234297619Y-61632870D01*
X234726190Y-61204299D02*
X234154762Y-61775727D01*
X234916667Y-62299537D02*
X235678571Y-62299537D01*
X235821429Y-61204299D02*
X236488095Y-61204299D01*
X236488095Y-61204299D02*
X236059524Y-62204299D01*
X237297619Y-61204299D02*
X237107143Y-61204299D01*
X237107143Y-61204299D02*
X237011905Y-61251918D01*
X237011905Y-61251918D02*
X236964286Y-61299537D01*
X236964286Y-61299537D02*
X236869048Y-61442394D01*
X236869048Y-61442394D02*
X236821429Y-61632870D01*
X236821429Y-61632870D02*
X236821429Y-62013822D01*
X236821429Y-62013822D02*
X236869048Y-62109060D01*
X236869048Y-62109060D02*
X236916667Y-62156680D01*
X236916667Y-62156680D02*
X237011905Y-62204299D01*
X237011905Y-62204299D02*
X237202381Y-62204299D01*
X237202381Y-62204299D02*
X237297619Y-62156680D01*
X237297619Y-62156680D02*
X237345238Y-62109060D01*
X237345238Y-62109060D02*
X237392857Y-62013822D01*
X237392857Y-62013822D02*
X237392857Y-61775727D01*
X237392857Y-61775727D02*
X237345238Y-61680489D01*
X237345238Y-61680489D02*
X237297619Y-61632870D01*
X237297619Y-61632870D02*
X237202381Y-61585251D01*
X237202381Y-61585251D02*
X237011905Y-61585251D01*
X237011905Y-61585251D02*
X236916667Y-61632870D01*
X236916667Y-61632870D02*
X236869048Y-61680489D01*
X236869048Y-61680489D02*
X236821429Y-61775727D01*
X10311012Y-63654299D02*
X10311012Y-62654299D01*
X10882440Y-63654299D02*
X10453869Y-63082870D01*
X10882440Y-62654299D02*
X10311012Y-63225727D01*
X11072917Y-63749537D02*
X11834821Y-63749537D01*
X12501488Y-62987632D02*
X12501488Y-63654299D01*
X12263393Y-62606680D02*
X12025298Y-63320965D01*
X12025298Y-63320965D02*
X12644345Y-63320965D01*
X12977679Y-62749537D02*
X13025298Y-62701918D01*
X13025298Y-62701918D02*
X13120536Y-62654299D01*
X13120536Y-62654299D02*
X13358631Y-62654299D01*
X13358631Y-62654299D02*
X13453869Y-62701918D01*
X13453869Y-62701918D02*
X13501488Y-62749537D01*
X13501488Y-62749537D02*
X13549107Y-62844775D01*
X13549107Y-62844775D02*
X13549107Y-62940013D01*
X13549107Y-62940013D02*
X13501488Y-63082870D01*
X13501488Y-63082870D02*
X12930060Y-63654299D01*
X12930060Y-63654299D02*
X13549107Y-63654299D01*
X198554762Y-63554299D02*
X198554762Y-62554299D01*
X199126190Y-63554299D02*
X198697619Y-62982870D01*
X199126190Y-62554299D02*
X198554762Y-63125727D01*
X199316667Y-63649537D02*
X200078571Y-63649537D01*
X200792857Y-62554299D02*
X200316667Y-62554299D01*
X200316667Y-62554299D02*
X200269048Y-63030489D01*
X200269048Y-63030489D02*
X200316667Y-62982870D01*
X200316667Y-62982870D02*
X200411905Y-62935251D01*
X200411905Y-62935251D02*
X200650000Y-62935251D01*
X200650000Y-62935251D02*
X200745238Y-62982870D01*
X200745238Y-62982870D02*
X200792857Y-63030489D01*
X200792857Y-63030489D02*
X200840476Y-63125727D01*
X200840476Y-63125727D02*
X200840476Y-63363822D01*
X200840476Y-63363822D02*
X200792857Y-63459060D01*
X200792857Y-63459060D02*
X200745238Y-63506680D01*
X200745238Y-63506680D02*
X200650000Y-63554299D01*
X200650000Y-63554299D02*
X200411905Y-63554299D01*
X200411905Y-63554299D02*
X200316667Y-63506680D01*
X200316667Y-63506680D02*
X200269048Y-63459060D01*
X201792857Y-63554299D02*
X201221429Y-63554299D01*
X201507143Y-63554299D02*
X201507143Y-62554299D01*
X201507143Y-62554299D02*
X201411905Y-62697156D01*
X201411905Y-62697156D02*
X201316667Y-62792394D01*
X201316667Y-62792394D02*
X201221429Y-62840013D01*
X141404762Y-63554299D02*
X141404762Y-62554299D01*
X141976190Y-63554299D02*
X141547619Y-62982870D01*
X141976190Y-62554299D02*
X141404762Y-63125727D01*
X142166667Y-63649537D02*
X142928571Y-63649537D01*
X143595238Y-62887632D02*
X143595238Y-63554299D01*
X143357143Y-62506680D02*
X143119048Y-63220965D01*
X143119048Y-63220965D02*
X143738095Y-63220965D01*
X144261905Y-62982870D02*
X144166667Y-62935251D01*
X144166667Y-62935251D02*
X144119048Y-62887632D01*
X144119048Y-62887632D02*
X144071429Y-62792394D01*
X144071429Y-62792394D02*
X144071429Y-62744775D01*
X144071429Y-62744775D02*
X144119048Y-62649537D01*
X144119048Y-62649537D02*
X144166667Y-62601918D01*
X144166667Y-62601918D02*
X144261905Y-62554299D01*
X144261905Y-62554299D02*
X144452381Y-62554299D01*
X144452381Y-62554299D02*
X144547619Y-62601918D01*
X144547619Y-62601918D02*
X144595238Y-62649537D01*
X144595238Y-62649537D02*
X144642857Y-62744775D01*
X144642857Y-62744775D02*
X144642857Y-62792394D01*
X144642857Y-62792394D02*
X144595238Y-62887632D01*
X144595238Y-62887632D02*
X144547619Y-62935251D01*
X144547619Y-62935251D02*
X144452381Y-62982870D01*
X144452381Y-62982870D02*
X144261905Y-62982870D01*
X144261905Y-62982870D02*
X144166667Y-63030489D01*
X144166667Y-63030489D02*
X144119048Y-63078108D01*
X144119048Y-63078108D02*
X144071429Y-63173346D01*
X144071429Y-63173346D02*
X144071429Y-63363822D01*
X144071429Y-63363822D02*
X144119048Y-63459060D01*
X144119048Y-63459060D02*
X144166667Y-63506680D01*
X144166667Y-63506680D02*
X144261905Y-63554299D01*
X144261905Y-63554299D02*
X144452381Y-63554299D01*
X144452381Y-63554299D02*
X144547619Y-63506680D01*
X144547619Y-63506680D02*
X144595238Y-63459060D01*
X144595238Y-63459060D02*
X144642857Y-63363822D01*
X144642857Y-63363822D02*
X144642857Y-63173346D01*
X144642857Y-63173346D02*
X144595238Y-63078108D01*
X144595238Y-63078108D02*
X144547619Y-63030489D01*
X144547619Y-63030489D02*
X144452381Y-62982870D01*
X61280952Y-6454299D02*
X61280952Y-5454299D01*
X61852380Y-6454299D02*
X61423809Y-5882870D01*
X61852380Y-5454299D02*
X61280952Y-6025727D01*
X62042857Y-6549537D02*
X62804761Y-6549537D01*
X62947619Y-5454299D02*
X63566666Y-5454299D01*
X63566666Y-5454299D02*
X63233333Y-5835251D01*
X63233333Y-5835251D02*
X63376190Y-5835251D01*
X63376190Y-5835251D02*
X63471428Y-5882870D01*
X63471428Y-5882870D02*
X63519047Y-5930489D01*
X63519047Y-5930489D02*
X63566666Y-6025727D01*
X63566666Y-6025727D02*
X63566666Y-6263822D01*
X63566666Y-6263822D02*
X63519047Y-6359060D01*
X63519047Y-6359060D02*
X63471428Y-6406680D01*
X63471428Y-6406680D02*
X63376190Y-6454299D01*
X63376190Y-6454299D02*
X63090476Y-6454299D01*
X63090476Y-6454299D02*
X62995238Y-6406680D01*
X62995238Y-6406680D02*
X62947619Y-6359060D01*
X227092262Y-44654299D02*
X227092262Y-43654299D01*
X227663690Y-44654299D02*
X227235119Y-44082870D01*
X227663690Y-43654299D02*
X227092262Y-44225727D01*
X227854167Y-44749537D02*
X228616071Y-44749537D01*
X229282738Y-43987632D02*
X229282738Y-44654299D01*
X229044643Y-43606680D02*
X228806548Y-44320965D01*
X228806548Y-44320965D02*
X229425595Y-44320965D01*
X229997024Y-43654299D02*
X230092262Y-43654299D01*
X230092262Y-43654299D02*
X230187500Y-43701918D01*
X230187500Y-43701918D02*
X230235119Y-43749537D01*
X230235119Y-43749537D02*
X230282738Y-43844775D01*
X230282738Y-43844775D02*
X230330357Y-44035251D01*
X230330357Y-44035251D02*
X230330357Y-44273346D01*
X230330357Y-44273346D02*
X230282738Y-44463822D01*
X230282738Y-44463822D02*
X230235119Y-44559060D01*
X230235119Y-44559060D02*
X230187500Y-44606680D01*
X230187500Y-44606680D02*
X230092262Y-44654299D01*
X230092262Y-44654299D02*
X229997024Y-44654299D01*
X229997024Y-44654299D02*
X229901786Y-44606680D01*
X229901786Y-44606680D02*
X229854167Y-44559060D01*
X229854167Y-44559060D02*
X229806548Y-44463822D01*
X229806548Y-44463822D02*
X229758929Y-44273346D01*
X229758929Y-44273346D02*
X229758929Y-44035251D01*
X229758929Y-44035251D02*
X229806548Y-43844775D01*
X229806548Y-43844775D02*
X229854167Y-43749537D01*
X229854167Y-43749537D02*
X229901786Y-43701918D01*
X229901786Y-43701918D02*
X229997024Y-43654299D01*
X789762Y-30554299D02*
X789762Y-29554299D01*
X1361190Y-30554299D02*
X932619Y-29982870D01*
X1361190Y-29554299D02*
X789762Y-30125727D01*
X1551667Y-30649537D02*
X2313571Y-30649537D01*
X2980238Y-29554299D02*
X2789762Y-29554299D01*
X2789762Y-29554299D02*
X2694524Y-29601918D01*
X2694524Y-29601918D02*
X2646905Y-29649537D01*
X2646905Y-29649537D02*
X2551667Y-29792394D01*
X2551667Y-29792394D02*
X2504048Y-29982870D01*
X2504048Y-29982870D02*
X2504048Y-30363822D01*
X2504048Y-30363822D02*
X2551667Y-30459060D01*
X2551667Y-30459060D02*
X2599286Y-30506680D01*
X2599286Y-30506680D02*
X2694524Y-30554299D01*
X2694524Y-30554299D02*
X2885000Y-30554299D01*
X2885000Y-30554299D02*
X2980238Y-30506680D01*
X2980238Y-30506680D02*
X3027857Y-30459060D01*
X3027857Y-30459060D02*
X3075476Y-30363822D01*
X3075476Y-30363822D02*
X3075476Y-30125727D01*
X3075476Y-30125727D02*
X3027857Y-30030489D01*
X3027857Y-30030489D02*
X2980238Y-29982870D01*
X2980238Y-29982870D02*
X2885000Y-29935251D01*
X2885000Y-29935251D02*
X2694524Y-29935251D01*
X2694524Y-29935251D02*
X2599286Y-29982870D01*
X2599286Y-29982870D02*
X2551667Y-30030489D01*
X2551667Y-30030489D02*
X2504048Y-30125727D01*
X3408810Y-29554299D02*
X4027857Y-29554299D01*
X4027857Y-29554299D02*
X3694524Y-29935251D01*
X3694524Y-29935251D02*
X3837381Y-29935251D01*
X3837381Y-29935251D02*
X3932619Y-29982870D01*
X3932619Y-29982870D02*
X3980238Y-30030489D01*
X3980238Y-30030489D02*
X4027857Y-30125727D01*
X4027857Y-30125727D02*
X4027857Y-30363822D01*
X4027857Y-30363822D02*
X3980238Y-30459060D01*
X3980238Y-30459060D02*
X3932619Y-30506680D01*
X3932619Y-30506680D02*
X3837381Y-30554299D01*
X3837381Y-30554299D02*
X3551667Y-30554299D01*
X3551667Y-30554299D02*
X3456429Y-30506680D01*
X3456429Y-30506680D02*
X3408810Y-30459060D01*
X93742262Y-44654299D02*
X93742262Y-43654299D01*
X94313690Y-44654299D02*
X93885119Y-44082870D01*
X94313690Y-43654299D02*
X93742262Y-44225727D01*
X94504167Y-44749537D02*
X95266071Y-44749537D01*
X95408929Y-43654299D02*
X96027976Y-43654299D01*
X96027976Y-43654299D02*
X95694643Y-44035251D01*
X95694643Y-44035251D02*
X95837500Y-44035251D01*
X95837500Y-44035251D02*
X95932738Y-44082870D01*
X95932738Y-44082870D02*
X95980357Y-44130489D01*
X95980357Y-44130489D02*
X96027976Y-44225727D01*
X96027976Y-44225727D02*
X96027976Y-44463822D01*
X96027976Y-44463822D02*
X95980357Y-44559060D01*
X95980357Y-44559060D02*
X95932738Y-44606680D01*
X95932738Y-44606680D02*
X95837500Y-44654299D01*
X95837500Y-44654299D02*
X95551786Y-44654299D01*
X95551786Y-44654299D02*
X95456548Y-44606680D01*
X95456548Y-44606680D02*
X95408929Y-44559060D01*
X96361310Y-43654299D02*
X96980357Y-43654299D01*
X96980357Y-43654299D02*
X96647024Y-44035251D01*
X96647024Y-44035251D02*
X96789881Y-44035251D01*
X96789881Y-44035251D02*
X96885119Y-44082870D01*
X96885119Y-44082870D02*
X96932738Y-44130489D01*
X96932738Y-44130489D02*
X96980357Y-44225727D01*
X96980357Y-44225727D02*
X96980357Y-44463822D01*
X96980357Y-44463822D02*
X96932738Y-44559060D01*
X96932738Y-44559060D02*
X96885119Y-44606680D01*
X96885119Y-44606680D02*
X96789881Y-44654299D01*
X96789881Y-44654299D02*
X96504167Y-44654299D01*
X96504167Y-44654299D02*
X96408929Y-44606680D01*
X96408929Y-44606680D02*
X96361310Y-44559060D01*
X46154762Y-63554299D02*
X46154762Y-62554299D01*
X46726190Y-63554299D02*
X46297619Y-62982870D01*
X46726190Y-62554299D02*
X46154762Y-63125727D01*
X46916667Y-63649537D02*
X47678571Y-63649537D01*
X48345238Y-62887632D02*
X48345238Y-63554299D01*
X48107143Y-62506680D02*
X47869048Y-63220965D01*
X47869048Y-63220965D02*
X48488095Y-63220965D01*
X48773810Y-62554299D02*
X49392857Y-62554299D01*
X49392857Y-62554299D02*
X49059524Y-62935251D01*
X49059524Y-62935251D02*
X49202381Y-62935251D01*
X49202381Y-62935251D02*
X49297619Y-62982870D01*
X49297619Y-62982870D02*
X49345238Y-63030489D01*
X49345238Y-63030489D02*
X49392857Y-63125727D01*
X49392857Y-63125727D02*
X49392857Y-63363822D01*
X49392857Y-63363822D02*
X49345238Y-63459060D01*
X49345238Y-63459060D02*
X49297619Y-63506680D01*
X49297619Y-63506680D02*
X49202381Y-63554299D01*
X49202381Y-63554299D02*
X48916667Y-63554299D01*
X48916667Y-63554299D02*
X48821429Y-63506680D01*
X48821429Y-63506680D02*
X48773810Y-63459060D01*
X7892262Y-25554299D02*
X7892262Y-24554299D01*
X8463690Y-25554299D02*
X8035119Y-24982870D01*
X8463690Y-24554299D02*
X7892262Y-25125727D01*
X8654167Y-25649537D02*
X9416071Y-25649537D01*
X10177976Y-25554299D02*
X9606548Y-25554299D01*
X9892262Y-25554299D02*
X9892262Y-24554299D01*
X9892262Y-24554299D02*
X9797024Y-24697156D01*
X9797024Y-24697156D02*
X9701786Y-24792394D01*
X9701786Y-24792394D02*
X9606548Y-24840013D01*
X11082738Y-24554299D02*
X10606548Y-24554299D01*
X10606548Y-24554299D02*
X10558929Y-25030489D01*
X10558929Y-25030489D02*
X10606548Y-24982870D01*
X10606548Y-24982870D02*
X10701786Y-24935251D01*
X10701786Y-24935251D02*
X10939881Y-24935251D01*
X10939881Y-24935251D02*
X11035119Y-24982870D01*
X11035119Y-24982870D02*
X11082738Y-25030489D01*
X11082738Y-25030489D02*
X11130357Y-25125727D01*
X11130357Y-25125727D02*
X11130357Y-25363822D01*
X11130357Y-25363822D02*
X11082738Y-25459060D01*
X11082738Y-25459060D02*
X11035119Y-25506680D01*
X11035119Y-25506680D02*
X10939881Y-25554299D01*
X10939881Y-25554299D02*
X10701786Y-25554299D01*
X10701786Y-25554299D02*
X10606548Y-25506680D01*
X10606548Y-25506680D02*
X10558929Y-25459060D01*
X31604762Y-82854299D02*
X31604762Y-81854299D01*
X32176190Y-82854299D02*
X31747619Y-82282870D01*
X32176190Y-81854299D02*
X31604762Y-82425727D01*
X32366667Y-82949537D02*
X33128571Y-82949537D01*
X33842857Y-81854299D02*
X33366667Y-81854299D01*
X33366667Y-81854299D02*
X33319048Y-82330489D01*
X33319048Y-82330489D02*
X33366667Y-82282870D01*
X33366667Y-82282870D02*
X33461905Y-82235251D01*
X33461905Y-82235251D02*
X33700000Y-82235251D01*
X33700000Y-82235251D02*
X33795238Y-82282870D01*
X33795238Y-82282870D02*
X33842857Y-82330489D01*
X33842857Y-82330489D02*
X33890476Y-82425727D01*
X33890476Y-82425727D02*
X33890476Y-82663822D01*
X33890476Y-82663822D02*
X33842857Y-82759060D01*
X33842857Y-82759060D02*
X33795238Y-82806680D01*
X33795238Y-82806680D02*
X33700000Y-82854299D01*
X33700000Y-82854299D02*
X33461905Y-82854299D01*
X33461905Y-82854299D02*
X33366667Y-82806680D01*
X33366667Y-82806680D02*
X33319048Y-82759060D01*
X34795238Y-81854299D02*
X34319048Y-81854299D01*
X34319048Y-81854299D02*
X34271429Y-82330489D01*
X34271429Y-82330489D02*
X34319048Y-82282870D01*
X34319048Y-82282870D02*
X34414286Y-82235251D01*
X34414286Y-82235251D02*
X34652381Y-82235251D01*
X34652381Y-82235251D02*
X34747619Y-82282870D01*
X34747619Y-82282870D02*
X34795238Y-82330489D01*
X34795238Y-82330489D02*
X34842857Y-82425727D01*
X34842857Y-82425727D02*
X34842857Y-82663822D01*
X34842857Y-82663822D02*
X34795238Y-82759060D01*
X34795238Y-82759060D02*
X34747619Y-82806680D01*
X34747619Y-82806680D02*
X34652381Y-82854299D01*
X34652381Y-82854299D02*
X34414286Y-82854299D01*
X34414286Y-82854299D02*
X34319048Y-82806680D01*
X34319048Y-82806680D02*
X34271429Y-82759060D01*
X10398512Y-44654299D02*
X10398512Y-43654299D01*
X10969940Y-44654299D02*
X10541369Y-44082870D01*
X10969940Y-43654299D02*
X10398512Y-44225727D01*
X11160417Y-44749537D02*
X11922321Y-44749537D01*
X12112798Y-43749537D02*
X12160417Y-43701918D01*
X12160417Y-43701918D02*
X12255655Y-43654299D01*
X12255655Y-43654299D02*
X12493750Y-43654299D01*
X12493750Y-43654299D02*
X12588988Y-43701918D01*
X12588988Y-43701918D02*
X12636607Y-43749537D01*
X12636607Y-43749537D02*
X12684226Y-43844775D01*
X12684226Y-43844775D02*
X12684226Y-43940013D01*
X12684226Y-43940013D02*
X12636607Y-44082870D01*
X12636607Y-44082870D02*
X12065179Y-44654299D01*
X12065179Y-44654299D02*
X12684226Y-44654299D01*
X13160417Y-44654299D02*
X13350893Y-44654299D01*
X13350893Y-44654299D02*
X13446131Y-44606680D01*
X13446131Y-44606680D02*
X13493750Y-44559060D01*
X13493750Y-44559060D02*
X13588988Y-44416203D01*
X13588988Y-44416203D02*
X13636607Y-44225727D01*
X13636607Y-44225727D02*
X13636607Y-43844775D01*
X13636607Y-43844775D02*
X13588988Y-43749537D01*
X13588988Y-43749537D02*
X13541369Y-43701918D01*
X13541369Y-43701918D02*
X13446131Y-43654299D01*
X13446131Y-43654299D02*
X13255655Y-43654299D01*
X13255655Y-43654299D02*
X13160417Y-43701918D01*
X13160417Y-43701918D02*
X13112798Y-43749537D01*
X13112798Y-43749537D02*
X13065179Y-43844775D01*
X13065179Y-43844775D02*
X13065179Y-44082870D01*
X13065179Y-44082870D02*
X13112798Y-44178108D01*
X13112798Y-44178108D02*
X13160417Y-44225727D01*
X13160417Y-44225727D02*
X13255655Y-44273346D01*
X13255655Y-44273346D02*
X13446131Y-44273346D01*
X13446131Y-44273346D02*
X13541369Y-44225727D01*
X13541369Y-44225727D02*
X13588988Y-44178108D01*
X13588988Y-44178108D02*
X13636607Y-44082870D01*
X50754762Y-25554299D02*
X50754762Y-24554299D01*
X51326190Y-25554299D02*
X50897619Y-24982870D01*
X51326190Y-24554299D02*
X50754762Y-25125727D01*
X51516667Y-25649537D02*
X52278571Y-25649537D01*
X53040476Y-25554299D02*
X52469048Y-25554299D01*
X52754762Y-25554299D02*
X52754762Y-24554299D01*
X52754762Y-24554299D02*
X52659524Y-24697156D01*
X52659524Y-24697156D02*
X52564286Y-24792394D01*
X52564286Y-24792394D02*
X52469048Y-24840013D01*
X53373810Y-24554299D02*
X54040476Y-24554299D01*
X54040476Y-24554299D02*
X53611905Y-25554299D01*
X88854762Y-25554299D02*
X88854762Y-24554299D01*
X89426190Y-25554299D02*
X88997619Y-24982870D01*
X89426190Y-24554299D02*
X88854762Y-25125727D01*
X89616667Y-25649537D02*
X90378571Y-25649537D01*
X91140476Y-25554299D02*
X90569048Y-25554299D01*
X90854762Y-25554299D02*
X90854762Y-24554299D01*
X90854762Y-24554299D02*
X90759524Y-24697156D01*
X90759524Y-24697156D02*
X90664286Y-24792394D01*
X90664286Y-24792394D02*
X90569048Y-24840013D01*
X91616667Y-25554299D02*
X91807143Y-25554299D01*
X91807143Y-25554299D02*
X91902381Y-25506680D01*
X91902381Y-25506680D02*
X91950000Y-25459060D01*
X91950000Y-25459060D02*
X92045238Y-25316203D01*
X92045238Y-25316203D02*
X92092857Y-25125727D01*
X92092857Y-25125727D02*
X92092857Y-24744775D01*
X92092857Y-24744775D02*
X92045238Y-24649537D01*
X92045238Y-24649537D02*
X91997619Y-24601918D01*
X91997619Y-24601918D02*
X91902381Y-24554299D01*
X91902381Y-24554299D02*
X91711905Y-24554299D01*
X91711905Y-24554299D02*
X91616667Y-24601918D01*
X91616667Y-24601918D02*
X91569048Y-24649537D01*
X91569048Y-24649537D02*
X91521429Y-24744775D01*
X91521429Y-24744775D02*
X91521429Y-24982870D01*
X91521429Y-24982870D02*
X91569048Y-25078108D01*
X91569048Y-25078108D02*
X91616667Y-25125727D01*
X91616667Y-25125727D02*
X91711905Y-25173346D01*
X91711905Y-25173346D02*
X91902381Y-25173346D01*
X91902381Y-25173346D02*
X91997619Y-25125727D01*
X91997619Y-25125727D02*
X92045238Y-25078108D01*
X92045238Y-25078108D02*
X92092857Y-24982870D01*
X136604762Y-82654299D02*
X136604762Y-81654299D01*
X137176190Y-82654299D02*
X136747619Y-82082870D01*
X137176190Y-81654299D02*
X136604762Y-82225727D01*
X137366667Y-82749537D02*
X138128571Y-82749537D01*
X138795238Y-81654299D02*
X138604762Y-81654299D01*
X138604762Y-81654299D02*
X138509524Y-81701918D01*
X138509524Y-81701918D02*
X138461905Y-81749537D01*
X138461905Y-81749537D02*
X138366667Y-81892394D01*
X138366667Y-81892394D02*
X138319048Y-82082870D01*
X138319048Y-82082870D02*
X138319048Y-82463822D01*
X138319048Y-82463822D02*
X138366667Y-82559060D01*
X138366667Y-82559060D02*
X138414286Y-82606680D01*
X138414286Y-82606680D02*
X138509524Y-82654299D01*
X138509524Y-82654299D02*
X138700000Y-82654299D01*
X138700000Y-82654299D02*
X138795238Y-82606680D01*
X138795238Y-82606680D02*
X138842857Y-82559060D01*
X138842857Y-82559060D02*
X138890476Y-82463822D01*
X138890476Y-82463822D02*
X138890476Y-82225727D01*
X138890476Y-82225727D02*
X138842857Y-82130489D01*
X138842857Y-82130489D02*
X138795238Y-82082870D01*
X138795238Y-82082870D02*
X138700000Y-82035251D01*
X138700000Y-82035251D02*
X138509524Y-82035251D01*
X138509524Y-82035251D02*
X138414286Y-82082870D01*
X138414286Y-82082870D02*
X138366667Y-82130489D01*
X138366667Y-82130489D02*
X138319048Y-82225727D01*
X139271429Y-81749537D02*
X139319048Y-81701918D01*
X139319048Y-81701918D02*
X139414286Y-81654299D01*
X139414286Y-81654299D02*
X139652381Y-81654299D01*
X139652381Y-81654299D02*
X139747619Y-81701918D01*
X139747619Y-81701918D02*
X139795238Y-81749537D01*
X139795238Y-81749537D02*
X139842857Y-81844775D01*
X139842857Y-81844775D02*
X139842857Y-81940013D01*
X139842857Y-81940013D02*
X139795238Y-82082870D01*
X139795238Y-82082870D02*
X139223810Y-82654299D01*
X139223810Y-82654299D02*
X139842857Y-82654299D01*
D11*
X116725000Y-11950000D02*
X116725000Y-26150000D01*
X116725000Y-26150000D02*
X130925000Y-26150000D01*
X130925000Y-11950000D02*
X116725000Y-11950000D01*
X130925000Y-26150000D02*
X130925000Y-11950000D01*
X173875000Y-11950000D02*
X173875000Y-26150000D01*
X173875000Y-26150000D02*
X188075000Y-26150000D01*
X188075000Y-11950000D02*
X173875000Y-11950000D01*
X188075000Y-26150000D02*
X188075000Y-11950000D01*
X164350000Y7100000D02*
X164350000Y-7100000D01*
X164350000Y-7100000D02*
X178550000Y-7100000D01*
X178550000Y7100000D02*
X164350000Y7100000D01*
X178550000Y-7100000D02*
X178550000Y7100000D01*
X207193750Y-69100000D02*
X207193750Y-83300000D01*
X207193750Y-83300000D02*
X223793750Y-83300000D01*
X223793750Y-69100000D02*
X207193750Y-69100000D01*
X223793750Y-83300000D02*
X223793750Y-69100000D01*
X88150000Y7100000D02*
X88150000Y-7100000D01*
X88150000Y-7100000D02*
X102350000Y-7100000D01*
X102350000Y7100000D02*
X88150000Y7100000D01*
X102350000Y-7100000D02*
X102350000Y7100000D01*
X231006250Y-69100000D02*
X231006250Y-83300000D01*
X231006250Y-83300000D02*
X247606250Y-83300000D01*
X247606250Y-69100000D02*
X231006250Y-69100000D01*
X247606250Y-83300000D02*
X247606250Y-69100000D01*
X240550000Y7100000D02*
X240550000Y-7100000D01*
X240550000Y-7100000D02*
X254750000Y-7100000D01*
X254750000Y7100000D02*
X240550000Y7100000D01*
X254750000Y-7100000D02*
X254750000Y7100000D01*
X31000000Y7100000D02*
X31000000Y-7100000D01*
X31000000Y-7100000D02*
X45200000Y-7100000D01*
X45200000Y7100000D02*
X31000000Y7100000D01*
X45200000Y-7100000D02*
X45200000Y7100000D01*
X11950000Y7100000D02*
X11950000Y-7100000D01*
X11950000Y-7100000D02*
X26150000Y-7100000D01*
X26150000Y7100000D02*
X11950000Y7100000D01*
X26150000Y-7100000D02*
X26150000Y7100000D01*
X259600000Y-50050000D02*
X259600000Y-64250000D01*
X259600000Y-64250000D02*
X273800000Y-64250000D01*
X273800000Y-50050000D02*
X259600000Y-50050000D01*
X273800000Y-64250000D02*
X273800000Y-50050000D01*
X211975000Y-11950000D02*
X211975000Y-26150000D01*
X211975000Y-26150000D02*
X226175000Y-26150000D01*
X226175000Y-11950000D02*
X211975000Y-11950000D01*
X226175000Y-26150000D02*
X226175000Y-11950000D01*
X197687500Y-31000000D02*
X197687500Y-45200000D01*
X197687500Y-45200000D02*
X211887500Y-45200000D01*
X211887500Y-31000000D02*
X197687500Y-31000000D01*
X211887500Y-45200000D02*
X211887500Y-31000000D01*
X126250000Y7100000D02*
X126250000Y-7100000D01*
X126250000Y-7100000D02*
X140450000Y-7100000D01*
X140450000Y7100000D02*
X126250000Y7100000D01*
X140450000Y-7100000D02*
X140450000Y7100000D01*
X145300000Y7100000D02*
X145300000Y-7100000D01*
X145300000Y-7100000D02*
X159500000Y-7100000D01*
X159500000Y7100000D02*
X145300000Y7100000D01*
X159500000Y-7100000D02*
X159500000Y7100000D01*
X254818750Y-69100000D02*
X254818750Y-83300000D01*
X254818750Y-83300000D02*
X271418750Y-83300000D01*
X271418750Y-69100000D02*
X254818750Y-69100000D01*
X271418750Y-83300000D02*
X271418750Y-69100000D01*
X26237500Y-31000000D02*
X26237500Y-45200000D01*
X26237500Y-45200000D02*
X40437500Y-45200000D01*
X40437500Y-31000000D02*
X26237500Y-31000000D01*
X40437500Y-45200000D02*
X40437500Y-31000000D01*
X235800000Y-31000000D02*
X235800000Y-45200000D01*
X235800000Y-45200000D02*
X250000000Y-45200000D01*
X250000000Y-31000000D02*
X235800000Y-31000000D01*
X250000000Y-45200000D02*
X250000000Y-31000000D01*
X-7100000Y7100000D02*
X-7100000Y-7100000D01*
X-7100000Y-7100000D02*
X7100000Y-7100000D01*
X7100000Y7100000D02*
X-7100000Y7100000D01*
X7100000Y-7100000D02*
X7100000Y7100000D01*
X-4720000Y-50050000D02*
X-4720000Y-64250000D01*
X-4720000Y-64250000D02*
X9480000Y-64250000D01*
X9480000Y-50050000D02*
X-4720000Y-50050000D01*
X9480000Y-64250000D02*
X9480000Y-50050000D01*
X192925000Y-11950000D02*
X192925000Y-26150000D01*
X192925000Y-26150000D02*
X207125000Y-26150000D01*
X207125000Y-11950000D02*
X192925000Y-11950000D01*
X207125000Y-26150000D02*
X207125000Y-11950000D01*
X247693750Y-31000000D02*
X247693750Y-45200000D01*
X247693750Y-45200000D02*
X261893750Y-45200000D01*
X261893750Y-31000000D02*
X247693750Y-31000000D01*
X261893750Y-45200000D02*
X261893750Y-31000000D01*
X150062500Y-50050000D02*
X150062500Y-64250000D01*
X150062500Y-64250000D02*
X164262500Y-64250000D01*
X164262500Y-50050000D02*
X150062500Y-50050000D01*
X164262500Y-64250000D02*
X164262500Y-50050000D01*
X92912500Y-50050000D02*
X92912500Y-64250000D01*
X92912500Y-64250000D02*
X107112500Y-64250000D01*
X107112500Y-50050000D02*
X92912500Y-50050000D01*
X107112500Y-64250000D02*
X107112500Y-50050000D01*
X107200000Y7100000D02*
X107200000Y-7100000D01*
X107200000Y-7100000D02*
X121400000Y-7100000D01*
X121400000Y7100000D02*
X107200000Y7100000D01*
X121400000Y-7100000D02*
X121400000Y7100000D01*
X183400000Y7100000D02*
X183400000Y-7100000D01*
X183400000Y-7100000D02*
X197600000Y-7100000D01*
X197600000Y7100000D02*
X183400000Y7100000D01*
X197600000Y-7100000D02*
X197600000Y7100000D01*
X250100000Y7100000D02*
X250100000Y-7100000D01*
X250100000Y-7100000D02*
X264300000Y-7100000D01*
X264300000Y7100000D02*
X250100000Y7100000D01*
X264300000Y-7100000D02*
X264300000Y7100000D01*
X231025000Y-11950000D02*
X231025000Y-26150000D01*
X231025000Y-26150000D02*
X245225000Y-26150000D01*
X245225000Y-11950000D02*
X231025000Y-11950000D01*
X245225000Y-26150000D02*
X245225000Y-11950000D01*
X97675000Y-11950000D02*
X97675000Y-26150000D01*
X97675000Y-26150000D02*
X111875000Y-26150000D01*
X111875000Y-11950000D02*
X97675000Y-11950000D01*
X111875000Y-26150000D02*
X111875000Y-11950000D01*
X257220000Y-21470000D02*
X257220000Y-35670000D01*
X257220000Y-35670000D02*
X271420000Y-35670000D01*
X271420000Y-21470000D02*
X257220000Y-21470000D01*
X271420000Y-35670000D02*
X271420000Y-21470000D01*
X121487500Y-31000000D02*
X121487500Y-45200000D01*
X121487500Y-45200000D02*
X135687500Y-45200000D01*
X135687500Y-31000000D02*
X121487500Y-31000000D01*
X135687500Y-45200000D02*
X135687500Y-31000000D01*
X159587500Y-31000000D02*
X159587500Y-45200000D01*
X159587500Y-45200000D02*
X173787500Y-45200000D01*
X173787500Y-31000000D02*
X159587500Y-31000000D01*
X173787500Y-45200000D02*
X173787500Y-31000000D01*
X-4718750Y-69100000D02*
X-4718750Y-83300000D01*
X-4718750Y-83300000D02*
X11881250Y-83300000D01*
X11881250Y-69100000D02*
X-4718750Y-69100000D01*
X11881250Y-83300000D02*
X11881250Y-69100000D01*
X140537500Y-31000000D02*
X140537500Y-45200000D01*
X140537500Y-45200000D02*
X154737500Y-45200000D01*
X154737500Y-31000000D02*
X140537500Y-31000000D01*
X154737500Y-45200000D02*
X154737500Y-31000000D01*
X21475000Y-11950000D02*
X21475000Y-26150000D01*
X21475000Y-26150000D02*
X35675000Y-26150000D01*
X35675000Y-11950000D02*
X21475000Y-11950000D01*
X35675000Y-26150000D02*
X35675000Y-11950000D01*
X221500000Y7100000D02*
X221500000Y-7100000D01*
X221500000Y-7100000D02*
X235700000Y-7100000D01*
X235700000Y7100000D02*
X221500000Y7100000D01*
X235700000Y-7100000D02*
X235700000Y7100000D01*
X16700000Y-50050000D02*
X16700000Y-64250000D01*
X16700000Y-64250000D02*
X30900000Y-64250000D01*
X30900000Y-50050000D02*
X16700000Y-50050000D01*
X30900000Y-64250000D02*
X30900000Y-50050000D01*
X73862500Y-50050000D02*
X73862500Y-64250000D01*
X73862500Y-64250000D02*
X88062500Y-64250000D01*
X88062500Y-50050000D02*
X73862500Y-50050000D01*
X88062500Y-64250000D02*
X88062500Y-50050000D01*
X178637500Y-31000000D02*
X178637500Y-45200000D01*
X178637500Y-45200000D02*
X192837500Y-45200000D01*
X192837500Y-31000000D02*
X178637500Y-31000000D01*
X192837500Y-45200000D02*
X192837500Y-31000000D01*
X185781250Y-69100000D02*
X185781250Y-83300000D01*
X185781250Y-83300000D02*
X199981250Y-83300000D01*
X199981250Y-69100000D02*
X185781250Y-69100000D01*
X199981250Y-83300000D02*
X199981250Y-69100000D01*
X42906250Y-69100000D02*
X42906250Y-83300000D01*
X42906250Y-83300000D02*
X59506250Y-83300000D01*
X59506250Y-69100000D02*
X42906250Y-69100000D01*
X59506250Y-83300000D02*
X59506250Y-69100000D01*
X114343750Y-69100000D02*
X114343750Y-83300000D01*
X114343750Y-83300000D02*
X128543750Y-83300000D01*
X128543750Y-69100000D02*
X114343750Y-69100000D01*
X128543750Y-83300000D02*
X128543750Y-69100000D01*
X135775000Y-11950000D02*
X135775000Y-26150000D01*
X135775000Y-26150000D02*
X149975000Y-26150000D01*
X149975000Y-11950000D02*
X135775000Y-11950000D01*
X149975000Y-26150000D02*
X149975000Y-11950000D01*
X64337500Y-31000000D02*
X64337500Y-45200000D01*
X64337500Y-45200000D02*
X78537500Y-45200000D01*
X78537500Y-31000000D02*
X64337500Y-31000000D01*
X78537500Y-45200000D02*
X78537500Y-31000000D01*
X242931250Y-50050000D02*
X242931250Y-64250000D01*
X242931250Y-64250000D02*
X257131250Y-64250000D01*
X257131250Y-50050000D02*
X242931250Y-50050000D01*
X257131250Y-64250000D02*
X257131250Y-50050000D01*
X154825000Y-11950000D02*
X154825000Y-26150000D01*
X154825000Y-26150000D02*
X169025000Y-26150000D01*
X169025000Y-11950000D02*
X154825000Y-11950000D01*
X169025000Y-26150000D02*
X169025000Y-11950000D01*
X111962500Y-50050000D02*
X111962500Y-64250000D01*
X111962500Y-64250000D02*
X126162500Y-64250000D01*
X126162500Y-50050000D02*
X111962500Y-50050000D01*
X126162500Y-64250000D02*
X126162500Y-50050000D01*
X102437500Y-31000000D02*
X102437500Y-45200000D01*
X102437500Y-45200000D02*
X116637500Y-45200000D01*
X116637500Y-31000000D02*
X102437500Y-31000000D01*
X116637500Y-45200000D02*
X116637500Y-31000000D01*
X54812500Y-50050000D02*
X54812500Y-64250000D01*
X54812500Y-64250000D02*
X69012500Y-64250000D01*
X69012500Y-50050000D02*
X54812500Y-50050000D01*
X69012500Y-64250000D02*
X69012500Y-50050000D01*
X202450000Y7100000D02*
X202450000Y-7100000D01*
X202450000Y-7100000D02*
X216650000Y-7100000D01*
X216650000Y7100000D02*
X202450000Y7100000D01*
X216650000Y-7100000D02*
X216650000Y7100000D01*
X207212500Y-50050000D02*
X207212500Y-64250000D01*
X207212500Y-64250000D02*
X221412500Y-64250000D01*
X221412500Y-50050000D02*
X207212500Y-50050000D01*
X221412500Y-64250000D02*
X221412500Y-50050000D01*
X169112500Y-50050000D02*
X169112500Y-64250000D01*
X169112500Y-64250000D02*
X183312500Y-64250000D01*
X183312500Y-50050000D02*
X169112500Y-50050000D01*
X183312500Y-64250000D02*
X183312500Y-50050000D01*
X259600000Y7100000D02*
X259600000Y-7100000D01*
X259600000Y-7100000D02*
X273800000Y-7100000D01*
X273800000Y7100000D02*
X259600000Y7100000D01*
X273800000Y-7100000D02*
X273800000Y7100000D01*
X69100000Y7100000D02*
X69100000Y-7100000D01*
X69100000Y-7100000D02*
X83300000Y-7100000D01*
X83300000Y7100000D02*
X69100000Y7100000D01*
X83300000Y-7100000D02*
X83300000Y7100000D01*
X59575000Y-11950000D02*
X59575000Y-26150000D01*
X59575000Y-26150000D02*
X73775000Y-26150000D01*
X73775000Y-11950000D02*
X59575000Y-11950000D01*
X73775000Y-26150000D02*
X73775000Y-11950000D01*
X254837500Y-11950000D02*
X254837500Y-26150000D01*
X254837500Y-26150000D02*
X269037500Y-26150000D01*
X269037500Y-11950000D02*
X254837500Y-11950000D01*
X269037500Y-26150000D02*
X269037500Y-11950000D01*
X45287500Y-31000000D02*
X45287500Y-45200000D01*
X45287500Y-45200000D02*
X59487500Y-45200000D01*
X59487500Y-31000000D02*
X45287500Y-31000000D01*
X59487500Y-45200000D02*
X59487500Y-31000000D01*
X233400000Y-50050000D02*
X233400000Y-64250000D01*
X233400000Y-64250000D02*
X247600000Y-64250000D01*
X247600000Y-50050000D02*
X233400000Y-50050000D01*
X247600000Y-64250000D02*
X247600000Y-50050000D01*
X4806250Y-50050000D02*
X4806250Y-64250000D01*
X4806250Y-64250000D02*
X19006250Y-64250000D01*
X19006250Y-50050000D02*
X4806250Y-50050000D01*
X19006250Y-64250000D02*
X19006250Y-50050000D01*
X188162500Y-50050000D02*
X188162500Y-64250000D01*
X188162500Y-64250000D02*
X202362500Y-64250000D01*
X202362500Y-50050000D02*
X188162500Y-50050000D01*
X202362500Y-64250000D02*
X202362500Y-50050000D01*
X131012500Y-50050000D02*
X131012500Y-64250000D01*
X131012500Y-64250000D02*
X145212500Y-64250000D01*
X145212500Y-50050000D02*
X131012500Y-50050000D01*
X145212500Y-64250000D02*
X145212500Y-50050000D01*
X50050000Y7100000D02*
X50050000Y-7100000D01*
X50050000Y-7100000D02*
X64250000Y-7100000D01*
X64250000Y7100000D02*
X50050000Y7100000D01*
X64250000Y-7100000D02*
X64250000Y7100000D01*
X216737500Y-31000000D02*
X216737500Y-45200000D01*
X216737500Y-45200000D02*
X230937500Y-45200000D01*
X230937500Y-31000000D02*
X216737500Y-31000000D01*
X230937500Y-45200000D02*
X230937500Y-31000000D01*
X-4715000Y-31000000D02*
X-4715000Y-45200000D01*
X-4715000Y-45200000D02*
X9485000Y-45200000D01*
X9485000Y-31000000D02*
X-4715000Y-31000000D01*
X9485000Y-45200000D02*
X9485000Y-31000000D01*
X83387500Y-31000000D02*
X83387500Y-45200000D01*
X83387500Y-45200000D02*
X97587500Y-45200000D01*
X97587500Y-31000000D02*
X83387500Y-31000000D01*
X97587500Y-45200000D02*
X97587500Y-31000000D01*
X35762500Y-50050000D02*
X35762500Y-64250000D01*
X35762500Y-64250000D02*
X49962500Y-64250000D01*
X49962500Y-50050000D02*
X35762500Y-50050000D01*
X49962500Y-64250000D02*
X49962500Y-50050000D01*
X-2337500Y-11950000D02*
X-2337500Y-26150000D01*
X-2337500Y-26150000D02*
X11862500Y-26150000D01*
X11862500Y-11950000D02*
X-2337500Y-11950000D01*
X11862500Y-26150000D02*
X11862500Y-11950000D01*
X19100000Y-69100000D02*
X19100000Y-83300000D01*
X19100000Y-83300000D02*
X35700000Y-83300000D01*
X35700000Y-69100000D02*
X19100000Y-69100000D01*
X35700000Y-83300000D02*
X35700000Y-69100000D01*
X43750Y-31000000D02*
X43750Y-45200000D01*
X43750Y-45200000D02*
X14243750Y-45200000D01*
X14243750Y-31000000D02*
X43750Y-31000000D01*
X14243750Y-45200000D02*
X14243750Y-31000000D01*
X40525000Y-11950000D02*
X40525000Y-26150000D01*
X40525000Y-26150000D02*
X54725000Y-26150000D01*
X54725000Y-11950000D02*
X40525000Y-11950000D01*
X54725000Y-26150000D02*
X54725000Y-11950000D01*
X78625000Y-11950000D02*
X78625000Y-26150000D01*
X78625000Y-26150000D02*
X92825000Y-26150000D01*
X92825000Y-11950000D02*
X78625000Y-11950000D01*
X92825000Y-26150000D02*
X92825000Y-11950000D01*
X126250000Y-69101270D02*
X126250000Y-83301270D01*
X126250000Y-83301270D02*
X140450000Y-83301270D01*
X140450000Y-69101270D02*
X126250000Y-69101270D01*
X140450000Y-83301270D02*
X140450000Y-69101270D01*
%LPC*%
D12*
X118745000Y-19050000D03*
D13*
X123825000Y-19050000D03*
D12*
X128905000Y-19050000D03*
D14*
X120015000Y-16510000D03*
X126365000Y-13970000D03*
D12*
X175895000Y-19050000D03*
D13*
X180975000Y-19050000D03*
D12*
X186055000Y-19050000D03*
D14*
X177165000Y-16510000D03*
X183515000Y-13970000D03*
D12*
X176530000Y0D03*
D13*
X171450000Y0D03*
D12*
X166370000Y0D03*
D14*
X175260000Y-2540000D03*
X168910000Y-5080000D03*
D12*
X209213750Y-76200000D03*
X211613750Y-76200000D03*
X219373750Y-76200000D03*
X221773750Y-76200000D03*
D15*
X211683750Y-73660000D03*
D14*
X212883750Y-73660000D03*
D15*
X218033750Y-71120000D03*
D14*
X219233750Y-71120000D03*
D12*
X100330000Y0D03*
D13*
X95250000Y0D03*
D12*
X90170000Y0D03*
D14*
X99060000Y-2540000D03*
X92710000Y-5080000D03*
D12*
X233026250Y-76200000D03*
X235426250Y-76200000D03*
X243186250Y-76200000D03*
X245586250Y-76200000D03*
D15*
X235496250Y-73660000D03*
D14*
X236696250Y-73660000D03*
D15*
X241846250Y-71120000D03*
D14*
X243046250Y-71120000D03*
D12*
X252730000Y0D03*
D13*
X247650000Y0D03*
D12*
X242570000Y0D03*
D14*
X251460000Y-2540000D03*
X245110000Y-5080000D03*
D12*
X43180000Y0D03*
D13*
X38100000Y0D03*
D12*
X33020000Y0D03*
D14*
X41910000Y-2540000D03*
X35560000Y-5080000D03*
D12*
X24130000Y0D03*
D13*
X19050000Y0D03*
D12*
X13970000Y0D03*
D14*
X22860000Y-2540000D03*
X16510000Y-5080000D03*
D12*
X261620000Y-57150000D03*
D13*
X266700000Y-57150000D03*
D12*
X271780000Y-57150000D03*
D14*
X262890000Y-54610000D03*
X269240000Y-52070000D03*
D12*
X213995000Y-19050000D03*
D13*
X219075000Y-19050000D03*
D12*
X224155000Y-19050000D03*
D14*
X215265000Y-16510000D03*
X221615000Y-13970000D03*
D12*
X199707500Y-38100000D03*
D13*
X204787500Y-38100000D03*
D12*
X209867500Y-38100000D03*
D14*
X200977500Y-35560000D03*
X207327500Y-33020000D03*
D12*
X138430000Y0D03*
D13*
X133350000Y0D03*
D12*
X128270000Y0D03*
D14*
X137160000Y-2540000D03*
X130810000Y-5080000D03*
D12*
X157480000Y0D03*
D13*
X152400000Y0D03*
D12*
X147320000Y0D03*
D14*
X156210000Y-2540000D03*
X149860000Y-5080000D03*
D12*
X256838750Y-76200000D03*
X259238750Y-76200000D03*
X266998750Y-76200000D03*
X269398750Y-76200000D03*
D15*
X259308750Y-73660000D03*
D14*
X260508750Y-73660000D03*
D15*
X265658750Y-71120000D03*
D14*
X266858750Y-71120000D03*
D16*
X242855750Y-31115000D03*
D17*
X242855750Y-46325000D03*
D16*
X266731750Y-31115000D03*
D17*
X266731750Y-46325000D03*
D12*
X28257500Y-38100000D03*
D13*
X33337500Y-38100000D03*
D12*
X38417500Y-38100000D03*
D14*
X29527500Y-35560000D03*
X35877500Y-33020000D03*
D12*
X237820000Y-38100000D03*
D13*
X242900000Y-38100000D03*
D12*
X247980000Y-38100000D03*
D14*
X239090000Y-35560000D03*
X245440000Y-33020000D03*
D12*
X5080000Y0D03*
D13*
X0Y0D03*
D12*
X-5080000Y0D03*
D14*
X3810000Y-2540000D03*
X-2540000Y-5080000D03*
D12*
X-2700000Y-57150000D03*
D13*
X2380000Y-57150000D03*
D12*
X7460000Y-57150000D03*
D14*
X-1430000Y-54610000D03*
X4920000Y-52070000D03*
D12*
X194945000Y-19050000D03*
D13*
X200025000Y-19050000D03*
D12*
X205105000Y-19050000D03*
D14*
X196215000Y-16510000D03*
X202565000Y-13970000D03*
D12*
X249713750Y-38100000D03*
D13*
X254793750Y-38100000D03*
D12*
X259873750Y-38100000D03*
D14*
X250983750Y-35560000D03*
X257333750Y-33020000D03*
D12*
X152082500Y-57150000D03*
D13*
X157162500Y-57150000D03*
D12*
X162242500Y-57150000D03*
D14*
X153352500Y-54610000D03*
X159702500Y-52070000D03*
D12*
X94932500Y-57150000D03*
D13*
X100012500Y-57150000D03*
D12*
X105092500Y-57150000D03*
D14*
X96202500Y-54610000D03*
X102552500Y-52070000D03*
D12*
X119380000Y0D03*
D13*
X114300000Y0D03*
D12*
X109220000Y0D03*
D14*
X118110000Y-2540000D03*
X111760000Y-5080000D03*
D12*
X195580000Y0D03*
D13*
X190500000Y0D03*
D12*
X185420000Y0D03*
D14*
X194310000Y-2540000D03*
X187960000Y-5080000D03*
D16*
X171443750Y-83185000D03*
D17*
X171443750Y-67975000D03*
D16*
X71443750Y-83185000D03*
D17*
X71443750Y-67975000D03*
D12*
X262280000Y0D03*
D13*
X257200000Y0D03*
D12*
X252120000Y0D03*
D14*
X261010000Y-2540000D03*
X254660000Y-5080000D03*
D12*
X233045000Y-19050000D03*
D13*
X238125000Y-19050000D03*
D12*
X243205000Y-19050000D03*
D14*
X234315000Y-16510000D03*
X240665000Y-13970000D03*
D12*
X99695000Y-19050000D03*
D13*
X104775000Y-19050000D03*
D12*
X109855000Y-19050000D03*
D14*
X100965000Y-16510000D03*
X107315000Y-13970000D03*
D16*
X-31750Y-50165000D03*
D17*
X-31750Y-65375000D03*
D16*
X23844250Y-50165000D03*
D17*
X23844250Y-65375000D03*
D12*
X264320000Y-23490000D03*
D13*
X264320000Y-28570000D03*
D12*
X264320000Y-33650000D03*
D14*
X266860000Y-24760000D03*
X269400000Y-31110000D03*
D12*
X123507500Y-38100000D03*
D13*
X128587500Y-38100000D03*
D12*
X133667500Y-38100000D03*
D14*
X124777500Y-35560000D03*
X131127500Y-33020000D03*
D12*
X161607500Y-38100000D03*
D13*
X166687500Y-38100000D03*
D12*
X171767500Y-38100000D03*
D14*
X162877500Y-35560000D03*
X169227500Y-33020000D03*
D12*
X-2698750Y-76200000D03*
X-298750Y-76200000D03*
X7461250Y-76200000D03*
X9861250Y-76200000D03*
D15*
X-228750Y-73660000D03*
D14*
X971250Y-73660000D03*
D15*
X6121250Y-71120000D03*
D14*
X7321250Y-71120000D03*
D16*
X257335000Y-40508000D03*
D17*
X272545000Y-40508000D03*
D16*
X257335000Y-16632000D03*
D17*
X272545000Y-16632000D03*
D12*
X142557500Y-38100000D03*
D13*
X147637500Y-38100000D03*
D12*
X152717500Y-38100000D03*
D14*
X143827500Y-35560000D03*
X150177500Y-33020000D03*
D12*
X23495000Y-19050000D03*
D13*
X28575000Y-19050000D03*
D12*
X33655000Y-19050000D03*
D14*
X24765000Y-16510000D03*
X31115000Y-13970000D03*
D12*
X233680000Y0D03*
D13*
X228600000Y0D03*
D12*
X223520000Y0D03*
D14*
X232410000Y-2540000D03*
X226060000Y-5080000D03*
D12*
X18720000Y-57150000D03*
D13*
X23800000Y-57150000D03*
D12*
X28880000Y-57150000D03*
D14*
X19990000Y-54610000D03*
X26340000Y-52070000D03*
D12*
X75882500Y-57150000D03*
D13*
X80962500Y-57150000D03*
D12*
X86042500Y-57150000D03*
D14*
X77152500Y-54610000D03*
X83502500Y-52070000D03*
D12*
X180657500Y-38100000D03*
D13*
X185737500Y-38100000D03*
D12*
X190817500Y-38100000D03*
D14*
X181927500Y-35560000D03*
X188277500Y-33020000D03*
D16*
X190500000Y-83186270D03*
D17*
X190500000Y-67976270D03*
D16*
X76200000Y-83186270D03*
D17*
X76200000Y-67976270D03*
D12*
X187801250Y-76200000D03*
D13*
X192881250Y-76200000D03*
D12*
X197961250Y-76200000D03*
D14*
X189071250Y-73660000D03*
X195421250Y-71120000D03*
D16*
X238093250Y-50160050D03*
D17*
X238093250Y-65370050D03*
D16*
X261969250Y-50160050D03*
D17*
X261969250Y-65370050D03*
D12*
X44926250Y-76200000D03*
X47326250Y-76200000D03*
X55086250Y-76200000D03*
X57486250Y-76200000D03*
D15*
X47396250Y-73660000D03*
D14*
X48596250Y-73660000D03*
D15*
X53746250Y-71120000D03*
D14*
X54946250Y-71120000D03*
D12*
X116363750Y-76200000D03*
D13*
X121443750Y-76200000D03*
D12*
X126523750Y-76200000D03*
D14*
X117633750Y-73660000D03*
X123983750Y-71120000D03*
D12*
X137795000Y-19050000D03*
D13*
X142875000Y-19050000D03*
D12*
X147955000Y-19050000D03*
D14*
X139065000Y-16510000D03*
X145415000Y-13970000D03*
D12*
X66357500Y-38100000D03*
D13*
X71437500Y-38100000D03*
D12*
X76517500Y-38100000D03*
D14*
X67627500Y-35560000D03*
X73977500Y-33020000D03*
D12*
X244951250Y-57150000D03*
D13*
X250031250Y-57150000D03*
D12*
X255111250Y-57150000D03*
D14*
X246221250Y-54610000D03*
X252571250Y-52070000D03*
D12*
X156845000Y-19050000D03*
D13*
X161925000Y-19050000D03*
D12*
X167005000Y-19050000D03*
D14*
X158115000Y-16510000D03*
X164465000Y-13970000D03*
D12*
X113982500Y-57150000D03*
D13*
X119062500Y-57150000D03*
D12*
X124142500Y-57150000D03*
D14*
X115252500Y-54610000D03*
X121602500Y-52070000D03*
D12*
X104457500Y-38100000D03*
D13*
X109537500Y-38100000D03*
D12*
X114617500Y-38100000D03*
D14*
X105727500Y-35560000D03*
X112077500Y-33020000D03*
D12*
X56832500Y-57150000D03*
D13*
X61912500Y-57150000D03*
D12*
X66992500Y-57150000D03*
D14*
X58102500Y-54610000D03*
X64452500Y-52070000D03*
D12*
X214630000Y0D03*
D13*
X209550000Y0D03*
D12*
X204470000Y0D03*
D14*
X213360000Y-2540000D03*
X207010000Y-5080000D03*
D12*
X209232500Y-57150000D03*
D13*
X214312500Y-57150000D03*
D12*
X219392500Y-57150000D03*
D14*
X210502500Y-54610000D03*
X216852500Y-52070000D03*
D12*
X171132500Y-57150000D03*
D13*
X176212500Y-57150000D03*
D12*
X181292500Y-57150000D03*
D14*
X172402500Y-54610000D03*
X178752500Y-52070000D03*
D12*
X271780000Y0D03*
D13*
X266700000Y0D03*
D12*
X261620000Y0D03*
D14*
X270510000Y-2540000D03*
X264160000Y-5080000D03*
D12*
X81280000Y0D03*
D13*
X76200000Y0D03*
D12*
X71120000Y0D03*
D14*
X80010000Y-2540000D03*
X73660000Y-5080000D03*
D12*
X61595000Y-19050000D03*
D13*
X66675000Y-19050000D03*
D12*
X71755000Y-19050000D03*
D14*
X62865000Y-16510000D03*
X69215000Y-13970000D03*
D12*
X267017500Y-19050000D03*
D13*
X261937500Y-19050000D03*
D12*
X256857500Y-19050000D03*
D14*
X265747500Y-21590000D03*
X259397500Y-24130000D03*
D12*
X47307500Y-38100000D03*
D13*
X52387500Y-38100000D03*
D12*
X57467500Y-38100000D03*
D14*
X48577500Y-35560000D03*
X54927500Y-33020000D03*
D12*
X235420000Y-57150000D03*
D13*
X240500000Y-57150000D03*
D12*
X245580000Y-57150000D03*
D14*
X236690000Y-54610000D03*
X243040000Y-52070000D03*
D12*
X6826250Y-57150000D03*
D13*
X11906250Y-57150000D03*
D12*
X16986250Y-57150000D03*
D14*
X8096250Y-54610000D03*
X14446250Y-52070000D03*
D16*
X245262000Y6985000D03*
D17*
X245262000Y-8225000D03*
D16*
X269138000Y6985000D03*
D17*
X269138000Y-8225000D03*
D12*
X190182500Y-57150000D03*
D13*
X195262500Y-57150000D03*
D12*
X200342500Y-57150000D03*
D14*
X191452500Y-54610000D03*
X197802500Y-52070000D03*
D12*
X133032500Y-57150000D03*
D13*
X138112500Y-57150000D03*
D12*
X143192500Y-57150000D03*
D14*
X134302500Y-54610000D03*
X140652500Y-52070000D03*
D12*
X62230000Y0D03*
D13*
X57150000Y0D03*
D12*
X52070000Y0D03*
D14*
X60960000Y-2540000D03*
X54610000Y-5080000D03*
D12*
X218757500Y-38100000D03*
D13*
X223837500Y-38100000D03*
D12*
X228917500Y-38100000D03*
D14*
X220027500Y-35560000D03*
X226377500Y-33020000D03*
D12*
X-2695000Y-38100000D03*
D13*
X2385000Y-38100000D03*
D12*
X7465000Y-38100000D03*
D14*
X-1425000Y-35560000D03*
X4925000Y-33020000D03*
D12*
X85407500Y-38100000D03*
D13*
X90487500Y-38100000D03*
D12*
X95567500Y-38100000D03*
D14*
X86677500Y-35560000D03*
X93027500Y-33020000D03*
D12*
X37782500Y-57150000D03*
D13*
X42862500Y-57150000D03*
D12*
X47942500Y-57150000D03*
D14*
X39052500Y-54610000D03*
X45402500Y-52070000D03*
D12*
X-317500Y-19050000D03*
D13*
X4762500Y-19050000D03*
D12*
X9842500Y-19050000D03*
D14*
X952500Y-16510000D03*
X7302500Y-13970000D03*
D12*
X21120000Y-76200000D03*
X23520000Y-76200000D03*
X31280000Y-76200000D03*
X33680000Y-76200000D03*
D15*
X23590000Y-73660000D03*
D14*
X24790000Y-73660000D03*
D15*
X29940000Y-71120000D03*
D14*
X31140000Y-71120000D03*
D12*
X2063750Y-38100000D03*
D13*
X7143750Y-38100000D03*
D12*
X12223750Y-38100000D03*
D14*
X3333750Y-35560000D03*
X9683750Y-33020000D03*
D12*
X42545000Y-19050000D03*
D13*
X47625000Y-19050000D03*
D12*
X52705000Y-19050000D03*
D14*
X43815000Y-16510000D03*
X50165000Y-13970000D03*
D12*
X80645000Y-19050000D03*
D13*
X85725000Y-19050000D03*
D12*
X90805000Y-19050000D03*
D14*
X81915000Y-16510000D03*
X88265000Y-13970000D03*
D12*
X128270000Y-76201270D03*
D13*
X133350000Y-76201270D03*
D12*
X138430000Y-76201270D03*
D14*
X129540000Y-73661270D03*
X135890000Y-71121270D03*
D18*
X181350000Y-76000000D03*
D19*
X274500000Y-47100000D03*
D20*
X24200000Y-31000000D03*
D21*
X24200000Y-33540000D03*
X24200000Y-36079999D03*
X24200000Y-38620000D03*
D22*
X16050000Y-18700000D03*
D18*
X250900000Y-18700000D03*
D19*
X-6900000Y-47300000D03*
D23*
X130460000Y3900000D03*
X136240000Y3900000D03*
D24*
X129030000Y7600000D03*
D25*
X129030000Y3400000D03*
D24*
X137670000Y7600000D03*
D25*
X137670000Y3400000D03*
D26*
X119050000Y-37800000D03*
D23*
X6160000Y3700000D03*
X11940000Y3700000D03*
D24*
X4730000Y7400000D03*
D25*
X4730000Y3200000D03*
D24*
X13370000Y7400000D03*
D25*
X13370000Y3200000D03*
%LPD*%
M02*
