%TF.GenerationSoftware,KiCad,Pcbnew,8.0.4*%
%TF.CreationDate,2024-08-26T20:04:37+02:00*%
%TF.ProjectId,keyboard,6b657962-6f61-4726-942e-6b696361645f,rev?*%
%TF.SameCoordinates,Original*%
%TF.FileFunction,Drillmap*%
%TF.FilePolarity,Positive*%
%FSLAX45Y45*%
G04 Gerber Fmt 4.5, Leading zero omitted, Abs format (unit mm)*
G04 Created by KiCad (PCBNEW 8.0.4) date 2024-08-26 20:04:37*
%MOMM*%
%LPD*%
G01*
G04 APERTURE LIST*
%ADD10C,0.200000*%
%ADD11C,0.100000*%
%ADD12C,0.175000*%
%ADD13C,0.304800*%
%ADD14C,0.398780*%
%ADD15C,0.400000*%
G04 APERTURE END LIST*
D10*
X394307Y819354D02*
G75*
G02*
X-164307Y819354I-279307J145646D01*
G01*
X22104443Y-8439355D02*
G75*
G02*
X21971440Y-8520000I-133003J69355D01*
G01*
X17395693Y-8439354D02*
G75*
G02*
X17262690Y-8519999I-133003J69354D01*
G01*
X23400189Y900000D02*
G75*
G02*
X23533196Y819357I11J-149990D01*
G01*
X27345000Y900000D02*
X26767313Y899978D01*
X17262690Y-8520000D02*
X9407311Y-8520000D01*
X-900000Y675000D02*
X-900000Y-8295000D01*
X27345000Y900000D02*
G75*
G02*
X27570000Y675000I0J-225000D01*
G01*
X-97311Y-8520000D02*
X-675000Y-8520000D01*
X3136807Y819355D02*
G75*
G02*
X2578193Y819355I-279307J145645D01*
G01*
X35693Y-8439354D02*
G75*
G02*
X594307Y-8439355I279307J-145646D01*
G01*
X25942692Y899978D02*
X24224811Y900000D01*
X21971440Y-8520000D02*
X18087311Y-8520000D01*
X8582689Y-8520000D02*
X4698561Y-8520000D01*
X24091807Y819355D02*
G75*
G02*
X23533193Y819355I-279307J145645D01*
G01*
X23400189Y900000D02*
X18087311Y899999D01*
X8715693Y-8439354D02*
G75*
G02*
X9274307Y-8439354I279307J-145646D01*
G01*
X4006943Y-8439355D02*
G75*
G02*
X3873939Y-8520000I-133003J69355D01*
G01*
X8582689Y900000D02*
X3269811Y900000D01*
X25942689Y-8520000D02*
X22796061Y-8520000D01*
X17395693Y-8439354D02*
G75*
G02*
X17954307Y-8439355I279307J-145646D01*
G01*
X8715693Y-8439354D02*
G75*
G02*
X8582689Y-8519999I-133003J69354D01*
G01*
X9407311Y-8520000D02*
G75*
G02*
X9274310Y-8439353I10J150010D01*
G01*
X11493939Y900000D02*
G75*
G02*
X11626948Y819358I1J-150010D01*
G01*
X-675000Y-8520000D02*
G75*
G02*
X-900000Y-8295000I0J225000D01*
G01*
X26075693Y-8439354D02*
G75*
G02*
X25942689Y-8519999I-133003J69354D01*
G01*
X727311Y-8520000D02*
G75*
G02*
X594307Y-8439355I4J150008D01*
G01*
X2445189Y900000D02*
X527311Y900000D01*
X3136807Y819355D02*
G75*
G02*
X3269811Y899999I133003J-69355D01*
G01*
X9274307Y819354D02*
G75*
G02*
X8715693Y819354I-279307J145646D01*
G01*
X25942692Y899978D02*
G75*
G02*
X26075694Y819332I18J-149968D01*
G01*
X24091807Y819355D02*
G75*
G02*
X24224811Y899999I133003J-69355D01*
G01*
X26075693Y-8439354D02*
G75*
G02*
X26634307Y-8439355I279307J-145646D01*
G01*
X2445189Y900000D02*
G75*
G02*
X2578198Y819358I1J-150010D01*
G01*
X4006943Y-8439355D02*
G75*
G02*
X4565557Y-8439355I279307J-145645D01*
G01*
X4698561Y-8520000D02*
G75*
G02*
X4565557Y-8439355I-1J150000D01*
G01*
X11493939Y900000D02*
X9407311Y900000D01*
X18087311Y-8520000D02*
G75*
G02*
X17954302Y-8439357I-1J150010D01*
G01*
X12185557Y819355D02*
G75*
G02*
X12318561Y899999I133003J-69355D01*
G01*
X26767311Y-8520000D02*
G75*
G02*
X26634304Y-8439356I-11J149990D01*
G01*
X9274307Y819354D02*
G75*
G02*
X9407311Y899999I133003J-69354D01*
G01*
X394307Y819354D02*
G75*
G02*
X527311Y899999I133003J-69354D01*
G01*
X17262689Y899999D02*
X12318561Y900000D01*
X35693Y-8439354D02*
G75*
G02*
X-97311Y-8520000I-133004J69355D01*
G01*
X17954307Y819354D02*
G75*
G02*
X18087311Y899999I133003J-69354D01*
G01*
X-900000Y675000D02*
G75*
G02*
X-675000Y900000I225000J0D01*
G01*
X-297311Y900000D02*
X-675000Y900000D01*
X27570000Y-8295000D02*
X27570000Y675000D01*
X17262689Y899999D02*
G75*
G02*
X17395698Y819357I1J-150010D01*
G01*
X22796061Y-8520000D02*
G75*
G02*
X22663057Y-8439355I-1J150000D01*
G01*
X27345000Y-8520000D02*
X26767311Y-8520000D01*
X26634310Y819333D02*
G75*
G02*
X26075691Y819331I-279310J145647D01*
G01*
X-297311Y900000D02*
G75*
G02*
X-164307Y819354I-4J-150008D01*
G01*
X27570000Y-8295000D02*
G75*
G02*
X27345000Y-8520000I-225000J0D01*
G01*
X3873939Y-8520000D02*
X727311Y-8520000D01*
X12185557Y819355D02*
G75*
G02*
X11626943Y819355I-279307J145645D01*
G01*
X26634310Y819333D02*
G75*
G02*
X26767313Y899976I133000J-69353D01*
G01*
X8582689Y900000D02*
G75*
G02*
X8715690Y819353I-9J-150010D01*
G01*
X22104443Y-8439355D02*
G75*
G02*
X22663057Y-8439355I279307J-145645D01*
G01*
X17954307Y819354D02*
G75*
G02*
X17395693Y819354I-279307J145646D01*
G01*
D11*
X583500Y402500D02*
X648500Y337500D01*
X648500Y402500D02*
X583500Y337500D01*
X1161500Y402500D02*
X1226500Y337500D01*
X1226500Y402500D02*
X1161500Y337500D01*
X13013500Y422500D02*
X13078500Y357500D01*
X13078500Y422500D02*
X13013500Y357500D01*
X13591500Y422500D02*
X13656500Y357500D01*
X13656500Y422500D02*
X13591500Y357500D01*
D12*
X-420500Y0D02*
G75*
G02*
X-595500Y0I-87500J0D01*
G01*
X-595500Y0D02*
G75*
G02*
X-420500Y0I87500J0D01*
G01*
X-182500Y-5715000D02*
G75*
G02*
X-357500Y-5715000I-87500J0D01*
G01*
X-357500Y-5715000D02*
G75*
G02*
X-182500Y-5715000I87500J0D01*
G01*
X-182375Y-7620000D02*
G75*
G02*
X-357375Y-7620000I-87500J0D01*
G01*
X-357375Y-7620000D02*
G75*
G02*
X-182375Y-7620000I87500J0D01*
G01*
X-182000Y-3810000D02*
G75*
G02*
X-357000Y-3810000I-87500J0D01*
G01*
X-357000Y-3810000D02*
G75*
G02*
X-182000Y-3810000I87500J0D01*
G01*
X55750Y-1905000D02*
G75*
G02*
X-119250Y-1905000I-87500J0D01*
G01*
X-119250Y-1905000D02*
G75*
G02*
X55750Y-1905000I87500J0D01*
G01*
X57625Y-7620000D02*
G75*
G02*
X-117375Y-7620000I-87500J0D01*
G01*
X-117375Y-7620000D02*
G75*
G02*
X57625Y-7620000I87500J0D01*
G01*
X293875Y-3810000D02*
G75*
G02*
X118875Y-3810000I-87500J0D01*
G01*
X118875Y-3810000D02*
G75*
G02*
X293875Y-3810000I87500J0D01*
G01*
X595500Y0D02*
G75*
G02*
X420500Y0I-87500J0D01*
G01*
X420500Y0D02*
G75*
G02*
X595500Y0I87500J0D01*
G01*
X770125Y-5715000D02*
G75*
G02*
X595125Y-5715000I-87500J0D01*
G01*
X595125Y-5715000D02*
G75*
G02*
X770125Y-5715000I87500J0D01*
G01*
X833500Y-5715000D02*
G75*
G02*
X658500Y-5715000I-87500J0D01*
G01*
X658500Y-5715000D02*
G75*
G02*
X833500Y-5715000I87500J0D01*
G01*
X833625Y-7620000D02*
G75*
G02*
X658625Y-7620000I-87500J0D01*
G01*
X658625Y-7620000D02*
G75*
G02*
X833625Y-7620000I87500J0D01*
G01*
X834000Y-3810000D02*
G75*
G02*
X659000Y-3810000I-87500J0D01*
G01*
X659000Y-3810000D02*
G75*
G02*
X834000Y-3810000I87500J0D01*
G01*
X1071750Y-1905000D02*
G75*
G02*
X896750Y-1905000I-87500J0D01*
G01*
X896750Y-1905000D02*
G75*
G02*
X1071750Y-1905000I87500J0D01*
G01*
X1073625Y-7620000D02*
G75*
G02*
X898625Y-7620000I-87500J0D01*
G01*
X898625Y-7620000D02*
G75*
G02*
X1073625Y-7620000I87500J0D01*
G01*
X1309875Y-3810000D02*
G75*
G02*
X1134875Y-3810000I-87500J0D01*
G01*
X1134875Y-3810000D02*
G75*
G02*
X1309875Y-3810000I87500J0D01*
G01*
X1484500Y0D02*
G75*
G02*
X1309500Y0I-87500J0D01*
G01*
X1309500Y0D02*
G75*
G02*
X1484500Y0I87500J0D01*
G01*
X1786125Y-5715000D02*
G75*
G02*
X1611125Y-5715000I-87500J0D01*
G01*
X1611125Y-5715000D02*
G75*
G02*
X1786125Y-5715000I87500J0D01*
G01*
X1959500Y-5715000D02*
G75*
G02*
X1784500Y-5715000I-87500J0D01*
G01*
X1784500Y-5715000D02*
G75*
G02*
X1959500Y-5715000I87500J0D01*
G01*
X2199500Y-7620000D02*
G75*
G02*
X2024500Y-7620000I-87500J0D01*
G01*
X2024500Y-7620000D02*
G75*
G02*
X2199500Y-7620000I87500J0D01*
G01*
X2437000Y-1905000D02*
G75*
G02*
X2262000Y-1905000I-87500J0D01*
G01*
X2262000Y-1905000D02*
G75*
G02*
X2437000Y-1905000I87500J0D01*
G01*
X2439500Y-7620000D02*
G75*
G02*
X2264500Y-7620000I-87500J0D01*
G01*
X2264500Y-7620000D02*
G75*
G02*
X2439500Y-7620000I87500J0D01*
G01*
X2500500Y0D02*
G75*
G02*
X2325500Y0I-87500J0D01*
G01*
X2325500Y0D02*
G75*
G02*
X2500500Y0I87500J0D01*
G01*
X2913250Y-3810000D02*
G75*
G02*
X2738250Y-3810000I-87500J0D01*
G01*
X2738250Y-3810000D02*
G75*
G02*
X2913250Y-3810000I87500J0D01*
G01*
X2975500Y-5715000D02*
G75*
G02*
X2800500Y-5715000I-87500J0D01*
G01*
X2800500Y-5715000D02*
G75*
G02*
X2975500Y-5715000I87500J0D01*
G01*
X3215500Y-7620000D02*
G75*
G02*
X3040500Y-7620000I-87500J0D01*
G01*
X3040500Y-7620000D02*
G75*
G02*
X3215500Y-7620000I87500J0D01*
G01*
X3389500Y0D02*
G75*
G02*
X3214500Y0I-87500J0D01*
G01*
X3214500Y0D02*
G75*
G02*
X3389500Y0I87500J0D01*
G01*
X3453000Y-1905000D02*
G75*
G02*
X3278000Y-1905000I-87500J0D01*
G01*
X3278000Y-1905000D02*
G75*
G02*
X3453000Y-1905000I87500J0D01*
G01*
X3455500Y-7620000D02*
G75*
G02*
X3280500Y-7620000I-87500J0D01*
G01*
X3280500Y-7620000D02*
G75*
G02*
X3455500Y-7620000I87500J0D01*
G01*
X3865750Y-5715000D02*
G75*
G02*
X3690750Y-5715000I-87500J0D01*
G01*
X3690750Y-5715000D02*
G75*
G02*
X3865750Y-5715000I87500J0D01*
G01*
X3929250Y-3810000D02*
G75*
G02*
X3754250Y-3810000I-87500J0D01*
G01*
X3754250Y-3810000D02*
G75*
G02*
X3929250Y-3810000I87500J0D01*
G01*
X4342000Y-1905000D02*
G75*
G02*
X4167000Y-1905000I-87500J0D01*
G01*
X4167000Y-1905000D02*
G75*
G02*
X4342000Y-1905000I87500J0D01*
G01*
X4405500Y0D02*
G75*
G02*
X4230500Y0I-87500J0D01*
G01*
X4230500Y0D02*
G75*
G02*
X4405500Y0I87500J0D01*
G01*
X4580125Y-7620000D02*
G75*
G02*
X4405125Y-7620000I-87500J0D01*
G01*
X4405125Y-7620000D02*
G75*
G02*
X4580125Y-7620000I87500J0D01*
G01*
X4818250Y-3810000D02*
G75*
G02*
X4643250Y-3810000I-87500J0D01*
G01*
X4643250Y-3810000D02*
G75*
G02*
X4818250Y-3810000I87500J0D01*
G01*
X4820125Y-7620000D02*
G75*
G02*
X4645125Y-7620000I-87500J0D01*
G01*
X4645125Y-7620000D02*
G75*
G02*
X4820125Y-7620000I87500J0D01*
G01*
X4881750Y-5715000D02*
G75*
G02*
X4706750Y-5715000I-87500J0D01*
G01*
X4706750Y-5715000D02*
G75*
G02*
X4881750Y-5715000I87500J0D01*
G01*
X5294500Y0D02*
G75*
G02*
X5119500Y0I-87500J0D01*
G01*
X5119500Y0D02*
G75*
G02*
X5294500Y0I87500J0D01*
G01*
X5358000Y-1905000D02*
G75*
G02*
X5183000Y-1905000I-87500J0D01*
G01*
X5183000Y-1905000D02*
G75*
G02*
X5358000Y-1905000I87500J0D01*
G01*
X5596125Y-7620000D02*
G75*
G02*
X5421125Y-7620000I-87500J0D01*
G01*
X5421125Y-7620000D02*
G75*
G02*
X5596125Y-7620000I87500J0D01*
G01*
X5770750Y-5715000D02*
G75*
G02*
X5595750Y-5715000I-87500J0D01*
G01*
X5595750Y-5715000D02*
G75*
G02*
X5770750Y-5715000I87500J0D01*
G01*
X5834250Y-3810000D02*
G75*
G02*
X5659250Y-3810000I-87500J0D01*
G01*
X5659250Y-3810000D02*
G75*
G02*
X5834250Y-3810000I87500J0D01*
G01*
X5836125Y-7620000D02*
G75*
G02*
X5661125Y-7620000I-87500J0D01*
G01*
X5661125Y-7620000D02*
G75*
G02*
X5836125Y-7620000I87500J0D01*
G01*
X6247000Y-1905000D02*
G75*
G02*
X6072000Y-1905000I-87500J0D01*
G01*
X6072000Y-1905000D02*
G75*
G02*
X6247000Y-1905000I87500J0D01*
G01*
X6310500Y0D02*
G75*
G02*
X6135500Y0I-87500J0D01*
G01*
X6135500Y0D02*
G75*
G02*
X6310500Y0I87500J0D01*
G01*
X6723250Y-3810000D02*
G75*
G02*
X6548250Y-3810000I-87500J0D01*
G01*
X6548250Y-3810000D02*
G75*
G02*
X6723250Y-3810000I87500J0D01*
G01*
X6786750Y-5715000D02*
G75*
G02*
X6611750Y-5715000I-87500J0D01*
G01*
X6611750Y-5715000D02*
G75*
G02*
X6786750Y-5715000I87500J0D01*
G01*
X7199500Y0D02*
G75*
G02*
X7024500Y0I-87500J0D01*
G01*
X7024500Y0D02*
G75*
G02*
X7199500Y0I87500J0D01*
G01*
X7263000Y-1905000D02*
G75*
G02*
X7088000Y-1905000I-87500J0D01*
G01*
X7088000Y-1905000D02*
G75*
G02*
X7263000Y-1905000I87500J0D01*
G01*
X7675750Y-5715000D02*
G75*
G02*
X7500750Y-5715000I-87500J0D01*
G01*
X7500750Y-5715000D02*
G75*
G02*
X7675750Y-5715000I87500J0D01*
G01*
X7739250Y-3810000D02*
G75*
G02*
X7564250Y-3810000I-87500J0D01*
G01*
X7564250Y-3810000D02*
G75*
G02*
X7739250Y-3810000I87500J0D01*
G01*
X8152000Y-1905000D02*
G75*
G02*
X7977000Y-1905000I-87500J0D01*
G01*
X7977000Y-1905000D02*
G75*
G02*
X8152000Y-1905000I87500J0D01*
G01*
X8215500Y0D02*
G75*
G02*
X8040500Y0I-87500J0D01*
G01*
X8040500Y0D02*
G75*
G02*
X8215500Y0I87500J0D01*
G01*
X8628250Y-3810000D02*
G75*
G02*
X8453250Y-3810000I-87500J0D01*
G01*
X8453250Y-3810000D02*
G75*
G02*
X8628250Y-3810000I87500J0D01*
G01*
X8691750Y-5715000D02*
G75*
G02*
X8516750Y-5715000I-87500J0D01*
G01*
X8516750Y-5715000D02*
G75*
G02*
X8691750Y-5715000I87500J0D01*
G01*
X9104500Y0D02*
G75*
G02*
X8929500Y0I-87500J0D01*
G01*
X8929500Y0D02*
G75*
G02*
X9104500Y0I87500J0D01*
G01*
X9168000Y-1905000D02*
G75*
G02*
X8993000Y-1905000I-87500J0D01*
G01*
X8993000Y-1905000D02*
G75*
G02*
X9168000Y-1905000I87500J0D01*
G01*
X9580750Y-5715000D02*
G75*
G02*
X9405750Y-5715000I-87500J0D01*
G01*
X9405750Y-5715000D02*
G75*
G02*
X9580750Y-5715000I87500J0D01*
G01*
X9644250Y-3810000D02*
G75*
G02*
X9469250Y-3810000I-87500J0D01*
G01*
X9469250Y-3810000D02*
G75*
G02*
X9644250Y-3810000I87500J0D01*
G01*
X10057000Y-1905000D02*
G75*
G02*
X9882000Y-1905000I-87500J0D01*
G01*
X9882000Y-1905000D02*
G75*
G02*
X10057000Y-1905000I87500J0D01*
G01*
X10120500Y0D02*
G75*
G02*
X9945500Y0I-87500J0D01*
G01*
X9945500Y0D02*
G75*
G02*
X10120500Y0I87500J0D01*
G01*
X10533250Y-3810000D02*
G75*
G02*
X10358250Y-3810000I-87500J0D01*
G01*
X10358250Y-3810000D02*
G75*
G02*
X10533250Y-3810000I87500J0D01*
G01*
X10596750Y-5715000D02*
G75*
G02*
X10421750Y-5715000I-87500J0D01*
G01*
X10421750Y-5715000D02*
G75*
G02*
X10596750Y-5715000I87500J0D01*
G01*
X11009500Y0D02*
G75*
G02*
X10834500Y0I-87500J0D01*
G01*
X10834500Y0D02*
G75*
G02*
X11009500Y0I87500J0D01*
G01*
X11073000Y-1905000D02*
G75*
G02*
X10898000Y-1905000I-87500J0D01*
G01*
X10898000Y-1905000D02*
G75*
G02*
X11073000Y-1905000I87500J0D01*
G01*
X11485750Y-5715000D02*
G75*
G02*
X11310750Y-5715000I-87500J0D01*
G01*
X11310750Y-5715000D02*
G75*
G02*
X11485750Y-5715000I87500J0D01*
G01*
X11549250Y-3810000D02*
G75*
G02*
X11374250Y-3810000I-87500J0D01*
G01*
X11374250Y-3810000D02*
G75*
G02*
X11549250Y-3810000I87500J0D01*
G01*
X11723875Y-7620000D02*
G75*
G02*
X11548875Y-7620000I-87500J0D01*
G01*
X11548875Y-7620000D02*
G75*
G02*
X11723875Y-7620000I87500J0D01*
G01*
X11962000Y-1905000D02*
G75*
G02*
X11787000Y-1905000I-87500J0D01*
G01*
X11787000Y-1905000D02*
G75*
G02*
X11962000Y-1905000I87500J0D01*
G01*
X12025500Y0D02*
G75*
G02*
X11850500Y0I-87500J0D01*
G01*
X11850500Y0D02*
G75*
G02*
X12025500Y0I87500J0D01*
G01*
X12438250Y-3810000D02*
G75*
G02*
X12263250Y-3810000I-87500J0D01*
G01*
X12263250Y-3810000D02*
G75*
G02*
X12438250Y-3810000I87500J0D01*
G01*
X12501750Y-5715000D02*
G75*
G02*
X12326750Y-5715000I-87500J0D01*
G01*
X12326750Y-5715000D02*
G75*
G02*
X12501750Y-5715000I87500J0D01*
G01*
X12739875Y-7620000D02*
G75*
G02*
X12564875Y-7620000I-87500J0D01*
G01*
X12564875Y-7620000D02*
G75*
G02*
X12739875Y-7620000I87500J0D01*
G01*
X12914500Y0D02*
G75*
G02*
X12739500Y0I-87500J0D01*
G01*
X12739500Y0D02*
G75*
G02*
X12914500Y0I87500J0D01*
G01*
X12914500Y-7620127D02*
G75*
G02*
X12739500Y-7620127I-87500J0D01*
G01*
X12739500Y-7620127D02*
G75*
G02*
X12914500Y-7620127I87500J0D01*
G01*
X12978000Y-1905000D02*
G75*
G02*
X12803000Y-1905000I-87500J0D01*
G01*
X12803000Y-1905000D02*
G75*
G02*
X12978000Y-1905000I87500J0D01*
G01*
X13390750Y-5715000D02*
G75*
G02*
X13215750Y-5715000I-87500J0D01*
G01*
X13215750Y-5715000D02*
G75*
G02*
X13390750Y-5715000I87500J0D01*
G01*
X13454250Y-3810000D02*
G75*
G02*
X13279250Y-3810000I-87500J0D01*
G01*
X13279250Y-3810000D02*
G75*
G02*
X13454250Y-3810000I87500J0D01*
G01*
X13867000Y-1905000D02*
G75*
G02*
X13692000Y-1905000I-87500J0D01*
G01*
X13692000Y-1905000D02*
G75*
G02*
X13867000Y-1905000I87500J0D01*
G01*
X13930500Y0D02*
G75*
G02*
X13755500Y0I-87500J0D01*
G01*
X13755500Y0D02*
G75*
G02*
X13930500Y0I87500J0D01*
G01*
X13930500Y-7620127D02*
G75*
G02*
X13755500Y-7620127I-87500J0D01*
G01*
X13755500Y-7620127D02*
G75*
G02*
X13930500Y-7620127I87500J0D01*
G01*
X14343250Y-3810000D02*
G75*
G02*
X14168250Y-3810000I-87500J0D01*
G01*
X14168250Y-3810000D02*
G75*
G02*
X14343250Y-3810000I87500J0D01*
G01*
X14406750Y-5715000D02*
G75*
G02*
X14231750Y-5715000I-87500J0D01*
G01*
X14231750Y-5715000D02*
G75*
G02*
X14406750Y-5715000I87500J0D01*
G01*
X14819500Y0D02*
G75*
G02*
X14644500Y0I-87500J0D01*
G01*
X14644500Y0D02*
G75*
G02*
X14819500Y0I87500J0D01*
G01*
X14883000Y-1905000D02*
G75*
G02*
X14708000Y-1905000I-87500J0D01*
G01*
X14708000Y-1905000D02*
G75*
G02*
X14883000Y-1905000I87500J0D01*
G01*
X15295750Y-5715000D02*
G75*
G02*
X15120750Y-5715000I-87500J0D01*
G01*
X15120750Y-5715000D02*
G75*
G02*
X15295750Y-5715000I87500J0D01*
G01*
X15359250Y-3810000D02*
G75*
G02*
X15184250Y-3810000I-87500J0D01*
G01*
X15184250Y-3810000D02*
G75*
G02*
X15359250Y-3810000I87500J0D01*
G01*
X15772000Y-1905000D02*
G75*
G02*
X15597000Y-1905000I-87500J0D01*
G01*
X15597000Y-1905000D02*
G75*
G02*
X15772000Y-1905000I87500J0D01*
G01*
X15835500Y0D02*
G75*
G02*
X15660500Y0I-87500J0D01*
G01*
X15660500Y0D02*
G75*
G02*
X15835500Y0I87500J0D01*
G01*
X16248250Y-3810000D02*
G75*
G02*
X16073250Y-3810000I-87500J0D01*
G01*
X16073250Y-3810000D02*
G75*
G02*
X16248250Y-3810000I87500J0D01*
G01*
X16311750Y-5715000D02*
G75*
G02*
X16136750Y-5715000I-87500J0D01*
G01*
X16136750Y-5715000D02*
G75*
G02*
X16311750Y-5715000I87500J0D01*
G01*
X16724500Y0D02*
G75*
G02*
X16549500Y0I-87500J0D01*
G01*
X16549500Y0D02*
G75*
G02*
X16724500Y0I87500J0D01*
G01*
X16788000Y-1905000D02*
G75*
G02*
X16613000Y-1905000I-87500J0D01*
G01*
X16613000Y-1905000D02*
G75*
G02*
X16788000Y-1905000I87500J0D01*
G01*
X17200750Y-5715000D02*
G75*
G02*
X17025750Y-5715000I-87500J0D01*
G01*
X17025750Y-5715000D02*
G75*
G02*
X17200750Y-5715000I87500J0D01*
G01*
X17264250Y-3810000D02*
G75*
G02*
X17089250Y-3810000I-87500J0D01*
G01*
X17089250Y-3810000D02*
G75*
G02*
X17264250Y-3810000I87500J0D01*
G01*
X17677000Y-1905000D02*
G75*
G02*
X17502000Y-1905000I-87500J0D01*
G01*
X17502000Y-1905000D02*
G75*
G02*
X17677000Y-1905000I87500J0D01*
G01*
X17740500Y0D02*
G75*
G02*
X17565500Y0I-87500J0D01*
G01*
X17565500Y0D02*
G75*
G02*
X17740500Y0I87500J0D01*
G01*
X18153250Y-3810000D02*
G75*
G02*
X17978250Y-3810000I-87500J0D01*
G01*
X17978250Y-3810000D02*
G75*
G02*
X18153250Y-3810000I87500J0D01*
G01*
X18216750Y-5715000D02*
G75*
G02*
X18041750Y-5715000I-87500J0D01*
G01*
X18041750Y-5715000D02*
G75*
G02*
X18216750Y-5715000I87500J0D01*
G01*
X18629500Y0D02*
G75*
G02*
X18454500Y0I-87500J0D01*
G01*
X18454500Y0D02*
G75*
G02*
X18629500Y0I87500J0D01*
G01*
X18693000Y-1905000D02*
G75*
G02*
X18518000Y-1905000I-87500J0D01*
G01*
X18518000Y-1905000D02*
G75*
G02*
X18693000Y-1905000I87500J0D01*
G01*
X18867625Y-7620000D02*
G75*
G02*
X18692625Y-7620000I-87500J0D01*
G01*
X18692625Y-7620000D02*
G75*
G02*
X18867625Y-7620000I87500J0D01*
G01*
X19105750Y-5715000D02*
G75*
G02*
X18930750Y-5715000I-87500J0D01*
G01*
X18930750Y-5715000D02*
G75*
G02*
X19105750Y-5715000I87500J0D01*
G01*
X19169250Y-3810000D02*
G75*
G02*
X18994250Y-3810000I-87500J0D01*
G01*
X18994250Y-3810000D02*
G75*
G02*
X19169250Y-3810000I87500J0D01*
G01*
X19582000Y-1905000D02*
G75*
G02*
X19407000Y-1905000I-87500J0D01*
G01*
X19407000Y-1905000D02*
G75*
G02*
X19582000Y-1905000I87500J0D01*
G01*
X19645500Y0D02*
G75*
G02*
X19470500Y0I-87500J0D01*
G01*
X19470500Y0D02*
G75*
G02*
X19645500Y0I87500J0D01*
G01*
X19883625Y-7620000D02*
G75*
G02*
X19708625Y-7620000I-87500J0D01*
G01*
X19708625Y-7620000D02*
G75*
G02*
X19883625Y-7620000I87500J0D01*
G01*
X20058250Y-3810000D02*
G75*
G02*
X19883250Y-3810000I-87500J0D01*
G01*
X19883250Y-3810000D02*
G75*
G02*
X20058250Y-3810000I87500J0D01*
G01*
X20121750Y-5715000D02*
G75*
G02*
X19946750Y-5715000I-87500J0D01*
G01*
X19946750Y-5715000D02*
G75*
G02*
X20121750Y-5715000I87500J0D01*
G01*
X20534500Y0D02*
G75*
G02*
X20359500Y0I-87500J0D01*
G01*
X20359500Y0D02*
G75*
G02*
X20534500Y0I87500J0D01*
G01*
X20598000Y-1905000D02*
G75*
G02*
X20423000Y-1905000I-87500J0D01*
G01*
X20423000Y-1905000D02*
G75*
G02*
X20598000Y-1905000I87500J0D01*
G01*
X21008875Y-7620000D02*
G75*
G02*
X20833875Y-7620000I-87500J0D01*
G01*
X20833875Y-7620000D02*
G75*
G02*
X21008875Y-7620000I87500J0D01*
G01*
X21010750Y-5715000D02*
G75*
G02*
X20835750Y-5715000I-87500J0D01*
G01*
X20835750Y-5715000D02*
G75*
G02*
X21010750Y-5715000I87500J0D01*
G01*
X21074250Y-3810000D02*
G75*
G02*
X20899250Y-3810000I-87500J0D01*
G01*
X20899250Y-3810000D02*
G75*
G02*
X21074250Y-3810000I87500J0D01*
G01*
X21248875Y-7620000D02*
G75*
G02*
X21073875Y-7620000I-87500J0D01*
G01*
X21073875Y-7620000D02*
G75*
G02*
X21248875Y-7620000I87500J0D01*
G01*
X21487000Y-1905000D02*
G75*
G02*
X21312000Y-1905000I-87500J0D01*
G01*
X21312000Y-1905000D02*
G75*
G02*
X21487000Y-1905000I87500J0D01*
G01*
X21550500Y0D02*
G75*
G02*
X21375500Y0I-87500J0D01*
G01*
X21375500Y0D02*
G75*
G02*
X21550500Y0I87500J0D01*
G01*
X21963250Y-3810000D02*
G75*
G02*
X21788250Y-3810000I-87500J0D01*
G01*
X21788250Y-3810000D02*
G75*
G02*
X21963250Y-3810000I87500J0D01*
G01*
X22024875Y-7620000D02*
G75*
G02*
X21849875Y-7620000I-87500J0D01*
G01*
X21849875Y-7620000D02*
G75*
G02*
X22024875Y-7620000I87500J0D01*
G01*
X22026750Y-5715000D02*
G75*
G02*
X21851750Y-5715000I-87500J0D01*
G01*
X21851750Y-5715000D02*
G75*
G02*
X22026750Y-5715000I87500J0D01*
G01*
X22264875Y-7620000D02*
G75*
G02*
X22089875Y-7620000I-87500J0D01*
G01*
X22089875Y-7620000D02*
G75*
G02*
X22264875Y-7620000I87500J0D01*
G01*
X22439500Y0D02*
G75*
G02*
X22264500Y0I-87500J0D01*
G01*
X22264500Y0D02*
G75*
G02*
X22439500Y0I87500J0D01*
G01*
X22503000Y-1905000D02*
G75*
G02*
X22328000Y-1905000I-87500J0D01*
G01*
X22328000Y-1905000D02*
G75*
G02*
X22503000Y-1905000I87500J0D01*
G01*
X22979250Y-3810000D02*
G75*
G02*
X22804250Y-3810000I-87500J0D01*
G01*
X22804250Y-3810000D02*
G75*
G02*
X22979250Y-3810000I87500J0D01*
G01*
X23390125Y-7620000D02*
G75*
G02*
X23215125Y-7620000I-87500J0D01*
G01*
X23215125Y-7620000D02*
G75*
G02*
X23390125Y-7620000I87500J0D01*
G01*
X23392000Y-1905000D02*
G75*
G02*
X23217000Y-1905000I-87500J0D01*
G01*
X23217000Y-1905000D02*
G75*
G02*
X23392000Y-1905000I87500J0D01*
G01*
X23455500Y0D02*
G75*
G02*
X23280500Y0I-87500J0D01*
G01*
X23280500Y0D02*
G75*
G02*
X23455500Y0I87500J0D01*
G01*
X23629500Y-5715000D02*
G75*
G02*
X23454500Y-5715000I-87500J0D01*
G01*
X23454500Y-5715000D02*
G75*
G02*
X23629500Y-5715000I87500J0D01*
G01*
X23630125Y-7620000D02*
G75*
G02*
X23455125Y-7620000I-87500J0D01*
G01*
X23455125Y-7620000D02*
G75*
G02*
X23630125Y-7620000I87500J0D01*
G01*
X23869500Y-3810000D02*
G75*
G02*
X23694500Y-3810000I-87500J0D01*
G01*
X23694500Y-3810000D02*
G75*
G02*
X23869500Y-3810000I87500J0D01*
G01*
X24344500Y0D02*
G75*
G02*
X24169500Y0I-87500J0D01*
G01*
X24169500Y0D02*
G75*
G02*
X24344500Y0I87500J0D01*
G01*
X24406125Y-7620000D02*
G75*
G02*
X24231125Y-7620000I-87500J0D01*
G01*
X24231125Y-7620000D02*
G75*
G02*
X24406125Y-7620000I87500J0D01*
G01*
X24408000Y-1905000D02*
G75*
G02*
X24233000Y-1905000I-87500J0D01*
G01*
X24233000Y-1905000D02*
G75*
G02*
X24408000Y-1905000I87500J0D01*
G01*
X24582625Y-5715000D02*
G75*
G02*
X24407625Y-5715000I-87500J0D01*
G01*
X24407625Y-5715000D02*
G75*
G02*
X24582625Y-5715000I87500J0D01*
G01*
X24645500Y-5715000D02*
G75*
G02*
X24470500Y-5715000I-87500J0D01*
G01*
X24470500Y-5715000D02*
G75*
G02*
X24645500Y-5715000I87500J0D01*
G01*
X24646125Y-7620000D02*
G75*
G02*
X24471125Y-7620000I-87500J0D01*
G01*
X24471125Y-7620000D02*
G75*
G02*
X24646125Y-7620000I87500J0D01*
G01*
X24885500Y-3810000D02*
G75*
G02*
X24710500Y-3810000I-87500J0D01*
G01*
X24710500Y-3810000D02*
G75*
G02*
X24885500Y-3810000I87500J0D01*
G01*
X25058875Y-3810000D02*
G75*
G02*
X24883875Y-3810000I-87500J0D01*
G01*
X24883875Y-3810000D02*
G75*
G02*
X25058875Y-3810000I87500J0D01*
G01*
X25299500Y0D02*
G75*
G02*
X25124500Y0I-87500J0D01*
G01*
X25124500Y0D02*
G75*
G02*
X25299500Y0I87500J0D01*
G01*
X25360500Y0D02*
G75*
G02*
X25185500Y0I-87500J0D01*
G01*
X25185500Y0D02*
G75*
G02*
X25360500Y0I87500J0D01*
G01*
X25598625Y-5715000D02*
G75*
G02*
X25423625Y-5715000I-87500J0D01*
G01*
X25423625Y-5715000D02*
G75*
G02*
X25598625Y-5715000I87500J0D01*
G01*
X25771375Y-7620000D02*
G75*
G02*
X25596375Y-7620000I-87500J0D01*
G01*
X25596375Y-7620000D02*
G75*
G02*
X25771375Y-7620000I87500J0D01*
G01*
X25773250Y-1905000D02*
G75*
G02*
X25598250Y-1905000I-87500J0D01*
G01*
X25598250Y-1905000D02*
G75*
G02*
X25773250Y-1905000I87500J0D01*
G01*
X26011375Y-7620000D02*
G75*
G02*
X25836375Y-7620000I-87500J0D01*
G01*
X25836375Y-7620000D02*
G75*
G02*
X26011375Y-7620000I87500J0D01*
G01*
X26074875Y-3810000D02*
G75*
G02*
X25899875Y-3810000I-87500J0D01*
G01*
X25899875Y-3810000D02*
G75*
G02*
X26074875Y-3810000I87500J0D01*
G01*
X26249500Y0D02*
G75*
G02*
X26074500Y0I-87500J0D01*
G01*
X26074500Y0D02*
G75*
G02*
X26249500Y0I87500J0D01*
G01*
X26249500Y-5715000D02*
G75*
G02*
X26074500Y-5715000I-87500J0D01*
G01*
X26074500Y-5715000D02*
G75*
G02*
X26249500Y-5715000I87500J0D01*
G01*
X26315500Y0D02*
G75*
G02*
X26140500Y0I-87500J0D01*
G01*
X26140500Y0D02*
G75*
G02*
X26315500Y0I87500J0D01*
G01*
X26519500Y-2349000D02*
G75*
G02*
X26344500Y-2349000I-87500J0D01*
G01*
X26344500Y-2349000D02*
G75*
G02*
X26519500Y-2349000I87500J0D01*
G01*
X26519500Y-3365000D02*
G75*
G02*
X26344500Y-3365000I-87500J0D01*
G01*
X26344500Y-3365000D02*
G75*
G02*
X26519500Y-3365000I87500J0D01*
G01*
X26787375Y-7620000D02*
G75*
G02*
X26612375Y-7620000I-87500J0D01*
G01*
X26612375Y-7620000D02*
G75*
G02*
X26787375Y-7620000I87500J0D01*
G01*
X26789250Y-1905000D02*
G75*
G02*
X26614250Y-1905000I-87500J0D01*
G01*
X26614250Y-1905000D02*
G75*
G02*
X26789250Y-1905000I87500J0D01*
G01*
X27027375Y-7620000D02*
G75*
G02*
X26852375Y-7620000I-87500J0D01*
G01*
X26852375Y-7620000D02*
G75*
G02*
X27027375Y-7620000I87500J0D01*
G01*
X27265500Y0D02*
G75*
G02*
X27090500Y0I-87500J0D01*
G01*
X27090500Y0D02*
G75*
G02*
X27265500Y0I87500J0D01*
G01*
X27265500Y-5715000D02*
G75*
G02*
X27090500Y-5715000I-87500J0D01*
G01*
X27090500Y-5715000D02*
G75*
G02*
X27265500Y-5715000I87500J0D01*
G01*
D13*
X-3175Y-4864100D02*
X-3175Y-5168900D01*
X-155575Y-5016500D02*
X149225Y-5016500D01*
X2384425Y-4864100D02*
X2384425Y-5168900D01*
X2232025Y-5016500D02*
X2536825Y-5016500D01*
X7144375Y-8166100D02*
X7144375Y-8470900D01*
X6991975Y-8318500D02*
X7296775Y-8318500D01*
X7620000Y-8166227D02*
X7620000Y-8471027D01*
X7467600Y-8318627D02*
X7772400Y-8318627D01*
X17144375Y-8166100D02*
X17144375Y-8470900D01*
X16991975Y-8318500D02*
X17296775Y-8318500D01*
X19050000Y-8166227D02*
X19050000Y-8471027D01*
X18897600Y-8318627D02*
X19202400Y-8318627D01*
X23809325Y-4863605D02*
X23809325Y-5168405D01*
X23656925Y-5016005D02*
X23961725Y-5016005D01*
X24285575Y-2959100D02*
X24285575Y-3263900D01*
X24133175Y-3111500D02*
X24437975Y-3111500D01*
X24526200Y850900D02*
X24526200Y546100D01*
X24373800Y698500D02*
X24678600Y698500D01*
X25733500Y-1510800D02*
X25733500Y-1815600D01*
X25581100Y-1663200D02*
X25885900Y-1663200D01*
X25733500Y-3898400D02*
X25733500Y-4203200D01*
X25581100Y-4050800D02*
X25885900Y-4050800D01*
X26196925Y-4863605D02*
X26196925Y-5168405D01*
X26044525Y-5016005D02*
X26349325Y-5016005D01*
X26673175Y-2959100D02*
X26673175Y-3263900D01*
X26520775Y-3111500D02*
X26825575Y-3111500D01*
X26913800Y850900D02*
X26913800Y546100D01*
X26761400Y698500D02*
X27066200Y698500D01*
D14*
X137816Y-6678491D02*
X137816Y-6396509D01*
X-144166Y-6396509D01*
X-144166Y-6678491D01*
X137816Y-6678491D01*
X2525416Y-6678491D02*
X2525416Y-6396509D01*
X2243434Y-6396509D01*
X2243434Y-6678491D01*
X2525416Y-6678491D01*
X7285366Y-6938491D02*
X7285366Y-6656509D01*
X7003384Y-6656509D01*
X7003384Y-6938491D01*
X7285366Y-6938491D01*
X7760991Y-6938618D02*
X7760991Y-6656636D01*
X7479009Y-6656636D01*
X7479009Y-6938618D01*
X7760991Y-6938618D01*
X17285366Y-6938491D02*
X17285366Y-6656509D01*
X17003384Y-6656509D01*
X17003384Y-6938491D01*
X17285366Y-6938491D01*
X19190991Y-6938618D02*
X19190991Y-6656636D01*
X18909009Y-6656636D01*
X18909009Y-6938618D01*
X19190991Y-6938618D01*
X23950316Y-6677996D02*
X23950316Y-6396014D01*
X23668334Y-6396014D01*
X23668334Y-6677996D01*
X23950316Y-6677996D01*
X24426566Y-4773491D02*
X24426566Y-4491509D01*
X24144584Y-4491509D01*
X24144584Y-4773491D01*
X24426566Y-4773491D01*
X24667191Y-963491D02*
X24667191Y-681509D01*
X24385209Y-681509D01*
X24385209Y-963491D01*
X24667191Y-963491D01*
X26337916Y-6677996D02*
X26337916Y-6396014D01*
X26055934Y-6396014D01*
X26055934Y-6677996D01*
X26337916Y-6677996D01*
X26814166Y-4773491D02*
X26814166Y-4491509D01*
X26532184Y-4491509D01*
X26532184Y-4773491D01*
X26814166Y-4773491D01*
X27054791Y-963491D02*
X27054791Y-681509D01*
X26772809Y-681509D01*
X26772809Y-963491D01*
X27054791Y-963491D01*
X27395491Y-1804191D02*
X27395491Y-1522209D01*
X27113509Y-1522209D01*
X27113509Y-1804191D01*
X27395491Y-1804191D01*
X27395491Y-4191791D02*
X27395491Y-3909809D01*
X27113509Y-3909809D01*
X27113509Y-4191791D01*
X27395491Y-4191791D01*
D15*
X0Y-200000D02*
X200000Y0D01*
X0Y200000D01*
X-200000Y0D01*
X0Y-200000D01*
X238000Y-5915000D02*
X438000Y-5715000D01*
X238000Y-5515000D01*
X38000Y-5715000D01*
X238000Y-5915000D01*
X238500Y-4010000D02*
X438500Y-3810000D01*
X238500Y-3610000D01*
X38500Y-3810000D01*
X238500Y-4010000D01*
X358125Y-7820000D02*
X558125Y-7620000D01*
X358125Y-7420000D01*
X158125Y-7620000D01*
X358125Y-7820000D01*
D11*
X238125Y-7820000D02*
X478125Y-7820000D01*
X478125Y-7420000D02*
G75*
G02*
X478125Y-7820000I0J-200000D01*
G01*
X478125Y-7420000D02*
X238125Y-7420000D01*
X238125Y-7420000D02*
G75*
G03*
X238125Y-7820000I0J-200000D01*
G01*
D15*
X476250Y-2105000D02*
X676250Y-1905000D01*
X476250Y-1705000D01*
X276250Y-1905000D01*
X476250Y-2105000D01*
X714375Y-4010000D02*
X914375Y-3810000D01*
X714375Y-3610000D01*
X514375Y-3810000D01*
X714375Y-4010000D01*
X1190625Y-5915000D02*
X1390625Y-5715000D01*
X1190625Y-5515000D01*
X990625Y-5715000D01*
X1190625Y-5915000D01*
X1905000Y-200000D02*
X2105000Y0D01*
X1905000Y200000D01*
X1705000Y0D01*
X1905000Y-200000D01*
X2380000Y-5915000D02*
X2580000Y-5715000D01*
X2380000Y-5515000D01*
X2180000Y-5715000D01*
X2380000Y-5915000D01*
X2740000Y-7820000D02*
X2940000Y-7620000D01*
X2740000Y-7420000D01*
X2540000Y-7620000D01*
X2740000Y-7820000D01*
D11*
X2620000Y-7820000D02*
X2860000Y-7820000D01*
X2860000Y-7420000D02*
G75*
G02*
X2860000Y-7820000I0J-200000D01*
G01*
X2860000Y-7420000D02*
X2620000Y-7420000D01*
X2620000Y-7420000D02*
G75*
G03*
X2620000Y-7820000I0J-200000D01*
G01*
D15*
X2857500Y-2105000D02*
X3057500Y-1905000D01*
X2857500Y-1705000D01*
X2657500Y-1905000D01*
X2857500Y-2105000D01*
X3333750Y-4010000D02*
X3533750Y-3810000D01*
X3333750Y-3610000D01*
X3133750Y-3810000D01*
X3333750Y-4010000D01*
X3810000Y-200000D02*
X4010000Y0D01*
X3810000Y200000D01*
X3610000Y0D01*
X3810000Y-200000D01*
X4286250Y-5915000D02*
X4486250Y-5715000D01*
X4286250Y-5515000D01*
X4086250Y-5715000D01*
X4286250Y-5915000D01*
X4762500Y-2105000D02*
X4962500Y-1905000D01*
X4762500Y-1705000D01*
X4562500Y-1905000D01*
X4762500Y-2105000D01*
X5120625Y-7820000D02*
X5320625Y-7620000D01*
X5120625Y-7420000D01*
X4920625Y-7620000D01*
X5120625Y-7820000D01*
D11*
X5000625Y-7820000D02*
X5240625Y-7820000D01*
X5240625Y-7420000D02*
G75*
G02*
X5240625Y-7820000I0J-200000D01*
G01*
X5240625Y-7420000D02*
X5000625Y-7420000D01*
X5000625Y-7420000D02*
G75*
G03*
X5000625Y-7820000I0J-200000D01*
G01*
D15*
X5238750Y-4010000D02*
X5438750Y-3810000D01*
X5238750Y-3610000D01*
X5038750Y-3810000D01*
X5238750Y-4010000D01*
X5715000Y-200000D02*
X5915000Y0D01*
X5715000Y200000D01*
X5515000Y0D01*
X5715000Y-200000D01*
X6191250Y-5915000D02*
X6391250Y-5715000D01*
X6191250Y-5515000D01*
X5991250Y-5715000D01*
X6191250Y-5915000D01*
X6667500Y-2105000D02*
X6867500Y-1905000D01*
X6667500Y-1705000D01*
X6467500Y-1905000D01*
X6667500Y-2105000D01*
X7143750Y-4010000D02*
X7343750Y-3810000D01*
X7143750Y-3610000D01*
X6943750Y-3810000D01*
X7143750Y-4010000D01*
X7620000Y-200000D02*
X7820000Y0D01*
X7620000Y200000D01*
X7420000Y0D01*
X7620000Y-200000D01*
X8096250Y-5915000D02*
X8296250Y-5715000D01*
X8096250Y-5515000D01*
X7896250Y-5715000D01*
X8096250Y-5915000D01*
X8572500Y-2105000D02*
X8772500Y-1905000D01*
X8572500Y-1705000D01*
X8372500Y-1905000D01*
X8572500Y-2105000D01*
X9048750Y-4010000D02*
X9248750Y-3810000D01*
X9048750Y-3610000D01*
X8848750Y-3810000D01*
X9048750Y-4010000D01*
X9525000Y-200000D02*
X9725000Y0D01*
X9525000Y200000D01*
X9325000Y0D01*
X9525000Y-200000D01*
X10001250Y-5915000D02*
X10201250Y-5715000D01*
X10001250Y-5515000D01*
X9801250Y-5715000D01*
X10001250Y-5915000D01*
X10477500Y-2105000D02*
X10677500Y-1905000D01*
X10477500Y-1705000D01*
X10277500Y-1905000D01*
X10477500Y-2105000D01*
X10953750Y-4010000D02*
X11153750Y-3810000D01*
X10953750Y-3610000D01*
X10753750Y-3810000D01*
X10953750Y-4010000D01*
X11430000Y-200000D02*
X11630000Y0D01*
X11430000Y200000D01*
X11230000Y0D01*
X11430000Y-200000D01*
X11906250Y-5915000D02*
X12106250Y-5715000D01*
X11906250Y-5515000D01*
X11706250Y-5715000D01*
X11906250Y-5915000D01*
X12144375Y-7820000D02*
X12344375Y-7620000D01*
X12144375Y-7420000D01*
X11944375Y-7620000D01*
X12144375Y-7820000D01*
X12382500Y-2105000D02*
X12582500Y-1905000D01*
X12382500Y-1705000D01*
X12182500Y-1905000D01*
X12382500Y-2105000D01*
X12858750Y-4010000D02*
X13058750Y-3810000D01*
X12858750Y-3610000D01*
X12658750Y-3810000D01*
X12858750Y-4010000D01*
X13335000Y-200000D02*
X13535000Y0D01*
X13335000Y200000D01*
X13135000Y0D01*
X13335000Y-200000D01*
X13335000Y-7820127D02*
X13535000Y-7620127D01*
X13335000Y-7420127D01*
X13135000Y-7620127D01*
X13335000Y-7820127D01*
X13811250Y-5915000D02*
X14011250Y-5715000D01*
X13811250Y-5515000D01*
X13611250Y-5715000D01*
X13811250Y-5915000D01*
X14287500Y-2105000D02*
X14487500Y-1905000D01*
X14287500Y-1705000D01*
X14087500Y-1905000D01*
X14287500Y-2105000D01*
X14763750Y-4010000D02*
X14963750Y-3810000D01*
X14763750Y-3610000D01*
X14563750Y-3810000D01*
X14763750Y-4010000D01*
X15240000Y-200000D02*
X15440000Y0D01*
X15240000Y200000D01*
X15040000Y0D01*
X15240000Y-200000D01*
X15716250Y-5915000D02*
X15916250Y-5715000D01*
X15716250Y-5515000D01*
X15516250Y-5715000D01*
X15716250Y-5915000D01*
X16192500Y-2105000D02*
X16392500Y-1905000D01*
X16192500Y-1705000D01*
X15992500Y-1905000D01*
X16192500Y-2105000D01*
X16668750Y-4010000D02*
X16868750Y-3810000D01*
X16668750Y-3610000D01*
X16468750Y-3810000D01*
X16668750Y-4010000D01*
X17145000Y-200000D02*
X17345000Y0D01*
X17145000Y200000D01*
X16945000Y0D01*
X17145000Y-200000D01*
X17621250Y-5915000D02*
X17821250Y-5715000D01*
X17621250Y-5515000D01*
X17421250Y-5715000D01*
X17621250Y-5915000D01*
X18097500Y-2105000D02*
X18297500Y-1905000D01*
X18097500Y-1705000D01*
X17897500Y-1905000D01*
X18097500Y-2105000D01*
X18573750Y-4010000D02*
X18773750Y-3810000D01*
X18573750Y-3610000D01*
X18373750Y-3810000D01*
X18573750Y-4010000D01*
X19050000Y-200000D02*
X19250000Y0D01*
X19050000Y200000D01*
X18850000Y0D01*
X19050000Y-200000D01*
X19288125Y-7820000D02*
X19488125Y-7620000D01*
X19288125Y-7420000D01*
X19088125Y-7620000D01*
X19288125Y-7820000D01*
X19526250Y-5915000D02*
X19726250Y-5715000D01*
X19526250Y-5515000D01*
X19326250Y-5715000D01*
X19526250Y-5915000D01*
X20002500Y-2105000D02*
X20202500Y-1905000D01*
X20002500Y-1705000D01*
X19802500Y-1905000D01*
X20002500Y-2105000D01*
X20478750Y-4010000D02*
X20678750Y-3810000D01*
X20478750Y-3610000D01*
X20278750Y-3810000D01*
X20478750Y-4010000D01*
X20955000Y-200000D02*
X21155000Y0D01*
X20955000Y200000D01*
X20755000Y0D01*
X20955000Y-200000D01*
X21431250Y-5915000D02*
X21631250Y-5715000D01*
X21431250Y-5515000D01*
X21231250Y-5715000D01*
X21431250Y-5915000D01*
X21549375Y-7820000D02*
X21749375Y-7620000D01*
X21549375Y-7420000D01*
X21349375Y-7620000D01*
X21549375Y-7820000D01*
D11*
X21429375Y-7820000D02*
X21669375Y-7820000D01*
X21669375Y-7420000D02*
G75*
G02*
X21669375Y-7820000I0J-200000D01*
G01*
X21669375Y-7420000D02*
X21429375Y-7420000D01*
X21429375Y-7420000D02*
G75*
G03*
X21429375Y-7820000I0J-200000D01*
G01*
D15*
X21907500Y-2105000D02*
X22107500Y-1905000D01*
X21907500Y-1705000D01*
X21707500Y-1905000D01*
X21907500Y-2105000D01*
X22383750Y-4010000D02*
X22583750Y-3810000D01*
X22383750Y-3610000D01*
X22183750Y-3810000D01*
X22383750Y-4010000D01*
X22860000Y-200000D02*
X23060000Y0D01*
X22860000Y200000D01*
X22660000Y0D01*
X22860000Y-200000D01*
X23812500Y-2105000D02*
X24012500Y-1905000D01*
X23812500Y-1705000D01*
X23612500Y-1905000D01*
X23812500Y-2105000D01*
X23930625Y-7820000D02*
X24130625Y-7620000D01*
X23930625Y-7420000D01*
X23730625Y-7620000D01*
X23930625Y-7820000D01*
D11*
X23810625Y-7820000D02*
X24050625Y-7820000D01*
X24050625Y-7420000D02*
G75*
G02*
X24050625Y-7820000I0J-200000D01*
G01*
X24050625Y-7420000D02*
X23810625Y-7420000D01*
X23810625Y-7420000D02*
G75*
G03*
X23810625Y-7820000I0J-200000D01*
G01*
D15*
X24050000Y-5915000D02*
X24250000Y-5715000D01*
X24050000Y-5515000D01*
X23850000Y-5715000D01*
X24050000Y-5915000D01*
X24290000Y-4010000D02*
X24490000Y-3810000D01*
X24290000Y-3610000D01*
X24090000Y-3810000D01*
X24290000Y-4010000D01*
X24765000Y-200000D02*
X24965000Y0D01*
X24765000Y200000D01*
X24565000Y0D01*
X24765000Y-200000D01*
X25003125Y-5915000D02*
X25203125Y-5715000D01*
X25003125Y-5515000D01*
X24803125Y-5715000D01*
X25003125Y-5915000D01*
X25479375Y-4010000D02*
X25679375Y-3810000D01*
X25479375Y-3610000D01*
X25279375Y-3810000D01*
X25479375Y-4010000D01*
X25720000Y-200000D02*
X25920000Y0D01*
X25720000Y200000D01*
X25520000Y0D01*
X25720000Y-200000D01*
X26193750Y-2105000D02*
X26393750Y-1905000D01*
X26193750Y-1705000D01*
X25993750Y-1905000D01*
X26193750Y-2105000D01*
X26311875Y-7820000D02*
X26511875Y-7620000D01*
X26311875Y-7420000D01*
X26111875Y-7620000D01*
X26311875Y-7820000D01*
D11*
X26191875Y-7820000D02*
X26431875Y-7820000D01*
X26431875Y-7420000D02*
G75*
G02*
X26431875Y-7820000I0J-200000D01*
G01*
X26431875Y-7420000D02*
X26191875Y-7420000D01*
X26191875Y-7420000D02*
G75*
G03*
X26191875Y-7820000I0J-200000D01*
G01*
D15*
X26432000Y-3057000D02*
X26632000Y-2857000D01*
X26432000Y-2657000D01*
X26232000Y-2857000D01*
X26432000Y-3057000D01*
X26670000Y-200000D02*
X26870000Y0D01*
X26670000Y200000D01*
X26470000Y0D01*
X26670000Y-200000D01*
X26670000Y-5915000D02*
X26870000Y-5715000D01*
X26670000Y-5515000D01*
X26470000Y-5715000D01*
X26670000Y-5915000D01*
D10*
X-649223Y-8841484D02*
X-649223Y-8641484D01*
X-649223Y-8641484D02*
X-601604Y-8641484D01*
X-601604Y-8641484D02*
X-573033Y-8651008D01*
X-573033Y-8651008D02*
X-553985Y-8670055D01*
X-553985Y-8670055D02*
X-544461Y-8689103D01*
X-544461Y-8689103D02*
X-534937Y-8727198D01*
X-534937Y-8727198D02*
X-534937Y-8755770D01*
X-534937Y-8755770D02*
X-544461Y-8793865D01*
X-544461Y-8793865D02*
X-553985Y-8812912D01*
X-553985Y-8812912D02*
X-573033Y-8831960D01*
X-573033Y-8831960D02*
X-601604Y-8841484D01*
X-601604Y-8841484D02*
X-649223Y-8841484D01*
X-449223Y-8841484D02*
X-449223Y-8708150D01*
X-449223Y-8746246D02*
X-439699Y-8727198D01*
X-439699Y-8727198D02*
X-430175Y-8717674D01*
X-430175Y-8717674D02*
X-411128Y-8708150D01*
X-411128Y-8708150D02*
X-392080Y-8708150D01*
X-325414Y-8841484D02*
X-325414Y-8708150D01*
X-325414Y-8641484D02*
X-334937Y-8651008D01*
X-334937Y-8651008D02*
X-325414Y-8660531D01*
X-325414Y-8660531D02*
X-315890Y-8651008D01*
X-315890Y-8651008D02*
X-325414Y-8641484D01*
X-325414Y-8641484D02*
X-325414Y-8660531D01*
X-201604Y-8841484D02*
X-220652Y-8831960D01*
X-220652Y-8831960D02*
X-230175Y-8812912D01*
X-230175Y-8812912D02*
X-230175Y-8641484D01*
X-96842Y-8841484D02*
X-115890Y-8831960D01*
X-115890Y-8831960D02*
X-125414Y-8812912D01*
X-125414Y-8812912D02*
X-125414Y-8641484D01*
X131729Y-8841484D02*
X131729Y-8641484D01*
X131729Y-8641484D02*
X198396Y-8784341D01*
X198396Y-8784341D02*
X265063Y-8641484D01*
X265063Y-8641484D02*
X265063Y-8841484D01*
X446015Y-8841484D02*
X446015Y-8736722D01*
X446015Y-8736722D02*
X436491Y-8717674D01*
X436491Y-8717674D02*
X417443Y-8708150D01*
X417443Y-8708150D02*
X379348Y-8708150D01*
X379348Y-8708150D02*
X360301Y-8717674D01*
X446015Y-8831960D02*
X426967Y-8841484D01*
X426967Y-8841484D02*
X379348Y-8841484D01*
X379348Y-8841484D02*
X360301Y-8831960D01*
X360301Y-8831960D02*
X350777Y-8812912D01*
X350777Y-8812912D02*
X350777Y-8793865D01*
X350777Y-8793865D02*
X360301Y-8774817D01*
X360301Y-8774817D02*
X379348Y-8765293D01*
X379348Y-8765293D02*
X426967Y-8765293D01*
X426967Y-8765293D02*
X446015Y-8755770D01*
X541253Y-8708150D02*
X541253Y-8908150D01*
X541253Y-8717674D02*
X560301Y-8708150D01*
X560301Y-8708150D02*
X598396Y-8708150D01*
X598396Y-8708150D02*
X617444Y-8717674D01*
X617444Y-8717674D02*
X626967Y-8727198D01*
X626967Y-8727198D02*
X636491Y-8746246D01*
X636491Y-8746246D02*
X636491Y-8803389D01*
X636491Y-8803389D02*
X626967Y-8822436D01*
X626967Y-8822436D02*
X617444Y-8831960D01*
X617444Y-8831960D02*
X598396Y-8841484D01*
X598396Y-8841484D02*
X560301Y-8841484D01*
X560301Y-8841484D02*
X541253Y-8831960D01*
X722205Y-8822436D02*
X731729Y-8831960D01*
X731729Y-8831960D02*
X722205Y-8841484D01*
X722205Y-8841484D02*
X712682Y-8831960D01*
X712682Y-8831960D02*
X722205Y-8822436D01*
X722205Y-8822436D02*
X722205Y-8841484D01*
X722205Y-8717674D02*
X731729Y-8727198D01*
X731729Y-8727198D02*
X722205Y-8736722D01*
X722205Y-8736722D02*
X712682Y-8727198D01*
X712682Y-8727198D02*
X722205Y-8717674D01*
X722205Y-8717674D02*
X722205Y-8736722D01*
D11*
X-975000Y-9137500D02*
X-910000Y-9202500D01*
X-910000Y-9137500D02*
X-975000Y-9202500D01*
D10*
X-611128Y-9061484D02*
X-592080Y-9061484D01*
X-592080Y-9061484D02*
X-573033Y-9071008D01*
X-573033Y-9071008D02*
X-563509Y-9080531D01*
X-563509Y-9080531D02*
X-553985Y-9099579D01*
X-553985Y-9099579D02*
X-544461Y-9137674D01*
X-544461Y-9137674D02*
X-544461Y-9185293D01*
X-544461Y-9185293D02*
X-553985Y-9223389D01*
X-553985Y-9223389D02*
X-563509Y-9242436D01*
X-563509Y-9242436D02*
X-573033Y-9251960D01*
X-573033Y-9251960D02*
X-592080Y-9261484D01*
X-592080Y-9261484D02*
X-611128Y-9261484D01*
X-611128Y-9261484D02*
X-630176Y-9251960D01*
X-630176Y-9251960D02*
X-639699Y-9242436D01*
X-639699Y-9242436D02*
X-649223Y-9223389D01*
X-649223Y-9223389D02*
X-658747Y-9185293D01*
X-658747Y-9185293D02*
X-658747Y-9137674D01*
X-658747Y-9137674D02*
X-649223Y-9099579D01*
X-649223Y-9099579D02*
X-639699Y-9080531D01*
X-639699Y-9080531D02*
X-630176Y-9071008D01*
X-630176Y-9071008D02*
X-611128Y-9061484D01*
X-458747Y-9242436D02*
X-449223Y-9251960D01*
X-449223Y-9251960D02*
X-458747Y-9261484D01*
X-458747Y-9261484D02*
X-468271Y-9251960D01*
X-468271Y-9251960D02*
X-458747Y-9242436D01*
X-458747Y-9242436D02*
X-458747Y-9261484D01*
X-277795Y-9061484D02*
X-315890Y-9061484D01*
X-315890Y-9061484D02*
X-334937Y-9071008D01*
X-334937Y-9071008D02*
X-344461Y-9080531D01*
X-344461Y-9080531D02*
X-363509Y-9109103D01*
X-363509Y-9109103D02*
X-373033Y-9147198D01*
X-373033Y-9147198D02*
X-373033Y-9223389D01*
X-373033Y-9223389D02*
X-363509Y-9242436D01*
X-363509Y-9242436D02*
X-353985Y-9251960D01*
X-353985Y-9251960D02*
X-334937Y-9261484D01*
X-334937Y-9261484D02*
X-296842Y-9261484D01*
X-296842Y-9261484D02*
X-277795Y-9251960D01*
X-277795Y-9251960D02*
X-268271Y-9242436D01*
X-268271Y-9242436D02*
X-258747Y-9223389D01*
X-258747Y-9223389D02*
X-258747Y-9175770D01*
X-258747Y-9175770D02*
X-268271Y-9156722D01*
X-268271Y-9156722D02*
X-277795Y-9147198D01*
X-277795Y-9147198D02*
X-296842Y-9137674D01*
X-296842Y-9137674D02*
X-334937Y-9137674D01*
X-334937Y-9137674D02*
X-353985Y-9147198D01*
X-353985Y-9147198D02*
X-363509Y-9156722D01*
X-363509Y-9156722D02*
X-373033Y-9175770D01*
X-77795Y-9061484D02*
X-173033Y-9061484D01*
X-173033Y-9061484D02*
X-182556Y-9156722D01*
X-182556Y-9156722D02*
X-173033Y-9147198D01*
X-173033Y-9147198D02*
X-153985Y-9137674D01*
X-153985Y-9137674D02*
X-106366Y-9137674D01*
X-106366Y-9137674D02*
X-87318Y-9147198D01*
X-87318Y-9147198D02*
X-77795Y-9156722D01*
X-77795Y-9156722D02*
X-68271Y-9175770D01*
X-68271Y-9175770D02*
X-68271Y-9223389D01*
X-68271Y-9223389D02*
X-77795Y-9242436D01*
X-77795Y-9242436D02*
X-87318Y-9251960D01*
X-87318Y-9251960D02*
X-106366Y-9261484D01*
X-106366Y-9261484D02*
X-153985Y-9261484D01*
X-153985Y-9261484D02*
X-173033Y-9251960D01*
X-173033Y-9251960D02*
X-182556Y-9242436D01*
X55539Y-9061484D02*
X74586Y-9061484D01*
X74586Y-9061484D02*
X93634Y-9071008D01*
X93634Y-9071008D02*
X103158Y-9080531D01*
X103158Y-9080531D02*
X112682Y-9099579D01*
X112682Y-9099579D02*
X122205Y-9137674D01*
X122205Y-9137674D02*
X122205Y-9185293D01*
X122205Y-9185293D02*
X112682Y-9223389D01*
X112682Y-9223389D02*
X103158Y-9242436D01*
X103158Y-9242436D02*
X93634Y-9251960D01*
X93634Y-9251960D02*
X74586Y-9261484D01*
X74586Y-9261484D02*
X55539Y-9261484D01*
X55539Y-9261484D02*
X36491Y-9251960D01*
X36491Y-9251960D02*
X26967Y-9242436D01*
X26967Y-9242436D02*
X17444Y-9223389D01*
X17444Y-9223389D02*
X7920Y-9185293D01*
X7920Y-9185293D02*
X7920Y-9137674D01*
X7920Y-9137674D02*
X17444Y-9099579D01*
X17444Y-9099579D02*
X26967Y-9080531D01*
X26967Y-9080531D02*
X36491Y-9071008D01*
X36491Y-9071008D02*
X55539Y-9061484D01*
X207920Y-9261484D02*
X207920Y-9128150D01*
X207920Y-9147198D02*
X217443Y-9137674D01*
X217443Y-9137674D02*
X236491Y-9128150D01*
X236491Y-9128150D02*
X265063Y-9128150D01*
X265063Y-9128150D02*
X284110Y-9137674D01*
X284110Y-9137674D02*
X293634Y-9156722D01*
X293634Y-9156722D02*
X293634Y-9261484D01*
X293634Y-9156722D02*
X303158Y-9137674D01*
X303158Y-9137674D02*
X322205Y-9128150D01*
X322205Y-9128150D02*
X350777Y-9128150D01*
X350777Y-9128150D02*
X369824Y-9137674D01*
X369824Y-9137674D02*
X379348Y-9156722D01*
X379348Y-9156722D02*
X379348Y-9261484D01*
X474586Y-9261484D02*
X474586Y-9128150D01*
X474586Y-9147198D02*
X484110Y-9137674D01*
X484110Y-9137674D02*
X503158Y-9128150D01*
X503158Y-9128150D02*
X531729Y-9128150D01*
X531729Y-9128150D02*
X550777Y-9137674D01*
X550777Y-9137674D02*
X560301Y-9156722D01*
X560301Y-9156722D02*
X560301Y-9261484D01*
X560301Y-9156722D02*
X569825Y-9137674D01*
X569825Y-9137674D02*
X588872Y-9128150D01*
X588872Y-9128150D02*
X617444Y-9128150D01*
X617444Y-9128150D02*
X636491Y-9137674D01*
X636491Y-9137674D02*
X646015Y-9156722D01*
X646015Y-9156722D02*
X646015Y-9261484D01*
X1036491Y-9051960D02*
X865063Y-9309103D01*
X1293634Y-9061484D02*
X1312682Y-9061484D01*
X1312682Y-9061484D02*
X1331729Y-9071008D01*
X1331729Y-9071008D02*
X1341253Y-9080531D01*
X1341253Y-9080531D02*
X1350777Y-9099579D01*
X1350777Y-9099579D02*
X1360301Y-9137674D01*
X1360301Y-9137674D02*
X1360301Y-9185293D01*
X1360301Y-9185293D02*
X1350777Y-9223389D01*
X1350777Y-9223389D02*
X1341253Y-9242436D01*
X1341253Y-9242436D02*
X1331729Y-9251960D01*
X1331729Y-9251960D02*
X1312682Y-9261484D01*
X1312682Y-9261484D02*
X1293634Y-9261484D01*
X1293634Y-9261484D02*
X1274587Y-9251960D01*
X1274587Y-9251960D02*
X1265063Y-9242436D01*
X1265063Y-9242436D02*
X1255539Y-9223389D01*
X1255539Y-9223389D02*
X1246015Y-9185293D01*
X1246015Y-9185293D02*
X1246015Y-9137674D01*
X1246015Y-9137674D02*
X1255539Y-9099579D01*
X1255539Y-9099579D02*
X1265063Y-9080531D01*
X1265063Y-9080531D02*
X1274587Y-9071008D01*
X1274587Y-9071008D02*
X1293634Y-9061484D01*
X1446015Y-9242436D02*
X1455539Y-9251960D01*
X1455539Y-9251960D02*
X1446015Y-9261484D01*
X1446015Y-9261484D02*
X1436491Y-9251960D01*
X1436491Y-9251960D02*
X1446015Y-9242436D01*
X1446015Y-9242436D02*
X1446015Y-9261484D01*
X1579348Y-9061484D02*
X1598396Y-9061484D01*
X1598396Y-9061484D02*
X1617444Y-9071008D01*
X1617444Y-9071008D02*
X1626967Y-9080531D01*
X1626967Y-9080531D02*
X1636491Y-9099579D01*
X1636491Y-9099579D02*
X1646015Y-9137674D01*
X1646015Y-9137674D02*
X1646015Y-9185293D01*
X1646015Y-9185293D02*
X1636491Y-9223389D01*
X1636491Y-9223389D02*
X1626967Y-9242436D01*
X1626967Y-9242436D02*
X1617444Y-9251960D01*
X1617444Y-9251960D02*
X1598396Y-9261484D01*
X1598396Y-9261484D02*
X1579348Y-9261484D01*
X1579348Y-9261484D02*
X1560301Y-9251960D01*
X1560301Y-9251960D02*
X1550777Y-9242436D01*
X1550777Y-9242436D02*
X1541253Y-9223389D01*
X1541253Y-9223389D02*
X1531729Y-9185293D01*
X1531729Y-9185293D02*
X1531729Y-9137674D01*
X1531729Y-9137674D02*
X1541253Y-9099579D01*
X1541253Y-9099579D02*
X1550777Y-9080531D01*
X1550777Y-9080531D02*
X1560301Y-9071008D01*
X1560301Y-9071008D02*
X1579348Y-9061484D01*
X1722206Y-9080531D02*
X1731729Y-9071008D01*
X1731729Y-9071008D02*
X1750777Y-9061484D01*
X1750777Y-9061484D02*
X1798396Y-9061484D01*
X1798396Y-9061484D02*
X1817444Y-9071008D01*
X1817444Y-9071008D02*
X1826967Y-9080531D01*
X1826967Y-9080531D02*
X1836491Y-9099579D01*
X1836491Y-9099579D02*
X1836491Y-9118627D01*
X1836491Y-9118627D02*
X1826967Y-9147198D01*
X1826967Y-9147198D02*
X1712682Y-9261484D01*
X1712682Y-9261484D02*
X1836491Y-9261484D01*
X2017444Y-9061484D02*
X1922206Y-9061484D01*
X1922206Y-9061484D02*
X1912682Y-9156722D01*
X1912682Y-9156722D02*
X1922206Y-9147198D01*
X1922206Y-9147198D02*
X1941253Y-9137674D01*
X1941253Y-9137674D02*
X1988872Y-9137674D01*
X1988872Y-9137674D02*
X2007920Y-9147198D01*
X2007920Y-9147198D02*
X2017444Y-9156722D01*
X2017444Y-9156722D02*
X2026967Y-9175770D01*
X2026967Y-9175770D02*
X2026967Y-9223389D01*
X2026967Y-9223389D02*
X2017444Y-9242436D01*
X2017444Y-9242436D02*
X2007920Y-9251960D01*
X2007920Y-9251960D02*
X1988872Y-9261484D01*
X1988872Y-9261484D02*
X1941253Y-9261484D01*
X1941253Y-9261484D02*
X1922206Y-9251960D01*
X1922206Y-9251960D02*
X1912682Y-9242436D01*
X2198396Y-9061484D02*
X2160301Y-9061484D01*
X2160301Y-9061484D02*
X2141253Y-9071008D01*
X2141253Y-9071008D02*
X2131729Y-9080531D01*
X2131729Y-9080531D02*
X2112682Y-9109103D01*
X2112682Y-9109103D02*
X2103158Y-9147198D01*
X2103158Y-9147198D02*
X2103158Y-9223389D01*
X2103158Y-9223389D02*
X2112682Y-9242436D01*
X2112682Y-9242436D02*
X2122206Y-9251960D01*
X2122206Y-9251960D02*
X2141253Y-9261484D01*
X2141253Y-9261484D02*
X2179349Y-9261484D01*
X2179349Y-9261484D02*
X2198396Y-9251960D01*
X2198396Y-9251960D02*
X2207920Y-9242436D01*
X2207920Y-9242436D02*
X2217444Y-9223389D01*
X2217444Y-9223389D02*
X2217444Y-9175770D01*
X2217444Y-9175770D02*
X2207920Y-9156722D01*
X2207920Y-9156722D02*
X2198396Y-9147198D01*
X2198396Y-9147198D02*
X2179349Y-9137674D01*
X2179349Y-9137674D02*
X2141253Y-9137674D01*
X2141253Y-9137674D02*
X2122206Y-9147198D01*
X2122206Y-9147198D02*
X2112682Y-9156722D01*
X2112682Y-9156722D02*
X2103158Y-9175770D01*
X2293634Y-9061484D02*
X2293634Y-9099579D01*
X2369825Y-9061484D02*
X2369825Y-9099579D01*
X2665063Y-9337674D02*
X2655539Y-9328150D01*
X2655539Y-9328150D02*
X2636491Y-9299579D01*
X2636491Y-9299579D02*
X2626968Y-9280531D01*
X2626968Y-9280531D02*
X2617444Y-9251960D01*
X2617444Y-9251960D02*
X2607920Y-9204341D01*
X2607920Y-9204341D02*
X2607920Y-9166246D01*
X2607920Y-9166246D02*
X2617444Y-9118627D01*
X2617444Y-9118627D02*
X2626968Y-9090055D01*
X2626968Y-9090055D02*
X2636491Y-9071008D01*
X2636491Y-9071008D02*
X2655539Y-9042436D01*
X2655539Y-9042436D02*
X2665063Y-9032912D01*
X2826968Y-9128150D02*
X2826968Y-9261484D01*
X2779349Y-9051960D02*
X2731730Y-9194817D01*
X2731730Y-9194817D02*
X2855539Y-9194817D01*
X3084110Y-9261484D02*
X3084110Y-9061484D01*
X3169825Y-9261484D02*
X3169825Y-9156722D01*
X3169825Y-9156722D02*
X3160301Y-9137674D01*
X3160301Y-9137674D02*
X3141253Y-9128150D01*
X3141253Y-9128150D02*
X3112682Y-9128150D01*
X3112682Y-9128150D02*
X3093634Y-9137674D01*
X3093634Y-9137674D02*
X3084110Y-9147198D01*
X3293634Y-9261484D02*
X3274587Y-9251960D01*
X3274587Y-9251960D02*
X3265063Y-9242436D01*
X3265063Y-9242436D02*
X3255539Y-9223389D01*
X3255539Y-9223389D02*
X3255539Y-9166246D01*
X3255539Y-9166246D02*
X3265063Y-9147198D01*
X3265063Y-9147198D02*
X3274587Y-9137674D01*
X3274587Y-9137674D02*
X3293634Y-9128150D01*
X3293634Y-9128150D02*
X3322206Y-9128150D01*
X3322206Y-9128150D02*
X3341253Y-9137674D01*
X3341253Y-9137674D02*
X3350777Y-9147198D01*
X3350777Y-9147198D02*
X3360301Y-9166246D01*
X3360301Y-9166246D02*
X3360301Y-9223389D01*
X3360301Y-9223389D02*
X3350777Y-9242436D01*
X3350777Y-9242436D02*
X3341253Y-9251960D01*
X3341253Y-9251960D02*
X3322206Y-9261484D01*
X3322206Y-9261484D02*
X3293634Y-9261484D01*
X3474587Y-9261484D02*
X3455539Y-9251960D01*
X3455539Y-9251960D02*
X3446015Y-9232912D01*
X3446015Y-9232912D02*
X3446015Y-9061484D01*
X3626968Y-9251960D02*
X3607920Y-9261484D01*
X3607920Y-9261484D02*
X3569825Y-9261484D01*
X3569825Y-9261484D02*
X3550777Y-9251960D01*
X3550777Y-9251960D02*
X3541253Y-9232912D01*
X3541253Y-9232912D02*
X3541253Y-9156722D01*
X3541253Y-9156722D02*
X3550777Y-9137674D01*
X3550777Y-9137674D02*
X3569825Y-9128150D01*
X3569825Y-9128150D02*
X3607920Y-9128150D01*
X3607920Y-9128150D02*
X3626968Y-9137674D01*
X3626968Y-9137674D02*
X3636491Y-9156722D01*
X3636491Y-9156722D02*
X3636491Y-9175770D01*
X3636491Y-9175770D02*
X3541253Y-9194817D01*
X3712682Y-9251960D02*
X3731730Y-9261484D01*
X3731730Y-9261484D02*
X3769825Y-9261484D01*
X3769825Y-9261484D02*
X3788872Y-9251960D01*
X3788872Y-9251960D02*
X3798396Y-9232912D01*
X3798396Y-9232912D02*
X3798396Y-9223389D01*
X3798396Y-9223389D02*
X3788872Y-9204341D01*
X3788872Y-9204341D02*
X3769825Y-9194817D01*
X3769825Y-9194817D02*
X3741253Y-9194817D01*
X3741253Y-9194817D02*
X3722206Y-9185293D01*
X3722206Y-9185293D02*
X3712682Y-9166246D01*
X3712682Y-9166246D02*
X3712682Y-9156722D01*
X3712682Y-9156722D02*
X3722206Y-9137674D01*
X3722206Y-9137674D02*
X3741253Y-9128150D01*
X3741253Y-9128150D02*
X3769825Y-9128150D01*
X3769825Y-9128150D02*
X3788872Y-9137674D01*
X3865063Y-9337674D02*
X3874587Y-9328150D01*
X3874587Y-9328150D02*
X3893634Y-9299579D01*
X3893634Y-9299579D02*
X3903158Y-9280531D01*
X3903158Y-9280531D02*
X3912682Y-9251960D01*
X3912682Y-9251960D02*
X3922206Y-9204341D01*
X3922206Y-9204341D02*
X3922206Y-9166246D01*
X3922206Y-9166246D02*
X3912682Y-9118627D01*
X3912682Y-9118627D02*
X3903158Y-9090055D01*
X3903158Y-9090055D02*
X3893634Y-9071008D01*
X3893634Y-9071008D02*
X3874587Y-9042436D01*
X3874587Y-9042436D02*
X3865063Y-9032912D01*
X4226968Y-9337674D02*
X4217444Y-9328150D01*
X4217444Y-9328150D02*
X4198396Y-9299579D01*
X4198396Y-9299579D02*
X4188872Y-9280531D01*
X4188872Y-9280531D02*
X4179349Y-9251960D01*
X4179349Y-9251960D02*
X4169825Y-9204341D01*
X4169825Y-9204341D02*
X4169825Y-9166246D01*
X4169825Y-9166246D02*
X4179349Y-9118627D01*
X4179349Y-9118627D02*
X4188872Y-9090055D01*
X4188872Y-9090055D02*
X4198396Y-9071008D01*
X4198396Y-9071008D02*
X4217444Y-9042436D01*
X4217444Y-9042436D02*
X4226968Y-9032912D01*
X4303158Y-9128150D02*
X4303158Y-9261484D01*
X4303158Y-9147198D02*
X4312682Y-9137674D01*
X4312682Y-9137674D02*
X4331730Y-9128150D01*
X4331730Y-9128150D02*
X4360301Y-9128150D01*
X4360301Y-9128150D02*
X4379349Y-9137674D01*
X4379349Y-9137674D02*
X4388873Y-9156722D01*
X4388873Y-9156722D02*
X4388873Y-9261484D01*
X4512682Y-9261484D02*
X4493634Y-9251960D01*
X4493634Y-9251960D02*
X4484111Y-9242436D01*
X4484111Y-9242436D02*
X4474587Y-9223389D01*
X4474587Y-9223389D02*
X4474587Y-9166246D01*
X4474587Y-9166246D02*
X4484111Y-9147198D01*
X4484111Y-9147198D02*
X4493634Y-9137674D01*
X4493634Y-9137674D02*
X4512682Y-9128150D01*
X4512682Y-9128150D02*
X4541254Y-9128150D01*
X4541254Y-9128150D02*
X4560301Y-9137674D01*
X4560301Y-9137674D02*
X4569825Y-9147198D01*
X4569825Y-9147198D02*
X4579349Y-9166246D01*
X4579349Y-9166246D02*
X4579349Y-9223389D01*
X4579349Y-9223389D02*
X4569825Y-9242436D01*
X4569825Y-9242436D02*
X4560301Y-9251960D01*
X4560301Y-9251960D02*
X4541254Y-9261484D01*
X4541254Y-9261484D02*
X4512682Y-9261484D01*
X4636492Y-9128150D02*
X4712682Y-9128150D01*
X4665063Y-9061484D02*
X4665063Y-9232912D01*
X4665063Y-9232912D02*
X4674587Y-9251960D01*
X4674587Y-9251960D02*
X4693634Y-9261484D01*
X4693634Y-9261484D02*
X4712682Y-9261484D01*
X4931730Y-9128150D02*
X4931730Y-9328150D01*
X4931730Y-9137674D02*
X4950777Y-9128150D01*
X4950777Y-9128150D02*
X4988873Y-9128150D01*
X4988873Y-9128150D02*
X5007920Y-9137674D01*
X5007920Y-9137674D02*
X5017444Y-9147198D01*
X5017444Y-9147198D02*
X5026968Y-9166246D01*
X5026968Y-9166246D02*
X5026968Y-9223389D01*
X5026968Y-9223389D02*
X5017444Y-9242436D01*
X5017444Y-9242436D02*
X5007920Y-9251960D01*
X5007920Y-9251960D02*
X4988873Y-9261484D01*
X4988873Y-9261484D02*
X4950777Y-9261484D01*
X4950777Y-9261484D02*
X4931730Y-9251960D01*
X5141254Y-9261484D02*
X5122206Y-9251960D01*
X5122206Y-9251960D02*
X5112682Y-9232912D01*
X5112682Y-9232912D02*
X5112682Y-9061484D01*
X5303158Y-9261484D02*
X5303158Y-9156722D01*
X5303158Y-9156722D02*
X5293635Y-9137674D01*
X5293635Y-9137674D02*
X5274587Y-9128150D01*
X5274587Y-9128150D02*
X5236492Y-9128150D01*
X5236492Y-9128150D02*
X5217444Y-9137674D01*
X5303158Y-9251960D02*
X5284111Y-9261484D01*
X5284111Y-9261484D02*
X5236492Y-9261484D01*
X5236492Y-9261484D02*
X5217444Y-9251960D01*
X5217444Y-9251960D02*
X5207920Y-9232912D01*
X5207920Y-9232912D02*
X5207920Y-9213865D01*
X5207920Y-9213865D02*
X5217444Y-9194817D01*
X5217444Y-9194817D02*
X5236492Y-9185293D01*
X5236492Y-9185293D02*
X5284111Y-9185293D01*
X5284111Y-9185293D02*
X5303158Y-9175770D01*
X5369825Y-9128150D02*
X5446015Y-9128150D01*
X5398396Y-9061484D02*
X5398396Y-9232912D01*
X5398396Y-9232912D02*
X5407920Y-9251960D01*
X5407920Y-9251960D02*
X5426968Y-9261484D01*
X5426968Y-9261484D02*
X5446015Y-9261484D01*
X5588873Y-9251960D02*
X5569825Y-9261484D01*
X5569825Y-9261484D02*
X5531730Y-9261484D01*
X5531730Y-9261484D02*
X5512682Y-9251960D01*
X5512682Y-9251960D02*
X5503158Y-9232912D01*
X5503158Y-9232912D02*
X5503158Y-9156722D01*
X5503158Y-9156722D02*
X5512682Y-9137674D01*
X5512682Y-9137674D02*
X5531730Y-9128150D01*
X5531730Y-9128150D02*
X5569825Y-9128150D01*
X5569825Y-9128150D02*
X5588873Y-9137674D01*
X5588873Y-9137674D02*
X5598396Y-9156722D01*
X5598396Y-9156722D02*
X5598396Y-9175770D01*
X5598396Y-9175770D02*
X5503158Y-9194817D01*
X5769825Y-9261484D02*
X5769825Y-9061484D01*
X5769825Y-9251960D02*
X5750777Y-9261484D01*
X5750777Y-9261484D02*
X5712682Y-9261484D01*
X5712682Y-9261484D02*
X5693634Y-9251960D01*
X5693634Y-9251960D02*
X5684111Y-9242436D01*
X5684111Y-9242436D02*
X5674587Y-9223389D01*
X5674587Y-9223389D02*
X5674587Y-9166246D01*
X5674587Y-9166246D02*
X5684111Y-9147198D01*
X5684111Y-9147198D02*
X5693634Y-9137674D01*
X5693634Y-9137674D02*
X5712682Y-9128150D01*
X5712682Y-9128150D02*
X5750777Y-9128150D01*
X5750777Y-9128150D02*
X5769825Y-9137674D01*
X5846015Y-9337674D02*
X5855539Y-9328150D01*
X5855539Y-9328150D02*
X5874587Y-9299579D01*
X5874587Y-9299579D02*
X5884111Y-9280531D01*
X5884111Y-9280531D02*
X5893634Y-9251960D01*
X5893634Y-9251960D02*
X5903158Y-9204341D01*
X5903158Y-9204341D02*
X5903158Y-9166246D01*
X5903158Y-9166246D02*
X5893634Y-9118627D01*
X5893634Y-9118627D02*
X5884111Y-9090055D01*
X5884111Y-9090055D02*
X5874587Y-9071008D01*
X5874587Y-9071008D02*
X5855539Y-9042436D01*
X5855539Y-9042436D02*
X5846015Y-9032912D01*
D12*
X-910000Y-9434000D02*
G75*
G02*
X-1085000Y-9434000I-87500J0D01*
G01*
X-1085000Y-9434000D02*
G75*
G02*
X-910000Y-9434000I87500J0D01*
G01*
D10*
X-544461Y-9525484D02*
X-658747Y-9525484D01*
X-601604Y-9525484D02*
X-601604Y-9325484D01*
X-601604Y-9325484D02*
X-620652Y-9354055D01*
X-620652Y-9354055D02*
X-639699Y-9373103D01*
X-639699Y-9373103D02*
X-658747Y-9382627D01*
X-458747Y-9506436D02*
X-449223Y-9515960D01*
X-449223Y-9515960D02*
X-458747Y-9525484D01*
X-458747Y-9525484D02*
X-468271Y-9515960D01*
X-468271Y-9515960D02*
X-458747Y-9506436D01*
X-458747Y-9506436D02*
X-458747Y-9525484D01*
X-382556Y-9325484D02*
X-249223Y-9325484D01*
X-249223Y-9325484D02*
X-334937Y-9525484D01*
X-77795Y-9325484D02*
X-173033Y-9325484D01*
X-173033Y-9325484D02*
X-182556Y-9420722D01*
X-182556Y-9420722D02*
X-173033Y-9411198D01*
X-173033Y-9411198D02*
X-153985Y-9401674D01*
X-153985Y-9401674D02*
X-106366Y-9401674D01*
X-106366Y-9401674D02*
X-87318Y-9411198D01*
X-87318Y-9411198D02*
X-77795Y-9420722D01*
X-77795Y-9420722D02*
X-68271Y-9439770D01*
X-68271Y-9439770D02*
X-68271Y-9487389D01*
X-68271Y-9487389D02*
X-77795Y-9506436D01*
X-77795Y-9506436D02*
X-87318Y-9515960D01*
X-87318Y-9515960D02*
X-106366Y-9525484D01*
X-106366Y-9525484D02*
X-153985Y-9525484D01*
X-153985Y-9525484D02*
X-173033Y-9515960D01*
X-173033Y-9515960D02*
X-182556Y-9506436D01*
X55539Y-9325484D02*
X74586Y-9325484D01*
X74586Y-9325484D02*
X93634Y-9335008D01*
X93634Y-9335008D02*
X103158Y-9344531D01*
X103158Y-9344531D02*
X112682Y-9363579D01*
X112682Y-9363579D02*
X122205Y-9401674D01*
X122205Y-9401674D02*
X122205Y-9449293D01*
X122205Y-9449293D02*
X112682Y-9487389D01*
X112682Y-9487389D02*
X103158Y-9506436D01*
X103158Y-9506436D02*
X93634Y-9515960D01*
X93634Y-9515960D02*
X74586Y-9525484D01*
X74586Y-9525484D02*
X55539Y-9525484D01*
X55539Y-9525484D02*
X36491Y-9515960D01*
X36491Y-9515960D02*
X26967Y-9506436D01*
X26967Y-9506436D02*
X17444Y-9487389D01*
X17444Y-9487389D02*
X7920Y-9449293D01*
X7920Y-9449293D02*
X7920Y-9401674D01*
X7920Y-9401674D02*
X17444Y-9363579D01*
X17444Y-9363579D02*
X26967Y-9344531D01*
X26967Y-9344531D02*
X36491Y-9335008D01*
X36491Y-9335008D02*
X55539Y-9325484D01*
X207920Y-9525484D02*
X207920Y-9392150D01*
X207920Y-9411198D02*
X217443Y-9401674D01*
X217443Y-9401674D02*
X236491Y-9392150D01*
X236491Y-9392150D02*
X265063Y-9392150D01*
X265063Y-9392150D02*
X284110Y-9401674D01*
X284110Y-9401674D02*
X293634Y-9420722D01*
X293634Y-9420722D02*
X293634Y-9525484D01*
X293634Y-9420722D02*
X303158Y-9401674D01*
X303158Y-9401674D02*
X322205Y-9392150D01*
X322205Y-9392150D02*
X350777Y-9392150D01*
X350777Y-9392150D02*
X369824Y-9401674D01*
X369824Y-9401674D02*
X379348Y-9420722D01*
X379348Y-9420722D02*
X379348Y-9525484D01*
X474586Y-9525484D02*
X474586Y-9392150D01*
X474586Y-9411198D02*
X484110Y-9401674D01*
X484110Y-9401674D02*
X503158Y-9392150D01*
X503158Y-9392150D02*
X531729Y-9392150D01*
X531729Y-9392150D02*
X550777Y-9401674D01*
X550777Y-9401674D02*
X560301Y-9420722D01*
X560301Y-9420722D02*
X560301Y-9525484D01*
X560301Y-9420722D02*
X569825Y-9401674D01*
X569825Y-9401674D02*
X588872Y-9392150D01*
X588872Y-9392150D02*
X617444Y-9392150D01*
X617444Y-9392150D02*
X636491Y-9401674D01*
X636491Y-9401674D02*
X646015Y-9420722D01*
X646015Y-9420722D02*
X646015Y-9525484D01*
X1036491Y-9315960D02*
X865063Y-9573103D01*
X1293634Y-9325484D02*
X1312682Y-9325484D01*
X1312682Y-9325484D02*
X1331729Y-9335008D01*
X1331729Y-9335008D02*
X1341253Y-9344531D01*
X1341253Y-9344531D02*
X1350777Y-9363579D01*
X1350777Y-9363579D02*
X1360301Y-9401674D01*
X1360301Y-9401674D02*
X1360301Y-9449293D01*
X1360301Y-9449293D02*
X1350777Y-9487389D01*
X1350777Y-9487389D02*
X1341253Y-9506436D01*
X1341253Y-9506436D02*
X1331729Y-9515960D01*
X1331729Y-9515960D02*
X1312682Y-9525484D01*
X1312682Y-9525484D02*
X1293634Y-9525484D01*
X1293634Y-9525484D02*
X1274587Y-9515960D01*
X1274587Y-9515960D02*
X1265063Y-9506436D01*
X1265063Y-9506436D02*
X1255539Y-9487389D01*
X1255539Y-9487389D02*
X1246015Y-9449293D01*
X1246015Y-9449293D02*
X1246015Y-9401674D01*
X1246015Y-9401674D02*
X1255539Y-9363579D01*
X1255539Y-9363579D02*
X1265063Y-9344531D01*
X1265063Y-9344531D02*
X1274587Y-9335008D01*
X1274587Y-9335008D02*
X1293634Y-9325484D01*
X1446015Y-9506436D02*
X1455539Y-9515960D01*
X1455539Y-9515960D02*
X1446015Y-9525484D01*
X1446015Y-9525484D02*
X1436491Y-9515960D01*
X1436491Y-9515960D02*
X1446015Y-9506436D01*
X1446015Y-9506436D02*
X1446015Y-9525484D01*
X1579348Y-9325484D02*
X1598396Y-9325484D01*
X1598396Y-9325484D02*
X1617444Y-9335008D01*
X1617444Y-9335008D02*
X1626967Y-9344531D01*
X1626967Y-9344531D02*
X1636491Y-9363579D01*
X1636491Y-9363579D02*
X1646015Y-9401674D01*
X1646015Y-9401674D02*
X1646015Y-9449293D01*
X1646015Y-9449293D02*
X1636491Y-9487389D01*
X1636491Y-9487389D02*
X1626967Y-9506436D01*
X1626967Y-9506436D02*
X1617444Y-9515960D01*
X1617444Y-9515960D02*
X1598396Y-9525484D01*
X1598396Y-9525484D02*
X1579348Y-9525484D01*
X1579348Y-9525484D02*
X1560301Y-9515960D01*
X1560301Y-9515960D02*
X1550777Y-9506436D01*
X1550777Y-9506436D02*
X1541253Y-9487389D01*
X1541253Y-9487389D02*
X1531729Y-9449293D01*
X1531729Y-9449293D02*
X1531729Y-9401674D01*
X1531729Y-9401674D02*
X1541253Y-9363579D01*
X1541253Y-9363579D02*
X1550777Y-9344531D01*
X1550777Y-9344531D02*
X1560301Y-9335008D01*
X1560301Y-9335008D02*
X1579348Y-9325484D01*
X1817444Y-9325484D02*
X1779348Y-9325484D01*
X1779348Y-9325484D02*
X1760301Y-9335008D01*
X1760301Y-9335008D02*
X1750777Y-9344531D01*
X1750777Y-9344531D02*
X1731729Y-9373103D01*
X1731729Y-9373103D02*
X1722206Y-9411198D01*
X1722206Y-9411198D02*
X1722206Y-9487389D01*
X1722206Y-9487389D02*
X1731729Y-9506436D01*
X1731729Y-9506436D02*
X1741253Y-9515960D01*
X1741253Y-9515960D02*
X1760301Y-9525484D01*
X1760301Y-9525484D02*
X1798396Y-9525484D01*
X1798396Y-9525484D02*
X1817444Y-9515960D01*
X1817444Y-9515960D02*
X1826967Y-9506436D01*
X1826967Y-9506436D02*
X1836491Y-9487389D01*
X1836491Y-9487389D02*
X1836491Y-9439770D01*
X1836491Y-9439770D02*
X1826967Y-9420722D01*
X1826967Y-9420722D02*
X1817444Y-9411198D01*
X1817444Y-9411198D02*
X1798396Y-9401674D01*
X1798396Y-9401674D02*
X1760301Y-9401674D01*
X1760301Y-9401674D02*
X1741253Y-9411198D01*
X1741253Y-9411198D02*
X1731729Y-9420722D01*
X1731729Y-9420722D02*
X1722206Y-9439770D01*
X1950777Y-9411198D02*
X1931729Y-9401674D01*
X1931729Y-9401674D02*
X1922206Y-9392150D01*
X1922206Y-9392150D02*
X1912682Y-9373103D01*
X1912682Y-9373103D02*
X1912682Y-9363579D01*
X1912682Y-9363579D02*
X1922206Y-9344531D01*
X1922206Y-9344531D02*
X1931729Y-9335008D01*
X1931729Y-9335008D02*
X1950777Y-9325484D01*
X1950777Y-9325484D02*
X1988872Y-9325484D01*
X1988872Y-9325484D02*
X2007920Y-9335008D01*
X2007920Y-9335008D02*
X2017444Y-9344531D01*
X2017444Y-9344531D02*
X2026967Y-9363579D01*
X2026967Y-9363579D02*
X2026967Y-9373103D01*
X2026967Y-9373103D02*
X2017444Y-9392150D01*
X2017444Y-9392150D02*
X2007920Y-9401674D01*
X2007920Y-9401674D02*
X1988872Y-9411198D01*
X1988872Y-9411198D02*
X1950777Y-9411198D01*
X1950777Y-9411198D02*
X1931729Y-9420722D01*
X1931729Y-9420722D02*
X1922206Y-9430246D01*
X1922206Y-9430246D02*
X1912682Y-9449293D01*
X1912682Y-9449293D02*
X1912682Y-9487389D01*
X1912682Y-9487389D02*
X1922206Y-9506436D01*
X1922206Y-9506436D02*
X1931729Y-9515960D01*
X1931729Y-9515960D02*
X1950777Y-9525484D01*
X1950777Y-9525484D02*
X1988872Y-9525484D01*
X1988872Y-9525484D02*
X2007920Y-9515960D01*
X2007920Y-9515960D02*
X2017444Y-9506436D01*
X2017444Y-9506436D02*
X2026967Y-9487389D01*
X2026967Y-9487389D02*
X2026967Y-9449293D01*
X2026967Y-9449293D02*
X2017444Y-9430246D01*
X2017444Y-9430246D02*
X2007920Y-9420722D01*
X2007920Y-9420722D02*
X1988872Y-9411198D01*
X2122206Y-9525484D02*
X2160301Y-9525484D01*
X2160301Y-9525484D02*
X2179349Y-9515960D01*
X2179349Y-9515960D02*
X2188872Y-9506436D01*
X2188872Y-9506436D02*
X2207920Y-9477865D01*
X2207920Y-9477865D02*
X2217444Y-9439770D01*
X2217444Y-9439770D02*
X2217444Y-9363579D01*
X2217444Y-9363579D02*
X2207920Y-9344531D01*
X2207920Y-9344531D02*
X2198396Y-9335008D01*
X2198396Y-9335008D02*
X2179349Y-9325484D01*
X2179349Y-9325484D02*
X2141253Y-9325484D01*
X2141253Y-9325484D02*
X2122206Y-9335008D01*
X2122206Y-9335008D02*
X2112682Y-9344531D01*
X2112682Y-9344531D02*
X2103158Y-9363579D01*
X2103158Y-9363579D02*
X2103158Y-9411198D01*
X2103158Y-9411198D02*
X2112682Y-9430246D01*
X2112682Y-9430246D02*
X2122206Y-9439770D01*
X2122206Y-9439770D02*
X2141253Y-9449293D01*
X2141253Y-9449293D02*
X2179349Y-9449293D01*
X2179349Y-9449293D02*
X2198396Y-9439770D01*
X2198396Y-9439770D02*
X2207920Y-9430246D01*
X2207920Y-9430246D02*
X2217444Y-9411198D01*
X2293634Y-9325484D02*
X2293634Y-9363579D01*
X2369825Y-9325484D02*
X2369825Y-9363579D01*
X2665063Y-9601674D02*
X2655539Y-9592150D01*
X2655539Y-9592150D02*
X2636491Y-9563579D01*
X2636491Y-9563579D02*
X2626968Y-9544531D01*
X2626968Y-9544531D02*
X2617444Y-9515960D01*
X2617444Y-9515960D02*
X2607920Y-9468341D01*
X2607920Y-9468341D02*
X2607920Y-9430246D01*
X2607920Y-9430246D02*
X2617444Y-9382627D01*
X2617444Y-9382627D02*
X2626968Y-9354055D01*
X2626968Y-9354055D02*
X2636491Y-9335008D01*
X2636491Y-9335008D02*
X2655539Y-9306436D01*
X2655539Y-9306436D02*
X2665063Y-9296912D01*
X2846015Y-9525484D02*
X2731730Y-9525484D01*
X2788872Y-9525484D02*
X2788872Y-9325484D01*
X2788872Y-9325484D02*
X2769825Y-9354055D01*
X2769825Y-9354055D02*
X2750777Y-9373103D01*
X2750777Y-9373103D02*
X2731730Y-9382627D01*
X3026968Y-9325484D02*
X2931729Y-9325484D01*
X2931729Y-9325484D02*
X2922206Y-9420722D01*
X2922206Y-9420722D02*
X2931729Y-9411198D01*
X2931729Y-9411198D02*
X2950777Y-9401674D01*
X2950777Y-9401674D02*
X2998396Y-9401674D01*
X2998396Y-9401674D02*
X3017444Y-9411198D01*
X3017444Y-9411198D02*
X3026968Y-9420722D01*
X3026968Y-9420722D02*
X3036491Y-9439770D01*
X3036491Y-9439770D02*
X3036491Y-9487389D01*
X3036491Y-9487389D02*
X3026968Y-9506436D01*
X3026968Y-9506436D02*
X3017444Y-9515960D01*
X3017444Y-9515960D02*
X2998396Y-9525484D01*
X2998396Y-9525484D02*
X2950777Y-9525484D01*
X2950777Y-9525484D02*
X2931729Y-9515960D01*
X2931729Y-9515960D02*
X2922206Y-9506436D01*
X3207920Y-9392150D02*
X3207920Y-9525484D01*
X3160301Y-9315960D02*
X3112682Y-9458817D01*
X3112682Y-9458817D02*
X3236491Y-9458817D01*
X3465063Y-9525484D02*
X3465063Y-9325484D01*
X3550777Y-9525484D02*
X3550777Y-9420722D01*
X3550777Y-9420722D02*
X3541253Y-9401674D01*
X3541253Y-9401674D02*
X3522206Y-9392150D01*
X3522206Y-9392150D02*
X3493634Y-9392150D01*
X3493634Y-9392150D02*
X3474587Y-9401674D01*
X3474587Y-9401674D02*
X3465063Y-9411198D01*
X3674587Y-9525484D02*
X3655539Y-9515960D01*
X3655539Y-9515960D02*
X3646015Y-9506436D01*
X3646015Y-9506436D02*
X3636491Y-9487389D01*
X3636491Y-9487389D02*
X3636491Y-9430246D01*
X3636491Y-9430246D02*
X3646015Y-9411198D01*
X3646015Y-9411198D02*
X3655539Y-9401674D01*
X3655539Y-9401674D02*
X3674587Y-9392150D01*
X3674587Y-9392150D02*
X3703158Y-9392150D01*
X3703158Y-9392150D02*
X3722206Y-9401674D01*
X3722206Y-9401674D02*
X3731730Y-9411198D01*
X3731730Y-9411198D02*
X3741253Y-9430246D01*
X3741253Y-9430246D02*
X3741253Y-9487389D01*
X3741253Y-9487389D02*
X3731730Y-9506436D01*
X3731730Y-9506436D02*
X3722206Y-9515960D01*
X3722206Y-9515960D02*
X3703158Y-9525484D01*
X3703158Y-9525484D02*
X3674587Y-9525484D01*
X3855539Y-9525484D02*
X3836491Y-9515960D01*
X3836491Y-9515960D02*
X3826968Y-9496912D01*
X3826968Y-9496912D02*
X3826968Y-9325484D01*
X4007920Y-9515960D02*
X3988872Y-9525484D01*
X3988872Y-9525484D02*
X3950777Y-9525484D01*
X3950777Y-9525484D02*
X3931730Y-9515960D01*
X3931730Y-9515960D02*
X3922206Y-9496912D01*
X3922206Y-9496912D02*
X3922206Y-9420722D01*
X3922206Y-9420722D02*
X3931730Y-9401674D01*
X3931730Y-9401674D02*
X3950777Y-9392150D01*
X3950777Y-9392150D02*
X3988872Y-9392150D01*
X3988872Y-9392150D02*
X4007920Y-9401674D01*
X4007920Y-9401674D02*
X4017444Y-9420722D01*
X4017444Y-9420722D02*
X4017444Y-9439770D01*
X4017444Y-9439770D02*
X3922206Y-9458817D01*
X4093634Y-9515960D02*
X4112682Y-9525484D01*
X4112682Y-9525484D02*
X4150777Y-9525484D01*
X4150777Y-9525484D02*
X4169825Y-9515960D01*
X4169825Y-9515960D02*
X4179349Y-9496912D01*
X4179349Y-9496912D02*
X4179349Y-9487389D01*
X4179349Y-9487389D02*
X4169825Y-9468341D01*
X4169825Y-9468341D02*
X4150777Y-9458817D01*
X4150777Y-9458817D02*
X4122206Y-9458817D01*
X4122206Y-9458817D02*
X4103158Y-9449293D01*
X4103158Y-9449293D02*
X4093634Y-9430246D01*
X4093634Y-9430246D02*
X4093634Y-9420722D01*
X4093634Y-9420722D02*
X4103158Y-9401674D01*
X4103158Y-9401674D02*
X4122206Y-9392150D01*
X4122206Y-9392150D02*
X4150777Y-9392150D01*
X4150777Y-9392150D02*
X4169825Y-9401674D01*
X4246015Y-9601674D02*
X4255539Y-9592150D01*
X4255539Y-9592150D02*
X4274587Y-9563579D01*
X4274587Y-9563579D02*
X4284111Y-9544531D01*
X4284111Y-9544531D02*
X4293634Y-9515960D01*
X4293634Y-9515960D02*
X4303158Y-9468341D01*
X4303158Y-9468341D02*
X4303158Y-9430246D01*
X4303158Y-9430246D02*
X4293634Y-9382627D01*
X4293634Y-9382627D02*
X4284111Y-9354055D01*
X4284111Y-9354055D02*
X4274587Y-9335008D01*
X4274587Y-9335008D02*
X4255539Y-9306436D01*
X4255539Y-9306436D02*
X4246015Y-9296912D01*
X4607920Y-9601674D02*
X4598396Y-9592150D01*
X4598396Y-9592150D02*
X4579349Y-9563579D01*
X4579349Y-9563579D02*
X4569825Y-9544531D01*
X4569825Y-9544531D02*
X4560301Y-9515960D01*
X4560301Y-9515960D02*
X4550777Y-9468341D01*
X4550777Y-9468341D02*
X4550777Y-9430246D01*
X4550777Y-9430246D02*
X4560301Y-9382627D01*
X4560301Y-9382627D02*
X4569825Y-9354055D01*
X4569825Y-9354055D02*
X4579349Y-9335008D01*
X4579349Y-9335008D02*
X4598396Y-9306436D01*
X4598396Y-9306436D02*
X4607920Y-9296912D01*
X4684111Y-9392150D02*
X4684111Y-9525484D01*
X4684111Y-9411198D02*
X4693634Y-9401674D01*
X4693634Y-9401674D02*
X4712682Y-9392150D01*
X4712682Y-9392150D02*
X4741254Y-9392150D01*
X4741254Y-9392150D02*
X4760301Y-9401674D01*
X4760301Y-9401674D02*
X4769825Y-9420722D01*
X4769825Y-9420722D02*
X4769825Y-9525484D01*
X4893634Y-9525484D02*
X4874587Y-9515960D01*
X4874587Y-9515960D02*
X4865063Y-9506436D01*
X4865063Y-9506436D02*
X4855539Y-9487389D01*
X4855539Y-9487389D02*
X4855539Y-9430246D01*
X4855539Y-9430246D02*
X4865063Y-9411198D01*
X4865063Y-9411198D02*
X4874587Y-9401674D01*
X4874587Y-9401674D02*
X4893634Y-9392150D01*
X4893634Y-9392150D02*
X4922206Y-9392150D01*
X4922206Y-9392150D02*
X4941254Y-9401674D01*
X4941254Y-9401674D02*
X4950777Y-9411198D01*
X4950777Y-9411198D02*
X4960301Y-9430246D01*
X4960301Y-9430246D02*
X4960301Y-9487389D01*
X4960301Y-9487389D02*
X4950777Y-9506436D01*
X4950777Y-9506436D02*
X4941254Y-9515960D01*
X4941254Y-9515960D02*
X4922206Y-9525484D01*
X4922206Y-9525484D02*
X4893634Y-9525484D01*
X5017444Y-9392150D02*
X5093634Y-9392150D01*
X5046015Y-9325484D02*
X5046015Y-9496912D01*
X5046015Y-9496912D02*
X5055539Y-9515960D01*
X5055539Y-9515960D02*
X5074587Y-9525484D01*
X5074587Y-9525484D02*
X5093634Y-9525484D01*
X5312682Y-9392150D02*
X5312682Y-9592150D01*
X5312682Y-9401674D02*
X5331730Y-9392150D01*
X5331730Y-9392150D02*
X5369825Y-9392150D01*
X5369825Y-9392150D02*
X5388873Y-9401674D01*
X5388873Y-9401674D02*
X5398396Y-9411198D01*
X5398396Y-9411198D02*
X5407920Y-9430246D01*
X5407920Y-9430246D02*
X5407920Y-9487389D01*
X5407920Y-9487389D02*
X5398396Y-9506436D01*
X5398396Y-9506436D02*
X5388873Y-9515960D01*
X5388873Y-9515960D02*
X5369825Y-9525484D01*
X5369825Y-9525484D02*
X5331730Y-9525484D01*
X5331730Y-9525484D02*
X5312682Y-9515960D01*
X5522206Y-9525484D02*
X5503158Y-9515960D01*
X5503158Y-9515960D02*
X5493635Y-9496912D01*
X5493635Y-9496912D02*
X5493635Y-9325484D01*
X5684111Y-9525484D02*
X5684111Y-9420722D01*
X5684111Y-9420722D02*
X5674587Y-9401674D01*
X5674587Y-9401674D02*
X5655539Y-9392150D01*
X5655539Y-9392150D02*
X5617444Y-9392150D01*
X5617444Y-9392150D02*
X5598396Y-9401674D01*
X5684111Y-9515960D02*
X5665063Y-9525484D01*
X5665063Y-9525484D02*
X5617444Y-9525484D01*
X5617444Y-9525484D02*
X5598396Y-9515960D01*
X5598396Y-9515960D02*
X5588873Y-9496912D01*
X5588873Y-9496912D02*
X5588873Y-9477865D01*
X5588873Y-9477865D02*
X5598396Y-9458817D01*
X5598396Y-9458817D02*
X5617444Y-9449293D01*
X5617444Y-9449293D02*
X5665063Y-9449293D01*
X5665063Y-9449293D02*
X5684111Y-9439770D01*
X5750777Y-9392150D02*
X5826968Y-9392150D01*
X5779349Y-9325484D02*
X5779349Y-9496912D01*
X5779349Y-9496912D02*
X5788873Y-9515960D01*
X5788873Y-9515960D02*
X5807920Y-9525484D01*
X5807920Y-9525484D02*
X5826968Y-9525484D01*
X5969825Y-9515960D02*
X5950777Y-9525484D01*
X5950777Y-9525484D02*
X5912682Y-9525484D01*
X5912682Y-9525484D02*
X5893634Y-9515960D01*
X5893634Y-9515960D02*
X5884111Y-9496912D01*
X5884111Y-9496912D02*
X5884111Y-9420722D01*
X5884111Y-9420722D02*
X5893634Y-9401674D01*
X5893634Y-9401674D02*
X5912682Y-9392150D01*
X5912682Y-9392150D02*
X5950777Y-9392150D01*
X5950777Y-9392150D02*
X5969825Y-9401674D01*
X5969825Y-9401674D02*
X5979349Y-9420722D01*
X5979349Y-9420722D02*
X5979349Y-9439770D01*
X5979349Y-9439770D02*
X5884111Y-9458817D01*
X6150777Y-9525484D02*
X6150777Y-9325484D01*
X6150777Y-9515960D02*
X6131730Y-9525484D01*
X6131730Y-9525484D02*
X6093634Y-9525484D01*
X6093634Y-9525484D02*
X6074587Y-9515960D01*
X6074587Y-9515960D02*
X6065063Y-9506436D01*
X6065063Y-9506436D02*
X6055539Y-9487389D01*
X6055539Y-9487389D02*
X6055539Y-9430246D01*
X6055539Y-9430246D02*
X6065063Y-9411198D01*
X6065063Y-9411198D02*
X6074587Y-9401674D01*
X6074587Y-9401674D02*
X6093634Y-9392150D01*
X6093634Y-9392150D02*
X6131730Y-9392150D01*
X6131730Y-9392150D02*
X6150777Y-9401674D01*
X6226968Y-9601674D02*
X6236492Y-9592150D01*
X6236492Y-9592150D02*
X6255539Y-9563579D01*
X6255539Y-9563579D02*
X6265063Y-9544531D01*
X6265063Y-9544531D02*
X6274587Y-9515960D01*
X6274587Y-9515960D02*
X6284111Y-9468341D01*
X6284111Y-9468341D02*
X6284111Y-9430246D01*
X6284111Y-9430246D02*
X6274587Y-9382627D01*
X6274587Y-9382627D02*
X6265063Y-9354055D01*
X6265063Y-9354055D02*
X6255539Y-9335008D01*
X6255539Y-9335008D02*
X6236492Y-9306436D01*
X6236492Y-9306436D02*
X6226968Y-9296912D01*
X-1010000Y-9629000D02*
X-1010000Y-9829000D01*
X-1110000Y-9729000D02*
X-910000Y-9729000D01*
X-668271Y-9620484D02*
X-544461Y-9620484D01*
X-544461Y-9620484D02*
X-611128Y-9696674D01*
X-611128Y-9696674D02*
X-582556Y-9696674D01*
X-582556Y-9696674D02*
X-563509Y-9706198D01*
X-563509Y-9706198D02*
X-553985Y-9715722D01*
X-553985Y-9715722D02*
X-544461Y-9734770D01*
X-544461Y-9734770D02*
X-544461Y-9782389D01*
X-544461Y-9782389D02*
X-553985Y-9801436D01*
X-553985Y-9801436D02*
X-563509Y-9810960D01*
X-563509Y-9810960D02*
X-582556Y-9820484D01*
X-582556Y-9820484D02*
X-639699Y-9820484D01*
X-639699Y-9820484D02*
X-658747Y-9810960D01*
X-658747Y-9810960D02*
X-668271Y-9801436D01*
X-458747Y-9801436D02*
X-449223Y-9810960D01*
X-449223Y-9810960D02*
X-458747Y-9820484D01*
X-458747Y-9820484D02*
X-468271Y-9810960D01*
X-468271Y-9810960D02*
X-458747Y-9801436D01*
X-458747Y-9801436D02*
X-458747Y-9820484D01*
X-325414Y-9620484D02*
X-306366Y-9620484D01*
X-306366Y-9620484D02*
X-287318Y-9630008D01*
X-287318Y-9630008D02*
X-277795Y-9639531D01*
X-277795Y-9639531D02*
X-268271Y-9658579D01*
X-268271Y-9658579D02*
X-258747Y-9696674D01*
X-258747Y-9696674D02*
X-258747Y-9744293D01*
X-258747Y-9744293D02*
X-268271Y-9782389D01*
X-268271Y-9782389D02*
X-277795Y-9801436D01*
X-277795Y-9801436D02*
X-287318Y-9810960D01*
X-287318Y-9810960D02*
X-306366Y-9820484D01*
X-306366Y-9820484D02*
X-325414Y-9820484D01*
X-325414Y-9820484D02*
X-344461Y-9810960D01*
X-344461Y-9810960D02*
X-353985Y-9801436D01*
X-353985Y-9801436D02*
X-363509Y-9782389D01*
X-363509Y-9782389D02*
X-373033Y-9744293D01*
X-373033Y-9744293D02*
X-373033Y-9696674D01*
X-373033Y-9696674D02*
X-363509Y-9658579D01*
X-363509Y-9658579D02*
X-353985Y-9639531D01*
X-353985Y-9639531D02*
X-344461Y-9630008D01*
X-344461Y-9630008D02*
X-325414Y-9620484D01*
X-87318Y-9687150D02*
X-87318Y-9820484D01*
X-134937Y-9610960D02*
X-182556Y-9753817D01*
X-182556Y-9753817D02*
X-58747Y-9753817D01*
X46015Y-9706198D02*
X26967Y-9696674D01*
X26967Y-9696674D02*
X17444Y-9687150D01*
X17444Y-9687150D02*
X7920Y-9668103D01*
X7920Y-9668103D02*
X7920Y-9658579D01*
X7920Y-9658579D02*
X17444Y-9639531D01*
X17444Y-9639531D02*
X26967Y-9630008D01*
X26967Y-9630008D02*
X46015Y-9620484D01*
X46015Y-9620484D02*
X84110Y-9620484D01*
X84110Y-9620484D02*
X103158Y-9630008D01*
X103158Y-9630008D02*
X112682Y-9639531D01*
X112682Y-9639531D02*
X122205Y-9658579D01*
X122205Y-9658579D02*
X122205Y-9668103D01*
X122205Y-9668103D02*
X112682Y-9687150D01*
X112682Y-9687150D02*
X103158Y-9696674D01*
X103158Y-9696674D02*
X84110Y-9706198D01*
X84110Y-9706198D02*
X46015Y-9706198D01*
X46015Y-9706198D02*
X26967Y-9715722D01*
X26967Y-9715722D02*
X17444Y-9725246D01*
X17444Y-9725246D02*
X7920Y-9744293D01*
X7920Y-9744293D02*
X7920Y-9782389D01*
X7920Y-9782389D02*
X17444Y-9801436D01*
X17444Y-9801436D02*
X26967Y-9810960D01*
X26967Y-9810960D02*
X46015Y-9820484D01*
X46015Y-9820484D02*
X84110Y-9820484D01*
X84110Y-9820484D02*
X103158Y-9810960D01*
X103158Y-9810960D02*
X112682Y-9801436D01*
X112682Y-9801436D02*
X122205Y-9782389D01*
X122205Y-9782389D02*
X122205Y-9744293D01*
X122205Y-9744293D02*
X112682Y-9725246D01*
X112682Y-9725246D02*
X103158Y-9715722D01*
X103158Y-9715722D02*
X84110Y-9706198D01*
X207920Y-9820484D02*
X207920Y-9687150D01*
X207920Y-9706198D02*
X217443Y-9696674D01*
X217443Y-9696674D02*
X236491Y-9687150D01*
X236491Y-9687150D02*
X265063Y-9687150D01*
X265063Y-9687150D02*
X284110Y-9696674D01*
X284110Y-9696674D02*
X293634Y-9715722D01*
X293634Y-9715722D02*
X293634Y-9820484D01*
X293634Y-9715722D02*
X303158Y-9696674D01*
X303158Y-9696674D02*
X322205Y-9687150D01*
X322205Y-9687150D02*
X350777Y-9687150D01*
X350777Y-9687150D02*
X369824Y-9696674D01*
X369824Y-9696674D02*
X379348Y-9715722D01*
X379348Y-9715722D02*
X379348Y-9820484D01*
X474586Y-9820484D02*
X474586Y-9687150D01*
X474586Y-9706198D02*
X484110Y-9696674D01*
X484110Y-9696674D02*
X503158Y-9687150D01*
X503158Y-9687150D02*
X531729Y-9687150D01*
X531729Y-9687150D02*
X550777Y-9696674D01*
X550777Y-9696674D02*
X560301Y-9715722D01*
X560301Y-9715722D02*
X560301Y-9820484D01*
X560301Y-9715722D02*
X569825Y-9696674D01*
X569825Y-9696674D02*
X588872Y-9687150D01*
X588872Y-9687150D02*
X617444Y-9687150D01*
X617444Y-9687150D02*
X636491Y-9696674D01*
X636491Y-9696674D02*
X646015Y-9715722D01*
X646015Y-9715722D02*
X646015Y-9820484D01*
X1036491Y-9610960D02*
X865063Y-9868103D01*
X1293634Y-9620484D02*
X1312682Y-9620484D01*
X1312682Y-9620484D02*
X1331729Y-9630008D01*
X1331729Y-9630008D02*
X1341253Y-9639531D01*
X1341253Y-9639531D02*
X1350777Y-9658579D01*
X1350777Y-9658579D02*
X1360301Y-9696674D01*
X1360301Y-9696674D02*
X1360301Y-9744293D01*
X1360301Y-9744293D02*
X1350777Y-9782389D01*
X1350777Y-9782389D02*
X1341253Y-9801436D01*
X1341253Y-9801436D02*
X1331729Y-9810960D01*
X1331729Y-9810960D02*
X1312682Y-9820484D01*
X1312682Y-9820484D02*
X1293634Y-9820484D01*
X1293634Y-9820484D02*
X1274587Y-9810960D01*
X1274587Y-9810960D02*
X1265063Y-9801436D01*
X1265063Y-9801436D02*
X1255539Y-9782389D01*
X1255539Y-9782389D02*
X1246015Y-9744293D01*
X1246015Y-9744293D02*
X1246015Y-9696674D01*
X1246015Y-9696674D02*
X1255539Y-9658579D01*
X1255539Y-9658579D02*
X1265063Y-9639531D01*
X1265063Y-9639531D02*
X1274587Y-9630008D01*
X1274587Y-9630008D02*
X1293634Y-9620484D01*
X1446015Y-9801436D02*
X1455539Y-9810960D01*
X1455539Y-9810960D02*
X1446015Y-9820484D01*
X1446015Y-9820484D02*
X1436491Y-9810960D01*
X1436491Y-9810960D02*
X1446015Y-9801436D01*
X1446015Y-9801436D02*
X1446015Y-9820484D01*
X1646015Y-9820484D02*
X1531729Y-9820484D01*
X1588872Y-9820484D02*
X1588872Y-9620484D01*
X1588872Y-9620484D02*
X1569825Y-9649055D01*
X1569825Y-9649055D02*
X1550777Y-9668103D01*
X1550777Y-9668103D02*
X1531729Y-9677627D01*
X1722206Y-9639531D02*
X1731729Y-9630008D01*
X1731729Y-9630008D02*
X1750777Y-9620484D01*
X1750777Y-9620484D02*
X1798396Y-9620484D01*
X1798396Y-9620484D02*
X1817444Y-9630008D01*
X1817444Y-9630008D02*
X1826967Y-9639531D01*
X1826967Y-9639531D02*
X1836491Y-9658579D01*
X1836491Y-9658579D02*
X1836491Y-9677627D01*
X1836491Y-9677627D02*
X1826967Y-9706198D01*
X1826967Y-9706198D02*
X1712682Y-9820484D01*
X1712682Y-9820484D02*
X1836491Y-9820484D01*
X1960301Y-9620484D02*
X1979348Y-9620484D01*
X1979348Y-9620484D02*
X1998396Y-9630008D01*
X1998396Y-9630008D02*
X2007920Y-9639531D01*
X2007920Y-9639531D02*
X2017444Y-9658579D01*
X2017444Y-9658579D02*
X2026967Y-9696674D01*
X2026967Y-9696674D02*
X2026967Y-9744293D01*
X2026967Y-9744293D02*
X2017444Y-9782389D01*
X2017444Y-9782389D02*
X2007920Y-9801436D01*
X2007920Y-9801436D02*
X1998396Y-9810960D01*
X1998396Y-9810960D02*
X1979348Y-9820484D01*
X1979348Y-9820484D02*
X1960301Y-9820484D01*
X1960301Y-9820484D02*
X1941253Y-9810960D01*
X1941253Y-9810960D02*
X1931729Y-9801436D01*
X1931729Y-9801436D02*
X1922206Y-9782389D01*
X1922206Y-9782389D02*
X1912682Y-9744293D01*
X1912682Y-9744293D02*
X1912682Y-9696674D01*
X1912682Y-9696674D02*
X1922206Y-9658579D01*
X1922206Y-9658579D02*
X1931729Y-9639531D01*
X1931729Y-9639531D02*
X1941253Y-9630008D01*
X1941253Y-9630008D02*
X1960301Y-9620484D01*
X2150777Y-9620484D02*
X2169825Y-9620484D01*
X2169825Y-9620484D02*
X2188872Y-9630008D01*
X2188872Y-9630008D02*
X2198396Y-9639531D01*
X2198396Y-9639531D02*
X2207920Y-9658579D01*
X2207920Y-9658579D02*
X2217444Y-9696674D01*
X2217444Y-9696674D02*
X2217444Y-9744293D01*
X2217444Y-9744293D02*
X2207920Y-9782389D01*
X2207920Y-9782389D02*
X2198396Y-9801436D01*
X2198396Y-9801436D02*
X2188872Y-9810960D01*
X2188872Y-9810960D02*
X2169825Y-9820484D01*
X2169825Y-9820484D02*
X2150777Y-9820484D01*
X2150777Y-9820484D02*
X2131729Y-9810960D01*
X2131729Y-9810960D02*
X2122206Y-9801436D01*
X2122206Y-9801436D02*
X2112682Y-9782389D01*
X2112682Y-9782389D02*
X2103158Y-9744293D01*
X2103158Y-9744293D02*
X2103158Y-9696674D01*
X2103158Y-9696674D02*
X2112682Y-9658579D01*
X2112682Y-9658579D02*
X2122206Y-9639531D01*
X2122206Y-9639531D02*
X2131729Y-9630008D01*
X2131729Y-9630008D02*
X2150777Y-9620484D01*
X2293634Y-9620484D02*
X2293634Y-9658579D01*
X2369825Y-9620484D02*
X2369825Y-9658579D01*
X2665063Y-9896674D02*
X2655539Y-9887150D01*
X2655539Y-9887150D02*
X2636491Y-9858579D01*
X2636491Y-9858579D02*
X2626968Y-9839531D01*
X2626968Y-9839531D02*
X2617444Y-9810960D01*
X2617444Y-9810960D02*
X2607920Y-9763341D01*
X2607920Y-9763341D02*
X2607920Y-9725246D01*
X2607920Y-9725246D02*
X2617444Y-9677627D01*
X2617444Y-9677627D02*
X2626968Y-9649055D01*
X2626968Y-9649055D02*
X2636491Y-9630008D01*
X2636491Y-9630008D02*
X2655539Y-9601436D01*
X2655539Y-9601436D02*
X2665063Y-9591912D01*
X2846015Y-9820484D02*
X2731730Y-9820484D01*
X2788872Y-9820484D02*
X2788872Y-9620484D01*
X2788872Y-9620484D02*
X2769825Y-9649055D01*
X2769825Y-9649055D02*
X2750777Y-9668103D01*
X2750777Y-9668103D02*
X2731730Y-9677627D01*
X3017444Y-9687150D02*
X3017444Y-9820484D01*
X2969825Y-9610960D02*
X2922206Y-9753817D01*
X2922206Y-9753817D02*
X3046015Y-9753817D01*
X3274587Y-9820484D02*
X3274587Y-9620484D01*
X3360301Y-9820484D02*
X3360301Y-9715722D01*
X3360301Y-9715722D02*
X3350777Y-9696674D01*
X3350777Y-9696674D02*
X3331730Y-9687150D01*
X3331730Y-9687150D02*
X3303158Y-9687150D01*
X3303158Y-9687150D02*
X3284110Y-9696674D01*
X3284110Y-9696674D02*
X3274587Y-9706198D01*
X3484110Y-9820484D02*
X3465063Y-9810960D01*
X3465063Y-9810960D02*
X3455539Y-9801436D01*
X3455539Y-9801436D02*
X3446015Y-9782389D01*
X3446015Y-9782389D02*
X3446015Y-9725246D01*
X3446015Y-9725246D02*
X3455539Y-9706198D01*
X3455539Y-9706198D02*
X3465063Y-9696674D01*
X3465063Y-9696674D02*
X3484110Y-9687150D01*
X3484110Y-9687150D02*
X3512682Y-9687150D01*
X3512682Y-9687150D02*
X3531730Y-9696674D01*
X3531730Y-9696674D02*
X3541253Y-9706198D01*
X3541253Y-9706198D02*
X3550777Y-9725246D01*
X3550777Y-9725246D02*
X3550777Y-9782389D01*
X3550777Y-9782389D02*
X3541253Y-9801436D01*
X3541253Y-9801436D02*
X3531730Y-9810960D01*
X3531730Y-9810960D02*
X3512682Y-9820484D01*
X3512682Y-9820484D02*
X3484110Y-9820484D01*
X3665063Y-9820484D02*
X3646015Y-9810960D01*
X3646015Y-9810960D02*
X3636491Y-9791912D01*
X3636491Y-9791912D02*
X3636491Y-9620484D01*
X3817444Y-9810960D02*
X3798396Y-9820484D01*
X3798396Y-9820484D02*
X3760301Y-9820484D01*
X3760301Y-9820484D02*
X3741253Y-9810960D01*
X3741253Y-9810960D02*
X3731730Y-9791912D01*
X3731730Y-9791912D02*
X3731730Y-9715722D01*
X3731730Y-9715722D02*
X3741253Y-9696674D01*
X3741253Y-9696674D02*
X3760301Y-9687150D01*
X3760301Y-9687150D02*
X3798396Y-9687150D01*
X3798396Y-9687150D02*
X3817444Y-9696674D01*
X3817444Y-9696674D02*
X3826968Y-9715722D01*
X3826968Y-9715722D02*
X3826968Y-9734770D01*
X3826968Y-9734770D02*
X3731730Y-9753817D01*
X3903158Y-9810960D02*
X3922206Y-9820484D01*
X3922206Y-9820484D02*
X3960301Y-9820484D01*
X3960301Y-9820484D02*
X3979349Y-9810960D01*
X3979349Y-9810960D02*
X3988872Y-9791912D01*
X3988872Y-9791912D02*
X3988872Y-9782389D01*
X3988872Y-9782389D02*
X3979349Y-9763341D01*
X3979349Y-9763341D02*
X3960301Y-9753817D01*
X3960301Y-9753817D02*
X3931730Y-9753817D01*
X3931730Y-9753817D02*
X3912682Y-9744293D01*
X3912682Y-9744293D02*
X3903158Y-9725246D01*
X3903158Y-9725246D02*
X3903158Y-9715722D01*
X3903158Y-9715722D02*
X3912682Y-9696674D01*
X3912682Y-9696674D02*
X3931730Y-9687150D01*
X3931730Y-9687150D02*
X3960301Y-9687150D01*
X3960301Y-9687150D02*
X3979349Y-9696674D01*
X4055539Y-9896674D02*
X4065063Y-9887150D01*
X4065063Y-9887150D02*
X4084111Y-9858579D01*
X4084111Y-9858579D02*
X4093634Y-9839531D01*
X4093634Y-9839531D02*
X4103158Y-9810960D01*
X4103158Y-9810960D02*
X4112682Y-9763341D01*
X4112682Y-9763341D02*
X4112682Y-9725246D01*
X4112682Y-9725246D02*
X4103158Y-9677627D01*
X4103158Y-9677627D02*
X4093634Y-9649055D01*
X4093634Y-9649055D02*
X4084111Y-9630008D01*
X4084111Y-9630008D02*
X4065063Y-9601436D01*
X4065063Y-9601436D02*
X4055539Y-9591912D01*
X4417444Y-9896674D02*
X4407920Y-9887150D01*
X4407920Y-9887150D02*
X4388873Y-9858579D01*
X4388873Y-9858579D02*
X4379349Y-9839531D01*
X4379349Y-9839531D02*
X4369825Y-9810960D01*
X4369825Y-9810960D02*
X4360301Y-9763341D01*
X4360301Y-9763341D02*
X4360301Y-9725246D01*
X4360301Y-9725246D02*
X4369825Y-9677627D01*
X4369825Y-9677627D02*
X4379349Y-9649055D01*
X4379349Y-9649055D02*
X4388873Y-9630008D01*
X4388873Y-9630008D02*
X4407920Y-9601436D01*
X4407920Y-9601436D02*
X4417444Y-9591912D01*
X4493634Y-9687150D02*
X4493634Y-9820484D01*
X4493634Y-9706198D02*
X4503158Y-9696674D01*
X4503158Y-9696674D02*
X4522206Y-9687150D01*
X4522206Y-9687150D02*
X4550777Y-9687150D01*
X4550777Y-9687150D02*
X4569825Y-9696674D01*
X4569825Y-9696674D02*
X4579349Y-9715722D01*
X4579349Y-9715722D02*
X4579349Y-9820484D01*
X4703158Y-9820484D02*
X4684111Y-9810960D01*
X4684111Y-9810960D02*
X4674587Y-9801436D01*
X4674587Y-9801436D02*
X4665063Y-9782389D01*
X4665063Y-9782389D02*
X4665063Y-9725246D01*
X4665063Y-9725246D02*
X4674587Y-9706198D01*
X4674587Y-9706198D02*
X4684111Y-9696674D01*
X4684111Y-9696674D02*
X4703158Y-9687150D01*
X4703158Y-9687150D02*
X4731730Y-9687150D01*
X4731730Y-9687150D02*
X4750777Y-9696674D01*
X4750777Y-9696674D02*
X4760301Y-9706198D01*
X4760301Y-9706198D02*
X4769825Y-9725246D01*
X4769825Y-9725246D02*
X4769825Y-9782389D01*
X4769825Y-9782389D02*
X4760301Y-9801436D01*
X4760301Y-9801436D02*
X4750777Y-9810960D01*
X4750777Y-9810960D02*
X4731730Y-9820484D01*
X4731730Y-9820484D02*
X4703158Y-9820484D01*
X4826968Y-9687150D02*
X4903158Y-9687150D01*
X4855539Y-9620484D02*
X4855539Y-9791912D01*
X4855539Y-9791912D02*
X4865063Y-9810960D01*
X4865063Y-9810960D02*
X4884111Y-9820484D01*
X4884111Y-9820484D02*
X4903158Y-9820484D01*
X5122206Y-9687150D02*
X5122206Y-9887150D01*
X5122206Y-9696674D02*
X5141254Y-9687150D01*
X5141254Y-9687150D02*
X5179349Y-9687150D01*
X5179349Y-9687150D02*
X5198396Y-9696674D01*
X5198396Y-9696674D02*
X5207920Y-9706198D01*
X5207920Y-9706198D02*
X5217444Y-9725246D01*
X5217444Y-9725246D02*
X5217444Y-9782389D01*
X5217444Y-9782389D02*
X5207920Y-9801436D01*
X5207920Y-9801436D02*
X5198396Y-9810960D01*
X5198396Y-9810960D02*
X5179349Y-9820484D01*
X5179349Y-9820484D02*
X5141254Y-9820484D01*
X5141254Y-9820484D02*
X5122206Y-9810960D01*
X5331730Y-9820484D02*
X5312682Y-9810960D01*
X5312682Y-9810960D02*
X5303158Y-9791912D01*
X5303158Y-9791912D02*
X5303158Y-9620484D01*
X5493635Y-9820484D02*
X5493635Y-9715722D01*
X5493635Y-9715722D02*
X5484111Y-9696674D01*
X5484111Y-9696674D02*
X5465063Y-9687150D01*
X5465063Y-9687150D02*
X5426968Y-9687150D01*
X5426968Y-9687150D02*
X5407920Y-9696674D01*
X5493635Y-9810960D02*
X5474587Y-9820484D01*
X5474587Y-9820484D02*
X5426968Y-9820484D01*
X5426968Y-9820484D02*
X5407920Y-9810960D01*
X5407920Y-9810960D02*
X5398396Y-9791912D01*
X5398396Y-9791912D02*
X5398396Y-9772865D01*
X5398396Y-9772865D02*
X5407920Y-9753817D01*
X5407920Y-9753817D02*
X5426968Y-9744293D01*
X5426968Y-9744293D02*
X5474587Y-9744293D01*
X5474587Y-9744293D02*
X5493635Y-9734770D01*
X5560301Y-9687150D02*
X5636492Y-9687150D01*
X5588873Y-9620484D02*
X5588873Y-9791912D01*
X5588873Y-9791912D02*
X5598396Y-9810960D01*
X5598396Y-9810960D02*
X5617444Y-9820484D01*
X5617444Y-9820484D02*
X5636492Y-9820484D01*
X5779349Y-9810960D02*
X5760301Y-9820484D01*
X5760301Y-9820484D02*
X5722206Y-9820484D01*
X5722206Y-9820484D02*
X5703158Y-9810960D01*
X5703158Y-9810960D02*
X5693634Y-9791912D01*
X5693634Y-9791912D02*
X5693634Y-9715722D01*
X5693634Y-9715722D02*
X5703158Y-9696674D01*
X5703158Y-9696674D02*
X5722206Y-9687150D01*
X5722206Y-9687150D02*
X5760301Y-9687150D01*
X5760301Y-9687150D02*
X5779349Y-9696674D01*
X5779349Y-9696674D02*
X5788873Y-9715722D01*
X5788873Y-9715722D02*
X5788873Y-9734770D01*
X5788873Y-9734770D02*
X5693634Y-9753817D01*
X5960301Y-9820484D02*
X5960301Y-9620484D01*
X5960301Y-9810960D02*
X5941254Y-9820484D01*
X5941254Y-9820484D02*
X5903158Y-9820484D01*
X5903158Y-9820484D02*
X5884111Y-9810960D01*
X5884111Y-9810960D02*
X5874587Y-9801436D01*
X5874587Y-9801436D02*
X5865063Y-9782389D01*
X5865063Y-9782389D02*
X5865063Y-9725246D01*
X5865063Y-9725246D02*
X5874587Y-9706198D01*
X5874587Y-9706198D02*
X5884111Y-9696674D01*
X5884111Y-9696674D02*
X5903158Y-9687150D01*
X5903158Y-9687150D02*
X5941254Y-9687150D01*
X5941254Y-9687150D02*
X5960301Y-9696674D01*
X6036492Y-9896674D02*
X6046015Y-9887150D01*
X6046015Y-9887150D02*
X6065063Y-9858579D01*
X6065063Y-9858579D02*
X6074587Y-9839531D01*
X6074587Y-9839531D02*
X6084111Y-9810960D01*
X6084111Y-9810960D02*
X6093634Y-9763341D01*
X6093634Y-9763341D02*
X6093634Y-9725246D01*
X6093634Y-9725246D02*
X6084111Y-9677627D01*
X6084111Y-9677627D02*
X6074587Y-9649055D01*
X6074587Y-9649055D02*
X6065063Y-9630008D01*
X6065063Y-9630008D02*
X6046015Y-9601436D01*
X6046015Y-9601436D02*
X6036492Y-9591912D01*
X-939289Y-10119711D02*
X-939289Y-9978289D01*
X-1080711Y-9978289D01*
X-1080711Y-10119711D01*
X-939289Y-10119711D01*
X-668271Y-9940484D02*
X-544461Y-9940484D01*
X-544461Y-9940484D02*
X-611128Y-10016674D01*
X-611128Y-10016674D02*
X-582556Y-10016674D01*
X-582556Y-10016674D02*
X-563509Y-10026198D01*
X-563509Y-10026198D02*
X-553985Y-10035722D01*
X-553985Y-10035722D02*
X-544461Y-10054770D01*
X-544461Y-10054770D02*
X-544461Y-10102389D01*
X-544461Y-10102389D02*
X-553985Y-10121436D01*
X-553985Y-10121436D02*
X-563509Y-10130960D01*
X-563509Y-10130960D02*
X-582556Y-10140484D01*
X-582556Y-10140484D02*
X-639699Y-10140484D01*
X-639699Y-10140484D02*
X-658747Y-10130960D01*
X-658747Y-10130960D02*
X-668271Y-10121436D01*
X-458747Y-10121436D02*
X-449223Y-10130960D01*
X-449223Y-10130960D02*
X-458747Y-10140484D01*
X-458747Y-10140484D02*
X-468271Y-10130960D01*
X-468271Y-10130960D02*
X-458747Y-10121436D01*
X-458747Y-10121436D02*
X-458747Y-10140484D01*
X-353985Y-10140484D02*
X-315890Y-10140484D01*
X-315890Y-10140484D02*
X-296842Y-10130960D01*
X-296842Y-10130960D02*
X-287318Y-10121436D01*
X-287318Y-10121436D02*
X-268271Y-10092865D01*
X-268271Y-10092865D02*
X-258747Y-10054770D01*
X-258747Y-10054770D02*
X-258747Y-9978579D01*
X-258747Y-9978579D02*
X-268271Y-9959531D01*
X-268271Y-9959531D02*
X-277795Y-9950008D01*
X-277795Y-9950008D02*
X-296842Y-9940484D01*
X-296842Y-9940484D02*
X-334937Y-9940484D01*
X-334937Y-9940484D02*
X-353985Y-9950008D01*
X-353985Y-9950008D02*
X-363509Y-9959531D01*
X-363509Y-9959531D02*
X-373033Y-9978579D01*
X-373033Y-9978579D02*
X-373033Y-10026198D01*
X-373033Y-10026198D02*
X-363509Y-10045246D01*
X-363509Y-10045246D02*
X-353985Y-10054770D01*
X-353985Y-10054770D02*
X-334937Y-10064293D01*
X-334937Y-10064293D02*
X-296842Y-10064293D01*
X-296842Y-10064293D02*
X-277795Y-10054770D01*
X-277795Y-10054770D02*
X-268271Y-10045246D01*
X-268271Y-10045246D02*
X-258747Y-10026198D01*
X-144461Y-10026198D02*
X-163509Y-10016674D01*
X-163509Y-10016674D02*
X-173033Y-10007150D01*
X-173033Y-10007150D02*
X-182556Y-9988103D01*
X-182556Y-9988103D02*
X-182556Y-9978579D01*
X-182556Y-9978579D02*
X-173033Y-9959531D01*
X-173033Y-9959531D02*
X-163509Y-9950008D01*
X-163509Y-9950008D02*
X-144461Y-9940484D01*
X-144461Y-9940484D02*
X-106366Y-9940484D01*
X-106366Y-9940484D02*
X-87318Y-9950008D01*
X-87318Y-9950008D02*
X-77795Y-9959531D01*
X-77795Y-9959531D02*
X-68271Y-9978579D01*
X-68271Y-9978579D02*
X-68271Y-9988103D01*
X-68271Y-9988103D02*
X-77795Y-10007150D01*
X-77795Y-10007150D02*
X-87318Y-10016674D01*
X-87318Y-10016674D02*
X-106366Y-10026198D01*
X-106366Y-10026198D02*
X-144461Y-10026198D01*
X-144461Y-10026198D02*
X-163509Y-10035722D01*
X-163509Y-10035722D02*
X-173033Y-10045246D01*
X-173033Y-10045246D02*
X-182556Y-10064293D01*
X-182556Y-10064293D02*
X-182556Y-10102389D01*
X-182556Y-10102389D02*
X-173033Y-10121436D01*
X-173033Y-10121436D02*
X-163509Y-10130960D01*
X-163509Y-10130960D02*
X-144461Y-10140484D01*
X-144461Y-10140484D02*
X-106366Y-10140484D01*
X-106366Y-10140484D02*
X-87318Y-10130960D01*
X-87318Y-10130960D02*
X-77795Y-10121436D01*
X-77795Y-10121436D02*
X-68271Y-10102389D01*
X-68271Y-10102389D02*
X-68271Y-10064293D01*
X-68271Y-10064293D02*
X-77795Y-10045246D01*
X-77795Y-10045246D02*
X-87318Y-10035722D01*
X-87318Y-10035722D02*
X-106366Y-10026198D01*
X46015Y-10026198D02*
X26967Y-10016674D01*
X26967Y-10016674D02*
X17444Y-10007150D01*
X17444Y-10007150D02*
X7920Y-9988103D01*
X7920Y-9988103D02*
X7920Y-9978579D01*
X7920Y-9978579D02*
X17444Y-9959531D01*
X17444Y-9959531D02*
X26967Y-9950008D01*
X26967Y-9950008D02*
X46015Y-9940484D01*
X46015Y-9940484D02*
X84110Y-9940484D01*
X84110Y-9940484D02*
X103158Y-9950008D01*
X103158Y-9950008D02*
X112682Y-9959531D01*
X112682Y-9959531D02*
X122205Y-9978579D01*
X122205Y-9978579D02*
X122205Y-9988103D01*
X122205Y-9988103D02*
X112682Y-10007150D01*
X112682Y-10007150D02*
X103158Y-10016674D01*
X103158Y-10016674D02*
X84110Y-10026198D01*
X84110Y-10026198D02*
X46015Y-10026198D01*
X46015Y-10026198D02*
X26967Y-10035722D01*
X26967Y-10035722D02*
X17444Y-10045246D01*
X17444Y-10045246D02*
X7920Y-10064293D01*
X7920Y-10064293D02*
X7920Y-10102389D01*
X7920Y-10102389D02*
X17444Y-10121436D01*
X17444Y-10121436D02*
X26967Y-10130960D01*
X26967Y-10130960D02*
X46015Y-10140484D01*
X46015Y-10140484D02*
X84110Y-10140484D01*
X84110Y-10140484D02*
X103158Y-10130960D01*
X103158Y-10130960D02*
X112682Y-10121436D01*
X112682Y-10121436D02*
X122205Y-10102389D01*
X122205Y-10102389D02*
X122205Y-10064293D01*
X122205Y-10064293D02*
X112682Y-10045246D01*
X112682Y-10045246D02*
X103158Y-10035722D01*
X103158Y-10035722D02*
X84110Y-10026198D01*
X207920Y-10140484D02*
X207920Y-10007150D01*
X207920Y-10026198D02*
X217443Y-10016674D01*
X217443Y-10016674D02*
X236491Y-10007150D01*
X236491Y-10007150D02*
X265063Y-10007150D01*
X265063Y-10007150D02*
X284110Y-10016674D01*
X284110Y-10016674D02*
X293634Y-10035722D01*
X293634Y-10035722D02*
X293634Y-10140484D01*
X293634Y-10035722D02*
X303158Y-10016674D01*
X303158Y-10016674D02*
X322205Y-10007150D01*
X322205Y-10007150D02*
X350777Y-10007150D01*
X350777Y-10007150D02*
X369824Y-10016674D01*
X369824Y-10016674D02*
X379348Y-10035722D01*
X379348Y-10035722D02*
X379348Y-10140484D01*
X474586Y-10140484D02*
X474586Y-10007150D01*
X474586Y-10026198D02*
X484110Y-10016674D01*
X484110Y-10016674D02*
X503158Y-10007150D01*
X503158Y-10007150D02*
X531729Y-10007150D01*
X531729Y-10007150D02*
X550777Y-10016674D01*
X550777Y-10016674D02*
X560301Y-10035722D01*
X560301Y-10035722D02*
X560301Y-10140484D01*
X560301Y-10035722D02*
X569825Y-10016674D01*
X569825Y-10016674D02*
X588872Y-10007150D01*
X588872Y-10007150D02*
X617444Y-10007150D01*
X617444Y-10007150D02*
X636491Y-10016674D01*
X636491Y-10016674D02*
X646015Y-10035722D01*
X646015Y-10035722D02*
X646015Y-10140484D01*
X1036491Y-9930960D02*
X865063Y-10188103D01*
X1293634Y-9940484D02*
X1312682Y-9940484D01*
X1312682Y-9940484D02*
X1331729Y-9950008D01*
X1331729Y-9950008D02*
X1341253Y-9959531D01*
X1341253Y-9959531D02*
X1350777Y-9978579D01*
X1350777Y-9978579D02*
X1360301Y-10016674D01*
X1360301Y-10016674D02*
X1360301Y-10064293D01*
X1360301Y-10064293D02*
X1350777Y-10102389D01*
X1350777Y-10102389D02*
X1341253Y-10121436D01*
X1341253Y-10121436D02*
X1331729Y-10130960D01*
X1331729Y-10130960D02*
X1312682Y-10140484D01*
X1312682Y-10140484D02*
X1293634Y-10140484D01*
X1293634Y-10140484D02*
X1274587Y-10130960D01*
X1274587Y-10130960D02*
X1265063Y-10121436D01*
X1265063Y-10121436D02*
X1255539Y-10102389D01*
X1255539Y-10102389D02*
X1246015Y-10064293D01*
X1246015Y-10064293D02*
X1246015Y-10016674D01*
X1246015Y-10016674D02*
X1255539Y-9978579D01*
X1255539Y-9978579D02*
X1265063Y-9959531D01*
X1265063Y-9959531D02*
X1274587Y-9950008D01*
X1274587Y-9950008D02*
X1293634Y-9940484D01*
X1446015Y-10121436D02*
X1455539Y-10130960D01*
X1455539Y-10130960D02*
X1446015Y-10140484D01*
X1446015Y-10140484D02*
X1436491Y-10130960D01*
X1436491Y-10130960D02*
X1446015Y-10121436D01*
X1446015Y-10121436D02*
X1446015Y-10140484D01*
X1646015Y-10140484D02*
X1531729Y-10140484D01*
X1588872Y-10140484D02*
X1588872Y-9940484D01*
X1588872Y-9940484D02*
X1569825Y-9969055D01*
X1569825Y-9969055D02*
X1550777Y-9988103D01*
X1550777Y-9988103D02*
X1531729Y-9997627D01*
X1826967Y-9940484D02*
X1731729Y-9940484D01*
X1731729Y-9940484D02*
X1722206Y-10035722D01*
X1722206Y-10035722D02*
X1731729Y-10026198D01*
X1731729Y-10026198D02*
X1750777Y-10016674D01*
X1750777Y-10016674D02*
X1798396Y-10016674D01*
X1798396Y-10016674D02*
X1817444Y-10026198D01*
X1817444Y-10026198D02*
X1826967Y-10035722D01*
X1826967Y-10035722D02*
X1836491Y-10054770D01*
X1836491Y-10054770D02*
X1836491Y-10102389D01*
X1836491Y-10102389D02*
X1826967Y-10121436D01*
X1826967Y-10121436D02*
X1817444Y-10130960D01*
X1817444Y-10130960D02*
X1798396Y-10140484D01*
X1798396Y-10140484D02*
X1750777Y-10140484D01*
X1750777Y-10140484D02*
X1731729Y-10130960D01*
X1731729Y-10130960D02*
X1722206Y-10121436D01*
X1903158Y-9940484D02*
X2036491Y-9940484D01*
X2036491Y-9940484D02*
X1950777Y-10140484D01*
X2150777Y-9940484D02*
X2169825Y-9940484D01*
X2169825Y-9940484D02*
X2188872Y-9950008D01*
X2188872Y-9950008D02*
X2198396Y-9959531D01*
X2198396Y-9959531D02*
X2207920Y-9978579D01*
X2207920Y-9978579D02*
X2217444Y-10016674D01*
X2217444Y-10016674D02*
X2217444Y-10064293D01*
X2217444Y-10064293D02*
X2207920Y-10102389D01*
X2207920Y-10102389D02*
X2198396Y-10121436D01*
X2198396Y-10121436D02*
X2188872Y-10130960D01*
X2188872Y-10130960D02*
X2169825Y-10140484D01*
X2169825Y-10140484D02*
X2150777Y-10140484D01*
X2150777Y-10140484D02*
X2131729Y-10130960D01*
X2131729Y-10130960D02*
X2122206Y-10121436D01*
X2122206Y-10121436D02*
X2112682Y-10102389D01*
X2112682Y-10102389D02*
X2103158Y-10064293D01*
X2103158Y-10064293D02*
X2103158Y-10016674D01*
X2103158Y-10016674D02*
X2112682Y-9978579D01*
X2112682Y-9978579D02*
X2122206Y-9959531D01*
X2122206Y-9959531D02*
X2131729Y-9950008D01*
X2131729Y-9950008D02*
X2150777Y-9940484D01*
X2293634Y-9940484D02*
X2293634Y-9978579D01*
X2369825Y-9940484D02*
X2369825Y-9978579D01*
X2665063Y-10216674D02*
X2655539Y-10207150D01*
X2655539Y-10207150D02*
X2636491Y-10178579D01*
X2636491Y-10178579D02*
X2626968Y-10159531D01*
X2626968Y-10159531D02*
X2617444Y-10130960D01*
X2617444Y-10130960D02*
X2607920Y-10083341D01*
X2607920Y-10083341D02*
X2607920Y-10045246D01*
X2607920Y-10045246D02*
X2617444Y-9997627D01*
X2617444Y-9997627D02*
X2626968Y-9969055D01*
X2626968Y-9969055D02*
X2636491Y-9950008D01*
X2636491Y-9950008D02*
X2655539Y-9921436D01*
X2655539Y-9921436D02*
X2665063Y-9911912D01*
X2846015Y-10140484D02*
X2731730Y-10140484D01*
X2788872Y-10140484D02*
X2788872Y-9940484D01*
X2788872Y-9940484D02*
X2769825Y-9969055D01*
X2769825Y-9969055D02*
X2750777Y-9988103D01*
X2750777Y-9988103D02*
X2731730Y-9997627D01*
X3017444Y-10007150D02*
X3017444Y-10140484D01*
X2969825Y-9930960D02*
X2922206Y-10073817D01*
X2922206Y-10073817D02*
X3046015Y-10073817D01*
X3274587Y-10140484D02*
X3274587Y-9940484D01*
X3360301Y-10140484D02*
X3360301Y-10035722D01*
X3360301Y-10035722D02*
X3350777Y-10016674D01*
X3350777Y-10016674D02*
X3331730Y-10007150D01*
X3331730Y-10007150D02*
X3303158Y-10007150D01*
X3303158Y-10007150D02*
X3284110Y-10016674D01*
X3284110Y-10016674D02*
X3274587Y-10026198D01*
X3484110Y-10140484D02*
X3465063Y-10130960D01*
X3465063Y-10130960D02*
X3455539Y-10121436D01*
X3455539Y-10121436D02*
X3446015Y-10102389D01*
X3446015Y-10102389D02*
X3446015Y-10045246D01*
X3446015Y-10045246D02*
X3455539Y-10026198D01*
X3455539Y-10026198D02*
X3465063Y-10016674D01*
X3465063Y-10016674D02*
X3484110Y-10007150D01*
X3484110Y-10007150D02*
X3512682Y-10007150D01*
X3512682Y-10007150D02*
X3531730Y-10016674D01*
X3531730Y-10016674D02*
X3541253Y-10026198D01*
X3541253Y-10026198D02*
X3550777Y-10045246D01*
X3550777Y-10045246D02*
X3550777Y-10102389D01*
X3550777Y-10102389D02*
X3541253Y-10121436D01*
X3541253Y-10121436D02*
X3531730Y-10130960D01*
X3531730Y-10130960D02*
X3512682Y-10140484D01*
X3512682Y-10140484D02*
X3484110Y-10140484D01*
X3665063Y-10140484D02*
X3646015Y-10130960D01*
X3646015Y-10130960D02*
X3636491Y-10111912D01*
X3636491Y-10111912D02*
X3636491Y-9940484D01*
X3817444Y-10130960D02*
X3798396Y-10140484D01*
X3798396Y-10140484D02*
X3760301Y-10140484D01*
X3760301Y-10140484D02*
X3741253Y-10130960D01*
X3741253Y-10130960D02*
X3731730Y-10111912D01*
X3731730Y-10111912D02*
X3731730Y-10035722D01*
X3731730Y-10035722D02*
X3741253Y-10016674D01*
X3741253Y-10016674D02*
X3760301Y-10007150D01*
X3760301Y-10007150D02*
X3798396Y-10007150D01*
X3798396Y-10007150D02*
X3817444Y-10016674D01*
X3817444Y-10016674D02*
X3826968Y-10035722D01*
X3826968Y-10035722D02*
X3826968Y-10054770D01*
X3826968Y-10054770D02*
X3731730Y-10073817D01*
X3903158Y-10130960D02*
X3922206Y-10140484D01*
X3922206Y-10140484D02*
X3960301Y-10140484D01*
X3960301Y-10140484D02*
X3979349Y-10130960D01*
X3979349Y-10130960D02*
X3988872Y-10111912D01*
X3988872Y-10111912D02*
X3988872Y-10102389D01*
X3988872Y-10102389D02*
X3979349Y-10083341D01*
X3979349Y-10083341D02*
X3960301Y-10073817D01*
X3960301Y-10073817D02*
X3931730Y-10073817D01*
X3931730Y-10073817D02*
X3912682Y-10064293D01*
X3912682Y-10064293D02*
X3903158Y-10045246D01*
X3903158Y-10045246D02*
X3903158Y-10035722D01*
X3903158Y-10035722D02*
X3912682Y-10016674D01*
X3912682Y-10016674D02*
X3931730Y-10007150D01*
X3931730Y-10007150D02*
X3960301Y-10007150D01*
X3960301Y-10007150D02*
X3979349Y-10016674D01*
X4055539Y-10216674D02*
X4065063Y-10207150D01*
X4065063Y-10207150D02*
X4084111Y-10178579D01*
X4084111Y-10178579D02*
X4093634Y-10159531D01*
X4093634Y-10159531D02*
X4103158Y-10130960D01*
X4103158Y-10130960D02*
X4112682Y-10083341D01*
X4112682Y-10083341D02*
X4112682Y-10045246D01*
X4112682Y-10045246D02*
X4103158Y-9997627D01*
X4103158Y-9997627D02*
X4093634Y-9969055D01*
X4093634Y-9969055D02*
X4084111Y-9950008D01*
X4084111Y-9950008D02*
X4065063Y-9921436D01*
X4065063Y-9921436D02*
X4055539Y-9911912D01*
X4417444Y-10216674D02*
X4407920Y-10207150D01*
X4407920Y-10207150D02*
X4388873Y-10178579D01*
X4388873Y-10178579D02*
X4379349Y-10159531D01*
X4379349Y-10159531D02*
X4369825Y-10130960D01*
X4369825Y-10130960D02*
X4360301Y-10083341D01*
X4360301Y-10083341D02*
X4360301Y-10045246D01*
X4360301Y-10045246D02*
X4369825Y-9997627D01*
X4369825Y-9997627D02*
X4379349Y-9969055D01*
X4379349Y-9969055D02*
X4388873Y-9950008D01*
X4388873Y-9950008D02*
X4407920Y-9921436D01*
X4407920Y-9921436D02*
X4417444Y-9911912D01*
X4493634Y-10007150D02*
X4493634Y-10140484D01*
X4493634Y-10026198D02*
X4503158Y-10016674D01*
X4503158Y-10016674D02*
X4522206Y-10007150D01*
X4522206Y-10007150D02*
X4550777Y-10007150D01*
X4550777Y-10007150D02*
X4569825Y-10016674D01*
X4569825Y-10016674D02*
X4579349Y-10035722D01*
X4579349Y-10035722D02*
X4579349Y-10140484D01*
X4703158Y-10140484D02*
X4684111Y-10130960D01*
X4684111Y-10130960D02*
X4674587Y-10121436D01*
X4674587Y-10121436D02*
X4665063Y-10102389D01*
X4665063Y-10102389D02*
X4665063Y-10045246D01*
X4665063Y-10045246D02*
X4674587Y-10026198D01*
X4674587Y-10026198D02*
X4684111Y-10016674D01*
X4684111Y-10016674D02*
X4703158Y-10007150D01*
X4703158Y-10007150D02*
X4731730Y-10007150D01*
X4731730Y-10007150D02*
X4750777Y-10016674D01*
X4750777Y-10016674D02*
X4760301Y-10026198D01*
X4760301Y-10026198D02*
X4769825Y-10045246D01*
X4769825Y-10045246D02*
X4769825Y-10102389D01*
X4769825Y-10102389D02*
X4760301Y-10121436D01*
X4760301Y-10121436D02*
X4750777Y-10130960D01*
X4750777Y-10130960D02*
X4731730Y-10140484D01*
X4731730Y-10140484D02*
X4703158Y-10140484D01*
X4826968Y-10007150D02*
X4903158Y-10007150D01*
X4855539Y-9940484D02*
X4855539Y-10111912D01*
X4855539Y-10111912D02*
X4865063Y-10130960D01*
X4865063Y-10130960D02*
X4884111Y-10140484D01*
X4884111Y-10140484D02*
X4903158Y-10140484D01*
X5122206Y-10007150D02*
X5122206Y-10207150D01*
X5122206Y-10016674D02*
X5141254Y-10007150D01*
X5141254Y-10007150D02*
X5179349Y-10007150D01*
X5179349Y-10007150D02*
X5198396Y-10016674D01*
X5198396Y-10016674D02*
X5207920Y-10026198D01*
X5207920Y-10026198D02*
X5217444Y-10045246D01*
X5217444Y-10045246D02*
X5217444Y-10102389D01*
X5217444Y-10102389D02*
X5207920Y-10121436D01*
X5207920Y-10121436D02*
X5198396Y-10130960D01*
X5198396Y-10130960D02*
X5179349Y-10140484D01*
X5179349Y-10140484D02*
X5141254Y-10140484D01*
X5141254Y-10140484D02*
X5122206Y-10130960D01*
X5331730Y-10140484D02*
X5312682Y-10130960D01*
X5312682Y-10130960D02*
X5303158Y-10111912D01*
X5303158Y-10111912D02*
X5303158Y-9940484D01*
X5493635Y-10140484D02*
X5493635Y-10035722D01*
X5493635Y-10035722D02*
X5484111Y-10016674D01*
X5484111Y-10016674D02*
X5465063Y-10007150D01*
X5465063Y-10007150D02*
X5426968Y-10007150D01*
X5426968Y-10007150D02*
X5407920Y-10016674D01*
X5493635Y-10130960D02*
X5474587Y-10140484D01*
X5474587Y-10140484D02*
X5426968Y-10140484D01*
X5426968Y-10140484D02*
X5407920Y-10130960D01*
X5407920Y-10130960D02*
X5398396Y-10111912D01*
X5398396Y-10111912D02*
X5398396Y-10092865D01*
X5398396Y-10092865D02*
X5407920Y-10073817D01*
X5407920Y-10073817D02*
X5426968Y-10064293D01*
X5426968Y-10064293D02*
X5474587Y-10064293D01*
X5474587Y-10064293D02*
X5493635Y-10054770D01*
X5560301Y-10007150D02*
X5636492Y-10007150D01*
X5588873Y-9940484D02*
X5588873Y-10111912D01*
X5588873Y-10111912D02*
X5598396Y-10130960D01*
X5598396Y-10130960D02*
X5617444Y-10140484D01*
X5617444Y-10140484D02*
X5636492Y-10140484D01*
X5779349Y-10130960D02*
X5760301Y-10140484D01*
X5760301Y-10140484D02*
X5722206Y-10140484D01*
X5722206Y-10140484D02*
X5703158Y-10130960D01*
X5703158Y-10130960D02*
X5693634Y-10111912D01*
X5693634Y-10111912D02*
X5693634Y-10035722D01*
X5693634Y-10035722D02*
X5703158Y-10016674D01*
X5703158Y-10016674D02*
X5722206Y-10007150D01*
X5722206Y-10007150D02*
X5760301Y-10007150D01*
X5760301Y-10007150D02*
X5779349Y-10016674D01*
X5779349Y-10016674D02*
X5788873Y-10035722D01*
X5788873Y-10035722D02*
X5788873Y-10054770D01*
X5788873Y-10054770D02*
X5693634Y-10073817D01*
X5960301Y-10140484D02*
X5960301Y-9940484D01*
X5960301Y-10130960D02*
X5941254Y-10140484D01*
X5941254Y-10140484D02*
X5903158Y-10140484D01*
X5903158Y-10140484D02*
X5884111Y-10130960D01*
X5884111Y-10130960D02*
X5874587Y-10121436D01*
X5874587Y-10121436D02*
X5865063Y-10102389D01*
X5865063Y-10102389D02*
X5865063Y-10045246D01*
X5865063Y-10045246D02*
X5874587Y-10026198D01*
X5874587Y-10026198D02*
X5884111Y-10016674D01*
X5884111Y-10016674D02*
X5903158Y-10007150D01*
X5903158Y-10007150D02*
X5941254Y-10007150D01*
X5941254Y-10007150D02*
X5960301Y-10016674D01*
X6036492Y-10216674D02*
X6046015Y-10207150D01*
X6046015Y-10207150D02*
X6065063Y-10178579D01*
X6065063Y-10178579D02*
X6074587Y-10159531D01*
X6074587Y-10159531D02*
X6084111Y-10130960D01*
X6084111Y-10130960D02*
X6093634Y-10083341D01*
X6093634Y-10083341D02*
X6093634Y-10045246D01*
X6093634Y-10045246D02*
X6084111Y-9997627D01*
X6084111Y-9997627D02*
X6074587Y-9969055D01*
X6074587Y-9969055D02*
X6065063Y-9950008D01*
X6065063Y-9950008D02*
X6046015Y-9921436D01*
X6046015Y-9921436D02*
X6036492Y-9911912D01*
X-1010000Y-10469000D02*
X-910000Y-10369000D01*
X-1010000Y-10269000D01*
X-1110000Y-10369000D01*
X-1010000Y-10469000D01*
X-563509Y-10327150D02*
X-563509Y-10460484D01*
X-611128Y-10250960D02*
X-658747Y-10393817D01*
X-658747Y-10393817D02*
X-534937Y-10393817D01*
X-458747Y-10441436D02*
X-449223Y-10450960D01*
X-449223Y-10450960D02*
X-458747Y-10460484D01*
X-458747Y-10460484D02*
X-468271Y-10450960D01*
X-468271Y-10450960D02*
X-458747Y-10441436D01*
X-458747Y-10441436D02*
X-458747Y-10460484D01*
X-325414Y-10260484D02*
X-306366Y-10260484D01*
X-306366Y-10260484D02*
X-287318Y-10270008D01*
X-287318Y-10270008D02*
X-277795Y-10279531D01*
X-277795Y-10279531D02*
X-268271Y-10298579D01*
X-268271Y-10298579D02*
X-258747Y-10336674D01*
X-258747Y-10336674D02*
X-258747Y-10384293D01*
X-258747Y-10384293D02*
X-268271Y-10422389D01*
X-268271Y-10422389D02*
X-277795Y-10441436D01*
X-277795Y-10441436D02*
X-287318Y-10450960D01*
X-287318Y-10450960D02*
X-306366Y-10460484D01*
X-306366Y-10460484D02*
X-325414Y-10460484D01*
X-325414Y-10460484D02*
X-344461Y-10450960D01*
X-344461Y-10450960D02*
X-353985Y-10441436D01*
X-353985Y-10441436D02*
X-363509Y-10422389D01*
X-363509Y-10422389D02*
X-373033Y-10384293D01*
X-373033Y-10384293D02*
X-373033Y-10336674D01*
X-373033Y-10336674D02*
X-363509Y-10298579D01*
X-363509Y-10298579D02*
X-353985Y-10279531D01*
X-353985Y-10279531D02*
X-344461Y-10270008D01*
X-344461Y-10270008D02*
X-325414Y-10260484D01*
X-134937Y-10260484D02*
X-115890Y-10260484D01*
X-115890Y-10260484D02*
X-96842Y-10270008D01*
X-96842Y-10270008D02*
X-87318Y-10279531D01*
X-87318Y-10279531D02*
X-77795Y-10298579D01*
X-77795Y-10298579D02*
X-68271Y-10336674D01*
X-68271Y-10336674D02*
X-68271Y-10384293D01*
X-68271Y-10384293D02*
X-77795Y-10422389D01*
X-77795Y-10422389D02*
X-87318Y-10441436D01*
X-87318Y-10441436D02*
X-96842Y-10450960D01*
X-96842Y-10450960D02*
X-115890Y-10460484D01*
X-115890Y-10460484D02*
X-134937Y-10460484D01*
X-134937Y-10460484D02*
X-153985Y-10450960D01*
X-153985Y-10450960D02*
X-163509Y-10441436D01*
X-163509Y-10441436D02*
X-173033Y-10422389D01*
X-173033Y-10422389D02*
X-182556Y-10384293D01*
X-182556Y-10384293D02*
X-182556Y-10336674D01*
X-182556Y-10336674D02*
X-173033Y-10298579D01*
X-173033Y-10298579D02*
X-163509Y-10279531D01*
X-163509Y-10279531D02*
X-153985Y-10270008D01*
X-153985Y-10270008D02*
X-134937Y-10260484D01*
X55539Y-10260484D02*
X74586Y-10260484D01*
X74586Y-10260484D02*
X93634Y-10270008D01*
X93634Y-10270008D02*
X103158Y-10279531D01*
X103158Y-10279531D02*
X112682Y-10298579D01*
X112682Y-10298579D02*
X122205Y-10336674D01*
X122205Y-10336674D02*
X122205Y-10384293D01*
X122205Y-10384293D02*
X112682Y-10422389D01*
X112682Y-10422389D02*
X103158Y-10441436D01*
X103158Y-10441436D02*
X93634Y-10450960D01*
X93634Y-10450960D02*
X74586Y-10460484D01*
X74586Y-10460484D02*
X55539Y-10460484D01*
X55539Y-10460484D02*
X36491Y-10450960D01*
X36491Y-10450960D02*
X26967Y-10441436D01*
X26967Y-10441436D02*
X17444Y-10422389D01*
X17444Y-10422389D02*
X7920Y-10384293D01*
X7920Y-10384293D02*
X7920Y-10336674D01*
X7920Y-10336674D02*
X17444Y-10298579D01*
X17444Y-10298579D02*
X26967Y-10279531D01*
X26967Y-10279531D02*
X36491Y-10270008D01*
X36491Y-10270008D02*
X55539Y-10260484D01*
X207920Y-10460484D02*
X207920Y-10327150D01*
X207920Y-10346198D02*
X217443Y-10336674D01*
X217443Y-10336674D02*
X236491Y-10327150D01*
X236491Y-10327150D02*
X265063Y-10327150D01*
X265063Y-10327150D02*
X284110Y-10336674D01*
X284110Y-10336674D02*
X293634Y-10355722D01*
X293634Y-10355722D02*
X293634Y-10460484D01*
X293634Y-10355722D02*
X303158Y-10336674D01*
X303158Y-10336674D02*
X322205Y-10327150D01*
X322205Y-10327150D02*
X350777Y-10327150D01*
X350777Y-10327150D02*
X369824Y-10336674D01*
X369824Y-10336674D02*
X379348Y-10355722D01*
X379348Y-10355722D02*
X379348Y-10460484D01*
X474586Y-10460484D02*
X474586Y-10327150D01*
X474586Y-10346198D02*
X484110Y-10336674D01*
X484110Y-10336674D02*
X503158Y-10327150D01*
X503158Y-10327150D02*
X531729Y-10327150D01*
X531729Y-10327150D02*
X550777Y-10336674D01*
X550777Y-10336674D02*
X560301Y-10355722D01*
X560301Y-10355722D02*
X560301Y-10460484D01*
X560301Y-10355722D02*
X569825Y-10336674D01*
X569825Y-10336674D02*
X588872Y-10327150D01*
X588872Y-10327150D02*
X617444Y-10327150D01*
X617444Y-10327150D02*
X636491Y-10336674D01*
X636491Y-10336674D02*
X646015Y-10355722D01*
X646015Y-10355722D02*
X646015Y-10460484D01*
X1036491Y-10250960D02*
X865063Y-10508103D01*
X1293634Y-10260484D02*
X1312682Y-10260484D01*
X1312682Y-10260484D02*
X1331729Y-10270008D01*
X1331729Y-10270008D02*
X1341253Y-10279531D01*
X1341253Y-10279531D02*
X1350777Y-10298579D01*
X1350777Y-10298579D02*
X1360301Y-10336674D01*
X1360301Y-10336674D02*
X1360301Y-10384293D01*
X1360301Y-10384293D02*
X1350777Y-10422389D01*
X1350777Y-10422389D02*
X1341253Y-10441436D01*
X1341253Y-10441436D02*
X1331729Y-10450960D01*
X1331729Y-10450960D02*
X1312682Y-10460484D01*
X1312682Y-10460484D02*
X1293634Y-10460484D01*
X1293634Y-10460484D02*
X1274587Y-10450960D01*
X1274587Y-10450960D02*
X1265063Y-10441436D01*
X1265063Y-10441436D02*
X1255539Y-10422389D01*
X1255539Y-10422389D02*
X1246015Y-10384293D01*
X1246015Y-10384293D02*
X1246015Y-10336674D01*
X1246015Y-10336674D02*
X1255539Y-10298579D01*
X1255539Y-10298579D02*
X1265063Y-10279531D01*
X1265063Y-10279531D02*
X1274587Y-10270008D01*
X1274587Y-10270008D02*
X1293634Y-10260484D01*
X1446015Y-10441436D02*
X1455539Y-10450960D01*
X1455539Y-10450960D02*
X1446015Y-10460484D01*
X1446015Y-10460484D02*
X1436491Y-10450960D01*
X1436491Y-10450960D02*
X1446015Y-10441436D01*
X1446015Y-10441436D02*
X1446015Y-10460484D01*
X1646015Y-10460484D02*
X1531729Y-10460484D01*
X1588872Y-10460484D02*
X1588872Y-10260484D01*
X1588872Y-10260484D02*
X1569825Y-10289055D01*
X1569825Y-10289055D02*
X1550777Y-10308103D01*
X1550777Y-10308103D02*
X1531729Y-10317627D01*
X1826967Y-10260484D02*
X1731729Y-10260484D01*
X1731729Y-10260484D02*
X1722206Y-10355722D01*
X1722206Y-10355722D02*
X1731729Y-10346198D01*
X1731729Y-10346198D02*
X1750777Y-10336674D01*
X1750777Y-10336674D02*
X1798396Y-10336674D01*
X1798396Y-10336674D02*
X1817444Y-10346198D01*
X1817444Y-10346198D02*
X1826967Y-10355722D01*
X1826967Y-10355722D02*
X1836491Y-10374770D01*
X1836491Y-10374770D02*
X1836491Y-10422389D01*
X1836491Y-10422389D02*
X1826967Y-10441436D01*
X1826967Y-10441436D02*
X1817444Y-10450960D01*
X1817444Y-10450960D02*
X1798396Y-10460484D01*
X1798396Y-10460484D02*
X1750777Y-10460484D01*
X1750777Y-10460484D02*
X1731729Y-10450960D01*
X1731729Y-10450960D02*
X1722206Y-10441436D01*
X1903158Y-10260484D02*
X2036491Y-10260484D01*
X2036491Y-10260484D02*
X1950777Y-10460484D01*
X2207920Y-10260484D02*
X2112682Y-10260484D01*
X2112682Y-10260484D02*
X2103158Y-10355722D01*
X2103158Y-10355722D02*
X2112682Y-10346198D01*
X2112682Y-10346198D02*
X2131729Y-10336674D01*
X2131729Y-10336674D02*
X2179349Y-10336674D01*
X2179349Y-10336674D02*
X2198396Y-10346198D01*
X2198396Y-10346198D02*
X2207920Y-10355722D01*
X2207920Y-10355722D02*
X2217444Y-10374770D01*
X2217444Y-10374770D02*
X2217444Y-10422389D01*
X2217444Y-10422389D02*
X2207920Y-10441436D01*
X2207920Y-10441436D02*
X2198396Y-10450960D01*
X2198396Y-10450960D02*
X2179349Y-10460484D01*
X2179349Y-10460484D02*
X2131729Y-10460484D01*
X2131729Y-10460484D02*
X2112682Y-10450960D01*
X2112682Y-10450960D02*
X2103158Y-10441436D01*
X2293634Y-10260484D02*
X2293634Y-10298579D01*
X2369825Y-10260484D02*
X2369825Y-10298579D01*
X2665063Y-10536674D02*
X2655539Y-10527150D01*
X2655539Y-10527150D02*
X2636491Y-10498579D01*
X2636491Y-10498579D02*
X2626968Y-10479531D01*
X2626968Y-10479531D02*
X2617444Y-10450960D01*
X2617444Y-10450960D02*
X2607920Y-10403341D01*
X2607920Y-10403341D02*
X2607920Y-10365246D01*
X2607920Y-10365246D02*
X2617444Y-10317627D01*
X2617444Y-10317627D02*
X2626968Y-10289055D01*
X2626968Y-10289055D02*
X2636491Y-10270008D01*
X2636491Y-10270008D02*
X2655539Y-10241436D01*
X2655539Y-10241436D02*
X2665063Y-10231912D01*
X2826968Y-10260484D02*
X2788872Y-10260484D01*
X2788872Y-10260484D02*
X2769825Y-10270008D01*
X2769825Y-10270008D02*
X2760301Y-10279531D01*
X2760301Y-10279531D02*
X2741253Y-10308103D01*
X2741253Y-10308103D02*
X2731730Y-10346198D01*
X2731730Y-10346198D02*
X2731730Y-10422389D01*
X2731730Y-10422389D02*
X2741253Y-10441436D01*
X2741253Y-10441436D02*
X2750777Y-10450960D01*
X2750777Y-10450960D02*
X2769825Y-10460484D01*
X2769825Y-10460484D02*
X2807920Y-10460484D01*
X2807920Y-10460484D02*
X2826968Y-10450960D01*
X2826968Y-10450960D02*
X2836491Y-10441436D01*
X2836491Y-10441436D02*
X2846015Y-10422389D01*
X2846015Y-10422389D02*
X2846015Y-10374770D01*
X2846015Y-10374770D02*
X2836491Y-10355722D01*
X2836491Y-10355722D02*
X2826968Y-10346198D01*
X2826968Y-10346198D02*
X2807920Y-10336674D01*
X2807920Y-10336674D02*
X2769825Y-10336674D01*
X2769825Y-10336674D02*
X2750777Y-10346198D01*
X2750777Y-10346198D02*
X2741253Y-10355722D01*
X2741253Y-10355722D02*
X2731730Y-10374770D01*
X3026968Y-10260484D02*
X2931729Y-10260484D01*
X2931729Y-10260484D02*
X2922206Y-10355722D01*
X2922206Y-10355722D02*
X2931729Y-10346198D01*
X2931729Y-10346198D02*
X2950777Y-10336674D01*
X2950777Y-10336674D02*
X2998396Y-10336674D01*
X2998396Y-10336674D02*
X3017444Y-10346198D01*
X3017444Y-10346198D02*
X3026968Y-10355722D01*
X3026968Y-10355722D02*
X3036491Y-10374770D01*
X3036491Y-10374770D02*
X3036491Y-10422389D01*
X3036491Y-10422389D02*
X3026968Y-10441436D01*
X3026968Y-10441436D02*
X3017444Y-10450960D01*
X3017444Y-10450960D02*
X2998396Y-10460484D01*
X2998396Y-10460484D02*
X2950777Y-10460484D01*
X2950777Y-10460484D02*
X2931729Y-10450960D01*
X2931729Y-10450960D02*
X2922206Y-10441436D01*
X3274587Y-10460484D02*
X3274587Y-10260484D01*
X3360301Y-10460484D02*
X3360301Y-10355722D01*
X3360301Y-10355722D02*
X3350777Y-10336674D01*
X3350777Y-10336674D02*
X3331730Y-10327150D01*
X3331730Y-10327150D02*
X3303158Y-10327150D01*
X3303158Y-10327150D02*
X3284110Y-10336674D01*
X3284110Y-10336674D02*
X3274587Y-10346198D01*
X3484110Y-10460484D02*
X3465063Y-10450960D01*
X3465063Y-10450960D02*
X3455539Y-10441436D01*
X3455539Y-10441436D02*
X3446015Y-10422389D01*
X3446015Y-10422389D02*
X3446015Y-10365246D01*
X3446015Y-10365246D02*
X3455539Y-10346198D01*
X3455539Y-10346198D02*
X3465063Y-10336674D01*
X3465063Y-10336674D02*
X3484110Y-10327150D01*
X3484110Y-10327150D02*
X3512682Y-10327150D01*
X3512682Y-10327150D02*
X3531730Y-10336674D01*
X3531730Y-10336674D02*
X3541253Y-10346198D01*
X3541253Y-10346198D02*
X3550777Y-10365246D01*
X3550777Y-10365246D02*
X3550777Y-10422389D01*
X3550777Y-10422389D02*
X3541253Y-10441436D01*
X3541253Y-10441436D02*
X3531730Y-10450960D01*
X3531730Y-10450960D02*
X3512682Y-10460484D01*
X3512682Y-10460484D02*
X3484110Y-10460484D01*
X3665063Y-10460484D02*
X3646015Y-10450960D01*
X3646015Y-10450960D02*
X3636491Y-10431912D01*
X3636491Y-10431912D02*
X3636491Y-10260484D01*
X3817444Y-10450960D02*
X3798396Y-10460484D01*
X3798396Y-10460484D02*
X3760301Y-10460484D01*
X3760301Y-10460484D02*
X3741253Y-10450960D01*
X3741253Y-10450960D02*
X3731730Y-10431912D01*
X3731730Y-10431912D02*
X3731730Y-10355722D01*
X3731730Y-10355722D02*
X3741253Y-10336674D01*
X3741253Y-10336674D02*
X3760301Y-10327150D01*
X3760301Y-10327150D02*
X3798396Y-10327150D01*
X3798396Y-10327150D02*
X3817444Y-10336674D01*
X3817444Y-10336674D02*
X3826968Y-10355722D01*
X3826968Y-10355722D02*
X3826968Y-10374770D01*
X3826968Y-10374770D02*
X3731730Y-10393817D01*
X3903158Y-10450960D02*
X3922206Y-10460484D01*
X3922206Y-10460484D02*
X3960301Y-10460484D01*
X3960301Y-10460484D02*
X3979349Y-10450960D01*
X3979349Y-10450960D02*
X3988872Y-10431912D01*
X3988872Y-10431912D02*
X3988872Y-10422389D01*
X3988872Y-10422389D02*
X3979349Y-10403341D01*
X3979349Y-10403341D02*
X3960301Y-10393817D01*
X3960301Y-10393817D02*
X3931730Y-10393817D01*
X3931730Y-10393817D02*
X3912682Y-10384293D01*
X3912682Y-10384293D02*
X3903158Y-10365246D01*
X3903158Y-10365246D02*
X3903158Y-10355722D01*
X3903158Y-10355722D02*
X3912682Y-10336674D01*
X3912682Y-10336674D02*
X3931730Y-10327150D01*
X3931730Y-10327150D02*
X3960301Y-10327150D01*
X3960301Y-10327150D02*
X3979349Y-10336674D01*
X4226968Y-10384293D02*
X4379349Y-10384293D01*
X4303158Y-10460484D02*
X4303158Y-10308103D01*
X4712682Y-10260484D02*
X4674587Y-10260484D01*
X4674587Y-10260484D02*
X4655539Y-10270008D01*
X4655539Y-10270008D02*
X4646015Y-10279531D01*
X4646015Y-10279531D02*
X4626968Y-10308103D01*
X4626968Y-10308103D02*
X4617444Y-10346198D01*
X4617444Y-10346198D02*
X4617444Y-10422389D01*
X4617444Y-10422389D02*
X4626968Y-10441436D01*
X4626968Y-10441436D02*
X4636492Y-10450960D01*
X4636492Y-10450960D02*
X4655539Y-10460484D01*
X4655539Y-10460484D02*
X4693635Y-10460484D01*
X4693635Y-10460484D02*
X4712682Y-10450960D01*
X4712682Y-10450960D02*
X4722206Y-10441436D01*
X4722206Y-10441436D02*
X4731730Y-10422389D01*
X4731730Y-10422389D02*
X4731730Y-10374770D01*
X4731730Y-10374770D02*
X4722206Y-10355722D01*
X4722206Y-10355722D02*
X4712682Y-10346198D01*
X4712682Y-10346198D02*
X4693635Y-10336674D01*
X4693635Y-10336674D02*
X4655539Y-10336674D01*
X4655539Y-10336674D02*
X4636492Y-10346198D01*
X4636492Y-10346198D02*
X4626968Y-10355722D01*
X4626968Y-10355722D02*
X4617444Y-10374770D01*
X4960301Y-10450960D02*
X4979349Y-10460484D01*
X4979349Y-10460484D02*
X5017444Y-10460484D01*
X5017444Y-10460484D02*
X5036492Y-10450960D01*
X5036492Y-10450960D02*
X5046016Y-10431912D01*
X5046016Y-10431912D02*
X5046016Y-10422389D01*
X5046016Y-10422389D02*
X5036492Y-10403341D01*
X5036492Y-10403341D02*
X5017444Y-10393817D01*
X5017444Y-10393817D02*
X4988873Y-10393817D01*
X4988873Y-10393817D02*
X4969825Y-10384293D01*
X4969825Y-10384293D02*
X4960301Y-10365246D01*
X4960301Y-10365246D02*
X4960301Y-10355722D01*
X4960301Y-10355722D02*
X4969825Y-10336674D01*
X4969825Y-10336674D02*
X4988873Y-10327150D01*
X4988873Y-10327150D02*
X5017444Y-10327150D01*
X5017444Y-10327150D02*
X5036492Y-10336674D01*
X5160301Y-10460484D02*
X5141254Y-10450960D01*
X5141254Y-10450960D02*
X5131730Y-10431912D01*
X5131730Y-10431912D02*
X5131730Y-10260484D01*
X5265063Y-10460484D02*
X5246016Y-10450960D01*
X5246016Y-10450960D02*
X5236492Y-10441436D01*
X5236492Y-10441436D02*
X5226968Y-10422389D01*
X5226968Y-10422389D02*
X5226968Y-10365246D01*
X5226968Y-10365246D02*
X5236492Y-10346198D01*
X5236492Y-10346198D02*
X5246016Y-10336674D01*
X5246016Y-10336674D02*
X5265063Y-10327150D01*
X5265063Y-10327150D02*
X5293635Y-10327150D01*
X5293635Y-10327150D02*
X5312682Y-10336674D01*
X5312682Y-10336674D02*
X5322206Y-10346198D01*
X5322206Y-10346198D02*
X5331730Y-10365246D01*
X5331730Y-10365246D02*
X5331730Y-10422389D01*
X5331730Y-10422389D02*
X5322206Y-10441436D01*
X5322206Y-10441436D02*
X5312682Y-10450960D01*
X5312682Y-10450960D02*
X5293635Y-10460484D01*
X5293635Y-10460484D02*
X5265063Y-10460484D01*
X5388873Y-10327150D02*
X5465063Y-10327150D01*
X5417444Y-10260484D02*
X5417444Y-10431912D01*
X5417444Y-10431912D02*
X5426968Y-10450960D01*
X5426968Y-10450960D02*
X5446016Y-10460484D01*
X5446016Y-10460484D02*
X5465063Y-10460484D01*
X5522206Y-10450960D02*
X5541254Y-10460484D01*
X5541254Y-10460484D02*
X5579349Y-10460484D01*
X5579349Y-10460484D02*
X5598396Y-10450960D01*
X5598396Y-10450960D02*
X5607920Y-10431912D01*
X5607920Y-10431912D02*
X5607920Y-10422389D01*
X5607920Y-10422389D02*
X5598396Y-10403341D01*
X5598396Y-10403341D02*
X5579349Y-10393817D01*
X5579349Y-10393817D02*
X5550777Y-10393817D01*
X5550777Y-10393817D02*
X5531730Y-10384293D01*
X5531730Y-10384293D02*
X5522206Y-10365246D01*
X5522206Y-10365246D02*
X5522206Y-10355722D01*
X5522206Y-10355722D02*
X5531730Y-10336674D01*
X5531730Y-10336674D02*
X5550777Y-10327150D01*
X5550777Y-10327150D02*
X5579349Y-10327150D01*
X5579349Y-10327150D02*
X5598396Y-10336674D01*
X5674587Y-10536674D02*
X5684111Y-10527150D01*
X5684111Y-10527150D02*
X5703158Y-10498579D01*
X5703158Y-10498579D02*
X5712682Y-10479531D01*
X5712682Y-10479531D02*
X5722206Y-10450960D01*
X5722206Y-10450960D02*
X5731730Y-10403341D01*
X5731730Y-10403341D02*
X5731730Y-10365246D01*
X5731730Y-10365246D02*
X5722206Y-10317627D01*
X5722206Y-10317627D02*
X5712682Y-10289055D01*
X5712682Y-10289055D02*
X5703158Y-10270008D01*
X5703158Y-10270008D02*
X5684111Y-10241436D01*
X5684111Y-10241436D02*
X5674587Y-10231912D01*
X6036492Y-10536674D02*
X6026968Y-10527150D01*
X6026968Y-10527150D02*
X6007920Y-10498579D01*
X6007920Y-10498579D02*
X5998396Y-10479531D01*
X5998396Y-10479531D02*
X5988873Y-10450960D01*
X5988873Y-10450960D02*
X5979349Y-10403341D01*
X5979349Y-10403341D02*
X5979349Y-10365246D01*
X5979349Y-10365246D02*
X5988873Y-10317627D01*
X5988873Y-10317627D02*
X5998396Y-10289055D01*
X5998396Y-10289055D02*
X6007920Y-10270008D01*
X6007920Y-10270008D02*
X6026968Y-10241436D01*
X6026968Y-10241436D02*
X6036492Y-10231912D01*
X6112682Y-10327150D02*
X6112682Y-10460484D01*
X6112682Y-10346198D02*
X6122206Y-10336674D01*
X6122206Y-10336674D02*
X6141254Y-10327150D01*
X6141254Y-10327150D02*
X6169825Y-10327150D01*
X6169825Y-10327150D02*
X6188873Y-10336674D01*
X6188873Y-10336674D02*
X6198396Y-10355722D01*
X6198396Y-10355722D02*
X6198396Y-10460484D01*
X6322206Y-10460484D02*
X6303158Y-10450960D01*
X6303158Y-10450960D02*
X6293635Y-10441436D01*
X6293635Y-10441436D02*
X6284111Y-10422389D01*
X6284111Y-10422389D02*
X6284111Y-10365246D01*
X6284111Y-10365246D02*
X6293635Y-10346198D01*
X6293635Y-10346198D02*
X6303158Y-10336674D01*
X6303158Y-10336674D02*
X6322206Y-10327150D01*
X6322206Y-10327150D02*
X6350777Y-10327150D01*
X6350777Y-10327150D02*
X6369825Y-10336674D01*
X6369825Y-10336674D02*
X6379349Y-10346198D01*
X6379349Y-10346198D02*
X6388873Y-10365246D01*
X6388873Y-10365246D02*
X6388873Y-10422389D01*
X6388873Y-10422389D02*
X6379349Y-10441436D01*
X6379349Y-10441436D02*
X6369825Y-10450960D01*
X6369825Y-10450960D02*
X6350777Y-10460484D01*
X6350777Y-10460484D02*
X6322206Y-10460484D01*
X6446016Y-10327150D02*
X6522206Y-10327150D01*
X6474587Y-10260484D02*
X6474587Y-10431912D01*
X6474587Y-10431912D02*
X6484111Y-10450960D01*
X6484111Y-10450960D02*
X6503158Y-10460484D01*
X6503158Y-10460484D02*
X6522206Y-10460484D01*
X6741254Y-10327150D02*
X6741254Y-10527150D01*
X6741254Y-10336674D02*
X6760301Y-10327150D01*
X6760301Y-10327150D02*
X6798397Y-10327150D01*
X6798397Y-10327150D02*
X6817444Y-10336674D01*
X6817444Y-10336674D02*
X6826968Y-10346198D01*
X6826968Y-10346198D02*
X6836492Y-10365246D01*
X6836492Y-10365246D02*
X6836492Y-10422389D01*
X6836492Y-10422389D02*
X6826968Y-10441436D01*
X6826968Y-10441436D02*
X6817444Y-10450960D01*
X6817444Y-10450960D02*
X6798397Y-10460484D01*
X6798397Y-10460484D02*
X6760301Y-10460484D01*
X6760301Y-10460484D02*
X6741254Y-10450960D01*
X6950777Y-10460484D02*
X6931730Y-10450960D01*
X6931730Y-10450960D02*
X6922206Y-10431912D01*
X6922206Y-10431912D02*
X6922206Y-10260484D01*
X7112682Y-10460484D02*
X7112682Y-10355722D01*
X7112682Y-10355722D02*
X7103158Y-10336674D01*
X7103158Y-10336674D02*
X7084111Y-10327150D01*
X7084111Y-10327150D02*
X7046016Y-10327150D01*
X7046016Y-10327150D02*
X7026968Y-10336674D01*
X7112682Y-10450960D02*
X7093635Y-10460484D01*
X7093635Y-10460484D02*
X7046016Y-10460484D01*
X7046016Y-10460484D02*
X7026968Y-10450960D01*
X7026968Y-10450960D02*
X7017444Y-10431912D01*
X7017444Y-10431912D02*
X7017444Y-10412865D01*
X7017444Y-10412865D02*
X7026968Y-10393817D01*
X7026968Y-10393817D02*
X7046016Y-10384293D01*
X7046016Y-10384293D02*
X7093635Y-10384293D01*
X7093635Y-10384293D02*
X7112682Y-10374770D01*
X7179349Y-10327150D02*
X7255539Y-10327150D01*
X7207920Y-10260484D02*
X7207920Y-10431912D01*
X7207920Y-10431912D02*
X7217444Y-10450960D01*
X7217444Y-10450960D02*
X7236492Y-10460484D01*
X7236492Y-10460484D02*
X7255539Y-10460484D01*
X7398397Y-10450960D02*
X7379349Y-10460484D01*
X7379349Y-10460484D02*
X7341254Y-10460484D01*
X7341254Y-10460484D02*
X7322206Y-10450960D01*
X7322206Y-10450960D02*
X7312682Y-10431912D01*
X7312682Y-10431912D02*
X7312682Y-10355722D01*
X7312682Y-10355722D02*
X7322206Y-10336674D01*
X7322206Y-10336674D02*
X7341254Y-10327150D01*
X7341254Y-10327150D02*
X7379349Y-10327150D01*
X7379349Y-10327150D02*
X7398397Y-10336674D01*
X7398397Y-10336674D02*
X7407920Y-10355722D01*
X7407920Y-10355722D02*
X7407920Y-10374770D01*
X7407920Y-10374770D02*
X7312682Y-10393817D01*
X7579349Y-10460484D02*
X7579349Y-10260484D01*
X7579349Y-10450960D02*
X7560301Y-10460484D01*
X7560301Y-10460484D02*
X7522206Y-10460484D01*
X7522206Y-10460484D02*
X7503158Y-10450960D01*
X7503158Y-10450960D02*
X7493635Y-10441436D01*
X7493635Y-10441436D02*
X7484111Y-10422389D01*
X7484111Y-10422389D02*
X7484111Y-10365246D01*
X7484111Y-10365246D02*
X7493635Y-10346198D01*
X7493635Y-10346198D02*
X7503158Y-10336674D01*
X7503158Y-10336674D02*
X7522206Y-10327150D01*
X7522206Y-10327150D02*
X7560301Y-10327150D01*
X7560301Y-10327150D02*
X7579349Y-10336674D01*
X7655539Y-10536674D02*
X7665063Y-10527150D01*
X7665063Y-10527150D02*
X7684111Y-10498579D01*
X7684111Y-10498579D02*
X7693635Y-10479531D01*
X7693635Y-10479531D02*
X7703158Y-10450960D01*
X7703158Y-10450960D02*
X7712682Y-10403341D01*
X7712682Y-10403341D02*
X7712682Y-10365246D01*
X7712682Y-10365246D02*
X7703158Y-10317627D01*
X7703158Y-10317627D02*
X7693635Y-10289055D01*
X7693635Y-10289055D02*
X7684111Y-10270008D01*
X7684111Y-10270008D02*
X7665063Y-10241436D01*
X7665063Y-10241436D02*
X7655539Y-10231912D01*
M02*
