G04 #@! TF.GenerationSoftware,KiCad,Pcbnew,8.0.4*
G04 #@! TF.CreationDate,2024-08-16T15:43:28+02:00*
G04 #@! TF.ProjectId,keyboard,6b657962-6f61-4726-942e-6b696361645f,rev?*
G04 #@! TF.SameCoordinates,Original*
G04 #@! TF.FileFunction,Legend,Top*
G04 #@! TF.FilePolarity,Positive*
%FSLAX46Y46*%
G04 Gerber Fmt 4.6, Leading zero omitted, Abs format (unit mm)*
G04 Created by KiCad (PCBNEW 8.0.4) date 2024-08-16 15:43:28*
%MOMM*%
%LPD*%
G01*
G04 APERTURE LIST*
%ADD10C,0.160000*%
%ADD11C,0.120000*%
%ADD12C,0.650000*%
%ADD13O,1.000000X2.200000*%
%ADD14O,1.000000X1.800000*%
%ADD15C,3.048000*%
%ADD16C,3.987800*%
%ADD17C,1.750000*%
%ADD18C,4.000000*%
%ADD19C,2.500000*%
%ADD20C,6.500000*%
%ADD21O,8.000000X5.000000*%
%ADD22O,10.000000X5.000000*%
%ADD23C,5.000000*%
G04 APERTURE END LIST*
D10*
X131629762Y-20904299D02*
X131629762Y-19904299D01*
X132201190Y-20904299D02*
X131772619Y-20332870D01*
X132201190Y-19904299D02*
X131629762Y-20475727D01*
X132391667Y-20999537D02*
X133153571Y-20999537D01*
X133344048Y-19999537D02*
X133391667Y-19951918D01*
X133391667Y-19951918D02*
X133486905Y-19904299D01*
X133486905Y-19904299D02*
X133725000Y-19904299D01*
X133725000Y-19904299D02*
X133820238Y-19951918D01*
X133820238Y-19951918D02*
X133867857Y-19999537D01*
X133867857Y-19999537D02*
X133915476Y-20094775D01*
X133915476Y-20094775D02*
X133915476Y-20190013D01*
X133915476Y-20190013D02*
X133867857Y-20332870D01*
X133867857Y-20332870D02*
X133296429Y-20904299D01*
X133296429Y-20904299D02*
X133915476Y-20904299D01*
X134867857Y-20904299D02*
X134296429Y-20904299D01*
X134582143Y-20904299D02*
X134582143Y-19904299D01*
X134582143Y-19904299D02*
X134486905Y-20047156D01*
X134486905Y-20047156D02*
X134391667Y-20142394D01*
X134391667Y-20142394D02*
X134296429Y-20190013D01*
X188779762Y-20904299D02*
X188779762Y-19904299D01*
X189351190Y-20904299D02*
X188922619Y-20332870D01*
X189351190Y-19904299D02*
X188779762Y-20475727D01*
X189541667Y-20999537D02*
X190303571Y-20999537D01*
X190494048Y-19999537D02*
X190541667Y-19951918D01*
X190541667Y-19951918D02*
X190636905Y-19904299D01*
X190636905Y-19904299D02*
X190875000Y-19904299D01*
X190875000Y-19904299D02*
X190970238Y-19951918D01*
X190970238Y-19951918D02*
X191017857Y-19999537D01*
X191017857Y-19999537D02*
X191065476Y-20094775D01*
X191065476Y-20094775D02*
X191065476Y-20190013D01*
X191065476Y-20190013D02*
X191017857Y-20332870D01*
X191017857Y-20332870D02*
X190446429Y-20904299D01*
X190446429Y-20904299D02*
X191065476Y-20904299D01*
X191922619Y-20237632D02*
X191922619Y-20904299D01*
X191684524Y-19856680D02*
X191446429Y-20570965D01*
X191446429Y-20570965D02*
X192065476Y-20570965D01*
X179730952Y-1854299D02*
X179730952Y-854299D01*
X180302380Y-1854299D02*
X179873809Y-1282870D01*
X180302380Y-854299D02*
X179730952Y-1425727D01*
X180492857Y-1949537D02*
X181254761Y-1949537D01*
X181540476Y-1854299D02*
X181730952Y-1854299D01*
X181730952Y-1854299D02*
X181826190Y-1806680D01*
X181826190Y-1806680D02*
X181873809Y-1759060D01*
X181873809Y-1759060D02*
X181969047Y-1616203D01*
X181969047Y-1616203D02*
X182016666Y-1425727D01*
X182016666Y-1425727D02*
X182016666Y-1044775D01*
X182016666Y-1044775D02*
X181969047Y-949537D01*
X181969047Y-949537D02*
X181921428Y-901918D01*
X181921428Y-901918D02*
X181826190Y-854299D01*
X181826190Y-854299D02*
X181635714Y-854299D01*
X181635714Y-854299D02*
X181540476Y-901918D01*
X181540476Y-901918D02*
X181492857Y-949537D01*
X181492857Y-949537D02*
X181445238Y-1044775D01*
X181445238Y-1044775D02*
X181445238Y-1282870D01*
X181445238Y-1282870D02*
X181492857Y-1378108D01*
X181492857Y-1378108D02*
X181540476Y-1425727D01*
X181540476Y-1425727D02*
X181635714Y-1473346D01*
X181635714Y-1473346D02*
X181826190Y-1473346D01*
X181826190Y-1473346D02*
X181921428Y-1425727D01*
X181921428Y-1425727D02*
X181969047Y-1378108D01*
X181969047Y-1378108D02*
X182016666Y-1282870D01*
X224498512Y-78054299D02*
X224498512Y-77054299D01*
X225069940Y-78054299D02*
X224641369Y-77482870D01*
X225069940Y-77054299D02*
X224498512Y-77625727D01*
X225260417Y-78149537D02*
X226022321Y-78149537D01*
X226736607Y-77054299D02*
X226260417Y-77054299D01*
X226260417Y-77054299D02*
X226212798Y-77530489D01*
X226212798Y-77530489D02*
X226260417Y-77482870D01*
X226260417Y-77482870D02*
X226355655Y-77435251D01*
X226355655Y-77435251D02*
X226593750Y-77435251D01*
X226593750Y-77435251D02*
X226688988Y-77482870D01*
X226688988Y-77482870D02*
X226736607Y-77530489D01*
X226736607Y-77530489D02*
X226784226Y-77625727D01*
X226784226Y-77625727D02*
X226784226Y-77863822D01*
X226784226Y-77863822D02*
X226736607Y-77959060D01*
X226736607Y-77959060D02*
X226688988Y-78006680D01*
X226688988Y-78006680D02*
X226593750Y-78054299D01*
X226593750Y-78054299D02*
X226355655Y-78054299D01*
X226355655Y-78054299D02*
X226260417Y-78006680D01*
X226260417Y-78006680D02*
X226212798Y-77959060D01*
X227260417Y-78054299D02*
X227450893Y-78054299D01*
X227450893Y-78054299D02*
X227546131Y-78006680D01*
X227546131Y-78006680D02*
X227593750Y-77959060D01*
X227593750Y-77959060D02*
X227688988Y-77816203D01*
X227688988Y-77816203D02*
X227736607Y-77625727D01*
X227736607Y-77625727D02*
X227736607Y-77244775D01*
X227736607Y-77244775D02*
X227688988Y-77149537D01*
X227688988Y-77149537D02*
X227641369Y-77101918D01*
X227641369Y-77101918D02*
X227546131Y-77054299D01*
X227546131Y-77054299D02*
X227355655Y-77054299D01*
X227355655Y-77054299D02*
X227260417Y-77101918D01*
X227260417Y-77101918D02*
X227212798Y-77149537D01*
X227212798Y-77149537D02*
X227165179Y-77244775D01*
X227165179Y-77244775D02*
X227165179Y-77482870D01*
X227165179Y-77482870D02*
X227212798Y-77578108D01*
X227212798Y-77578108D02*
X227260417Y-77625727D01*
X227260417Y-77625727D02*
X227355655Y-77673346D01*
X227355655Y-77673346D02*
X227546131Y-77673346D01*
X227546131Y-77673346D02*
X227641369Y-77625727D01*
X227641369Y-77625727D02*
X227688988Y-77578108D01*
X227688988Y-77578108D02*
X227736607Y-77482870D01*
X103530952Y-1854299D02*
X103530952Y-854299D01*
X104102380Y-1854299D02*
X103673809Y-1282870D01*
X104102380Y-854299D02*
X103530952Y-1425727D01*
X104292857Y-1949537D02*
X105054761Y-1949537D01*
X105769047Y-854299D02*
X105292857Y-854299D01*
X105292857Y-854299D02*
X105245238Y-1330489D01*
X105245238Y-1330489D02*
X105292857Y-1282870D01*
X105292857Y-1282870D02*
X105388095Y-1235251D01*
X105388095Y-1235251D02*
X105626190Y-1235251D01*
X105626190Y-1235251D02*
X105721428Y-1282870D01*
X105721428Y-1282870D02*
X105769047Y-1330489D01*
X105769047Y-1330489D02*
X105816666Y-1425727D01*
X105816666Y-1425727D02*
X105816666Y-1663822D01*
X105816666Y-1663822D02*
X105769047Y-1759060D01*
X105769047Y-1759060D02*
X105721428Y-1806680D01*
X105721428Y-1806680D02*
X105626190Y-1854299D01*
X105626190Y-1854299D02*
X105388095Y-1854299D01*
X105388095Y-1854299D02*
X105292857Y-1806680D01*
X105292857Y-1806680D02*
X105245238Y-1759060D01*
X248311012Y-78054299D02*
X248311012Y-77054299D01*
X248882440Y-78054299D02*
X248453869Y-77482870D01*
X248882440Y-77054299D02*
X248311012Y-77625727D01*
X249072917Y-78149537D02*
X249834821Y-78149537D01*
X250501488Y-77054299D02*
X250311012Y-77054299D01*
X250311012Y-77054299D02*
X250215774Y-77101918D01*
X250215774Y-77101918D02*
X250168155Y-77149537D01*
X250168155Y-77149537D02*
X250072917Y-77292394D01*
X250072917Y-77292394D02*
X250025298Y-77482870D01*
X250025298Y-77482870D02*
X250025298Y-77863822D01*
X250025298Y-77863822D02*
X250072917Y-77959060D01*
X250072917Y-77959060D02*
X250120536Y-78006680D01*
X250120536Y-78006680D02*
X250215774Y-78054299D01*
X250215774Y-78054299D02*
X250406250Y-78054299D01*
X250406250Y-78054299D02*
X250501488Y-78006680D01*
X250501488Y-78006680D02*
X250549107Y-77959060D01*
X250549107Y-77959060D02*
X250596726Y-77863822D01*
X250596726Y-77863822D02*
X250596726Y-77625727D01*
X250596726Y-77625727D02*
X250549107Y-77530489D01*
X250549107Y-77530489D02*
X250501488Y-77482870D01*
X250501488Y-77482870D02*
X250406250Y-77435251D01*
X250406250Y-77435251D02*
X250215774Y-77435251D01*
X250215774Y-77435251D02*
X250120536Y-77482870D01*
X250120536Y-77482870D02*
X250072917Y-77530489D01*
X250072917Y-77530489D02*
X250025298Y-77625727D01*
X251215774Y-77054299D02*
X251311012Y-77054299D01*
X251311012Y-77054299D02*
X251406250Y-77101918D01*
X251406250Y-77101918D02*
X251453869Y-77149537D01*
X251453869Y-77149537D02*
X251501488Y-77244775D01*
X251501488Y-77244775D02*
X251549107Y-77435251D01*
X251549107Y-77435251D02*
X251549107Y-77673346D01*
X251549107Y-77673346D02*
X251501488Y-77863822D01*
X251501488Y-77863822D02*
X251453869Y-77959060D01*
X251453869Y-77959060D02*
X251406250Y-78006680D01*
X251406250Y-78006680D02*
X251311012Y-78054299D01*
X251311012Y-78054299D02*
X251215774Y-78054299D01*
X251215774Y-78054299D02*
X251120536Y-78006680D01*
X251120536Y-78006680D02*
X251072917Y-77959060D01*
X251072917Y-77959060D02*
X251025298Y-77863822D01*
X251025298Y-77863822D02*
X250977679Y-77673346D01*
X250977679Y-77673346D02*
X250977679Y-77435251D01*
X250977679Y-77435251D02*
X251025298Y-77244775D01*
X251025298Y-77244775D02*
X251072917Y-77149537D01*
X251072917Y-77149537D02*
X251120536Y-77101918D01*
X251120536Y-77101918D02*
X251215774Y-77054299D01*
X255454762Y-1854299D02*
X255454762Y-854299D01*
X256026190Y-1854299D02*
X255597619Y-1282870D01*
X256026190Y-854299D02*
X255454762Y-1425727D01*
X256216667Y-1949537D02*
X256978571Y-1949537D01*
X257740476Y-1854299D02*
X257169048Y-1854299D01*
X257454762Y-1854299D02*
X257454762Y-854299D01*
X257454762Y-854299D02*
X257359524Y-997156D01*
X257359524Y-997156D02*
X257264286Y-1092394D01*
X257264286Y-1092394D02*
X257169048Y-1140013D01*
X258073810Y-854299D02*
X258692857Y-854299D01*
X258692857Y-854299D02*
X258359524Y-1235251D01*
X258359524Y-1235251D02*
X258502381Y-1235251D01*
X258502381Y-1235251D02*
X258597619Y-1282870D01*
X258597619Y-1282870D02*
X258645238Y-1330489D01*
X258645238Y-1330489D02*
X258692857Y-1425727D01*
X258692857Y-1425727D02*
X258692857Y-1663822D01*
X258692857Y-1663822D02*
X258645238Y-1759060D01*
X258645238Y-1759060D02*
X258597619Y-1806680D01*
X258597619Y-1806680D02*
X258502381Y-1854299D01*
X258502381Y-1854299D02*
X258216667Y-1854299D01*
X258216667Y-1854299D02*
X258121429Y-1806680D01*
X258121429Y-1806680D02*
X258073810Y-1759060D01*
X46380952Y-1854299D02*
X46380952Y-854299D01*
X46952380Y-1854299D02*
X46523809Y-1282870D01*
X46952380Y-854299D02*
X46380952Y-1425727D01*
X47142857Y-1949537D02*
X47904761Y-1949537D01*
X48095238Y-949537D02*
X48142857Y-901918D01*
X48142857Y-901918D02*
X48238095Y-854299D01*
X48238095Y-854299D02*
X48476190Y-854299D01*
X48476190Y-854299D02*
X48571428Y-901918D01*
X48571428Y-901918D02*
X48619047Y-949537D01*
X48619047Y-949537D02*
X48666666Y-1044775D01*
X48666666Y-1044775D02*
X48666666Y-1140013D01*
X48666666Y-1140013D02*
X48619047Y-1282870D01*
X48619047Y-1282870D02*
X48047619Y-1854299D01*
X48047619Y-1854299D02*
X48666666Y-1854299D01*
X27330952Y-1854299D02*
X27330952Y-854299D01*
X27902380Y-1854299D02*
X27473809Y-1282870D01*
X27902380Y-854299D02*
X27330952Y-1425727D01*
X28092857Y-1949537D02*
X28854761Y-1949537D01*
X29616666Y-1854299D02*
X29045238Y-1854299D01*
X29330952Y-1854299D02*
X29330952Y-854299D01*
X29330952Y-854299D02*
X29235714Y-997156D01*
X29235714Y-997156D02*
X29140476Y-1092394D01*
X29140476Y-1092394D02*
X29045238Y-1140013D01*
X226879762Y-20904299D02*
X226879762Y-19904299D01*
X227451190Y-20904299D02*
X227022619Y-20332870D01*
X227451190Y-19904299D02*
X226879762Y-20475727D01*
X227641667Y-20999537D02*
X228403571Y-20999537D01*
X228594048Y-19999537D02*
X228641667Y-19951918D01*
X228641667Y-19951918D02*
X228736905Y-19904299D01*
X228736905Y-19904299D02*
X228975000Y-19904299D01*
X228975000Y-19904299D02*
X229070238Y-19951918D01*
X229070238Y-19951918D02*
X229117857Y-19999537D01*
X229117857Y-19999537D02*
X229165476Y-20094775D01*
X229165476Y-20094775D02*
X229165476Y-20190013D01*
X229165476Y-20190013D02*
X229117857Y-20332870D01*
X229117857Y-20332870D02*
X228546429Y-20904299D01*
X228546429Y-20904299D02*
X229165476Y-20904299D01*
X230022619Y-19904299D02*
X229832143Y-19904299D01*
X229832143Y-19904299D02*
X229736905Y-19951918D01*
X229736905Y-19951918D02*
X229689286Y-19999537D01*
X229689286Y-19999537D02*
X229594048Y-20142394D01*
X229594048Y-20142394D02*
X229546429Y-20332870D01*
X229546429Y-20332870D02*
X229546429Y-20713822D01*
X229546429Y-20713822D02*
X229594048Y-20809060D01*
X229594048Y-20809060D02*
X229641667Y-20856680D01*
X229641667Y-20856680D02*
X229736905Y-20904299D01*
X229736905Y-20904299D02*
X229927381Y-20904299D01*
X229927381Y-20904299D02*
X230022619Y-20856680D01*
X230022619Y-20856680D02*
X230070238Y-20809060D01*
X230070238Y-20809060D02*
X230117857Y-20713822D01*
X230117857Y-20713822D02*
X230117857Y-20475727D01*
X230117857Y-20475727D02*
X230070238Y-20380489D01*
X230070238Y-20380489D02*
X230022619Y-20332870D01*
X230022619Y-20332870D02*
X229927381Y-20285251D01*
X229927381Y-20285251D02*
X229736905Y-20285251D01*
X229736905Y-20285251D02*
X229641667Y-20332870D01*
X229641667Y-20332870D02*
X229594048Y-20380489D01*
X229594048Y-20380489D02*
X229546429Y-20475727D01*
X212592262Y-39954299D02*
X212592262Y-38954299D01*
X213163690Y-39954299D02*
X212735119Y-39382870D01*
X213163690Y-38954299D02*
X212592262Y-39525727D01*
X213354167Y-40049537D02*
X214116071Y-40049537D01*
X214258929Y-38954299D02*
X214877976Y-38954299D01*
X214877976Y-38954299D02*
X214544643Y-39335251D01*
X214544643Y-39335251D02*
X214687500Y-39335251D01*
X214687500Y-39335251D02*
X214782738Y-39382870D01*
X214782738Y-39382870D02*
X214830357Y-39430489D01*
X214830357Y-39430489D02*
X214877976Y-39525727D01*
X214877976Y-39525727D02*
X214877976Y-39763822D01*
X214877976Y-39763822D02*
X214830357Y-39859060D01*
X214830357Y-39859060D02*
X214782738Y-39906680D01*
X214782738Y-39906680D02*
X214687500Y-39954299D01*
X214687500Y-39954299D02*
X214401786Y-39954299D01*
X214401786Y-39954299D02*
X214306548Y-39906680D01*
X214306548Y-39906680D02*
X214258929Y-39859060D01*
X215354167Y-39954299D02*
X215544643Y-39954299D01*
X215544643Y-39954299D02*
X215639881Y-39906680D01*
X215639881Y-39906680D02*
X215687500Y-39859060D01*
X215687500Y-39859060D02*
X215782738Y-39716203D01*
X215782738Y-39716203D02*
X215830357Y-39525727D01*
X215830357Y-39525727D02*
X215830357Y-39144775D01*
X215830357Y-39144775D02*
X215782738Y-39049537D01*
X215782738Y-39049537D02*
X215735119Y-39001918D01*
X215735119Y-39001918D02*
X215639881Y-38954299D01*
X215639881Y-38954299D02*
X215449405Y-38954299D01*
X215449405Y-38954299D02*
X215354167Y-39001918D01*
X215354167Y-39001918D02*
X215306548Y-39049537D01*
X215306548Y-39049537D02*
X215258929Y-39144775D01*
X215258929Y-39144775D02*
X215258929Y-39382870D01*
X215258929Y-39382870D02*
X215306548Y-39478108D01*
X215306548Y-39478108D02*
X215354167Y-39525727D01*
X215354167Y-39525727D02*
X215449405Y-39573346D01*
X215449405Y-39573346D02*
X215639881Y-39573346D01*
X215639881Y-39573346D02*
X215735119Y-39525727D01*
X215735119Y-39525727D02*
X215782738Y-39478108D01*
X215782738Y-39478108D02*
X215830357Y-39382870D01*
X141580952Y-18254299D02*
X141580952Y-17254299D01*
X142152380Y-18254299D02*
X141723809Y-17682870D01*
X142152380Y-17254299D02*
X141580952Y-17825727D01*
X142342857Y-18349537D02*
X143104761Y-18349537D01*
X143247619Y-17254299D02*
X143914285Y-17254299D01*
X143914285Y-17254299D02*
X143485714Y-18254299D01*
X160680952Y-1854299D02*
X160680952Y-854299D01*
X161252380Y-1854299D02*
X160823809Y-1282870D01*
X161252380Y-854299D02*
X160680952Y-1425727D01*
X161442857Y-1949537D02*
X162204761Y-1949537D01*
X162585714Y-1282870D02*
X162490476Y-1235251D01*
X162490476Y-1235251D02*
X162442857Y-1187632D01*
X162442857Y-1187632D02*
X162395238Y-1092394D01*
X162395238Y-1092394D02*
X162395238Y-1044775D01*
X162395238Y-1044775D02*
X162442857Y-949537D01*
X162442857Y-949537D02*
X162490476Y-901918D01*
X162490476Y-901918D02*
X162585714Y-854299D01*
X162585714Y-854299D02*
X162776190Y-854299D01*
X162776190Y-854299D02*
X162871428Y-901918D01*
X162871428Y-901918D02*
X162919047Y-949537D01*
X162919047Y-949537D02*
X162966666Y-1044775D01*
X162966666Y-1044775D02*
X162966666Y-1092394D01*
X162966666Y-1092394D02*
X162919047Y-1187632D01*
X162919047Y-1187632D02*
X162871428Y-1235251D01*
X162871428Y-1235251D02*
X162776190Y-1282870D01*
X162776190Y-1282870D02*
X162585714Y-1282870D01*
X162585714Y-1282870D02*
X162490476Y-1330489D01*
X162490476Y-1330489D02*
X162442857Y-1378108D01*
X162442857Y-1378108D02*
X162395238Y-1473346D01*
X162395238Y-1473346D02*
X162395238Y-1663822D01*
X162395238Y-1663822D02*
X162442857Y-1759060D01*
X162442857Y-1759060D02*
X162490476Y-1806680D01*
X162490476Y-1806680D02*
X162585714Y-1854299D01*
X162585714Y-1854299D02*
X162776190Y-1854299D01*
X162776190Y-1854299D02*
X162871428Y-1806680D01*
X162871428Y-1806680D02*
X162919047Y-1759060D01*
X162919047Y-1759060D02*
X162966666Y-1663822D01*
X162966666Y-1663822D02*
X162966666Y-1473346D01*
X162966666Y-1473346D02*
X162919047Y-1378108D01*
X162919047Y-1378108D02*
X162871428Y-1330489D01*
X162871428Y-1330489D02*
X162776190Y-1282870D01*
X272123512Y-78054299D02*
X272123512Y-77054299D01*
X272694940Y-78054299D02*
X272266369Y-77482870D01*
X272694940Y-77054299D02*
X272123512Y-77625727D01*
X272885417Y-78149537D02*
X273647321Y-78149537D01*
X274313988Y-77054299D02*
X274123512Y-77054299D01*
X274123512Y-77054299D02*
X274028274Y-77101918D01*
X274028274Y-77101918D02*
X273980655Y-77149537D01*
X273980655Y-77149537D02*
X273885417Y-77292394D01*
X273885417Y-77292394D02*
X273837798Y-77482870D01*
X273837798Y-77482870D02*
X273837798Y-77863822D01*
X273837798Y-77863822D02*
X273885417Y-77959060D01*
X273885417Y-77959060D02*
X273933036Y-78006680D01*
X273933036Y-78006680D02*
X274028274Y-78054299D01*
X274028274Y-78054299D02*
X274218750Y-78054299D01*
X274218750Y-78054299D02*
X274313988Y-78006680D01*
X274313988Y-78006680D02*
X274361607Y-77959060D01*
X274361607Y-77959060D02*
X274409226Y-77863822D01*
X274409226Y-77863822D02*
X274409226Y-77625727D01*
X274409226Y-77625727D02*
X274361607Y-77530489D01*
X274361607Y-77530489D02*
X274313988Y-77482870D01*
X274313988Y-77482870D02*
X274218750Y-77435251D01*
X274218750Y-77435251D02*
X274028274Y-77435251D01*
X274028274Y-77435251D02*
X273933036Y-77482870D01*
X273933036Y-77482870D02*
X273885417Y-77530489D01*
X273885417Y-77530489D02*
X273837798Y-77625727D01*
X275361607Y-78054299D02*
X274790179Y-78054299D01*
X275075893Y-78054299D02*
X275075893Y-77054299D01*
X275075893Y-77054299D02*
X274980655Y-77197156D01*
X274980655Y-77197156D02*
X274885417Y-77292394D01*
X274885417Y-77292394D02*
X274790179Y-77340013D01*
X41142262Y-39954299D02*
X41142262Y-38954299D01*
X41713690Y-39954299D02*
X41285119Y-39382870D01*
X41713690Y-38954299D02*
X41142262Y-39525727D01*
X41904167Y-40049537D02*
X42666071Y-40049537D01*
X42808929Y-38954299D02*
X43427976Y-38954299D01*
X43427976Y-38954299D02*
X43094643Y-39335251D01*
X43094643Y-39335251D02*
X43237500Y-39335251D01*
X43237500Y-39335251D02*
X43332738Y-39382870D01*
X43332738Y-39382870D02*
X43380357Y-39430489D01*
X43380357Y-39430489D02*
X43427976Y-39525727D01*
X43427976Y-39525727D02*
X43427976Y-39763822D01*
X43427976Y-39763822D02*
X43380357Y-39859060D01*
X43380357Y-39859060D02*
X43332738Y-39906680D01*
X43332738Y-39906680D02*
X43237500Y-39954299D01*
X43237500Y-39954299D02*
X42951786Y-39954299D01*
X42951786Y-39954299D02*
X42856548Y-39906680D01*
X42856548Y-39906680D02*
X42808929Y-39859060D01*
X44047024Y-38954299D02*
X44142262Y-38954299D01*
X44142262Y-38954299D02*
X44237500Y-39001918D01*
X44237500Y-39001918D02*
X44285119Y-39049537D01*
X44285119Y-39049537D02*
X44332738Y-39144775D01*
X44332738Y-39144775D02*
X44380357Y-39335251D01*
X44380357Y-39335251D02*
X44380357Y-39573346D01*
X44380357Y-39573346D02*
X44332738Y-39763822D01*
X44332738Y-39763822D02*
X44285119Y-39859060D01*
X44285119Y-39859060D02*
X44237500Y-39906680D01*
X44237500Y-39906680D02*
X44142262Y-39954299D01*
X44142262Y-39954299D02*
X44047024Y-39954299D01*
X44047024Y-39954299D02*
X43951786Y-39906680D01*
X43951786Y-39906680D02*
X43904167Y-39859060D01*
X43904167Y-39859060D02*
X43856548Y-39763822D01*
X43856548Y-39763822D02*
X43808929Y-39573346D01*
X43808929Y-39573346D02*
X43808929Y-39335251D01*
X43808929Y-39335251D02*
X43856548Y-39144775D01*
X43856548Y-39144775D02*
X43904167Y-39049537D01*
X43904167Y-39049537D02*
X43951786Y-39001918D01*
X43951786Y-39001918D02*
X44047024Y-38954299D01*
X8280952Y-1854299D02*
X8280952Y-854299D01*
X8852380Y-1854299D02*
X8423809Y-1282870D01*
X8852380Y-854299D02*
X8280952Y-1425727D01*
X9042857Y-1949537D02*
X9804761Y-1949537D01*
X10233333Y-854299D02*
X10328571Y-854299D01*
X10328571Y-854299D02*
X10423809Y-901918D01*
X10423809Y-901918D02*
X10471428Y-949537D01*
X10471428Y-949537D02*
X10519047Y-1044775D01*
X10519047Y-1044775D02*
X10566666Y-1235251D01*
X10566666Y-1235251D02*
X10566666Y-1473346D01*
X10566666Y-1473346D02*
X10519047Y-1663822D01*
X10519047Y-1663822D02*
X10471428Y-1759060D01*
X10471428Y-1759060D02*
X10423809Y-1806680D01*
X10423809Y-1806680D02*
X10328571Y-1854299D01*
X10328571Y-1854299D02*
X10233333Y-1854299D01*
X10233333Y-1854299D02*
X10138095Y-1806680D01*
X10138095Y-1806680D02*
X10090476Y-1759060D01*
X10090476Y-1759060D02*
X10042857Y-1663822D01*
X10042857Y-1663822D02*
X9995238Y-1473346D01*
X9995238Y-1473346D02*
X9995238Y-1235251D01*
X9995238Y-1235251D02*
X10042857Y-1044775D01*
X10042857Y-1044775D02*
X10090476Y-949537D01*
X10090476Y-949537D02*
X10138095Y-901918D01*
X10138095Y-901918D02*
X10233333Y-854299D01*
X207829762Y-20904299D02*
X207829762Y-19904299D01*
X208401190Y-20904299D02*
X207972619Y-20332870D01*
X208401190Y-19904299D02*
X207829762Y-20475727D01*
X208591667Y-20999537D02*
X209353571Y-20999537D01*
X209544048Y-19999537D02*
X209591667Y-19951918D01*
X209591667Y-19951918D02*
X209686905Y-19904299D01*
X209686905Y-19904299D02*
X209925000Y-19904299D01*
X209925000Y-19904299D02*
X210020238Y-19951918D01*
X210020238Y-19951918D02*
X210067857Y-19999537D01*
X210067857Y-19999537D02*
X210115476Y-20094775D01*
X210115476Y-20094775D02*
X210115476Y-20190013D01*
X210115476Y-20190013D02*
X210067857Y-20332870D01*
X210067857Y-20332870D02*
X209496429Y-20904299D01*
X209496429Y-20904299D02*
X210115476Y-20904299D01*
X211020238Y-19904299D02*
X210544048Y-19904299D01*
X210544048Y-19904299D02*
X210496429Y-20380489D01*
X210496429Y-20380489D02*
X210544048Y-20332870D01*
X210544048Y-20332870D02*
X210639286Y-20285251D01*
X210639286Y-20285251D02*
X210877381Y-20285251D01*
X210877381Y-20285251D02*
X210972619Y-20332870D01*
X210972619Y-20332870D02*
X211020238Y-20380489D01*
X211020238Y-20380489D02*
X211067857Y-20475727D01*
X211067857Y-20475727D02*
X211067857Y-20713822D01*
X211067857Y-20713822D02*
X211020238Y-20809060D01*
X211020238Y-20809060D02*
X210972619Y-20856680D01*
X210972619Y-20856680D02*
X210877381Y-20904299D01*
X210877381Y-20904299D02*
X210639286Y-20904299D01*
X210639286Y-20904299D02*
X210544048Y-20856680D01*
X210544048Y-20856680D02*
X210496429Y-20809060D01*
X262598512Y-39954299D02*
X262598512Y-38954299D01*
X263169940Y-39954299D02*
X262741369Y-39382870D01*
X263169940Y-38954299D02*
X262598512Y-39525727D01*
X263360417Y-40049537D02*
X264122321Y-40049537D01*
X264788988Y-39287632D02*
X264788988Y-39954299D01*
X264550893Y-38906680D02*
X264312798Y-39620965D01*
X264312798Y-39620965D02*
X264931845Y-39620965D01*
X265836607Y-39954299D02*
X265265179Y-39954299D01*
X265550893Y-39954299D02*
X265550893Y-38954299D01*
X265550893Y-38954299D02*
X265455655Y-39097156D01*
X265455655Y-39097156D02*
X265360417Y-39192394D01*
X265360417Y-39192394D02*
X265265179Y-39240013D01*
X164967262Y-59004299D02*
X164967262Y-58004299D01*
X165538690Y-59004299D02*
X165110119Y-58432870D01*
X165538690Y-58004299D02*
X164967262Y-58575727D01*
X165729167Y-59099537D02*
X166491071Y-59099537D01*
X167157738Y-58337632D02*
X167157738Y-59004299D01*
X166919643Y-57956680D02*
X166681548Y-58670965D01*
X166681548Y-58670965D02*
X167300595Y-58670965D01*
X167729167Y-59004299D02*
X167919643Y-59004299D01*
X167919643Y-59004299D02*
X168014881Y-58956680D01*
X168014881Y-58956680D02*
X168062500Y-58909060D01*
X168062500Y-58909060D02*
X168157738Y-58766203D01*
X168157738Y-58766203D02*
X168205357Y-58575727D01*
X168205357Y-58575727D02*
X168205357Y-58194775D01*
X168205357Y-58194775D02*
X168157738Y-58099537D01*
X168157738Y-58099537D02*
X168110119Y-58051918D01*
X168110119Y-58051918D02*
X168014881Y-58004299D01*
X168014881Y-58004299D02*
X167824405Y-58004299D01*
X167824405Y-58004299D02*
X167729167Y-58051918D01*
X167729167Y-58051918D02*
X167681548Y-58099537D01*
X167681548Y-58099537D02*
X167633929Y-58194775D01*
X167633929Y-58194775D02*
X167633929Y-58432870D01*
X167633929Y-58432870D02*
X167681548Y-58528108D01*
X167681548Y-58528108D02*
X167729167Y-58575727D01*
X167729167Y-58575727D02*
X167824405Y-58623346D01*
X167824405Y-58623346D02*
X168014881Y-58623346D01*
X168014881Y-58623346D02*
X168110119Y-58575727D01*
X168110119Y-58575727D02*
X168157738Y-58528108D01*
X168157738Y-58528108D02*
X168205357Y-58432870D01*
X107817262Y-59004299D02*
X107817262Y-58004299D01*
X108388690Y-59004299D02*
X107960119Y-58432870D01*
X108388690Y-58004299D02*
X107817262Y-58575727D01*
X108579167Y-59099537D02*
X109341071Y-59099537D01*
X110007738Y-58337632D02*
X110007738Y-59004299D01*
X109769643Y-57956680D02*
X109531548Y-58670965D01*
X109531548Y-58670965D02*
X110150595Y-58670965D01*
X110960119Y-58004299D02*
X110769643Y-58004299D01*
X110769643Y-58004299D02*
X110674405Y-58051918D01*
X110674405Y-58051918D02*
X110626786Y-58099537D01*
X110626786Y-58099537D02*
X110531548Y-58242394D01*
X110531548Y-58242394D02*
X110483929Y-58432870D01*
X110483929Y-58432870D02*
X110483929Y-58813822D01*
X110483929Y-58813822D02*
X110531548Y-58909060D01*
X110531548Y-58909060D02*
X110579167Y-58956680D01*
X110579167Y-58956680D02*
X110674405Y-59004299D01*
X110674405Y-59004299D02*
X110864881Y-59004299D01*
X110864881Y-59004299D02*
X110960119Y-58956680D01*
X110960119Y-58956680D02*
X111007738Y-58909060D01*
X111007738Y-58909060D02*
X111055357Y-58813822D01*
X111055357Y-58813822D02*
X111055357Y-58575727D01*
X111055357Y-58575727D02*
X111007738Y-58480489D01*
X111007738Y-58480489D02*
X110960119Y-58432870D01*
X110960119Y-58432870D02*
X110864881Y-58385251D01*
X110864881Y-58385251D02*
X110674405Y-58385251D01*
X110674405Y-58385251D02*
X110579167Y-58432870D01*
X110579167Y-58432870D02*
X110531548Y-58480489D01*
X110531548Y-58480489D02*
X110483929Y-58575727D01*
X122580952Y-18254299D02*
X122580952Y-17254299D01*
X123152380Y-18254299D02*
X122723809Y-17682870D01*
X123152380Y-17254299D02*
X122580952Y-17825727D01*
X123342857Y-18349537D02*
X124104761Y-18349537D01*
X124771428Y-17254299D02*
X124580952Y-17254299D01*
X124580952Y-17254299D02*
X124485714Y-17301918D01*
X124485714Y-17301918D02*
X124438095Y-17349537D01*
X124438095Y-17349537D02*
X124342857Y-17492394D01*
X124342857Y-17492394D02*
X124295238Y-17682870D01*
X124295238Y-17682870D02*
X124295238Y-18063822D01*
X124295238Y-18063822D02*
X124342857Y-18159060D01*
X124342857Y-18159060D02*
X124390476Y-18206680D01*
X124390476Y-18206680D02*
X124485714Y-18254299D01*
X124485714Y-18254299D02*
X124676190Y-18254299D01*
X124676190Y-18254299D02*
X124771428Y-18206680D01*
X124771428Y-18206680D02*
X124819047Y-18159060D01*
X124819047Y-18159060D02*
X124866666Y-18063822D01*
X124866666Y-18063822D02*
X124866666Y-17825727D01*
X124866666Y-17825727D02*
X124819047Y-17730489D01*
X124819047Y-17730489D02*
X124771428Y-17682870D01*
X124771428Y-17682870D02*
X124676190Y-17635251D01*
X124676190Y-17635251D02*
X124485714Y-17635251D01*
X124485714Y-17635251D02*
X124390476Y-17682870D01*
X124390476Y-17682870D02*
X124342857Y-17730489D01*
X124342857Y-17730489D02*
X124295238Y-17825727D01*
X198304762Y-1854299D02*
X198304762Y-854299D01*
X198876190Y-1854299D02*
X198447619Y-1282870D01*
X198876190Y-854299D02*
X198304762Y-1425727D01*
X199066667Y-1949537D02*
X199828571Y-1949537D01*
X200590476Y-1854299D02*
X200019048Y-1854299D01*
X200304762Y-1854299D02*
X200304762Y-854299D01*
X200304762Y-854299D02*
X200209524Y-997156D01*
X200209524Y-997156D02*
X200114286Y-1092394D01*
X200114286Y-1092394D02*
X200019048Y-1140013D01*
X201209524Y-854299D02*
X201304762Y-854299D01*
X201304762Y-854299D02*
X201400000Y-901918D01*
X201400000Y-901918D02*
X201447619Y-949537D01*
X201447619Y-949537D02*
X201495238Y-1044775D01*
X201495238Y-1044775D02*
X201542857Y-1235251D01*
X201542857Y-1235251D02*
X201542857Y-1473346D01*
X201542857Y-1473346D02*
X201495238Y-1663822D01*
X201495238Y-1663822D02*
X201447619Y-1759060D01*
X201447619Y-1759060D02*
X201400000Y-1806680D01*
X201400000Y-1806680D02*
X201304762Y-1854299D01*
X201304762Y-1854299D02*
X201209524Y-1854299D01*
X201209524Y-1854299D02*
X201114286Y-1806680D01*
X201114286Y-1806680D02*
X201066667Y-1759060D01*
X201066667Y-1759060D02*
X201019048Y-1663822D01*
X201019048Y-1663822D02*
X200971429Y-1473346D01*
X200971429Y-1473346D02*
X200971429Y-1235251D01*
X200971429Y-1235251D02*
X201019048Y-1044775D01*
X201019048Y-1044775D02*
X201066667Y-949537D01*
X201066667Y-949537D02*
X201114286Y-901918D01*
X201114286Y-901918D02*
X201209524Y-854299D01*
X245929762Y-20904299D02*
X245929762Y-19904299D01*
X246501190Y-20904299D02*
X246072619Y-20332870D01*
X246501190Y-19904299D02*
X245929762Y-20475727D01*
X246691667Y-20999537D02*
X247453571Y-20999537D01*
X247644048Y-19999537D02*
X247691667Y-19951918D01*
X247691667Y-19951918D02*
X247786905Y-19904299D01*
X247786905Y-19904299D02*
X248025000Y-19904299D01*
X248025000Y-19904299D02*
X248120238Y-19951918D01*
X248120238Y-19951918D02*
X248167857Y-19999537D01*
X248167857Y-19999537D02*
X248215476Y-20094775D01*
X248215476Y-20094775D02*
X248215476Y-20190013D01*
X248215476Y-20190013D02*
X248167857Y-20332870D01*
X248167857Y-20332870D02*
X247596429Y-20904299D01*
X247596429Y-20904299D02*
X248215476Y-20904299D01*
X248548810Y-19904299D02*
X249215476Y-19904299D01*
X249215476Y-19904299D02*
X248786905Y-20904299D01*
X112579762Y-20904299D02*
X112579762Y-19904299D01*
X113151190Y-20904299D02*
X112722619Y-20332870D01*
X113151190Y-19904299D02*
X112579762Y-20475727D01*
X113341667Y-20999537D02*
X114103571Y-20999537D01*
X114294048Y-19999537D02*
X114341667Y-19951918D01*
X114341667Y-19951918D02*
X114436905Y-19904299D01*
X114436905Y-19904299D02*
X114675000Y-19904299D01*
X114675000Y-19904299D02*
X114770238Y-19951918D01*
X114770238Y-19951918D02*
X114817857Y-19999537D01*
X114817857Y-19999537D02*
X114865476Y-20094775D01*
X114865476Y-20094775D02*
X114865476Y-20190013D01*
X114865476Y-20190013D02*
X114817857Y-20332870D01*
X114817857Y-20332870D02*
X114246429Y-20904299D01*
X114246429Y-20904299D02*
X114865476Y-20904299D01*
X115484524Y-19904299D02*
X115579762Y-19904299D01*
X115579762Y-19904299D02*
X115675000Y-19951918D01*
X115675000Y-19951918D02*
X115722619Y-19999537D01*
X115722619Y-19999537D02*
X115770238Y-20094775D01*
X115770238Y-20094775D02*
X115817857Y-20285251D01*
X115817857Y-20285251D02*
X115817857Y-20523346D01*
X115817857Y-20523346D02*
X115770238Y-20713822D01*
X115770238Y-20713822D02*
X115722619Y-20809060D01*
X115722619Y-20809060D02*
X115675000Y-20856680D01*
X115675000Y-20856680D02*
X115579762Y-20904299D01*
X115579762Y-20904299D02*
X115484524Y-20904299D01*
X115484524Y-20904299D02*
X115389286Y-20856680D01*
X115389286Y-20856680D02*
X115341667Y-20809060D01*
X115341667Y-20809060D02*
X115294048Y-20713822D01*
X115294048Y-20713822D02*
X115246429Y-20523346D01*
X115246429Y-20523346D02*
X115246429Y-20285251D01*
X115246429Y-20285251D02*
X115294048Y-20094775D01*
X115294048Y-20094775D02*
X115341667Y-19999537D01*
X115341667Y-19999537D02*
X115389286Y-19951918D01*
X115389286Y-19951918D02*
X115484524Y-19904299D01*
X136392262Y-39954299D02*
X136392262Y-38954299D01*
X136963690Y-39954299D02*
X136535119Y-39382870D01*
X136963690Y-38954299D02*
X136392262Y-39525727D01*
X137154167Y-40049537D02*
X137916071Y-40049537D01*
X138058929Y-38954299D02*
X138677976Y-38954299D01*
X138677976Y-38954299D02*
X138344643Y-39335251D01*
X138344643Y-39335251D02*
X138487500Y-39335251D01*
X138487500Y-39335251D02*
X138582738Y-39382870D01*
X138582738Y-39382870D02*
X138630357Y-39430489D01*
X138630357Y-39430489D02*
X138677976Y-39525727D01*
X138677976Y-39525727D02*
X138677976Y-39763822D01*
X138677976Y-39763822D02*
X138630357Y-39859060D01*
X138630357Y-39859060D02*
X138582738Y-39906680D01*
X138582738Y-39906680D02*
X138487500Y-39954299D01*
X138487500Y-39954299D02*
X138201786Y-39954299D01*
X138201786Y-39954299D02*
X138106548Y-39906680D01*
X138106548Y-39906680D02*
X138058929Y-39859060D01*
X139582738Y-38954299D02*
X139106548Y-38954299D01*
X139106548Y-38954299D02*
X139058929Y-39430489D01*
X139058929Y-39430489D02*
X139106548Y-39382870D01*
X139106548Y-39382870D02*
X139201786Y-39335251D01*
X139201786Y-39335251D02*
X139439881Y-39335251D01*
X139439881Y-39335251D02*
X139535119Y-39382870D01*
X139535119Y-39382870D02*
X139582738Y-39430489D01*
X139582738Y-39430489D02*
X139630357Y-39525727D01*
X139630357Y-39525727D02*
X139630357Y-39763822D01*
X139630357Y-39763822D02*
X139582738Y-39859060D01*
X139582738Y-39859060D02*
X139535119Y-39906680D01*
X139535119Y-39906680D02*
X139439881Y-39954299D01*
X139439881Y-39954299D02*
X139201786Y-39954299D01*
X139201786Y-39954299D02*
X139106548Y-39906680D01*
X139106548Y-39906680D02*
X139058929Y-39859060D01*
X174492262Y-39954299D02*
X174492262Y-38954299D01*
X175063690Y-39954299D02*
X174635119Y-39382870D01*
X175063690Y-38954299D02*
X174492262Y-39525727D01*
X175254167Y-40049537D02*
X176016071Y-40049537D01*
X176158929Y-38954299D02*
X176777976Y-38954299D01*
X176777976Y-38954299D02*
X176444643Y-39335251D01*
X176444643Y-39335251D02*
X176587500Y-39335251D01*
X176587500Y-39335251D02*
X176682738Y-39382870D01*
X176682738Y-39382870D02*
X176730357Y-39430489D01*
X176730357Y-39430489D02*
X176777976Y-39525727D01*
X176777976Y-39525727D02*
X176777976Y-39763822D01*
X176777976Y-39763822D02*
X176730357Y-39859060D01*
X176730357Y-39859060D02*
X176682738Y-39906680D01*
X176682738Y-39906680D02*
X176587500Y-39954299D01*
X176587500Y-39954299D02*
X176301786Y-39954299D01*
X176301786Y-39954299D02*
X176206548Y-39906680D01*
X176206548Y-39906680D02*
X176158929Y-39859060D01*
X177111310Y-38954299D02*
X177777976Y-38954299D01*
X177777976Y-38954299D02*
X177349405Y-39954299D01*
X155442262Y-39954299D02*
X155442262Y-38954299D01*
X156013690Y-39954299D02*
X155585119Y-39382870D01*
X156013690Y-38954299D02*
X155442262Y-39525727D01*
X156204167Y-40049537D02*
X156966071Y-40049537D01*
X157108929Y-38954299D02*
X157727976Y-38954299D01*
X157727976Y-38954299D02*
X157394643Y-39335251D01*
X157394643Y-39335251D02*
X157537500Y-39335251D01*
X157537500Y-39335251D02*
X157632738Y-39382870D01*
X157632738Y-39382870D02*
X157680357Y-39430489D01*
X157680357Y-39430489D02*
X157727976Y-39525727D01*
X157727976Y-39525727D02*
X157727976Y-39763822D01*
X157727976Y-39763822D02*
X157680357Y-39859060D01*
X157680357Y-39859060D02*
X157632738Y-39906680D01*
X157632738Y-39906680D02*
X157537500Y-39954299D01*
X157537500Y-39954299D02*
X157251786Y-39954299D01*
X157251786Y-39954299D02*
X157156548Y-39906680D01*
X157156548Y-39906680D02*
X157108929Y-39859060D01*
X158585119Y-38954299D02*
X158394643Y-38954299D01*
X158394643Y-38954299D02*
X158299405Y-39001918D01*
X158299405Y-39001918D02*
X158251786Y-39049537D01*
X158251786Y-39049537D02*
X158156548Y-39192394D01*
X158156548Y-39192394D02*
X158108929Y-39382870D01*
X158108929Y-39382870D02*
X158108929Y-39763822D01*
X158108929Y-39763822D02*
X158156548Y-39859060D01*
X158156548Y-39859060D02*
X158204167Y-39906680D01*
X158204167Y-39906680D02*
X158299405Y-39954299D01*
X158299405Y-39954299D02*
X158489881Y-39954299D01*
X158489881Y-39954299D02*
X158585119Y-39906680D01*
X158585119Y-39906680D02*
X158632738Y-39859060D01*
X158632738Y-39859060D02*
X158680357Y-39763822D01*
X158680357Y-39763822D02*
X158680357Y-39525727D01*
X158680357Y-39525727D02*
X158632738Y-39430489D01*
X158632738Y-39430489D02*
X158585119Y-39382870D01*
X158585119Y-39382870D02*
X158489881Y-39335251D01*
X158489881Y-39335251D02*
X158299405Y-39335251D01*
X158299405Y-39335251D02*
X158204167Y-39382870D01*
X158204167Y-39382870D02*
X158156548Y-39430489D01*
X158156548Y-39430489D02*
X158108929Y-39525727D01*
X36379762Y-20904299D02*
X36379762Y-19904299D01*
X36951190Y-20904299D02*
X36522619Y-20332870D01*
X36951190Y-19904299D02*
X36379762Y-20475727D01*
X37141667Y-20999537D02*
X37903571Y-20999537D01*
X38665476Y-20904299D02*
X38094048Y-20904299D01*
X38379762Y-20904299D02*
X38379762Y-19904299D01*
X38379762Y-19904299D02*
X38284524Y-20047156D01*
X38284524Y-20047156D02*
X38189286Y-20142394D01*
X38189286Y-20142394D02*
X38094048Y-20190013D01*
X39522619Y-19904299D02*
X39332143Y-19904299D01*
X39332143Y-19904299D02*
X39236905Y-19951918D01*
X39236905Y-19951918D02*
X39189286Y-19999537D01*
X39189286Y-19999537D02*
X39094048Y-20142394D01*
X39094048Y-20142394D02*
X39046429Y-20332870D01*
X39046429Y-20332870D02*
X39046429Y-20713822D01*
X39046429Y-20713822D02*
X39094048Y-20809060D01*
X39094048Y-20809060D02*
X39141667Y-20856680D01*
X39141667Y-20856680D02*
X39236905Y-20904299D01*
X39236905Y-20904299D02*
X39427381Y-20904299D01*
X39427381Y-20904299D02*
X39522619Y-20856680D01*
X39522619Y-20856680D02*
X39570238Y-20809060D01*
X39570238Y-20809060D02*
X39617857Y-20713822D01*
X39617857Y-20713822D02*
X39617857Y-20475727D01*
X39617857Y-20475727D02*
X39570238Y-20380489D01*
X39570238Y-20380489D02*
X39522619Y-20332870D01*
X39522619Y-20332870D02*
X39427381Y-20285251D01*
X39427381Y-20285251D02*
X39236905Y-20285251D01*
X39236905Y-20285251D02*
X39141667Y-20332870D01*
X39141667Y-20332870D02*
X39094048Y-20380489D01*
X39094048Y-20380489D02*
X39046429Y-20475727D01*
X236404762Y-1854299D02*
X236404762Y-854299D01*
X236976190Y-1854299D02*
X236547619Y-1282870D01*
X236976190Y-854299D02*
X236404762Y-1425727D01*
X237166667Y-1949537D02*
X237928571Y-1949537D01*
X238690476Y-1854299D02*
X238119048Y-1854299D01*
X238404762Y-1854299D02*
X238404762Y-854299D01*
X238404762Y-854299D02*
X238309524Y-997156D01*
X238309524Y-997156D02*
X238214286Y-1092394D01*
X238214286Y-1092394D02*
X238119048Y-1140013D01*
X239071429Y-949537D02*
X239119048Y-901918D01*
X239119048Y-901918D02*
X239214286Y-854299D01*
X239214286Y-854299D02*
X239452381Y-854299D01*
X239452381Y-854299D02*
X239547619Y-901918D01*
X239547619Y-901918D02*
X239595238Y-949537D01*
X239595238Y-949537D02*
X239642857Y-1044775D01*
X239642857Y-1044775D02*
X239642857Y-1140013D01*
X239642857Y-1140013D02*
X239595238Y-1282870D01*
X239595238Y-1282870D02*
X239023810Y-1854299D01*
X239023810Y-1854299D02*
X239642857Y-1854299D01*
X88767262Y-59004299D02*
X88767262Y-58004299D01*
X89338690Y-59004299D02*
X88910119Y-58432870D01*
X89338690Y-58004299D02*
X88767262Y-58575727D01*
X89529167Y-59099537D02*
X90291071Y-59099537D01*
X90957738Y-58337632D02*
X90957738Y-59004299D01*
X90719643Y-57956680D02*
X90481548Y-58670965D01*
X90481548Y-58670965D02*
X91100595Y-58670965D01*
X91957738Y-58004299D02*
X91481548Y-58004299D01*
X91481548Y-58004299D02*
X91433929Y-58480489D01*
X91433929Y-58480489D02*
X91481548Y-58432870D01*
X91481548Y-58432870D02*
X91576786Y-58385251D01*
X91576786Y-58385251D02*
X91814881Y-58385251D01*
X91814881Y-58385251D02*
X91910119Y-58432870D01*
X91910119Y-58432870D02*
X91957738Y-58480489D01*
X91957738Y-58480489D02*
X92005357Y-58575727D01*
X92005357Y-58575727D02*
X92005357Y-58813822D01*
X92005357Y-58813822D02*
X91957738Y-58909060D01*
X91957738Y-58909060D02*
X91910119Y-58956680D01*
X91910119Y-58956680D02*
X91814881Y-59004299D01*
X91814881Y-59004299D02*
X91576786Y-59004299D01*
X91576786Y-59004299D02*
X91481548Y-58956680D01*
X91481548Y-58956680D02*
X91433929Y-58909060D01*
X193542262Y-39954299D02*
X193542262Y-38954299D01*
X194113690Y-39954299D02*
X193685119Y-39382870D01*
X194113690Y-38954299D02*
X193542262Y-39525727D01*
X194304167Y-40049537D02*
X195066071Y-40049537D01*
X195208929Y-38954299D02*
X195827976Y-38954299D01*
X195827976Y-38954299D02*
X195494643Y-39335251D01*
X195494643Y-39335251D02*
X195637500Y-39335251D01*
X195637500Y-39335251D02*
X195732738Y-39382870D01*
X195732738Y-39382870D02*
X195780357Y-39430489D01*
X195780357Y-39430489D02*
X195827976Y-39525727D01*
X195827976Y-39525727D02*
X195827976Y-39763822D01*
X195827976Y-39763822D02*
X195780357Y-39859060D01*
X195780357Y-39859060D02*
X195732738Y-39906680D01*
X195732738Y-39906680D02*
X195637500Y-39954299D01*
X195637500Y-39954299D02*
X195351786Y-39954299D01*
X195351786Y-39954299D02*
X195256548Y-39906680D01*
X195256548Y-39906680D02*
X195208929Y-39859060D01*
X196399405Y-39382870D02*
X196304167Y-39335251D01*
X196304167Y-39335251D02*
X196256548Y-39287632D01*
X196256548Y-39287632D02*
X196208929Y-39192394D01*
X196208929Y-39192394D02*
X196208929Y-39144775D01*
X196208929Y-39144775D02*
X196256548Y-39049537D01*
X196256548Y-39049537D02*
X196304167Y-39001918D01*
X196304167Y-39001918D02*
X196399405Y-38954299D01*
X196399405Y-38954299D02*
X196589881Y-38954299D01*
X196589881Y-38954299D02*
X196685119Y-39001918D01*
X196685119Y-39001918D02*
X196732738Y-39049537D01*
X196732738Y-39049537D02*
X196780357Y-39144775D01*
X196780357Y-39144775D02*
X196780357Y-39192394D01*
X196780357Y-39192394D02*
X196732738Y-39287632D01*
X196732738Y-39287632D02*
X196685119Y-39335251D01*
X196685119Y-39335251D02*
X196589881Y-39382870D01*
X196589881Y-39382870D02*
X196399405Y-39382870D01*
X196399405Y-39382870D02*
X196304167Y-39430489D01*
X196304167Y-39430489D02*
X196256548Y-39478108D01*
X196256548Y-39478108D02*
X196208929Y-39573346D01*
X196208929Y-39573346D02*
X196208929Y-39763822D01*
X196208929Y-39763822D02*
X196256548Y-39859060D01*
X196256548Y-39859060D02*
X196304167Y-39906680D01*
X196304167Y-39906680D02*
X196399405Y-39954299D01*
X196399405Y-39954299D02*
X196589881Y-39954299D01*
X196589881Y-39954299D02*
X196685119Y-39906680D01*
X196685119Y-39906680D02*
X196732738Y-39859060D01*
X196732738Y-39859060D02*
X196780357Y-39763822D01*
X196780357Y-39763822D02*
X196780357Y-39573346D01*
X196780357Y-39573346D02*
X196732738Y-39478108D01*
X196732738Y-39478108D02*
X196685119Y-39430489D01*
X196685119Y-39430489D02*
X196589881Y-39382870D01*
X200686012Y-78054299D02*
X200686012Y-77054299D01*
X201257440Y-78054299D02*
X200828869Y-77482870D01*
X201257440Y-77054299D02*
X200686012Y-77625727D01*
X201447917Y-78149537D02*
X202209821Y-78149537D01*
X202924107Y-77054299D02*
X202447917Y-77054299D01*
X202447917Y-77054299D02*
X202400298Y-77530489D01*
X202400298Y-77530489D02*
X202447917Y-77482870D01*
X202447917Y-77482870D02*
X202543155Y-77435251D01*
X202543155Y-77435251D02*
X202781250Y-77435251D01*
X202781250Y-77435251D02*
X202876488Y-77482870D01*
X202876488Y-77482870D02*
X202924107Y-77530489D01*
X202924107Y-77530489D02*
X202971726Y-77625727D01*
X202971726Y-77625727D02*
X202971726Y-77863822D01*
X202971726Y-77863822D02*
X202924107Y-77959060D01*
X202924107Y-77959060D02*
X202876488Y-78006680D01*
X202876488Y-78006680D02*
X202781250Y-78054299D01*
X202781250Y-78054299D02*
X202543155Y-78054299D01*
X202543155Y-78054299D02*
X202447917Y-78006680D01*
X202447917Y-78006680D02*
X202400298Y-77959060D01*
X203543155Y-77482870D02*
X203447917Y-77435251D01*
X203447917Y-77435251D02*
X203400298Y-77387632D01*
X203400298Y-77387632D02*
X203352679Y-77292394D01*
X203352679Y-77292394D02*
X203352679Y-77244775D01*
X203352679Y-77244775D02*
X203400298Y-77149537D01*
X203400298Y-77149537D02*
X203447917Y-77101918D01*
X203447917Y-77101918D02*
X203543155Y-77054299D01*
X203543155Y-77054299D02*
X203733631Y-77054299D01*
X203733631Y-77054299D02*
X203828869Y-77101918D01*
X203828869Y-77101918D02*
X203876488Y-77149537D01*
X203876488Y-77149537D02*
X203924107Y-77244775D01*
X203924107Y-77244775D02*
X203924107Y-77292394D01*
X203924107Y-77292394D02*
X203876488Y-77387632D01*
X203876488Y-77387632D02*
X203828869Y-77435251D01*
X203828869Y-77435251D02*
X203733631Y-77482870D01*
X203733631Y-77482870D02*
X203543155Y-77482870D01*
X203543155Y-77482870D02*
X203447917Y-77530489D01*
X203447917Y-77530489D02*
X203400298Y-77578108D01*
X203400298Y-77578108D02*
X203352679Y-77673346D01*
X203352679Y-77673346D02*
X203352679Y-77863822D01*
X203352679Y-77863822D02*
X203400298Y-77959060D01*
X203400298Y-77959060D02*
X203447917Y-78006680D01*
X203447917Y-78006680D02*
X203543155Y-78054299D01*
X203543155Y-78054299D02*
X203733631Y-78054299D01*
X203733631Y-78054299D02*
X203828869Y-78006680D01*
X203828869Y-78006680D02*
X203876488Y-77959060D01*
X203876488Y-77959060D02*
X203924107Y-77863822D01*
X203924107Y-77863822D02*
X203924107Y-77673346D01*
X203924107Y-77673346D02*
X203876488Y-77578108D01*
X203876488Y-77578108D02*
X203828869Y-77530489D01*
X203828869Y-77530489D02*
X203733631Y-77482870D01*
X57811012Y-78054299D02*
X57811012Y-77054299D01*
X58382440Y-78054299D02*
X57953869Y-77482870D01*
X58382440Y-77054299D02*
X57811012Y-77625727D01*
X58572917Y-78149537D02*
X59334821Y-78149537D01*
X60049107Y-77054299D02*
X59572917Y-77054299D01*
X59572917Y-77054299D02*
X59525298Y-77530489D01*
X59525298Y-77530489D02*
X59572917Y-77482870D01*
X59572917Y-77482870D02*
X59668155Y-77435251D01*
X59668155Y-77435251D02*
X59906250Y-77435251D01*
X59906250Y-77435251D02*
X60001488Y-77482870D01*
X60001488Y-77482870D02*
X60049107Y-77530489D01*
X60049107Y-77530489D02*
X60096726Y-77625727D01*
X60096726Y-77625727D02*
X60096726Y-77863822D01*
X60096726Y-77863822D02*
X60049107Y-77959060D01*
X60049107Y-77959060D02*
X60001488Y-78006680D01*
X60001488Y-78006680D02*
X59906250Y-78054299D01*
X59906250Y-78054299D02*
X59668155Y-78054299D01*
X59668155Y-78054299D02*
X59572917Y-78006680D01*
X59572917Y-78006680D02*
X59525298Y-77959060D01*
X60953869Y-77054299D02*
X60763393Y-77054299D01*
X60763393Y-77054299D02*
X60668155Y-77101918D01*
X60668155Y-77101918D02*
X60620536Y-77149537D01*
X60620536Y-77149537D02*
X60525298Y-77292394D01*
X60525298Y-77292394D02*
X60477679Y-77482870D01*
X60477679Y-77482870D02*
X60477679Y-77863822D01*
X60477679Y-77863822D02*
X60525298Y-77959060D01*
X60525298Y-77959060D02*
X60572917Y-78006680D01*
X60572917Y-78006680D02*
X60668155Y-78054299D01*
X60668155Y-78054299D02*
X60858631Y-78054299D01*
X60858631Y-78054299D02*
X60953869Y-78006680D01*
X60953869Y-78006680D02*
X61001488Y-77959060D01*
X61001488Y-77959060D02*
X61049107Y-77863822D01*
X61049107Y-77863822D02*
X61049107Y-77625727D01*
X61049107Y-77625727D02*
X61001488Y-77530489D01*
X61001488Y-77530489D02*
X60953869Y-77482870D01*
X60953869Y-77482870D02*
X60858631Y-77435251D01*
X60858631Y-77435251D02*
X60668155Y-77435251D01*
X60668155Y-77435251D02*
X60572917Y-77482870D01*
X60572917Y-77482870D02*
X60525298Y-77530489D01*
X60525298Y-77530489D02*
X60477679Y-77625727D01*
X129248512Y-78054299D02*
X129248512Y-77054299D01*
X129819940Y-78054299D02*
X129391369Y-77482870D01*
X129819940Y-77054299D02*
X129248512Y-77625727D01*
X130010417Y-78149537D02*
X130772321Y-78149537D01*
X131486607Y-77054299D02*
X131010417Y-77054299D01*
X131010417Y-77054299D02*
X130962798Y-77530489D01*
X130962798Y-77530489D02*
X131010417Y-77482870D01*
X131010417Y-77482870D02*
X131105655Y-77435251D01*
X131105655Y-77435251D02*
X131343750Y-77435251D01*
X131343750Y-77435251D02*
X131438988Y-77482870D01*
X131438988Y-77482870D02*
X131486607Y-77530489D01*
X131486607Y-77530489D02*
X131534226Y-77625727D01*
X131534226Y-77625727D02*
X131534226Y-77863822D01*
X131534226Y-77863822D02*
X131486607Y-77959060D01*
X131486607Y-77959060D02*
X131438988Y-78006680D01*
X131438988Y-78006680D02*
X131343750Y-78054299D01*
X131343750Y-78054299D02*
X131105655Y-78054299D01*
X131105655Y-78054299D02*
X131010417Y-78006680D01*
X131010417Y-78006680D02*
X130962798Y-77959060D01*
X131867560Y-77054299D02*
X132534226Y-77054299D01*
X132534226Y-77054299D02*
X132105655Y-78054299D01*
X150679762Y-20904299D02*
X150679762Y-19904299D01*
X151251190Y-20904299D02*
X150822619Y-20332870D01*
X151251190Y-19904299D02*
X150679762Y-20475727D01*
X151441667Y-20999537D02*
X152203571Y-20999537D01*
X152394048Y-19999537D02*
X152441667Y-19951918D01*
X152441667Y-19951918D02*
X152536905Y-19904299D01*
X152536905Y-19904299D02*
X152775000Y-19904299D01*
X152775000Y-19904299D02*
X152870238Y-19951918D01*
X152870238Y-19951918D02*
X152917857Y-19999537D01*
X152917857Y-19999537D02*
X152965476Y-20094775D01*
X152965476Y-20094775D02*
X152965476Y-20190013D01*
X152965476Y-20190013D02*
X152917857Y-20332870D01*
X152917857Y-20332870D02*
X152346429Y-20904299D01*
X152346429Y-20904299D02*
X152965476Y-20904299D01*
X153346429Y-19999537D02*
X153394048Y-19951918D01*
X153394048Y-19951918D02*
X153489286Y-19904299D01*
X153489286Y-19904299D02*
X153727381Y-19904299D01*
X153727381Y-19904299D02*
X153822619Y-19951918D01*
X153822619Y-19951918D02*
X153870238Y-19999537D01*
X153870238Y-19999537D02*
X153917857Y-20094775D01*
X153917857Y-20094775D02*
X153917857Y-20190013D01*
X153917857Y-20190013D02*
X153870238Y-20332870D01*
X153870238Y-20332870D02*
X153298810Y-20904299D01*
X153298810Y-20904299D02*
X153917857Y-20904299D01*
X79242262Y-39954299D02*
X79242262Y-38954299D01*
X79813690Y-39954299D02*
X79385119Y-39382870D01*
X79813690Y-38954299D02*
X79242262Y-39525727D01*
X80004167Y-40049537D02*
X80766071Y-40049537D01*
X80908929Y-38954299D02*
X81527976Y-38954299D01*
X81527976Y-38954299D02*
X81194643Y-39335251D01*
X81194643Y-39335251D02*
X81337500Y-39335251D01*
X81337500Y-39335251D02*
X81432738Y-39382870D01*
X81432738Y-39382870D02*
X81480357Y-39430489D01*
X81480357Y-39430489D02*
X81527976Y-39525727D01*
X81527976Y-39525727D02*
X81527976Y-39763822D01*
X81527976Y-39763822D02*
X81480357Y-39859060D01*
X81480357Y-39859060D02*
X81432738Y-39906680D01*
X81432738Y-39906680D02*
X81337500Y-39954299D01*
X81337500Y-39954299D02*
X81051786Y-39954299D01*
X81051786Y-39954299D02*
X80956548Y-39906680D01*
X80956548Y-39906680D02*
X80908929Y-39859060D01*
X81908929Y-39049537D02*
X81956548Y-39001918D01*
X81956548Y-39001918D02*
X82051786Y-38954299D01*
X82051786Y-38954299D02*
X82289881Y-38954299D01*
X82289881Y-38954299D02*
X82385119Y-39001918D01*
X82385119Y-39001918D02*
X82432738Y-39049537D01*
X82432738Y-39049537D02*
X82480357Y-39144775D01*
X82480357Y-39144775D02*
X82480357Y-39240013D01*
X82480357Y-39240013D02*
X82432738Y-39382870D01*
X82432738Y-39382870D02*
X81861310Y-39954299D01*
X81861310Y-39954299D02*
X82480357Y-39954299D01*
X257836012Y-59004299D02*
X257836012Y-58004299D01*
X258407440Y-59004299D02*
X257978869Y-58432870D01*
X258407440Y-58004299D02*
X257836012Y-58575727D01*
X258597917Y-59099537D02*
X259359821Y-59099537D01*
X260074107Y-58004299D02*
X259597917Y-58004299D01*
X259597917Y-58004299D02*
X259550298Y-58480489D01*
X259550298Y-58480489D02*
X259597917Y-58432870D01*
X259597917Y-58432870D02*
X259693155Y-58385251D01*
X259693155Y-58385251D02*
X259931250Y-58385251D01*
X259931250Y-58385251D02*
X260026488Y-58432870D01*
X260026488Y-58432870D02*
X260074107Y-58480489D01*
X260074107Y-58480489D02*
X260121726Y-58575727D01*
X260121726Y-58575727D02*
X260121726Y-58813822D01*
X260121726Y-58813822D02*
X260074107Y-58909060D01*
X260074107Y-58909060D02*
X260026488Y-58956680D01*
X260026488Y-58956680D02*
X259931250Y-59004299D01*
X259931250Y-59004299D02*
X259693155Y-59004299D01*
X259693155Y-59004299D02*
X259597917Y-58956680D01*
X259597917Y-58956680D02*
X259550298Y-58909060D01*
X260455060Y-58004299D02*
X261074107Y-58004299D01*
X261074107Y-58004299D02*
X260740774Y-58385251D01*
X260740774Y-58385251D02*
X260883631Y-58385251D01*
X260883631Y-58385251D02*
X260978869Y-58432870D01*
X260978869Y-58432870D02*
X261026488Y-58480489D01*
X261026488Y-58480489D02*
X261074107Y-58575727D01*
X261074107Y-58575727D02*
X261074107Y-58813822D01*
X261074107Y-58813822D02*
X261026488Y-58909060D01*
X261026488Y-58909060D02*
X260978869Y-58956680D01*
X260978869Y-58956680D02*
X260883631Y-59004299D01*
X260883631Y-59004299D02*
X260597917Y-59004299D01*
X260597917Y-59004299D02*
X260502679Y-58956680D01*
X260502679Y-58956680D02*
X260455060Y-58909060D01*
X169729762Y-20904299D02*
X169729762Y-19904299D01*
X170301190Y-20904299D02*
X169872619Y-20332870D01*
X170301190Y-19904299D02*
X169729762Y-20475727D01*
X170491667Y-20999537D02*
X171253571Y-20999537D01*
X171444048Y-19999537D02*
X171491667Y-19951918D01*
X171491667Y-19951918D02*
X171586905Y-19904299D01*
X171586905Y-19904299D02*
X171825000Y-19904299D01*
X171825000Y-19904299D02*
X171920238Y-19951918D01*
X171920238Y-19951918D02*
X171967857Y-19999537D01*
X171967857Y-19999537D02*
X172015476Y-20094775D01*
X172015476Y-20094775D02*
X172015476Y-20190013D01*
X172015476Y-20190013D02*
X171967857Y-20332870D01*
X171967857Y-20332870D02*
X171396429Y-20904299D01*
X171396429Y-20904299D02*
X172015476Y-20904299D01*
X172348810Y-19904299D02*
X172967857Y-19904299D01*
X172967857Y-19904299D02*
X172634524Y-20285251D01*
X172634524Y-20285251D02*
X172777381Y-20285251D01*
X172777381Y-20285251D02*
X172872619Y-20332870D01*
X172872619Y-20332870D02*
X172920238Y-20380489D01*
X172920238Y-20380489D02*
X172967857Y-20475727D01*
X172967857Y-20475727D02*
X172967857Y-20713822D01*
X172967857Y-20713822D02*
X172920238Y-20809060D01*
X172920238Y-20809060D02*
X172872619Y-20856680D01*
X172872619Y-20856680D02*
X172777381Y-20904299D01*
X172777381Y-20904299D02*
X172491667Y-20904299D01*
X172491667Y-20904299D02*
X172396429Y-20856680D01*
X172396429Y-20856680D02*
X172348810Y-20809060D01*
X126867262Y-59004299D02*
X126867262Y-58004299D01*
X127438690Y-59004299D02*
X127010119Y-58432870D01*
X127438690Y-58004299D02*
X126867262Y-58575727D01*
X127629167Y-59099537D02*
X128391071Y-59099537D01*
X129057738Y-58337632D02*
X129057738Y-59004299D01*
X128819643Y-57956680D02*
X128581548Y-58670965D01*
X128581548Y-58670965D02*
X129200595Y-58670965D01*
X129486310Y-58004299D02*
X130152976Y-58004299D01*
X130152976Y-58004299D02*
X129724405Y-59004299D01*
X117342262Y-39954299D02*
X117342262Y-38954299D01*
X117913690Y-39954299D02*
X117485119Y-39382870D01*
X117913690Y-38954299D02*
X117342262Y-39525727D01*
X118104167Y-40049537D02*
X118866071Y-40049537D01*
X119008929Y-38954299D02*
X119627976Y-38954299D01*
X119627976Y-38954299D02*
X119294643Y-39335251D01*
X119294643Y-39335251D02*
X119437500Y-39335251D01*
X119437500Y-39335251D02*
X119532738Y-39382870D01*
X119532738Y-39382870D02*
X119580357Y-39430489D01*
X119580357Y-39430489D02*
X119627976Y-39525727D01*
X119627976Y-39525727D02*
X119627976Y-39763822D01*
X119627976Y-39763822D02*
X119580357Y-39859060D01*
X119580357Y-39859060D02*
X119532738Y-39906680D01*
X119532738Y-39906680D02*
X119437500Y-39954299D01*
X119437500Y-39954299D02*
X119151786Y-39954299D01*
X119151786Y-39954299D02*
X119056548Y-39906680D01*
X119056548Y-39906680D02*
X119008929Y-39859060D01*
X120485119Y-39287632D02*
X120485119Y-39954299D01*
X120247024Y-38906680D02*
X120008929Y-39620965D01*
X120008929Y-39620965D02*
X120627976Y-39620965D01*
X69717262Y-59004299D02*
X69717262Y-58004299D01*
X70288690Y-59004299D02*
X69860119Y-58432870D01*
X70288690Y-58004299D02*
X69717262Y-58575727D01*
X70479167Y-59099537D02*
X71241071Y-59099537D01*
X71907738Y-58337632D02*
X71907738Y-59004299D01*
X71669643Y-57956680D02*
X71431548Y-58670965D01*
X71431548Y-58670965D02*
X72050595Y-58670965D01*
X72860119Y-58337632D02*
X72860119Y-59004299D01*
X72622024Y-57956680D02*
X72383929Y-58670965D01*
X72383929Y-58670965D02*
X73002976Y-58670965D01*
X217354762Y-1854299D02*
X217354762Y-854299D01*
X217926190Y-1854299D02*
X217497619Y-1282870D01*
X217926190Y-854299D02*
X217354762Y-1425727D01*
X218116667Y-1949537D02*
X218878571Y-1949537D01*
X219640476Y-1854299D02*
X219069048Y-1854299D01*
X219354762Y-1854299D02*
X219354762Y-854299D01*
X219354762Y-854299D02*
X219259524Y-997156D01*
X219259524Y-997156D02*
X219164286Y-1092394D01*
X219164286Y-1092394D02*
X219069048Y-1140013D01*
X220592857Y-1854299D02*
X220021429Y-1854299D01*
X220307143Y-1854299D02*
X220307143Y-854299D01*
X220307143Y-854299D02*
X220211905Y-997156D01*
X220211905Y-997156D02*
X220116667Y-1092394D01*
X220116667Y-1092394D02*
X220021429Y-1140013D01*
X222117262Y-59004299D02*
X222117262Y-58004299D01*
X222688690Y-59004299D02*
X222260119Y-58432870D01*
X222688690Y-58004299D02*
X222117262Y-58575727D01*
X222879167Y-59099537D02*
X223641071Y-59099537D01*
X224355357Y-58004299D02*
X223879167Y-58004299D01*
X223879167Y-58004299D02*
X223831548Y-58480489D01*
X223831548Y-58480489D02*
X223879167Y-58432870D01*
X223879167Y-58432870D02*
X223974405Y-58385251D01*
X223974405Y-58385251D02*
X224212500Y-58385251D01*
X224212500Y-58385251D02*
X224307738Y-58432870D01*
X224307738Y-58432870D02*
X224355357Y-58480489D01*
X224355357Y-58480489D02*
X224402976Y-58575727D01*
X224402976Y-58575727D02*
X224402976Y-58813822D01*
X224402976Y-58813822D02*
X224355357Y-58909060D01*
X224355357Y-58909060D02*
X224307738Y-58956680D01*
X224307738Y-58956680D02*
X224212500Y-59004299D01*
X224212500Y-59004299D02*
X223974405Y-59004299D01*
X223974405Y-59004299D02*
X223879167Y-58956680D01*
X223879167Y-58956680D02*
X223831548Y-58909060D01*
X224783929Y-58099537D02*
X224831548Y-58051918D01*
X224831548Y-58051918D02*
X224926786Y-58004299D01*
X224926786Y-58004299D02*
X225164881Y-58004299D01*
X225164881Y-58004299D02*
X225260119Y-58051918D01*
X225260119Y-58051918D02*
X225307738Y-58099537D01*
X225307738Y-58099537D02*
X225355357Y-58194775D01*
X225355357Y-58194775D02*
X225355357Y-58290013D01*
X225355357Y-58290013D02*
X225307738Y-58432870D01*
X225307738Y-58432870D02*
X224736310Y-59004299D01*
X224736310Y-59004299D02*
X225355357Y-59004299D01*
X184017262Y-59004299D02*
X184017262Y-58004299D01*
X184588690Y-59004299D02*
X184160119Y-58432870D01*
X184588690Y-58004299D02*
X184017262Y-58575727D01*
X184779167Y-59099537D02*
X185541071Y-59099537D01*
X186255357Y-58004299D02*
X185779167Y-58004299D01*
X185779167Y-58004299D02*
X185731548Y-58480489D01*
X185731548Y-58480489D02*
X185779167Y-58432870D01*
X185779167Y-58432870D02*
X185874405Y-58385251D01*
X185874405Y-58385251D02*
X186112500Y-58385251D01*
X186112500Y-58385251D02*
X186207738Y-58432870D01*
X186207738Y-58432870D02*
X186255357Y-58480489D01*
X186255357Y-58480489D02*
X186302976Y-58575727D01*
X186302976Y-58575727D02*
X186302976Y-58813822D01*
X186302976Y-58813822D02*
X186255357Y-58909060D01*
X186255357Y-58909060D02*
X186207738Y-58956680D01*
X186207738Y-58956680D02*
X186112500Y-59004299D01*
X186112500Y-59004299D02*
X185874405Y-59004299D01*
X185874405Y-59004299D02*
X185779167Y-58956680D01*
X185779167Y-58956680D02*
X185731548Y-58909060D01*
X186922024Y-58004299D02*
X187017262Y-58004299D01*
X187017262Y-58004299D02*
X187112500Y-58051918D01*
X187112500Y-58051918D02*
X187160119Y-58099537D01*
X187160119Y-58099537D02*
X187207738Y-58194775D01*
X187207738Y-58194775D02*
X187255357Y-58385251D01*
X187255357Y-58385251D02*
X187255357Y-58623346D01*
X187255357Y-58623346D02*
X187207738Y-58813822D01*
X187207738Y-58813822D02*
X187160119Y-58909060D01*
X187160119Y-58909060D02*
X187112500Y-58956680D01*
X187112500Y-58956680D02*
X187017262Y-59004299D01*
X187017262Y-59004299D02*
X186922024Y-59004299D01*
X186922024Y-59004299D02*
X186826786Y-58956680D01*
X186826786Y-58956680D02*
X186779167Y-58909060D01*
X186779167Y-58909060D02*
X186731548Y-58813822D01*
X186731548Y-58813822D02*
X186683929Y-58623346D01*
X186683929Y-58623346D02*
X186683929Y-58385251D01*
X186683929Y-58385251D02*
X186731548Y-58194775D01*
X186731548Y-58194775D02*
X186779167Y-58099537D01*
X186779167Y-58099537D02*
X186826786Y-58051918D01*
X186826786Y-58051918D02*
X186922024Y-58004299D01*
X274504762Y-1854299D02*
X274504762Y-854299D01*
X275076190Y-1854299D02*
X274647619Y-1282870D01*
X275076190Y-854299D02*
X274504762Y-1425727D01*
X275266667Y-1949537D02*
X276028571Y-1949537D01*
X276790476Y-1854299D02*
X276219048Y-1854299D01*
X276504762Y-1854299D02*
X276504762Y-854299D01*
X276504762Y-854299D02*
X276409524Y-997156D01*
X276409524Y-997156D02*
X276314286Y-1092394D01*
X276314286Y-1092394D02*
X276219048Y-1140013D01*
X277647619Y-1187632D02*
X277647619Y-1854299D01*
X277409524Y-806680D02*
X277171429Y-1520965D01*
X277171429Y-1520965D02*
X277790476Y-1520965D01*
X84480952Y-1854299D02*
X84480952Y-854299D01*
X85052380Y-1854299D02*
X84623809Y-1282870D01*
X85052380Y-854299D02*
X84480952Y-1425727D01*
X85242857Y-1949537D02*
X86004761Y-1949537D01*
X86671428Y-1187632D02*
X86671428Y-1854299D01*
X86433333Y-806680D02*
X86195238Y-1520965D01*
X86195238Y-1520965D02*
X86814285Y-1520965D01*
X74479762Y-20904299D02*
X74479762Y-19904299D01*
X75051190Y-20904299D02*
X74622619Y-20332870D01*
X75051190Y-19904299D02*
X74479762Y-20475727D01*
X75241667Y-20999537D02*
X76003571Y-20999537D01*
X76765476Y-20904299D02*
X76194048Y-20904299D01*
X76479762Y-20904299D02*
X76479762Y-19904299D01*
X76479762Y-19904299D02*
X76384524Y-20047156D01*
X76384524Y-20047156D02*
X76289286Y-20142394D01*
X76289286Y-20142394D02*
X76194048Y-20190013D01*
X77336905Y-20332870D02*
X77241667Y-20285251D01*
X77241667Y-20285251D02*
X77194048Y-20237632D01*
X77194048Y-20237632D02*
X77146429Y-20142394D01*
X77146429Y-20142394D02*
X77146429Y-20094775D01*
X77146429Y-20094775D02*
X77194048Y-19999537D01*
X77194048Y-19999537D02*
X77241667Y-19951918D01*
X77241667Y-19951918D02*
X77336905Y-19904299D01*
X77336905Y-19904299D02*
X77527381Y-19904299D01*
X77527381Y-19904299D02*
X77622619Y-19951918D01*
X77622619Y-19951918D02*
X77670238Y-19999537D01*
X77670238Y-19999537D02*
X77717857Y-20094775D01*
X77717857Y-20094775D02*
X77717857Y-20142394D01*
X77717857Y-20142394D02*
X77670238Y-20237632D01*
X77670238Y-20237632D02*
X77622619Y-20285251D01*
X77622619Y-20285251D02*
X77527381Y-20332870D01*
X77527381Y-20332870D02*
X77336905Y-20332870D01*
X77336905Y-20332870D02*
X77241667Y-20380489D01*
X77241667Y-20380489D02*
X77194048Y-20428108D01*
X77194048Y-20428108D02*
X77146429Y-20523346D01*
X77146429Y-20523346D02*
X77146429Y-20713822D01*
X77146429Y-20713822D02*
X77194048Y-20809060D01*
X77194048Y-20809060D02*
X77241667Y-20856680D01*
X77241667Y-20856680D02*
X77336905Y-20904299D01*
X77336905Y-20904299D02*
X77527381Y-20904299D01*
X77527381Y-20904299D02*
X77622619Y-20856680D01*
X77622619Y-20856680D02*
X77670238Y-20809060D01*
X77670238Y-20809060D02*
X77717857Y-20713822D01*
X77717857Y-20713822D02*
X77717857Y-20523346D01*
X77717857Y-20523346D02*
X77670238Y-20428108D01*
X77670238Y-20428108D02*
X77622619Y-20380489D01*
X77622619Y-20380489D02*
X77527381Y-20332870D01*
X269742262Y-20904299D02*
X269742262Y-19904299D01*
X270313690Y-20904299D02*
X269885119Y-20332870D01*
X270313690Y-19904299D02*
X269742262Y-20475727D01*
X270504167Y-20999537D02*
X271266071Y-20999537D01*
X271456548Y-19999537D02*
X271504167Y-19951918D01*
X271504167Y-19951918D02*
X271599405Y-19904299D01*
X271599405Y-19904299D02*
X271837500Y-19904299D01*
X271837500Y-19904299D02*
X271932738Y-19951918D01*
X271932738Y-19951918D02*
X271980357Y-19999537D01*
X271980357Y-19999537D02*
X272027976Y-20094775D01*
X272027976Y-20094775D02*
X272027976Y-20190013D01*
X272027976Y-20190013D02*
X271980357Y-20332870D01*
X271980357Y-20332870D02*
X271408929Y-20904299D01*
X271408929Y-20904299D02*
X272027976Y-20904299D01*
X272599405Y-20332870D02*
X272504167Y-20285251D01*
X272504167Y-20285251D02*
X272456548Y-20237632D01*
X272456548Y-20237632D02*
X272408929Y-20142394D01*
X272408929Y-20142394D02*
X272408929Y-20094775D01*
X272408929Y-20094775D02*
X272456548Y-19999537D01*
X272456548Y-19999537D02*
X272504167Y-19951918D01*
X272504167Y-19951918D02*
X272599405Y-19904299D01*
X272599405Y-19904299D02*
X272789881Y-19904299D01*
X272789881Y-19904299D02*
X272885119Y-19951918D01*
X272885119Y-19951918D02*
X272932738Y-19999537D01*
X272932738Y-19999537D02*
X272980357Y-20094775D01*
X272980357Y-20094775D02*
X272980357Y-20142394D01*
X272980357Y-20142394D02*
X272932738Y-20237632D01*
X272932738Y-20237632D02*
X272885119Y-20285251D01*
X272885119Y-20285251D02*
X272789881Y-20332870D01*
X272789881Y-20332870D02*
X272599405Y-20332870D01*
X272599405Y-20332870D02*
X272504167Y-20380489D01*
X272504167Y-20380489D02*
X272456548Y-20428108D01*
X272456548Y-20428108D02*
X272408929Y-20523346D01*
X272408929Y-20523346D02*
X272408929Y-20713822D01*
X272408929Y-20713822D02*
X272456548Y-20809060D01*
X272456548Y-20809060D02*
X272504167Y-20856680D01*
X272504167Y-20856680D02*
X272599405Y-20904299D01*
X272599405Y-20904299D02*
X272789881Y-20904299D01*
X272789881Y-20904299D02*
X272885119Y-20856680D01*
X272885119Y-20856680D02*
X272932738Y-20809060D01*
X272932738Y-20809060D02*
X272980357Y-20713822D01*
X272980357Y-20713822D02*
X272980357Y-20523346D01*
X272980357Y-20523346D02*
X272932738Y-20428108D01*
X272932738Y-20428108D02*
X272885119Y-20380489D01*
X272885119Y-20380489D02*
X272789881Y-20332870D01*
X60192262Y-39954299D02*
X60192262Y-38954299D01*
X60763690Y-39954299D02*
X60335119Y-39382870D01*
X60763690Y-38954299D02*
X60192262Y-39525727D01*
X60954167Y-40049537D02*
X61716071Y-40049537D01*
X61858929Y-38954299D02*
X62477976Y-38954299D01*
X62477976Y-38954299D02*
X62144643Y-39335251D01*
X62144643Y-39335251D02*
X62287500Y-39335251D01*
X62287500Y-39335251D02*
X62382738Y-39382870D01*
X62382738Y-39382870D02*
X62430357Y-39430489D01*
X62430357Y-39430489D02*
X62477976Y-39525727D01*
X62477976Y-39525727D02*
X62477976Y-39763822D01*
X62477976Y-39763822D02*
X62430357Y-39859060D01*
X62430357Y-39859060D02*
X62382738Y-39906680D01*
X62382738Y-39906680D02*
X62287500Y-39954299D01*
X62287500Y-39954299D02*
X62001786Y-39954299D01*
X62001786Y-39954299D02*
X61906548Y-39906680D01*
X61906548Y-39906680D02*
X61858929Y-39859060D01*
X63430357Y-39954299D02*
X62858929Y-39954299D01*
X63144643Y-39954299D02*
X63144643Y-38954299D01*
X63144643Y-38954299D02*
X63049405Y-39097156D01*
X63049405Y-39097156D02*
X62954167Y-39192394D01*
X62954167Y-39192394D02*
X62858929Y-39240013D01*
X19711012Y-59004299D02*
X19711012Y-58004299D01*
X20282440Y-59004299D02*
X19853869Y-58432870D01*
X20282440Y-58004299D02*
X19711012Y-58575727D01*
X20472917Y-59099537D02*
X21234821Y-59099537D01*
X21901488Y-58337632D02*
X21901488Y-59004299D01*
X21663393Y-57956680D02*
X21425298Y-58670965D01*
X21425298Y-58670965D02*
X22044345Y-58670965D01*
X22377679Y-58099537D02*
X22425298Y-58051918D01*
X22425298Y-58051918D02*
X22520536Y-58004299D01*
X22520536Y-58004299D02*
X22758631Y-58004299D01*
X22758631Y-58004299D02*
X22853869Y-58051918D01*
X22853869Y-58051918D02*
X22901488Y-58099537D01*
X22901488Y-58099537D02*
X22949107Y-58194775D01*
X22949107Y-58194775D02*
X22949107Y-58290013D01*
X22949107Y-58290013D02*
X22901488Y-58432870D01*
X22901488Y-58432870D02*
X22330060Y-59004299D01*
X22330060Y-59004299D02*
X22949107Y-59004299D01*
X10186012Y-78054299D02*
X10186012Y-77054299D01*
X10757440Y-78054299D02*
X10328869Y-77482870D01*
X10757440Y-77054299D02*
X10186012Y-77625727D01*
X10947917Y-78149537D02*
X11709821Y-78149537D01*
X12424107Y-77054299D02*
X11947917Y-77054299D01*
X11947917Y-77054299D02*
X11900298Y-77530489D01*
X11900298Y-77530489D02*
X11947917Y-77482870D01*
X11947917Y-77482870D02*
X12043155Y-77435251D01*
X12043155Y-77435251D02*
X12281250Y-77435251D01*
X12281250Y-77435251D02*
X12376488Y-77482870D01*
X12376488Y-77482870D02*
X12424107Y-77530489D01*
X12424107Y-77530489D02*
X12471726Y-77625727D01*
X12471726Y-77625727D02*
X12471726Y-77863822D01*
X12471726Y-77863822D02*
X12424107Y-77959060D01*
X12424107Y-77959060D02*
X12376488Y-78006680D01*
X12376488Y-78006680D02*
X12281250Y-78054299D01*
X12281250Y-78054299D02*
X12043155Y-78054299D01*
X12043155Y-78054299D02*
X11947917Y-78006680D01*
X11947917Y-78006680D02*
X11900298Y-77959060D01*
X13328869Y-77387632D02*
X13328869Y-78054299D01*
X13090774Y-77006680D02*
X12852679Y-77720965D01*
X12852679Y-77720965D02*
X13471726Y-77720965D01*
X203067262Y-59004299D02*
X203067262Y-58004299D01*
X203638690Y-59004299D02*
X203210119Y-58432870D01*
X203638690Y-58004299D02*
X203067262Y-58575727D01*
X203829167Y-59099537D02*
X204591071Y-59099537D01*
X205305357Y-58004299D02*
X204829167Y-58004299D01*
X204829167Y-58004299D02*
X204781548Y-58480489D01*
X204781548Y-58480489D02*
X204829167Y-58432870D01*
X204829167Y-58432870D02*
X204924405Y-58385251D01*
X204924405Y-58385251D02*
X205162500Y-58385251D01*
X205162500Y-58385251D02*
X205257738Y-58432870D01*
X205257738Y-58432870D02*
X205305357Y-58480489D01*
X205305357Y-58480489D02*
X205352976Y-58575727D01*
X205352976Y-58575727D02*
X205352976Y-58813822D01*
X205352976Y-58813822D02*
X205305357Y-58909060D01*
X205305357Y-58909060D02*
X205257738Y-58956680D01*
X205257738Y-58956680D02*
X205162500Y-59004299D01*
X205162500Y-59004299D02*
X204924405Y-59004299D01*
X204924405Y-59004299D02*
X204829167Y-58956680D01*
X204829167Y-58956680D02*
X204781548Y-58909060D01*
X206305357Y-59004299D02*
X205733929Y-59004299D01*
X206019643Y-59004299D02*
X206019643Y-58004299D01*
X206019643Y-58004299D02*
X205924405Y-58147156D01*
X205924405Y-58147156D02*
X205829167Y-58242394D01*
X205829167Y-58242394D02*
X205733929Y-58290013D01*
X145917262Y-59004299D02*
X145917262Y-58004299D01*
X146488690Y-59004299D02*
X146060119Y-58432870D01*
X146488690Y-58004299D02*
X145917262Y-58575727D01*
X146679167Y-59099537D02*
X147441071Y-59099537D01*
X148107738Y-58337632D02*
X148107738Y-59004299D01*
X147869643Y-57956680D02*
X147631548Y-58670965D01*
X147631548Y-58670965D02*
X148250595Y-58670965D01*
X148774405Y-58432870D02*
X148679167Y-58385251D01*
X148679167Y-58385251D02*
X148631548Y-58337632D01*
X148631548Y-58337632D02*
X148583929Y-58242394D01*
X148583929Y-58242394D02*
X148583929Y-58194775D01*
X148583929Y-58194775D02*
X148631548Y-58099537D01*
X148631548Y-58099537D02*
X148679167Y-58051918D01*
X148679167Y-58051918D02*
X148774405Y-58004299D01*
X148774405Y-58004299D02*
X148964881Y-58004299D01*
X148964881Y-58004299D02*
X149060119Y-58051918D01*
X149060119Y-58051918D02*
X149107738Y-58099537D01*
X149107738Y-58099537D02*
X149155357Y-58194775D01*
X149155357Y-58194775D02*
X149155357Y-58242394D01*
X149155357Y-58242394D02*
X149107738Y-58337632D01*
X149107738Y-58337632D02*
X149060119Y-58385251D01*
X149060119Y-58385251D02*
X148964881Y-58432870D01*
X148964881Y-58432870D02*
X148774405Y-58432870D01*
X148774405Y-58432870D02*
X148679167Y-58480489D01*
X148679167Y-58480489D02*
X148631548Y-58528108D01*
X148631548Y-58528108D02*
X148583929Y-58623346D01*
X148583929Y-58623346D02*
X148583929Y-58813822D01*
X148583929Y-58813822D02*
X148631548Y-58909060D01*
X148631548Y-58909060D02*
X148679167Y-58956680D01*
X148679167Y-58956680D02*
X148774405Y-59004299D01*
X148774405Y-59004299D02*
X148964881Y-59004299D01*
X148964881Y-59004299D02*
X149060119Y-58956680D01*
X149060119Y-58956680D02*
X149107738Y-58909060D01*
X149107738Y-58909060D02*
X149155357Y-58813822D01*
X149155357Y-58813822D02*
X149155357Y-58623346D01*
X149155357Y-58623346D02*
X149107738Y-58528108D01*
X149107738Y-58528108D02*
X149060119Y-58480489D01*
X149060119Y-58480489D02*
X148964881Y-58432870D01*
X65430952Y-1854299D02*
X65430952Y-854299D01*
X66002380Y-1854299D02*
X65573809Y-1282870D01*
X66002380Y-854299D02*
X65430952Y-1425727D01*
X66192857Y-1949537D02*
X66954761Y-1949537D01*
X67097619Y-854299D02*
X67716666Y-854299D01*
X67716666Y-854299D02*
X67383333Y-1235251D01*
X67383333Y-1235251D02*
X67526190Y-1235251D01*
X67526190Y-1235251D02*
X67621428Y-1282870D01*
X67621428Y-1282870D02*
X67669047Y-1330489D01*
X67669047Y-1330489D02*
X67716666Y-1425727D01*
X67716666Y-1425727D02*
X67716666Y-1663822D01*
X67716666Y-1663822D02*
X67669047Y-1759060D01*
X67669047Y-1759060D02*
X67621428Y-1806680D01*
X67621428Y-1806680D02*
X67526190Y-1854299D01*
X67526190Y-1854299D02*
X67240476Y-1854299D01*
X67240476Y-1854299D02*
X67145238Y-1806680D01*
X67145238Y-1806680D02*
X67097619Y-1759060D01*
X231642262Y-39954299D02*
X231642262Y-38954299D01*
X232213690Y-39954299D02*
X231785119Y-39382870D01*
X232213690Y-38954299D02*
X231642262Y-39525727D01*
X232404167Y-40049537D02*
X233166071Y-40049537D01*
X233832738Y-39287632D02*
X233832738Y-39954299D01*
X233594643Y-38906680D02*
X233356548Y-39620965D01*
X233356548Y-39620965D02*
X233975595Y-39620965D01*
X234547024Y-38954299D02*
X234642262Y-38954299D01*
X234642262Y-38954299D02*
X234737500Y-39001918D01*
X234737500Y-39001918D02*
X234785119Y-39049537D01*
X234785119Y-39049537D02*
X234832738Y-39144775D01*
X234832738Y-39144775D02*
X234880357Y-39335251D01*
X234880357Y-39335251D02*
X234880357Y-39573346D01*
X234880357Y-39573346D02*
X234832738Y-39763822D01*
X234832738Y-39763822D02*
X234785119Y-39859060D01*
X234785119Y-39859060D02*
X234737500Y-39906680D01*
X234737500Y-39906680D02*
X234642262Y-39954299D01*
X234642262Y-39954299D02*
X234547024Y-39954299D01*
X234547024Y-39954299D02*
X234451786Y-39906680D01*
X234451786Y-39906680D02*
X234404167Y-39859060D01*
X234404167Y-39859060D02*
X234356548Y-39763822D01*
X234356548Y-39763822D02*
X234308929Y-39573346D01*
X234308929Y-39573346D02*
X234308929Y-39335251D01*
X234308929Y-39335251D02*
X234356548Y-39144775D01*
X234356548Y-39144775D02*
X234404167Y-39049537D01*
X234404167Y-39049537D02*
X234451786Y-39001918D01*
X234451786Y-39001918D02*
X234547024Y-38954299D01*
X98292262Y-39954299D02*
X98292262Y-38954299D01*
X98863690Y-39954299D02*
X98435119Y-39382870D01*
X98863690Y-38954299D02*
X98292262Y-39525727D01*
X99054167Y-40049537D02*
X99816071Y-40049537D01*
X99958929Y-38954299D02*
X100577976Y-38954299D01*
X100577976Y-38954299D02*
X100244643Y-39335251D01*
X100244643Y-39335251D02*
X100387500Y-39335251D01*
X100387500Y-39335251D02*
X100482738Y-39382870D01*
X100482738Y-39382870D02*
X100530357Y-39430489D01*
X100530357Y-39430489D02*
X100577976Y-39525727D01*
X100577976Y-39525727D02*
X100577976Y-39763822D01*
X100577976Y-39763822D02*
X100530357Y-39859060D01*
X100530357Y-39859060D02*
X100482738Y-39906680D01*
X100482738Y-39906680D02*
X100387500Y-39954299D01*
X100387500Y-39954299D02*
X100101786Y-39954299D01*
X100101786Y-39954299D02*
X100006548Y-39906680D01*
X100006548Y-39906680D02*
X99958929Y-39859060D01*
X100911310Y-38954299D02*
X101530357Y-38954299D01*
X101530357Y-38954299D02*
X101197024Y-39335251D01*
X101197024Y-39335251D02*
X101339881Y-39335251D01*
X101339881Y-39335251D02*
X101435119Y-39382870D01*
X101435119Y-39382870D02*
X101482738Y-39430489D01*
X101482738Y-39430489D02*
X101530357Y-39525727D01*
X101530357Y-39525727D02*
X101530357Y-39763822D01*
X101530357Y-39763822D02*
X101482738Y-39859060D01*
X101482738Y-39859060D02*
X101435119Y-39906680D01*
X101435119Y-39906680D02*
X101339881Y-39954299D01*
X101339881Y-39954299D02*
X101054167Y-39954299D01*
X101054167Y-39954299D02*
X100958929Y-39906680D01*
X100958929Y-39906680D02*
X100911310Y-39859060D01*
X50667262Y-59004299D02*
X50667262Y-58004299D01*
X51238690Y-59004299D02*
X50810119Y-58432870D01*
X51238690Y-58004299D02*
X50667262Y-58575727D01*
X51429167Y-59099537D02*
X52191071Y-59099537D01*
X52857738Y-58337632D02*
X52857738Y-59004299D01*
X52619643Y-57956680D02*
X52381548Y-58670965D01*
X52381548Y-58670965D02*
X53000595Y-58670965D01*
X53286310Y-58004299D02*
X53905357Y-58004299D01*
X53905357Y-58004299D02*
X53572024Y-58385251D01*
X53572024Y-58385251D02*
X53714881Y-58385251D01*
X53714881Y-58385251D02*
X53810119Y-58432870D01*
X53810119Y-58432870D02*
X53857738Y-58480489D01*
X53857738Y-58480489D02*
X53905357Y-58575727D01*
X53905357Y-58575727D02*
X53905357Y-58813822D01*
X53905357Y-58813822D02*
X53857738Y-58909060D01*
X53857738Y-58909060D02*
X53810119Y-58956680D01*
X53810119Y-58956680D02*
X53714881Y-59004299D01*
X53714881Y-59004299D02*
X53429167Y-59004299D01*
X53429167Y-59004299D02*
X53333929Y-58956680D01*
X53333929Y-58956680D02*
X53286310Y-58909060D01*
X12567262Y-20904299D02*
X12567262Y-19904299D01*
X13138690Y-20904299D02*
X12710119Y-20332870D01*
X13138690Y-19904299D02*
X12567262Y-20475727D01*
X13329167Y-20999537D02*
X14091071Y-20999537D01*
X14852976Y-20904299D02*
X14281548Y-20904299D01*
X14567262Y-20904299D02*
X14567262Y-19904299D01*
X14567262Y-19904299D02*
X14472024Y-20047156D01*
X14472024Y-20047156D02*
X14376786Y-20142394D01*
X14376786Y-20142394D02*
X14281548Y-20190013D01*
X15757738Y-19904299D02*
X15281548Y-19904299D01*
X15281548Y-19904299D02*
X15233929Y-20380489D01*
X15233929Y-20380489D02*
X15281548Y-20332870D01*
X15281548Y-20332870D02*
X15376786Y-20285251D01*
X15376786Y-20285251D02*
X15614881Y-20285251D01*
X15614881Y-20285251D02*
X15710119Y-20332870D01*
X15710119Y-20332870D02*
X15757738Y-20380489D01*
X15757738Y-20380489D02*
X15805357Y-20475727D01*
X15805357Y-20475727D02*
X15805357Y-20713822D01*
X15805357Y-20713822D02*
X15757738Y-20809060D01*
X15757738Y-20809060D02*
X15710119Y-20856680D01*
X15710119Y-20856680D02*
X15614881Y-20904299D01*
X15614881Y-20904299D02*
X15376786Y-20904299D01*
X15376786Y-20904299D02*
X15281548Y-20856680D01*
X15281548Y-20856680D02*
X15233929Y-20809060D01*
X33998512Y-78054299D02*
X33998512Y-77054299D01*
X34569940Y-78054299D02*
X34141369Y-77482870D01*
X34569940Y-77054299D02*
X33998512Y-77625727D01*
X34760417Y-78149537D02*
X35522321Y-78149537D01*
X36236607Y-77054299D02*
X35760417Y-77054299D01*
X35760417Y-77054299D02*
X35712798Y-77530489D01*
X35712798Y-77530489D02*
X35760417Y-77482870D01*
X35760417Y-77482870D02*
X35855655Y-77435251D01*
X35855655Y-77435251D02*
X36093750Y-77435251D01*
X36093750Y-77435251D02*
X36188988Y-77482870D01*
X36188988Y-77482870D02*
X36236607Y-77530489D01*
X36236607Y-77530489D02*
X36284226Y-77625727D01*
X36284226Y-77625727D02*
X36284226Y-77863822D01*
X36284226Y-77863822D02*
X36236607Y-77959060D01*
X36236607Y-77959060D02*
X36188988Y-78006680D01*
X36188988Y-78006680D02*
X36093750Y-78054299D01*
X36093750Y-78054299D02*
X35855655Y-78054299D01*
X35855655Y-78054299D02*
X35760417Y-78006680D01*
X35760417Y-78006680D02*
X35712798Y-77959060D01*
X37188988Y-77054299D02*
X36712798Y-77054299D01*
X36712798Y-77054299D02*
X36665179Y-77530489D01*
X36665179Y-77530489D02*
X36712798Y-77482870D01*
X36712798Y-77482870D02*
X36808036Y-77435251D01*
X36808036Y-77435251D02*
X37046131Y-77435251D01*
X37046131Y-77435251D02*
X37141369Y-77482870D01*
X37141369Y-77482870D02*
X37188988Y-77530489D01*
X37188988Y-77530489D02*
X37236607Y-77625727D01*
X37236607Y-77625727D02*
X37236607Y-77863822D01*
X37236607Y-77863822D02*
X37188988Y-77959060D01*
X37188988Y-77959060D02*
X37141369Y-78006680D01*
X37141369Y-78006680D02*
X37046131Y-78054299D01*
X37046131Y-78054299D02*
X36808036Y-78054299D01*
X36808036Y-78054299D02*
X36712798Y-78006680D01*
X36712798Y-78006680D02*
X36665179Y-77959060D01*
X14948512Y-39954299D02*
X14948512Y-38954299D01*
X15519940Y-39954299D02*
X15091369Y-39382870D01*
X15519940Y-38954299D02*
X14948512Y-39525727D01*
X15710417Y-40049537D02*
X16472321Y-40049537D01*
X16662798Y-39049537D02*
X16710417Y-39001918D01*
X16710417Y-39001918D02*
X16805655Y-38954299D01*
X16805655Y-38954299D02*
X17043750Y-38954299D01*
X17043750Y-38954299D02*
X17138988Y-39001918D01*
X17138988Y-39001918D02*
X17186607Y-39049537D01*
X17186607Y-39049537D02*
X17234226Y-39144775D01*
X17234226Y-39144775D02*
X17234226Y-39240013D01*
X17234226Y-39240013D02*
X17186607Y-39382870D01*
X17186607Y-39382870D02*
X16615179Y-39954299D01*
X16615179Y-39954299D02*
X17234226Y-39954299D01*
X17710417Y-39954299D02*
X17900893Y-39954299D01*
X17900893Y-39954299D02*
X17996131Y-39906680D01*
X17996131Y-39906680D02*
X18043750Y-39859060D01*
X18043750Y-39859060D02*
X18138988Y-39716203D01*
X18138988Y-39716203D02*
X18186607Y-39525727D01*
X18186607Y-39525727D02*
X18186607Y-39144775D01*
X18186607Y-39144775D02*
X18138988Y-39049537D01*
X18138988Y-39049537D02*
X18091369Y-39001918D01*
X18091369Y-39001918D02*
X17996131Y-38954299D01*
X17996131Y-38954299D02*
X17805655Y-38954299D01*
X17805655Y-38954299D02*
X17710417Y-39001918D01*
X17710417Y-39001918D02*
X17662798Y-39049537D01*
X17662798Y-39049537D02*
X17615179Y-39144775D01*
X17615179Y-39144775D02*
X17615179Y-39382870D01*
X17615179Y-39382870D02*
X17662798Y-39478108D01*
X17662798Y-39478108D02*
X17710417Y-39525727D01*
X17710417Y-39525727D02*
X17805655Y-39573346D01*
X17805655Y-39573346D02*
X17996131Y-39573346D01*
X17996131Y-39573346D02*
X18091369Y-39525727D01*
X18091369Y-39525727D02*
X18138988Y-39478108D01*
X18138988Y-39478108D02*
X18186607Y-39382870D01*
X55429762Y-20904299D02*
X55429762Y-19904299D01*
X56001190Y-20904299D02*
X55572619Y-20332870D01*
X56001190Y-19904299D02*
X55429762Y-20475727D01*
X56191667Y-20999537D02*
X56953571Y-20999537D01*
X57715476Y-20904299D02*
X57144048Y-20904299D01*
X57429762Y-20904299D02*
X57429762Y-19904299D01*
X57429762Y-19904299D02*
X57334524Y-20047156D01*
X57334524Y-20047156D02*
X57239286Y-20142394D01*
X57239286Y-20142394D02*
X57144048Y-20190013D01*
X58048810Y-19904299D02*
X58715476Y-19904299D01*
X58715476Y-19904299D02*
X58286905Y-20904299D01*
X93529762Y-20904299D02*
X93529762Y-19904299D01*
X94101190Y-20904299D02*
X93672619Y-20332870D01*
X94101190Y-19904299D02*
X93529762Y-20475727D01*
X94291667Y-20999537D02*
X95053571Y-20999537D01*
X95815476Y-20904299D02*
X95244048Y-20904299D01*
X95529762Y-20904299D02*
X95529762Y-19904299D01*
X95529762Y-19904299D02*
X95434524Y-20047156D01*
X95434524Y-20047156D02*
X95339286Y-20142394D01*
X95339286Y-20142394D02*
X95244048Y-20190013D01*
X96291667Y-20904299D02*
X96482143Y-20904299D01*
X96482143Y-20904299D02*
X96577381Y-20856680D01*
X96577381Y-20856680D02*
X96625000Y-20809060D01*
X96625000Y-20809060D02*
X96720238Y-20666203D01*
X96720238Y-20666203D02*
X96767857Y-20475727D01*
X96767857Y-20475727D02*
X96767857Y-20094775D01*
X96767857Y-20094775D02*
X96720238Y-19999537D01*
X96720238Y-19999537D02*
X96672619Y-19951918D01*
X96672619Y-19951918D02*
X96577381Y-19904299D01*
X96577381Y-19904299D02*
X96386905Y-19904299D01*
X96386905Y-19904299D02*
X96291667Y-19951918D01*
X96291667Y-19951918D02*
X96244048Y-19999537D01*
X96244048Y-19999537D02*
X96196429Y-20094775D01*
X96196429Y-20094775D02*
X96196429Y-20332870D01*
X96196429Y-20332870D02*
X96244048Y-20428108D01*
X96244048Y-20428108D02*
X96291667Y-20475727D01*
X96291667Y-20475727D02*
X96386905Y-20523346D01*
X96386905Y-20523346D02*
X96577381Y-20523346D01*
X96577381Y-20523346D02*
X96672619Y-20475727D01*
X96672619Y-20475727D02*
X96720238Y-20428108D01*
X96720238Y-20428108D02*
X96767857Y-20332870D01*
D11*
X126125000Y-21350000D02*
X126125000Y-35550000D01*
X126125000Y-35550000D02*
X140325000Y-35550000D01*
X140325000Y-21350000D02*
X126125000Y-21350000D01*
X140325000Y-35550000D02*
X140325000Y-21350000D01*
X183275000Y-21350000D02*
X183275000Y-35550000D01*
X183275000Y-35550000D02*
X197475000Y-35550000D01*
X197475000Y-21350000D02*
X183275000Y-21350000D01*
X197475000Y-35550000D02*
X197475000Y-21350000D01*
X173750000Y-2300000D02*
X173750000Y-16500000D01*
X173750000Y-16500000D02*
X187950000Y-16500000D01*
X187950000Y-2300000D02*
X173750000Y-2300000D01*
X187950000Y-16500000D02*
X187950000Y-2300000D01*
X218993750Y-78500000D02*
X218993750Y-92700000D01*
X218993750Y-92700000D02*
X233193750Y-92700000D01*
X233193750Y-78500000D02*
X218993750Y-78500000D01*
X233193750Y-92700000D02*
X233193750Y-78500000D01*
X97550000Y-2300000D02*
X97550000Y-16500000D01*
X97550000Y-16500000D02*
X111750000Y-16500000D01*
X111750000Y-2300000D02*
X97550000Y-2300000D01*
X111750000Y-16500000D02*
X111750000Y-2300000D01*
X242806250Y-78500000D02*
X242806250Y-92700000D01*
X242806250Y-92700000D02*
X257006250Y-92700000D01*
X257006250Y-78500000D02*
X242806250Y-78500000D01*
X257006250Y-92700000D02*
X257006250Y-78500000D01*
X249950000Y-2300000D02*
X249950000Y-16500000D01*
X249950000Y-16500000D02*
X264150000Y-16500000D01*
X264150000Y-2300000D02*
X249950000Y-2300000D01*
X264150000Y-16500000D02*
X264150000Y-2300000D01*
X40400000Y-2300000D02*
X40400000Y-16500000D01*
X40400000Y-16500000D02*
X54600000Y-16500000D01*
X54600000Y-2300000D02*
X40400000Y-2300000D01*
X54600000Y-16500000D02*
X54600000Y-2300000D01*
X21350000Y-2300000D02*
X21350000Y-16500000D01*
X21350000Y-16500000D02*
X35550000Y-16500000D01*
X35550000Y-2300000D02*
X21350000Y-2300000D01*
X35550000Y-16500000D02*
X35550000Y-2300000D01*
X221375000Y-21350000D02*
X221375000Y-35550000D01*
X221375000Y-35550000D02*
X235575000Y-35550000D01*
X235575000Y-21350000D02*
X221375000Y-21350000D01*
X235575000Y-35550000D02*
X235575000Y-21350000D01*
X207087500Y-40400000D02*
X207087500Y-54600000D01*
X207087500Y-54600000D02*
X221287500Y-54600000D01*
X221287500Y-40400000D02*
X207087500Y-40400000D01*
X221287500Y-54600000D02*
X221287500Y-40400000D01*
X149850000Y-2300000D02*
X135650000Y-2300000D01*
X135650000Y-2300000D02*
X135650000Y-16500000D01*
X149850000Y-16500000D02*
X149850000Y-2300000D01*
X135650000Y-16500000D02*
X149850000Y-16500000D01*
X154700000Y-2300000D02*
X154700000Y-16500000D01*
X154700000Y-16500000D02*
X168900000Y-16500000D01*
X168900000Y-2300000D02*
X154700000Y-2300000D01*
X168900000Y-16500000D02*
X168900000Y-2300000D01*
X266618750Y-78500000D02*
X266618750Y-92700000D01*
X266618750Y-92700000D02*
X280818750Y-92700000D01*
X280818750Y-78500000D02*
X266618750Y-78500000D01*
X280818750Y-92700000D02*
X280818750Y-78500000D01*
X35637500Y-40400000D02*
X35637500Y-54600000D01*
X35637500Y-54600000D02*
X49837500Y-54600000D01*
X49837500Y-40400000D02*
X35637500Y-40400000D01*
X49837500Y-54600000D02*
X49837500Y-40400000D01*
X2300000Y-2300000D02*
X2300000Y-16500000D01*
X2300000Y-16500000D02*
X16500000Y-16500000D01*
X16500000Y-2300000D02*
X2300000Y-2300000D01*
X16500000Y-16500000D02*
X16500000Y-2300000D01*
X202325000Y-21350000D02*
X202325000Y-35550000D01*
X202325000Y-35550000D02*
X216525000Y-35550000D01*
X216525000Y-21350000D02*
X202325000Y-21350000D01*
X216525000Y-35550000D02*
X216525000Y-21350000D01*
X257093750Y-40400000D02*
X257093750Y-54600000D01*
X257093750Y-54600000D02*
X271293750Y-54600000D01*
X271293750Y-40400000D02*
X257093750Y-40400000D01*
X271293750Y-54600000D02*
X271293750Y-40400000D01*
X159462500Y-59450000D02*
X159462500Y-73650000D01*
X159462500Y-73650000D02*
X173662500Y-73650000D01*
X173662500Y-59450000D02*
X159462500Y-59450000D01*
X173662500Y-73650000D02*
X173662500Y-59450000D01*
X102312500Y-59450000D02*
X102312500Y-73650000D01*
X102312500Y-73650000D02*
X116512500Y-73650000D01*
X116512500Y-59450000D02*
X102312500Y-59450000D01*
X116512500Y-73650000D02*
X116512500Y-59450000D01*
X116600000Y-16500000D02*
X130800000Y-16500000D01*
X130800000Y-16500000D02*
X130800000Y-2300000D01*
X116600000Y-2300000D02*
X116600000Y-16500000D01*
X130800000Y-2300000D02*
X116600000Y-2300000D01*
X192800000Y-2300000D02*
X192800000Y-16500000D01*
X192800000Y-16500000D02*
X207000000Y-16500000D01*
X207000000Y-2300000D02*
X192800000Y-2300000D01*
X207000000Y-16500000D02*
X207000000Y-2300000D01*
X240425000Y-21350000D02*
X240425000Y-35550000D01*
X240425000Y-35550000D02*
X254625000Y-35550000D01*
X254625000Y-21350000D02*
X240425000Y-21350000D01*
X254625000Y-35550000D02*
X254625000Y-21350000D01*
X107075000Y-21350000D02*
X107075000Y-35550000D01*
X107075000Y-35550000D02*
X121275000Y-35550000D01*
X121275000Y-21350000D02*
X107075000Y-21350000D01*
X121275000Y-35550000D02*
X121275000Y-21350000D01*
X130887500Y-40400000D02*
X130887500Y-54600000D01*
X130887500Y-54600000D02*
X145087500Y-54600000D01*
X145087500Y-40400000D02*
X130887500Y-40400000D01*
X145087500Y-54600000D02*
X145087500Y-40400000D01*
X168987500Y-40400000D02*
X168987500Y-54600000D01*
X168987500Y-54600000D02*
X183187500Y-54600000D01*
X183187500Y-40400000D02*
X168987500Y-40400000D01*
X183187500Y-54600000D02*
X183187500Y-40400000D01*
X149937500Y-40400000D02*
X149937500Y-54600000D01*
X149937500Y-54600000D02*
X164137500Y-54600000D01*
X164137500Y-40400000D02*
X149937500Y-40400000D01*
X164137500Y-54600000D02*
X164137500Y-40400000D01*
X30875000Y-21350000D02*
X30875000Y-35550000D01*
X30875000Y-35550000D02*
X45075000Y-35550000D01*
X45075000Y-21350000D02*
X30875000Y-21350000D01*
X45075000Y-35550000D02*
X45075000Y-21350000D01*
X230900000Y-2300000D02*
X230900000Y-16500000D01*
X230900000Y-16500000D02*
X245100000Y-16500000D01*
X245100000Y-2300000D02*
X230900000Y-2300000D01*
X245100000Y-16500000D02*
X245100000Y-2300000D01*
X83262500Y-59450000D02*
X83262500Y-73650000D01*
X83262500Y-73650000D02*
X97462500Y-73650000D01*
X97462500Y-59450000D02*
X83262500Y-59450000D01*
X97462500Y-73650000D02*
X97462500Y-59450000D01*
X188037500Y-40400000D02*
X188037500Y-54600000D01*
X188037500Y-54600000D02*
X202237500Y-54600000D01*
X202237500Y-40400000D02*
X188037500Y-40400000D01*
X202237500Y-54600000D02*
X202237500Y-40400000D01*
X195181250Y-78500000D02*
X195181250Y-92700000D01*
X195181250Y-92700000D02*
X209381250Y-92700000D01*
X209381250Y-78500000D02*
X195181250Y-78500000D01*
X209381250Y-92700000D02*
X209381250Y-78500000D01*
X52306250Y-78500000D02*
X52306250Y-92700000D01*
X52306250Y-92700000D02*
X66506250Y-92700000D01*
X66506250Y-78500000D02*
X52306250Y-78500000D01*
X66506250Y-92700000D02*
X66506250Y-78500000D01*
X123743750Y-78500000D02*
X123743750Y-92700000D01*
X123743750Y-92700000D02*
X137943750Y-92700000D01*
X137943750Y-78500000D02*
X123743750Y-78500000D01*
X137943750Y-92700000D02*
X137943750Y-78500000D01*
X145175000Y-21350000D02*
X145175000Y-35550000D01*
X145175000Y-35550000D02*
X159375000Y-35550000D01*
X159375000Y-21350000D02*
X145175000Y-21350000D01*
X159375000Y-35550000D02*
X159375000Y-21350000D01*
X73737500Y-40400000D02*
X73737500Y-54600000D01*
X73737500Y-54600000D02*
X87937500Y-54600000D01*
X87937500Y-40400000D02*
X73737500Y-40400000D01*
X87937500Y-54600000D02*
X87937500Y-40400000D01*
X252331250Y-59450000D02*
X252331250Y-73650000D01*
X252331250Y-73650000D02*
X266531250Y-73650000D01*
X266531250Y-59450000D02*
X252331250Y-59450000D01*
X266531250Y-73650000D02*
X266531250Y-59450000D01*
X164225000Y-21350000D02*
X164225000Y-35550000D01*
X164225000Y-35550000D02*
X178425000Y-35550000D01*
X178425000Y-21350000D02*
X164225000Y-21350000D01*
X178425000Y-35550000D02*
X178425000Y-21350000D01*
X121362500Y-59450000D02*
X121362500Y-73650000D01*
X121362500Y-73650000D02*
X135562500Y-73650000D01*
X135562500Y-59450000D02*
X121362500Y-59450000D01*
X135562500Y-73650000D02*
X135562500Y-59450000D01*
X111837500Y-40400000D02*
X111837500Y-54600000D01*
X111837500Y-54600000D02*
X126037500Y-54600000D01*
X126037500Y-40400000D02*
X111837500Y-40400000D01*
X126037500Y-54600000D02*
X126037500Y-40400000D01*
X64212500Y-59450000D02*
X64212500Y-73650000D01*
X64212500Y-73650000D02*
X78412500Y-73650000D01*
X78412500Y-59450000D02*
X64212500Y-59450000D01*
X78412500Y-73650000D02*
X78412500Y-59450000D01*
X211850000Y-2300000D02*
X211850000Y-16500000D01*
X211850000Y-16500000D02*
X226050000Y-16500000D01*
X226050000Y-2300000D02*
X211850000Y-2300000D01*
X226050000Y-16500000D02*
X226050000Y-2300000D01*
X216612500Y-59450000D02*
X216612500Y-73650000D01*
X216612500Y-73650000D02*
X230812500Y-73650000D01*
X230812500Y-59450000D02*
X216612500Y-59450000D01*
X230812500Y-73650000D02*
X230812500Y-59450000D01*
X178512500Y-59450000D02*
X178512500Y-73650000D01*
X178512500Y-73650000D02*
X192712500Y-73650000D01*
X192712500Y-59450000D02*
X178512500Y-59450000D01*
X192712500Y-73650000D02*
X192712500Y-59450000D01*
X269000000Y-2300000D02*
X269000000Y-16500000D01*
X269000000Y-16500000D02*
X283200000Y-16500000D01*
X283200000Y-2300000D02*
X269000000Y-2300000D01*
X283200000Y-16500000D02*
X283200000Y-2300000D01*
X78500000Y-2300000D02*
X78500000Y-16500000D01*
X78500000Y-16500000D02*
X92700000Y-16500000D01*
X92700000Y-2300000D02*
X78500000Y-2300000D01*
X92700000Y-16500000D02*
X92700000Y-2300000D01*
X68975000Y-21350000D02*
X68975000Y-35550000D01*
X68975000Y-35550000D02*
X83175000Y-35550000D01*
X83175000Y-21350000D02*
X68975000Y-21350000D01*
X83175000Y-35550000D02*
X83175000Y-21350000D01*
X264237500Y-21350000D02*
X264237500Y-35550000D01*
X264237500Y-35550000D02*
X278437500Y-35550000D01*
X278437500Y-21350000D02*
X264237500Y-21350000D01*
X278437500Y-35550000D02*
X278437500Y-21350000D01*
X54687500Y-40400000D02*
X54687500Y-54600000D01*
X54687500Y-54600000D02*
X68887500Y-54600000D01*
X68887500Y-40400000D02*
X54687500Y-40400000D01*
X68887500Y-54600000D02*
X68887500Y-40400000D01*
X14206250Y-59450000D02*
X14206250Y-73650000D01*
X14206250Y-73650000D02*
X28406250Y-73650000D01*
X28406250Y-59450000D02*
X14206250Y-59450000D01*
X28406250Y-73650000D02*
X28406250Y-59450000D01*
X4681250Y-78500000D02*
X4681250Y-92700000D01*
X4681250Y-92700000D02*
X18881250Y-92700000D01*
X18881250Y-78500000D02*
X4681250Y-78500000D01*
X18881250Y-92700000D02*
X18881250Y-78500000D01*
X197562500Y-59450000D02*
X197562500Y-73650000D01*
X197562500Y-73650000D02*
X211762500Y-73650000D01*
X211762500Y-59450000D02*
X197562500Y-59450000D01*
X211762500Y-73650000D02*
X211762500Y-59450000D01*
X140412500Y-59450000D02*
X140412500Y-73650000D01*
X140412500Y-73650000D02*
X154612500Y-73650000D01*
X154612500Y-59450000D02*
X140412500Y-59450000D01*
X154612500Y-73650000D02*
X154612500Y-59450000D01*
X59450000Y-2300000D02*
X59450000Y-16500000D01*
X59450000Y-16500000D02*
X73650000Y-16500000D01*
X73650000Y-2300000D02*
X59450000Y-2300000D01*
X73650000Y-16500000D02*
X73650000Y-2300000D01*
X226137500Y-40400000D02*
X226137500Y-54600000D01*
X226137500Y-54600000D02*
X240337500Y-54600000D01*
X240337500Y-40400000D02*
X226137500Y-40400000D01*
X240337500Y-54600000D02*
X240337500Y-40400000D01*
X92787500Y-40400000D02*
X92787500Y-54600000D01*
X92787500Y-54600000D02*
X106987500Y-54600000D01*
X106987500Y-40400000D02*
X92787500Y-40400000D01*
X106987500Y-54600000D02*
X106987500Y-40400000D01*
X45162500Y-59450000D02*
X45162500Y-73650000D01*
X45162500Y-73650000D02*
X59362500Y-73650000D01*
X59362500Y-59450000D02*
X45162500Y-59450000D01*
X59362500Y-73650000D02*
X59362500Y-59450000D01*
X7062500Y-21350000D02*
X7062500Y-35550000D01*
X7062500Y-35550000D02*
X21262500Y-35550000D01*
X21262500Y-21350000D02*
X7062500Y-21350000D01*
X21262500Y-35550000D02*
X21262500Y-21350000D01*
X28493750Y-78500000D02*
X28493750Y-92700000D01*
X28493750Y-92700000D02*
X42693750Y-92700000D01*
X42693750Y-78500000D02*
X28493750Y-78500000D01*
X42693750Y-92700000D02*
X42693750Y-78500000D01*
X9443750Y-40400000D02*
X9443750Y-54600000D01*
X9443750Y-54600000D02*
X23643750Y-54600000D01*
X23643750Y-40400000D02*
X9443750Y-40400000D01*
X23643750Y-54600000D02*
X23643750Y-40400000D01*
X49925000Y-21350000D02*
X49925000Y-35550000D01*
X49925000Y-35550000D02*
X64125000Y-35550000D01*
X64125000Y-21350000D02*
X49925000Y-21350000D01*
X64125000Y-35550000D02*
X64125000Y-21350000D01*
X88025000Y-21350000D02*
X88025000Y-35550000D01*
X88025000Y-35550000D02*
X102225000Y-35550000D01*
X102225000Y-21350000D02*
X88025000Y-21350000D01*
X102225000Y-35550000D02*
X102225000Y-21350000D01*
%LPC*%
D12*
X130860000Y-5100000D03*
X136640000Y-5100000D03*
D13*
X129430000Y-5600000D03*
D14*
X129430000Y-1400000D03*
D13*
X138070000Y-5600000D03*
D14*
X138070000Y-1400000D03*
D15*
X180843750Y-92585000D03*
D16*
X180843750Y-77375000D03*
D15*
X80843750Y-92585000D03*
D16*
X80843750Y-77375000D03*
D17*
X128145000Y-28450000D03*
D18*
X133225000Y-28450000D03*
D17*
X138305000Y-28450000D03*
D19*
X129415000Y-25910000D03*
X135765000Y-23370000D03*
D17*
X185295000Y-28450000D03*
D18*
X190375000Y-28450000D03*
D17*
X195455000Y-28450000D03*
D19*
X186565000Y-25910000D03*
X192915000Y-23370000D03*
D17*
X175770000Y-9400000D03*
D18*
X180850000Y-9400000D03*
D17*
X185930000Y-9400000D03*
D19*
X177040000Y-6860000D03*
X183390000Y-4320000D03*
D17*
X221013750Y-85600000D03*
D18*
X226093750Y-85600000D03*
D17*
X231173750Y-85600000D03*
D19*
X222283750Y-83060000D03*
X228633750Y-80520000D03*
D20*
X128450000Y-47100000D03*
D17*
X99570000Y-9400000D03*
D18*
X104650000Y-9400000D03*
D17*
X109730000Y-9400000D03*
D19*
X100840000Y-6860000D03*
X107190000Y-4320000D03*
D17*
X244826250Y-85600000D03*
D18*
X249906250Y-85600000D03*
D17*
X254986250Y-85600000D03*
D19*
X246096250Y-83060000D03*
X252446250Y-80520000D03*
D17*
X251970000Y-9400000D03*
D18*
X257050000Y-9400000D03*
D17*
X262130000Y-9400000D03*
D19*
X253240000Y-6860000D03*
X259590000Y-4320000D03*
D17*
X42420000Y-9400000D03*
D18*
X47500000Y-9400000D03*
D17*
X52580000Y-9400000D03*
D19*
X43690000Y-6860000D03*
X50040000Y-4320000D03*
D17*
X23370000Y-9400000D03*
D18*
X28450000Y-9400000D03*
D17*
X33530000Y-9400000D03*
D19*
X24640000Y-6860000D03*
X30990000Y-4320000D03*
D17*
X223395000Y-28450000D03*
D18*
X228475000Y-28450000D03*
D17*
X233555000Y-28450000D03*
D19*
X224665000Y-25910000D03*
X231015000Y-23370000D03*
D17*
X209107500Y-47500000D03*
D18*
X214187500Y-47500000D03*
D17*
X219267500Y-47500000D03*
D19*
X210377500Y-44960000D03*
X216727500Y-42420000D03*
D17*
X142750000Y-4320000D03*
D18*
X142750000Y-9400000D03*
D17*
X142750000Y-14480000D03*
D19*
X145290000Y-5590000D03*
X147830000Y-11940000D03*
D17*
X156720000Y-9400000D03*
D18*
X161800000Y-9400000D03*
D17*
X166880000Y-9400000D03*
D19*
X157990000Y-6860000D03*
X164340000Y-4320000D03*
D17*
X268638750Y-85600000D03*
D18*
X273718750Y-85600000D03*
D17*
X278798750Y-85600000D03*
D19*
X269908750Y-83060000D03*
X276258750Y-80520000D03*
D17*
X37657500Y-47500000D03*
D18*
X42737500Y-47500000D03*
D17*
X47817500Y-47500000D03*
D19*
X38927500Y-44960000D03*
X45277500Y-42420000D03*
D17*
X4320000Y-9400000D03*
D18*
X9400000Y-9400000D03*
D17*
X14480000Y-9400000D03*
D19*
X5590000Y-6860000D03*
X11940000Y-4320000D03*
D17*
X204345000Y-28450000D03*
D18*
X209425000Y-28450000D03*
D17*
X214505000Y-28450000D03*
D19*
X205615000Y-25910000D03*
X211965000Y-23370000D03*
D17*
X259113750Y-47500000D03*
D18*
X264193750Y-47500000D03*
D17*
X269273750Y-47500000D03*
D19*
X260383750Y-44960000D03*
X266733750Y-42420000D03*
D17*
X161482500Y-66550000D03*
D18*
X166562500Y-66550000D03*
D17*
X171642500Y-66550000D03*
D19*
X162752500Y-64010000D03*
X169102500Y-61470000D03*
D17*
X104332500Y-66550000D03*
D18*
X109412500Y-66550000D03*
D17*
X114492500Y-66550000D03*
D19*
X105602500Y-64010000D03*
X111952500Y-61470000D03*
D17*
X123700000Y-14480000D03*
D18*
X123700000Y-9400000D03*
D17*
X123700000Y-4320000D03*
D19*
X121160000Y-13210000D03*
X118620000Y-6860000D03*
D17*
X194820000Y-9400000D03*
D18*
X199900000Y-9400000D03*
D17*
X204980000Y-9400000D03*
D19*
X196090000Y-6860000D03*
X202440000Y-4320000D03*
D21*
X260550000Y-27900000D03*
D17*
X242445000Y-28450000D03*
D18*
X247525000Y-28450000D03*
D17*
X252605000Y-28450000D03*
D19*
X243715000Y-25910000D03*
X250065000Y-23370000D03*
D17*
X109095000Y-28450000D03*
D18*
X114175000Y-28450000D03*
D17*
X119255000Y-28450000D03*
D19*
X110365000Y-25910000D03*
X116715000Y-23370000D03*
D17*
X132907500Y-47500000D03*
D18*
X137987500Y-47500000D03*
D17*
X143067500Y-47500000D03*
D19*
X134177500Y-44960000D03*
X140527500Y-42420000D03*
D17*
X171007500Y-47500000D03*
D18*
X176087500Y-47500000D03*
D17*
X181167500Y-47500000D03*
D19*
X172277500Y-44960000D03*
X178627500Y-42420000D03*
D17*
X151957500Y-47500000D03*
D18*
X157037500Y-47500000D03*
D17*
X162117500Y-47500000D03*
D19*
X153227500Y-44960000D03*
X159577500Y-42420000D03*
D17*
X32895000Y-28450000D03*
D18*
X37975000Y-28450000D03*
D17*
X43055000Y-28450000D03*
D19*
X34165000Y-25910000D03*
X40515000Y-23370000D03*
D17*
X232920000Y-9400000D03*
D18*
X238000000Y-9400000D03*
D17*
X243080000Y-9400000D03*
D19*
X234190000Y-6860000D03*
X240540000Y-4320000D03*
D17*
X85282500Y-66550000D03*
D18*
X90362500Y-66550000D03*
D17*
X95442500Y-66550000D03*
D19*
X86552500Y-64010000D03*
X92902500Y-61470000D03*
D17*
X190057500Y-47500000D03*
D18*
X195137500Y-47500000D03*
D17*
X200217500Y-47500000D03*
D19*
X191327500Y-44960000D03*
X197677500Y-42420000D03*
D22*
X2500000Y-56500000D03*
D17*
X197201250Y-85600000D03*
D18*
X202281250Y-85600000D03*
D17*
X207361250Y-85600000D03*
D19*
X198471250Y-83060000D03*
X204821250Y-80520000D03*
D17*
X54326250Y-85600000D03*
D18*
X59406250Y-85600000D03*
D17*
X64486250Y-85600000D03*
D19*
X55596250Y-83060000D03*
X61946250Y-80520000D03*
D17*
X125763750Y-85600000D03*
D18*
X130843750Y-85600000D03*
D17*
X135923750Y-85600000D03*
D19*
X127033750Y-83060000D03*
X133383750Y-80520000D03*
D17*
X147195000Y-28450000D03*
D18*
X152275000Y-28450000D03*
D17*
X157355000Y-28450000D03*
D19*
X148465000Y-25910000D03*
X154815000Y-23370000D03*
D17*
X75757500Y-47500000D03*
D18*
X80837500Y-47500000D03*
D17*
X85917500Y-47500000D03*
D19*
X77027500Y-44960000D03*
X83377500Y-42420000D03*
D17*
X254351250Y-66550000D03*
D18*
X259431250Y-66550000D03*
D17*
X264511250Y-66550000D03*
D19*
X255621250Y-64010000D03*
X261971250Y-61470000D03*
D17*
X166245000Y-28450000D03*
D18*
X171325000Y-28450000D03*
D17*
X176405000Y-28450000D03*
D19*
X167515000Y-25910000D03*
X173865000Y-23370000D03*
D17*
X123382500Y-66550000D03*
D18*
X128462500Y-66550000D03*
D17*
X133542500Y-66550000D03*
D19*
X124652500Y-64010000D03*
X131002500Y-61470000D03*
D17*
X113857500Y-47500000D03*
D18*
X118937500Y-47500000D03*
D17*
X124017500Y-47500000D03*
D19*
X115127500Y-44960000D03*
X121477500Y-42420000D03*
D17*
X66232500Y-66550000D03*
D18*
X71312500Y-66550000D03*
D17*
X76392500Y-66550000D03*
D19*
X67502500Y-64010000D03*
X73852500Y-61470000D03*
D17*
X213870000Y-9400000D03*
D18*
X218950000Y-9400000D03*
D17*
X224030000Y-9400000D03*
D19*
X215140000Y-6860000D03*
X221490000Y-4320000D03*
D23*
X25200000Y-27900000D03*
D17*
X218632500Y-66550000D03*
D18*
X223712500Y-66550000D03*
D17*
X228792500Y-66550000D03*
D19*
X219902500Y-64010000D03*
X226252500Y-61470000D03*
D17*
X180532500Y-66550000D03*
D18*
X185612500Y-66550000D03*
D17*
X190692500Y-66550000D03*
D19*
X181802500Y-64010000D03*
X188152500Y-61470000D03*
D17*
X271020000Y-9400000D03*
D18*
X276100000Y-9400000D03*
D17*
X281180000Y-9400000D03*
D19*
X272290000Y-6860000D03*
X278640000Y-4320000D03*
D17*
X80520000Y-9400000D03*
D18*
X85600000Y-9400000D03*
D17*
X90680000Y-9400000D03*
D19*
X81790000Y-6860000D03*
X88140000Y-4320000D03*
D17*
X70995000Y-28450000D03*
D18*
X76075000Y-28450000D03*
D17*
X81155000Y-28450000D03*
D19*
X72265000Y-25910000D03*
X78615000Y-23370000D03*
D17*
X266257500Y-28450000D03*
D18*
X271337500Y-28450000D03*
D17*
X276417500Y-28450000D03*
D19*
X267527500Y-25910000D03*
X273877500Y-23370000D03*
D17*
X56707500Y-47500000D03*
D18*
X61787500Y-47500000D03*
D17*
X66867500Y-47500000D03*
D19*
X57977500Y-44960000D03*
X64327500Y-42420000D03*
D17*
X16226250Y-66550000D03*
D18*
X21306250Y-66550000D03*
D17*
X26386250Y-66550000D03*
D19*
X17496250Y-64010000D03*
X23846250Y-61470000D03*
D17*
X6701250Y-85600000D03*
D18*
X11781250Y-85600000D03*
D17*
X16861250Y-85600000D03*
D19*
X7971250Y-83060000D03*
X14321250Y-80520000D03*
D17*
X199582500Y-66550000D03*
D18*
X204662500Y-66550000D03*
D17*
X209742500Y-66550000D03*
D19*
X200852500Y-64010000D03*
X207202500Y-61470000D03*
D21*
X190500000Y-85200000D03*
D17*
X142432500Y-66550000D03*
D18*
X147512500Y-66550000D03*
D17*
X152592500Y-66550000D03*
D19*
X143702500Y-64010000D03*
X150052500Y-61470000D03*
D17*
X61470000Y-9400000D03*
D18*
X66550000Y-9400000D03*
D17*
X71630000Y-9400000D03*
D19*
X62740000Y-6860000D03*
X69090000Y-4320000D03*
D17*
X228157500Y-47500000D03*
D18*
X233237500Y-47500000D03*
D17*
X238317500Y-47500000D03*
D19*
X229427500Y-44960000D03*
X235777500Y-42420000D03*
D17*
X94807500Y-47500000D03*
D18*
X99887500Y-47500000D03*
D17*
X104967500Y-47500000D03*
D19*
X96077500Y-44960000D03*
X102427500Y-42420000D03*
D17*
X47182500Y-66550000D03*
D18*
X52262500Y-66550000D03*
D17*
X57342500Y-66550000D03*
D19*
X48452500Y-64010000D03*
X54802500Y-61470000D03*
D17*
X9082500Y-28450000D03*
D18*
X14162500Y-28450000D03*
D17*
X19242500Y-28450000D03*
D19*
X10352500Y-25910000D03*
X16702500Y-23370000D03*
D17*
X30513750Y-85600000D03*
D18*
X35593750Y-85600000D03*
D17*
X40673750Y-85600000D03*
D19*
X31783750Y-83060000D03*
X38133750Y-80520000D03*
D17*
X11463750Y-47500000D03*
D18*
X16543750Y-47500000D03*
D17*
X21623750Y-47500000D03*
D19*
X12733750Y-44960000D03*
X19083750Y-42420000D03*
D17*
X51945000Y-28450000D03*
D18*
X57025000Y-28450000D03*
D17*
X62105000Y-28450000D03*
D19*
X53215000Y-25910000D03*
X59565000Y-23370000D03*
D22*
X283900000Y-56500000D03*
D17*
X90045000Y-28450000D03*
D18*
X95125000Y-28450000D03*
D17*
X100205000Y-28450000D03*
D19*
X91315000Y-25910000D03*
X97665000Y-23370000D03*
D15*
X252255750Y-40515000D03*
D16*
X252255750Y-55725000D03*
D15*
X276131750Y-40515000D03*
D16*
X276131750Y-55725000D03*
D15*
X9368250Y-59565000D03*
D16*
X9368250Y-74775000D03*
D15*
X33244250Y-59565000D03*
D16*
X33244250Y-74775000D03*
D15*
X247493250Y-59565000D03*
D16*
X247493250Y-74775000D03*
D15*
X271369250Y-59565000D03*
D16*
X271369250Y-74775000D03*
%LPD*%
M02*
