G04 #@! TF.GenerationSoftware,KiCad,Pcbnew,8.0.4*
G04 #@! TF.CreationDate,2024-08-16T15:43:28+02:00*
G04 #@! TF.ProjectId,keyboard,6b657962-6f61-4726-942e-6b696361645f,rev?*
G04 #@! TF.SameCoordinates,Original*
G04 #@! TF.FileFunction,Paste,Bot*
G04 #@! TF.FilePolarity,Positive*
%FSLAX46Y46*%
G04 Gerber Fmt 4.6, Leading zero omitted, Abs format (unit mm)*
G04 Created by KiCad (PCBNEW 8.0.4) date 2024-08-16 15:43:28*
%MOMM*%
%LPD*%
G01*
G04 APERTURE LIST*
G04 Aperture macros list*
%AMRoundRect*
0 Rectangle with rounded corners*
0 $1 Rounding radius*
0 $2 $3 $4 $5 $6 $7 $8 $9 X,Y pos of 4 corners*
0 Add a 4 corners polygon primitive as box body*
4,1,4,$2,$3,$4,$5,$6,$7,$8,$9,$2,$3,0*
0 Add four circle primitives for the rounded corners*
1,1,$1+$1,$2,$3*
1,1,$1+$1,$4,$5*
1,1,$1+$1,$6,$7*
1,1,$1+$1,$8,$9*
0 Add four rect primitives between the rounded corners*
20,1,$1+$1,$2,$3,$4,$5,0*
20,1,$1+$1,$4,$5,$6,$7,0*
20,1,$1+$1,$6,$7,$8,$9,0*
20,1,$1+$1,$8,$9,$2,$3,0*%
G04 Aperture macros list end*
%ADD10R,0.600000X1.100000*%
%ADD11R,0.300000X1.240000*%
%ADD12RoundRect,0.237500X0.250000X0.237500X-0.250000X0.237500X-0.250000X-0.237500X0.250000X-0.237500X0*%
%ADD13RoundRect,0.237500X-0.237500X0.250000X-0.237500X-0.250000X0.237500X-0.250000X0.237500X0.250000X0*%
%ADD14RoundRect,0.237500X-0.300000X-0.237500X0.300000X-0.237500X0.300000X0.237500X-0.300000X0.237500X0*%
%ADD15RoundRect,0.237500X0.237500X-0.300000X0.237500X0.300000X-0.237500X0.300000X-0.237500X-0.300000X0*%
%ADD16RoundRect,0.237500X0.300000X0.237500X-0.300000X0.237500X-0.300000X-0.237500X0.300000X-0.237500X0*%
%ADD17RoundRect,0.237500X0.237500X-0.250000X0.237500X0.250000X-0.237500X0.250000X-0.237500X-0.250000X0*%
%ADD18R,0.750000X1.000000*%
%ADD19R,1.800000X2.100000*%
%ADD20RoundRect,0.250001X0.624999X-0.462499X0.624999X0.462499X-0.624999X0.462499X-0.624999X-0.462499X0*%
%ADD21RoundRect,0.225000X0.375000X-0.225000X0.375000X0.225000X-0.375000X0.225000X-0.375000X-0.225000X0*%
%ADD22RoundRect,0.250000X-0.275000X0.275000X-0.275000X-0.275000X0.275000X-0.275000X0.275000X0.275000X0*%
%ADD23RoundRect,0.062500X-0.062500X0.475000X-0.062500X-0.475000X0.062500X-0.475000X0.062500X0.475000X0*%
%ADD24RoundRect,0.062500X-0.475000X0.062500X-0.475000X-0.062500X0.475000X-0.062500X0.475000X0.062500X0*%
G04 APERTURE END LIST*
D10*
X130550000Y-6275000D03*
X131350000Y-6275000D03*
D11*
X132500000Y-6200000D03*
X133500000Y-6200000D03*
X134000000Y-6200000D03*
X135000000Y-6200000D03*
D10*
X136150000Y-6275000D03*
X136950000Y-6275000D03*
X136950000Y-6275000D03*
X136150000Y-6275000D03*
D11*
X135500000Y-6200000D03*
X134500000Y-6200000D03*
X133000000Y-6200000D03*
X132000000Y-6200000D03*
D10*
X131350000Y-6275000D03*
X130550000Y-6275000D03*
D12*
X154912500Y-88750000D03*
X153087500Y-88750000D03*
D13*
X157650000Y-75437500D03*
X157650000Y-77262500D03*
D14*
X160837500Y-90500000D03*
X162562500Y-90500000D03*
D15*
X169700000Y-81062500D03*
X169700000Y-79337500D03*
D16*
X153362500Y-86500000D03*
X151637500Y-86500000D03*
D13*
X156150000Y-75437500D03*
X156150000Y-77262500D03*
X130850000Y-9087500D03*
X130850000Y-10912500D03*
D17*
X135500000Y-12712500D03*
X135500000Y-10887500D03*
D15*
X161000000Y-74462500D03*
X161000000Y-72737500D03*
D18*
X31025000Y-51200000D03*
X31025000Y-45200000D03*
X27275000Y-51200000D03*
X27275000Y-45200000D03*
D15*
X153162500Y-81112500D03*
X153162500Y-79387500D03*
D12*
X157812500Y-67300000D03*
X155987500Y-67300000D03*
D15*
X162550000Y-74462500D03*
X162550000Y-72737500D03*
X154662500Y-77212500D03*
X154662500Y-75487500D03*
D16*
X169362500Y-89300000D03*
X167637500Y-89300000D03*
D14*
X164500000Y-81050000D03*
X166225000Y-81050000D03*
D19*
X167350000Y-86450000D03*
X167350000Y-83550000D03*
X169650000Y-83550000D03*
X169650000Y-86450000D03*
D20*
X138500000Y-20275000D03*
X138500000Y-17300000D03*
D21*
X12000000Y-16100000D03*
X12000000Y-12800000D03*
X31050000Y-16100000D03*
X31050000Y-12800000D03*
X50100000Y-16100000D03*
X50100000Y-12800000D03*
X69150000Y-16100000D03*
X69150000Y-12800000D03*
X88200000Y-16100000D03*
X88200000Y-12800000D03*
X107250000Y-16100000D03*
X107250000Y-12800000D03*
X118500000Y-16100000D03*
X118500000Y-12800000D03*
X151000000Y-16100000D03*
X151000000Y-12800000D03*
X164500000Y-16100000D03*
X164500000Y-12800000D03*
X183250000Y-16100000D03*
X183250000Y-12800000D03*
X202500000Y-16100000D03*
X202500000Y-12800000D03*
X221500000Y-16100000D03*
X221500000Y-12800000D03*
X240500000Y-16100000D03*
X240500000Y-12800000D03*
X259500000Y-16100000D03*
X259500000Y-12800000D03*
X278750000Y-16100000D03*
X278750000Y-12800000D03*
X16750000Y-35100000D03*
X16750000Y-31800000D03*
X40500000Y-35100000D03*
X40500000Y-31800000D03*
X59550000Y-35100000D03*
X59550000Y-31800000D03*
X78600000Y-35100000D03*
X78600000Y-31800000D03*
X97650000Y-35100000D03*
X97650000Y-31800000D03*
X116700000Y-35100000D03*
X116700000Y-31800000D03*
X135750000Y-35100000D03*
X135750000Y-31800000D03*
X154800000Y-35100000D03*
X154800000Y-31800000D03*
X173850000Y-35100000D03*
X173850000Y-31800000D03*
X192900000Y-35100000D03*
X192900000Y-31800000D03*
X211950000Y-35100000D03*
X211950000Y-31800000D03*
X231000000Y-35100000D03*
X231000000Y-31800000D03*
X250000000Y-35100000D03*
X250000000Y-31800000D03*
X274000000Y-35100000D03*
X274000000Y-31800000D03*
X19250000Y-54350000D03*
X19250000Y-51050000D03*
X45250000Y-54350000D03*
X45250000Y-51050000D03*
X64300000Y-54350000D03*
X64300000Y-51050000D03*
X83350000Y-54350000D03*
X83350000Y-51050000D03*
X102400000Y-54350000D03*
X102400000Y-51050000D03*
X121500000Y-54350000D03*
X121500000Y-51050000D03*
X140500000Y-54350000D03*
X140500000Y-51050000D03*
X159550000Y-54350000D03*
X159550000Y-51050000D03*
X178600000Y-54350000D03*
X178600000Y-51050000D03*
X197650000Y-54350000D03*
X197650000Y-51050000D03*
X216700000Y-54350000D03*
X216700000Y-51050000D03*
X235750000Y-54350000D03*
X235750000Y-51050000D03*
X266750000Y-54100000D03*
X266750000Y-50800000D03*
X23750000Y-73350000D03*
X23750000Y-70050000D03*
X54800000Y-73350000D03*
X54800000Y-70050000D03*
X73850000Y-73350000D03*
X73850000Y-70050000D03*
X92900000Y-73350000D03*
X92900000Y-70050000D03*
X111950000Y-73350000D03*
X111950000Y-70050000D03*
X131000000Y-73350000D03*
X131000000Y-70050000D03*
X150050000Y-73350000D03*
X150050000Y-70050000D03*
X169100000Y-73350000D03*
X169100000Y-70050000D03*
X188150000Y-73350000D03*
X188150000Y-70050000D03*
X207200000Y-73350000D03*
X207200000Y-70050000D03*
X226250000Y-73350000D03*
X226250000Y-70050000D03*
X262000000Y-73350000D03*
X262000000Y-70050000D03*
X14500000Y-92350000D03*
X14500000Y-89050000D03*
X38312500Y-92350000D03*
X38312500Y-89050000D03*
X62125000Y-92350000D03*
X62125000Y-89050000D03*
X133250000Y-92350000D03*
X133250000Y-89050000D03*
X204750000Y-92350000D03*
X204750000Y-89050000D03*
X228750000Y-92350000D03*
X228750000Y-89050000D03*
X252500000Y-92350000D03*
X252500000Y-89050000D03*
X276250000Y-92350000D03*
X276250000Y-89050000D03*
D22*
X156700000Y-81650000D03*
X158000000Y-81650000D03*
X159300000Y-81650000D03*
X160600000Y-81650000D03*
X156700000Y-82950000D03*
X158000000Y-82950000D03*
X159300000Y-82950000D03*
X160600000Y-82950000D03*
X156700000Y-84250000D03*
X158000000Y-84250000D03*
X159300000Y-84250000D03*
X160600000Y-84250000D03*
X156700000Y-85550000D03*
X158000000Y-85550000D03*
X159300000Y-85550000D03*
X160600000Y-85550000D03*
D23*
X156150000Y-80262500D03*
X156650000Y-80262500D03*
X157150000Y-80262500D03*
X157650000Y-80262500D03*
X158150000Y-80262500D03*
X158650000Y-80262500D03*
X159150000Y-80262500D03*
X159650000Y-80262500D03*
X160150000Y-80262500D03*
X160650000Y-80262500D03*
X161150000Y-80262500D03*
D24*
X161987500Y-81100000D03*
X161987500Y-81600000D03*
X161987500Y-82100000D03*
X161987500Y-82600000D03*
X161987500Y-83100000D03*
X161987500Y-83600000D03*
X161987500Y-84100000D03*
X161987500Y-84600000D03*
X161987500Y-85100000D03*
X161987500Y-85600000D03*
X161987500Y-86100000D03*
D23*
X161150000Y-86937500D03*
X160650000Y-86937500D03*
X160150000Y-86937500D03*
X159650000Y-86937500D03*
X159150000Y-86937500D03*
X158650000Y-86937500D03*
X158150000Y-86937500D03*
X157650000Y-86937500D03*
X157150000Y-86937500D03*
X156650000Y-86937500D03*
X156150000Y-86937500D03*
D24*
X155312500Y-86100000D03*
X155312500Y-85600000D03*
X155312500Y-85100000D03*
X155312500Y-84600000D03*
X155312500Y-84100000D03*
X155312500Y-83600000D03*
X155312500Y-83100000D03*
X155312500Y-82600000D03*
X155312500Y-82100000D03*
X155312500Y-81600000D03*
X155312500Y-81100000D03*
M02*
