%TF.GenerationSoftware,KiCad,Pcbnew,8.0.4*%
%TF.CreationDate,2024-08-16T15:44:48+02:00*%
%TF.ProjectId,keyboard,6b657962-6f61-4726-942e-6b696361645f,rev?*%
%TF.SameCoordinates,Original*%
%TF.FileFunction,Drillmap*%
%TF.FilePolarity,Positive*%
%FSLAX45Y45*%
G04 Gerber Fmt 4.5, Leading zero omitted, Abs format (unit mm)*
G04 Created by KiCad (PCBNEW 8.0.4) date 2024-08-16 15:44:48*
%MOMM*%
%LPD*%
G01*
G04 APERTURE LIST*
%ADD10C,0.100000*%
%ADD11C,0.200000*%
%ADD12C,0.175000*%
%ADD13C,0.304800*%
%ADD14C,0.398780*%
%ADD15C,0.400000*%
G04 APERTURE END LIST*
D10*
X200000Y-9500000D02*
G75*
G02*
X0Y-9300000I0J200000D01*
G01*
X28350000Y0D02*
G75*
G02*
X28550000Y-200000I0J-200000D01*
G01*
X0Y-200000D02*
X0Y-9300000D01*
X28350000Y-9500000D02*
X200000Y-9500000D01*
X28550000Y-200000D02*
X28550000Y-9300000D01*
X28550000Y-9300000D02*
G75*
G02*
X28350000Y-9500000I-200000J0D01*
G01*
X0Y-200000D02*
G75*
G02*
X200000Y0I200000J0D01*
G01*
X200000Y0D02*
X28350000Y0D01*
D11*
D10*
X13053500Y-477500D02*
X13118500Y-542500D01*
X13118500Y-477500D02*
X13053500Y-542500D01*
X13631500Y-477500D02*
X13696500Y-542500D01*
X13696500Y-477500D02*
X13631500Y-542500D01*
D12*
X519500Y-940000D02*
G75*
G02*
X344500Y-940000I-87500J0D01*
G01*
X344500Y-940000D02*
G75*
G02*
X519500Y-940000I87500J0D01*
G01*
X757625Y-8560000D02*
G75*
G02*
X582625Y-8560000I-87500J0D01*
G01*
X582625Y-8560000D02*
G75*
G02*
X757625Y-8560000I87500J0D01*
G01*
X995750Y-2845000D02*
G75*
G02*
X820750Y-2845000I-87500J0D01*
G01*
X820750Y-2845000D02*
G75*
G02*
X995750Y-2845000I87500J0D01*
G01*
X1233875Y-4750000D02*
G75*
G02*
X1058875Y-4750000I-87500J0D01*
G01*
X1058875Y-4750000D02*
G75*
G02*
X1233875Y-4750000I87500J0D01*
G01*
X1535500Y-940000D02*
G75*
G02*
X1360500Y-940000I-87500J0D01*
G01*
X1360500Y-940000D02*
G75*
G02*
X1535500Y-940000I87500J0D01*
G01*
X1710125Y-6655000D02*
G75*
G02*
X1535125Y-6655000I-87500J0D01*
G01*
X1535125Y-6655000D02*
G75*
G02*
X1710125Y-6655000I87500J0D01*
G01*
X1773625Y-8560000D02*
G75*
G02*
X1598625Y-8560000I-87500J0D01*
G01*
X1598625Y-8560000D02*
G75*
G02*
X1773625Y-8560000I87500J0D01*
G01*
X2011750Y-2845000D02*
G75*
G02*
X1836750Y-2845000I-87500J0D01*
G01*
X1836750Y-2845000D02*
G75*
G02*
X2011750Y-2845000I87500J0D01*
G01*
X2249875Y-4750000D02*
G75*
G02*
X2074875Y-4750000I-87500J0D01*
G01*
X2074875Y-4750000D02*
G75*
G02*
X2249875Y-4750000I87500J0D01*
G01*
X2424500Y-940000D02*
G75*
G02*
X2249500Y-940000I-87500J0D01*
G01*
X2249500Y-940000D02*
G75*
G02*
X2424500Y-940000I87500J0D01*
G01*
X2726125Y-6655000D02*
G75*
G02*
X2551125Y-6655000I-87500J0D01*
G01*
X2551125Y-6655000D02*
G75*
G02*
X2726125Y-6655000I87500J0D01*
G01*
X3138875Y-8560000D02*
G75*
G02*
X2963875Y-8560000I-87500J0D01*
G01*
X2963875Y-8560000D02*
G75*
G02*
X3138875Y-8560000I87500J0D01*
G01*
X3377000Y-2845000D02*
G75*
G02*
X3202000Y-2845000I-87500J0D01*
G01*
X3202000Y-2845000D02*
G75*
G02*
X3377000Y-2845000I87500J0D01*
G01*
X3440500Y-940000D02*
G75*
G02*
X3265500Y-940000I-87500J0D01*
G01*
X3265500Y-940000D02*
G75*
G02*
X3440500Y-940000I87500J0D01*
G01*
X3853250Y-4750000D02*
G75*
G02*
X3678250Y-4750000I-87500J0D01*
G01*
X3678250Y-4750000D02*
G75*
G02*
X3853250Y-4750000I87500J0D01*
G01*
X4154875Y-8560000D02*
G75*
G02*
X3979875Y-8560000I-87500J0D01*
G01*
X3979875Y-8560000D02*
G75*
G02*
X4154875Y-8560000I87500J0D01*
G01*
X4329500Y-940000D02*
G75*
G02*
X4154500Y-940000I-87500J0D01*
G01*
X4154500Y-940000D02*
G75*
G02*
X4329500Y-940000I87500J0D01*
G01*
X4393000Y-2845000D02*
G75*
G02*
X4218000Y-2845000I-87500J0D01*
G01*
X4218000Y-2845000D02*
G75*
G02*
X4393000Y-2845000I87500J0D01*
G01*
X4805750Y-6655000D02*
G75*
G02*
X4630750Y-6655000I-87500J0D01*
G01*
X4630750Y-6655000D02*
G75*
G02*
X4805750Y-6655000I87500J0D01*
G01*
X4869250Y-4750000D02*
G75*
G02*
X4694250Y-4750000I-87500J0D01*
G01*
X4694250Y-4750000D02*
G75*
G02*
X4869250Y-4750000I87500J0D01*
G01*
X5282000Y-2845000D02*
G75*
G02*
X5107000Y-2845000I-87500J0D01*
G01*
X5107000Y-2845000D02*
G75*
G02*
X5282000Y-2845000I87500J0D01*
G01*
X5345500Y-940000D02*
G75*
G02*
X5170500Y-940000I-87500J0D01*
G01*
X5170500Y-940000D02*
G75*
G02*
X5345500Y-940000I87500J0D01*
G01*
X5520125Y-8560000D02*
G75*
G02*
X5345125Y-8560000I-87500J0D01*
G01*
X5345125Y-8560000D02*
G75*
G02*
X5520125Y-8560000I87500J0D01*
G01*
X5758250Y-4750000D02*
G75*
G02*
X5583250Y-4750000I-87500J0D01*
G01*
X5583250Y-4750000D02*
G75*
G02*
X5758250Y-4750000I87500J0D01*
G01*
X5821750Y-6655000D02*
G75*
G02*
X5646750Y-6655000I-87500J0D01*
G01*
X5646750Y-6655000D02*
G75*
G02*
X5821750Y-6655000I87500J0D01*
G01*
X6234500Y-940000D02*
G75*
G02*
X6059500Y-940000I-87500J0D01*
G01*
X6059500Y-940000D02*
G75*
G02*
X6234500Y-940000I87500J0D01*
G01*
X6298000Y-2845000D02*
G75*
G02*
X6123000Y-2845000I-87500J0D01*
G01*
X6123000Y-2845000D02*
G75*
G02*
X6298000Y-2845000I87500J0D01*
G01*
X6536125Y-8560000D02*
G75*
G02*
X6361125Y-8560000I-87500J0D01*
G01*
X6361125Y-8560000D02*
G75*
G02*
X6536125Y-8560000I87500J0D01*
G01*
X6710750Y-6655000D02*
G75*
G02*
X6535750Y-6655000I-87500J0D01*
G01*
X6535750Y-6655000D02*
G75*
G02*
X6710750Y-6655000I87500J0D01*
G01*
X6774250Y-4750000D02*
G75*
G02*
X6599250Y-4750000I-87500J0D01*
G01*
X6599250Y-4750000D02*
G75*
G02*
X6774250Y-4750000I87500J0D01*
G01*
X7187000Y-2845000D02*
G75*
G02*
X7012000Y-2845000I-87500J0D01*
G01*
X7012000Y-2845000D02*
G75*
G02*
X7187000Y-2845000I87500J0D01*
G01*
X7250500Y-940000D02*
G75*
G02*
X7075500Y-940000I-87500J0D01*
G01*
X7075500Y-940000D02*
G75*
G02*
X7250500Y-940000I87500J0D01*
G01*
X7663250Y-4750000D02*
G75*
G02*
X7488250Y-4750000I-87500J0D01*
G01*
X7488250Y-4750000D02*
G75*
G02*
X7663250Y-4750000I87500J0D01*
G01*
X7726750Y-6655000D02*
G75*
G02*
X7551750Y-6655000I-87500J0D01*
G01*
X7551750Y-6655000D02*
G75*
G02*
X7726750Y-6655000I87500J0D01*
G01*
X8139500Y-940000D02*
G75*
G02*
X7964500Y-940000I-87500J0D01*
G01*
X7964500Y-940000D02*
G75*
G02*
X8139500Y-940000I87500J0D01*
G01*
X8203000Y-2845000D02*
G75*
G02*
X8028000Y-2845000I-87500J0D01*
G01*
X8028000Y-2845000D02*
G75*
G02*
X8203000Y-2845000I87500J0D01*
G01*
X8615750Y-6655000D02*
G75*
G02*
X8440750Y-6655000I-87500J0D01*
G01*
X8440750Y-6655000D02*
G75*
G02*
X8615750Y-6655000I87500J0D01*
G01*
X8679250Y-4750000D02*
G75*
G02*
X8504250Y-4750000I-87500J0D01*
G01*
X8504250Y-4750000D02*
G75*
G02*
X8679250Y-4750000I87500J0D01*
G01*
X9092000Y-2845000D02*
G75*
G02*
X8917000Y-2845000I-87500J0D01*
G01*
X8917000Y-2845000D02*
G75*
G02*
X9092000Y-2845000I87500J0D01*
G01*
X9155500Y-940000D02*
G75*
G02*
X8980500Y-940000I-87500J0D01*
G01*
X8980500Y-940000D02*
G75*
G02*
X9155500Y-940000I87500J0D01*
G01*
X9568250Y-4750000D02*
G75*
G02*
X9393250Y-4750000I-87500J0D01*
G01*
X9393250Y-4750000D02*
G75*
G02*
X9568250Y-4750000I87500J0D01*
G01*
X9631750Y-6655000D02*
G75*
G02*
X9456750Y-6655000I-87500J0D01*
G01*
X9456750Y-6655000D02*
G75*
G02*
X9631750Y-6655000I87500J0D01*
G01*
X10044500Y-940000D02*
G75*
G02*
X9869500Y-940000I-87500J0D01*
G01*
X9869500Y-940000D02*
G75*
G02*
X10044500Y-940000I87500J0D01*
G01*
X10108000Y-2845000D02*
G75*
G02*
X9933000Y-2845000I-87500J0D01*
G01*
X9933000Y-2845000D02*
G75*
G02*
X10108000Y-2845000I87500J0D01*
G01*
X10520750Y-6655000D02*
G75*
G02*
X10345750Y-6655000I-87500J0D01*
G01*
X10345750Y-6655000D02*
G75*
G02*
X10520750Y-6655000I87500J0D01*
G01*
X10584250Y-4750000D02*
G75*
G02*
X10409250Y-4750000I-87500J0D01*
G01*
X10409250Y-4750000D02*
G75*
G02*
X10584250Y-4750000I87500J0D01*
G01*
X10997000Y-2845000D02*
G75*
G02*
X10822000Y-2845000I-87500J0D01*
G01*
X10822000Y-2845000D02*
G75*
G02*
X10997000Y-2845000I87500J0D01*
G01*
X11060500Y-940000D02*
G75*
G02*
X10885500Y-940000I-87500J0D01*
G01*
X10885500Y-940000D02*
G75*
G02*
X11060500Y-940000I87500J0D01*
G01*
X11473250Y-4750000D02*
G75*
G02*
X11298250Y-4750000I-87500J0D01*
G01*
X11298250Y-4750000D02*
G75*
G02*
X11473250Y-4750000I87500J0D01*
G01*
X11536750Y-6655000D02*
G75*
G02*
X11361750Y-6655000I-87500J0D01*
G01*
X11361750Y-6655000D02*
G75*
G02*
X11536750Y-6655000I87500J0D01*
G01*
X12013000Y-2845000D02*
G75*
G02*
X11838000Y-2845000I-87500J0D01*
G01*
X11838000Y-2845000D02*
G75*
G02*
X12013000Y-2845000I87500J0D01*
G01*
X12425750Y-6655000D02*
G75*
G02*
X12250750Y-6655000I-87500J0D01*
G01*
X12250750Y-6655000D02*
G75*
G02*
X12425750Y-6655000I87500J0D01*
G01*
X12457500Y-432000D02*
G75*
G02*
X12282500Y-432000I-87500J0D01*
G01*
X12282500Y-432000D02*
G75*
G02*
X12457500Y-432000I87500J0D01*
G01*
X12457500Y-1448000D02*
G75*
G02*
X12282500Y-1448000I-87500J0D01*
G01*
X12282500Y-1448000D02*
G75*
G02*
X12457500Y-1448000I87500J0D01*
G01*
X12489250Y-4750000D02*
G75*
G02*
X12314250Y-4750000I-87500J0D01*
G01*
X12314250Y-4750000D02*
G75*
G02*
X12489250Y-4750000I87500J0D01*
G01*
X12663875Y-8560000D02*
G75*
G02*
X12488875Y-8560000I-87500J0D01*
G01*
X12488875Y-8560000D02*
G75*
G02*
X12663875Y-8560000I87500J0D01*
G01*
X12902000Y-2845000D02*
G75*
G02*
X12727000Y-2845000I-87500J0D01*
G01*
X12727000Y-2845000D02*
G75*
G02*
X12902000Y-2845000I87500J0D01*
G01*
X13378250Y-4750000D02*
G75*
G02*
X13203250Y-4750000I-87500J0D01*
G01*
X13203250Y-4750000D02*
G75*
G02*
X13378250Y-4750000I87500J0D01*
G01*
X13441750Y-6655000D02*
G75*
G02*
X13266750Y-6655000I-87500J0D01*
G01*
X13266750Y-6655000D02*
G75*
G02*
X13441750Y-6655000I87500J0D01*
G01*
X13679875Y-8560000D02*
G75*
G02*
X13504875Y-8560000I-87500J0D01*
G01*
X13504875Y-8560000D02*
G75*
G02*
X13679875Y-8560000I87500J0D01*
G01*
X13918000Y-2845000D02*
G75*
G02*
X13743000Y-2845000I-87500J0D01*
G01*
X13743000Y-2845000D02*
G75*
G02*
X13918000Y-2845000I87500J0D01*
G01*
X14330750Y-6655000D02*
G75*
G02*
X14155750Y-6655000I-87500J0D01*
G01*
X14155750Y-6655000D02*
G75*
G02*
X14330750Y-6655000I87500J0D01*
G01*
X14362500Y-432000D02*
G75*
G02*
X14187500Y-432000I-87500J0D01*
G01*
X14187500Y-432000D02*
G75*
G02*
X14362500Y-432000I87500J0D01*
G01*
X14362500Y-1448000D02*
G75*
G02*
X14187500Y-1448000I-87500J0D01*
G01*
X14187500Y-1448000D02*
G75*
G02*
X14362500Y-1448000I87500J0D01*
G01*
X14394250Y-4750000D02*
G75*
G02*
X14219250Y-4750000I-87500J0D01*
G01*
X14219250Y-4750000D02*
G75*
G02*
X14394250Y-4750000I87500J0D01*
G01*
X14807000Y-2845000D02*
G75*
G02*
X14632000Y-2845000I-87500J0D01*
G01*
X14632000Y-2845000D02*
G75*
G02*
X14807000Y-2845000I87500J0D01*
G01*
X15283250Y-4750000D02*
G75*
G02*
X15108250Y-4750000I-87500J0D01*
G01*
X15108250Y-4750000D02*
G75*
G02*
X15283250Y-4750000I87500J0D01*
G01*
X15346750Y-6655000D02*
G75*
G02*
X15171750Y-6655000I-87500J0D01*
G01*
X15171750Y-6655000D02*
G75*
G02*
X15346750Y-6655000I87500J0D01*
G01*
X15759500Y-940000D02*
G75*
G02*
X15584500Y-940000I-87500J0D01*
G01*
X15584500Y-940000D02*
G75*
G02*
X15759500Y-940000I87500J0D01*
G01*
X15823000Y-2845000D02*
G75*
G02*
X15648000Y-2845000I-87500J0D01*
G01*
X15648000Y-2845000D02*
G75*
G02*
X15823000Y-2845000I87500J0D01*
G01*
X16235750Y-6655000D02*
G75*
G02*
X16060750Y-6655000I-87500J0D01*
G01*
X16060750Y-6655000D02*
G75*
G02*
X16235750Y-6655000I87500J0D01*
G01*
X16299250Y-4750000D02*
G75*
G02*
X16124250Y-4750000I-87500J0D01*
G01*
X16124250Y-4750000D02*
G75*
G02*
X16299250Y-4750000I87500J0D01*
G01*
X16712000Y-2845000D02*
G75*
G02*
X16537000Y-2845000I-87500J0D01*
G01*
X16537000Y-2845000D02*
G75*
G02*
X16712000Y-2845000I87500J0D01*
G01*
X16775500Y-940000D02*
G75*
G02*
X16600500Y-940000I-87500J0D01*
G01*
X16600500Y-940000D02*
G75*
G02*
X16775500Y-940000I87500J0D01*
G01*
X17188250Y-4750000D02*
G75*
G02*
X17013250Y-4750000I-87500J0D01*
G01*
X17013250Y-4750000D02*
G75*
G02*
X17188250Y-4750000I87500J0D01*
G01*
X17251750Y-6655000D02*
G75*
G02*
X17076750Y-6655000I-87500J0D01*
G01*
X17076750Y-6655000D02*
G75*
G02*
X17251750Y-6655000I87500J0D01*
G01*
X17664500Y-940000D02*
G75*
G02*
X17489500Y-940000I-87500J0D01*
G01*
X17489500Y-940000D02*
G75*
G02*
X17664500Y-940000I87500J0D01*
G01*
X17728000Y-2845000D02*
G75*
G02*
X17553000Y-2845000I-87500J0D01*
G01*
X17553000Y-2845000D02*
G75*
G02*
X17728000Y-2845000I87500J0D01*
G01*
X18140750Y-6655000D02*
G75*
G02*
X17965750Y-6655000I-87500J0D01*
G01*
X17965750Y-6655000D02*
G75*
G02*
X18140750Y-6655000I87500J0D01*
G01*
X18204250Y-4750000D02*
G75*
G02*
X18029250Y-4750000I-87500J0D01*
G01*
X18029250Y-4750000D02*
G75*
G02*
X18204250Y-4750000I87500J0D01*
G01*
X18617000Y-2845000D02*
G75*
G02*
X18442000Y-2845000I-87500J0D01*
G01*
X18442000Y-2845000D02*
G75*
G02*
X18617000Y-2845000I87500J0D01*
G01*
X18680500Y-940000D02*
G75*
G02*
X18505500Y-940000I-87500J0D01*
G01*
X18505500Y-940000D02*
G75*
G02*
X18680500Y-940000I87500J0D01*
G01*
X19093250Y-4750000D02*
G75*
G02*
X18918250Y-4750000I-87500J0D01*
G01*
X18918250Y-4750000D02*
G75*
G02*
X19093250Y-4750000I87500J0D01*
G01*
X19156750Y-6655000D02*
G75*
G02*
X18981750Y-6655000I-87500J0D01*
G01*
X18981750Y-6655000D02*
G75*
G02*
X19156750Y-6655000I87500J0D01*
G01*
X19569500Y-940000D02*
G75*
G02*
X19394500Y-940000I-87500J0D01*
G01*
X19394500Y-940000D02*
G75*
G02*
X19569500Y-940000I87500J0D01*
G01*
X19633000Y-2845000D02*
G75*
G02*
X19458000Y-2845000I-87500J0D01*
G01*
X19458000Y-2845000D02*
G75*
G02*
X19633000Y-2845000I87500J0D01*
G01*
X19807625Y-8560000D02*
G75*
G02*
X19632625Y-8560000I-87500J0D01*
G01*
X19632625Y-8560000D02*
G75*
G02*
X19807625Y-8560000I87500J0D01*
G01*
X20045750Y-6655000D02*
G75*
G02*
X19870750Y-6655000I-87500J0D01*
G01*
X19870750Y-6655000D02*
G75*
G02*
X20045750Y-6655000I87500J0D01*
G01*
X20109250Y-4750000D02*
G75*
G02*
X19934250Y-4750000I-87500J0D01*
G01*
X19934250Y-4750000D02*
G75*
G02*
X20109250Y-4750000I87500J0D01*
G01*
X20522000Y-2845000D02*
G75*
G02*
X20347000Y-2845000I-87500J0D01*
G01*
X20347000Y-2845000D02*
G75*
G02*
X20522000Y-2845000I87500J0D01*
G01*
X20585500Y-940000D02*
G75*
G02*
X20410500Y-940000I-87500J0D01*
G01*
X20410500Y-940000D02*
G75*
G02*
X20585500Y-940000I87500J0D01*
G01*
X20823625Y-8560000D02*
G75*
G02*
X20648625Y-8560000I-87500J0D01*
G01*
X20648625Y-8560000D02*
G75*
G02*
X20823625Y-8560000I87500J0D01*
G01*
X20998250Y-4750000D02*
G75*
G02*
X20823250Y-4750000I-87500J0D01*
G01*
X20823250Y-4750000D02*
G75*
G02*
X20998250Y-4750000I87500J0D01*
G01*
X21061750Y-6655000D02*
G75*
G02*
X20886750Y-6655000I-87500J0D01*
G01*
X20886750Y-6655000D02*
G75*
G02*
X21061750Y-6655000I87500J0D01*
G01*
X21474500Y-940000D02*
G75*
G02*
X21299500Y-940000I-87500J0D01*
G01*
X21299500Y-940000D02*
G75*
G02*
X21474500Y-940000I87500J0D01*
G01*
X21538000Y-2845000D02*
G75*
G02*
X21363000Y-2845000I-87500J0D01*
G01*
X21363000Y-2845000D02*
G75*
G02*
X21538000Y-2845000I87500J0D01*
G01*
X21950750Y-6655000D02*
G75*
G02*
X21775750Y-6655000I-87500J0D01*
G01*
X21775750Y-6655000D02*
G75*
G02*
X21950750Y-6655000I87500J0D01*
G01*
X22014250Y-4750000D02*
G75*
G02*
X21839250Y-4750000I-87500J0D01*
G01*
X21839250Y-4750000D02*
G75*
G02*
X22014250Y-4750000I87500J0D01*
G01*
X22188875Y-8560000D02*
G75*
G02*
X22013875Y-8560000I-87500J0D01*
G01*
X22013875Y-8560000D02*
G75*
G02*
X22188875Y-8560000I87500J0D01*
G01*
X22427000Y-2845000D02*
G75*
G02*
X22252000Y-2845000I-87500J0D01*
G01*
X22252000Y-2845000D02*
G75*
G02*
X22427000Y-2845000I87500J0D01*
G01*
X22490500Y-940000D02*
G75*
G02*
X22315500Y-940000I-87500J0D01*
G01*
X22315500Y-940000D02*
G75*
G02*
X22490500Y-940000I87500J0D01*
G01*
X22903250Y-4750000D02*
G75*
G02*
X22728250Y-4750000I-87500J0D01*
G01*
X22728250Y-4750000D02*
G75*
G02*
X22903250Y-4750000I87500J0D01*
G01*
X22966750Y-6655000D02*
G75*
G02*
X22791750Y-6655000I-87500J0D01*
G01*
X22791750Y-6655000D02*
G75*
G02*
X22966750Y-6655000I87500J0D01*
G01*
X23204875Y-8560000D02*
G75*
G02*
X23029875Y-8560000I-87500J0D01*
G01*
X23029875Y-8560000D02*
G75*
G02*
X23204875Y-8560000I87500J0D01*
G01*
X23379500Y-940000D02*
G75*
G02*
X23204500Y-940000I-87500J0D01*
G01*
X23204500Y-940000D02*
G75*
G02*
X23379500Y-940000I87500J0D01*
G01*
X23443000Y-2845000D02*
G75*
G02*
X23268000Y-2845000I-87500J0D01*
G01*
X23268000Y-2845000D02*
G75*
G02*
X23443000Y-2845000I87500J0D01*
G01*
X23919250Y-4750000D02*
G75*
G02*
X23744250Y-4750000I-87500J0D01*
G01*
X23744250Y-4750000D02*
G75*
G02*
X23919250Y-4750000I87500J0D01*
G01*
X24332000Y-2845000D02*
G75*
G02*
X24157000Y-2845000I-87500J0D01*
G01*
X24157000Y-2845000D02*
G75*
G02*
X24332000Y-2845000I87500J0D01*
G01*
X24395500Y-940000D02*
G75*
G02*
X24220500Y-940000I-87500J0D01*
G01*
X24220500Y-940000D02*
G75*
G02*
X24395500Y-940000I87500J0D01*
G01*
X24570125Y-8560000D02*
G75*
G02*
X24395125Y-8560000I-87500J0D01*
G01*
X24395125Y-8560000D02*
G75*
G02*
X24570125Y-8560000I87500J0D01*
G01*
X25284500Y-940000D02*
G75*
G02*
X25109500Y-940000I-87500J0D01*
G01*
X25109500Y-940000D02*
G75*
G02*
X25284500Y-940000I87500J0D01*
G01*
X25348000Y-2845000D02*
G75*
G02*
X25173000Y-2845000I-87500J0D01*
G01*
X25173000Y-2845000D02*
G75*
G02*
X25348000Y-2845000I87500J0D01*
G01*
X25522625Y-6655000D02*
G75*
G02*
X25347625Y-6655000I-87500J0D01*
G01*
X25347625Y-6655000D02*
G75*
G02*
X25522625Y-6655000I87500J0D01*
G01*
X25586125Y-8560000D02*
G75*
G02*
X25411125Y-8560000I-87500J0D01*
G01*
X25411125Y-8560000D02*
G75*
G02*
X25586125Y-8560000I87500J0D01*
G01*
X25998875Y-4750000D02*
G75*
G02*
X25823875Y-4750000I-87500J0D01*
G01*
X25823875Y-4750000D02*
G75*
G02*
X25998875Y-4750000I87500J0D01*
G01*
X26300500Y-940000D02*
G75*
G02*
X26125500Y-940000I-87500J0D01*
G01*
X26125500Y-940000D02*
G75*
G02*
X26300500Y-940000I87500J0D01*
G01*
X26538625Y-6655000D02*
G75*
G02*
X26363625Y-6655000I-87500J0D01*
G01*
X26363625Y-6655000D02*
G75*
G02*
X26538625Y-6655000I87500J0D01*
G01*
X26713250Y-2845000D02*
G75*
G02*
X26538250Y-2845000I-87500J0D01*
G01*
X26538250Y-2845000D02*
G75*
G02*
X26713250Y-2845000I87500J0D01*
G01*
X26951375Y-8560000D02*
G75*
G02*
X26776375Y-8560000I-87500J0D01*
G01*
X26776375Y-8560000D02*
G75*
G02*
X26951375Y-8560000I87500J0D01*
G01*
X27014875Y-4750000D02*
G75*
G02*
X26839875Y-4750000I-87500J0D01*
G01*
X26839875Y-4750000D02*
G75*
G02*
X27014875Y-4750000I87500J0D01*
G01*
X27189500Y-940000D02*
G75*
G02*
X27014500Y-940000I-87500J0D01*
G01*
X27014500Y-940000D02*
G75*
G02*
X27189500Y-940000I87500J0D01*
G01*
X27729250Y-2845000D02*
G75*
G02*
X27554250Y-2845000I-87500J0D01*
G01*
X27554250Y-2845000D02*
G75*
G02*
X27729250Y-2845000I87500J0D01*
G01*
X27967375Y-8560000D02*
G75*
G02*
X27792375Y-8560000I-87500J0D01*
G01*
X27792375Y-8560000D02*
G75*
G02*
X27967375Y-8560000I87500J0D01*
G01*
X28205500Y-940000D02*
G75*
G02*
X28030500Y-940000I-87500J0D01*
G01*
X28030500Y-940000D02*
G75*
G02*
X28205500Y-940000I87500J0D01*
G01*
D13*
X936825Y-5804100D02*
X936825Y-6108900D01*
X784425Y-5956500D02*
X1089225Y-5956500D01*
X3324425Y-5804100D02*
X3324425Y-6108900D01*
X3172025Y-5956500D02*
X3476825Y-5956500D01*
X8084375Y-9106100D02*
X8084375Y-9410900D01*
X7931975Y-9258500D02*
X8236775Y-9258500D01*
X18084375Y-9106100D02*
X18084375Y-9410900D01*
X17931975Y-9258500D02*
X18236775Y-9258500D01*
X24749325Y-5804100D02*
X24749325Y-6108900D01*
X24596925Y-5956500D02*
X24901725Y-5956500D01*
X25225575Y-3899100D02*
X25225575Y-4203900D01*
X25073175Y-4051500D02*
X25377975Y-4051500D01*
X27136925Y-5804100D02*
X27136925Y-6108900D01*
X26984525Y-5956500D02*
X27289325Y-5956500D01*
X27613175Y-3899100D02*
X27613175Y-4203900D01*
X27460775Y-4051500D02*
X27765575Y-4051500D01*
D14*
X1077816Y-7618491D02*
X1077816Y-7336509D01*
X795834Y-7336509D01*
X795834Y-7618491D01*
X1077816Y-7618491D01*
X3465416Y-7618491D02*
X3465416Y-7336509D01*
X3183434Y-7336509D01*
X3183434Y-7618491D01*
X3465416Y-7618491D01*
X8225366Y-7878491D02*
X8225366Y-7596509D01*
X7943384Y-7596509D01*
X7943384Y-7878491D01*
X8225366Y-7878491D01*
X18225366Y-7878491D02*
X18225366Y-7596509D01*
X17943384Y-7596509D01*
X17943384Y-7878491D01*
X18225366Y-7878491D01*
X24890316Y-7618491D02*
X24890316Y-7336509D01*
X24608334Y-7336509D01*
X24608334Y-7618491D01*
X24890316Y-7618491D01*
X25366566Y-5713491D02*
X25366566Y-5431509D01*
X25084584Y-5431509D01*
X25084584Y-5713491D01*
X25366566Y-5713491D01*
X27277916Y-7618491D02*
X27277916Y-7336509D01*
X26995934Y-7336509D01*
X26995934Y-7618491D01*
X27277916Y-7618491D01*
X27754166Y-5713491D02*
X27754166Y-5431509D01*
X27472184Y-5431509D01*
X27472184Y-5713491D01*
X27754166Y-5713491D01*
D15*
X940000Y-1140000D02*
X1140000Y-940000D01*
X940000Y-740000D01*
X740000Y-940000D01*
X940000Y-1140000D01*
X1178125Y-8760000D02*
X1378125Y-8560000D01*
X1178125Y-8360000D01*
X978125Y-8560000D01*
X1178125Y-8760000D01*
X1416250Y-3045000D02*
X1616250Y-2845000D01*
X1416250Y-2645000D01*
X1216250Y-2845000D01*
X1416250Y-3045000D01*
X1654375Y-4950000D02*
X1854375Y-4750000D01*
X1654375Y-4550000D01*
X1454375Y-4750000D01*
X1654375Y-4950000D01*
X2130625Y-6855000D02*
X2330625Y-6655000D01*
X2130625Y-6455000D01*
X1930625Y-6655000D01*
X2130625Y-6855000D01*
X2845000Y-1140000D02*
X3045000Y-940000D01*
X2845000Y-740000D01*
X2645000Y-940000D01*
X2845000Y-1140000D01*
X3559375Y-8760000D02*
X3759375Y-8560000D01*
X3559375Y-8360000D01*
X3359375Y-8560000D01*
X3559375Y-8760000D01*
X3797500Y-3045000D02*
X3997500Y-2845000D01*
X3797500Y-2645000D01*
X3597500Y-2845000D01*
X3797500Y-3045000D01*
X4273750Y-4950000D02*
X4473750Y-4750000D01*
X4273750Y-4550000D01*
X4073750Y-4750000D01*
X4273750Y-4950000D01*
X4750000Y-1140000D02*
X4950000Y-940000D01*
X4750000Y-740000D01*
X4550000Y-940000D01*
X4750000Y-1140000D01*
X5226250Y-6855000D02*
X5426250Y-6655000D01*
X5226250Y-6455000D01*
X5026250Y-6655000D01*
X5226250Y-6855000D01*
X5702500Y-3045000D02*
X5902500Y-2845000D01*
X5702500Y-2645000D01*
X5502500Y-2845000D01*
X5702500Y-3045000D01*
X5940625Y-8760000D02*
X6140625Y-8560000D01*
X5940625Y-8360000D01*
X5740625Y-8560000D01*
X5940625Y-8760000D01*
X6178750Y-4950000D02*
X6378750Y-4750000D01*
X6178750Y-4550000D01*
X5978750Y-4750000D01*
X6178750Y-4950000D01*
X6655000Y-1140000D02*
X6855000Y-940000D01*
X6655000Y-740000D01*
X6455000Y-940000D01*
X6655000Y-1140000D01*
X7131250Y-6855000D02*
X7331250Y-6655000D01*
X7131250Y-6455000D01*
X6931250Y-6655000D01*
X7131250Y-6855000D01*
X7607500Y-3045000D02*
X7807500Y-2845000D01*
X7607500Y-2645000D01*
X7407500Y-2845000D01*
X7607500Y-3045000D01*
X8083750Y-4950000D02*
X8283750Y-4750000D01*
X8083750Y-4550000D01*
X7883750Y-4750000D01*
X8083750Y-4950000D01*
X8560000Y-1140000D02*
X8760000Y-940000D01*
X8560000Y-740000D01*
X8360000Y-940000D01*
X8560000Y-1140000D01*
X9036250Y-6855000D02*
X9236250Y-6655000D01*
X9036250Y-6455000D01*
X8836250Y-6655000D01*
X9036250Y-6855000D01*
X9512500Y-3045000D02*
X9712500Y-2845000D01*
X9512500Y-2645000D01*
X9312500Y-2845000D01*
X9512500Y-3045000D01*
X9988750Y-4950000D02*
X10188750Y-4750000D01*
X9988750Y-4550000D01*
X9788750Y-4750000D01*
X9988750Y-4950000D01*
X10465000Y-1140000D02*
X10665000Y-940000D01*
X10465000Y-740000D01*
X10265000Y-940000D01*
X10465000Y-1140000D01*
X10941250Y-6855000D02*
X11141250Y-6655000D01*
X10941250Y-6455000D01*
X10741250Y-6655000D01*
X10941250Y-6855000D01*
X11417500Y-3045000D02*
X11617500Y-2845000D01*
X11417500Y-2645000D01*
X11217500Y-2845000D01*
X11417500Y-3045000D01*
X11893750Y-4950000D02*
X12093750Y-4750000D01*
X11893750Y-4550000D01*
X11693750Y-4750000D01*
X11893750Y-4950000D01*
X12370000Y-1140000D02*
X12570000Y-940000D01*
X12370000Y-740000D01*
X12170000Y-940000D01*
X12370000Y-1140000D01*
X12846250Y-6855000D02*
X13046250Y-6655000D01*
X12846250Y-6455000D01*
X12646250Y-6655000D01*
X12846250Y-6855000D01*
X13084375Y-8760000D02*
X13284375Y-8560000D01*
X13084375Y-8360000D01*
X12884375Y-8560000D01*
X13084375Y-8760000D01*
X13322500Y-3045000D02*
X13522500Y-2845000D01*
X13322500Y-2645000D01*
X13122500Y-2845000D01*
X13322500Y-3045000D01*
X13798750Y-4950000D02*
X13998750Y-4750000D01*
X13798750Y-4550000D01*
X13598750Y-4750000D01*
X13798750Y-4950000D01*
X14275000Y-1140000D02*
X14475000Y-940000D01*
X14275000Y-740000D01*
X14075000Y-940000D01*
X14275000Y-1140000D01*
X14751250Y-6855000D02*
X14951250Y-6655000D01*
X14751250Y-6455000D01*
X14551250Y-6655000D01*
X14751250Y-6855000D01*
X15227500Y-3045000D02*
X15427500Y-2845000D01*
X15227500Y-2645000D01*
X15027500Y-2845000D01*
X15227500Y-3045000D01*
X15703750Y-4950000D02*
X15903750Y-4750000D01*
X15703750Y-4550000D01*
X15503750Y-4750000D01*
X15703750Y-4950000D01*
X16180000Y-1140000D02*
X16380000Y-940000D01*
X16180000Y-740000D01*
X15980000Y-940000D01*
X16180000Y-1140000D01*
X16656250Y-6855000D02*
X16856250Y-6655000D01*
X16656250Y-6455000D01*
X16456250Y-6655000D01*
X16656250Y-6855000D01*
X17132500Y-3045000D02*
X17332500Y-2845000D01*
X17132500Y-2645000D01*
X16932500Y-2845000D01*
X17132500Y-3045000D01*
X17608750Y-4950000D02*
X17808750Y-4750000D01*
X17608750Y-4550000D01*
X17408750Y-4750000D01*
X17608750Y-4950000D01*
X18085000Y-1140000D02*
X18285000Y-940000D01*
X18085000Y-740000D01*
X17885000Y-940000D01*
X18085000Y-1140000D01*
X18561250Y-6855000D02*
X18761250Y-6655000D01*
X18561250Y-6455000D01*
X18361250Y-6655000D01*
X18561250Y-6855000D01*
X19037500Y-3045000D02*
X19237500Y-2845000D01*
X19037500Y-2645000D01*
X18837500Y-2845000D01*
X19037500Y-3045000D01*
X19513750Y-4950000D02*
X19713750Y-4750000D01*
X19513750Y-4550000D01*
X19313750Y-4750000D01*
X19513750Y-4950000D01*
X19990000Y-1140000D02*
X20190000Y-940000D01*
X19990000Y-740000D01*
X19790000Y-940000D01*
X19990000Y-1140000D01*
X20228125Y-8760000D02*
X20428125Y-8560000D01*
X20228125Y-8360000D01*
X20028125Y-8560000D01*
X20228125Y-8760000D01*
X20466250Y-6855000D02*
X20666250Y-6655000D01*
X20466250Y-6455000D01*
X20266250Y-6655000D01*
X20466250Y-6855000D01*
X20942500Y-3045000D02*
X21142500Y-2845000D01*
X20942500Y-2645000D01*
X20742500Y-2845000D01*
X20942500Y-3045000D01*
X21418750Y-4950000D02*
X21618750Y-4750000D01*
X21418750Y-4550000D01*
X21218750Y-4750000D01*
X21418750Y-4950000D01*
X21895000Y-1140000D02*
X22095000Y-940000D01*
X21895000Y-740000D01*
X21695000Y-940000D01*
X21895000Y-1140000D01*
X22371250Y-6855000D02*
X22571250Y-6655000D01*
X22371250Y-6455000D01*
X22171250Y-6655000D01*
X22371250Y-6855000D01*
X22609375Y-8760000D02*
X22809375Y-8560000D01*
X22609375Y-8360000D01*
X22409375Y-8560000D01*
X22609375Y-8760000D01*
X22847500Y-3045000D02*
X23047500Y-2845000D01*
X22847500Y-2645000D01*
X22647500Y-2845000D01*
X22847500Y-3045000D01*
X23323750Y-4950000D02*
X23523750Y-4750000D01*
X23323750Y-4550000D01*
X23123750Y-4750000D01*
X23323750Y-4950000D01*
X23800000Y-1140000D02*
X24000000Y-940000D01*
X23800000Y-740000D01*
X23600000Y-940000D01*
X23800000Y-1140000D01*
X24752500Y-3045000D02*
X24952500Y-2845000D01*
X24752500Y-2645000D01*
X24552500Y-2845000D01*
X24752500Y-3045000D01*
X24990625Y-8760000D02*
X25190625Y-8560000D01*
X24990625Y-8360000D01*
X24790625Y-8560000D01*
X24990625Y-8760000D01*
X25705000Y-1140000D02*
X25905000Y-940000D01*
X25705000Y-740000D01*
X25505000Y-940000D01*
X25705000Y-1140000D01*
X25943125Y-6855000D02*
X26143125Y-6655000D01*
X25943125Y-6455000D01*
X25743125Y-6655000D01*
X25943125Y-6855000D01*
X26419375Y-4950000D02*
X26619375Y-4750000D01*
X26419375Y-4550000D01*
X26219375Y-4750000D01*
X26419375Y-4950000D01*
X27133750Y-3045000D02*
X27333750Y-2845000D01*
X27133750Y-2645000D01*
X26933750Y-2845000D01*
X27133750Y-3045000D01*
X27371875Y-8760000D02*
X27571875Y-8560000D01*
X27371875Y-8360000D01*
X27171875Y-8560000D01*
X27371875Y-8760000D01*
X27610000Y-1140000D02*
X27810000Y-940000D01*
X27610000Y-740000D01*
X27410000Y-940000D01*
X27610000Y-1140000D01*
D11*
X255777Y-9816484D02*
X255777Y-9616484D01*
X255777Y-9616484D02*
X303396Y-9616484D01*
X303396Y-9616484D02*
X331967Y-9626008D01*
X331967Y-9626008D02*
X351015Y-9645055D01*
X351015Y-9645055D02*
X360539Y-9664103D01*
X360539Y-9664103D02*
X370062Y-9702198D01*
X370062Y-9702198D02*
X370062Y-9730769D01*
X370062Y-9730769D02*
X360539Y-9768865D01*
X360539Y-9768865D02*
X351015Y-9787912D01*
X351015Y-9787912D02*
X331967Y-9806960D01*
X331967Y-9806960D02*
X303396Y-9816484D01*
X303396Y-9816484D02*
X255777Y-9816484D01*
X455777Y-9816484D02*
X455777Y-9683150D01*
X455777Y-9721246D02*
X465301Y-9702198D01*
X465301Y-9702198D02*
X474824Y-9692674D01*
X474824Y-9692674D02*
X493872Y-9683150D01*
X493872Y-9683150D02*
X512920Y-9683150D01*
X579586Y-9816484D02*
X579586Y-9683150D01*
X579586Y-9616484D02*
X570063Y-9626008D01*
X570063Y-9626008D02*
X579586Y-9635531D01*
X579586Y-9635531D02*
X589110Y-9626008D01*
X589110Y-9626008D02*
X579586Y-9616484D01*
X579586Y-9616484D02*
X579586Y-9635531D01*
X703396Y-9816484D02*
X684348Y-9806960D01*
X684348Y-9806960D02*
X674824Y-9787912D01*
X674824Y-9787912D02*
X674824Y-9616484D01*
X808158Y-9816484D02*
X789110Y-9806960D01*
X789110Y-9806960D02*
X779586Y-9787912D01*
X779586Y-9787912D02*
X779586Y-9616484D01*
X1036729Y-9816484D02*
X1036729Y-9616484D01*
X1036729Y-9616484D02*
X1103396Y-9759341D01*
X1103396Y-9759341D02*
X1170063Y-9616484D01*
X1170063Y-9616484D02*
X1170063Y-9816484D01*
X1351015Y-9816484D02*
X1351015Y-9711722D01*
X1351015Y-9711722D02*
X1341491Y-9692674D01*
X1341491Y-9692674D02*
X1322444Y-9683150D01*
X1322444Y-9683150D02*
X1284348Y-9683150D01*
X1284348Y-9683150D02*
X1265301Y-9692674D01*
X1351015Y-9806960D02*
X1331967Y-9816484D01*
X1331967Y-9816484D02*
X1284348Y-9816484D01*
X1284348Y-9816484D02*
X1265301Y-9806960D01*
X1265301Y-9806960D02*
X1255777Y-9787912D01*
X1255777Y-9787912D02*
X1255777Y-9768865D01*
X1255777Y-9768865D02*
X1265301Y-9749817D01*
X1265301Y-9749817D02*
X1284348Y-9740293D01*
X1284348Y-9740293D02*
X1331967Y-9740293D01*
X1331967Y-9740293D02*
X1351015Y-9730769D01*
X1446253Y-9683150D02*
X1446253Y-9883150D01*
X1446253Y-9692674D02*
X1465301Y-9683150D01*
X1465301Y-9683150D02*
X1503396Y-9683150D01*
X1503396Y-9683150D02*
X1522443Y-9692674D01*
X1522443Y-9692674D02*
X1531967Y-9702198D01*
X1531967Y-9702198D02*
X1541491Y-9721246D01*
X1541491Y-9721246D02*
X1541491Y-9778388D01*
X1541491Y-9778388D02*
X1531967Y-9797436D01*
X1531967Y-9797436D02*
X1522443Y-9806960D01*
X1522443Y-9806960D02*
X1503396Y-9816484D01*
X1503396Y-9816484D02*
X1465301Y-9816484D01*
X1465301Y-9816484D02*
X1446253Y-9806960D01*
X1627205Y-9797436D02*
X1636729Y-9806960D01*
X1636729Y-9806960D02*
X1627205Y-9816484D01*
X1627205Y-9816484D02*
X1617682Y-9806960D01*
X1617682Y-9806960D02*
X1627205Y-9797436D01*
X1627205Y-9797436D02*
X1627205Y-9816484D01*
X1627205Y-9692674D02*
X1636729Y-9702198D01*
X1636729Y-9702198D02*
X1627205Y-9711722D01*
X1627205Y-9711722D02*
X1617682Y-9702198D01*
X1617682Y-9702198D02*
X1627205Y-9692674D01*
X1627205Y-9692674D02*
X1627205Y-9711722D01*
D10*
X-70000Y-10112500D02*
X-5000Y-10177500D01*
X-5000Y-10112500D02*
X-70000Y-10177500D01*
D11*
X293872Y-10036484D02*
X312920Y-10036484D01*
X312920Y-10036484D02*
X331967Y-10046008D01*
X331967Y-10046008D02*
X341491Y-10055531D01*
X341491Y-10055531D02*
X351015Y-10074579D01*
X351015Y-10074579D02*
X360539Y-10112674D01*
X360539Y-10112674D02*
X360539Y-10160293D01*
X360539Y-10160293D02*
X351015Y-10198388D01*
X351015Y-10198388D02*
X341491Y-10217436D01*
X341491Y-10217436D02*
X331967Y-10226960D01*
X331967Y-10226960D02*
X312920Y-10236484D01*
X312920Y-10236484D02*
X293872Y-10236484D01*
X293872Y-10236484D02*
X274824Y-10226960D01*
X274824Y-10226960D02*
X265301Y-10217436D01*
X265301Y-10217436D02*
X255777Y-10198388D01*
X255777Y-10198388D02*
X246253Y-10160293D01*
X246253Y-10160293D02*
X246253Y-10112674D01*
X246253Y-10112674D02*
X255777Y-10074579D01*
X255777Y-10074579D02*
X265301Y-10055531D01*
X265301Y-10055531D02*
X274824Y-10046008D01*
X274824Y-10046008D02*
X293872Y-10036484D01*
X446253Y-10217436D02*
X455777Y-10226960D01*
X455777Y-10226960D02*
X446253Y-10236484D01*
X446253Y-10236484D02*
X436729Y-10226960D01*
X436729Y-10226960D02*
X446253Y-10217436D01*
X446253Y-10217436D02*
X446253Y-10236484D01*
X627205Y-10036484D02*
X589110Y-10036484D01*
X589110Y-10036484D02*
X570063Y-10046008D01*
X570063Y-10046008D02*
X560539Y-10055531D01*
X560539Y-10055531D02*
X541491Y-10084103D01*
X541491Y-10084103D02*
X531967Y-10122198D01*
X531967Y-10122198D02*
X531967Y-10198388D01*
X531967Y-10198388D02*
X541491Y-10217436D01*
X541491Y-10217436D02*
X551015Y-10226960D01*
X551015Y-10226960D02*
X570063Y-10236484D01*
X570063Y-10236484D02*
X608158Y-10236484D01*
X608158Y-10236484D02*
X627205Y-10226960D01*
X627205Y-10226960D02*
X636729Y-10217436D01*
X636729Y-10217436D02*
X646253Y-10198388D01*
X646253Y-10198388D02*
X646253Y-10150769D01*
X646253Y-10150769D02*
X636729Y-10131722D01*
X636729Y-10131722D02*
X627205Y-10122198D01*
X627205Y-10122198D02*
X608158Y-10112674D01*
X608158Y-10112674D02*
X570063Y-10112674D01*
X570063Y-10112674D02*
X551015Y-10122198D01*
X551015Y-10122198D02*
X541491Y-10131722D01*
X541491Y-10131722D02*
X531967Y-10150769D01*
X827205Y-10036484D02*
X731967Y-10036484D01*
X731967Y-10036484D02*
X722443Y-10131722D01*
X722443Y-10131722D02*
X731967Y-10122198D01*
X731967Y-10122198D02*
X751015Y-10112674D01*
X751015Y-10112674D02*
X798634Y-10112674D01*
X798634Y-10112674D02*
X817682Y-10122198D01*
X817682Y-10122198D02*
X827205Y-10131722D01*
X827205Y-10131722D02*
X836729Y-10150769D01*
X836729Y-10150769D02*
X836729Y-10198388D01*
X836729Y-10198388D02*
X827205Y-10217436D01*
X827205Y-10217436D02*
X817682Y-10226960D01*
X817682Y-10226960D02*
X798634Y-10236484D01*
X798634Y-10236484D02*
X751015Y-10236484D01*
X751015Y-10236484D02*
X731967Y-10226960D01*
X731967Y-10226960D02*
X722443Y-10217436D01*
X960539Y-10036484D02*
X979586Y-10036484D01*
X979586Y-10036484D02*
X998634Y-10046008D01*
X998634Y-10046008D02*
X1008158Y-10055531D01*
X1008158Y-10055531D02*
X1017682Y-10074579D01*
X1017682Y-10074579D02*
X1027205Y-10112674D01*
X1027205Y-10112674D02*
X1027205Y-10160293D01*
X1027205Y-10160293D02*
X1017682Y-10198388D01*
X1017682Y-10198388D02*
X1008158Y-10217436D01*
X1008158Y-10217436D02*
X998634Y-10226960D01*
X998634Y-10226960D02*
X979586Y-10236484D01*
X979586Y-10236484D02*
X960539Y-10236484D01*
X960539Y-10236484D02*
X941491Y-10226960D01*
X941491Y-10226960D02*
X931967Y-10217436D01*
X931967Y-10217436D02*
X922443Y-10198388D01*
X922443Y-10198388D02*
X912920Y-10160293D01*
X912920Y-10160293D02*
X912920Y-10112674D01*
X912920Y-10112674D02*
X922443Y-10074579D01*
X922443Y-10074579D02*
X931967Y-10055531D01*
X931967Y-10055531D02*
X941491Y-10046008D01*
X941491Y-10046008D02*
X960539Y-10036484D01*
X1112920Y-10236484D02*
X1112920Y-10103150D01*
X1112920Y-10122198D02*
X1122444Y-10112674D01*
X1122444Y-10112674D02*
X1141491Y-10103150D01*
X1141491Y-10103150D02*
X1170063Y-10103150D01*
X1170063Y-10103150D02*
X1189110Y-10112674D01*
X1189110Y-10112674D02*
X1198634Y-10131722D01*
X1198634Y-10131722D02*
X1198634Y-10236484D01*
X1198634Y-10131722D02*
X1208158Y-10112674D01*
X1208158Y-10112674D02*
X1227205Y-10103150D01*
X1227205Y-10103150D02*
X1255777Y-10103150D01*
X1255777Y-10103150D02*
X1274825Y-10112674D01*
X1274825Y-10112674D02*
X1284348Y-10131722D01*
X1284348Y-10131722D02*
X1284348Y-10236484D01*
X1379586Y-10236484D02*
X1379586Y-10103150D01*
X1379586Y-10122198D02*
X1389110Y-10112674D01*
X1389110Y-10112674D02*
X1408158Y-10103150D01*
X1408158Y-10103150D02*
X1436729Y-10103150D01*
X1436729Y-10103150D02*
X1455777Y-10112674D01*
X1455777Y-10112674D02*
X1465301Y-10131722D01*
X1465301Y-10131722D02*
X1465301Y-10236484D01*
X1465301Y-10131722D02*
X1474824Y-10112674D01*
X1474824Y-10112674D02*
X1493872Y-10103150D01*
X1493872Y-10103150D02*
X1522443Y-10103150D01*
X1522443Y-10103150D02*
X1541491Y-10112674D01*
X1541491Y-10112674D02*
X1551015Y-10131722D01*
X1551015Y-10131722D02*
X1551015Y-10236484D01*
X1941491Y-10026960D02*
X1770063Y-10284103D01*
X2198634Y-10036484D02*
X2217682Y-10036484D01*
X2217682Y-10036484D02*
X2236729Y-10046008D01*
X2236729Y-10046008D02*
X2246253Y-10055531D01*
X2246253Y-10055531D02*
X2255777Y-10074579D01*
X2255777Y-10074579D02*
X2265301Y-10112674D01*
X2265301Y-10112674D02*
X2265301Y-10160293D01*
X2265301Y-10160293D02*
X2255777Y-10198388D01*
X2255777Y-10198388D02*
X2246253Y-10217436D01*
X2246253Y-10217436D02*
X2236729Y-10226960D01*
X2236729Y-10226960D02*
X2217682Y-10236484D01*
X2217682Y-10236484D02*
X2198634Y-10236484D01*
X2198634Y-10236484D02*
X2179587Y-10226960D01*
X2179587Y-10226960D02*
X2170063Y-10217436D01*
X2170063Y-10217436D02*
X2160539Y-10198388D01*
X2160539Y-10198388D02*
X2151015Y-10160293D01*
X2151015Y-10160293D02*
X2151015Y-10112674D01*
X2151015Y-10112674D02*
X2160539Y-10074579D01*
X2160539Y-10074579D02*
X2170063Y-10055531D01*
X2170063Y-10055531D02*
X2179587Y-10046008D01*
X2179587Y-10046008D02*
X2198634Y-10036484D01*
X2351015Y-10217436D02*
X2360539Y-10226960D01*
X2360539Y-10226960D02*
X2351015Y-10236484D01*
X2351015Y-10236484D02*
X2341491Y-10226960D01*
X2341491Y-10226960D02*
X2351015Y-10217436D01*
X2351015Y-10217436D02*
X2351015Y-10236484D01*
X2484348Y-10036484D02*
X2503396Y-10036484D01*
X2503396Y-10036484D02*
X2522444Y-10046008D01*
X2522444Y-10046008D02*
X2531968Y-10055531D01*
X2531968Y-10055531D02*
X2541491Y-10074579D01*
X2541491Y-10074579D02*
X2551015Y-10112674D01*
X2551015Y-10112674D02*
X2551015Y-10160293D01*
X2551015Y-10160293D02*
X2541491Y-10198388D01*
X2541491Y-10198388D02*
X2531968Y-10217436D01*
X2531968Y-10217436D02*
X2522444Y-10226960D01*
X2522444Y-10226960D02*
X2503396Y-10236484D01*
X2503396Y-10236484D02*
X2484348Y-10236484D01*
X2484348Y-10236484D02*
X2465301Y-10226960D01*
X2465301Y-10226960D02*
X2455777Y-10217436D01*
X2455777Y-10217436D02*
X2446253Y-10198388D01*
X2446253Y-10198388D02*
X2436729Y-10160293D01*
X2436729Y-10160293D02*
X2436729Y-10112674D01*
X2436729Y-10112674D02*
X2446253Y-10074579D01*
X2446253Y-10074579D02*
X2455777Y-10055531D01*
X2455777Y-10055531D02*
X2465301Y-10046008D01*
X2465301Y-10046008D02*
X2484348Y-10036484D01*
X2627206Y-10055531D02*
X2636729Y-10046008D01*
X2636729Y-10046008D02*
X2655777Y-10036484D01*
X2655777Y-10036484D02*
X2703396Y-10036484D01*
X2703396Y-10036484D02*
X2722444Y-10046008D01*
X2722444Y-10046008D02*
X2731968Y-10055531D01*
X2731968Y-10055531D02*
X2741491Y-10074579D01*
X2741491Y-10074579D02*
X2741491Y-10093627D01*
X2741491Y-10093627D02*
X2731968Y-10122198D01*
X2731968Y-10122198D02*
X2617682Y-10236484D01*
X2617682Y-10236484D02*
X2741491Y-10236484D01*
X2922444Y-10036484D02*
X2827206Y-10036484D01*
X2827206Y-10036484D02*
X2817682Y-10131722D01*
X2817682Y-10131722D02*
X2827206Y-10122198D01*
X2827206Y-10122198D02*
X2846253Y-10112674D01*
X2846253Y-10112674D02*
X2893872Y-10112674D01*
X2893872Y-10112674D02*
X2912920Y-10122198D01*
X2912920Y-10122198D02*
X2922444Y-10131722D01*
X2922444Y-10131722D02*
X2931967Y-10150769D01*
X2931967Y-10150769D02*
X2931967Y-10198388D01*
X2931967Y-10198388D02*
X2922444Y-10217436D01*
X2922444Y-10217436D02*
X2912920Y-10226960D01*
X2912920Y-10226960D02*
X2893872Y-10236484D01*
X2893872Y-10236484D02*
X2846253Y-10236484D01*
X2846253Y-10236484D02*
X2827206Y-10226960D01*
X2827206Y-10226960D02*
X2817682Y-10217436D01*
X3103396Y-10036484D02*
X3065301Y-10036484D01*
X3065301Y-10036484D02*
X3046253Y-10046008D01*
X3046253Y-10046008D02*
X3036729Y-10055531D01*
X3036729Y-10055531D02*
X3017682Y-10084103D01*
X3017682Y-10084103D02*
X3008158Y-10122198D01*
X3008158Y-10122198D02*
X3008158Y-10198388D01*
X3008158Y-10198388D02*
X3017682Y-10217436D01*
X3017682Y-10217436D02*
X3027206Y-10226960D01*
X3027206Y-10226960D02*
X3046253Y-10236484D01*
X3046253Y-10236484D02*
X3084348Y-10236484D01*
X3084348Y-10236484D02*
X3103396Y-10226960D01*
X3103396Y-10226960D02*
X3112920Y-10217436D01*
X3112920Y-10217436D02*
X3122444Y-10198388D01*
X3122444Y-10198388D02*
X3122444Y-10150769D01*
X3122444Y-10150769D02*
X3112920Y-10131722D01*
X3112920Y-10131722D02*
X3103396Y-10122198D01*
X3103396Y-10122198D02*
X3084348Y-10112674D01*
X3084348Y-10112674D02*
X3046253Y-10112674D01*
X3046253Y-10112674D02*
X3027206Y-10122198D01*
X3027206Y-10122198D02*
X3017682Y-10131722D01*
X3017682Y-10131722D02*
X3008158Y-10150769D01*
X3198634Y-10036484D02*
X3198634Y-10074579D01*
X3274825Y-10036484D02*
X3274825Y-10074579D01*
X3570063Y-10312674D02*
X3560539Y-10303150D01*
X3560539Y-10303150D02*
X3541491Y-10274579D01*
X3541491Y-10274579D02*
X3531968Y-10255531D01*
X3531968Y-10255531D02*
X3522444Y-10226960D01*
X3522444Y-10226960D02*
X3512920Y-10179341D01*
X3512920Y-10179341D02*
X3512920Y-10141246D01*
X3512920Y-10141246D02*
X3522444Y-10093627D01*
X3522444Y-10093627D02*
X3531968Y-10065055D01*
X3531968Y-10065055D02*
X3541491Y-10046008D01*
X3541491Y-10046008D02*
X3560539Y-10017436D01*
X3560539Y-10017436D02*
X3570063Y-10007912D01*
X3636729Y-10055531D02*
X3646253Y-10046008D01*
X3646253Y-10046008D02*
X3665301Y-10036484D01*
X3665301Y-10036484D02*
X3712920Y-10036484D01*
X3712920Y-10036484D02*
X3731968Y-10046008D01*
X3731968Y-10046008D02*
X3741491Y-10055531D01*
X3741491Y-10055531D02*
X3751015Y-10074579D01*
X3751015Y-10074579D02*
X3751015Y-10093627D01*
X3751015Y-10093627D02*
X3741491Y-10122198D01*
X3741491Y-10122198D02*
X3627206Y-10236484D01*
X3627206Y-10236484D02*
X3751015Y-10236484D01*
X3989110Y-10236484D02*
X3989110Y-10036484D01*
X4074825Y-10236484D02*
X4074825Y-10131722D01*
X4074825Y-10131722D02*
X4065301Y-10112674D01*
X4065301Y-10112674D02*
X4046253Y-10103150D01*
X4046253Y-10103150D02*
X4017682Y-10103150D01*
X4017682Y-10103150D02*
X3998634Y-10112674D01*
X3998634Y-10112674D02*
X3989110Y-10122198D01*
X4198634Y-10236484D02*
X4179587Y-10226960D01*
X4179587Y-10226960D02*
X4170063Y-10217436D01*
X4170063Y-10217436D02*
X4160539Y-10198388D01*
X4160539Y-10198388D02*
X4160539Y-10141246D01*
X4160539Y-10141246D02*
X4170063Y-10122198D01*
X4170063Y-10122198D02*
X4179587Y-10112674D01*
X4179587Y-10112674D02*
X4198634Y-10103150D01*
X4198634Y-10103150D02*
X4227206Y-10103150D01*
X4227206Y-10103150D02*
X4246253Y-10112674D01*
X4246253Y-10112674D02*
X4255777Y-10122198D01*
X4255777Y-10122198D02*
X4265301Y-10141246D01*
X4265301Y-10141246D02*
X4265301Y-10198388D01*
X4265301Y-10198388D02*
X4255777Y-10217436D01*
X4255777Y-10217436D02*
X4246253Y-10226960D01*
X4246253Y-10226960D02*
X4227206Y-10236484D01*
X4227206Y-10236484D02*
X4198634Y-10236484D01*
X4379587Y-10236484D02*
X4360539Y-10226960D01*
X4360539Y-10226960D02*
X4351015Y-10207912D01*
X4351015Y-10207912D02*
X4351015Y-10036484D01*
X4531968Y-10226960D02*
X4512920Y-10236484D01*
X4512920Y-10236484D02*
X4474825Y-10236484D01*
X4474825Y-10236484D02*
X4455777Y-10226960D01*
X4455777Y-10226960D02*
X4446253Y-10207912D01*
X4446253Y-10207912D02*
X4446253Y-10131722D01*
X4446253Y-10131722D02*
X4455777Y-10112674D01*
X4455777Y-10112674D02*
X4474825Y-10103150D01*
X4474825Y-10103150D02*
X4512920Y-10103150D01*
X4512920Y-10103150D02*
X4531968Y-10112674D01*
X4531968Y-10112674D02*
X4541492Y-10131722D01*
X4541492Y-10131722D02*
X4541492Y-10150769D01*
X4541492Y-10150769D02*
X4446253Y-10169817D01*
X4617682Y-10226960D02*
X4636730Y-10236484D01*
X4636730Y-10236484D02*
X4674825Y-10236484D01*
X4674825Y-10236484D02*
X4693873Y-10226960D01*
X4693873Y-10226960D02*
X4703396Y-10207912D01*
X4703396Y-10207912D02*
X4703396Y-10198388D01*
X4703396Y-10198388D02*
X4693873Y-10179341D01*
X4693873Y-10179341D02*
X4674825Y-10169817D01*
X4674825Y-10169817D02*
X4646253Y-10169817D01*
X4646253Y-10169817D02*
X4627206Y-10160293D01*
X4627206Y-10160293D02*
X4617682Y-10141246D01*
X4617682Y-10141246D02*
X4617682Y-10131722D01*
X4617682Y-10131722D02*
X4627206Y-10112674D01*
X4627206Y-10112674D02*
X4646253Y-10103150D01*
X4646253Y-10103150D02*
X4674825Y-10103150D01*
X4674825Y-10103150D02*
X4693873Y-10112674D01*
X4770063Y-10312674D02*
X4779587Y-10303150D01*
X4779587Y-10303150D02*
X4798634Y-10274579D01*
X4798634Y-10274579D02*
X4808158Y-10255531D01*
X4808158Y-10255531D02*
X4817682Y-10226960D01*
X4817682Y-10226960D02*
X4827206Y-10179341D01*
X4827206Y-10179341D02*
X4827206Y-10141246D01*
X4827206Y-10141246D02*
X4817682Y-10093627D01*
X4817682Y-10093627D02*
X4808158Y-10065055D01*
X4808158Y-10065055D02*
X4798634Y-10046008D01*
X4798634Y-10046008D02*
X4779587Y-10017436D01*
X4779587Y-10017436D02*
X4770063Y-10007912D01*
X5131968Y-10312674D02*
X5122444Y-10303150D01*
X5122444Y-10303150D02*
X5103396Y-10274579D01*
X5103396Y-10274579D02*
X5093873Y-10255531D01*
X5093873Y-10255531D02*
X5084349Y-10226960D01*
X5084349Y-10226960D02*
X5074825Y-10179341D01*
X5074825Y-10179341D02*
X5074825Y-10141246D01*
X5074825Y-10141246D02*
X5084349Y-10093627D01*
X5084349Y-10093627D02*
X5093873Y-10065055D01*
X5093873Y-10065055D02*
X5103396Y-10046008D01*
X5103396Y-10046008D02*
X5122444Y-10017436D01*
X5122444Y-10017436D02*
X5131968Y-10007912D01*
X5208158Y-10103150D02*
X5208158Y-10236484D01*
X5208158Y-10122198D02*
X5217682Y-10112674D01*
X5217682Y-10112674D02*
X5236730Y-10103150D01*
X5236730Y-10103150D02*
X5265301Y-10103150D01*
X5265301Y-10103150D02*
X5284349Y-10112674D01*
X5284349Y-10112674D02*
X5293873Y-10131722D01*
X5293873Y-10131722D02*
X5293873Y-10236484D01*
X5417682Y-10236484D02*
X5398634Y-10226960D01*
X5398634Y-10226960D02*
X5389111Y-10217436D01*
X5389111Y-10217436D02*
X5379587Y-10198388D01*
X5379587Y-10198388D02*
X5379587Y-10141246D01*
X5379587Y-10141246D02*
X5389111Y-10122198D01*
X5389111Y-10122198D02*
X5398634Y-10112674D01*
X5398634Y-10112674D02*
X5417682Y-10103150D01*
X5417682Y-10103150D02*
X5446254Y-10103150D01*
X5446254Y-10103150D02*
X5465301Y-10112674D01*
X5465301Y-10112674D02*
X5474825Y-10122198D01*
X5474825Y-10122198D02*
X5484349Y-10141246D01*
X5484349Y-10141246D02*
X5484349Y-10198388D01*
X5484349Y-10198388D02*
X5474825Y-10217436D01*
X5474825Y-10217436D02*
X5465301Y-10226960D01*
X5465301Y-10226960D02*
X5446254Y-10236484D01*
X5446254Y-10236484D02*
X5417682Y-10236484D01*
X5541492Y-10103150D02*
X5617682Y-10103150D01*
X5570063Y-10036484D02*
X5570063Y-10207912D01*
X5570063Y-10207912D02*
X5579587Y-10226960D01*
X5579587Y-10226960D02*
X5598634Y-10236484D01*
X5598634Y-10236484D02*
X5617682Y-10236484D01*
X5836730Y-10103150D02*
X5836730Y-10303150D01*
X5836730Y-10112674D02*
X5855777Y-10103150D01*
X5855777Y-10103150D02*
X5893873Y-10103150D01*
X5893873Y-10103150D02*
X5912920Y-10112674D01*
X5912920Y-10112674D02*
X5922444Y-10122198D01*
X5922444Y-10122198D02*
X5931968Y-10141246D01*
X5931968Y-10141246D02*
X5931968Y-10198388D01*
X5931968Y-10198388D02*
X5922444Y-10217436D01*
X5922444Y-10217436D02*
X5912920Y-10226960D01*
X5912920Y-10226960D02*
X5893873Y-10236484D01*
X5893873Y-10236484D02*
X5855777Y-10236484D01*
X5855777Y-10236484D02*
X5836730Y-10226960D01*
X6046253Y-10236484D02*
X6027206Y-10226960D01*
X6027206Y-10226960D02*
X6017682Y-10207912D01*
X6017682Y-10207912D02*
X6017682Y-10036484D01*
X6208158Y-10236484D02*
X6208158Y-10131722D01*
X6208158Y-10131722D02*
X6198634Y-10112674D01*
X6198634Y-10112674D02*
X6179587Y-10103150D01*
X6179587Y-10103150D02*
X6141492Y-10103150D01*
X6141492Y-10103150D02*
X6122444Y-10112674D01*
X6208158Y-10226960D02*
X6189111Y-10236484D01*
X6189111Y-10236484D02*
X6141492Y-10236484D01*
X6141492Y-10236484D02*
X6122444Y-10226960D01*
X6122444Y-10226960D02*
X6112920Y-10207912D01*
X6112920Y-10207912D02*
X6112920Y-10188865D01*
X6112920Y-10188865D02*
X6122444Y-10169817D01*
X6122444Y-10169817D02*
X6141492Y-10160293D01*
X6141492Y-10160293D02*
X6189111Y-10160293D01*
X6189111Y-10160293D02*
X6208158Y-10150769D01*
X6274825Y-10103150D02*
X6351015Y-10103150D01*
X6303396Y-10036484D02*
X6303396Y-10207912D01*
X6303396Y-10207912D02*
X6312920Y-10226960D01*
X6312920Y-10226960D02*
X6331968Y-10236484D01*
X6331968Y-10236484D02*
X6351015Y-10236484D01*
X6493873Y-10226960D02*
X6474825Y-10236484D01*
X6474825Y-10236484D02*
X6436730Y-10236484D01*
X6436730Y-10236484D02*
X6417682Y-10226960D01*
X6417682Y-10226960D02*
X6408158Y-10207912D01*
X6408158Y-10207912D02*
X6408158Y-10131722D01*
X6408158Y-10131722D02*
X6417682Y-10112674D01*
X6417682Y-10112674D02*
X6436730Y-10103150D01*
X6436730Y-10103150D02*
X6474825Y-10103150D01*
X6474825Y-10103150D02*
X6493873Y-10112674D01*
X6493873Y-10112674D02*
X6503396Y-10131722D01*
X6503396Y-10131722D02*
X6503396Y-10150769D01*
X6503396Y-10150769D02*
X6408158Y-10169817D01*
X6674825Y-10236484D02*
X6674825Y-10036484D01*
X6674825Y-10226960D02*
X6655777Y-10236484D01*
X6655777Y-10236484D02*
X6617682Y-10236484D01*
X6617682Y-10236484D02*
X6598634Y-10226960D01*
X6598634Y-10226960D02*
X6589111Y-10217436D01*
X6589111Y-10217436D02*
X6579587Y-10198388D01*
X6579587Y-10198388D02*
X6579587Y-10141246D01*
X6579587Y-10141246D02*
X6589111Y-10122198D01*
X6589111Y-10122198D02*
X6598634Y-10112674D01*
X6598634Y-10112674D02*
X6617682Y-10103150D01*
X6617682Y-10103150D02*
X6655777Y-10103150D01*
X6655777Y-10103150D02*
X6674825Y-10112674D01*
X6751015Y-10312674D02*
X6760539Y-10303150D01*
X6760539Y-10303150D02*
X6779587Y-10274579D01*
X6779587Y-10274579D02*
X6789111Y-10255531D01*
X6789111Y-10255531D02*
X6798634Y-10226960D01*
X6798634Y-10226960D02*
X6808158Y-10179341D01*
X6808158Y-10179341D02*
X6808158Y-10141246D01*
X6808158Y-10141246D02*
X6798634Y-10093627D01*
X6798634Y-10093627D02*
X6789111Y-10065055D01*
X6789111Y-10065055D02*
X6779587Y-10046008D01*
X6779587Y-10046008D02*
X6760539Y-10017436D01*
X6760539Y-10017436D02*
X6751015Y-10007912D01*
D12*
X-5000Y-10409000D02*
G75*
G02*
X-180000Y-10409000I-87500J0D01*
G01*
X-180000Y-10409000D02*
G75*
G02*
X-5000Y-10409000I87500J0D01*
G01*
D11*
X360539Y-10500484D02*
X246253Y-10500484D01*
X303396Y-10500484D02*
X303396Y-10300484D01*
X303396Y-10300484D02*
X284348Y-10329055D01*
X284348Y-10329055D02*
X265301Y-10348103D01*
X265301Y-10348103D02*
X246253Y-10357627D01*
X446253Y-10481436D02*
X455777Y-10490960D01*
X455777Y-10490960D02*
X446253Y-10500484D01*
X446253Y-10500484D02*
X436729Y-10490960D01*
X436729Y-10490960D02*
X446253Y-10481436D01*
X446253Y-10481436D02*
X446253Y-10500484D01*
X522443Y-10300484D02*
X655777Y-10300484D01*
X655777Y-10300484D02*
X570063Y-10500484D01*
X827205Y-10300484D02*
X731967Y-10300484D01*
X731967Y-10300484D02*
X722443Y-10395722D01*
X722443Y-10395722D02*
X731967Y-10386198D01*
X731967Y-10386198D02*
X751015Y-10376674D01*
X751015Y-10376674D02*
X798634Y-10376674D01*
X798634Y-10376674D02*
X817682Y-10386198D01*
X817682Y-10386198D02*
X827205Y-10395722D01*
X827205Y-10395722D02*
X836729Y-10414769D01*
X836729Y-10414769D02*
X836729Y-10462388D01*
X836729Y-10462388D02*
X827205Y-10481436D01*
X827205Y-10481436D02*
X817682Y-10490960D01*
X817682Y-10490960D02*
X798634Y-10500484D01*
X798634Y-10500484D02*
X751015Y-10500484D01*
X751015Y-10500484D02*
X731967Y-10490960D01*
X731967Y-10490960D02*
X722443Y-10481436D01*
X960539Y-10300484D02*
X979586Y-10300484D01*
X979586Y-10300484D02*
X998634Y-10310008D01*
X998634Y-10310008D02*
X1008158Y-10319531D01*
X1008158Y-10319531D02*
X1017682Y-10338579D01*
X1017682Y-10338579D02*
X1027205Y-10376674D01*
X1027205Y-10376674D02*
X1027205Y-10424293D01*
X1027205Y-10424293D02*
X1017682Y-10462388D01*
X1017682Y-10462388D02*
X1008158Y-10481436D01*
X1008158Y-10481436D02*
X998634Y-10490960D01*
X998634Y-10490960D02*
X979586Y-10500484D01*
X979586Y-10500484D02*
X960539Y-10500484D01*
X960539Y-10500484D02*
X941491Y-10490960D01*
X941491Y-10490960D02*
X931967Y-10481436D01*
X931967Y-10481436D02*
X922443Y-10462388D01*
X922443Y-10462388D02*
X912920Y-10424293D01*
X912920Y-10424293D02*
X912920Y-10376674D01*
X912920Y-10376674D02*
X922443Y-10338579D01*
X922443Y-10338579D02*
X931967Y-10319531D01*
X931967Y-10319531D02*
X941491Y-10310008D01*
X941491Y-10310008D02*
X960539Y-10300484D01*
X1112920Y-10500484D02*
X1112920Y-10367150D01*
X1112920Y-10386198D02*
X1122444Y-10376674D01*
X1122444Y-10376674D02*
X1141491Y-10367150D01*
X1141491Y-10367150D02*
X1170063Y-10367150D01*
X1170063Y-10367150D02*
X1189110Y-10376674D01*
X1189110Y-10376674D02*
X1198634Y-10395722D01*
X1198634Y-10395722D02*
X1198634Y-10500484D01*
X1198634Y-10395722D02*
X1208158Y-10376674D01*
X1208158Y-10376674D02*
X1227205Y-10367150D01*
X1227205Y-10367150D02*
X1255777Y-10367150D01*
X1255777Y-10367150D02*
X1274825Y-10376674D01*
X1274825Y-10376674D02*
X1284348Y-10395722D01*
X1284348Y-10395722D02*
X1284348Y-10500484D01*
X1379586Y-10500484D02*
X1379586Y-10367150D01*
X1379586Y-10386198D02*
X1389110Y-10376674D01*
X1389110Y-10376674D02*
X1408158Y-10367150D01*
X1408158Y-10367150D02*
X1436729Y-10367150D01*
X1436729Y-10367150D02*
X1455777Y-10376674D01*
X1455777Y-10376674D02*
X1465301Y-10395722D01*
X1465301Y-10395722D02*
X1465301Y-10500484D01*
X1465301Y-10395722D02*
X1474824Y-10376674D01*
X1474824Y-10376674D02*
X1493872Y-10367150D01*
X1493872Y-10367150D02*
X1522443Y-10367150D01*
X1522443Y-10367150D02*
X1541491Y-10376674D01*
X1541491Y-10376674D02*
X1551015Y-10395722D01*
X1551015Y-10395722D02*
X1551015Y-10500484D01*
X1941491Y-10290960D02*
X1770063Y-10548103D01*
X2198634Y-10300484D02*
X2217682Y-10300484D01*
X2217682Y-10300484D02*
X2236729Y-10310008D01*
X2236729Y-10310008D02*
X2246253Y-10319531D01*
X2246253Y-10319531D02*
X2255777Y-10338579D01*
X2255777Y-10338579D02*
X2265301Y-10376674D01*
X2265301Y-10376674D02*
X2265301Y-10424293D01*
X2265301Y-10424293D02*
X2255777Y-10462388D01*
X2255777Y-10462388D02*
X2246253Y-10481436D01*
X2246253Y-10481436D02*
X2236729Y-10490960D01*
X2236729Y-10490960D02*
X2217682Y-10500484D01*
X2217682Y-10500484D02*
X2198634Y-10500484D01*
X2198634Y-10500484D02*
X2179587Y-10490960D01*
X2179587Y-10490960D02*
X2170063Y-10481436D01*
X2170063Y-10481436D02*
X2160539Y-10462388D01*
X2160539Y-10462388D02*
X2151015Y-10424293D01*
X2151015Y-10424293D02*
X2151015Y-10376674D01*
X2151015Y-10376674D02*
X2160539Y-10338579D01*
X2160539Y-10338579D02*
X2170063Y-10319531D01*
X2170063Y-10319531D02*
X2179587Y-10310008D01*
X2179587Y-10310008D02*
X2198634Y-10300484D01*
X2351015Y-10481436D02*
X2360539Y-10490960D01*
X2360539Y-10490960D02*
X2351015Y-10500484D01*
X2351015Y-10500484D02*
X2341491Y-10490960D01*
X2341491Y-10490960D02*
X2351015Y-10481436D01*
X2351015Y-10481436D02*
X2351015Y-10500484D01*
X2484348Y-10300484D02*
X2503396Y-10300484D01*
X2503396Y-10300484D02*
X2522444Y-10310008D01*
X2522444Y-10310008D02*
X2531968Y-10319531D01*
X2531968Y-10319531D02*
X2541491Y-10338579D01*
X2541491Y-10338579D02*
X2551015Y-10376674D01*
X2551015Y-10376674D02*
X2551015Y-10424293D01*
X2551015Y-10424293D02*
X2541491Y-10462388D01*
X2541491Y-10462388D02*
X2531968Y-10481436D01*
X2531968Y-10481436D02*
X2522444Y-10490960D01*
X2522444Y-10490960D02*
X2503396Y-10500484D01*
X2503396Y-10500484D02*
X2484348Y-10500484D01*
X2484348Y-10500484D02*
X2465301Y-10490960D01*
X2465301Y-10490960D02*
X2455777Y-10481436D01*
X2455777Y-10481436D02*
X2446253Y-10462388D01*
X2446253Y-10462388D02*
X2436729Y-10424293D01*
X2436729Y-10424293D02*
X2436729Y-10376674D01*
X2436729Y-10376674D02*
X2446253Y-10338579D01*
X2446253Y-10338579D02*
X2455777Y-10319531D01*
X2455777Y-10319531D02*
X2465301Y-10310008D01*
X2465301Y-10310008D02*
X2484348Y-10300484D01*
X2722444Y-10300484D02*
X2684348Y-10300484D01*
X2684348Y-10300484D02*
X2665301Y-10310008D01*
X2665301Y-10310008D02*
X2655777Y-10319531D01*
X2655777Y-10319531D02*
X2636729Y-10348103D01*
X2636729Y-10348103D02*
X2627206Y-10386198D01*
X2627206Y-10386198D02*
X2627206Y-10462388D01*
X2627206Y-10462388D02*
X2636729Y-10481436D01*
X2636729Y-10481436D02*
X2646253Y-10490960D01*
X2646253Y-10490960D02*
X2665301Y-10500484D01*
X2665301Y-10500484D02*
X2703396Y-10500484D01*
X2703396Y-10500484D02*
X2722444Y-10490960D01*
X2722444Y-10490960D02*
X2731968Y-10481436D01*
X2731968Y-10481436D02*
X2741491Y-10462388D01*
X2741491Y-10462388D02*
X2741491Y-10414769D01*
X2741491Y-10414769D02*
X2731968Y-10395722D01*
X2731968Y-10395722D02*
X2722444Y-10386198D01*
X2722444Y-10386198D02*
X2703396Y-10376674D01*
X2703396Y-10376674D02*
X2665301Y-10376674D01*
X2665301Y-10376674D02*
X2646253Y-10386198D01*
X2646253Y-10386198D02*
X2636729Y-10395722D01*
X2636729Y-10395722D02*
X2627206Y-10414769D01*
X2855777Y-10386198D02*
X2836729Y-10376674D01*
X2836729Y-10376674D02*
X2827206Y-10367150D01*
X2827206Y-10367150D02*
X2817682Y-10348103D01*
X2817682Y-10348103D02*
X2817682Y-10338579D01*
X2817682Y-10338579D02*
X2827206Y-10319531D01*
X2827206Y-10319531D02*
X2836729Y-10310008D01*
X2836729Y-10310008D02*
X2855777Y-10300484D01*
X2855777Y-10300484D02*
X2893872Y-10300484D01*
X2893872Y-10300484D02*
X2912920Y-10310008D01*
X2912920Y-10310008D02*
X2922444Y-10319531D01*
X2922444Y-10319531D02*
X2931967Y-10338579D01*
X2931967Y-10338579D02*
X2931967Y-10348103D01*
X2931967Y-10348103D02*
X2922444Y-10367150D01*
X2922444Y-10367150D02*
X2912920Y-10376674D01*
X2912920Y-10376674D02*
X2893872Y-10386198D01*
X2893872Y-10386198D02*
X2855777Y-10386198D01*
X2855777Y-10386198D02*
X2836729Y-10395722D01*
X2836729Y-10395722D02*
X2827206Y-10405246D01*
X2827206Y-10405246D02*
X2817682Y-10424293D01*
X2817682Y-10424293D02*
X2817682Y-10462388D01*
X2817682Y-10462388D02*
X2827206Y-10481436D01*
X2827206Y-10481436D02*
X2836729Y-10490960D01*
X2836729Y-10490960D02*
X2855777Y-10500484D01*
X2855777Y-10500484D02*
X2893872Y-10500484D01*
X2893872Y-10500484D02*
X2912920Y-10490960D01*
X2912920Y-10490960D02*
X2922444Y-10481436D01*
X2922444Y-10481436D02*
X2931967Y-10462388D01*
X2931967Y-10462388D02*
X2931967Y-10424293D01*
X2931967Y-10424293D02*
X2922444Y-10405246D01*
X2922444Y-10405246D02*
X2912920Y-10395722D01*
X2912920Y-10395722D02*
X2893872Y-10386198D01*
X3027206Y-10500484D02*
X3065301Y-10500484D01*
X3065301Y-10500484D02*
X3084348Y-10490960D01*
X3084348Y-10490960D02*
X3093872Y-10481436D01*
X3093872Y-10481436D02*
X3112920Y-10452865D01*
X3112920Y-10452865D02*
X3122444Y-10414769D01*
X3122444Y-10414769D02*
X3122444Y-10338579D01*
X3122444Y-10338579D02*
X3112920Y-10319531D01*
X3112920Y-10319531D02*
X3103396Y-10310008D01*
X3103396Y-10310008D02*
X3084348Y-10300484D01*
X3084348Y-10300484D02*
X3046253Y-10300484D01*
X3046253Y-10300484D02*
X3027206Y-10310008D01*
X3027206Y-10310008D02*
X3017682Y-10319531D01*
X3017682Y-10319531D02*
X3008158Y-10338579D01*
X3008158Y-10338579D02*
X3008158Y-10386198D01*
X3008158Y-10386198D02*
X3017682Y-10405246D01*
X3017682Y-10405246D02*
X3027206Y-10414769D01*
X3027206Y-10414769D02*
X3046253Y-10424293D01*
X3046253Y-10424293D02*
X3084348Y-10424293D01*
X3084348Y-10424293D02*
X3103396Y-10414769D01*
X3103396Y-10414769D02*
X3112920Y-10405246D01*
X3112920Y-10405246D02*
X3122444Y-10386198D01*
X3198634Y-10300484D02*
X3198634Y-10338579D01*
X3274825Y-10300484D02*
X3274825Y-10338579D01*
X3570063Y-10576674D02*
X3560539Y-10567150D01*
X3560539Y-10567150D02*
X3541491Y-10538579D01*
X3541491Y-10538579D02*
X3531968Y-10519531D01*
X3531968Y-10519531D02*
X3522444Y-10490960D01*
X3522444Y-10490960D02*
X3512920Y-10443341D01*
X3512920Y-10443341D02*
X3512920Y-10405246D01*
X3512920Y-10405246D02*
X3522444Y-10357627D01*
X3522444Y-10357627D02*
X3531968Y-10329055D01*
X3531968Y-10329055D02*
X3541491Y-10310008D01*
X3541491Y-10310008D02*
X3560539Y-10281436D01*
X3560539Y-10281436D02*
X3570063Y-10271912D01*
X3751015Y-10500484D02*
X3636729Y-10500484D01*
X3693872Y-10500484D02*
X3693872Y-10300484D01*
X3693872Y-10300484D02*
X3674825Y-10329055D01*
X3674825Y-10329055D02*
X3655777Y-10348103D01*
X3655777Y-10348103D02*
X3636729Y-10357627D01*
X3827206Y-10319531D02*
X3836729Y-10310008D01*
X3836729Y-10310008D02*
X3855777Y-10300484D01*
X3855777Y-10300484D02*
X3903396Y-10300484D01*
X3903396Y-10300484D02*
X3922444Y-10310008D01*
X3922444Y-10310008D02*
X3931968Y-10319531D01*
X3931968Y-10319531D02*
X3941491Y-10338579D01*
X3941491Y-10338579D02*
X3941491Y-10357627D01*
X3941491Y-10357627D02*
X3931968Y-10386198D01*
X3931968Y-10386198D02*
X3817682Y-10500484D01*
X3817682Y-10500484D02*
X3941491Y-10500484D01*
X4112920Y-10367150D02*
X4112920Y-10500484D01*
X4065301Y-10290960D02*
X4017682Y-10433817D01*
X4017682Y-10433817D02*
X4141491Y-10433817D01*
X4370063Y-10500484D02*
X4370063Y-10300484D01*
X4455777Y-10500484D02*
X4455777Y-10395722D01*
X4455777Y-10395722D02*
X4446253Y-10376674D01*
X4446253Y-10376674D02*
X4427206Y-10367150D01*
X4427206Y-10367150D02*
X4398634Y-10367150D01*
X4398634Y-10367150D02*
X4379587Y-10376674D01*
X4379587Y-10376674D02*
X4370063Y-10386198D01*
X4579587Y-10500484D02*
X4560539Y-10490960D01*
X4560539Y-10490960D02*
X4551015Y-10481436D01*
X4551015Y-10481436D02*
X4541492Y-10462388D01*
X4541492Y-10462388D02*
X4541492Y-10405246D01*
X4541492Y-10405246D02*
X4551015Y-10386198D01*
X4551015Y-10386198D02*
X4560539Y-10376674D01*
X4560539Y-10376674D02*
X4579587Y-10367150D01*
X4579587Y-10367150D02*
X4608158Y-10367150D01*
X4608158Y-10367150D02*
X4627206Y-10376674D01*
X4627206Y-10376674D02*
X4636730Y-10386198D01*
X4636730Y-10386198D02*
X4646253Y-10405246D01*
X4646253Y-10405246D02*
X4646253Y-10462388D01*
X4646253Y-10462388D02*
X4636730Y-10481436D01*
X4636730Y-10481436D02*
X4627206Y-10490960D01*
X4627206Y-10490960D02*
X4608158Y-10500484D01*
X4608158Y-10500484D02*
X4579587Y-10500484D01*
X4760539Y-10500484D02*
X4741492Y-10490960D01*
X4741492Y-10490960D02*
X4731968Y-10471912D01*
X4731968Y-10471912D02*
X4731968Y-10300484D01*
X4912920Y-10490960D02*
X4893873Y-10500484D01*
X4893873Y-10500484D02*
X4855777Y-10500484D01*
X4855777Y-10500484D02*
X4836730Y-10490960D01*
X4836730Y-10490960D02*
X4827206Y-10471912D01*
X4827206Y-10471912D02*
X4827206Y-10395722D01*
X4827206Y-10395722D02*
X4836730Y-10376674D01*
X4836730Y-10376674D02*
X4855777Y-10367150D01*
X4855777Y-10367150D02*
X4893873Y-10367150D01*
X4893873Y-10367150D02*
X4912920Y-10376674D01*
X4912920Y-10376674D02*
X4922444Y-10395722D01*
X4922444Y-10395722D02*
X4922444Y-10414769D01*
X4922444Y-10414769D02*
X4827206Y-10433817D01*
X4998634Y-10490960D02*
X5017682Y-10500484D01*
X5017682Y-10500484D02*
X5055777Y-10500484D01*
X5055777Y-10500484D02*
X5074825Y-10490960D01*
X5074825Y-10490960D02*
X5084349Y-10471912D01*
X5084349Y-10471912D02*
X5084349Y-10462388D01*
X5084349Y-10462388D02*
X5074825Y-10443341D01*
X5074825Y-10443341D02*
X5055777Y-10433817D01*
X5055777Y-10433817D02*
X5027206Y-10433817D01*
X5027206Y-10433817D02*
X5008158Y-10424293D01*
X5008158Y-10424293D02*
X4998634Y-10405246D01*
X4998634Y-10405246D02*
X4998634Y-10395722D01*
X4998634Y-10395722D02*
X5008158Y-10376674D01*
X5008158Y-10376674D02*
X5027206Y-10367150D01*
X5027206Y-10367150D02*
X5055777Y-10367150D01*
X5055777Y-10367150D02*
X5074825Y-10376674D01*
X5151015Y-10576674D02*
X5160539Y-10567150D01*
X5160539Y-10567150D02*
X5179587Y-10538579D01*
X5179587Y-10538579D02*
X5189111Y-10519531D01*
X5189111Y-10519531D02*
X5198634Y-10490960D01*
X5198634Y-10490960D02*
X5208158Y-10443341D01*
X5208158Y-10443341D02*
X5208158Y-10405246D01*
X5208158Y-10405246D02*
X5198634Y-10357627D01*
X5198634Y-10357627D02*
X5189111Y-10329055D01*
X5189111Y-10329055D02*
X5179587Y-10310008D01*
X5179587Y-10310008D02*
X5160539Y-10281436D01*
X5160539Y-10281436D02*
X5151015Y-10271912D01*
X5512920Y-10576674D02*
X5503396Y-10567150D01*
X5503396Y-10567150D02*
X5484349Y-10538579D01*
X5484349Y-10538579D02*
X5474825Y-10519531D01*
X5474825Y-10519531D02*
X5465301Y-10490960D01*
X5465301Y-10490960D02*
X5455777Y-10443341D01*
X5455777Y-10443341D02*
X5455777Y-10405246D01*
X5455777Y-10405246D02*
X5465301Y-10357627D01*
X5465301Y-10357627D02*
X5474825Y-10329055D01*
X5474825Y-10329055D02*
X5484349Y-10310008D01*
X5484349Y-10310008D02*
X5503396Y-10281436D01*
X5503396Y-10281436D02*
X5512920Y-10271912D01*
X5589111Y-10367150D02*
X5589111Y-10500484D01*
X5589111Y-10386198D02*
X5598634Y-10376674D01*
X5598634Y-10376674D02*
X5617682Y-10367150D01*
X5617682Y-10367150D02*
X5646253Y-10367150D01*
X5646253Y-10367150D02*
X5665301Y-10376674D01*
X5665301Y-10376674D02*
X5674825Y-10395722D01*
X5674825Y-10395722D02*
X5674825Y-10500484D01*
X5798634Y-10500484D02*
X5779587Y-10490960D01*
X5779587Y-10490960D02*
X5770063Y-10481436D01*
X5770063Y-10481436D02*
X5760539Y-10462388D01*
X5760539Y-10462388D02*
X5760539Y-10405246D01*
X5760539Y-10405246D02*
X5770063Y-10386198D01*
X5770063Y-10386198D02*
X5779587Y-10376674D01*
X5779587Y-10376674D02*
X5798634Y-10367150D01*
X5798634Y-10367150D02*
X5827206Y-10367150D01*
X5827206Y-10367150D02*
X5846253Y-10376674D01*
X5846253Y-10376674D02*
X5855777Y-10386198D01*
X5855777Y-10386198D02*
X5865301Y-10405246D01*
X5865301Y-10405246D02*
X5865301Y-10462388D01*
X5865301Y-10462388D02*
X5855777Y-10481436D01*
X5855777Y-10481436D02*
X5846253Y-10490960D01*
X5846253Y-10490960D02*
X5827206Y-10500484D01*
X5827206Y-10500484D02*
X5798634Y-10500484D01*
X5922444Y-10367150D02*
X5998634Y-10367150D01*
X5951015Y-10300484D02*
X5951015Y-10471912D01*
X5951015Y-10471912D02*
X5960539Y-10490960D01*
X5960539Y-10490960D02*
X5979587Y-10500484D01*
X5979587Y-10500484D02*
X5998634Y-10500484D01*
X6217682Y-10367150D02*
X6217682Y-10567150D01*
X6217682Y-10376674D02*
X6236730Y-10367150D01*
X6236730Y-10367150D02*
X6274825Y-10367150D01*
X6274825Y-10367150D02*
X6293873Y-10376674D01*
X6293873Y-10376674D02*
X6303396Y-10386198D01*
X6303396Y-10386198D02*
X6312920Y-10405246D01*
X6312920Y-10405246D02*
X6312920Y-10462388D01*
X6312920Y-10462388D02*
X6303396Y-10481436D01*
X6303396Y-10481436D02*
X6293873Y-10490960D01*
X6293873Y-10490960D02*
X6274825Y-10500484D01*
X6274825Y-10500484D02*
X6236730Y-10500484D01*
X6236730Y-10500484D02*
X6217682Y-10490960D01*
X6427206Y-10500484D02*
X6408158Y-10490960D01*
X6408158Y-10490960D02*
X6398634Y-10471912D01*
X6398634Y-10471912D02*
X6398634Y-10300484D01*
X6589111Y-10500484D02*
X6589111Y-10395722D01*
X6589111Y-10395722D02*
X6579587Y-10376674D01*
X6579587Y-10376674D02*
X6560539Y-10367150D01*
X6560539Y-10367150D02*
X6522444Y-10367150D01*
X6522444Y-10367150D02*
X6503396Y-10376674D01*
X6589111Y-10490960D02*
X6570063Y-10500484D01*
X6570063Y-10500484D02*
X6522444Y-10500484D01*
X6522444Y-10500484D02*
X6503396Y-10490960D01*
X6503396Y-10490960D02*
X6493873Y-10471912D01*
X6493873Y-10471912D02*
X6493873Y-10452865D01*
X6493873Y-10452865D02*
X6503396Y-10433817D01*
X6503396Y-10433817D02*
X6522444Y-10424293D01*
X6522444Y-10424293D02*
X6570063Y-10424293D01*
X6570063Y-10424293D02*
X6589111Y-10414769D01*
X6655777Y-10367150D02*
X6731968Y-10367150D01*
X6684349Y-10300484D02*
X6684349Y-10471912D01*
X6684349Y-10471912D02*
X6693873Y-10490960D01*
X6693873Y-10490960D02*
X6712920Y-10500484D01*
X6712920Y-10500484D02*
X6731968Y-10500484D01*
X6874825Y-10490960D02*
X6855777Y-10500484D01*
X6855777Y-10500484D02*
X6817682Y-10500484D01*
X6817682Y-10500484D02*
X6798634Y-10490960D01*
X6798634Y-10490960D02*
X6789111Y-10471912D01*
X6789111Y-10471912D02*
X6789111Y-10395722D01*
X6789111Y-10395722D02*
X6798634Y-10376674D01*
X6798634Y-10376674D02*
X6817682Y-10367150D01*
X6817682Y-10367150D02*
X6855777Y-10367150D01*
X6855777Y-10367150D02*
X6874825Y-10376674D01*
X6874825Y-10376674D02*
X6884349Y-10395722D01*
X6884349Y-10395722D02*
X6884349Y-10414769D01*
X6884349Y-10414769D02*
X6789111Y-10433817D01*
X7055777Y-10500484D02*
X7055777Y-10300484D01*
X7055777Y-10490960D02*
X7036730Y-10500484D01*
X7036730Y-10500484D02*
X6998634Y-10500484D01*
X6998634Y-10500484D02*
X6979587Y-10490960D01*
X6979587Y-10490960D02*
X6970063Y-10481436D01*
X6970063Y-10481436D02*
X6960539Y-10462388D01*
X6960539Y-10462388D02*
X6960539Y-10405246D01*
X6960539Y-10405246D02*
X6970063Y-10386198D01*
X6970063Y-10386198D02*
X6979587Y-10376674D01*
X6979587Y-10376674D02*
X6998634Y-10367150D01*
X6998634Y-10367150D02*
X7036730Y-10367150D01*
X7036730Y-10367150D02*
X7055777Y-10376674D01*
X7131968Y-10576674D02*
X7141492Y-10567150D01*
X7141492Y-10567150D02*
X7160539Y-10538579D01*
X7160539Y-10538579D02*
X7170063Y-10519531D01*
X7170063Y-10519531D02*
X7179587Y-10490960D01*
X7179587Y-10490960D02*
X7189111Y-10443341D01*
X7189111Y-10443341D02*
X7189111Y-10405246D01*
X7189111Y-10405246D02*
X7179587Y-10357627D01*
X7179587Y-10357627D02*
X7170063Y-10329055D01*
X7170063Y-10329055D02*
X7160539Y-10310008D01*
X7160539Y-10310008D02*
X7141492Y-10281436D01*
X7141492Y-10281436D02*
X7131968Y-10271912D01*
X-105000Y-10604000D02*
X-105000Y-10804000D01*
X-205000Y-10704000D02*
X-5000Y-10704000D01*
X236729Y-10595484D02*
X360539Y-10595484D01*
X360539Y-10595484D02*
X293872Y-10671674D01*
X293872Y-10671674D02*
X322444Y-10671674D01*
X322444Y-10671674D02*
X341491Y-10681198D01*
X341491Y-10681198D02*
X351015Y-10690722D01*
X351015Y-10690722D02*
X360539Y-10709769D01*
X360539Y-10709769D02*
X360539Y-10757388D01*
X360539Y-10757388D02*
X351015Y-10776436D01*
X351015Y-10776436D02*
X341491Y-10785960D01*
X341491Y-10785960D02*
X322444Y-10795484D01*
X322444Y-10795484D02*
X265301Y-10795484D01*
X265301Y-10795484D02*
X246253Y-10785960D01*
X246253Y-10785960D02*
X236729Y-10776436D01*
X446253Y-10776436D02*
X455777Y-10785960D01*
X455777Y-10785960D02*
X446253Y-10795484D01*
X446253Y-10795484D02*
X436729Y-10785960D01*
X436729Y-10785960D02*
X446253Y-10776436D01*
X446253Y-10776436D02*
X446253Y-10795484D01*
X579586Y-10595484D02*
X598634Y-10595484D01*
X598634Y-10595484D02*
X617682Y-10605008D01*
X617682Y-10605008D02*
X627205Y-10614531D01*
X627205Y-10614531D02*
X636729Y-10633579D01*
X636729Y-10633579D02*
X646253Y-10671674D01*
X646253Y-10671674D02*
X646253Y-10719293D01*
X646253Y-10719293D02*
X636729Y-10757388D01*
X636729Y-10757388D02*
X627205Y-10776436D01*
X627205Y-10776436D02*
X617682Y-10785960D01*
X617682Y-10785960D02*
X598634Y-10795484D01*
X598634Y-10795484D02*
X579586Y-10795484D01*
X579586Y-10795484D02*
X560539Y-10785960D01*
X560539Y-10785960D02*
X551015Y-10776436D01*
X551015Y-10776436D02*
X541491Y-10757388D01*
X541491Y-10757388D02*
X531967Y-10719293D01*
X531967Y-10719293D02*
X531967Y-10671674D01*
X531967Y-10671674D02*
X541491Y-10633579D01*
X541491Y-10633579D02*
X551015Y-10614531D01*
X551015Y-10614531D02*
X560539Y-10605008D01*
X560539Y-10605008D02*
X579586Y-10595484D01*
X817682Y-10662150D02*
X817682Y-10795484D01*
X770062Y-10585960D02*
X722443Y-10728817D01*
X722443Y-10728817D02*
X846253Y-10728817D01*
X951015Y-10681198D02*
X931967Y-10671674D01*
X931967Y-10671674D02*
X922443Y-10662150D01*
X922443Y-10662150D02*
X912920Y-10643103D01*
X912920Y-10643103D02*
X912920Y-10633579D01*
X912920Y-10633579D02*
X922443Y-10614531D01*
X922443Y-10614531D02*
X931967Y-10605008D01*
X931967Y-10605008D02*
X951015Y-10595484D01*
X951015Y-10595484D02*
X989110Y-10595484D01*
X989110Y-10595484D02*
X1008158Y-10605008D01*
X1008158Y-10605008D02*
X1017682Y-10614531D01*
X1017682Y-10614531D02*
X1027205Y-10633579D01*
X1027205Y-10633579D02*
X1027205Y-10643103D01*
X1027205Y-10643103D02*
X1017682Y-10662150D01*
X1017682Y-10662150D02*
X1008158Y-10671674D01*
X1008158Y-10671674D02*
X989110Y-10681198D01*
X989110Y-10681198D02*
X951015Y-10681198D01*
X951015Y-10681198D02*
X931967Y-10690722D01*
X931967Y-10690722D02*
X922443Y-10700246D01*
X922443Y-10700246D02*
X912920Y-10719293D01*
X912920Y-10719293D02*
X912920Y-10757388D01*
X912920Y-10757388D02*
X922443Y-10776436D01*
X922443Y-10776436D02*
X931967Y-10785960D01*
X931967Y-10785960D02*
X951015Y-10795484D01*
X951015Y-10795484D02*
X989110Y-10795484D01*
X989110Y-10795484D02*
X1008158Y-10785960D01*
X1008158Y-10785960D02*
X1017682Y-10776436D01*
X1017682Y-10776436D02*
X1027205Y-10757388D01*
X1027205Y-10757388D02*
X1027205Y-10719293D01*
X1027205Y-10719293D02*
X1017682Y-10700246D01*
X1017682Y-10700246D02*
X1008158Y-10690722D01*
X1008158Y-10690722D02*
X989110Y-10681198D01*
X1112920Y-10795484D02*
X1112920Y-10662150D01*
X1112920Y-10681198D02*
X1122444Y-10671674D01*
X1122444Y-10671674D02*
X1141491Y-10662150D01*
X1141491Y-10662150D02*
X1170063Y-10662150D01*
X1170063Y-10662150D02*
X1189110Y-10671674D01*
X1189110Y-10671674D02*
X1198634Y-10690722D01*
X1198634Y-10690722D02*
X1198634Y-10795484D01*
X1198634Y-10690722D02*
X1208158Y-10671674D01*
X1208158Y-10671674D02*
X1227205Y-10662150D01*
X1227205Y-10662150D02*
X1255777Y-10662150D01*
X1255777Y-10662150D02*
X1274825Y-10671674D01*
X1274825Y-10671674D02*
X1284348Y-10690722D01*
X1284348Y-10690722D02*
X1284348Y-10795484D01*
X1379586Y-10795484D02*
X1379586Y-10662150D01*
X1379586Y-10681198D02*
X1389110Y-10671674D01*
X1389110Y-10671674D02*
X1408158Y-10662150D01*
X1408158Y-10662150D02*
X1436729Y-10662150D01*
X1436729Y-10662150D02*
X1455777Y-10671674D01*
X1455777Y-10671674D02*
X1465301Y-10690722D01*
X1465301Y-10690722D02*
X1465301Y-10795484D01*
X1465301Y-10690722D02*
X1474824Y-10671674D01*
X1474824Y-10671674D02*
X1493872Y-10662150D01*
X1493872Y-10662150D02*
X1522443Y-10662150D01*
X1522443Y-10662150D02*
X1541491Y-10671674D01*
X1541491Y-10671674D02*
X1551015Y-10690722D01*
X1551015Y-10690722D02*
X1551015Y-10795484D01*
X1941491Y-10585960D02*
X1770063Y-10843103D01*
X2198634Y-10595484D02*
X2217682Y-10595484D01*
X2217682Y-10595484D02*
X2236729Y-10605008D01*
X2236729Y-10605008D02*
X2246253Y-10614531D01*
X2246253Y-10614531D02*
X2255777Y-10633579D01*
X2255777Y-10633579D02*
X2265301Y-10671674D01*
X2265301Y-10671674D02*
X2265301Y-10719293D01*
X2265301Y-10719293D02*
X2255777Y-10757388D01*
X2255777Y-10757388D02*
X2246253Y-10776436D01*
X2246253Y-10776436D02*
X2236729Y-10785960D01*
X2236729Y-10785960D02*
X2217682Y-10795484D01*
X2217682Y-10795484D02*
X2198634Y-10795484D01*
X2198634Y-10795484D02*
X2179587Y-10785960D01*
X2179587Y-10785960D02*
X2170063Y-10776436D01*
X2170063Y-10776436D02*
X2160539Y-10757388D01*
X2160539Y-10757388D02*
X2151015Y-10719293D01*
X2151015Y-10719293D02*
X2151015Y-10671674D01*
X2151015Y-10671674D02*
X2160539Y-10633579D01*
X2160539Y-10633579D02*
X2170063Y-10614531D01*
X2170063Y-10614531D02*
X2179587Y-10605008D01*
X2179587Y-10605008D02*
X2198634Y-10595484D01*
X2351015Y-10776436D02*
X2360539Y-10785960D01*
X2360539Y-10785960D02*
X2351015Y-10795484D01*
X2351015Y-10795484D02*
X2341491Y-10785960D01*
X2341491Y-10785960D02*
X2351015Y-10776436D01*
X2351015Y-10776436D02*
X2351015Y-10795484D01*
X2551015Y-10795484D02*
X2436729Y-10795484D01*
X2493872Y-10795484D02*
X2493872Y-10595484D01*
X2493872Y-10595484D02*
X2474825Y-10624055D01*
X2474825Y-10624055D02*
X2455777Y-10643103D01*
X2455777Y-10643103D02*
X2436729Y-10652627D01*
X2627206Y-10614531D02*
X2636729Y-10605008D01*
X2636729Y-10605008D02*
X2655777Y-10595484D01*
X2655777Y-10595484D02*
X2703396Y-10595484D01*
X2703396Y-10595484D02*
X2722444Y-10605008D01*
X2722444Y-10605008D02*
X2731968Y-10614531D01*
X2731968Y-10614531D02*
X2741491Y-10633579D01*
X2741491Y-10633579D02*
X2741491Y-10652627D01*
X2741491Y-10652627D02*
X2731968Y-10681198D01*
X2731968Y-10681198D02*
X2617682Y-10795484D01*
X2617682Y-10795484D02*
X2741491Y-10795484D01*
X2865301Y-10595484D02*
X2884348Y-10595484D01*
X2884348Y-10595484D02*
X2903396Y-10605008D01*
X2903396Y-10605008D02*
X2912920Y-10614531D01*
X2912920Y-10614531D02*
X2922444Y-10633579D01*
X2922444Y-10633579D02*
X2931967Y-10671674D01*
X2931967Y-10671674D02*
X2931967Y-10719293D01*
X2931967Y-10719293D02*
X2922444Y-10757388D01*
X2922444Y-10757388D02*
X2912920Y-10776436D01*
X2912920Y-10776436D02*
X2903396Y-10785960D01*
X2903396Y-10785960D02*
X2884348Y-10795484D01*
X2884348Y-10795484D02*
X2865301Y-10795484D01*
X2865301Y-10795484D02*
X2846253Y-10785960D01*
X2846253Y-10785960D02*
X2836729Y-10776436D01*
X2836729Y-10776436D02*
X2827206Y-10757388D01*
X2827206Y-10757388D02*
X2817682Y-10719293D01*
X2817682Y-10719293D02*
X2817682Y-10671674D01*
X2817682Y-10671674D02*
X2827206Y-10633579D01*
X2827206Y-10633579D02*
X2836729Y-10614531D01*
X2836729Y-10614531D02*
X2846253Y-10605008D01*
X2846253Y-10605008D02*
X2865301Y-10595484D01*
X3055777Y-10595484D02*
X3074825Y-10595484D01*
X3074825Y-10595484D02*
X3093872Y-10605008D01*
X3093872Y-10605008D02*
X3103396Y-10614531D01*
X3103396Y-10614531D02*
X3112920Y-10633579D01*
X3112920Y-10633579D02*
X3122444Y-10671674D01*
X3122444Y-10671674D02*
X3122444Y-10719293D01*
X3122444Y-10719293D02*
X3112920Y-10757388D01*
X3112920Y-10757388D02*
X3103396Y-10776436D01*
X3103396Y-10776436D02*
X3093872Y-10785960D01*
X3093872Y-10785960D02*
X3074825Y-10795484D01*
X3074825Y-10795484D02*
X3055777Y-10795484D01*
X3055777Y-10795484D02*
X3036729Y-10785960D01*
X3036729Y-10785960D02*
X3027206Y-10776436D01*
X3027206Y-10776436D02*
X3017682Y-10757388D01*
X3017682Y-10757388D02*
X3008158Y-10719293D01*
X3008158Y-10719293D02*
X3008158Y-10671674D01*
X3008158Y-10671674D02*
X3017682Y-10633579D01*
X3017682Y-10633579D02*
X3027206Y-10614531D01*
X3027206Y-10614531D02*
X3036729Y-10605008D01*
X3036729Y-10605008D02*
X3055777Y-10595484D01*
X3198634Y-10595484D02*
X3198634Y-10633579D01*
X3274825Y-10595484D02*
X3274825Y-10633579D01*
X3570063Y-10871674D02*
X3560539Y-10862150D01*
X3560539Y-10862150D02*
X3541491Y-10833579D01*
X3541491Y-10833579D02*
X3531968Y-10814531D01*
X3531968Y-10814531D02*
X3522444Y-10785960D01*
X3522444Y-10785960D02*
X3512920Y-10738341D01*
X3512920Y-10738341D02*
X3512920Y-10700246D01*
X3512920Y-10700246D02*
X3522444Y-10652627D01*
X3522444Y-10652627D02*
X3531968Y-10624055D01*
X3531968Y-10624055D02*
X3541491Y-10605008D01*
X3541491Y-10605008D02*
X3560539Y-10576436D01*
X3560539Y-10576436D02*
X3570063Y-10566912D01*
X3674825Y-10681198D02*
X3655777Y-10671674D01*
X3655777Y-10671674D02*
X3646253Y-10662150D01*
X3646253Y-10662150D02*
X3636729Y-10643103D01*
X3636729Y-10643103D02*
X3636729Y-10633579D01*
X3636729Y-10633579D02*
X3646253Y-10614531D01*
X3646253Y-10614531D02*
X3655777Y-10605008D01*
X3655777Y-10605008D02*
X3674825Y-10595484D01*
X3674825Y-10595484D02*
X3712920Y-10595484D01*
X3712920Y-10595484D02*
X3731968Y-10605008D01*
X3731968Y-10605008D02*
X3741491Y-10614531D01*
X3741491Y-10614531D02*
X3751015Y-10633579D01*
X3751015Y-10633579D02*
X3751015Y-10643103D01*
X3751015Y-10643103D02*
X3741491Y-10662150D01*
X3741491Y-10662150D02*
X3731968Y-10671674D01*
X3731968Y-10671674D02*
X3712920Y-10681198D01*
X3712920Y-10681198D02*
X3674825Y-10681198D01*
X3674825Y-10681198D02*
X3655777Y-10690722D01*
X3655777Y-10690722D02*
X3646253Y-10700246D01*
X3646253Y-10700246D02*
X3636729Y-10719293D01*
X3636729Y-10719293D02*
X3636729Y-10757388D01*
X3636729Y-10757388D02*
X3646253Y-10776436D01*
X3646253Y-10776436D02*
X3655777Y-10785960D01*
X3655777Y-10785960D02*
X3674825Y-10795484D01*
X3674825Y-10795484D02*
X3712920Y-10795484D01*
X3712920Y-10795484D02*
X3731968Y-10785960D01*
X3731968Y-10785960D02*
X3741491Y-10776436D01*
X3741491Y-10776436D02*
X3751015Y-10757388D01*
X3751015Y-10757388D02*
X3751015Y-10719293D01*
X3751015Y-10719293D02*
X3741491Y-10700246D01*
X3741491Y-10700246D02*
X3731968Y-10690722D01*
X3731968Y-10690722D02*
X3712920Y-10681198D01*
X3989110Y-10795484D02*
X3989110Y-10595484D01*
X4074825Y-10795484D02*
X4074825Y-10690722D01*
X4074825Y-10690722D02*
X4065301Y-10671674D01*
X4065301Y-10671674D02*
X4046253Y-10662150D01*
X4046253Y-10662150D02*
X4017682Y-10662150D01*
X4017682Y-10662150D02*
X3998634Y-10671674D01*
X3998634Y-10671674D02*
X3989110Y-10681198D01*
X4198634Y-10795484D02*
X4179587Y-10785960D01*
X4179587Y-10785960D02*
X4170063Y-10776436D01*
X4170063Y-10776436D02*
X4160539Y-10757388D01*
X4160539Y-10757388D02*
X4160539Y-10700246D01*
X4160539Y-10700246D02*
X4170063Y-10681198D01*
X4170063Y-10681198D02*
X4179587Y-10671674D01*
X4179587Y-10671674D02*
X4198634Y-10662150D01*
X4198634Y-10662150D02*
X4227206Y-10662150D01*
X4227206Y-10662150D02*
X4246253Y-10671674D01*
X4246253Y-10671674D02*
X4255777Y-10681198D01*
X4255777Y-10681198D02*
X4265301Y-10700246D01*
X4265301Y-10700246D02*
X4265301Y-10757388D01*
X4265301Y-10757388D02*
X4255777Y-10776436D01*
X4255777Y-10776436D02*
X4246253Y-10785960D01*
X4246253Y-10785960D02*
X4227206Y-10795484D01*
X4227206Y-10795484D02*
X4198634Y-10795484D01*
X4379587Y-10795484D02*
X4360539Y-10785960D01*
X4360539Y-10785960D02*
X4351015Y-10766912D01*
X4351015Y-10766912D02*
X4351015Y-10595484D01*
X4531968Y-10785960D02*
X4512920Y-10795484D01*
X4512920Y-10795484D02*
X4474825Y-10795484D01*
X4474825Y-10795484D02*
X4455777Y-10785960D01*
X4455777Y-10785960D02*
X4446253Y-10766912D01*
X4446253Y-10766912D02*
X4446253Y-10690722D01*
X4446253Y-10690722D02*
X4455777Y-10671674D01*
X4455777Y-10671674D02*
X4474825Y-10662150D01*
X4474825Y-10662150D02*
X4512920Y-10662150D01*
X4512920Y-10662150D02*
X4531968Y-10671674D01*
X4531968Y-10671674D02*
X4541492Y-10690722D01*
X4541492Y-10690722D02*
X4541492Y-10709769D01*
X4541492Y-10709769D02*
X4446253Y-10728817D01*
X4617682Y-10785960D02*
X4636730Y-10795484D01*
X4636730Y-10795484D02*
X4674825Y-10795484D01*
X4674825Y-10795484D02*
X4693873Y-10785960D01*
X4693873Y-10785960D02*
X4703396Y-10766912D01*
X4703396Y-10766912D02*
X4703396Y-10757388D01*
X4703396Y-10757388D02*
X4693873Y-10738341D01*
X4693873Y-10738341D02*
X4674825Y-10728817D01*
X4674825Y-10728817D02*
X4646253Y-10728817D01*
X4646253Y-10728817D02*
X4627206Y-10719293D01*
X4627206Y-10719293D02*
X4617682Y-10700246D01*
X4617682Y-10700246D02*
X4617682Y-10690722D01*
X4617682Y-10690722D02*
X4627206Y-10671674D01*
X4627206Y-10671674D02*
X4646253Y-10662150D01*
X4646253Y-10662150D02*
X4674825Y-10662150D01*
X4674825Y-10662150D02*
X4693873Y-10671674D01*
X4770063Y-10871674D02*
X4779587Y-10862150D01*
X4779587Y-10862150D02*
X4798634Y-10833579D01*
X4798634Y-10833579D02*
X4808158Y-10814531D01*
X4808158Y-10814531D02*
X4817682Y-10785960D01*
X4817682Y-10785960D02*
X4827206Y-10738341D01*
X4827206Y-10738341D02*
X4827206Y-10700246D01*
X4827206Y-10700246D02*
X4817682Y-10652627D01*
X4817682Y-10652627D02*
X4808158Y-10624055D01*
X4808158Y-10624055D02*
X4798634Y-10605008D01*
X4798634Y-10605008D02*
X4779587Y-10576436D01*
X4779587Y-10576436D02*
X4770063Y-10566912D01*
X5131968Y-10871674D02*
X5122444Y-10862150D01*
X5122444Y-10862150D02*
X5103396Y-10833579D01*
X5103396Y-10833579D02*
X5093873Y-10814531D01*
X5093873Y-10814531D02*
X5084349Y-10785960D01*
X5084349Y-10785960D02*
X5074825Y-10738341D01*
X5074825Y-10738341D02*
X5074825Y-10700246D01*
X5074825Y-10700246D02*
X5084349Y-10652627D01*
X5084349Y-10652627D02*
X5093873Y-10624055D01*
X5093873Y-10624055D02*
X5103396Y-10605008D01*
X5103396Y-10605008D02*
X5122444Y-10576436D01*
X5122444Y-10576436D02*
X5131968Y-10566912D01*
X5208158Y-10662150D02*
X5208158Y-10795484D01*
X5208158Y-10681198D02*
X5217682Y-10671674D01*
X5217682Y-10671674D02*
X5236730Y-10662150D01*
X5236730Y-10662150D02*
X5265301Y-10662150D01*
X5265301Y-10662150D02*
X5284349Y-10671674D01*
X5284349Y-10671674D02*
X5293873Y-10690722D01*
X5293873Y-10690722D02*
X5293873Y-10795484D01*
X5417682Y-10795484D02*
X5398634Y-10785960D01*
X5398634Y-10785960D02*
X5389111Y-10776436D01*
X5389111Y-10776436D02*
X5379587Y-10757388D01*
X5379587Y-10757388D02*
X5379587Y-10700246D01*
X5379587Y-10700246D02*
X5389111Y-10681198D01*
X5389111Y-10681198D02*
X5398634Y-10671674D01*
X5398634Y-10671674D02*
X5417682Y-10662150D01*
X5417682Y-10662150D02*
X5446254Y-10662150D01*
X5446254Y-10662150D02*
X5465301Y-10671674D01*
X5465301Y-10671674D02*
X5474825Y-10681198D01*
X5474825Y-10681198D02*
X5484349Y-10700246D01*
X5484349Y-10700246D02*
X5484349Y-10757388D01*
X5484349Y-10757388D02*
X5474825Y-10776436D01*
X5474825Y-10776436D02*
X5465301Y-10785960D01*
X5465301Y-10785960D02*
X5446254Y-10795484D01*
X5446254Y-10795484D02*
X5417682Y-10795484D01*
X5541492Y-10662150D02*
X5617682Y-10662150D01*
X5570063Y-10595484D02*
X5570063Y-10766912D01*
X5570063Y-10766912D02*
X5579587Y-10785960D01*
X5579587Y-10785960D02*
X5598634Y-10795484D01*
X5598634Y-10795484D02*
X5617682Y-10795484D01*
X5836730Y-10662150D02*
X5836730Y-10862150D01*
X5836730Y-10671674D02*
X5855777Y-10662150D01*
X5855777Y-10662150D02*
X5893873Y-10662150D01*
X5893873Y-10662150D02*
X5912920Y-10671674D01*
X5912920Y-10671674D02*
X5922444Y-10681198D01*
X5922444Y-10681198D02*
X5931968Y-10700246D01*
X5931968Y-10700246D02*
X5931968Y-10757388D01*
X5931968Y-10757388D02*
X5922444Y-10776436D01*
X5922444Y-10776436D02*
X5912920Y-10785960D01*
X5912920Y-10785960D02*
X5893873Y-10795484D01*
X5893873Y-10795484D02*
X5855777Y-10795484D01*
X5855777Y-10795484D02*
X5836730Y-10785960D01*
X6046253Y-10795484D02*
X6027206Y-10785960D01*
X6027206Y-10785960D02*
X6017682Y-10766912D01*
X6017682Y-10766912D02*
X6017682Y-10595484D01*
X6208158Y-10795484D02*
X6208158Y-10690722D01*
X6208158Y-10690722D02*
X6198634Y-10671674D01*
X6198634Y-10671674D02*
X6179587Y-10662150D01*
X6179587Y-10662150D02*
X6141492Y-10662150D01*
X6141492Y-10662150D02*
X6122444Y-10671674D01*
X6208158Y-10785960D02*
X6189111Y-10795484D01*
X6189111Y-10795484D02*
X6141492Y-10795484D01*
X6141492Y-10795484D02*
X6122444Y-10785960D01*
X6122444Y-10785960D02*
X6112920Y-10766912D01*
X6112920Y-10766912D02*
X6112920Y-10747865D01*
X6112920Y-10747865D02*
X6122444Y-10728817D01*
X6122444Y-10728817D02*
X6141492Y-10719293D01*
X6141492Y-10719293D02*
X6189111Y-10719293D01*
X6189111Y-10719293D02*
X6208158Y-10709769D01*
X6274825Y-10662150D02*
X6351015Y-10662150D01*
X6303396Y-10595484D02*
X6303396Y-10766912D01*
X6303396Y-10766912D02*
X6312920Y-10785960D01*
X6312920Y-10785960D02*
X6331968Y-10795484D01*
X6331968Y-10795484D02*
X6351015Y-10795484D01*
X6493873Y-10785960D02*
X6474825Y-10795484D01*
X6474825Y-10795484D02*
X6436730Y-10795484D01*
X6436730Y-10795484D02*
X6417682Y-10785960D01*
X6417682Y-10785960D02*
X6408158Y-10766912D01*
X6408158Y-10766912D02*
X6408158Y-10690722D01*
X6408158Y-10690722D02*
X6417682Y-10671674D01*
X6417682Y-10671674D02*
X6436730Y-10662150D01*
X6436730Y-10662150D02*
X6474825Y-10662150D01*
X6474825Y-10662150D02*
X6493873Y-10671674D01*
X6493873Y-10671674D02*
X6503396Y-10690722D01*
X6503396Y-10690722D02*
X6503396Y-10709769D01*
X6503396Y-10709769D02*
X6408158Y-10728817D01*
X6674825Y-10795484D02*
X6674825Y-10595484D01*
X6674825Y-10785960D02*
X6655777Y-10795484D01*
X6655777Y-10795484D02*
X6617682Y-10795484D01*
X6617682Y-10795484D02*
X6598634Y-10785960D01*
X6598634Y-10785960D02*
X6589111Y-10776436D01*
X6589111Y-10776436D02*
X6579587Y-10757388D01*
X6579587Y-10757388D02*
X6579587Y-10700246D01*
X6579587Y-10700246D02*
X6589111Y-10681198D01*
X6589111Y-10681198D02*
X6598634Y-10671674D01*
X6598634Y-10671674D02*
X6617682Y-10662150D01*
X6617682Y-10662150D02*
X6655777Y-10662150D01*
X6655777Y-10662150D02*
X6674825Y-10671674D01*
X6751015Y-10871674D02*
X6760539Y-10862150D01*
X6760539Y-10862150D02*
X6779587Y-10833579D01*
X6779587Y-10833579D02*
X6789111Y-10814531D01*
X6789111Y-10814531D02*
X6798634Y-10785960D01*
X6798634Y-10785960D02*
X6808158Y-10738341D01*
X6808158Y-10738341D02*
X6808158Y-10700246D01*
X6808158Y-10700246D02*
X6798634Y-10652627D01*
X6798634Y-10652627D02*
X6789111Y-10624055D01*
X6789111Y-10624055D02*
X6779587Y-10605008D01*
X6779587Y-10605008D02*
X6760539Y-10576436D01*
X6760539Y-10576436D02*
X6751015Y-10566912D01*
X-34289Y-11094711D02*
X-34289Y-10953289D01*
X-175711Y-10953289D01*
X-175711Y-11094711D01*
X-34289Y-11094711D01*
X236729Y-10915484D02*
X360539Y-10915484D01*
X360539Y-10915484D02*
X293872Y-10991674D01*
X293872Y-10991674D02*
X322444Y-10991674D01*
X322444Y-10991674D02*
X341491Y-11001198D01*
X341491Y-11001198D02*
X351015Y-11010722D01*
X351015Y-11010722D02*
X360539Y-11029769D01*
X360539Y-11029769D02*
X360539Y-11077388D01*
X360539Y-11077388D02*
X351015Y-11096436D01*
X351015Y-11096436D02*
X341491Y-11105960D01*
X341491Y-11105960D02*
X322444Y-11115484D01*
X322444Y-11115484D02*
X265301Y-11115484D01*
X265301Y-11115484D02*
X246253Y-11105960D01*
X246253Y-11105960D02*
X236729Y-11096436D01*
X446253Y-11096436D02*
X455777Y-11105960D01*
X455777Y-11105960D02*
X446253Y-11115484D01*
X446253Y-11115484D02*
X436729Y-11105960D01*
X436729Y-11105960D02*
X446253Y-11096436D01*
X446253Y-11096436D02*
X446253Y-11115484D01*
X551015Y-11115484D02*
X589110Y-11115484D01*
X589110Y-11115484D02*
X608158Y-11105960D01*
X608158Y-11105960D02*
X617682Y-11096436D01*
X617682Y-11096436D02*
X636729Y-11067865D01*
X636729Y-11067865D02*
X646253Y-11029769D01*
X646253Y-11029769D02*
X646253Y-10953579D01*
X646253Y-10953579D02*
X636729Y-10934531D01*
X636729Y-10934531D02*
X627205Y-10925008D01*
X627205Y-10925008D02*
X608158Y-10915484D01*
X608158Y-10915484D02*
X570063Y-10915484D01*
X570063Y-10915484D02*
X551015Y-10925008D01*
X551015Y-10925008D02*
X541491Y-10934531D01*
X541491Y-10934531D02*
X531967Y-10953579D01*
X531967Y-10953579D02*
X531967Y-11001198D01*
X531967Y-11001198D02*
X541491Y-11020246D01*
X541491Y-11020246D02*
X551015Y-11029769D01*
X551015Y-11029769D02*
X570063Y-11039293D01*
X570063Y-11039293D02*
X608158Y-11039293D01*
X608158Y-11039293D02*
X627205Y-11029769D01*
X627205Y-11029769D02*
X636729Y-11020246D01*
X636729Y-11020246D02*
X646253Y-11001198D01*
X760539Y-11001198D02*
X741491Y-10991674D01*
X741491Y-10991674D02*
X731967Y-10982150D01*
X731967Y-10982150D02*
X722443Y-10963103D01*
X722443Y-10963103D02*
X722443Y-10953579D01*
X722443Y-10953579D02*
X731967Y-10934531D01*
X731967Y-10934531D02*
X741491Y-10925008D01*
X741491Y-10925008D02*
X760539Y-10915484D01*
X760539Y-10915484D02*
X798634Y-10915484D01*
X798634Y-10915484D02*
X817682Y-10925008D01*
X817682Y-10925008D02*
X827205Y-10934531D01*
X827205Y-10934531D02*
X836729Y-10953579D01*
X836729Y-10953579D02*
X836729Y-10963103D01*
X836729Y-10963103D02*
X827205Y-10982150D01*
X827205Y-10982150D02*
X817682Y-10991674D01*
X817682Y-10991674D02*
X798634Y-11001198D01*
X798634Y-11001198D02*
X760539Y-11001198D01*
X760539Y-11001198D02*
X741491Y-11010722D01*
X741491Y-11010722D02*
X731967Y-11020246D01*
X731967Y-11020246D02*
X722443Y-11039293D01*
X722443Y-11039293D02*
X722443Y-11077388D01*
X722443Y-11077388D02*
X731967Y-11096436D01*
X731967Y-11096436D02*
X741491Y-11105960D01*
X741491Y-11105960D02*
X760539Y-11115484D01*
X760539Y-11115484D02*
X798634Y-11115484D01*
X798634Y-11115484D02*
X817682Y-11105960D01*
X817682Y-11105960D02*
X827205Y-11096436D01*
X827205Y-11096436D02*
X836729Y-11077388D01*
X836729Y-11077388D02*
X836729Y-11039293D01*
X836729Y-11039293D02*
X827205Y-11020246D01*
X827205Y-11020246D02*
X817682Y-11010722D01*
X817682Y-11010722D02*
X798634Y-11001198D01*
X951015Y-11001198D02*
X931967Y-10991674D01*
X931967Y-10991674D02*
X922443Y-10982150D01*
X922443Y-10982150D02*
X912920Y-10963103D01*
X912920Y-10963103D02*
X912920Y-10953579D01*
X912920Y-10953579D02*
X922443Y-10934531D01*
X922443Y-10934531D02*
X931967Y-10925008D01*
X931967Y-10925008D02*
X951015Y-10915484D01*
X951015Y-10915484D02*
X989110Y-10915484D01*
X989110Y-10915484D02*
X1008158Y-10925008D01*
X1008158Y-10925008D02*
X1017682Y-10934531D01*
X1017682Y-10934531D02*
X1027205Y-10953579D01*
X1027205Y-10953579D02*
X1027205Y-10963103D01*
X1027205Y-10963103D02*
X1017682Y-10982150D01*
X1017682Y-10982150D02*
X1008158Y-10991674D01*
X1008158Y-10991674D02*
X989110Y-11001198D01*
X989110Y-11001198D02*
X951015Y-11001198D01*
X951015Y-11001198D02*
X931967Y-11010722D01*
X931967Y-11010722D02*
X922443Y-11020246D01*
X922443Y-11020246D02*
X912920Y-11039293D01*
X912920Y-11039293D02*
X912920Y-11077388D01*
X912920Y-11077388D02*
X922443Y-11096436D01*
X922443Y-11096436D02*
X931967Y-11105960D01*
X931967Y-11105960D02*
X951015Y-11115484D01*
X951015Y-11115484D02*
X989110Y-11115484D01*
X989110Y-11115484D02*
X1008158Y-11105960D01*
X1008158Y-11105960D02*
X1017682Y-11096436D01*
X1017682Y-11096436D02*
X1027205Y-11077388D01*
X1027205Y-11077388D02*
X1027205Y-11039293D01*
X1027205Y-11039293D02*
X1017682Y-11020246D01*
X1017682Y-11020246D02*
X1008158Y-11010722D01*
X1008158Y-11010722D02*
X989110Y-11001198D01*
X1112920Y-11115484D02*
X1112920Y-10982150D01*
X1112920Y-11001198D02*
X1122444Y-10991674D01*
X1122444Y-10991674D02*
X1141491Y-10982150D01*
X1141491Y-10982150D02*
X1170063Y-10982150D01*
X1170063Y-10982150D02*
X1189110Y-10991674D01*
X1189110Y-10991674D02*
X1198634Y-11010722D01*
X1198634Y-11010722D02*
X1198634Y-11115484D01*
X1198634Y-11010722D02*
X1208158Y-10991674D01*
X1208158Y-10991674D02*
X1227205Y-10982150D01*
X1227205Y-10982150D02*
X1255777Y-10982150D01*
X1255777Y-10982150D02*
X1274825Y-10991674D01*
X1274825Y-10991674D02*
X1284348Y-11010722D01*
X1284348Y-11010722D02*
X1284348Y-11115484D01*
X1379586Y-11115484D02*
X1379586Y-10982150D01*
X1379586Y-11001198D02*
X1389110Y-10991674D01*
X1389110Y-10991674D02*
X1408158Y-10982150D01*
X1408158Y-10982150D02*
X1436729Y-10982150D01*
X1436729Y-10982150D02*
X1455777Y-10991674D01*
X1455777Y-10991674D02*
X1465301Y-11010722D01*
X1465301Y-11010722D02*
X1465301Y-11115484D01*
X1465301Y-11010722D02*
X1474824Y-10991674D01*
X1474824Y-10991674D02*
X1493872Y-10982150D01*
X1493872Y-10982150D02*
X1522443Y-10982150D01*
X1522443Y-10982150D02*
X1541491Y-10991674D01*
X1541491Y-10991674D02*
X1551015Y-11010722D01*
X1551015Y-11010722D02*
X1551015Y-11115484D01*
X1941491Y-10905960D02*
X1770063Y-11163103D01*
X2198634Y-10915484D02*
X2217682Y-10915484D01*
X2217682Y-10915484D02*
X2236729Y-10925008D01*
X2236729Y-10925008D02*
X2246253Y-10934531D01*
X2246253Y-10934531D02*
X2255777Y-10953579D01*
X2255777Y-10953579D02*
X2265301Y-10991674D01*
X2265301Y-10991674D02*
X2265301Y-11039293D01*
X2265301Y-11039293D02*
X2255777Y-11077388D01*
X2255777Y-11077388D02*
X2246253Y-11096436D01*
X2246253Y-11096436D02*
X2236729Y-11105960D01*
X2236729Y-11105960D02*
X2217682Y-11115484D01*
X2217682Y-11115484D02*
X2198634Y-11115484D01*
X2198634Y-11115484D02*
X2179587Y-11105960D01*
X2179587Y-11105960D02*
X2170063Y-11096436D01*
X2170063Y-11096436D02*
X2160539Y-11077388D01*
X2160539Y-11077388D02*
X2151015Y-11039293D01*
X2151015Y-11039293D02*
X2151015Y-10991674D01*
X2151015Y-10991674D02*
X2160539Y-10953579D01*
X2160539Y-10953579D02*
X2170063Y-10934531D01*
X2170063Y-10934531D02*
X2179587Y-10925008D01*
X2179587Y-10925008D02*
X2198634Y-10915484D01*
X2351015Y-11096436D02*
X2360539Y-11105960D01*
X2360539Y-11105960D02*
X2351015Y-11115484D01*
X2351015Y-11115484D02*
X2341491Y-11105960D01*
X2341491Y-11105960D02*
X2351015Y-11096436D01*
X2351015Y-11096436D02*
X2351015Y-11115484D01*
X2551015Y-11115484D02*
X2436729Y-11115484D01*
X2493872Y-11115484D02*
X2493872Y-10915484D01*
X2493872Y-10915484D02*
X2474825Y-10944055D01*
X2474825Y-10944055D02*
X2455777Y-10963103D01*
X2455777Y-10963103D02*
X2436729Y-10972627D01*
X2731968Y-10915484D02*
X2636729Y-10915484D01*
X2636729Y-10915484D02*
X2627206Y-11010722D01*
X2627206Y-11010722D02*
X2636729Y-11001198D01*
X2636729Y-11001198D02*
X2655777Y-10991674D01*
X2655777Y-10991674D02*
X2703396Y-10991674D01*
X2703396Y-10991674D02*
X2722444Y-11001198D01*
X2722444Y-11001198D02*
X2731968Y-11010722D01*
X2731968Y-11010722D02*
X2741491Y-11029769D01*
X2741491Y-11029769D02*
X2741491Y-11077388D01*
X2741491Y-11077388D02*
X2731968Y-11096436D01*
X2731968Y-11096436D02*
X2722444Y-11105960D01*
X2722444Y-11105960D02*
X2703396Y-11115484D01*
X2703396Y-11115484D02*
X2655777Y-11115484D01*
X2655777Y-11115484D02*
X2636729Y-11105960D01*
X2636729Y-11105960D02*
X2627206Y-11096436D01*
X2808158Y-10915484D02*
X2941491Y-10915484D01*
X2941491Y-10915484D02*
X2855777Y-11115484D01*
X3055777Y-10915484D02*
X3074825Y-10915484D01*
X3074825Y-10915484D02*
X3093872Y-10925008D01*
X3093872Y-10925008D02*
X3103396Y-10934531D01*
X3103396Y-10934531D02*
X3112920Y-10953579D01*
X3112920Y-10953579D02*
X3122444Y-10991674D01*
X3122444Y-10991674D02*
X3122444Y-11039293D01*
X3122444Y-11039293D02*
X3112920Y-11077388D01*
X3112920Y-11077388D02*
X3103396Y-11096436D01*
X3103396Y-11096436D02*
X3093872Y-11105960D01*
X3093872Y-11105960D02*
X3074825Y-11115484D01*
X3074825Y-11115484D02*
X3055777Y-11115484D01*
X3055777Y-11115484D02*
X3036729Y-11105960D01*
X3036729Y-11105960D02*
X3027206Y-11096436D01*
X3027206Y-11096436D02*
X3017682Y-11077388D01*
X3017682Y-11077388D02*
X3008158Y-11039293D01*
X3008158Y-11039293D02*
X3008158Y-10991674D01*
X3008158Y-10991674D02*
X3017682Y-10953579D01*
X3017682Y-10953579D02*
X3027206Y-10934531D01*
X3027206Y-10934531D02*
X3036729Y-10925008D01*
X3036729Y-10925008D02*
X3055777Y-10915484D01*
X3198634Y-10915484D02*
X3198634Y-10953579D01*
X3274825Y-10915484D02*
X3274825Y-10953579D01*
X3570063Y-11191674D02*
X3560539Y-11182150D01*
X3560539Y-11182150D02*
X3541491Y-11153579D01*
X3541491Y-11153579D02*
X3531968Y-11134531D01*
X3531968Y-11134531D02*
X3522444Y-11105960D01*
X3522444Y-11105960D02*
X3512920Y-11058341D01*
X3512920Y-11058341D02*
X3512920Y-11020246D01*
X3512920Y-11020246D02*
X3522444Y-10972627D01*
X3522444Y-10972627D02*
X3531968Y-10944055D01*
X3531968Y-10944055D02*
X3541491Y-10925008D01*
X3541491Y-10925008D02*
X3560539Y-10896436D01*
X3560539Y-10896436D02*
X3570063Y-10886912D01*
X3674825Y-11001198D02*
X3655777Y-10991674D01*
X3655777Y-10991674D02*
X3646253Y-10982150D01*
X3646253Y-10982150D02*
X3636729Y-10963103D01*
X3636729Y-10963103D02*
X3636729Y-10953579D01*
X3636729Y-10953579D02*
X3646253Y-10934531D01*
X3646253Y-10934531D02*
X3655777Y-10925008D01*
X3655777Y-10925008D02*
X3674825Y-10915484D01*
X3674825Y-10915484D02*
X3712920Y-10915484D01*
X3712920Y-10915484D02*
X3731968Y-10925008D01*
X3731968Y-10925008D02*
X3741491Y-10934531D01*
X3741491Y-10934531D02*
X3751015Y-10953579D01*
X3751015Y-10953579D02*
X3751015Y-10963103D01*
X3751015Y-10963103D02*
X3741491Y-10982150D01*
X3741491Y-10982150D02*
X3731968Y-10991674D01*
X3731968Y-10991674D02*
X3712920Y-11001198D01*
X3712920Y-11001198D02*
X3674825Y-11001198D01*
X3674825Y-11001198D02*
X3655777Y-11010722D01*
X3655777Y-11010722D02*
X3646253Y-11020246D01*
X3646253Y-11020246D02*
X3636729Y-11039293D01*
X3636729Y-11039293D02*
X3636729Y-11077388D01*
X3636729Y-11077388D02*
X3646253Y-11096436D01*
X3646253Y-11096436D02*
X3655777Y-11105960D01*
X3655777Y-11105960D02*
X3674825Y-11115484D01*
X3674825Y-11115484D02*
X3712920Y-11115484D01*
X3712920Y-11115484D02*
X3731968Y-11105960D01*
X3731968Y-11105960D02*
X3741491Y-11096436D01*
X3741491Y-11096436D02*
X3751015Y-11077388D01*
X3751015Y-11077388D02*
X3751015Y-11039293D01*
X3751015Y-11039293D02*
X3741491Y-11020246D01*
X3741491Y-11020246D02*
X3731968Y-11010722D01*
X3731968Y-11010722D02*
X3712920Y-11001198D01*
X3989110Y-11115484D02*
X3989110Y-10915484D01*
X4074825Y-11115484D02*
X4074825Y-11010722D01*
X4074825Y-11010722D02*
X4065301Y-10991674D01*
X4065301Y-10991674D02*
X4046253Y-10982150D01*
X4046253Y-10982150D02*
X4017682Y-10982150D01*
X4017682Y-10982150D02*
X3998634Y-10991674D01*
X3998634Y-10991674D02*
X3989110Y-11001198D01*
X4198634Y-11115484D02*
X4179587Y-11105960D01*
X4179587Y-11105960D02*
X4170063Y-11096436D01*
X4170063Y-11096436D02*
X4160539Y-11077388D01*
X4160539Y-11077388D02*
X4160539Y-11020246D01*
X4160539Y-11020246D02*
X4170063Y-11001198D01*
X4170063Y-11001198D02*
X4179587Y-10991674D01*
X4179587Y-10991674D02*
X4198634Y-10982150D01*
X4198634Y-10982150D02*
X4227206Y-10982150D01*
X4227206Y-10982150D02*
X4246253Y-10991674D01*
X4246253Y-10991674D02*
X4255777Y-11001198D01*
X4255777Y-11001198D02*
X4265301Y-11020246D01*
X4265301Y-11020246D02*
X4265301Y-11077388D01*
X4265301Y-11077388D02*
X4255777Y-11096436D01*
X4255777Y-11096436D02*
X4246253Y-11105960D01*
X4246253Y-11105960D02*
X4227206Y-11115484D01*
X4227206Y-11115484D02*
X4198634Y-11115484D01*
X4379587Y-11115484D02*
X4360539Y-11105960D01*
X4360539Y-11105960D02*
X4351015Y-11086912D01*
X4351015Y-11086912D02*
X4351015Y-10915484D01*
X4531968Y-11105960D02*
X4512920Y-11115484D01*
X4512920Y-11115484D02*
X4474825Y-11115484D01*
X4474825Y-11115484D02*
X4455777Y-11105960D01*
X4455777Y-11105960D02*
X4446253Y-11086912D01*
X4446253Y-11086912D02*
X4446253Y-11010722D01*
X4446253Y-11010722D02*
X4455777Y-10991674D01*
X4455777Y-10991674D02*
X4474825Y-10982150D01*
X4474825Y-10982150D02*
X4512920Y-10982150D01*
X4512920Y-10982150D02*
X4531968Y-10991674D01*
X4531968Y-10991674D02*
X4541492Y-11010722D01*
X4541492Y-11010722D02*
X4541492Y-11029769D01*
X4541492Y-11029769D02*
X4446253Y-11048817D01*
X4617682Y-11105960D02*
X4636730Y-11115484D01*
X4636730Y-11115484D02*
X4674825Y-11115484D01*
X4674825Y-11115484D02*
X4693873Y-11105960D01*
X4693873Y-11105960D02*
X4703396Y-11086912D01*
X4703396Y-11086912D02*
X4703396Y-11077388D01*
X4703396Y-11077388D02*
X4693873Y-11058341D01*
X4693873Y-11058341D02*
X4674825Y-11048817D01*
X4674825Y-11048817D02*
X4646253Y-11048817D01*
X4646253Y-11048817D02*
X4627206Y-11039293D01*
X4627206Y-11039293D02*
X4617682Y-11020246D01*
X4617682Y-11020246D02*
X4617682Y-11010722D01*
X4617682Y-11010722D02*
X4627206Y-10991674D01*
X4627206Y-10991674D02*
X4646253Y-10982150D01*
X4646253Y-10982150D02*
X4674825Y-10982150D01*
X4674825Y-10982150D02*
X4693873Y-10991674D01*
X4770063Y-11191674D02*
X4779587Y-11182150D01*
X4779587Y-11182150D02*
X4798634Y-11153579D01*
X4798634Y-11153579D02*
X4808158Y-11134531D01*
X4808158Y-11134531D02*
X4817682Y-11105960D01*
X4817682Y-11105960D02*
X4827206Y-11058341D01*
X4827206Y-11058341D02*
X4827206Y-11020246D01*
X4827206Y-11020246D02*
X4817682Y-10972627D01*
X4817682Y-10972627D02*
X4808158Y-10944055D01*
X4808158Y-10944055D02*
X4798634Y-10925008D01*
X4798634Y-10925008D02*
X4779587Y-10896436D01*
X4779587Y-10896436D02*
X4770063Y-10886912D01*
X5131968Y-11191674D02*
X5122444Y-11182150D01*
X5122444Y-11182150D02*
X5103396Y-11153579D01*
X5103396Y-11153579D02*
X5093873Y-11134531D01*
X5093873Y-11134531D02*
X5084349Y-11105960D01*
X5084349Y-11105960D02*
X5074825Y-11058341D01*
X5074825Y-11058341D02*
X5074825Y-11020246D01*
X5074825Y-11020246D02*
X5084349Y-10972627D01*
X5084349Y-10972627D02*
X5093873Y-10944055D01*
X5093873Y-10944055D02*
X5103396Y-10925008D01*
X5103396Y-10925008D02*
X5122444Y-10896436D01*
X5122444Y-10896436D02*
X5131968Y-10886912D01*
X5208158Y-10982150D02*
X5208158Y-11115484D01*
X5208158Y-11001198D02*
X5217682Y-10991674D01*
X5217682Y-10991674D02*
X5236730Y-10982150D01*
X5236730Y-10982150D02*
X5265301Y-10982150D01*
X5265301Y-10982150D02*
X5284349Y-10991674D01*
X5284349Y-10991674D02*
X5293873Y-11010722D01*
X5293873Y-11010722D02*
X5293873Y-11115484D01*
X5417682Y-11115484D02*
X5398634Y-11105960D01*
X5398634Y-11105960D02*
X5389111Y-11096436D01*
X5389111Y-11096436D02*
X5379587Y-11077388D01*
X5379587Y-11077388D02*
X5379587Y-11020246D01*
X5379587Y-11020246D02*
X5389111Y-11001198D01*
X5389111Y-11001198D02*
X5398634Y-10991674D01*
X5398634Y-10991674D02*
X5417682Y-10982150D01*
X5417682Y-10982150D02*
X5446254Y-10982150D01*
X5446254Y-10982150D02*
X5465301Y-10991674D01*
X5465301Y-10991674D02*
X5474825Y-11001198D01*
X5474825Y-11001198D02*
X5484349Y-11020246D01*
X5484349Y-11020246D02*
X5484349Y-11077388D01*
X5484349Y-11077388D02*
X5474825Y-11096436D01*
X5474825Y-11096436D02*
X5465301Y-11105960D01*
X5465301Y-11105960D02*
X5446254Y-11115484D01*
X5446254Y-11115484D02*
X5417682Y-11115484D01*
X5541492Y-10982150D02*
X5617682Y-10982150D01*
X5570063Y-10915484D02*
X5570063Y-11086912D01*
X5570063Y-11086912D02*
X5579587Y-11105960D01*
X5579587Y-11105960D02*
X5598634Y-11115484D01*
X5598634Y-11115484D02*
X5617682Y-11115484D01*
X5836730Y-10982150D02*
X5836730Y-11182150D01*
X5836730Y-10991674D02*
X5855777Y-10982150D01*
X5855777Y-10982150D02*
X5893873Y-10982150D01*
X5893873Y-10982150D02*
X5912920Y-10991674D01*
X5912920Y-10991674D02*
X5922444Y-11001198D01*
X5922444Y-11001198D02*
X5931968Y-11020246D01*
X5931968Y-11020246D02*
X5931968Y-11077388D01*
X5931968Y-11077388D02*
X5922444Y-11096436D01*
X5922444Y-11096436D02*
X5912920Y-11105960D01*
X5912920Y-11105960D02*
X5893873Y-11115484D01*
X5893873Y-11115484D02*
X5855777Y-11115484D01*
X5855777Y-11115484D02*
X5836730Y-11105960D01*
X6046253Y-11115484D02*
X6027206Y-11105960D01*
X6027206Y-11105960D02*
X6017682Y-11086912D01*
X6017682Y-11086912D02*
X6017682Y-10915484D01*
X6208158Y-11115484D02*
X6208158Y-11010722D01*
X6208158Y-11010722D02*
X6198634Y-10991674D01*
X6198634Y-10991674D02*
X6179587Y-10982150D01*
X6179587Y-10982150D02*
X6141492Y-10982150D01*
X6141492Y-10982150D02*
X6122444Y-10991674D01*
X6208158Y-11105960D02*
X6189111Y-11115484D01*
X6189111Y-11115484D02*
X6141492Y-11115484D01*
X6141492Y-11115484D02*
X6122444Y-11105960D01*
X6122444Y-11105960D02*
X6112920Y-11086912D01*
X6112920Y-11086912D02*
X6112920Y-11067865D01*
X6112920Y-11067865D02*
X6122444Y-11048817D01*
X6122444Y-11048817D02*
X6141492Y-11039293D01*
X6141492Y-11039293D02*
X6189111Y-11039293D01*
X6189111Y-11039293D02*
X6208158Y-11029769D01*
X6274825Y-10982150D02*
X6351015Y-10982150D01*
X6303396Y-10915484D02*
X6303396Y-11086912D01*
X6303396Y-11086912D02*
X6312920Y-11105960D01*
X6312920Y-11105960D02*
X6331968Y-11115484D01*
X6331968Y-11115484D02*
X6351015Y-11115484D01*
X6493873Y-11105960D02*
X6474825Y-11115484D01*
X6474825Y-11115484D02*
X6436730Y-11115484D01*
X6436730Y-11115484D02*
X6417682Y-11105960D01*
X6417682Y-11105960D02*
X6408158Y-11086912D01*
X6408158Y-11086912D02*
X6408158Y-11010722D01*
X6408158Y-11010722D02*
X6417682Y-10991674D01*
X6417682Y-10991674D02*
X6436730Y-10982150D01*
X6436730Y-10982150D02*
X6474825Y-10982150D01*
X6474825Y-10982150D02*
X6493873Y-10991674D01*
X6493873Y-10991674D02*
X6503396Y-11010722D01*
X6503396Y-11010722D02*
X6503396Y-11029769D01*
X6503396Y-11029769D02*
X6408158Y-11048817D01*
X6674825Y-11115484D02*
X6674825Y-10915484D01*
X6674825Y-11105960D02*
X6655777Y-11115484D01*
X6655777Y-11115484D02*
X6617682Y-11115484D01*
X6617682Y-11115484D02*
X6598634Y-11105960D01*
X6598634Y-11105960D02*
X6589111Y-11096436D01*
X6589111Y-11096436D02*
X6579587Y-11077388D01*
X6579587Y-11077388D02*
X6579587Y-11020246D01*
X6579587Y-11020246D02*
X6589111Y-11001198D01*
X6589111Y-11001198D02*
X6598634Y-10991674D01*
X6598634Y-10991674D02*
X6617682Y-10982150D01*
X6617682Y-10982150D02*
X6655777Y-10982150D01*
X6655777Y-10982150D02*
X6674825Y-10991674D01*
X6751015Y-11191674D02*
X6760539Y-11182150D01*
X6760539Y-11182150D02*
X6779587Y-11153579D01*
X6779587Y-11153579D02*
X6789111Y-11134531D01*
X6789111Y-11134531D02*
X6798634Y-11105960D01*
X6798634Y-11105960D02*
X6808158Y-11058341D01*
X6808158Y-11058341D02*
X6808158Y-11020246D01*
X6808158Y-11020246D02*
X6798634Y-10972627D01*
X6798634Y-10972627D02*
X6789111Y-10944055D01*
X6789111Y-10944055D02*
X6779587Y-10925008D01*
X6779587Y-10925008D02*
X6760539Y-10896436D01*
X6760539Y-10896436D02*
X6751015Y-10886912D01*
X-105000Y-11444000D02*
X-5000Y-11344000D01*
X-105000Y-11244000D01*
X-205000Y-11344000D01*
X-105000Y-11444000D01*
X341491Y-11302150D02*
X341491Y-11435484D01*
X293872Y-11225960D02*
X246253Y-11368817D01*
X246253Y-11368817D02*
X370062Y-11368817D01*
X446253Y-11416436D02*
X455777Y-11425960D01*
X455777Y-11425960D02*
X446253Y-11435484D01*
X446253Y-11435484D02*
X436729Y-11425960D01*
X436729Y-11425960D02*
X446253Y-11416436D01*
X446253Y-11416436D02*
X446253Y-11435484D01*
X579586Y-11235484D02*
X598634Y-11235484D01*
X598634Y-11235484D02*
X617682Y-11245007D01*
X617682Y-11245007D02*
X627205Y-11254531D01*
X627205Y-11254531D02*
X636729Y-11273579D01*
X636729Y-11273579D02*
X646253Y-11311674D01*
X646253Y-11311674D02*
X646253Y-11359293D01*
X646253Y-11359293D02*
X636729Y-11397388D01*
X636729Y-11397388D02*
X627205Y-11416436D01*
X627205Y-11416436D02*
X617682Y-11425960D01*
X617682Y-11425960D02*
X598634Y-11435484D01*
X598634Y-11435484D02*
X579586Y-11435484D01*
X579586Y-11435484D02*
X560539Y-11425960D01*
X560539Y-11425960D02*
X551015Y-11416436D01*
X551015Y-11416436D02*
X541491Y-11397388D01*
X541491Y-11397388D02*
X531967Y-11359293D01*
X531967Y-11359293D02*
X531967Y-11311674D01*
X531967Y-11311674D02*
X541491Y-11273579D01*
X541491Y-11273579D02*
X551015Y-11254531D01*
X551015Y-11254531D02*
X560539Y-11245007D01*
X560539Y-11245007D02*
X579586Y-11235484D01*
X770062Y-11235484D02*
X789110Y-11235484D01*
X789110Y-11235484D02*
X808158Y-11245007D01*
X808158Y-11245007D02*
X817682Y-11254531D01*
X817682Y-11254531D02*
X827205Y-11273579D01*
X827205Y-11273579D02*
X836729Y-11311674D01*
X836729Y-11311674D02*
X836729Y-11359293D01*
X836729Y-11359293D02*
X827205Y-11397388D01*
X827205Y-11397388D02*
X817682Y-11416436D01*
X817682Y-11416436D02*
X808158Y-11425960D01*
X808158Y-11425960D02*
X789110Y-11435484D01*
X789110Y-11435484D02*
X770062Y-11435484D01*
X770062Y-11435484D02*
X751015Y-11425960D01*
X751015Y-11425960D02*
X741491Y-11416436D01*
X741491Y-11416436D02*
X731967Y-11397388D01*
X731967Y-11397388D02*
X722443Y-11359293D01*
X722443Y-11359293D02*
X722443Y-11311674D01*
X722443Y-11311674D02*
X731967Y-11273579D01*
X731967Y-11273579D02*
X741491Y-11254531D01*
X741491Y-11254531D02*
X751015Y-11245007D01*
X751015Y-11245007D02*
X770062Y-11235484D01*
X960539Y-11235484D02*
X979586Y-11235484D01*
X979586Y-11235484D02*
X998634Y-11245007D01*
X998634Y-11245007D02*
X1008158Y-11254531D01*
X1008158Y-11254531D02*
X1017682Y-11273579D01*
X1017682Y-11273579D02*
X1027205Y-11311674D01*
X1027205Y-11311674D02*
X1027205Y-11359293D01*
X1027205Y-11359293D02*
X1017682Y-11397388D01*
X1017682Y-11397388D02*
X1008158Y-11416436D01*
X1008158Y-11416436D02*
X998634Y-11425960D01*
X998634Y-11425960D02*
X979586Y-11435484D01*
X979586Y-11435484D02*
X960539Y-11435484D01*
X960539Y-11435484D02*
X941491Y-11425960D01*
X941491Y-11425960D02*
X931967Y-11416436D01*
X931967Y-11416436D02*
X922443Y-11397388D01*
X922443Y-11397388D02*
X912920Y-11359293D01*
X912920Y-11359293D02*
X912920Y-11311674D01*
X912920Y-11311674D02*
X922443Y-11273579D01*
X922443Y-11273579D02*
X931967Y-11254531D01*
X931967Y-11254531D02*
X941491Y-11245007D01*
X941491Y-11245007D02*
X960539Y-11235484D01*
X1112920Y-11435484D02*
X1112920Y-11302150D01*
X1112920Y-11321198D02*
X1122444Y-11311674D01*
X1122444Y-11311674D02*
X1141491Y-11302150D01*
X1141491Y-11302150D02*
X1170063Y-11302150D01*
X1170063Y-11302150D02*
X1189110Y-11311674D01*
X1189110Y-11311674D02*
X1198634Y-11330722D01*
X1198634Y-11330722D02*
X1198634Y-11435484D01*
X1198634Y-11330722D02*
X1208158Y-11311674D01*
X1208158Y-11311674D02*
X1227205Y-11302150D01*
X1227205Y-11302150D02*
X1255777Y-11302150D01*
X1255777Y-11302150D02*
X1274825Y-11311674D01*
X1274825Y-11311674D02*
X1284348Y-11330722D01*
X1284348Y-11330722D02*
X1284348Y-11435484D01*
X1379586Y-11435484D02*
X1379586Y-11302150D01*
X1379586Y-11321198D02*
X1389110Y-11311674D01*
X1389110Y-11311674D02*
X1408158Y-11302150D01*
X1408158Y-11302150D02*
X1436729Y-11302150D01*
X1436729Y-11302150D02*
X1455777Y-11311674D01*
X1455777Y-11311674D02*
X1465301Y-11330722D01*
X1465301Y-11330722D02*
X1465301Y-11435484D01*
X1465301Y-11330722D02*
X1474824Y-11311674D01*
X1474824Y-11311674D02*
X1493872Y-11302150D01*
X1493872Y-11302150D02*
X1522443Y-11302150D01*
X1522443Y-11302150D02*
X1541491Y-11311674D01*
X1541491Y-11311674D02*
X1551015Y-11330722D01*
X1551015Y-11330722D02*
X1551015Y-11435484D01*
X1941491Y-11225960D02*
X1770063Y-11483103D01*
X2198634Y-11235484D02*
X2217682Y-11235484D01*
X2217682Y-11235484D02*
X2236729Y-11245007D01*
X2236729Y-11245007D02*
X2246253Y-11254531D01*
X2246253Y-11254531D02*
X2255777Y-11273579D01*
X2255777Y-11273579D02*
X2265301Y-11311674D01*
X2265301Y-11311674D02*
X2265301Y-11359293D01*
X2265301Y-11359293D02*
X2255777Y-11397388D01*
X2255777Y-11397388D02*
X2246253Y-11416436D01*
X2246253Y-11416436D02*
X2236729Y-11425960D01*
X2236729Y-11425960D02*
X2217682Y-11435484D01*
X2217682Y-11435484D02*
X2198634Y-11435484D01*
X2198634Y-11435484D02*
X2179587Y-11425960D01*
X2179587Y-11425960D02*
X2170063Y-11416436D01*
X2170063Y-11416436D02*
X2160539Y-11397388D01*
X2160539Y-11397388D02*
X2151015Y-11359293D01*
X2151015Y-11359293D02*
X2151015Y-11311674D01*
X2151015Y-11311674D02*
X2160539Y-11273579D01*
X2160539Y-11273579D02*
X2170063Y-11254531D01*
X2170063Y-11254531D02*
X2179587Y-11245007D01*
X2179587Y-11245007D02*
X2198634Y-11235484D01*
X2351015Y-11416436D02*
X2360539Y-11425960D01*
X2360539Y-11425960D02*
X2351015Y-11435484D01*
X2351015Y-11435484D02*
X2341491Y-11425960D01*
X2341491Y-11425960D02*
X2351015Y-11416436D01*
X2351015Y-11416436D02*
X2351015Y-11435484D01*
X2551015Y-11435484D02*
X2436729Y-11435484D01*
X2493872Y-11435484D02*
X2493872Y-11235484D01*
X2493872Y-11235484D02*
X2474825Y-11264055D01*
X2474825Y-11264055D02*
X2455777Y-11283103D01*
X2455777Y-11283103D02*
X2436729Y-11292626D01*
X2731968Y-11235484D02*
X2636729Y-11235484D01*
X2636729Y-11235484D02*
X2627206Y-11330722D01*
X2627206Y-11330722D02*
X2636729Y-11321198D01*
X2636729Y-11321198D02*
X2655777Y-11311674D01*
X2655777Y-11311674D02*
X2703396Y-11311674D01*
X2703396Y-11311674D02*
X2722444Y-11321198D01*
X2722444Y-11321198D02*
X2731968Y-11330722D01*
X2731968Y-11330722D02*
X2741491Y-11349769D01*
X2741491Y-11349769D02*
X2741491Y-11397388D01*
X2741491Y-11397388D02*
X2731968Y-11416436D01*
X2731968Y-11416436D02*
X2722444Y-11425960D01*
X2722444Y-11425960D02*
X2703396Y-11435484D01*
X2703396Y-11435484D02*
X2655777Y-11435484D01*
X2655777Y-11435484D02*
X2636729Y-11425960D01*
X2636729Y-11425960D02*
X2627206Y-11416436D01*
X2808158Y-11235484D02*
X2941491Y-11235484D01*
X2941491Y-11235484D02*
X2855777Y-11435484D01*
X3112920Y-11235484D02*
X3017682Y-11235484D01*
X3017682Y-11235484D02*
X3008158Y-11330722D01*
X3008158Y-11330722D02*
X3017682Y-11321198D01*
X3017682Y-11321198D02*
X3036729Y-11311674D01*
X3036729Y-11311674D02*
X3084348Y-11311674D01*
X3084348Y-11311674D02*
X3103396Y-11321198D01*
X3103396Y-11321198D02*
X3112920Y-11330722D01*
X3112920Y-11330722D02*
X3122444Y-11349769D01*
X3122444Y-11349769D02*
X3122444Y-11397388D01*
X3122444Y-11397388D02*
X3112920Y-11416436D01*
X3112920Y-11416436D02*
X3103396Y-11425960D01*
X3103396Y-11425960D02*
X3084348Y-11435484D01*
X3084348Y-11435484D02*
X3036729Y-11435484D01*
X3036729Y-11435484D02*
X3017682Y-11425960D01*
X3017682Y-11425960D02*
X3008158Y-11416436D01*
X3198634Y-11235484D02*
X3198634Y-11273579D01*
X3274825Y-11235484D02*
X3274825Y-11273579D01*
X3570063Y-11511674D02*
X3560539Y-11502150D01*
X3560539Y-11502150D02*
X3541491Y-11473579D01*
X3541491Y-11473579D02*
X3531968Y-11454531D01*
X3531968Y-11454531D02*
X3522444Y-11425960D01*
X3522444Y-11425960D02*
X3512920Y-11378341D01*
X3512920Y-11378341D02*
X3512920Y-11340246D01*
X3512920Y-11340246D02*
X3522444Y-11292626D01*
X3522444Y-11292626D02*
X3531968Y-11264055D01*
X3531968Y-11264055D02*
X3541491Y-11245007D01*
X3541491Y-11245007D02*
X3560539Y-11216436D01*
X3560539Y-11216436D02*
X3570063Y-11206912D01*
X3731968Y-11235484D02*
X3693872Y-11235484D01*
X3693872Y-11235484D02*
X3674825Y-11245007D01*
X3674825Y-11245007D02*
X3665301Y-11254531D01*
X3665301Y-11254531D02*
X3646253Y-11283103D01*
X3646253Y-11283103D02*
X3636729Y-11321198D01*
X3636729Y-11321198D02*
X3636729Y-11397388D01*
X3636729Y-11397388D02*
X3646253Y-11416436D01*
X3646253Y-11416436D02*
X3655777Y-11425960D01*
X3655777Y-11425960D02*
X3674825Y-11435484D01*
X3674825Y-11435484D02*
X3712920Y-11435484D01*
X3712920Y-11435484D02*
X3731968Y-11425960D01*
X3731968Y-11425960D02*
X3741491Y-11416436D01*
X3741491Y-11416436D02*
X3751015Y-11397388D01*
X3751015Y-11397388D02*
X3751015Y-11349769D01*
X3751015Y-11349769D02*
X3741491Y-11330722D01*
X3741491Y-11330722D02*
X3731968Y-11321198D01*
X3731968Y-11321198D02*
X3712920Y-11311674D01*
X3712920Y-11311674D02*
X3674825Y-11311674D01*
X3674825Y-11311674D02*
X3655777Y-11321198D01*
X3655777Y-11321198D02*
X3646253Y-11330722D01*
X3646253Y-11330722D02*
X3636729Y-11349769D01*
X3827206Y-11254531D02*
X3836729Y-11245007D01*
X3836729Y-11245007D02*
X3855777Y-11235484D01*
X3855777Y-11235484D02*
X3903396Y-11235484D01*
X3903396Y-11235484D02*
X3922444Y-11245007D01*
X3922444Y-11245007D02*
X3931968Y-11254531D01*
X3931968Y-11254531D02*
X3941491Y-11273579D01*
X3941491Y-11273579D02*
X3941491Y-11292626D01*
X3941491Y-11292626D02*
X3931968Y-11321198D01*
X3931968Y-11321198D02*
X3817682Y-11435484D01*
X3817682Y-11435484D02*
X3941491Y-11435484D01*
X4179587Y-11435484D02*
X4179587Y-11235484D01*
X4265301Y-11435484D02*
X4265301Y-11330722D01*
X4265301Y-11330722D02*
X4255777Y-11311674D01*
X4255777Y-11311674D02*
X4236730Y-11302150D01*
X4236730Y-11302150D02*
X4208158Y-11302150D01*
X4208158Y-11302150D02*
X4189110Y-11311674D01*
X4189110Y-11311674D02*
X4179587Y-11321198D01*
X4389111Y-11435484D02*
X4370063Y-11425960D01*
X4370063Y-11425960D02*
X4360539Y-11416436D01*
X4360539Y-11416436D02*
X4351015Y-11397388D01*
X4351015Y-11397388D02*
X4351015Y-11340246D01*
X4351015Y-11340246D02*
X4360539Y-11321198D01*
X4360539Y-11321198D02*
X4370063Y-11311674D01*
X4370063Y-11311674D02*
X4389111Y-11302150D01*
X4389111Y-11302150D02*
X4417682Y-11302150D01*
X4417682Y-11302150D02*
X4436730Y-11311674D01*
X4436730Y-11311674D02*
X4446253Y-11321198D01*
X4446253Y-11321198D02*
X4455777Y-11340246D01*
X4455777Y-11340246D02*
X4455777Y-11397388D01*
X4455777Y-11397388D02*
X4446253Y-11416436D01*
X4446253Y-11416436D02*
X4436730Y-11425960D01*
X4436730Y-11425960D02*
X4417682Y-11435484D01*
X4417682Y-11435484D02*
X4389111Y-11435484D01*
X4570063Y-11435484D02*
X4551015Y-11425960D01*
X4551015Y-11425960D02*
X4541492Y-11406912D01*
X4541492Y-11406912D02*
X4541492Y-11235484D01*
X4722444Y-11425960D02*
X4703396Y-11435484D01*
X4703396Y-11435484D02*
X4665301Y-11435484D01*
X4665301Y-11435484D02*
X4646253Y-11425960D01*
X4646253Y-11425960D02*
X4636730Y-11406912D01*
X4636730Y-11406912D02*
X4636730Y-11330722D01*
X4636730Y-11330722D02*
X4646253Y-11311674D01*
X4646253Y-11311674D02*
X4665301Y-11302150D01*
X4665301Y-11302150D02*
X4703396Y-11302150D01*
X4703396Y-11302150D02*
X4722444Y-11311674D01*
X4722444Y-11311674D02*
X4731968Y-11330722D01*
X4731968Y-11330722D02*
X4731968Y-11349769D01*
X4731968Y-11349769D02*
X4636730Y-11368817D01*
X4808158Y-11425960D02*
X4827206Y-11435484D01*
X4827206Y-11435484D02*
X4865301Y-11435484D01*
X4865301Y-11435484D02*
X4884349Y-11425960D01*
X4884349Y-11425960D02*
X4893873Y-11406912D01*
X4893873Y-11406912D02*
X4893873Y-11397388D01*
X4893873Y-11397388D02*
X4884349Y-11378341D01*
X4884349Y-11378341D02*
X4865301Y-11368817D01*
X4865301Y-11368817D02*
X4836730Y-11368817D01*
X4836730Y-11368817D02*
X4817682Y-11359293D01*
X4817682Y-11359293D02*
X4808158Y-11340246D01*
X4808158Y-11340246D02*
X4808158Y-11330722D01*
X4808158Y-11330722D02*
X4817682Y-11311674D01*
X4817682Y-11311674D02*
X4836730Y-11302150D01*
X4836730Y-11302150D02*
X4865301Y-11302150D01*
X4865301Y-11302150D02*
X4884349Y-11311674D01*
X4960539Y-11511674D02*
X4970063Y-11502150D01*
X4970063Y-11502150D02*
X4989111Y-11473579D01*
X4989111Y-11473579D02*
X4998634Y-11454531D01*
X4998634Y-11454531D02*
X5008158Y-11425960D01*
X5008158Y-11425960D02*
X5017682Y-11378341D01*
X5017682Y-11378341D02*
X5017682Y-11340246D01*
X5017682Y-11340246D02*
X5008158Y-11292626D01*
X5008158Y-11292626D02*
X4998634Y-11264055D01*
X4998634Y-11264055D02*
X4989111Y-11245007D01*
X4989111Y-11245007D02*
X4970063Y-11216436D01*
X4970063Y-11216436D02*
X4960539Y-11206912D01*
X5322444Y-11511674D02*
X5312920Y-11502150D01*
X5312920Y-11502150D02*
X5293873Y-11473579D01*
X5293873Y-11473579D02*
X5284349Y-11454531D01*
X5284349Y-11454531D02*
X5274825Y-11425960D01*
X5274825Y-11425960D02*
X5265301Y-11378341D01*
X5265301Y-11378341D02*
X5265301Y-11340246D01*
X5265301Y-11340246D02*
X5274825Y-11292626D01*
X5274825Y-11292626D02*
X5284349Y-11264055D01*
X5284349Y-11264055D02*
X5293873Y-11245007D01*
X5293873Y-11245007D02*
X5312920Y-11216436D01*
X5312920Y-11216436D02*
X5322444Y-11206912D01*
X5398634Y-11302150D02*
X5398634Y-11435484D01*
X5398634Y-11321198D02*
X5408158Y-11311674D01*
X5408158Y-11311674D02*
X5427206Y-11302150D01*
X5427206Y-11302150D02*
X5455777Y-11302150D01*
X5455777Y-11302150D02*
X5474825Y-11311674D01*
X5474825Y-11311674D02*
X5484349Y-11330722D01*
X5484349Y-11330722D02*
X5484349Y-11435484D01*
X5608158Y-11435484D02*
X5589111Y-11425960D01*
X5589111Y-11425960D02*
X5579587Y-11416436D01*
X5579587Y-11416436D02*
X5570063Y-11397388D01*
X5570063Y-11397388D02*
X5570063Y-11340246D01*
X5570063Y-11340246D02*
X5579587Y-11321198D01*
X5579587Y-11321198D02*
X5589111Y-11311674D01*
X5589111Y-11311674D02*
X5608158Y-11302150D01*
X5608158Y-11302150D02*
X5636730Y-11302150D01*
X5636730Y-11302150D02*
X5655777Y-11311674D01*
X5655777Y-11311674D02*
X5665301Y-11321198D01*
X5665301Y-11321198D02*
X5674825Y-11340246D01*
X5674825Y-11340246D02*
X5674825Y-11397388D01*
X5674825Y-11397388D02*
X5665301Y-11416436D01*
X5665301Y-11416436D02*
X5655777Y-11425960D01*
X5655777Y-11425960D02*
X5636730Y-11435484D01*
X5636730Y-11435484D02*
X5608158Y-11435484D01*
X5731968Y-11302150D02*
X5808158Y-11302150D01*
X5760539Y-11235484D02*
X5760539Y-11406912D01*
X5760539Y-11406912D02*
X5770063Y-11425960D01*
X5770063Y-11425960D02*
X5789111Y-11435484D01*
X5789111Y-11435484D02*
X5808158Y-11435484D01*
X6027206Y-11302150D02*
X6027206Y-11502150D01*
X6027206Y-11311674D02*
X6046253Y-11302150D01*
X6046253Y-11302150D02*
X6084349Y-11302150D01*
X6084349Y-11302150D02*
X6103396Y-11311674D01*
X6103396Y-11311674D02*
X6112920Y-11321198D01*
X6112920Y-11321198D02*
X6122444Y-11340246D01*
X6122444Y-11340246D02*
X6122444Y-11397388D01*
X6122444Y-11397388D02*
X6112920Y-11416436D01*
X6112920Y-11416436D02*
X6103396Y-11425960D01*
X6103396Y-11425960D02*
X6084349Y-11435484D01*
X6084349Y-11435484D02*
X6046253Y-11435484D01*
X6046253Y-11435484D02*
X6027206Y-11425960D01*
X6236730Y-11435484D02*
X6217682Y-11425960D01*
X6217682Y-11425960D02*
X6208158Y-11406912D01*
X6208158Y-11406912D02*
X6208158Y-11235484D01*
X6398634Y-11435484D02*
X6398634Y-11330722D01*
X6398634Y-11330722D02*
X6389111Y-11311674D01*
X6389111Y-11311674D02*
X6370063Y-11302150D01*
X6370063Y-11302150D02*
X6331968Y-11302150D01*
X6331968Y-11302150D02*
X6312920Y-11311674D01*
X6398634Y-11425960D02*
X6379587Y-11435484D01*
X6379587Y-11435484D02*
X6331968Y-11435484D01*
X6331968Y-11435484D02*
X6312920Y-11425960D01*
X6312920Y-11425960D02*
X6303396Y-11406912D01*
X6303396Y-11406912D02*
X6303396Y-11387865D01*
X6303396Y-11387865D02*
X6312920Y-11368817D01*
X6312920Y-11368817D02*
X6331968Y-11359293D01*
X6331968Y-11359293D02*
X6379587Y-11359293D01*
X6379587Y-11359293D02*
X6398634Y-11349769D01*
X6465301Y-11302150D02*
X6541492Y-11302150D01*
X6493873Y-11235484D02*
X6493873Y-11406912D01*
X6493873Y-11406912D02*
X6503396Y-11425960D01*
X6503396Y-11425960D02*
X6522444Y-11435484D01*
X6522444Y-11435484D02*
X6541492Y-11435484D01*
X6684349Y-11425960D02*
X6665301Y-11435484D01*
X6665301Y-11435484D02*
X6627206Y-11435484D01*
X6627206Y-11435484D02*
X6608158Y-11425960D01*
X6608158Y-11425960D02*
X6598634Y-11406912D01*
X6598634Y-11406912D02*
X6598634Y-11330722D01*
X6598634Y-11330722D02*
X6608158Y-11311674D01*
X6608158Y-11311674D02*
X6627206Y-11302150D01*
X6627206Y-11302150D02*
X6665301Y-11302150D01*
X6665301Y-11302150D02*
X6684349Y-11311674D01*
X6684349Y-11311674D02*
X6693873Y-11330722D01*
X6693873Y-11330722D02*
X6693873Y-11349769D01*
X6693873Y-11349769D02*
X6598634Y-11368817D01*
X6865301Y-11435484D02*
X6865301Y-11235484D01*
X6865301Y-11425960D02*
X6846254Y-11435484D01*
X6846254Y-11435484D02*
X6808158Y-11435484D01*
X6808158Y-11435484D02*
X6789111Y-11425960D01*
X6789111Y-11425960D02*
X6779587Y-11416436D01*
X6779587Y-11416436D02*
X6770063Y-11397388D01*
X6770063Y-11397388D02*
X6770063Y-11340246D01*
X6770063Y-11340246D02*
X6779587Y-11321198D01*
X6779587Y-11321198D02*
X6789111Y-11311674D01*
X6789111Y-11311674D02*
X6808158Y-11302150D01*
X6808158Y-11302150D02*
X6846254Y-11302150D01*
X6846254Y-11302150D02*
X6865301Y-11311674D01*
X6941492Y-11511674D02*
X6951015Y-11502150D01*
X6951015Y-11502150D02*
X6970063Y-11473579D01*
X6970063Y-11473579D02*
X6979587Y-11454531D01*
X6979587Y-11454531D02*
X6989111Y-11425960D01*
X6989111Y-11425960D02*
X6998634Y-11378341D01*
X6998634Y-11378341D02*
X6998634Y-11340246D01*
X6998634Y-11340246D02*
X6989111Y-11292626D01*
X6989111Y-11292626D02*
X6979587Y-11264055D01*
X6979587Y-11264055D02*
X6970063Y-11245007D01*
X6970063Y-11245007D02*
X6951015Y-11216436D01*
X6951015Y-11216436D02*
X6941492Y-11206912D01*
M02*
