G04 #@! TF.GenerationSoftware,KiCad,Pcbnew,8.0.4*
G04 #@! TF.CreationDate,2024-08-16T15:43:28+02:00*
G04 #@! TF.ProjectId,keyboard,6b657962-6f61-4726-942e-6b696361645f,rev?*
G04 #@! TF.SameCoordinates,Original*
G04 #@! TF.FileFunction,Legend,Bot*
G04 #@! TF.FilePolarity,Positive*
%FSLAX46Y46*%
G04 Gerber Fmt 4.6, Leading zero omitted, Abs format (unit mm)*
G04 Created by KiCad (PCBNEW 8.0.4) date 2024-08-16 15:43:28*
%MOMM*%
%LPD*%
G01*
G04 APERTURE LIST*
G04 Aperture macros list*
%AMRoundRect*
0 Rectangle with rounded corners*
0 $1 Rounding radius*
0 $2 $3 $4 $5 $6 $7 $8 $9 X,Y pos of 4 corners*
0 Add a 4 corners polygon primitive as box body*
4,1,4,$2,$3,$4,$5,$6,$7,$8,$9,$2,$3,0*
0 Add four circle primitives for the rounded corners*
1,1,$1+$1,$2,$3*
1,1,$1+$1,$4,$5*
1,1,$1+$1,$6,$7*
1,1,$1+$1,$8,$9*
0 Add four rect primitives between the rounded corners*
20,1,$1+$1,$2,$3,$4,$5,0*
20,1,$1+$1,$4,$5,$6,$7,0*
20,1,$1+$1,$6,$7,$8,$9,0*
20,1,$1+$1,$8,$9,$2,$3,0*%
G04 Aperture macros list end*
%ADD10C,0.160000*%
%ADD11C,0.120000*%
%ADD12C,0.650000*%
%ADD13R,0.600000X1.100000*%
%ADD14R,0.300000X1.240000*%
%ADD15O,1.000000X2.200000*%
%ADD16O,1.000000X1.800000*%
%ADD17C,3.048000*%
%ADD18C,3.987800*%
%ADD19C,1.750000*%
%ADD20C,4.000000*%
%ADD21C,2.500000*%
%ADD22C,6.500000*%
%ADD23O,8.000000X5.000000*%
%ADD24O,10.000000X5.000000*%
%ADD25C,5.000000*%
%ADD26RoundRect,0.237500X0.250000X0.237500X-0.250000X0.237500X-0.250000X-0.237500X0.250000X-0.237500X0*%
%ADD27RoundRect,0.237500X-0.237500X0.250000X-0.237500X-0.250000X0.237500X-0.250000X0.237500X0.250000X0*%
%ADD28RoundRect,0.237500X-0.300000X-0.237500X0.300000X-0.237500X0.300000X0.237500X-0.300000X0.237500X0*%
%ADD29RoundRect,0.237500X0.237500X-0.300000X0.237500X0.300000X-0.237500X0.300000X-0.237500X-0.300000X0*%
%ADD30RoundRect,0.237500X0.300000X0.237500X-0.300000X0.237500X-0.300000X-0.237500X0.300000X-0.237500X0*%
%ADD31RoundRect,0.237500X0.237500X-0.250000X0.237500X0.250000X-0.237500X0.250000X-0.237500X-0.250000X0*%
%ADD32R,0.750000X1.000000*%
%ADD33R,1.800000X2.100000*%
%ADD34RoundRect,0.250001X0.624999X-0.462499X0.624999X0.462499X-0.624999X0.462499X-0.624999X-0.462499X0*%
%ADD35RoundRect,0.225000X0.375000X-0.225000X0.375000X0.225000X-0.375000X0.225000X-0.375000X-0.225000X0*%
%ADD36RoundRect,0.062500X-0.062500X0.475000X-0.062500X-0.475000X0.062500X-0.475000X0.062500X0.475000X0*%
%ADD37RoundRect,0.062500X-0.475000X0.062500X-0.475000X-0.062500X0.475000X-0.062500X0.475000X0.062500X0*%
%ADD38R,5.200000X5.200000*%
G04 APERTURE END LIST*
D10*
X133416666Y-8745700D02*
X133416666Y-8031415D01*
X133416666Y-8031415D02*
X133369047Y-7888558D01*
X133369047Y-7888558D02*
X133273809Y-7793320D01*
X133273809Y-7793320D02*
X133130952Y-7745700D01*
X133130952Y-7745700D02*
X133035714Y-7745700D01*
X134416666Y-7745700D02*
X133845238Y-7745700D01*
X134130952Y-7745700D02*
X134130952Y-8745700D01*
X134130952Y-8745700D02*
X134035714Y-8602843D01*
X134035714Y-8602843D02*
X133940476Y-8507605D01*
X133940476Y-8507605D02*
X133845238Y-8459986D01*
X154166666Y-90854299D02*
X154499999Y-90378108D01*
X154738094Y-90854299D02*
X154738094Y-89854299D01*
X154738094Y-89854299D02*
X154357142Y-89854299D01*
X154357142Y-89854299D02*
X154261904Y-89901918D01*
X154261904Y-89901918D02*
X154214285Y-89949537D01*
X154214285Y-89949537D02*
X154166666Y-90044775D01*
X154166666Y-90044775D02*
X154166666Y-90187632D01*
X154166666Y-90187632D02*
X154214285Y-90282870D01*
X154214285Y-90282870D02*
X154261904Y-90330489D01*
X154261904Y-90330489D02*
X154357142Y-90378108D01*
X154357142Y-90378108D02*
X154738094Y-90378108D01*
X153261904Y-89854299D02*
X153738094Y-89854299D01*
X153738094Y-89854299D02*
X153785713Y-90330489D01*
X153785713Y-90330489D02*
X153738094Y-90282870D01*
X153738094Y-90282870D02*
X153642856Y-90235251D01*
X153642856Y-90235251D02*
X153404761Y-90235251D01*
X153404761Y-90235251D02*
X153309523Y-90282870D01*
X153309523Y-90282870D02*
X153261904Y-90330489D01*
X153261904Y-90330489D02*
X153214285Y-90425727D01*
X153214285Y-90425727D02*
X153214285Y-90663822D01*
X153214285Y-90663822D02*
X153261904Y-90759060D01*
X153261904Y-90759060D02*
X153309523Y-90806680D01*
X153309523Y-90806680D02*
X153404761Y-90854299D01*
X153404761Y-90854299D02*
X153642856Y-90854299D01*
X153642856Y-90854299D02*
X153738094Y-90806680D01*
X153738094Y-90806680D02*
X153785713Y-90759060D01*
X158266666Y-73754299D02*
X158599999Y-73278108D01*
X158838094Y-73754299D02*
X158838094Y-72754299D01*
X158838094Y-72754299D02*
X158457142Y-72754299D01*
X158457142Y-72754299D02*
X158361904Y-72801918D01*
X158361904Y-72801918D02*
X158314285Y-72849537D01*
X158314285Y-72849537D02*
X158266666Y-72944775D01*
X158266666Y-72944775D02*
X158266666Y-73087632D01*
X158266666Y-73087632D02*
X158314285Y-73182870D01*
X158314285Y-73182870D02*
X158361904Y-73230489D01*
X158361904Y-73230489D02*
X158457142Y-73278108D01*
X158457142Y-73278108D02*
X158838094Y-73278108D01*
X157314285Y-73754299D02*
X157885713Y-73754299D01*
X157599999Y-73754299D02*
X157599999Y-72754299D01*
X157599999Y-72754299D02*
X157695237Y-72897156D01*
X157695237Y-72897156D02*
X157790475Y-72992394D01*
X157790475Y-72992394D02*
X157885713Y-73040013D01*
X161866666Y-92289060D02*
X161914285Y-92336680D01*
X161914285Y-92336680D02*
X162057142Y-92384299D01*
X162057142Y-92384299D02*
X162152380Y-92384299D01*
X162152380Y-92384299D02*
X162295237Y-92336680D01*
X162295237Y-92336680D02*
X162390475Y-92241441D01*
X162390475Y-92241441D02*
X162438094Y-92146203D01*
X162438094Y-92146203D02*
X162485713Y-91955727D01*
X162485713Y-91955727D02*
X162485713Y-91812870D01*
X162485713Y-91812870D02*
X162438094Y-91622394D01*
X162438094Y-91622394D02*
X162390475Y-91527156D01*
X162390475Y-91527156D02*
X162295237Y-91431918D01*
X162295237Y-91431918D02*
X162152380Y-91384299D01*
X162152380Y-91384299D02*
X162057142Y-91384299D01*
X162057142Y-91384299D02*
X161914285Y-91431918D01*
X161914285Y-91431918D02*
X161866666Y-91479537D01*
X160961904Y-91384299D02*
X161438094Y-91384299D01*
X161438094Y-91384299D02*
X161485713Y-91860489D01*
X161485713Y-91860489D02*
X161438094Y-91812870D01*
X161438094Y-91812870D02*
X161342856Y-91765251D01*
X161342856Y-91765251D02*
X161104761Y-91765251D01*
X161104761Y-91765251D02*
X161009523Y-91812870D01*
X161009523Y-91812870D02*
X160961904Y-91860489D01*
X160961904Y-91860489D02*
X160914285Y-91955727D01*
X160914285Y-91955727D02*
X160914285Y-92193822D01*
X160914285Y-92193822D02*
X160961904Y-92289060D01*
X160961904Y-92289060D02*
X161009523Y-92336680D01*
X161009523Y-92336680D02*
X161104761Y-92384299D01*
X161104761Y-92384299D02*
X161342856Y-92384299D01*
X161342856Y-92384299D02*
X161438094Y-92336680D01*
X161438094Y-92336680D02*
X161485713Y-92289060D01*
X169866666Y-78159060D02*
X169914285Y-78206680D01*
X169914285Y-78206680D02*
X170057142Y-78254299D01*
X170057142Y-78254299D02*
X170152380Y-78254299D01*
X170152380Y-78254299D02*
X170295237Y-78206680D01*
X170295237Y-78206680D02*
X170390475Y-78111441D01*
X170390475Y-78111441D02*
X170438094Y-78016203D01*
X170438094Y-78016203D02*
X170485713Y-77825727D01*
X170485713Y-77825727D02*
X170485713Y-77682870D01*
X170485713Y-77682870D02*
X170438094Y-77492394D01*
X170438094Y-77492394D02*
X170390475Y-77397156D01*
X170390475Y-77397156D02*
X170295237Y-77301918D01*
X170295237Y-77301918D02*
X170152380Y-77254299D01*
X170152380Y-77254299D02*
X170057142Y-77254299D01*
X170057142Y-77254299D02*
X169914285Y-77301918D01*
X169914285Y-77301918D02*
X169866666Y-77349537D01*
X169533332Y-77254299D02*
X168866666Y-77254299D01*
X168866666Y-77254299D02*
X169295237Y-78254299D01*
X152666666Y-85359060D02*
X152714285Y-85406680D01*
X152714285Y-85406680D02*
X152857142Y-85454299D01*
X152857142Y-85454299D02*
X152952380Y-85454299D01*
X152952380Y-85454299D02*
X153095237Y-85406680D01*
X153095237Y-85406680D02*
X153190475Y-85311441D01*
X153190475Y-85311441D02*
X153238094Y-85216203D01*
X153238094Y-85216203D02*
X153285713Y-85025727D01*
X153285713Y-85025727D02*
X153285713Y-84882870D01*
X153285713Y-84882870D02*
X153238094Y-84692394D01*
X153238094Y-84692394D02*
X153190475Y-84597156D01*
X153190475Y-84597156D02*
X153095237Y-84501918D01*
X153095237Y-84501918D02*
X152952380Y-84454299D01*
X152952380Y-84454299D02*
X152857142Y-84454299D01*
X152857142Y-84454299D02*
X152714285Y-84501918D01*
X152714285Y-84501918D02*
X152666666Y-84549537D01*
X151809523Y-84787632D02*
X151809523Y-85454299D01*
X152047618Y-84406680D02*
X152285713Y-85120965D01*
X152285713Y-85120965D02*
X151666666Y-85120965D01*
X156266666Y-73754299D02*
X156599999Y-73278108D01*
X156838094Y-73754299D02*
X156838094Y-72754299D01*
X156838094Y-72754299D02*
X156457142Y-72754299D01*
X156457142Y-72754299D02*
X156361904Y-72801918D01*
X156361904Y-72801918D02*
X156314285Y-72849537D01*
X156314285Y-72849537D02*
X156266666Y-72944775D01*
X156266666Y-72944775D02*
X156266666Y-73087632D01*
X156266666Y-73087632D02*
X156314285Y-73182870D01*
X156314285Y-73182870D02*
X156361904Y-73230489D01*
X156361904Y-73230489D02*
X156457142Y-73278108D01*
X156457142Y-73278108D02*
X156838094Y-73278108D01*
X155885713Y-72849537D02*
X155838094Y-72801918D01*
X155838094Y-72801918D02*
X155742856Y-72754299D01*
X155742856Y-72754299D02*
X155504761Y-72754299D01*
X155504761Y-72754299D02*
X155409523Y-72801918D01*
X155409523Y-72801918D02*
X155361904Y-72849537D01*
X155361904Y-72849537D02*
X155314285Y-72944775D01*
X155314285Y-72944775D02*
X155314285Y-73040013D01*
X155314285Y-73040013D02*
X155361904Y-73182870D01*
X155361904Y-73182870D02*
X155933332Y-73754299D01*
X155933332Y-73754299D02*
X155314285Y-73754299D01*
X129874299Y-9833333D02*
X129398108Y-9500000D01*
X129874299Y-9261905D02*
X128874299Y-9261905D01*
X128874299Y-9261905D02*
X128874299Y-9642857D01*
X128874299Y-9642857D02*
X128921918Y-9738095D01*
X128921918Y-9738095D02*
X128969537Y-9785714D01*
X128969537Y-9785714D02*
X129064775Y-9833333D01*
X129064775Y-9833333D02*
X129207632Y-9833333D01*
X129207632Y-9833333D02*
X129302870Y-9785714D01*
X129302870Y-9785714D02*
X129350489Y-9738095D01*
X129350489Y-9738095D02*
X129398108Y-9642857D01*
X129398108Y-9642857D02*
X129398108Y-9261905D01*
X128874299Y-10166667D02*
X128874299Y-10785714D01*
X128874299Y-10785714D02*
X129255251Y-10452381D01*
X129255251Y-10452381D02*
X129255251Y-10595238D01*
X129255251Y-10595238D02*
X129302870Y-10690476D01*
X129302870Y-10690476D02*
X129350489Y-10738095D01*
X129350489Y-10738095D02*
X129445727Y-10785714D01*
X129445727Y-10785714D02*
X129683822Y-10785714D01*
X129683822Y-10785714D02*
X129779060Y-10738095D01*
X129779060Y-10738095D02*
X129826680Y-10690476D01*
X129826680Y-10690476D02*
X129874299Y-10595238D01*
X129874299Y-10595238D02*
X129874299Y-10309524D01*
X129874299Y-10309524D02*
X129826680Y-10214286D01*
X129826680Y-10214286D02*
X129779060Y-10166667D01*
X136475700Y-11966666D02*
X136951891Y-12299999D01*
X136475700Y-12538094D02*
X137475700Y-12538094D01*
X137475700Y-12538094D02*
X137475700Y-12157142D01*
X137475700Y-12157142D02*
X137428081Y-12061904D01*
X137428081Y-12061904D02*
X137380462Y-12014285D01*
X137380462Y-12014285D02*
X137285224Y-11966666D01*
X137285224Y-11966666D02*
X137142367Y-11966666D01*
X137142367Y-11966666D02*
X137047129Y-12014285D01*
X137047129Y-12014285D02*
X136999510Y-12061904D01*
X136999510Y-12061904D02*
X136951891Y-12157142D01*
X136951891Y-12157142D02*
X136951891Y-12538094D01*
X137142367Y-11109523D02*
X136475700Y-11109523D01*
X137523320Y-11347618D02*
X136809034Y-11585713D01*
X136809034Y-11585713D02*
X136809034Y-10966666D01*
X160966666Y-71459060D02*
X161014285Y-71506680D01*
X161014285Y-71506680D02*
X161157142Y-71554299D01*
X161157142Y-71554299D02*
X161252380Y-71554299D01*
X161252380Y-71554299D02*
X161395237Y-71506680D01*
X161395237Y-71506680D02*
X161490475Y-71411441D01*
X161490475Y-71411441D02*
X161538094Y-71316203D01*
X161538094Y-71316203D02*
X161585713Y-71125727D01*
X161585713Y-71125727D02*
X161585713Y-70982870D01*
X161585713Y-70982870D02*
X161538094Y-70792394D01*
X161538094Y-70792394D02*
X161490475Y-70697156D01*
X161490475Y-70697156D02*
X161395237Y-70601918D01*
X161395237Y-70601918D02*
X161252380Y-70554299D01*
X161252380Y-70554299D02*
X161157142Y-70554299D01*
X161157142Y-70554299D02*
X161014285Y-70601918D01*
X161014285Y-70601918D02*
X160966666Y-70649537D01*
X160014285Y-71554299D02*
X160585713Y-71554299D01*
X160299999Y-71554299D02*
X160299999Y-70554299D01*
X160299999Y-70554299D02*
X160395237Y-70697156D01*
X160395237Y-70697156D02*
X160490475Y-70792394D01*
X160490475Y-70792394D02*
X160585713Y-70840013D01*
X30433332Y-54006680D02*
X30290475Y-54054299D01*
X30290475Y-54054299D02*
X30052380Y-54054299D01*
X30052380Y-54054299D02*
X29957142Y-54006680D01*
X29957142Y-54006680D02*
X29909523Y-53959060D01*
X29909523Y-53959060D02*
X29861904Y-53863822D01*
X29861904Y-53863822D02*
X29861904Y-53768584D01*
X29861904Y-53768584D02*
X29909523Y-53673346D01*
X29909523Y-53673346D02*
X29957142Y-53625727D01*
X29957142Y-53625727D02*
X30052380Y-53578108D01*
X30052380Y-53578108D02*
X30242856Y-53530489D01*
X30242856Y-53530489D02*
X30338094Y-53482870D01*
X30338094Y-53482870D02*
X30385713Y-53435251D01*
X30385713Y-53435251D02*
X30433332Y-53340013D01*
X30433332Y-53340013D02*
X30433332Y-53244775D01*
X30433332Y-53244775D02*
X30385713Y-53149537D01*
X30385713Y-53149537D02*
X30338094Y-53101918D01*
X30338094Y-53101918D02*
X30242856Y-53054299D01*
X30242856Y-53054299D02*
X30004761Y-53054299D01*
X30004761Y-53054299D02*
X29861904Y-53101918D01*
X29528570Y-53054299D02*
X29290475Y-54054299D01*
X29290475Y-54054299D02*
X29099999Y-53340013D01*
X29099999Y-53340013D02*
X28909523Y-54054299D01*
X28909523Y-54054299D02*
X28671428Y-53054299D01*
X27766666Y-54054299D02*
X28338094Y-54054299D01*
X28052380Y-54054299D02*
X28052380Y-53054299D01*
X28052380Y-53054299D02*
X28147618Y-53197156D01*
X28147618Y-53197156D02*
X28242856Y-53292394D01*
X28242856Y-53292394D02*
X28338094Y-53340013D01*
X151466666Y-80609060D02*
X151514285Y-80656680D01*
X151514285Y-80656680D02*
X151657142Y-80704299D01*
X151657142Y-80704299D02*
X151752380Y-80704299D01*
X151752380Y-80704299D02*
X151895237Y-80656680D01*
X151895237Y-80656680D02*
X151990475Y-80561441D01*
X151990475Y-80561441D02*
X152038094Y-80466203D01*
X152038094Y-80466203D02*
X152085713Y-80275727D01*
X152085713Y-80275727D02*
X152085713Y-80132870D01*
X152085713Y-80132870D02*
X152038094Y-79942394D01*
X152038094Y-79942394D02*
X151990475Y-79847156D01*
X151990475Y-79847156D02*
X151895237Y-79751918D01*
X151895237Y-79751918D02*
X151752380Y-79704299D01*
X151752380Y-79704299D02*
X151657142Y-79704299D01*
X151657142Y-79704299D02*
X151514285Y-79751918D01*
X151514285Y-79751918D02*
X151466666Y-79799537D01*
X151133332Y-79704299D02*
X150514285Y-79704299D01*
X150514285Y-79704299D02*
X150847618Y-80085251D01*
X150847618Y-80085251D02*
X150704761Y-80085251D01*
X150704761Y-80085251D02*
X150609523Y-80132870D01*
X150609523Y-80132870D02*
X150561904Y-80180489D01*
X150561904Y-80180489D02*
X150514285Y-80275727D01*
X150514285Y-80275727D02*
X150514285Y-80513822D01*
X150514285Y-80513822D02*
X150561904Y-80609060D01*
X150561904Y-80609060D02*
X150609523Y-80656680D01*
X150609523Y-80656680D02*
X150704761Y-80704299D01*
X150704761Y-80704299D02*
X150990475Y-80704299D01*
X150990475Y-80704299D02*
X151085713Y-80656680D01*
X151085713Y-80656680D02*
X151133332Y-80609060D01*
X157066666Y-66324299D02*
X157399999Y-65848108D01*
X157638094Y-66324299D02*
X157638094Y-65324299D01*
X157638094Y-65324299D02*
X157257142Y-65324299D01*
X157257142Y-65324299D02*
X157161904Y-65371918D01*
X157161904Y-65371918D02*
X157114285Y-65419537D01*
X157114285Y-65419537D02*
X157066666Y-65514775D01*
X157066666Y-65514775D02*
X157066666Y-65657632D01*
X157066666Y-65657632D02*
X157114285Y-65752870D01*
X157114285Y-65752870D02*
X157161904Y-65800489D01*
X157161904Y-65800489D02*
X157257142Y-65848108D01*
X157257142Y-65848108D02*
X157638094Y-65848108D01*
X156209523Y-65324299D02*
X156399999Y-65324299D01*
X156399999Y-65324299D02*
X156495237Y-65371918D01*
X156495237Y-65371918D02*
X156542856Y-65419537D01*
X156542856Y-65419537D02*
X156638094Y-65562394D01*
X156638094Y-65562394D02*
X156685713Y-65752870D01*
X156685713Y-65752870D02*
X156685713Y-66133822D01*
X156685713Y-66133822D02*
X156638094Y-66229060D01*
X156638094Y-66229060D02*
X156590475Y-66276680D01*
X156590475Y-66276680D02*
X156495237Y-66324299D01*
X156495237Y-66324299D02*
X156304761Y-66324299D01*
X156304761Y-66324299D02*
X156209523Y-66276680D01*
X156209523Y-66276680D02*
X156161904Y-66229060D01*
X156161904Y-66229060D02*
X156114285Y-66133822D01*
X156114285Y-66133822D02*
X156114285Y-65895727D01*
X156114285Y-65895727D02*
X156161904Y-65800489D01*
X156161904Y-65800489D02*
X156209523Y-65752870D01*
X156209523Y-65752870D02*
X156304761Y-65705251D01*
X156304761Y-65705251D02*
X156495237Y-65705251D01*
X156495237Y-65705251D02*
X156590475Y-65752870D01*
X156590475Y-65752870D02*
X156638094Y-65800489D01*
X156638094Y-65800489D02*
X156685713Y-65895727D01*
X162966666Y-71459060D02*
X163014285Y-71506680D01*
X163014285Y-71506680D02*
X163157142Y-71554299D01*
X163157142Y-71554299D02*
X163252380Y-71554299D01*
X163252380Y-71554299D02*
X163395237Y-71506680D01*
X163395237Y-71506680D02*
X163490475Y-71411441D01*
X163490475Y-71411441D02*
X163538094Y-71316203D01*
X163538094Y-71316203D02*
X163585713Y-71125727D01*
X163585713Y-71125727D02*
X163585713Y-70982870D01*
X163585713Y-70982870D02*
X163538094Y-70792394D01*
X163538094Y-70792394D02*
X163490475Y-70697156D01*
X163490475Y-70697156D02*
X163395237Y-70601918D01*
X163395237Y-70601918D02*
X163252380Y-70554299D01*
X163252380Y-70554299D02*
X163157142Y-70554299D01*
X163157142Y-70554299D02*
X163014285Y-70601918D01*
X163014285Y-70601918D02*
X162966666Y-70649537D01*
X162395237Y-70982870D02*
X162490475Y-70935251D01*
X162490475Y-70935251D02*
X162538094Y-70887632D01*
X162538094Y-70887632D02*
X162585713Y-70792394D01*
X162585713Y-70792394D02*
X162585713Y-70744775D01*
X162585713Y-70744775D02*
X162538094Y-70649537D01*
X162538094Y-70649537D02*
X162490475Y-70601918D01*
X162490475Y-70601918D02*
X162395237Y-70554299D01*
X162395237Y-70554299D02*
X162204761Y-70554299D01*
X162204761Y-70554299D02*
X162109523Y-70601918D01*
X162109523Y-70601918D02*
X162061904Y-70649537D01*
X162061904Y-70649537D02*
X162014285Y-70744775D01*
X162014285Y-70744775D02*
X162014285Y-70792394D01*
X162014285Y-70792394D02*
X162061904Y-70887632D01*
X162061904Y-70887632D02*
X162109523Y-70935251D01*
X162109523Y-70935251D02*
X162204761Y-70982870D01*
X162204761Y-70982870D02*
X162395237Y-70982870D01*
X162395237Y-70982870D02*
X162490475Y-71030489D01*
X162490475Y-71030489D02*
X162538094Y-71078108D01*
X162538094Y-71078108D02*
X162585713Y-71173346D01*
X162585713Y-71173346D02*
X162585713Y-71363822D01*
X162585713Y-71363822D02*
X162538094Y-71459060D01*
X162538094Y-71459060D02*
X162490475Y-71506680D01*
X162490475Y-71506680D02*
X162395237Y-71554299D01*
X162395237Y-71554299D02*
X162204761Y-71554299D01*
X162204761Y-71554299D02*
X162109523Y-71506680D01*
X162109523Y-71506680D02*
X162061904Y-71459060D01*
X162061904Y-71459060D02*
X162014285Y-71363822D01*
X162014285Y-71363822D02*
X162014285Y-71173346D01*
X162014285Y-71173346D02*
X162061904Y-71078108D01*
X162061904Y-71078108D02*
X162109523Y-71030489D01*
X162109523Y-71030489D02*
X162204761Y-70982870D01*
X154266666Y-73659060D02*
X154314285Y-73706680D01*
X154314285Y-73706680D02*
X154457142Y-73754299D01*
X154457142Y-73754299D02*
X154552380Y-73754299D01*
X154552380Y-73754299D02*
X154695237Y-73706680D01*
X154695237Y-73706680D02*
X154790475Y-73611441D01*
X154790475Y-73611441D02*
X154838094Y-73516203D01*
X154838094Y-73516203D02*
X154885713Y-73325727D01*
X154885713Y-73325727D02*
X154885713Y-73182870D01*
X154885713Y-73182870D02*
X154838094Y-72992394D01*
X154838094Y-72992394D02*
X154790475Y-72897156D01*
X154790475Y-72897156D02*
X154695237Y-72801918D01*
X154695237Y-72801918D02*
X154552380Y-72754299D01*
X154552380Y-72754299D02*
X154457142Y-72754299D01*
X154457142Y-72754299D02*
X154314285Y-72801918D01*
X154314285Y-72801918D02*
X154266666Y-72849537D01*
X153790475Y-73754299D02*
X153599999Y-73754299D01*
X153599999Y-73754299D02*
X153504761Y-73706680D01*
X153504761Y-73706680D02*
X153457142Y-73659060D01*
X153457142Y-73659060D02*
X153361904Y-73516203D01*
X153361904Y-73516203D02*
X153314285Y-73325727D01*
X153314285Y-73325727D02*
X153314285Y-72944775D01*
X153314285Y-72944775D02*
X153361904Y-72849537D01*
X153361904Y-72849537D02*
X153409523Y-72801918D01*
X153409523Y-72801918D02*
X153504761Y-72754299D01*
X153504761Y-72754299D02*
X153695237Y-72754299D01*
X153695237Y-72754299D02*
X153790475Y-72801918D01*
X153790475Y-72801918D02*
X153838094Y-72849537D01*
X153838094Y-72849537D02*
X153885713Y-72944775D01*
X153885713Y-72944775D02*
X153885713Y-73182870D01*
X153885713Y-73182870D02*
X153838094Y-73278108D01*
X153838094Y-73278108D02*
X153790475Y-73325727D01*
X153790475Y-73325727D02*
X153695237Y-73373346D01*
X153695237Y-73373346D02*
X153504761Y-73373346D01*
X153504761Y-73373346D02*
X153409523Y-73325727D01*
X153409523Y-73325727D02*
X153361904Y-73278108D01*
X153361904Y-73278108D02*
X153314285Y-73182870D01*
X168666666Y-91159060D02*
X168714285Y-91206680D01*
X168714285Y-91206680D02*
X168857142Y-91254299D01*
X168857142Y-91254299D02*
X168952380Y-91254299D01*
X168952380Y-91254299D02*
X169095237Y-91206680D01*
X169095237Y-91206680D02*
X169190475Y-91111441D01*
X169190475Y-91111441D02*
X169238094Y-91016203D01*
X169238094Y-91016203D02*
X169285713Y-90825727D01*
X169285713Y-90825727D02*
X169285713Y-90682870D01*
X169285713Y-90682870D02*
X169238094Y-90492394D01*
X169238094Y-90492394D02*
X169190475Y-90397156D01*
X169190475Y-90397156D02*
X169095237Y-90301918D01*
X169095237Y-90301918D02*
X168952380Y-90254299D01*
X168952380Y-90254299D02*
X168857142Y-90254299D01*
X168857142Y-90254299D02*
X168714285Y-90301918D01*
X168714285Y-90301918D02*
X168666666Y-90349537D01*
X167809523Y-90254299D02*
X167999999Y-90254299D01*
X167999999Y-90254299D02*
X168095237Y-90301918D01*
X168095237Y-90301918D02*
X168142856Y-90349537D01*
X168142856Y-90349537D02*
X168238094Y-90492394D01*
X168238094Y-90492394D02*
X168285713Y-90682870D01*
X168285713Y-90682870D02*
X168285713Y-91063822D01*
X168285713Y-91063822D02*
X168238094Y-91159060D01*
X168238094Y-91159060D02*
X168190475Y-91206680D01*
X168190475Y-91206680D02*
X168095237Y-91254299D01*
X168095237Y-91254299D02*
X167904761Y-91254299D01*
X167904761Y-91254299D02*
X167809523Y-91206680D01*
X167809523Y-91206680D02*
X167761904Y-91159060D01*
X167761904Y-91159060D02*
X167714285Y-91063822D01*
X167714285Y-91063822D02*
X167714285Y-90825727D01*
X167714285Y-90825727D02*
X167761904Y-90730489D01*
X167761904Y-90730489D02*
X167809523Y-90682870D01*
X167809523Y-90682870D02*
X167904761Y-90635251D01*
X167904761Y-90635251D02*
X168095237Y-90635251D01*
X168095237Y-90635251D02*
X168190475Y-90682870D01*
X168190475Y-90682870D02*
X168238094Y-90730489D01*
X168238094Y-90730489D02*
X168285713Y-90825727D01*
X165566666Y-79859060D02*
X165614285Y-79906680D01*
X165614285Y-79906680D02*
X165757142Y-79954299D01*
X165757142Y-79954299D02*
X165852380Y-79954299D01*
X165852380Y-79954299D02*
X165995237Y-79906680D01*
X165995237Y-79906680D02*
X166090475Y-79811441D01*
X166090475Y-79811441D02*
X166138094Y-79716203D01*
X166138094Y-79716203D02*
X166185713Y-79525727D01*
X166185713Y-79525727D02*
X166185713Y-79382870D01*
X166185713Y-79382870D02*
X166138094Y-79192394D01*
X166138094Y-79192394D02*
X166090475Y-79097156D01*
X166090475Y-79097156D02*
X165995237Y-79001918D01*
X165995237Y-79001918D02*
X165852380Y-78954299D01*
X165852380Y-78954299D02*
X165757142Y-78954299D01*
X165757142Y-78954299D02*
X165614285Y-79001918D01*
X165614285Y-79001918D02*
X165566666Y-79049537D01*
X165185713Y-79049537D02*
X165138094Y-79001918D01*
X165138094Y-79001918D02*
X165042856Y-78954299D01*
X165042856Y-78954299D02*
X164804761Y-78954299D01*
X164804761Y-78954299D02*
X164709523Y-79001918D01*
X164709523Y-79001918D02*
X164661904Y-79049537D01*
X164661904Y-79049537D02*
X164614285Y-79144775D01*
X164614285Y-79144775D02*
X164614285Y-79240013D01*
X164614285Y-79240013D02*
X164661904Y-79382870D01*
X164661904Y-79382870D02*
X165233332Y-79954299D01*
X165233332Y-79954299D02*
X164614285Y-79954299D01*
X172376190Y-84978108D02*
X172376190Y-85454299D01*
X172709523Y-84454299D02*
X172376190Y-84978108D01*
X172376190Y-84978108D02*
X172042857Y-84454299D01*
X171185714Y-85454299D02*
X171757142Y-85454299D01*
X171471428Y-85454299D02*
X171471428Y-84454299D01*
X171471428Y-84454299D02*
X171566666Y-84597156D01*
X171566666Y-84597156D02*
X171661904Y-84692394D01*
X171661904Y-84692394D02*
X171757142Y-84740013D01*
X138833333Y-22430489D02*
X139166666Y-22430489D01*
X139166666Y-22954299D02*
X139166666Y-21954299D01*
X139166666Y-21954299D02*
X138690476Y-21954299D01*
X137785714Y-22954299D02*
X138357142Y-22954299D01*
X138071428Y-22954299D02*
X138071428Y-21954299D01*
X138071428Y-21954299D02*
X138166666Y-22097156D01*
X138166666Y-22097156D02*
X138261904Y-22192394D01*
X138261904Y-22192394D02*
X138357142Y-22240013D01*
X13119047Y-18254299D02*
X13119047Y-17254299D01*
X13119047Y-17254299D02*
X12880952Y-17254299D01*
X12880952Y-17254299D02*
X12738095Y-17301918D01*
X12738095Y-17301918D02*
X12642857Y-17397156D01*
X12642857Y-17397156D02*
X12595238Y-17492394D01*
X12595238Y-17492394D02*
X12547619Y-17682870D01*
X12547619Y-17682870D02*
X12547619Y-17825727D01*
X12547619Y-17825727D02*
X12595238Y-18016203D01*
X12595238Y-18016203D02*
X12642857Y-18111441D01*
X12642857Y-18111441D02*
X12738095Y-18206680D01*
X12738095Y-18206680D02*
X12880952Y-18254299D01*
X12880952Y-18254299D02*
X13119047Y-18254299D01*
X12357143Y-18349537D02*
X11595238Y-18349537D01*
X11166666Y-17254299D02*
X11071428Y-17254299D01*
X11071428Y-17254299D02*
X10976190Y-17301918D01*
X10976190Y-17301918D02*
X10928571Y-17349537D01*
X10928571Y-17349537D02*
X10880952Y-17444775D01*
X10880952Y-17444775D02*
X10833333Y-17635251D01*
X10833333Y-17635251D02*
X10833333Y-17873346D01*
X10833333Y-17873346D02*
X10880952Y-18063822D01*
X10880952Y-18063822D02*
X10928571Y-18159060D01*
X10928571Y-18159060D02*
X10976190Y-18206680D01*
X10976190Y-18206680D02*
X11071428Y-18254299D01*
X11071428Y-18254299D02*
X11166666Y-18254299D01*
X11166666Y-18254299D02*
X11261904Y-18206680D01*
X11261904Y-18206680D02*
X11309523Y-18159060D01*
X11309523Y-18159060D02*
X11357142Y-18063822D01*
X11357142Y-18063822D02*
X11404761Y-17873346D01*
X11404761Y-17873346D02*
X11404761Y-17635251D01*
X11404761Y-17635251D02*
X11357142Y-17444775D01*
X11357142Y-17444775D02*
X11309523Y-17349537D01*
X11309523Y-17349537D02*
X11261904Y-17301918D01*
X11261904Y-17301918D02*
X11166666Y-17254299D01*
X32169047Y-18254299D02*
X32169047Y-17254299D01*
X32169047Y-17254299D02*
X31930952Y-17254299D01*
X31930952Y-17254299D02*
X31788095Y-17301918D01*
X31788095Y-17301918D02*
X31692857Y-17397156D01*
X31692857Y-17397156D02*
X31645238Y-17492394D01*
X31645238Y-17492394D02*
X31597619Y-17682870D01*
X31597619Y-17682870D02*
X31597619Y-17825727D01*
X31597619Y-17825727D02*
X31645238Y-18016203D01*
X31645238Y-18016203D02*
X31692857Y-18111441D01*
X31692857Y-18111441D02*
X31788095Y-18206680D01*
X31788095Y-18206680D02*
X31930952Y-18254299D01*
X31930952Y-18254299D02*
X32169047Y-18254299D01*
X31407143Y-18349537D02*
X30645238Y-18349537D01*
X29883333Y-18254299D02*
X30454761Y-18254299D01*
X30169047Y-18254299D02*
X30169047Y-17254299D01*
X30169047Y-17254299D02*
X30264285Y-17397156D01*
X30264285Y-17397156D02*
X30359523Y-17492394D01*
X30359523Y-17492394D02*
X30454761Y-17540013D01*
X51219047Y-18254299D02*
X51219047Y-17254299D01*
X51219047Y-17254299D02*
X50980952Y-17254299D01*
X50980952Y-17254299D02*
X50838095Y-17301918D01*
X50838095Y-17301918D02*
X50742857Y-17397156D01*
X50742857Y-17397156D02*
X50695238Y-17492394D01*
X50695238Y-17492394D02*
X50647619Y-17682870D01*
X50647619Y-17682870D02*
X50647619Y-17825727D01*
X50647619Y-17825727D02*
X50695238Y-18016203D01*
X50695238Y-18016203D02*
X50742857Y-18111441D01*
X50742857Y-18111441D02*
X50838095Y-18206680D01*
X50838095Y-18206680D02*
X50980952Y-18254299D01*
X50980952Y-18254299D02*
X51219047Y-18254299D01*
X50457143Y-18349537D02*
X49695238Y-18349537D01*
X49504761Y-17349537D02*
X49457142Y-17301918D01*
X49457142Y-17301918D02*
X49361904Y-17254299D01*
X49361904Y-17254299D02*
X49123809Y-17254299D01*
X49123809Y-17254299D02*
X49028571Y-17301918D01*
X49028571Y-17301918D02*
X48980952Y-17349537D01*
X48980952Y-17349537D02*
X48933333Y-17444775D01*
X48933333Y-17444775D02*
X48933333Y-17540013D01*
X48933333Y-17540013D02*
X48980952Y-17682870D01*
X48980952Y-17682870D02*
X49552380Y-18254299D01*
X49552380Y-18254299D02*
X48933333Y-18254299D01*
X70269047Y-18254299D02*
X70269047Y-17254299D01*
X70269047Y-17254299D02*
X70030952Y-17254299D01*
X70030952Y-17254299D02*
X69888095Y-17301918D01*
X69888095Y-17301918D02*
X69792857Y-17397156D01*
X69792857Y-17397156D02*
X69745238Y-17492394D01*
X69745238Y-17492394D02*
X69697619Y-17682870D01*
X69697619Y-17682870D02*
X69697619Y-17825727D01*
X69697619Y-17825727D02*
X69745238Y-18016203D01*
X69745238Y-18016203D02*
X69792857Y-18111441D01*
X69792857Y-18111441D02*
X69888095Y-18206680D01*
X69888095Y-18206680D02*
X70030952Y-18254299D01*
X70030952Y-18254299D02*
X70269047Y-18254299D01*
X69507143Y-18349537D02*
X68745238Y-18349537D01*
X68602380Y-17254299D02*
X67983333Y-17254299D01*
X67983333Y-17254299D02*
X68316666Y-17635251D01*
X68316666Y-17635251D02*
X68173809Y-17635251D01*
X68173809Y-17635251D02*
X68078571Y-17682870D01*
X68078571Y-17682870D02*
X68030952Y-17730489D01*
X68030952Y-17730489D02*
X67983333Y-17825727D01*
X67983333Y-17825727D02*
X67983333Y-18063822D01*
X67983333Y-18063822D02*
X68030952Y-18159060D01*
X68030952Y-18159060D02*
X68078571Y-18206680D01*
X68078571Y-18206680D02*
X68173809Y-18254299D01*
X68173809Y-18254299D02*
X68459523Y-18254299D01*
X68459523Y-18254299D02*
X68554761Y-18206680D01*
X68554761Y-18206680D02*
X68602380Y-18159060D01*
X89319047Y-18254299D02*
X89319047Y-17254299D01*
X89319047Y-17254299D02*
X89080952Y-17254299D01*
X89080952Y-17254299D02*
X88938095Y-17301918D01*
X88938095Y-17301918D02*
X88842857Y-17397156D01*
X88842857Y-17397156D02*
X88795238Y-17492394D01*
X88795238Y-17492394D02*
X88747619Y-17682870D01*
X88747619Y-17682870D02*
X88747619Y-17825727D01*
X88747619Y-17825727D02*
X88795238Y-18016203D01*
X88795238Y-18016203D02*
X88842857Y-18111441D01*
X88842857Y-18111441D02*
X88938095Y-18206680D01*
X88938095Y-18206680D02*
X89080952Y-18254299D01*
X89080952Y-18254299D02*
X89319047Y-18254299D01*
X88557143Y-18349537D02*
X87795238Y-18349537D01*
X87128571Y-17587632D02*
X87128571Y-18254299D01*
X87366666Y-17206680D02*
X87604761Y-17920965D01*
X87604761Y-17920965D02*
X86985714Y-17920965D01*
X108369047Y-18254299D02*
X108369047Y-17254299D01*
X108369047Y-17254299D02*
X108130952Y-17254299D01*
X108130952Y-17254299D02*
X107988095Y-17301918D01*
X107988095Y-17301918D02*
X107892857Y-17397156D01*
X107892857Y-17397156D02*
X107845238Y-17492394D01*
X107845238Y-17492394D02*
X107797619Y-17682870D01*
X107797619Y-17682870D02*
X107797619Y-17825727D01*
X107797619Y-17825727D02*
X107845238Y-18016203D01*
X107845238Y-18016203D02*
X107892857Y-18111441D01*
X107892857Y-18111441D02*
X107988095Y-18206680D01*
X107988095Y-18206680D02*
X108130952Y-18254299D01*
X108130952Y-18254299D02*
X108369047Y-18254299D01*
X107607143Y-18349537D02*
X106845238Y-18349537D01*
X106130952Y-17254299D02*
X106607142Y-17254299D01*
X106607142Y-17254299D02*
X106654761Y-17730489D01*
X106654761Y-17730489D02*
X106607142Y-17682870D01*
X106607142Y-17682870D02*
X106511904Y-17635251D01*
X106511904Y-17635251D02*
X106273809Y-17635251D01*
X106273809Y-17635251D02*
X106178571Y-17682870D01*
X106178571Y-17682870D02*
X106130952Y-17730489D01*
X106130952Y-17730489D02*
X106083333Y-17825727D01*
X106083333Y-17825727D02*
X106083333Y-18063822D01*
X106083333Y-18063822D02*
X106130952Y-18159060D01*
X106130952Y-18159060D02*
X106178571Y-18206680D01*
X106178571Y-18206680D02*
X106273809Y-18254299D01*
X106273809Y-18254299D02*
X106511904Y-18254299D01*
X106511904Y-18254299D02*
X106607142Y-18206680D01*
X106607142Y-18206680D02*
X106654761Y-18159060D01*
X119619047Y-18254299D02*
X119619047Y-17254299D01*
X119619047Y-17254299D02*
X119380952Y-17254299D01*
X119380952Y-17254299D02*
X119238095Y-17301918D01*
X119238095Y-17301918D02*
X119142857Y-17397156D01*
X119142857Y-17397156D02*
X119095238Y-17492394D01*
X119095238Y-17492394D02*
X119047619Y-17682870D01*
X119047619Y-17682870D02*
X119047619Y-17825727D01*
X119047619Y-17825727D02*
X119095238Y-18016203D01*
X119095238Y-18016203D02*
X119142857Y-18111441D01*
X119142857Y-18111441D02*
X119238095Y-18206680D01*
X119238095Y-18206680D02*
X119380952Y-18254299D01*
X119380952Y-18254299D02*
X119619047Y-18254299D01*
X118857143Y-18349537D02*
X118095238Y-18349537D01*
X117428571Y-17254299D02*
X117619047Y-17254299D01*
X117619047Y-17254299D02*
X117714285Y-17301918D01*
X117714285Y-17301918D02*
X117761904Y-17349537D01*
X117761904Y-17349537D02*
X117857142Y-17492394D01*
X117857142Y-17492394D02*
X117904761Y-17682870D01*
X117904761Y-17682870D02*
X117904761Y-18063822D01*
X117904761Y-18063822D02*
X117857142Y-18159060D01*
X117857142Y-18159060D02*
X117809523Y-18206680D01*
X117809523Y-18206680D02*
X117714285Y-18254299D01*
X117714285Y-18254299D02*
X117523809Y-18254299D01*
X117523809Y-18254299D02*
X117428571Y-18206680D01*
X117428571Y-18206680D02*
X117380952Y-18159060D01*
X117380952Y-18159060D02*
X117333333Y-18063822D01*
X117333333Y-18063822D02*
X117333333Y-17825727D01*
X117333333Y-17825727D02*
X117380952Y-17730489D01*
X117380952Y-17730489D02*
X117428571Y-17682870D01*
X117428571Y-17682870D02*
X117523809Y-17635251D01*
X117523809Y-17635251D02*
X117714285Y-17635251D01*
X117714285Y-17635251D02*
X117809523Y-17682870D01*
X117809523Y-17682870D02*
X117857142Y-17730489D01*
X117857142Y-17730489D02*
X117904761Y-17825727D01*
X152119047Y-18254299D02*
X152119047Y-17254299D01*
X152119047Y-17254299D02*
X151880952Y-17254299D01*
X151880952Y-17254299D02*
X151738095Y-17301918D01*
X151738095Y-17301918D02*
X151642857Y-17397156D01*
X151642857Y-17397156D02*
X151595238Y-17492394D01*
X151595238Y-17492394D02*
X151547619Y-17682870D01*
X151547619Y-17682870D02*
X151547619Y-17825727D01*
X151547619Y-17825727D02*
X151595238Y-18016203D01*
X151595238Y-18016203D02*
X151642857Y-18111441D01*
X151642857Y-18111441D02*
X151738095Y-18206680D01*
X151738095Y-18206680D02*
X151880952Y-18254299D01*
X151880952Y-18254299D02*
X152119047Y-18254299D01*
X151357143Y-18349537D02*
X150595238Y-18349537D01*
X150452380Y-17254299D02*
X149785714Y-17254299D01*
X149785714Y-17254299D02*
X150214285Y-18254299D01*
X165619047Y-18254299D02*
X165619047Y-17254299D01*
X165619047Y-17254299D02*
X165380952Y-17254299D01*
X165380952Y-17254299D02*
X165238095Y-17301918D01*
X165238095Y-17301918D02*
X165142857Y-17397156D01*
X165142857Y-17397156D02*
X165095238Y-17492394D01*
X165095238Y-17492394D02*
X165047619Y-17682870D01*
X165047619Y-17682870D02*
X165047619Y-17825727D01*
X165047619Y-17825727D02*
X165095238Y-18016203D01*
X165095238Y-18016203D02*
X165142857Y-18111441D01*
X165142857Y-18111441D02*
X165238095Y-18206680D01*
X165238095Y-18206680D02*
X165380952Y-18254299D01*
X165380952Y-18254299D02*
X165619047Y-18254299D01*
X164857143Y-18349537D02*
X164095238Y-18349537D01*
X163714285Y-17682870D02*
X163809523Y-17635251D01*
X163809523Y-17635251D02*
X163857142Y-17587632D01*
X163857142Y-17587632D02*
X163904761Y-17492394D01*
X163904761Y-17492394D02*
X163904761Y-17444775D01*
X163904761Y-17444775D02*
X163857142Y-17349537D01*
X163857142Y-17349537D02*
X163809523Y-17301918D01*
X163809523Y-17301918D02*
X163714285Y-17254299D01*
X163714285Y-17254299D02*
X163523809Y-17254299D01*
X163523809Y-17254299D02*
X163428571Y-17301918D01*
X163428571Y-17301918D02*
X163380952Y-17349537D01*
X163380952Y-17349537D02*
X163333333Y-17444775D01*
X163333333Y-17444775D02*
X163333333Y-17492394D01*
X163333333Y-17492394D02*
X163380952Y-17587632D01*
X163380952Y-17587632D02*
X163428571Y-17635251D01*
X163428571Y-17635251D02*
X163523809Y-17682870D01*
X163523809Y-17682870D02*
X163714285Y-17682870D01*
X163714285Y-17682870D02*
X163809523Y-17730489D01*
X163809523Y-17730489D02*
X163857142Y-17778108D01*
X163857142Y-17778108D02*
X163904761Y-17873346D01*
X163904761Y-17873346D02*
X163904761Y-18063822D01*
X163904761Y-18063822D02*
X163857142Y-18159060D01*
X163857142Y-18159060D02*
X163809523Y-18206680D01*
X163809523Y-18206680D02*
X163714285Y-18254299D01*
X163714285Y-18254299D02*
X163523809Y-18254299D01*
X163523809Y-18254299D02*
X163428571Y-18206680D01*
X163428571Y-18206680D02*
X163380952Y-18159060D01*
X163380952Y-18159060D02*
X163333333Y-18063822D01*
X163333333Y-18063822D02*
X163333333Y-17873346D01*
X163333333Y-17873346D02*
X163380952Y-17778108D01*
X163380952Y-17778108D02*
X163428571Y-17730489D01*
X163428571Y-17730489D02*
X163523809Y-17682870D01*
X184369047Y-18254299D02*
X184369047Y-17254299D01*
X184369047Y-17254299D02*
X184130952Y-17254299D01*
X184130952Y-17254299D02*
X183988095Y-17301918D01*
X183988095Y-17301918D02*
X183892857Y-17397156D01*
X183892857Y-17397156D02*
X183845238Y-17492394D01*
X183845238Y-17492394D02*
X183797619Y-17682870D01*
X183797619Y-17682870D02*
X183797619Y-17825727D01*
X183797619Y-17825727D02*
X183845238Y-18016203D01*
X183845238Y-18016203D02*
X183892857Y-18111441D01*
X183892857Y-18111441D02*
X183988095Y-18206680D01*
X183988095Y-18206680D02*
X184130952Y-18254299D01*
X184130952Y-18254299D02*
X184369047Y-18254299D01*
X183607143Y-18349537D02*
X182845238Y-18349537D01*
X182559523Y-18254299D02*
X182369047Y-18254299D01*
X182369047Y-18254299D02*
X182273809Y-18206680D01*
X182273809Y-18206680D02*
X182226190Y-18159060D01*
X182226190Y-18159060D02*
X182130952Y-18016203D01*
X182130952Y-18016203D02*
X182083333Y-17825727D01*
X182083333Y-17825727D02*
X182083333Y-17444775D01*
X182083333Y-17444775D02*
X182130952Y-17349537D01*
X182130952Y-17349537D02*
X182178571Y-17301918D01*
X182178571Y-17301918D02*
X182273809Y-17254299D01*
X182273809Y-17254299D02*
X182464285Y-17254299D01*
X182464285Y-17254299D02*
X182559523Y-17301918D01*
X182559523Y-17301918D02*
X182607142Y-17349537D01*
X182607142Y-17349537D02*
X182654761Y-17444775D01*
X182654761Y-17444775D02*
X182654761Y-17682870D01*
X182654761Y-17682870D02*
X182607142Y-17778108D01*
X182607142Y-17778108D02*
X182559523Y-17825727D01*
X182559523Y-17825727D02*
X182464285Y-17873346D01*
X182464285Y-17873346D02*
X182273809Y-17873346D01*
X182273809Y-17873346D02*
X182178571Y-17825727D01*
X182178571Y-17825727D02*
X182130952Y-17778108D01*
X182130952Y-17778108D02*
X182083333Y-17682870D01*
X204095237Y-18254299D02*
X204095237Y-17254299D01*
X204095237Y-17254299D02*
X203857142Y-17254299D01*
X203857142Y-17254299D02*
X203714285Y-17301918D01*
X203714285Y-17301918D02*
X203619047Y-17397156D01*
X203619047Y-17397156D02*
X203571428Y-17492394D01*
X203571428Y-17492394D02*
X203523809Y-17682870D01*
X203523809Y-17682870D02*
X203523809Y-17825727D01*
X203523809Y-17825727D02*
X203571428Y-18016203D01*
X203571428Y-18016203D02*
X203619047Y-18111441D01*
X203619047Y-18111441D02*
X203714285Y-18206680D01*
X203714285Y-18206680D02*
X203857142Y-18254299D01*
X203857142Y-18254299D02*
X204095237Y-18254299D01*
X203333333Y-18349537D02*
X202571428Y-18349537D01*
X201809523Y-18254299D02*
X202380951Y-18254299D01*
X202095237Y-18254299D02*
X202095237Y-17254299D01*
X202095237Y-17254299D02*
X202190475Y-17397156D01*
X202190475Y-17397156D02*
X202285713Y-17492394D01*
X202285713Y-17492394D02*
X202380951Y-17540013D01*
X201190475Y-17254299D02*
X201095237Y-17254299D01*
X201095237Y-17254299D02*
X200999999Y-17301918D01*
X200999999Y-17301918D02*
X200952380Y-17349537D01*
X200952380Y-17349537D02*
X200904761Y-17444775D01*
X200904761Y-17444775D02*
X200857142Y-17635251D01*
X200857142Y-17635251D02*
X200857142Y-17873346D01*
X200857142Y-17873346D02*
X200904761Y-18063822D01*
X200904761Y-18063822D02*
X200952380Y-18159060D01*
X200952380Y-18159060D02*
X200999999Y-18206680D01*
X200999999Y-18206680D02*
X201095237Y-18254299D01*
X201095237Y-18254299D02*
X201190475Y-18254299D01*
X201190475Y-18254299D02*
X201285713Y-18206680D01*
X201285713Y-18206680D02*
X201333332Y-18159060D01*
X201333332Y-18159060D02*
X201380951Y-18063822D01*
X201380951Y-18063822D02*
X201428570Y-17873346D01*
X201428570Y-17873346D02*
X201428570Y-17635251D01*
X201428570Y-17635251D02*
X201380951Y-17444775D01*
X201380951Y-17444775D02*
X201333332Y-17349537D01*
X201333332Y-17349537D02*
X201285713Y-17301918D01*
X201285713Y-17301918D02*
X201190475Y-17254299D01*
X223095237Y-18254299D02*
X223095237Y-17254299D01*
X223095237Y-17254299D02*
X222857142Y-17254299D01*
X222857142Y-17254299D02*
X222714285Y-17301918D01*
X222714285Y-17301918D02*
X222619047Y-17397156D01*
X222619047Y-17397156D02*
X222571428Y-17492394D01*
X222571428Y-17492394D02*
X222523809Y-17682870D01*
X222523809Y-17682870D02*
X222523809Y-17825727D01*
X222523809Y-17825727D02*
X222571428Y-18016203D01*
X222571428Y-18016203D02*
X222619047Y-18111441D01*
X222619047Y-18111441D02*
X222714285Y-18206680D01*
X222714285Y-18206680D02*
X222857142Y-18254299D01*
X222857142Y-18254299D02*
X223095237Y-18254299D01*
X222333333Y-18349537D02*
X221571428Y-18349537D01*
X220809523Y-18254299D02*
X221380951Y-18254299D01*
X221095237Y-18254299D02*
X221095237Y-17254299D01*
X221095237Y-17254299D02*
X221190475Y-17397156D01*
X221190475Y-17397156D02*
X221285713Y-17492394D01*
X221285713Y-17492394D02*
X221380951Y-17540013D01*
X219857142Y-18254299D02*
X220428570Y-18254299D01*
X220142856Y-18254299D02*
X220142856Y-17254299D01*
X220142856Y-17254299D02*
X220238094Y-17397156D01*
X220238094Y-17397156D02*
X220333332Y-17492394D01*
X220333332Y-17492394D02*
X220428570Y-17540013D01*
X242095237Y-18254299D02*
X242095237Y-17254299D01*
X242095237Y-17254299D02*
X241857142Y-17254299D01*
X241857142Y-17254299D02*
X241714285Y-17301918D01*
X241714285Y-17301918D02*
X241619047Y-17397156D01*
X241619047Y-17397156D02*
X241571428Y-17492394D01*
X241571428Y-17492394D02*
X241523809Y-17682870D01*
X241523809Y-17682870D02*
X241523809Y-17825727D01*
X241523809Y-17825727D02*
X241571428Y-18016203D01*
X241571428Y-18016203D02*
X241619047Y-18111441D01*
X241619047Y-18111441D02*
X241714285Y-18206680D01*
X241714285Y-18206680D02*
X241857142Y-18254299D01*
X241857142Y-18254299D02*
X242095237Y-18254299D01*
X241333333Y-18349537D02*
X240571428Y-18349537D01*
X239809523Y-18254299D02*
X240380951Y-18254299D01*
X240095237Y-18254299D02*
X240095237Y-17254299D01*
X240095237Y-17254299D02*
X240190475Y-17397156D01*
X240190475Y-17397156D02*
X240285713Y-17492394D01*
X240285713Y-17492394D02*
X240380951Y-17540013D01*
X239428570Y-17349537D02*
X239380951Y-17301918D01*
X239380951Y-17301918D02*
X239285713Y-17254299D01*
X239285713Y-17254299D02*
X239047618Y-17254299D01*
X239047618Y-17254299D02*
X238952380Y-17301918D01*
X238952380Y-17301918D02*
X238904761Y-17349537D01*
X238904761Y-17349537D02*
X238857142Y-17444775D01*
X238857142Y-17444775D02*
X238857142Y-17540013D01*
X238857142Y-17540013D02*
X238904761Y-17682870D01*
X238904761Y-17682870D02*
X239476189Y-18254299D01*
X239476189Y-18254299D02*
X238857142Y-18254299D01*
X261095237Y-18254299D02*
X261095237Y-17254299D01*
X261095237Y-17254299D02*
X260857142Y-17254299D01*
X260857142Y-17254299D02*
X260714285Y-17301918D01*
X260714285Y-17301918D02*
X260619047Y-17397156D01*
X260619047Y-17397156D02*
X260571428Y-17492394D01*
X260571428Y-17492394D02*
X260523809Y-17682870D01*
X260523809Y-17682870D02*
X260523809Y-17825727D01*
X260523809Y-17825727D02*
X260571428Y-18016203D01*
X260571428Y-18016203D02*
X260619047Y-18111441D01*
X260619047Y-18111441D02*
X260714285Y-18206680D01*
X260714285Y-18206680D02*
X260857142Y-18254299D01*
X260857142Y-18254299D02*
X261095237Y-18254299D01*
X260333333Y-18349537D02*
X259571428Y-18349537D01*
X258809523Y-18254299D02*
X259380951Y-18254299D01*
X259095237Y-18254299D02*
X259095237Y-17254299D01*
X259095237Y-17254299D02*
X259190475Y-17397156D01*
X259190475Y-17397156D02*
X259285713Y-17492394D01*
X259285713Y-17492394D02*
X259380951Y-17540013D01*
X258476189Y-17254299D02*
X257857142Y-17254299D01*
X257857142Y-17254299D02*
X258190475Y-17635251D01*
X258190475Y-17635251D02*
X258047618Y-17635251D01*
X258047618Y-17635251D02*
X257952380Y-17682870D01*
X257952380Y-17682870D02*
X257904761Y-17730489D01*
X257904761Y-17730489D02*
X257857142Y-17825727D01*
X257857142Y-17825727D02*
X257857142Y-18063822D01*
X257857142Y-18063822D02*
X257904761Y-18159060D01*
X257904761Y-18159060D02*
X257952380Y-18206680D01*
X257952380Y-18206680D02*
X258047618Y-18254299D01*
X258047618Y-18254299D02*
X258333332Y-18254299D01*
X258333332Y-18254299D02*
X258428570Y-18206680D01*
X258428570Y-18206680D02*
X258476189Y-18159060D01*
X280345237Y-18254299D02*
X280345237Y-17254299D01*
X280345237Y-17254299D02*
X280107142Y-17254299D01*
X280107142Y-17254299D02*
X279964285Y-17301918D01*
X279964285Y-17301918D02*
X279869047Y-17397156D01*
X279869047Y-17397156D02*
X279821428Y-17492394D01*
X279821428Y-17492394D02*
X279773809Y-17682870D01*
X279773809Y-17682870D02*
X279773809Y-17825727D01*
X279773809Y-17825727D02*
X279821428Y-18016203D01*
X279821428Y-18016203D02*
X279869047Y-18111441D01*
X279869047Y-18111441D02*
X279964285Y-18206680D01*
X279964285Y-18206680D02*
X280107142Y-18254299D01*
X280107142Y-18254299D02*
X280345237Y-18254299D01*
X279583333Y-18349537D02*
X278821428Y-18349537D01*
X278059523Y-18254299D02*
X278630951Y-18254299D01*
X278345237Y-18254299D02*
X278345237Y-17254299D01*
X278345237Y-17254299D02*
X278440475Y-17397156D01*
X278440475Y-17397156D02*
X278535713Y-17492394D01*
X278535713Y-17492394D02*
X278630951Y-17540013D01*
X277202380Y-17587632D02*
X277202380Y-18254299D01*
X277440475Y-17206680D02*
X277678570Y-17920965D01*
X277678570Y-17920965D02*
X277059523Y-17920965D01*
X18345237Y-37254299D02*
X18345237Y-36254299D01*
X18345237Y-36254299D02*
X18107142Y-36254299D01*
X18107142Y-36254299D02*
X17964285Y-36301918D01*
X17964285Y-36301918D02*
X17869047Y-36397156D01*
X17869047Y-36397156D02*
X17821428Y-36492394D01*
X17821428Y-36492394D02*
X17773809Y-36682870D01*
X17773809Y-36682870D02*
X17773809Y-36825727D01*
X17773809Y-36825727D02*
X17821428Y-37016203D01*
X17821428Y-37016203D02*
X17869047Y-37111441D01*
X17869047Y-37111441D02*
X17964285Y-37206680D01*
X17964285Y-37206680D02*
X18107142Y-37254299D01*
X18107142Y-37254299D02*
X18345237Y-37254299D01*
X17583333Y-37349537D02*
X16821428Y-37349537D01*
X16059523Y-37254299D02*
X16630951Y-37254299D01*
X16345237Y-37254299D02*
X16345237Y-36254299D01*
X16345237Y-36254299D02*
X16440475Y-36397156D01*
X16440475Y-36397156D02*
X16535713Y-36492394D01*
X16535713Y-36492394D02*
X16630951Y-36540013D01*
X15154761Y-36254299D02*
X15630951Y-36254299D01*
X15630951Y-36254299D02*
X15678570Y-36730489D01*
X15678570Y-36730489D02*
X15630951Y-36682870D01*
X15630951Y-36682870D02*
X15535713Y-36635251D01*
X15535713Y-36635251D02*
X15297618Y-36635251D01*
X15297618Y-36635251D02*
X15202380Y-36682870D01*
X15202380Y-36682870D02*
X15154761Y-36730489D01*
X15154761Y-36730489D02*
X15107142Y-36825727D01*
X15107142Y-36825727D02*
X15107142Y-37063822D01*
X15107142Y-37063822D02*
X15154761Y-37159060D01*
X15154761Y-37159060D02*
X15202380Y-37206680D01*
X15202380Y-37206680D02*
X15297618Y-37254299D01*
X15297618Y-37254299D02*
X15535713Y-37254299D01*
X15535713Y-37254299D02*
X15630951Y-37206680D01*
X15630951Y-37206680D02*
X15678570Y-37159060D01*
X42095237Y-37254299D02*
X42095237Y-36254299D01*
X42095237Y-36254299D02*
X41857142Y-36254299D01*
X41857142Y-36254299D02*
X41714285Y-36301918D01*
X41714285Y-36301918D02*
X41619047Y-36397156D01*
X41619047Y-36397156D02*
X41571428Y-36492394D01*
X41571428Y-36492394D02*
X41523809Y-36682870D01*
X41523809Y-36682870D02*
X41523809Y-36825727D01*
X41523809Y-36825727D02*
X41571428Y-37016203D01*
X41571428Y-37016203D02*
X41619047Y-37111441D01*
X41619047Y-37111441D02*
X41714285Y-37206680D01*
X41714285Y-37206680D02*
X41857142Y-37254299D01*
X41857142Y-37254299D02*
X42095237Y-37254299D01*
X41333333Y-37349537D02*
X40571428Y-37349537D01*
X39809523Y-37254299D02*
X40380951Y-37254299D01*
X40095237Y-37254299D02*
X40095237Y-36254299D01*
X40095237Y-36254299D02*
X40190475Y-36397156D01*
X40190475Y-36397156D02*
X40285713Y-36492394D01*
X40285713Y-36492394D02*
X40380951Y-36540013D01*
X38952380Y-36254299D02*
X39142856Y-36254299D01*
X39142856Y-36254299D02*
X39238094Y-36301918D01*
X39238094Y-36301918D02*
X39285713Y-36349537D01*
X39285713Y-36349537D02*
X39380951Y-36492394D01*
X39380951Y-36492394D02*
X39428570Y-36682870D01*
X39428570Y-36682870D02*
X39428570Y-37063822D01*
X39428570Y-37063822D02*
X39380951Y-37159060D01*
X39380951Y-37159060D02*
X39333332Y-37206680D01*
X39333332Y-37206680D02*
X39238094Y-37254299D01*
X39238094Y-37254299D02*
X39047618Y-37254299D01*
X39047618Y-37254299D02*
X38952380Y-37206680D01*
X38952380Y-37206680D02*
X38904761Y-37159060D01*
X38904761Y-37159060D02*
X38857142Y-37063822D01*
X38857142Y-37063822D02*
X38857142Y-36825727D01*
X38857142Y-36825727D02*
X38904761Y-36730489D01*
X38904761Y-36730489D02*
X38952380Y-36682870D01*
X38952380Y-36682870D02*
X39047618Y-36635251D01*
X39047618Y-36635251D02*
X39238094Y-36635251D01*
X39238094Y-36635251D02*
X39333332Y-36682870D01*
X39333332Y-36682870D02*
X39380951Y-36730489D01*
X39380951Y-36730489D02*
X39428570Y-36825727D01*
X61145237Y-37254299D02*
X61145237Y-36254299D01*
X61145237Y-36254299D02*
X60907142Y-36254299D01*
X60907142Y-36254299D02*
X60764285Y-36301918D01*
X60764285Y-36301918D02*
X60669047Y-36397156D01*
X60669047Y-36397156D02*
X60621428Y-36492394D01*
X60621428Y-36492394D02*
X60573809Y-36682870D01*
X60573809Y-36682870D02*
X60573809Y-36825727D01*
X60573809Y-36825727D02*
X60621428Y-37016203D01*
X60621428Y-37016203D02*
X60669047Y-37111441D01*
X60669047Y-37111441D02*
X60764285Y-37206680D01*
X60764285Y-37206680D02*
X60907142Y-37254299D01*
X60907142Y-37254299D02*
X61145237Y-37254299D01*
X60383333Y-37349537D02*
X59621428Y-37349537D01*
X58859523Y-37254299D02*
X59430951Y-37254299D01*
X59145237Y-37254299D02*
X59145237Y-36254299D01*
X59145237Y-36254299D02*
X59240475Y-36397156D01*
X59240475Y-36397156D02*
X59335713Y-36492394D01*
X59335713Y-36492394D02*
X59430951Y-36540013D01*
X58526189Y-36254299D02*
X57859523Y-36254299D01*
X57859523Y-36254299D02*
X58288094Y-37254299D01*
X80195237Y-37254299D02*
X80195237Y-36254299D01*
X80195237Y-36254299D02*
X79957142Y-36254299D01*
X79957142Y-36254299D02*
X79814285Y-36301918D01*
X79814285Y-36301918D02*
X79719047Y-36397156D01*
X79719047Y-36397156D02*
X79671428Y-36492394D01*
X79671428Y-36492394D02*
X79623809Y-36682870D01*
X79623809Y-36682870D02*
X79623809Y-36825727D01*
X79623809Y-36825727D02*
X79671428Y-37016203D01*
X79671428Y-37016203D02*
X79719047Y-37111441D01*
X79719047Y-37111441D02*
X79814285Y-37206680D01*
X79814285Y-37206680D02*
X79957142Y-37254299D01*
X79957142Y-37254299D02*
X80195237Y-37254299D01*
X79433333Y-37349537D02*
X78671428Y-37349537D01*
X77909523Y-37254299D02*
X78480951Y-37254299D01*
X78195237Y-37254299D02*
X78195237Y-36254299D01*
X78195237Y-36254299D02*
X78290475Y-36397156D01*
X78290475Y-36397156D02*
X78385713Y-36492394D01*
X78385713Y-36492394D02*
X78480951Y-36540013D01*
X77338094Y-36682870D02*
X77433332Y-36635251D01*
X77433332Y-36635251D02*
X77480951Y-36587632D01*
X77480951Y-36587632D02*
X77528570Y-36492394D01*
X77528570Y-36492394D02*
X77528570Y-36444775D01*
X77528570Y-36444775D02*
X77480951Y-36349537D01*
X77480951Y-36349537D02*
X77433332Y-36301918D01*
X77433332Y-36301918D02*
X77338094Y-36254299D01*
X77338094Y-36254299D02*
X77147618Y-36254299D01*
X77147618Y-36254299D02*
X77052380Y-36301918D01*
X77052380Y-36301918D02*
X77004761Y-36349537D01*
X77004761Y-36349537D02*
X76957142Y-36444775D01*
X76957142Y-36444775D02*
X76957142Y-36492394D01*
X76957142Y-36492394D02*
X77004761Y-36587632D01*
X77004761Y-36587632D02*
X77052380Y-36635251D01*
X77052380Y-36635251D02*
X77147618Y-36682870D01*
X77147618Y-36682870D02*
X77338094Y-36682870D01*
X77338094Y-36682870D02*
X77433332Y-36730489D01*
X77433332Y-36730489D02*
X77480951Y-36778108D01*
X77480951Y-36778108D02*
X77528570Y-36873346D01*
X77528570Y-36873346D02*
X77528570Y-37063822D01*
X77528570Y-37063822D02*
X77480951Y-37159060D01*
X77480951Y-37159060D02*
X77433332Y-37206680D01*
X77433332Y-37206680D02*
X77338094Y-37254299D01*
X77338094Y-37254299D02*
X77147618Y-37254299D01*
X77147618Y-37254299D02*
X77052380Y-37206680D01*
X77052380Y-37206680D02*
X77004761Y-37159060D01*
X77004761Y-37159060D02*
X76957142Y-37063822D01*
X76957142Y-37063822D02*
X76957142Y-36873346D01*
X76957142Y-36873346D02*
X77004761Y-36778108D01*
X77004761Y-36778108D02*
X77052380Y-36730489D01*
X77052380Y-36730489D02*
X77147618Y-36682870D01*
X99245237Y-37254299D02*
X99245237Y-36254299D01*
X99245237Y-36254299D02*
X99007142Y-36254299D01*
X99007142Y-36254299D02*
X98864285Y-36301918D01*
X98864285Y-36301918D02*
X98769047Y-36397156D01*
X98769047Y-36397156D02*
X98721428Y-36492394D01*
X98721428Y-36492394D02*
X98673809Y-36682870D01*
X98673809Y-36682870D02*
X98673809Y-36825727D01*
X98673809Y-36825727D02*
X98721428Y-37016203D01*
X98721428Y-37016203D02*
X98769047Y-37111441D01*
X98769047Y-37111441D02*
X98864285Y-37206680D01*
X98864285Y-37206680D02*
X99007142Y-37254299D01*
X99007142Y-37254299D02*
X99245237Y-37254299D01*
X98483333Y-37349537D02*
X97721428Y-37349537D01*
X96959523Y-37254299D02*
X97530951Y-37254299D01*
X97245237Y-37254299D02*
X97245237Y-36254299D01*
X97245237Y-36254299D02*
X97340475Y-36397156D01*
X97340475Y-36397156D02*
X97435713Y-36492394D01*
X97435713Y-36492394D02*
X97530951Y-36540013D01*
X96483332Y-37254299D02*
X96292856Y-37254299D01*
X96292856Y-37254299D02*
X96197618Y-37206680D01*
X96197618Y-37206680D02*
X96149999Y-37159060D01*
X96149999Y-37159060D02*
X96054761Y-37016203D01*
X96054761Y-37016203D02*
X96007142Y-36825727D01*
X96007142Y-36825727D02*
X96007142Y-36444775D01*
X96007142Y-36444775D02*
X96054761Y-36349537D01*
X96054761Y-36349537D02*
X96102380Y-36301918D01*
X96102380Y-36301918D02*
X96197618Y-36254299D01*
X96197618Y-36254299D02*
X96388094Y-36254299D01*
X96388094Y-36254299D02*
X96483332Y-36301918D01*
X96483332Y-36301918D02*
X96530951Y-36349537D01*
X96530951Y-36349537D02*
X96578570Y-36444775D01*
X96578570Y-36444775D02*
X96578570Y-36682870D01*
X96578570Y-36682870D02*
X96530951Y-36778108D01*
X96530951Y-36778108D02*
X96483332Y-36825727D01*
X96483332Y-36825727D02*
X96388094Y-36873346D01*
X96388094Y-36873346D02*
X96197618Y-36873346D01*
X96197618Y-36873346D02*
X96102380Y-36825727D01*
X96102380Y-36825727D02*
X96054761Y-36778108D01*
X96054761Y-36778108D02*
X96007142Y-36682870D01*
X118295237Y-37254299D02*
X118295237Y-36254299D01*
X118295237Y-36254299D02*
X118057142Y-36254299D01*
X118057142Y-36254299D02*
X117914285Y-36301918D01*
X117914285Y-36301918D02*
X117819047Y-36397156D01*
X117819047Y-36397156D02*
X117771428Y-36492394D01*
X117771428Y-36492394D02*
X117723809Y-36682870D01*
X117723809Y-36682870D02*
X117723809Y-36825727D01*
X117723809Y-36825727D02*
X117771428Y-37016203D01*
X117771428Y-37016203D02*
X117819047Y-37111441D01*
X117819047Y-37111441D02*
X117914285Y-37206680D01*
X117914285Y-37206680D02*
X118057142Y-37254299D01*
X118057142Y-37254299D02*
X118295237Y-37254299D01*
X117533333Y-37349537D02*
X116771428Y-37349537D01*
X116580951Y-36349537D02*
X116533332Y-36301918D01*
X116533332Y-36301918D02*
X116438094Y-36254299D01*
X116438094Y-36254299D02*
X116199999Y-36254299D01*
X116199999Y-36254299D02*
X116104761Y-36301918D01*
X116104761Y-36301918D02*
X116057142Y-36349537D01*
X116057142Y-36349537D02*
X116009523Y-36444775D01*
X116009523Y-36444775D02*
X116009523Y-36540013D01*
X116009523Y-36540013D02*
X116057142Y-36682870D01*
X116057142Y-36682870D02*
X116628570Y-37254299D01*
X116628570Y-37254299D02*
X116009523Y-37254299D01*
X115390475Y-36254299D02*
X115295237Y-36254299D01*
X115295237Y-36254299D02*
X115199999Y-36301918D01*
X115199999Y-36301918D02*
X115152380Y-36349537D01*
X115152380Y-36349537D02*
X115104761Y-36444775D01*
X115104761Y-36444775D02*
X115057142Y-36635251D01*
X115057142Y-36635251D02*
X115057142Y-36873346D01*
X115057142Y-36873346D02*
X115104761Y-37063822D01*
X115104761Y-37063822D02*
X115152380Y-37159060D01*
X115152380Y-37159060D02*
X115199999Y-37206680D01*
X115199999Y-37206680D02*
X115295237Y-37254299D01*
X115295237Y-37254299D02*
X115390475Y-37254299D01*
X115390475Y-37254299D02*
X115485713Y-37206680D01*
X115485713Y-37206680D02*
X115533332Y-37159060D01*
X115533332Y-37159060D02*
X115580951Y-37063822D01*
X115580951Y-37063822D02*
X115628570Y-36873346D01*
X115628570Y-36873346D02*
X115628570Y-36635251D01*
X115628570Y-36635251D02*
X115580951Y-36444775D01*
X115580951Y-36444775D02*
X115533332Y-36349537D01*
X115533332Y-36349537D02*
X115485713Y-36301918D01*
X115485713Y-36301918D02*
X115390475Y-36254299D01*
X137345237Y-37254299D02*
X137345237Y-36254299D01*
X137345237Y-36254299D02*
X137107142Y-36254299D01*
X137107142Y-36254299D02*
X136964285Y-36301918D01*
X136964285Y-36301918D02*
X136869047Y-36397156D01*
X136869047Y-36397156D02*
X136821428Y-36492394D01*
X136821428Y-36492394D02*
X136773809Y-36682870D01*
X136773809Y-36682870D02*
X136773809Y-36825727D01*
X136773809Y-36825727D02*
X136821428Y-37016203D01*
X136821428Y-37016203D02*
X136869047Y-37111441D01*
X136869047Y-37111441D02*
X136964285Y-37206680D01*
X136964285Y-37206680D02*
X137107142Y-37254299D01*
X137107142Y-37254299D02*
X137345237Y-37254299D01*
X136583333Y-37349537D02*
X135821428Y-37349537D01*
X135630951Y-36349537D02*
X135583332Y-36301918D01*
X135583332Y-36301918D02*
X135488094Y-36254299D01*
X135488094Y-36254299D02*
X135249999Y-36254299D01*
X135249999Y-36254299D02*
X135154761Y-36301918D01*
X135154761Y-36301918D02*
X135107142Y-36349537D01*
X135107142Y-36349537D02*
X135059523Y-36444775D01*
X135059523Y-36444775D02*
X135059523Y-36540013D01*
X135059523Y-36540013D02*
X135107142Y-36682870D01*
X135107142Y-36682870D02*
X135678570Y-37254299D01*
X135678570Y-37254299D02*
X135059523Y-37254299D01*
X134107142Y-37254299D02*
X134678570Y-37254299D01*
X134392856Y-37254299D02*
X134392856Y-36254299D01*
X134392856Y-36254299D02*
X134488094Y-36397156D01*
X134488094Y-36397156D02*
X134583332Y-36492394D01*
X134583332Y-36492394D02*
X134678570Y-36540013D01*
X156395237Y-37254299D02*
X156395237Y-36254299D01*
X156395237Y-36254299D02*
X156157142Y-36254299D01*
X156157142Y-36254299D02*
X156014285Y-36301918D01*
X156014285Y-36301918D02*
X155919047Y-36397156D01*
X155919047Y-36397156D02*
X155871428Y-36492394D01*
X155871428Y-36492394D02*
X155823809Y-36682870D01*
X155823809Y-36682870D02*
X155823809Y-36825727D01*
X155823809Y-36825727D02*
X155871428Y-37016203D01*
X155871428Y-37016203D02*
X155919047Y-37111441D01*
X155919047Y-37111441D02*
X156014285Y-37206680D01*
X156014285Y-37206680D02*
X156157142Y-37254299D01*
X156157142Y-37254299D02*
X156395237Y-37254299D01*
X155633333Y-37349537D02*
X154871428Y-37349537D01*
X154680951Y-36349537D02*
X154633332Y-36301918D01*
X154633332Y-36301918D02*
X154538094Y-36254299D01*
X154538094Y-36254299D02*
X154299999Y-36254299D01*
X154299999Y-36254299D02*
X154204761Y-36301918D01*
X154204761Y-36301918D02*
X154157142Y-36349537D01*
X154157142Y-36349537D02*
X154109523Y-36444775D01*
X154109523Y-36444775D02*
X154109523Y-36540013D01*
X154109523Y-36540013D02*
X154157142Y-36682870D01*
X154157142Y-36682870D02*
X154728570Y-37254299D01*
X154728570Y-37254299D02*
X154109523Y-37254299D01*
X153728570Y-36349537D02*
X153680951Y-36301918D01*
X153680951Y-36301918D02*
X153585713Y-36254299D01*
X153585713Y-36254299D02*
X153347618Y-36254299D01*
X153347618Y-36254299D02*
X153252380Y-36301918D01*
X153252380Y-36301918D02*
X153204761Y-36349537D01*
X153204761Y-36349537D02*
X153157142Y-36444775D01*
X153157142Y-36444775D02*
X153157142Y-36540013D01*
X153157142Y-36540013D02*
X153204761Y-36682870D01*
X153204761Y-36682870D02*
X153776189Y-37254299D01*
X153776189Y-37254299D02*
X153157142Y-37254299D01*
X175445237Y-37254299D02*
X175445237Y-36254299D01*
X175445237Y-36254299D02*
X175207142Y-36254299D01*
X175207142Y-36254299D02*
X175064285Y-36301918D01*
X175064285Y-36301918D02*
X174969047Y-36397156D01*
X174969047Y-36397156D02*
X174921428Y-36492394D01*
X174921428Y-36492394D02*
X174873809Y-36682870D01*
X174873809Y-36682870D02*
X174873809Y-36825727D01*
X174873809Y-36825727D02*
X174921428Y-37016203D01*
X174921428Y-37016203D02*
X174969047Y-37111441D01*
X174969047Y-37111441D02*
X175064285Y-37206680D01*
X175064285Y-37206680D02*
X175207142Y-37254299D01*
X175207142Y-37254299D02*
X175445237Y-37254299D01*
X174683333Y-37349537D02*
X173921428Y-37349537D01*
X173730951Y-36349537D02*
X173683332Y-36301918D01*
X173683332Y-36301918D02*
X173588094Y-36254299D01*
X173588094Y-36254299D02*
X173349999Y-36254299D01*
X173349999Y-36254299D02*
X173254761Y-36301918D01*
X173254761Y-36301918D02*
X173207142Y-36349537D01*
X173207142Y-36349537D02*
X173159523Y-36444775D01*
X173159523Y-36444775D02*
X173159523Y-36540013D01*
X173159523Y-36540013D02*
X173207142Y-36682870D01*
X173207142Y-36682870D02*
X173778570Y-37254299D01*
X173778570Y-37254299D02*
X173159523Y-37254299D01*
X172826189Y-36254299D02*
X172207142Y-36254299D01*
X172207142Y-36254299D02*
X172540475Y-36635251D01*
X172540475Y-36635251D02*
X172397618Y-36635251D01*
X172397618Y-36635251D02*
X172302380Y-36682870D01*
X172302380Y-36682870D02*
X172254761Y-36730489D01*
X172254761Y-36730489D02*
X172207142Y-36825727D01*
X172207142Y-36825727D02*
X172207142Y-37063822D01*
X172207142Y-37063822D02*
X172254761Y-37159060D01*
X172254761Y-37159060D02*
X172302380Y-37206680D01*
X172302380Y-37206680D02*
X172397618Y-37254299D01*
X172397618Y-37254299D02*
X172683332Y-37254299D01*
X172683332Y-37254299D02*
X172778570Y-37206680D01*
X172778570Y-37206680D02*
X172826189Y-37159060D01*
X194495237Y-37254299D02*
X194495237Y-36254299D01*
X194495237Y-36254299D02*
X194257142Y-36254299D01*
X194257142Y-36254299D02*
X194114285Y-36301918D01*
X194114285Y-36301918D02*
X194019047Y-36397156D01*
X194019047Y-36397156D02*
X193971428Y-36492394D01*
X193971428Y-36492394D02*
X193923809Y-36682870D01*
X193923809Y-36682870D02*
X193923809Y-36825727D01*
X193923809Y-36825727D02*
X193971428Y-37016203D01*
X193971428Y-37016203D02*
X194019047Y-37111441D01*
X194019047Y-37111441D02*
X194114285Y-37206680D01*
X194114285Y-37206680D02*
X194257142Y-37254299D01*
X194257142Y-37254299D02*
X194495237Y-37254299D01*
X193733333Y-37349537D02*
X192971428Y-37349537D01*
X192780951Y-36349537D02*
X192733332Y-36301918D01*
X192733332Y-36301918D02*
X192638094Y-36254299D01*
X192638094Y-36254299D02*
X192399999Y-36254299D01*
X192399999Y-36254299D02*
X192304761Y-36301918D01*
X192304761Y-36301918D02*
X192257142Y-36349537D01*
X192257142Y-36349537D02*
X192209523Y-36444775D01*
X192209523Y-36444775D02*
X192209523Y-36540013D01*
X192209523Y-36540013D02*
X192257142Y-36682870D01*
X192257142Y-36682870D02*
X192828570Y-37254299D01*
X192828570Y-37254299D02*
X192209523Y-37254299D01*
X191352380Y-36587632D02*
X191352380Y-37254299D01*
X191590475Y-36206680D02*
X191828570Y-36920965D01*
X191828570Y-36920965D02*
X191209523Y-36920965D01*
X213545237Y-37254299D02*
X213545237Y-36254299D01*
X213545237Y-36254299D02*
X213307142Y-36254299D01*
X213307142Y-36254299D02*
X213164285Y-36301918D01*
X213164285Y-36301918D02*
X213069047Y-36397156D01*
X213069047Y-36397156D02*
X213021428Y-36492394D01*
X213021428Y-36492394D02*
X212973809Y-36682870D01*
X212973809Y-36682870D02*
X212973809Y-36825727D01*
X212973809Y-36825727D02*
X213021428Y-37016203D01*
X213021428Y-37016203D02*
X213069047Y-37111441D01*
X213069047Y-37111441D02*
X213164285Y-37206680D01*
X213164285Y-37206680D02*
X213307142Y-37254299D01*
X213307142Y-37254299D02*
X213545237Y-37254299D01*
X212783333Y-37349537D02*
X212021428Y-37349537D01*
X211830951Y-36349537D02*
X211783332Y-36301918D01*
X211783332Y-36301918D02*
X211688094Y-36254299D01*
X211688094Y-36254299D02*
X211449999Y-36254299D01*
X211449999Y-36254299D02*
X211354761Y-36301918D01*
X211354761Y-36301918D02*
X211307142Y-36349537D01*
X211307142Y-36349537D02*
X211259523Y-36444775D01*
X211259523Y-36444775D02*
X211259523Y-36540013D01*
X211259523Y-36540013D02*
X211307142Y-36682870D01*
X211307142Y-36682870D02*
X211878570Y-37254299D01*
X211878570Y-37254299D02*
X211259523Y-37254299D01*
X210354761Y-36254299D02*
X210830951Y-36254299D01*
X210830951Y-36254299D02*
X210878570Y-36730489D01*
X210878570Y-36730489D02*
X210830951Y-36682870D01*
X210830951Y-36682870D02*
X210735713Y-36635251D01*
X210735713Y-36635251D02*
X210497618Y-36635251D01*
X210497618Y-36635251D02*
X210402380Y-36682870D01*
X210402380Y-36682870D02*
X210354761Y-36730489D01*
X210354761Y-36730489D02*
X210307142Y-36825727D01*
X210307142Y-36825727D02*
X210307142Y-37063822D01*
X210307142Y-37063822D02*
X210354761Y-37159060D01*
X210354761Y-37159060D02*
X210402380Y-37206680D01*
X210402380Y-37206680D02*
X210497618Y-37254299D01*
X210497618Y-37254299D02*
X210735713Y-37254299D01*
X210735713Y-37254299D02*
X210830951Y-37206680D01*
X210830951Y-37206680D02*
X210878570Y-37159060D01*
X232595237Y-37254299D02*
X232595237Y-36254299D01*
X232595237Y-36254299D02*
X232357142Y-36254299D01*
X232357142Y-36254299D02*
X232214285Y-36301918D01*
X232214285Y-36301918D02*
X232119047Y-36397156D01*
X232119047Y-36397156D02*
X232071428Y-36492394D01*
X232071428Y-36492394D02*
X232023809Y-36682870D01*
X232023809Y-36682870D02*
X232023809Y-36825727D01*
X232023809Y-36825727D02*
X232071428Y-37016203D01*
X232071428Y-37016203D02*
X232119047Y-37111441D01*
X232119047Y-37111441D02*
X232214285Y-37206680D01*
X232214285Y-37206680D02*
X232357142Y-37254299D01*
X232357142Y-37254299D02*
X232595237Y-37254299D01*
X231833333Y-37349537D02*
X231071428Y-37349537D01*
X230880951Y-36349537D02*
X230833332Y-36301918D01*
X230833332Y-36301918D02*
X230738094Y-36254299D01*
X230738094Y-36254299D02*
X230499999Y-36254299D01*
X230499999Y-36254299D02*
X230404761Y-36301918D01*
X230404761Y-36301918D02*
X230357142Y-36349537D01*
X230357142Y-36349537D02*
X230309523Y-36444775D01*
X230309523Y-36444775D02*
X230309523Y-36540013D01*
X230309523Y-36540013D02*
X230357142Y-36682870D01*
X230357142Y-36682870D02*
X230928570Y-37254299D01*
X230928570Y-37254299D02*
X230309523Y-37254299D01*
X229452380Y-36254299D02*
X229642856Y-36254299D01*
X229642856Y-36254299D02*
X229738094Y-36301918D01*
X229738094Y-36301918D02*
X229785713Y-36349537D01*
X229785713Y-36349537D02*
X229880951Y-36492394D01*
X229880951Y-36492394D02*
X229928570Y-36682870D01*
X229928570Y-36682870D02*
X229928570Y-37063822D01*
X229928570Y-37063822D02*
X229880951Y-37159060D01*
X229880951Y-37159060D02*
X229833332Y-37206680D01*
X229833332Y-37206680D02*
X229738094Y-37254299D01*
X229738094Y-37254299D02*
X229547618Y-37254299D01*
X229547618Y-37254299D02*
X229452380Y-37206680D01*
X229452380Y-37206680D02*
X229404761Y-37159060D01*
X229404761Y-37159060D02*
X229357142Y-37063822D01*
X229357142Y-37063822D02*
X229357142Y-36825727D01*
X229357142Y-36825727D02*
X229404761Y-36730489D01*
X229404761Y-36730489D02*
X229452380Y-36682870D01*
X229452380Y-36682870D02*
X229547618Y-36635251D01*
X229547618Y-36635251D02*
X229738094Y-36635251D01*
X229738094Y-36635251D02*
X229833332Y-36682870D01*
X229833332Y-36682870D02*
X229880951Y-36730489D01*
X229880951Y-36730489D02*
X229928570Y-36825727D01*
X251595237Y-37254299D02*
X251595237Y-36254299D01*
X251595237Y-36254299D02*
X251357142Y-36254299D01*
X251357142Y-36254299D02*
X251214285Y-36301918D01*
X251214285Y-36301918D02*
X251119047Y-36397156D01*
X251119047Y-36397156D02*
X251071428Y-36492394D01*
X251071428Y-36492394D02*
X251023809Y-36682870D01*
X251023809Y-36682870D02*
X251023809Y-36825727D01*
X251023809Y-36825727D02*
X251071428Y-37016203D01*
X251071428Y-37016203D02*
X251119047Y-37111441D01*
X251119047Y-37111441D02*
X251214285Y-37206680D01*
X251214285Y-37206680D02*
X251357142Y-37254299D01*
X251357142Y-37254299D02*
X251595237Y-37254299D01*
X250833333Y-37349537D02*
X250071428Y-37349537D01*
X249880951Y-36349537D02*
X249833332Y-36301918D01*
X249833332Y-36301918D02*
X249738094Y-36254299D01*
X249738094Y-36254299D02*
X249499999Y-36254299D01*
X249499999Y-36254299D02*
X249404761Y-36301918D01*
X249404761Y-36301918D02*
X249357142Y-36349537D01*
X249357142Y-36349537D02*
X249309523Y-36444775D01*
X249309523Y-36444775D02*
X249309523Y-36540013D01*
X249309523Y-36540013D02*
X249357142Y-36682870D01*
X249357142Y-36682870D02*
X249928570Y-37254299D01*
X249928570Y-37254299D02*
X249309523Y-37254299D01*
X248976189Y-36254299D02*
X248309523Y-36254299D01*
X248309523Y-36254299D02*
X248738094Y-37254299D01*
X275595237Y-37254299D02*
X275595237Y-36254299D01*
X275595237Y-36254299D02*
X275357142Y-36254299D01*
X275357142Y-36254299D02*
X275214285Y-36301918D01*
X275214285Y-36301918D02*
X275119047Y-36397156D01*
X275119047Y-36397156D02*
X275071428Y-36492394D01*
X275071428Y-36492394D02*
X275023809Y-36682870D01*
X275023809Y-36682870D02*
X275023809Y-36825727D01*
X275023809Y-36825727D02*
X275071428Y-37016203D01*
X275071428Y-37016203D02*
X275119047Y-37111441D01*
X275119047Y-37111441D02*
X275214285Y-37206680D01*
X275214285Y-37206680D02*
X275357142Y-37254299D01*
X275357142Y-37254299D02*
X275595237Y-37254299D01*
X274833333Y-37349537D02*
X274071428Y-37349537D01*
X273880951Y-36349537D02*
X273833332Y-36301918D01*
X273833332Y-36301918D02*
X273738094Y-36254299D01*
X273738094Y-36254299D02*
X273499999Y-36254299D01*
X273499999Y-36254299D02*
X273404761Y-36301918D01*
X273404761Y-36301918D02*
X273357142Y-36349537D01*
X273357142Y-36349537D02*
X273309523Y-36444775D01*
X273309523Y-36444775D02*
X273309523Y-36540013D01*
X273309523Y-36540013D02*
X273357142Y-36682870D01*
X273357142Y-36682870D02*
X273928570Y-37254299D01*
X273928570Y-37254299D02*
X273309523Y-37254299D01*
X272738094Y-36682870D02*
X272833332Y-36635251D01*
X272833332Y-36635251D02*
X272880951Y-36587632D01*
X272880951Y-36587632D02*
X272928570Y-36492394D01*
X272928570Y-36492394D02*
X272928570Y-36444775D01*
X272928570Y-36444775D02*
X272880951Y-36349537D01*
X272880951Y-36349537D02*
X272833332Y-36301918D01*
X272833332Y-36301918D02*
X272738094Y-36254299D01*
X272738094Y-36254299D02*
X272547618Y-36254299D01*
X272547618Y-36254299D02*
X272452380Y-36301918D01*
X272452380Y-36301918D02*
X272404761Y-36349537D01*
X272404761Y-36349537D02*
X272357142Y-36444775D01*
X272357142Y-36444775D02*
X272357142Y-36492394D01*
X272357142Y-36492394D02*
X272404761Y-36587632D01*
X272404761Y-36587632D02*
X272452380Y-36635251D01*
X272452380Y-36635251D02*
X272547618Y-36682870D01*
X272547618Y-36682870D02*
X272738094Y-36682870D01*
X272738094Y-36682870D02*
X272833332Y-36730489D01*
X272833332Y-36730489D02*
X272880951Y-36778108D01*
X272880951Y-36778108D02*
X272928570Y-36873346D01*
X272928570Y-36873346D02*
X272928570Y-37063822D01*
X272928570Y-37063822D02*
X272880951Y-37159060D01*
X272880951Y-37159060D02*
X272833332Y-37206680D01*
X272833332Y-37206680D02*
X272738094Y-37254299D01*
X272738094Y-37254299D02*
X272547618Y-37254299D01*
X272547618Y-37254299D02*
X272452380Y-37206680D01*
X272452380Y-37206680D02*
X272404761Y-37159060D01*
X272404761Y-37159060D02*
X272357142Y-37063822D01*
X272357142Y-37063822D02*
X272357142Y-36873346D01*
X272357142Y-36873346D02*
X272404761Y-36778108D01*
X272404761Y-36778108D02*
X272452380Y-36730489D01*
X272452380Y-36730489D02*
X272547618Y-36682870D01*
X20845237Y-56504299D02*
X20845237Y-55504299D01*
X20845237Y-55504299D02*
X20607142Y-55504299D01*
X20607142Y-55504299D02*
X20464285Y-55551918D01*
X20464285Y-55551918D02*
X20369047Y-55647156D01*
X20369047Y-55647156D02*
X20321428Y-55742394D01*
X20321428Y-55742394D02*
X20273809Y-55932870D01*
X20273809Y-55932870D02*
X20273809Y-56075727D01*
X20273809Y-56075727D02*
X20321428Y-56266203D01*
X20321428Y-56266203D02*
X20369047Y-56361441D01*
X20369047Y-56361441D02*
X20464285Y-56456680D01*
X20464285Y-56456680D02*
X20607142Y-56504299D01*
X20607142Y-56504299D02*
X20845237Y-56504299D01*
X20083333Y-56599537D02*
X19321428Y-56599537D01*
X19130951Y-55599537D02*
X19083332Y-55551918D01*
X19083332Y-55551918D02*
X18988094Y-55504299D01*
X18988094Y-55504299D02*
X18749999Y-55504299D01*
X18749999Y-55504299D02*
X18654761Y-55551918D01*
X18654761Y-55551918D02*
X18607142Y-55599537D01*
X18607142Y-55599537D02*
X18559523Y-55694775D01*
X18559523Y-55694775D02*
X18559523Y-55790013D01*
X18559523Y-55790013D02*
X18607142Y-55932870D01*
X18607142Y-55932870D02*
X19178570Y-56504299D01*
X19178570Y-56504299D02*
X18559523Y-56504299D01*
X18083332Y-56504299D02*
X17892856Y-56504299D01*
X17892856Y-56504299D02*
X17797618Y-56456680D01*
X17797618Y-56456680D02*
X17749999Y-56409060D01*
X17749999Y-56409060D02*
X17654761Y-56266203D01*
X17654761Y-56266203D02*
X17607142Y-56075727D01*
X17607142Y-56075727D02*
X17607142Y-55694775D01*
X17607142Y-55694775D02*
X17654761Y-55599537D01*
X17654761Y-55599537D02*
X17702380Y-55551918D01*
X17702380Y-55551918D02*
X17797618Y-55504299D01*
X17797618Y-55504299D02*
X17988094Y-55504299D01*
X17988094Y-55504299D02*
X18083332Y-55551918D01*
X18083332Y-55551918D02*
X18130951Y-55599537D01*
X18130951Y-55599537D02*
X18178570Y-55694775D01*
X18178570Y-55694775D02*
X18178570Y-55932870D01*
X18178570Y-55932870D02*
X18130951Y-56028108D01*
X18130951Y-56028108D02*
X18083332Y-56075727D01*
X18083332Y-56075727D02*
X17988094Y-56123346D01*
X17988094Y-56123346D02*
X17797618Y-56123346D01*
X17797618Y-56123346D02*
X17702380Y-56075727D01*
X17702380Y-56075727D02*
X17654761Y-56028108D01*
X17654761Y-56028108D02*
X17607142Y-55932870D01*
X46845237Y-56504299D02*
X46845237Y-55504299D01*
X46845237Y-55504299D02*
X46607142Y-55504299D01*
X46607142Y-55504299D02*
X46464285Y-55551918D01*
X46464285Y-55551918D02*
X46369047Y-55647156D01*
X46369047Y-55647156D02*
X46321428Y-55742394D01*
X46321428Y-55742394D02*
X46273809Y-55932870D01*
X46273809Y-55932870D02*
X46273809Y-56075727D01*
X46273809Y-56075727D02*
X46321428Y-56266203D01*
X46321428Y-56266203D02*
X46369047Y-56361441D01*
X46369047Y-56361441D02*
X46464285Y-56456680D01*
X46464285Y-56456680D02*
X46607142Y-56504299D01*
X46607142Y-56504299D02*
X46845237Y-56504299D01*
X46083333Y-56599537D02*
X45321428Y-56599537D01*
X45178570Y-55504299D02*
X44559523Y-55504299D01*
X44559523Y-55504299D02*
X44892856Y-55885251D01*
X44892856Y-55885251D02*
X44749999Y-55885251D01*
X44749999Y-55885251D02*
X44654761Y-55932870D01*
X44654761Y-55932870D02*
X44607142Y-55980489D01*
X44607142Y-55980489D02*
X44559523Y-56075727D01*
X44559523Y-56075727D02*
X44559523Y-56313822D01*
X44559523Y-56313822D02*
X44607142Y-56409060D01*
X44607142Y-56409060D02*
X44654761Y-56456680D01*
X44654761Y-56456680D02*
X44749999Y-56504299D01*
X44749999Y-56504299D02*
X45035713Y-56504299D01*
X45035713Y-56504299D02*
X45130951Y-56456680D01*
X45130951Y-56456680D02*
X45178570Y-56409060D01*
X43940475Y-55504299D02*
X43845237Y-55504299D01*
X43845237Y-55504299D02*
X43749999Y-55551918D01*
X43749999Y-55551918D02*
X43702380Y-55599537D01*
X43702380Y-55599537D02*
X43654761Y-55694775D01*
X43654761Y-55694775D02*
X43607142Y-55885251D01*
X43607142Y-55885251D02*
X43607142Y-56123346D01*
X43607142Y-56123346D02*
X43654761Y-56313822D01*
X43654761Y-56313822D02*
X43702380Y-56409060D01*
X43702380Y-56409060D02*
X43749999Y-56456680D01*
X43749999Y-56456680D02*
X43845237Y-56504299D01*
X43845237Y-56504299D02*
X43940475Y-56504299D01*
X43940475Y-56504299D02*
X44035713Y-56456680D01*
X44035713Y-56456680D02*
X44083332Y-56409060D01*
X44083332Y-56409060D02*
X44130951Y-56313822D01*
X44130951Y-56313822D02*
X44178570Y-56123346D01*
X44178570Y-56123346D02*
X44178570Y-55885251D01*
X44178570Y-55885251D02*
X44130951Y-55694775D01*
X44130951Y-55694775D02*
X44083332Y-55599537D01*
X44083332Y-55599537D02*
X44035713Y-55551918D01*
X44035713Y-55551918D02*
X43940475Y-55504299D01*
X65895237Y-56504299D02*
X65895237Y-55504299D01*
X65895237Y-55504299D02*
X65657142Y-55504299D01*
X65657142Y-55504299D02*
X65514285Y-55551918D01*
X65514285Y-55551918D02*
X65419047Y-55647156D01*
X65419047Y-55647156D02*
X65371428Y-55742394D01*
X65371428Y-55742394D02*
X65323809Y-55932870D01*
X65323809Y-55932870D02*
X65323809Y-56075727D01*
X65323809Y-56075727D02*
X65371428Y-56266203D01*
X65371428Y-56266203D02*
X65419047Y-56361441D01*
X65419047Y-56361441D02*
X65514285Y-56456680D01*
X65514285Y-56456680D02*
X65657142Y-56504299D01*
X65657142Y-56504299D02*
X65895237Y-56504299D01*
X65133333Y-56599537D02*
X64371428Y-56599537D01*
X64228570Y-55504299D02*
X63609523Y-55504299D01*
X63609523Y-55504299D02*
X63942856Y-55885251D01*
X63942856Y-55885251D02*
X63799999Y-55885251D01*
X63799999Y-55885251D02*
X63704761Y-55932870D01*
X63704761Y-55932870D02*
X63657142Y-55980489D01*
X63657142Y-55980489D02*
X63609523Y-56075727D01*
X63609523Y-56075727D02*
X63609523Y-56313822D01*
X63609523Y-56313822D02*
X63657142Y-56409060D01*
X63657142Y-56409060D02*
X63704761Y-56456680D01*
X63704761Y-56456680D02*
X63799999Y-56504299D01*
X63799999Y-56504299D02*
X64085713Y-56504299D01*
X64085713Y-56504299D02*
X64180951Y-56456680D01*
X64180951Y-56456680D02*
X64228570Y-56409060D01*
X62657142Y-56504299D02*
X63228570Y-56504299D01*
X62942856Y-56504299D02*
X62942856Y-55504299D01*
X62942856Y-55504299D02*
X63038094Y-55647156D01*
X63038094Y-55647156D02*
X63133332Y-55742394D01*
X63133332Y-55742394D02*
X63228570Y-55790013D01*
X84945237Y-56504299D02*
X84945237Y-55504299D01*
X84945237Y-55504299D02*
X84707142Y-55504299D01*
X84707142Y-55504299D02*
X84564285Y-55551918D01*
X84564285Y-55551918D02*
X84469047Y-55647156D01*
X84469047Y-55647156D02*
X84421428Y-55742394D01*
X84421428Y-55742394D02*
X84373809Y-55932870D01*
X84373809Y-55932870D02*
X84373809Y-56075727D01*
X84373809Y-56075727D02*
X84421428Y-56266203D01*
X84421428Y-56266203D02*
X84469047Y-56361441D01*
X84469047Y-56361441D02*
X84564285Y-56456680D01*
X84564285Y-56456680D02*
X84707142Y-56504299D01*
X84707142Y-56504299D02*
X84945237Y-56504299D01*
X84183333Y-56599537D02*
X83421428Y-56599537D01*
X83278570Y-55504299D02*
X82659523Y-55504299D01*
X82659523Y-55504299D02*
X82992856Y-55885251D01*
X82992856Y-55885251D02*
X82849999Y-55885251D01*
X82849999Y-55885251D02*
X82754761Y-55932870D01*
X82754761Y-55932870D02*
X82707142Y-55980489D01*
X82707142Y-55980489D02*
X82659523Y-56075727D01*
X82659523Y-56075727D02*
X82659523Y-56313822D01*
X82659523Y-56313822D02*
X82707142Y-56409060D01*
X82707142Y-56409060D02*
X82754761Y-56456680D01*
X82754761Y-56456680D02*
X82849999Y-56504299D01*
X82849999Y-56504299D02*
X83135713Y-56504299D01*
X83135713Y-56504299D02*
X83230951Y-56456680D01*
X83230951Y-56456680D02*
X83278570Y-56409060D01*
X82278570Y-55599537D02*
X82230951Y-55551918D01*
X82230951Y-55551918D02*
X82135713Y-55504299D01*
X82135713Y-55504299D02*
X81897618Y-55504299D01*
X81897618Y-55504299D02*
X81802380Y-55551918D01*
X81802380Y-55551918D02*
X81754761Y-55599537D01*
X81754761Y-55599537D02*
X81707142Y-55694775D01*
X81707142Y-55694775D02*
X81707142Y-55790013D01*
X81707142Y-55790013D02*
X81754761Y-55932870D01*
X81754761Y-55932870D02*
X82326189Y-56504299D01*
X82326189Y-56504299D02*
X81707142Y-56504299D01*
X103995237Y-56504299D02*
X103995237Y-55504299D01*
X103995237Y-55504299D02*
X103757142Y-55504299D01*
X103757142Y-55504299D02*
X103614285Y-55551918D01*
X103614285Y-55551918D02*
X103519047Y-55647156D01*
X103519047Y-55647156D02*
X103471428Y-55742394D01*
X103471428Y-55742394D02*
X103423809Y-55932870D01*
X103423809Y-55932870D02*
X103423809Y-56075727D01*
X103423809Y-56075727D02*
X103471428Y-56266203D01*
X103471428Y-56266203D02*
X103519047Y-56361441D01*
X103519047Y-56361441D02*
X103614285Y-56456680D01*
X103614285Y-56456680D02*
X103757142Y-56504299D01*
X103757142Y-56504299D02*
X103995237Y-56504299D01*
X103233333Y-56599537D02*
X102471428Y-56599537D01*
X102328570Y-55504299D02*
X101709523Y-55504299D01*
X101709523Y-55504299D02*
X102042856Y-55885251D01*
X102042856Y-55885251D02*
X101899999Y-55885251D01*
X101899999Y-55885251D02*
X101804761Y-55932870D01*
X101804761Y-55932870D02*
X101757142Y-55980489D01*
X101757142Y-55980489D02*
X101709523Y-56075727D01*
X101709523Y-56075727D02*
X101709523Y-56313822D01*
X101709523Y-56313822D02*
X101757142Y-56409060D01*
X101757142Y-56409060D02*
X101804761Y-56456680D01*
X101804761Y-56456680D02*
X101899999Y-56504299D01*
X101899999Y-56504299D02*
X102185713Y-56504299D01*
X102185713Y-56504299D02*
X102280951Y-56456680D01*
X102280951Y-56456680D02*
X102328570Y-56409060D01*
X101376189Y-55504299D02*
X100757142Y-55504299D01*
X100757142Y-55504299D02*
X101090475Y-55885251D01*
X101090475Y-55885251D02*
X100947618Y-55885251D01*
X100947618Y-55885251D02*
X100852380Y-55932870D01*
X100852380Y-55932870D02*
X100804761Y-55980489D01*
X100804761Y-55980489D02*
X100757142Y-56075727D01*
X100757142Y-56075727D02*
X100757142Y-56313822D01*
X100757142Y-56313822D02*
X100804761Y-56409060D01*
X100804761Y-56409060D02*
X100852380Y-56456680D01*
X100852380Y-56456680D02*
X100947618Y-56504299D01*
X100947618Y-56504299D02*
X101233332Y-56504299D01*
X101233332Y-56504299D02*
X101328570Y-56456680D01*
X101328570Y-56456680D02*
X101376189Y-56409060D01*
X123095237Y-56504299D02*
X123095237Y-55504299D01*
X123095237Y-55504299D02*
X122857142Y-55504299D01*
X122857142Y-55504299D02*
X122714285Y-55551918D01*
X122714285Y-55551918D02*
X122619047Y-55647156D01*
X122619047Y-55647156D02*
X122571428Y-55742394D01*
X122571428Y-55742394D02*
X122523809Y-55932870D01*
X122523809Y-55932870D02*
X122523809Y-56075727D01*
X122523809Y-56075727D02*
X122571428Y-56266203D01*
X122571428Y-56266203D02*
X122619047Y-56361441D01*
X122619047Y-56361441D02*
X122714285Y-56456680D01*
X122714285Y-56456680D02*
X122857142Y-56504299D01*
X122857142Y-56504299D02*
X123095237Y-56504299D01*
X122333333Y-56599537D02*
X121571428Y-56599537D01*
X121428570Y-55504299D02*
X120809523Y-55504299D01*
X120809523Y-55504299D02*
X121142856Y-55885251D01*
X121142856Y-55885251D02*
X120999999Y-55885251D01*
X120999999Y-55885251D02*
X120904761Y-55932870D01*
X120904761Y-55932870D02*
X120857142Y-55980489D01*
X120857142Y-55980489D02*
X120809523Y-56075727D01*
X120809523Y-56075727D02*
X120809523Y-56313822D01*
X120809523Y-56313822D02*
X120857142Y-56409060D01*
X120857142Y-56409060D02*
X120904761Y-56456680D01*
X120904761Y-56456680D02*
X120999999Y-56504299D01*
X120999999Y-56504299D02*
X121285713Y-56504299D01*
X121285713Y-56504299D02*
X121380951Y-56456680D01*
X121380951Y-56456680D02*
X121428570Y-56409060D01*
X119952380Y-55837632D02*
X119952380Y-56504299D01*
X120190475Y-55456680D02*
X120428570Y-56170965D01*
X120428570Y-56170965D02*
X119809523Y-56170965D01*
X142095237Y-56504299D02*
X142095237Y-55504299D01*
X142095237Y-55504299D02*
X141857142Y-55504299D01*
X141857142Y-55504299D02*
X141714285Y-55551918D01*
X141714285Y-55551918D02*
X141619047Y-55647156D01*
X141619047Y-55647156D02*
X141571428Y-55742394D01*
X141571428Y-55742394D02*
X141523809Y-55932870D01*
X141523809Y-55932870D02*
X141523809Y-56075727D01*
X141523809Y-56075727D02*
X141571428Y-56266203D01*
X141571428Y-56266203D02*
X141619047Y-56361441D01*
X141619047Y-56361441D02*
X141714285Y-56456680D01*
X141714285Y-56456680D02*
X141857142Y-56504299D01*
X141857142Y-56504299D02*
X142095237Y-56504299D01*
X141333333Y-56599537D02*
X140571428Y-56599537D01*
X140428570Y-55504299D02*
X139809523Y-55504299D01*
X139809523Y-55504299D02*
X140142856Y-55885251D01*
X140142856Y-55885251D02*
X139999999Y-55885251D01*
X139999999Y-55885251D02*
X139904761Y-55932870D01*
X139904761Y-55932870D02*
X139857142Y-55980489D01*
X139857142Y-55980489D02*
X139809523Y-56075727D01*
X139809523Y-56075727D02*
X139809523Y-56313822D01*
X139809523Y-56313822D02*
X139857142Y-56409060D01*
X139857142Y-56409060D02*
X139904761Y-56456680D01*
X139904761Y-56456680D02*
X139999999Y-56504299D01*
X139999999Y-56504299D02*
X140285713Y-56504299D01*
X140285713Y-56504299D02*
X140380951Y-56456680D01*
X140380951Y-56456680D02*
X140428570Y-56409060D01*
X138904761Y-55504299D02*
X139380951Y-55504299D01*
X139380951Y-55504299D02*
X139428570Y-55980489D01*
X139428570Y-55980489D02*
X139380951Y-55932870D01*
X139380951Y-55932870D02*
X139285713Y-55885251D01*
X139285713Y-55885251D02*
X139047618Y-55885251D01*
X139047618Y-55885251D02*
X138952380Y-55932870D01*
X138952380Y-55932870D02*
X138904761Y-55980489D01*
X138904761Y-55980489D02*
X138857142Y-56075727D01*
X138857142Y-56075727D02*
X138857142Y-56313822D01*
X138857142Y-56313822D02*
X138904761Y-56409060D01*
X138904761Y-56409060D02*
X138952380Y-56456680D01*
X138952380Y-56456680D02*
X139047618Y-56504299D01*
X139047618Y-56504299D02*
X139285713Y-56504299D01*
X139285713Y-56504299D02*
X139380951Y-56456680D01*
X139380951Y-56456680D02*
X139428570Y-56409060D01*
X161145237Y-56504299D02*
X161145237Y-55504299D01*
X161145237Y-55504299D02*
X160907142Y-55504299D01*
X160907142Y-55504299D02*
X160764285Y-55551918D01*
X160764285Y-55551918D02*
X160669047Y-55647156D01*
X160669047Y-55647156D02*
X160621428Y-55742394D01*
X160621428Y-55742394D02*
X160573809Y-55932870D01*
X160573809Y-55932870D02*
X160573809Y-56075727D01*
X160573809Y-56075727D02*
X160621428Y-56266203D01*
X160621428Y-56266203D02*
X160669047Y-56361441D01*
X160669047Y-56361441D02*
X160764285Y-56456680D01*
X160764285Y-56456680D02*
X160907142Y-56504299D01*
X160907142Y-56504299D02*
X161145237Y-56504299D01*
X160383333Y-56599537D02*
X159621428Y-56599537D01*
X159478570Y-55504299D02*
X158859523Y-55504299D01*
X158859523Y-55504299D02*
X159192856Y-55885251D01*
X159192856Y-55885251D02*
X159049999Y-55885251D01*
X159049999Y-55885251D02*
X158954761Y-55932870D01*
X158954761Y-55932870D02*
X158907142Y-55980489D01*
X158907142Y-55980489D02*
X158859523Y-56075727D01*
X158859523Y-56075727D02*
X158859523Y-56313822D01*
X158859523Y-56313822D02*
X158907142Y-56409060D01*
X158907142Y-56409060D02*
X158954761Y-56456680D01*
X158954761Y-56456680D02*
X159049999Y-56504299D01*
X159049999Y-56504299D02*
X159335713Y-56504299D01*
X159335713Y-56504299D02*
X159430951Y-56456680D01*
X159430951Y-56456680D02*
X159478570Y-56409060D01*
X158002380Y-55504299D02*
X158192856Y-55504299D01*
X158192856Y-55504299D02*
X158288094Y-55551918D01*
X158288094Y-55551918D02*
X158335713Y-55599537D01*
X158335713Y-55599537D02*
X158430951Y-55742394D01*
X158430951Y-55742394D02*
X158478570Y-55932870D01*
X158478570Y-55932870D02*
X158478570Y-56313822D01*
X158478570Y-56313822D02*
X158430951Y-56409060D01*
X158430951Y-56409060D02*
X158383332Y-56456680D01*
X158383332Y-56456680D02*
X158288094Y-56504299D01*
X158288094Y-56504299D02*
X158097618Y-56504299D01*
X158097618Y-56504299D02*
X158002380Y-56456680D01*
X158002380Y-56456680D02*
X157954761Y-56409060D01*
X157954761Y-56409060D02*
X157907142Y-56313822D01*
X157907142Y-56313822D02*
X157907142Y-56075727D01*
X157907142Y-56075727D02*
X157954761Y-55980489D01*
X157954761Y-55980489D02*
X158002380Y-55932870D01*
X158002380Y-55932870D02*
X158097618Y-55885251D01*
X158097618Y-55885251D02*
X158288094Y-55885251D01*
X158288094Y-55885251D02*
X158383332Y-55932870D01*
X158383332Y-55932870D02*
X158430951Y-55980489D01*
X158430951Y-55980489D02*
X158478570Y-56075727D01*
X180195237Y-56504299D02*
X180195237Y-55504299D01*
X180195237Y-55504299D02*
X179957142Y-55504299D01*
X179957142Y-55504299D02*
X179814285Y-55551918D01*
X179814285Y-55551918D02*
X179719047Y-55647156D01*
X179719047Y-55647156D02*
X179671428Y-55742394D01*
X179671428Y-55742394D02*
X179623809Y-55932870D01*
X179623809Y-55932870D02*
X179623809Y-56075727D01*
X179623809Y-56075727D02*
X179671428Y-56266203D01*
X179671428Y-56266203D02*
X179719047Y-56361441D01*
X179719047Y-56361441D02*
X179814285Y-56456680D01*
X179814285Y-56456680D02*
X179957142Y-56504299D01*
X179957142Y-56504299D02*
X180195237Y-56504299D01*
X179433333Y-56599537D02*
X178671428Y-56599537D01*
X178528570Y-55504299D02*
X177909523Y-55504299D01*
X177909523Y-55504299D02*
X178242856Y-55885251D01*
X178242856Y-55885251D02*
X178099999Y-55885251D01*
X178099999Y-55885251D02*
X178004761Y-55932870D01*
X178004761Y-55932870D02*
X177957142Y-55980489D01*
X177957142Y-55980489D02*
X177909523Y-56075727D01*
X177909523Y-56075727D02*
X177909523Y-56313822D01*
X177909523Y-56313822D02*
X177957142Y-56409060D01*
X177957142Y-56409060D02*
X178004761Y-56456680D01*
X178004761Y-56456680D02*
X178099999Y-56504299D01*
X178099999Y-56504299D02*
X178385713Y-56504299D01*
X178385713Y-56504299D02*
X178480951Y-56456680D01*
X178480951Y-56456680D02*
X178528570Y-56409060D01*
X177576189Y-55504299D02*
X176909523Y-55504299D01*
X176909523Y-55504299D02*
X177338094Y-56504299D01*
X199245237Y-56504299D02*
X199245237Y-55504299D01*
X199245237Y-55504299D02*
X199007142Y-55504299D01*
X199007142Y-55504299D02*
X198864285Y-55551918D01*
X198864285Y-55551918D02*
X198769047Y-55647156D01*
X198769047Y-55647156D02*
X198721428Y-55742394D01*
X198721428Y-55742394D02*
X198673809Y-55932870D01*
X198673809Y-55932870D02*
X198673809Y-56075727D01*
X198673809Y-56075727D02*
X198721428Y-56266203D01*
X198721428Y-56266203D02*
X198769047Y-56361441D01*
X198769047Y-56361441D02*
X198864285Y-56456680D01*
X198864285Y-56456680D02*
X199007142Y-56504299D01*
X199007142Y-56504299D02*
X199245237Y-56504299D01*
X198483333Y-56599537D02*
X197721428Y-56599537D01*
X197578570Y-55504299D02*
X196959523Y-55504299D01*
X196959523Y-55504299D02*
X197292856Y-55885251D01*
X197292856Y-55885251D02*
X197149999Y-55885251D01*
X197149999Y-55885251D02*
X197054761Y-55932870D01*
X197054761Y-55932870D02*
X197007142Y-55980489D01*
X197007142Y-55980489D02*
X196959523Y-56075727D01*
X196959523Y-56075727D02*
X196959523Y-56313822D01*
X196959523Y-56313822D02*
X197007142Y-56409060D01*
X197007142Y-56409060D02*
X197054761Y-56456680D01*
X197054761Y-56456680D02*
X197149999Y-56504299D01*
X197149999Y-56504299D02*
X197435713Y-56504299D01*
X197435713Y-56504299D02*
X197530951Y-56456680D01*
X197530951Y-56456680D02*
X197578570Y-56409060D01*
X196388094Y-55932870D02*
X196483332Y-55885251D01*
X196483332Y-55885251D02*
X196530951Y-55837632D01*
X196530951Y-55837632D02*
X196578570Y-55742394D01*
X196578570Y-55742394D02*
X196578570Y-55694775D01*
X196578570Y-55694775D02*
X196530951Y-55599537D01*
X196530951Y-55599537D02*
X196483332Y-55551918D01*
X196483332Y-55551918D02*
X196388094Y-55504299D01*
X196388094Y-55504299D02*
X196197618Y-55504299D01*
X196197618Y-55504299D02*
X196102380Y-55551918D01*
X196102380Y-55551918D02*
X196054761Y-55599537D01*
X196054761Y-55599537D02*
X196007142Y-55694775D01*
X196007142Y-55694775D02*
X196007142Y-55742394D01*
X196007142Y-55742394D02*
X196054761Y-55837632D01*
X196054761Y-55837632D02*
X196102380Y-55885251D01*
X196102380Y-55885251D02*
X196197618Y-55932870D01*
X196197618Y-55932870D02*
X196388094Y-55932870D01*
X196388094Y-55932870D02*
X196483332Y-55980489D01*
X196483332Y-55980489D02*
X196530951Y-56028108D01*
X196530951Y-56028108D02*
X196578570Y-56123346D01*
X196578570Y-56123346D02*
X196578570Y-56313822D01*
X196578570Y-56313822D02*
X196530951Y-56409060D01*
X196530951Y-56409060D02*
X196483332Y-56456680D01*
X196483332Y-56456680D02*
X196388094Y-56504299D01*
X196388094Y-56504299D02*
X196197618Y-56504299D01*
X196197618Y-56504299D02*
X196102380Y-56456680D01*
X196102380Y-56456680D02*
X196054761Y-56409060D01*
X196054761Y-56409060D02*
X196007142Y-56313822D01*
X196007142Y-56313822D02*
X196007142Y-56123346D01*
X196007142Y-56123346D02*
X196054761Y-56028108D01*
X196054761Y-56028108D02*
X196102380Y-55980489D01*
X196102380Y-55980489D02*
X196197618Y-55932870D01*
X218295237Y-56504299D02*
X218295237Y-55504299D01*
X218295237Y-55504299D02*
X218057142Y-55504299D01*
X218057142Y-55504299D02*
X217914285Y-55551918D01*
X217914285Y-55551918D02*
X217819047Y-55647156D01*
X217819047Y-55647156D02*
X217771428Y-55742394D01*
X217771428Y-55742394D02*
X217723809Y-55932870D01*
X217723809Y-55932870D02*
X217723809Y-56075727D01*
X217723809Y-56075727D02*
X217771428Y-56266203D01*
X217771428Y-56266203D02*
X217819047Y-56361441D01*
X217819047Y-56361441D02*
X217914285Y-56456680D01*
X217914285Y-56456680D02*
X218057142Y-56504299D01*
X218057142Y-56504299D02*
X218295237Y-56504299D01*
X217533333Y-56599537D02*
X216771428Y-56599537D01*
X216628570Y-55504299D02*
X216009523Y-55504299D01*
X216009523Y-55504299D02*
X216342856Y-55885251D01*
X216342856Y-55885251D02*
X216199999Y-55885251D01*
X216199999Y-55885251D02*
X216104761Y-55932870D01*
X216104761Y-55932870D02*
X216057142Y-55980489D01*
X216057142Y-55980489D02*
X216009523Y-56075727D01*
X216009523Y-56075727D02*
X216009523Y-56313822D01*
X216009523Y-56313822D02*
X216057142Y-56409060D01*
X216057142Y-56409060D02*
X216104761Y-56456680D01*
X216104761Y-56456680D02*
X216199999Y-56504299D01*
X216199999Y-56504299D02*
X216485713Y-56504299D01*
X216485713Y-56504299D02*
X216580951Y-56456680D01*
X216580951Y-56456680D02*
X216628570Y-56409060D01*
X215533332Y-56504299D02*
X215342856Y-56504299D01*
X215342856Y-56504299D02*
X215247618Y-56456680D01*
X215247618Y-56456680D02*
X215199999Y-56409060D01*
X215199999Y-56409060D02*
X215104761Y-56266203D01*
X215104761Y-56266203D02*
X215057142Y-56075727D01*
X215057142Y-56075727D02*
X215057142Y-55694775D01*
X215057142Y-55694775D02*
X215104761Y-55599537D01*
X215104761Y-55599537D02*
X215152380Y-55551918D01*
X215152380Y-55551918D02*
X215247618Y-55504299D01*
X215247618Y-55504299D02*
X215438094Y-55504299D01*
X215438094Y-55504299D02*
X215533332Y-55551918D01*
X215533332Y-55551918D02*
X215580951Y-55599537D01*
X215580951Y-55599537D02*
X215628570Y-55694775D01*
X215628570Y-55694775D02*
X215628570Y-55932870D01*
X215628570Y-55932870D02*
X215580951Y-56028108D01*
X215580951Y-56028108D02*
X215533332Y-56075727D01*
X215533332Y-56075727D02*
X215438094Y-56123346D01*
X215438094Y-56123346D02*
X215247618Y-56123346D01*
X215247618Y-56123346D02*
X215152380Y-56075727D01*
X215152380Y-56075727D02*
X215104761Y-56028108D01*
X215104761Y-56028108D02*
X215057142Y-55932870D01*
X237345237Y-56504299D02*
X237345237Y-55504299D01*
X237345237Y-55504299D02*
X237107142Y-55504299D01*
X237107142Y-55504299D02*
X236964285Y-55551918D01*
X236964285Y-55551918D02*
X236869047Y-55647156D01*
X236869047Y-55647156D02*
X236821428Y-55742394D01*
X236821428Y-55742394D02*
X236773809Y-55932870D01*
X236773809Y-55932870D02*
X236773809Y-56075727D01*
X236773809Y-56075727D02*
X236821428Y-56266203D01*
X236821428Y-56266203D02*
X236869047Y-56361441D01*
X236869047Y-56361441D02*
X236964285Y-56456680D01*
X236964285Y-56456680D02*
X237107142Y-56504299D01*
X237107142Y-56504299D02*
X237345237Y-56504299D01*
X236583333Y-56599537D02*
X235821428Y-56599537D01*
X235154761Y-55837632D02*
X235154761Y-56504299D01*
X235392856Y-55456680D02*
X235630951Y-56170965D01*
X235630951Y-56170965D02*
X235011904Y-56170965D01*
X234440475Y-55504299D02*
X234345237Y-55504299D01*
X234345237Y-55504299D02*
X234249999Y-55551918D01*
X234249999Y-55551918D02*
X234202380Y-55599537D01*
X234202380Y-55599537D02*
X234154761Y-55694775D01*
X234154761Y-55694775D02*
X234107142Y-55885251D01*
X234107142Y-55885251D02*
X234107142Y-56123346D01*
X234107142Y-56123346D02*
X234154761Y-56313822D01*
X234154761Y-56313822D02*
X234202380Y-56409060D01*
X234202380Y-56409060D02*
X234249999Y-56456680D01*
X234249999Y-56456680D02*
X234345237Y-56504299D01*
X234345237Y-56504299D02*
X234440475Y-56504299D01*
X234440475Y-56504299D02*
X234535713Y-56456680D01*
X234535713Y-56456680D02*
X234583332Y-56409060D01*
X234583332Y-56409060D02*
X234630951Y-56313822D01*
X234630951Y-56313822D02*
X234678570Y-56123346D01*
X234678570Y-56123346D02*
X234678570Y-55885251D01*
X234678570Y-55885251D02*
X234630951Y-55694775D01*
X234630951Y-55694775D02*
X234583332Y-55599537D01*
X234583332Y-55599537D02*
X234535713Y-55551918D01*
X234535713Y-55551918D02*
X234440475Y-55504299D01*
X268345237Y-56254299D02*
X268345237Y-55254299D01*
X268345237Y-55254299D02*
X268107142Y-55254299D01*
X268107142Y-55254299D02*
X267964285Y-55301918D01*
X267964285Y-55301918D02*
X267869047Y-55397156D01*
X267869047Y-55397156D02*
X267821428Y-55492394D01*
X267821428Y-55492394D02*
X267773809Y-55682870D01*
X267773809Y-55682870D02*
X267773809Y-55825727D01*
X267773809Y-55825727D02*
X267821428Y-56016203D01*
X267821428Y-56016203D02*
X267869047Y-56111441D01*
X267869047Y-56111441D02*
X267964285Y-56206680D01*
X267964285Y-56206680D02*
X268107142Y-56254299D01*
X268107142Y-56254299D02*
X268345237Y-56254299D01*
X267583333Y-56349537D02*
X266821428Y-56349537D01*
X266154761Y-55587632D02*
X266154761Y-56254299D01*
X266392856Y-55206680D02*
X266630951Y-55920965D01*
X266630951Y-55920965D02*
X266011904Y-55920965D01*
X265107142Y-56254299D02*
X265678570Y-56254299D01*
X265392856Y-56254299D02*
X265392856Y-55254299D01*
X265392856Y-55254299D02*
X265488094Y-55397156D01*
X265488094Y-55397156D02*
X265583332Y-55492394D01*
X265583332Y-55492394D02*
X265678570Y-55540013D01*
X25345237Y-75504299D02*
X25345237Y-74504299D01*
X25345237Y-74504299D02*
X25107142Y-74504299D01*
X25107142Y-74504299D02*
X24964285Y-74551918D01*
X24964285Y-74551918D02*
X24869047Y-74647156D01*
X24869047Y-74647156D02*
X24821428Y-74742394D01*
X24821428Y-74742394D02*
X24773809Y-74932870D01*
X24773809Y-74932870D02*
X24773809Y-75075727D01*
X24773809Y-75075727D02*
X24821428Y-75266203D01*
X24821428Y-75266203D02*
X24869047Y-75361441D01*
X24869047Y-75361441D02*
X24964285Y-75456680D01*
X24964285Y-75456680D02*
X25107142Y-75504299D01*
X25107142Y-75504299D02*
X25345237Y-75504299D01*
X24583333Y-75599537D02*
X23821428Y-75599537D01*
X23154761Y-74837632D02*
X23154761Y-75504299D01*
X23392856Y-74456680D02*
X23630951Y-75170965D01*
X23630951Y-75170965D02*
X23011904Y-75170965D01*
X22678570Y-74599537D02*
X22630951Y-74551918D01*
X22630951Y-74551918D02*
X22535713Y-74504299D01*
X22535713Y-74504299D02*
X22297618Y-74504299D01*
X22297618Y-74504299D02*
X22202380Y-74551918D01*
X22202380Y-74551918D02*
X22154761Y-74599537D01*
X22154761Y-74599537D02*
X22107142Y-74694775D01*
X22107142Y-74694775D02*
X22107142Y-74790013D01*
X22107142Y-74790013D02*
X22154761Y-74932870D01*
X22154761Y-74932870D02*
X22726189Y-75504299D01*
X22726189Y-75504299D02*
X22107142Y-75504299D01*
X56395237Y-75504299D02*
X56395237Y-74504299D01*
X56395237Y-74504299D02*
X56157142Y-74504299D01*
X56157142Y-74504299D02*
X56014285Y-74551918D01*
X56014285Y-74551918D02*
X55919047Y-74647156D01*
X55919047Y-74647156D02*
X55871428Y-74742394D01*
X55871428Y-74742394D02*
X55823809Y-74932870D01*
X55823809Y-74932870D02*
X55823809Y-75075727D01*
X55823809Y-75075727D02*
X55871428Y-75266203D01*
X55871428Y-75266203D02*
X55919047Y-75361441D01*
X55919047Y-75361441D02*
X56014285Y-75456680D01*
X56014285Y-75456680D02*
X56157142Y-75504299D01*
X56157142Y-75504299D02*
X56395237Y-75504299D01*
X55633333Y-75599537D02*
X54871428Y-75599537D01*
X54204761Y-74837632D02*
X54204761Y-75504299D01*
X54442856Y-74456680D02*
X54680951Y-75170965D01*
X54680951Y-75170965D02*
X54061904Y-75170965D01*
X53776189Y-74504299D02*
X53157142Y-74504299D01*
X53157142Y-74504299D02*
X53490475Y-74885251D01*
X53490475Y-74885251D02*
X53347618Y-74885251D01*
X53347618Y-74885251D02*
X53252380Y-74932870D01*
X53252380Y-74932870D02*
X53204761Y-74980489D01*
X53204761Y-74980489D02*
X53157142Y-75075727D01*
X53157142Y-75075727D02*
X53157142Y-75313822D01*
X53157142Y-75313822D02*
X53204761Y-75409060D01*
X53204761Y-75409060D02*
X53252380Y-75456680D01*
X53252380Y-75456680D02*
X53347618Y-75504299D01*
X53347618Y-75504299D02*
X53633332Y-75504299D01*
X53633332Y-75504299D02*
X53728570Y-75456680D01*
X53728570Y-75456680D02*
X53776189Y-75409060D01*
X75445237Y-75504299D02*
X75445237Y-74504299D01*
X75445237Y-74504299D02*
X75207142Y-74504299D01*
X75207142Y-74504299D02*
X75064285Y-74551918D01*
X75064285Y-74551918D02*
X74969047Y-74647156D01*
X74969047Y-74647156D02*
X74921428Y-74742394D01*
X74921428Y-74742394D02*
X74873809Y-74932870D01*
X74873809Y-74932870D02*
X74873809Y-75075727D01*
X74873809Y-75075727D02*
X74921428Y-75266203D01*
X74921428Y-75266203D02*
X74969047Y-75361441D01*
X74969047Y-75361441D02*
X75064285Y-75456680D01*
X75064285Y-75456680D02*
X75207142Y-75504299D01*
X75207142Y-75504299D02*
X75445237Y-75504299D01*
X74683333Y-75599537D02*
X73921428Y-75599537D01*
X73254761Y-74837632D02*
X73254761Y-75504299D01*
X73492856Y-74456680D02*
X73730951Y-75170965D01*
X73730951Y-75170965D02*
X73111904Y-75170965D01*
X72302380Y-74837632D02*
X72302380Y-75504299D01*
X72540475Y-74456680D02*
X72778570Y-75170965D01*
X72778570Y-75170965D02*
X72159523Y-75170965D01*
X94495237Y-75504299D02*
X94495237Y-74504299D01*
X94495237Y-74504299D02*
X94257142Y-74504299D01*
X94257142Y-74504299D02*
X94114285Y-74551918D01*
X94114285Y-74551918D02*
X94019047Y-74647156D01*
X94019047Y-74647156D02*
X93971428Y-74742394D01*
X93971428Y-74742394D02*
X93923809Y-74932870D01*
X93923809Y-74932870D02*
X93923809Y-75075727D01*
X93923809Y-75075727D02*
X93971428Y-75266203D01*
X93971428Y-75266203D02*
X94019047Y-75361441D01*
X94019047Y-75361441D02*
X94114285Y-75456680D01*
X94114285Y-75456680D02*
X94257142Y-75504299D01*
X94257142Y-75504299D02*
X94495237Y-75504299D01*
X93733333Y-75599537D02*
X92971428Y-75599537D01*
X92304761Y-74837632D02*
X92304761Y-75504299D01*
X92542856Y-74456680D02*
X92780951Y-75170965D01*
X92780951Y-75170965D02*
X92161904Y-75170965D01*
X91304761Y-74504299D02*
X91780951Y-74504299D01*
X91780951Y-74504299D02*
X91828570Y-74980489D01*
X91828570Y-74980489D02*
X91780951Y-74932870D01*
X91780951Y-74932870D02*
X91685713Y-74885251D01*
X91685713Y-74885251D02*
X91447618Y-74885251D01*
X91447618Y-74885251D02*
X91352380Y-74932870D01*
X91352380Y-74932870D02*
X91304761Y-74980489D01*
X91304761Y-74980489D02*
X91257142Y-75075727D01*
X91257142Y-75075727D02*
X91257142Y-75313822D01*
X91257142Y-75313822D02*
X91304761Y-75409060D01*
X91304761Y-75409060D02*
X91352380Y-75456680D01*
X91352380Y-75456680D02*
X91447618Y-75504299D01*
X91447618Y-75504299D02*
X91685713Y-75504299D01*
X91685713Y-75504299D02*
X91780951Y-75456680D01*
X91780951Y-75456680D02*
X91828570Y-75409060D01*
X113545237Y-75504299D02*
X113545237Y-74504299D01*
X113545237Y-74504299D02*
X113307142Y-74504299D01*
X113307142Y-74504299D02*
X113164285Y-74551918D01*
X113164285Y-74551918D02*
X113069047Y-74647156D01*
X113069047Y-74647156D02*
X113021428Y-74742394D01*
X113021428Y-74742394D02*
X112973809Y-74932870D01*
X112973809Y-74932870D02*
X112973809Y-75075727D01*
X112973809Y-75075727D02*
X113021428Y-75266203D01*
X113021428Y-75266203D02*
X113069047Y-75361441D01*
X113069047Y-75361441D02*
X113164285Y-75456680D01*
X113164285Y-75456680D02*
X113307142Y-75504299D01*
X113307142Y-75504299D02*
X113545237Y-75504299D01*
X112783333Y-75599537D02*
X112021428Y-75599537D01*
X111354761Y-74837632D02*
X111354761Y-75504299D01*
X111592856Y-74456680D02*
X111830951Y-75170965D01*
X111830951Y-75170965D02*
X111211904Y-75170965D01*
X110402380Y-74504299D02*
X110592856Y-74504299D01*
X110592856Y-74504299D02*
X110688094Y-74551918D01*
X110688094Y-74551918D02*
X110735713Y-74599537D01*
X110735713Y-74599537D02*
X110830951Y-74742394D01*
X110830951Y-74742394D02*
X110878570Y-74932870D01*
X110878570Y-74932870D02*
X110878570Y-75313822D01*
X110878570Y-75313822D02*
X110830951Y-75409060D01*
X110830951Y-75409060D02*
X110783332Y-75456680D01*
X110783332Y-75456680D02*
X110688094Y-75504299D01*
X110688094Y-75504299D02*
X110497618Y-75504299D01*
X110497618Y-75504299D02*
X110402380Y-75456680D01*
X110402380Y-75456680D02*
X110354761Y-75409060D01*
X110354761Y-75409060D02*
X110307142Y-75313822D01*
X110307142Y-75313822D02*
X110307142Y-75075727D01*
X110307142Y-75075727D02*
X110354761Y-74980489D01*
X110354761Y-74980489D02*
X110402380Y-74932870D01*
X110402380Y-74932870D02*
X110497618Y-74885251D01*
X110497618Y-74885251D02*
X110688094Y-74885251D01*
X110688094Y-74885251D02*
X110783332Y-74932870D01*
X110783332Y-74932870D02*
X110830951Y-74980489D01*
X110830951Y-74980489D02*
X110878570Y-75075727D01*
X132595237Y-75504299D02*
X132595237Y-74504299D01*
X132595237Y-74504299D02*
X132357142Y-74504299D01*
X132357142Y-74504299D02*
X132214285Y-74551918D01*
X132214285Y-74551918D02*
X132119047Y-74647156D01*
X132119047Y-74647156D02*
X132071428Y-74742394D01*
X132071428Y-74742394D02*
X132023809Y-74932870D01*
X132023809Y-74932870D02*
X132023809Y-75075727D01*
X132023809Y-75075727D02*
X132071428Y-75266203D01*
X132071428Y-75266203D02*
X132119047Y-75361441D01*
X132119047Y-75361441D02*
X132214285Y-75456680D01*
X132214285Y-75456680D02*
X132357142Y-75504299D01*
X132357142Y-75504299D02*
X132595237Y-75504299D01*
X131833333Y-75599537D02*
X131071428Y-75599537D01*
X130404761Y-74837632D02*
X130404761Y-75504299D01*
X130642856Y-74456680D02*
X130880951Y-75170965D01*
X130880951Y-75170965D02*
X130261904Y-75170965D01*
X129976189Y-74504299D02*
X129309523Y-74504299D01*
X129309523Y-74504299D02*
X129738094Y-75504299D01*
X151645237Y-75504299D02*
X151645237Y-74504299D01*
X151645237Y-74504299D02*
X151407142Y-74504299D01*
X151407142Y-74504299D02*
X151264285Y-74551918D01*
X151264285Y-74551918D02*
X151169047Y-74647156D01*
X151169047Y-74647156D02*
X151121428Y-74742394D01*
X151121428Y-74742394D02*
X151073809Y-74932870D01*
X151073809Y-74932870D02*
X151073809Y-75075727D01*
X151073809Y-75075727D02*
X151121428Y-75266203D01*
X151121428Y-75266203D02*
X151169047Y-75361441D01*
X151169047Y-75361441D02*
X151264285Y-75456680D01*
X151264285Y-75456680D02*
X151407142Y-75504299D01*
X151407142Y-75504299D02*
X151645237Y-75504299D01*
X150883333Y-75599537D02*
X150121428Y-75599537D01*
X149454761Y-74837632D02*
X149454761Y-75504299D01*
X149692856Y-74456680D02*
X149930951Y-75170965D01*
X149930951Y-75170965D02*
X149311904Y-75170965D01*
X148788094Y-74932870D02*
X148883332Y-74885251D01*
X148883332Y-74885251D02*
X148930951Y-74837632D01*
X148930951Y-74837632D02*
X148978570Y-74742394D01*
X148978570Y-74742394D02*
X148978570Y-74694775D01*
X148978570Y-74694775D02*
X148930951Y-74599537D01*
X148930951Y-74599537D02*
X148883332Y-74551918D01*
X148883332Y-74551918D02*
X148788094Y-74504299D01*
X148788094Y-74504299D02*
X148597618Y-74504299D01*
X148597618Y-74504299D02*
X148502380Y-74551918D01*
X148502380Y-74551918D02*
X148454761Y-74599537D01*
X148454761Y-74599537D02*
X148407142Y-74694775D01*
X148407142Y-74694775D02*
X148407142Y-74742394D01*
X148407142Y-74742394D02*
X148454761Y-74837632D01*
X148454761Y-74837632D02*
X148502380Y-74885251D01*
X148502380Y-74885251D02*
X148597618Y-74932870D01*
X148597618Y-74932870D02*
X148788094Y-74932870D01*
X148788094Y-74932870D02*
X148883332Y-74980489D01*
X148883332Y-74980489D02*
X148930951Y-75028108D01*
X148930951Y-75028108D02*
X148978570Y-75123346D01*
X148978570Y-75123346D02*
X148978570Y-75313822D01*
X148978570Y-75313822D02*
X148930951Y-75409060D01*
X148930951Y-75409060D02*
X148883332Y-75456680D01*
X148883332Y-75456680D02*
X148788094Y-75504299D01*
X148788094Y-75504299D02*
X148597618Y-75504299D01*
X148597618Y-75504299D02*
X148502380Y-75456680D01*
X148502380Y-75456680D02*
X148454761Y-75409060D01*
X148454761Y-75409060D02*
X148407142Y-75313822D01*
X148407142Y-75313822D02*
X148407142Y-75123346D01*
X148407142Y-75123346D02*
X148454761Y-75028108D01*
X148454761Y-75028108D02*
X148502380Y-74980489D01*
X148502380Y-74980489D02*
X148597618Y-74932870D01*
X170695237Y-75504299D02*
X170695237Y-74504299D01*
X170695237Y-74504299D02*
X170457142Y-74504299D01*
X170457142Y-74504299D02*
X170314285Y-74551918D01*
X170314285Y-74551918D02*
X170219047Y-74647156D01*
X170219047Y-74647156D02*
X170171428Y-74742394D01*
X170171428Y-74742394D02*
X170123809Y-74932870D01*
X170123809Y-74932870D02*
X170123809Y-75075727D01*
X170123809Y-75075727D02*
X170171428Y-75266203D01*
X170171428Y-75266203D02*
X170219047Y-75361441D01*
X170219047Y-75361441D02*
X170314285Y-75456680D01*
X170314285Y-75456680D02*
X170457142Y-75504299D01*
X170457142Y-75504299D02*
X170695237Y-75504299D01*
X169933333Y-75599537D02*
X169171428Y-75599537D01*
X168504761Y-74837632D02*
X168504761Y-75504299D01*
X168742856Y-74456680D02*
X168980951Y-75170965D01*
X168980951Y-75170965D02*
X168361904Y-75170965D01*
X167933332Y-75504299D02*
X167742856Y-75504299D01*
X167742856Y-75504299D02*
X167647618Y-75456680D01*
X167647618Y-75456680D02*
X167599999Y-75409060D01*
X167599999Y-75409060D02*
X167504761Y-75266203D01*
X167504761Y-75266203D02*
X167457142Y-75075727D01*
X167457142Y-75075727D02*
X167457142Y-74694775D01*
X167457142Y-74694775D02*
X167504761Y-74599537D01*
X167504761Y-74599537D02*
X167552380Y-74551918D01*
X167552380Y-74551918D02*
X167647618Y-74504299D01*
X167647618Y-74504299D02*
X167838094Y-74504299D01*
X167838094Y-74504299D02*
X167933332Y-74551918D01*
X167933332Y-74551918D02*
X167980951Y-74599537D01*
X167980951Y-74599537D02*
X168028570Y-74694775D01*
X168028570Y-74694775D02*
X168028570Y-74932870D01*
X168028570Y-74932870D02*
X167980951Y-75028108D01*
X167980951Y-75028108D02*
X167933332Y-75075727D01*
X167933332Y-75075727D02*
X167838094Y-75123346D01*
X167838094Y-75123346D02*
X167647618Y-75123346D01*
X167647618Y-75123346D02*
X167552380Y-75075727D01*
X167552380Y-75075727D02*
X167504761Y-75028108D01*
X167504761Y-75028108D02*
X167457142Y-74932870D01*
X189745237Y-75504299D02*
X189745237Y-74504299D01*
X189745237Y-74504299D02*
X189507142Y-74504299D01*
X189507142Y-74504299D02*
X189364285Y-74551918D01*
X189364285Y-74551918D02*
X189269047Y-74647156D01*
X189269047Y-74647156D02*
X189221428Y-74742394D01*
X189221428Y-74742394D02*
X189173809Y-74932870D01*
X189173809Y-74932870D02*
X189173809Y-75075727D01*
X189173809Y-75075727D02*
X189221428Y-75266203D01*
X189221428Y-75266203D02*
X189269047Y-75361441D01*
X189269047Y-75361441D02*
X189364285Y-75456680D01*
X189364285Y-75456680D02*
X189507142Y-75504299D01*
X189507142Y-75504299D02*
X189745237Y-75504299D01*
X188983333Y-75599537D02*
X188221428Y-75599537D01*
X187507142Y-74504299D02*
X187983332Y-74504299D01*
X187983332Y-74504299D02*
X188030951Y-74980489D01*
X188030951Y-74980489D02*
X187983332Y-74932870D01*
X187983332Y-74932870D02*
X187888094Y-74885251D01*
X187888094Y-74885251D02*
X187649999Y-74885251D01*
X187649999Y-74885251D02*
X187554761Y-74932870D01*
X187554761Y-74932870D02*
X187507142Y-74980489D01*
X187507142Y-74980489D02*
X187459523Y-75075727D01*
X187459523Y-75075727D02*
X187459523Y-75313822D01*
X187459523Y-75313822D02*
X187507142Y-75409060D01*
X187507142Y-75409060D02*
X187554761Y-75456680D01*
X187554761Y-75456680D02*
X187649999Y-75504299D01*
X187649999Y-75504299D02*
X187888094Y-75504299D01*
X187888094Y-75504299D02*
X187983332Y-75456680D01*
X187983332Y-75456680D02*
X188030951Y-75409060D01*
X186840475Y-74504299D02*
X186745237Y-74504299D01*
X186745237Y-74504299D02*
X186649999Y-74551918D01*
X186649999Y-74551918D02*
X186602380Y-74599537D01*
X186602380Y-74599537D02*
X186554761Y-74694775D01*
X186554761Y-74694775D02*
X186507142Y-74885251D01*
X186507142Y-74885251D02*
X186507142Y-75123346D01*
X186507142Y-75123346D02*
X186554761Y-75313822D01*
X186554761Y-75313822D02*
X186602380Y-75409060D01*
X186602380Y-75409060D02*
X186649999Y-75456680D01*
X186649999Y-75456680D02*
X186745237Y-75504299D01*
X186745237Y-75504299D02*
X186840475Y-75504299D01*
X186840475Y-75504299D02*
X186935713Y-75456680D01*
X186935713Y-75456680D02*
X186983332Y-75409060D01*
X186983332Y-75409060D02*
X187030951Y-75313822D01*
X187030951Y-75313822D02*
X187078570Y-75123346D01*
X187078570Y-75123346D02*
X187078570Y-74885251D01*
X187078570Y-74885251D02*
X187030951Y-74694775D01*
X187030951Y-74694775D02*
X186983332Y-74599537D01*
X186983332Y-74599537D02*
X186935713Y-74551918D01*
X186935713Y-74551918D02*
X186840475Y-74504299D01*
X208795237Y-75504299D02*
X208795237Y-74504299D01*
X208795237Y-74504299D02*
X208557142Y-74504299D01*
X208557142Y-74504299D02*
X208414285Y-74551918D01*
X208414285Y-74551918D02*
X208319047Y-74647156D01*
X208319047Y-74647156D02*
X208271428Y-74742394D01*
X208271428Y-74742394D02*
X208223809Y-74932870D01*
X208223809Y-74932870D02*
X208223809Y-75075727D01*
X208223809Y-75075727D02*
X208271428Y-75266203D01*
X208271428Y-75266203D02*
X208319047Y-75361441D01*
X208319047Y-75361441D02*
X208414285Y-75456680D01*
X208414285Y-75456680D02*
X208557142Y-75504299D01*
X208557142Y-75504299D02*
X208795237Y-75504299D01*
X208033333Y-75599537D02*
X207271428Y-75599537D01*
X206557142Y-74504299D02*
X207033332Y-74504299D01*
X207033332Y-74504299D02*
X207080951Y-74980489D01*
X207080951Y-74980489D02*
X207033332Y-74932870D01*
X207033332Y-74932870D02*
X206938094Y-74885251D01*
X206938094Y-74885251D02*
X206699999Y-74885251D01*
X206699999Y-74885251D02*
X206604761Y-74932870D01*
X206604761Y-74932870D02*
X206557142Y-74980489D01*
X206557142Y-74980489D02*
X206509523Y-75075727D01*
X206509523Y-75075727D02*
X206509523Y-75313822D01*
X206509523Y-75313822D02*
X206557142Y-75409060D01*
X206557142Y-75409060D02*
X206604761Y-75456680D01*
X206604761Y-75456680D02*
X206699999Y-75504299D01*
X206699999Y-75504299D02*
X206938094Y-75504299D01*
X206938094Y-75504299D02*
X207033332Y-75456680D01*
X207033332Y-75456680D02*
X207080951Y-75409060D01*
X205557142Y-75504299D02*
X206128570Y-75504299D01*
X205842856Y-75504299D02*
X205842856Y-74504299D01*
X205842856Y-74504299D02*
X205938094Y-74647156D01*
X205938094Y-74647156D02*
X206033332Y-74742394D01*
X206033332Y-74742394D02*
X206128570Y-74790013D01*
X227845237Y-75504299D02*
X227845237Y-74504299D01*
X227845237Y-74504299D02*
X227607142Y-74504299D01*
X227607142Y-74504299D02*
X227464285Y-74551918D01*
X227464285Y-74551918D02*
X227369047Y-74647156D01*
X227369047Y-74647156D02*
X227321428Y-74742394D01*
X227321428Y-74742394D02*
X227273809Y-74932870D01*
X227273809Y-74932870D02*
X227273809Y-75075727D01*
X227273809Y-75075727D02*
X227321428Y-75266203D01*
X227321428Y-75266203D02*
X227369047Y-75361441D01*
X227369047Y-75361441D02*
X227464285Y-75456680D01*
X227464285Y-75456680D02*
X227607142Y-75504299D01*
X227607142Y-75504299D02*
X227845237Y-75504299D01*
X227083333Y-75599537D02*
X226321428Y-75599537D01*
X225607142Y-74504299D02*
X226083332Y-74504299D01*
X226083332Y-74504299D02*
X226130951Y-74980489D01*
X226130951Y-74980489D02*
X226083332Y-74932870D01*
X226083332Y-74932870D02*
X225988094Y-74885251D01*
X225988094Y-74885251D02*
X225749999Y-74885251D01*
X225749999Y-74885251D02*
X225654761Y-74932870D01*
X225654761Y-74932870D02*
X225607142Y-74980489D01*
X225607142Y-74980489D02*
X225559523Y-75075727D01*
X225559523Y-75075727D02*
X225559523Y-75313822D01*
X225559523Y-75313822D02*
X225607142Y-75409060D01*
X225607142Y-75409060D02*
X225654761Y-75456680D01*
X225654761Y-75456680D02*
X225749999Y-75504299D01*
X225749999Y-75504299D02*
X225988094Y-75504299D01*
X225988094Y-75504299D02*
X226083332Y-75456680D01*
X226083332Y-75456680D02*
X226130951Y-75409060D01*
X225178570Y-74599537D02*
X225130951Y-74551918D01*
X225130951Y-74551918D02*
X225035713Y-74504299D01*
X225035713Y-74504299D02*
X224797618Y-74504299D01*
X224797618Y-74504299D02*
X224702380Y-74551918D01*
X224702380Y-74551918D02*
X224654761Y-74599537D01*
X224654761Y-74599537D02*
X224607142Y-74694775D01*
X224607142Y-74694775D02*
X224607142Y-74790013D01*
X224607142Y-74790013D02*
X224654761Y-74932870D01*
X224654761Y-74932870D02*
X225226189Y-75504299D01*
X225226189Y-75504299D02*
X224607142Y-75504299D01*
X263595237Y-75504299D02*
X263595237Y-74504299D01*
X263595237Y-74504299D02*
X263357142Y-74504299D01*
X263357142Y-74504299D02*
X263214285Y-74551918D01*
X263214285Y-74551918D02*
X263119047Y-74647156D01*
X263119047Y-74647156D02*
X263071428Y-74742394D01*
X263071428Y-74742394D02*
X263023809Y-74932870D01*
X263023809Y-74932870D02*
X263023809Y-75075727D01*
X263023809Y-75075727D02*
X263071428Y-75266203D01*
X263071428Y-75266203D02*
X263119047Y-75361441D01*
X263119047Y-75361441D02*
X263214285Y-75456680D01*
X263214285Y-75456680D02*
X263357142Y-75504299D01*
X263357142Y-75504299D02*
X263595237Y-75504299D01*
X262833333Y-75599537D02*
X262071428Y-75599537D01*
X261357142Y-74504299D02*
X261833332Y-74504299D01*
X261833332Y-74504299D02*
X261880951Y-74980489D01*
X261880951Y-74980489D02*
X261833332Y-74932870D01*
X261833332Y-74932870D02*
X261738094Y-74885251D01*
X261738094Y-74885251D02*
X261499999Y-74885251D01*
X261499999Y-74885251D02*
X261404761Y-74932870D01*
X261404761Y-74932870D02*
X261357142Y-74980489D01*
X261357142Y-74980489D02*
X261309523Y-75075727D01*
X261309523Y-75075727D02*
X261309523Y-75313822D01*
X261309523Y-75313822D02*
X261357142Y-75409060D01*
X261357142Y-75409060D02*
X261404761Y-75456680D01*
X261404761Y-75456680D02*
X261499999Y-75504299D01*
X261499999Y-75504299D02*
X261738094Y-75504299D01*
X261738094Y-75504299D02*
X261833332Y-75456680D01*
X261833332Y-75456680D02*
X261880951Y-75409060D01*
X260976189Y-74504299D02*
X260357142Y-74504299D01*
X260357142Y-74504299D02*
X260690475Y-74885251D01*
X260690475Y-74885251D02*
X260547618Y-74885251D01*
X260547618Y-74885251D02*
X260452380Y-74932870D01*
X260452380Y-74932870D02*
X260404761Y-74980489D01*
X260404761Y-74980489D02*
X260357142Y-75075727D01*
X260357142Y-75075727D02*
X260357142Y-75313822D01*
X260357142Y-75313822D02*
X260404761Y-75409060D01*
X260404761Y-75409060D02*
X260452380Y-75456680D01*
X260452380Y-75456680D02*
X260547618Y-75504299D01*
X260547618Y-75504299D02*
X260833332Y-75504299D01*
X260833332Y-75504299D02*
X260928570Y-75456680D01*
X260928570Y-75456680D02*
X260976189Y-75409060D01*
X16095237Y-94504299D02*
X16095237Y-93504299D01*
X16095237Y-93504299D02*
X15857142Y-93504299D01*
X15857142Y-93504299D02*
X15714285Y-93551918D01*
X15714285Y-93551918D02*
X15619047Y-93647156D01*
X15619047Y-93647156D02*
X15571428Y-93742394D01*
X15571428Y-93742394D02*
X15523809Y-93932870D01*
X15523809Y-93932870D02*
X15523809Y-94075727D01*
X15523809Y-94075727D02*
X15571428Y-94266203D01*
X15571428Y-94266203D02*
X15619047Y-94361441D01*
X15619047Y-94361441D02*
X15714285Y-94456680D01*
X15714285Y-94456680D02*
X15857142Y-94504299D01*
X15857142Y-94504299D02*
X16095237Y-94504299D01*
X15333333Y-94599537D02*
X14571428Y-94599537D01*
X13857142Y-93504299D02*
X14333332Y-93504299D01*
X14333332Y-93504299D02*
X14380951Y-93980489D01*
X14380951Y-93980489D02*
X14333332Y-93932870D01*
X14333332Y-93932870D02*
X14238094Y-93885251D01*
X14238094Y-93885251D02*
X13999999Y-93885251D01*
X13999999Y-93885251D02*
X13904761Y-93932870D01*
X13904761Y-93932870D02*
X13857142Y-93980489D01*
X13857142Y-93980489D02*
X13809523Y-94075727D01*
X13809523Y-94075727D02*
X13809523Y-94313822D01*
X13809523Y-94313822D02*
X13857142Y-94409060D01*
X13857142Y-94409060D02*
X13904761Y-94456680D01*
X13904761Y-94456680D02*
X13999999Y-94504299D01*
X13999999Y-94504299D02*
X14238094Y-94504299D01*
X14238094Y-94504299D02*
X14333332Y-94456680D01*
X14333332Y-94456680D02*
X14380951Y-94409060D01*
X12952380Y-93837632D02*
X12952380Y-94504299D01*
X13190475Y-93456680D02*
X13428570Y-94170965D01*
X13428570Y-94170965D02*
X12809523Y-94170965D01*
X39907737Y-94504299D02*
X39907737Y-93504299D01*
X39907737Y-93504299D02*
X39669642Y-93504299D01*
X39669642Y-93504299D02*
X39526785Y-93551918D01*
X39526785Y-93551918D02*
X39431547Y-93647156D01*
X39431547Y-93647156D02*
X39383928Y-93742394D01*
X39383928Y-93742394D02*
X39336309Y-93932870D01*
X39336309Y-93932870D02*
X39336309Y-94075727D01*
X39336309Y-94075727D02*
X39383928Y-94266203D01*
X39383928Y-94266203D02*
X39431547Y-94361441D01*
X39431547Y-94361441D02*
X39526785Y-94456680D01*
X39526785Y-94456680D02*
X39669642Y-94504299D01*
X39669642Y-94504299D02*
X39907737Y-94504299D01*
X39145833Y-94599537D02*
X38383928Y-94599537D01*
X37669642Y-93504299D02*
X38145832Y-93504299D01*
X38145832Y-93504299D02*
X38193451Y-93980489D01*
X38193451Y-93980489D02*
X38145832Y-93932870D01*
X38145832Y-93932870D02*
X38050594Y-93885251D01*
X38050594Y-93885251D02*
X37812499Y-93885251D01*
X37812499Y-93885251D02*
X37717261Y-93932870D01*
X37717261Y-93932870D02*
X37669642Y-93980489D01*
X37669642Y-93980489D02*
X37622023Y-94075727D01*
X37622023Y-94075727D02*
X37622023Y-94313822D01*
X37622023Y-94313822D02*
X37669642Y-94409060D01*
X37669642Y-94409060D02*
X37717261Y-94456680D01*
X37717261Y-94456680D02*
X37812499Y-94504299D01*
X37812499Y-94504299D02*
X38050594Y-94504299D01*
X38050594Y-94504299D02*
X38145832Y-94456680D01*
X38145832Y-94456680D02*
X38193451Y-94409060D01*
X36717261Y-93504299D02*
X37193451Y-93504299D01*
X37193451Y-93504299D02*
X37241070Y-93980489D01*
X37241070Y-93980489D02*
X37193451Y-93932870D01*
X37193451Y-93932870D02*
X37098213Y-93885251D01*
X37098213Y-93885251D02*
X36860118Y-93885251D01*
X36860118Y-93885251D02*
X36764880Y-93932870D01*
X36764880Y-93932870D02*
X36717261Y-93980489D01*
X36717261Y-93980489D02*
X36669642Y-94075727D01*
X36669642Y-94075727D02*
X36669642Y-94313822D01*
X36669642Y-94313822D02*
X36717261Y-94409060D01*
X36717261Y-94409060D02*
X36764880Y-94456680D01*
X36764880Y-94456680D02*
X36860118Y-94504299D01*
X36860118Y-94504299D02*
X37098213Y-94504299D01*
X37098213Y-94504299D02*
X37193451Y-94456680D01*
X37193451Y-94456680D02*
X37241070Y-94409060D01*
X63720237Y-94504299D02*
X63720237Y-93504299D01*
X63720237Y-93504299D02*
X63482142Y-93504299D01*
X63482142Y-93504299D02*
X63339285Y-93551918D01*
X63339285Y-93551918D02*
X63244047Y-93647156D01*
X63244047Y-93647156D02*
X63196428Y-93742394D01*
X63196428Y-93742394D02*
X63148809Y-93932870D01*
X63148809Y-93932870D02*
X63148809Y-94075727D01*
X63148809Y-94075727D02*
X63196428Y-94266203D01*
X63196428Y-94266203D02*
X63244047Y-94361441D01*
X63244047Y-94361441D02*
X63339285Y-94456680D01*
X63339285Y-94456680D02*
X63482142Y-94504299D01*
X63482142Y-94504299D02*
X63720237Y-94504299D01*
X62958333Y-94599537D02*
X62196428Y-94599537D01*
X61482142Y-93504299D02*
X61958332Y-93504299D01*
X61958332Y-93504299D02*
X62005951Y-93980489D01*
X62005951Y-93980489D02*
X61958332Y-93932870D01*
X61958332Y-93932870D02*
X61863094Y-93885251D01*
X61863094Y-93885251D02*
X61624999Y-93885251D01*
X61624999Y-93885251D02*
X61529761Y-93932870D01*
X61529761Y-93932870D02*
X61482142Y-93980489D01*
X61482142Y-93980489D02*
X61434523Y-94075727D01*
X61434523Y-94075727D02*
X61434523Y-94313822D01*
X61434523Y-94313822D02*
X61482142Y-94409060D01*
X61482142Y-94409060D02*
X61529761Y-94456680D01*
X61529761Y-94456680D02*
X61624999Y-94504299D01*
X61624999Y-94504299D02*
X61863094Y-94504299D01*
X61863094Y-94504299D02*
X61958332Y-94456680D01*
X61958332Y-94456680D02*
X62005951Y-94409060D01*
X60577380Y-93504299D02*
X60767856Y-93504299D01*
X60767856Y-93504299D02*
X60863094Y-93551918D01*
X60863094Y-93551918D02*
X60910713Y-93599537D01*
X60910713Y-93599537D02*
X61005951Y-93742394D01*
X61005951Y-93742394D02*
X61053570Y-93932870D01*
X61053570Y-93932870D02*
X61053570Y-94313822D01*
X61053570Y-94313822D02*
X61005951Y-94409060D01*
X61005951Y-94409060D02*
X60958332Y-94456680D01*
X60958332Y-94456680D02*
X60863094Y-94504299D01*
X60863094Y-94504299D02*
X60672618Y-94504299D01*
X60672618Y-94504299D02*
X60577380Y-94456680D01*
X60577380Y-94456680D02*
X60529761Y-94409060D01*
X60529761Y-94409060D02*
X60482142Y-94313822D01*
X60482142Y-94313822D02*
X60482142Y-94075727D01*
X60482142Y-94075727D02*
X60529761Y-93980489D01*
X60529761Y-93980489D02*
X60577380Y-93932870D01*
X60577380Y-93932870D02*
X60672618Y-93885251D01*
X60672618Y-93885251D02*
X60863094Y-93885251D01*
X60863094Y-93885251D02*
X60958332Y-93932870D01*
X60958332Y-93932870D02*
X61005951Y-93980489D01*
X61005951Y-93980489D02*
X61053570Y-94075727D01*
X134845237Y-94504299D02*
X134845237Y-93504299D01*
X134845237Y-93504299D02*
X134607142Y-93504299D01*
X134607142Y-93504299D02*
X134464285Y-93551918D01*
X134464285Y-93551918D02*
X134369047Y-93647156D01*
X134369047Y-93647156D02*
X134321428Y-93742394D01*
X134321428Y-93742394D02*
X134273809Y-93932870D01*
X134273809Y-93932870D02*
X134273809Y-94075727D01*
X134273809Y-94075727D02*
X134321428Y-94266203D01*
X134321428Y-94266203D02*
X134369047Y-94361441D01*
X134369047Y-94361441D02*
X134464285Y-94456680D01*
X134464285Y-94456680D02*
X134607142Y-94504299D01*
X134607142Y-94504299D02*
X134845237Y-94504299D01*
X134083333Y-94599537D02*
X133321428Y-94599537D01*
X132607142Y-93504299D02*
X133083332Y-93504299D01*
X133083332Y-93504299D02*
X133130951Y-93980489D01*
X133130951Y-93980489D02*
X133083332Y-93932870D01*
X133083332Y-93932870D02*
X132988094Y-93885251D01*
X132988094Y-93885251D02*
X132749999Y-93885251D01*
X132749999Y-93885251D02*
X132654761Y-93932870D01*
X132654761Y-93932870D02*
X132607142Y-93980489D01*
X132607142Y-93980489D02*
X132559523Y-94075727D01*
X132559523Y-94075727D02*
X132559523Y-94313822D01*
X132559523Y-94313822D02*
X132607142Y-94409060D01*
X132607142Y-94409060D02*
X132654761Y-94456680D01*
X132654761Y-94456680D02*
X132749999Y-94504299D01*
X132749999Y-94504299D02*
X132988094Y-94504299D01*
X132988094Y-94504299D02*
X133083332Y-94456680D01*
X133083332Y-94456680D02*
X133130951Y-94409060D01*
X132226189Y-93504299D02*
X131559523Y-93504299D01*
X131559523Y-93504299D02*
X131988094Y-94504299D01*
X206345237Y-94504299D02*
X206345237Y-93504299D01*
X206345237Y-93504299D02*
X206107142Y-93504299D01*
X206107142Y-93504299D02*
X205964285Y-93551918D01*
X205964285Y-93551918D02*
X205869047Y-93647156D01*
X205869047Y-93647156D02*
X205821428Y-93742394D01*
X205821428Y-93742394D02*
X205773809Y-93932870D01*
X205773809Y-93932870D02*
X205773809Y-94075727D01*
X205773809Y-94075727D02*
X205821428Y-94266203D01*
X205821428Y-94266203D02*
X205869047Y-94361441D01*
X205869047Y-94361441D02*
X205964285Y-94456680D01*
X205964285Y-94456680D02*
X206107142Y-94504299D01*
X206107142Y-94504299D02*
X206345237Y-94504299D01*
X205583333Y-94599537D02*
X204821428Y-94599537D01*
X204107142Y-93504299D02*
X204583332Y-93504299D01*
X204583332Y-93504299D02*
X204630951Y-93980489D01*
X204630951Y-93980489D02*
X204583332Y-93932870D01*
X204583332Y-93932870D02*
X204488094Y-93885251D01*
X204488094Y-93885251D02*
X204249999Y-93885251D01*
X204249999Y-93885251D02*
X204154761Y-93932870D01*
X204154761Y-93932870D02*
X204107142Y-93980489D01*
X204107142Y-93980489D02*
X204059523Y-94075727D01*
X204059523Y-94075727D02*
X204059523Y-94313822D01*
X204059523Y-94313822D02*
X204107142Y-94409060D01*
X204107142Y-94409060D02*
X204154761Y-94456680D01*
X204154761Y-94456680D02*
X204249999Y-94504299D01*
X204249999Y-94504299D02*
X204488094Y-94504299D01*
X204488094Y-94504299D02*
X204583332Y-94456680D01*
X204583332Y-94456680D02*
X204630951Y-94409060D01*
X203488094Y-93932870D02*
X203583332Y-93885251D01*
X203583332Y-93885251D02*
X203630951Y-93837632D01*
X203630951Y-93837632D02*
X203678570Y-93742394D01*
X203678570Y-93742394D02*
X203678570Y-93694775D01*
X203678570Y-93694775D02*
X203630951Y-93599537D01*
X203630951Y-93599537D02*
X203583332Y-93551918D01*
X203583332Y-93551918D02*
X203488094Y-93504299D01*
X203488094Y-93504299D02*
X203297618Y-93504299D01*
X203297618Y-93504299D02*
X203202380Y-93551918D01*
X203202380Y-93551918D02*
X203154761Y-93599537D01*
X203154761Y-93599537D02*
X203107142Y-93694775D01*
X203107142Y-93694775D02*
X203107142Y-93742394D01*
X203107142Y-93742394D02*
X203154761Y-93837632D01*
X203154761Y-93837632D02*
X203202380Y-93885251D01*
X203202380Y-93885251D02*
X203297618Y-93932870D01*
X203297618Y-93932870D02*
X203488094Y-93932870D01*
X203488094Y-93932870D02*
X203583332Y-93980489D01*
X203583332Y-93980489D02*
X203630951Y-94028108D01*
X203630951Y-94028108D02*
X203678570Y-94123346D01*
X203678570Y-94123346D02*
X203678570Y-94313822D01*
X203678570Y-94313822D02*
X203630951Y-94409060D01*
X203630951Y-94409060D02*
X203583332Y-94456680D01*
X203583332Y-94456680D02*
X203488094Y-94504299D01*
X203488094Y-94504299D02*
X203297618Y-94504299D01*
X203297618Y-94504299D02*
X203202380Y-94456680D01*
X203202380Y-94456680D02*
X203154761Y-94409060D01*
X203154761Y-94409060D02*
X203107142Y-94313822D01*
X203107142Y-94313822D02*
X203107142Y-94123346D01*
X203107142Y-94123346D02*
X203154761Y-94028108D01*
X203154761Y-94028108D02*
X203202380Y-93980489D01*
X203202380Y-93980489D02*
X203297618Y-93932870D01*
X230345237Y-94504299D02*
X230345237Y-93504299D01*
X230345237Y-93504299D02*
X230107142Y-93504299D01*
X230107142Y-93504299D02*
X229964285Y-93551918D01*
X229964285Y-93551918D02*
X229869047Y-93647156D01*
X229869047Y-93647156D02*
X229821428Y-93742394D01*
X229821428Y-93742394D02*
X229773809Y-93932870D01*
X229773809Y-93932870D02*
X229773809Y-94075727D01*
X229773809Y-94075727D02*
X229821428Y-94266203D01*
X229821428Y-94266203D02*
X229869047Y-94361441D01*
X229869047Y-94361441D02*
X229964285Y-94456680D01*
X229964285Y-94456680D02*
X230107142Y-94504299D01*
X230107142Y-94504299D02*
X230345237Y-94504299D01*
X229583333Y-94599537D02*
X228821428Y-94599537D01*
X228107142Y-93504299D02*
X228583332Y-93504299D01*
X228583332Y-93504299D02*
X228630951Y-93980489D01*
X228630951Y-93980489D02*
X228583332Y-93932870D01*
X228583332Y-93932870D02*
X228488094Y-93885251D01*
X228488094Y-93885251D02*
X228249999Y-93885251D01*
X228249999Y-93885251D02*
X228154761Y-93932870D01*
X228154761Y-93932870D02*
X228107142Y-93980489D01*
X228107142Y-93980489D02*
X228059523Y-94075727D01*
X228059523Y-94075727D02*
X228059523Y-94313822D01*
X228059523Y-94313822D02*
X228107142Y-94409060D01*
X228107142Y-94409060D02*
X228154761Y-94456680D01*
X228154761Y-94456680D02*
X228249999Y-94504299D01*
X228249999Y-94504299D02*
X228488094Y-94504299D01*
X228488094Y-94504299D02*
X228583332Y-94456680D01*
X228583332Y-94456680D02*
X228630951Y-94409060D01*
X227583332Y-94504299D02*
X227392856Y-94504299D01*
X227392856Y-94504299D02*
X227297618Y-94456680D01*
X227297618Y-94456680D02*
X227249999Y-94409060D01*
X227249999Y-94409060D02*
X227154761Y-94266203D01*
X227154761Y-94266203D02*
X227107142Y-94075727D01*
X227107142Y-94075727D02*
X227107142Y-93694775D01*
X227107142Y-93694775D02*
X227154761Y-93599537D01*
X227154761Y-93599537D02*
X227202380Y-93551918D01*
X227202380Y-93551918D02*
X227297618Y-93504299D01*
X227297618Y-93504299D02*
X227488094Y-93504299D01*
X227488094Y-93504299D02*
X227583332Y-93551918D01*
X227583332Y-93551918D02*
X227630951Y-93599537D01*
X227630951Y-93599537D02*
X227678570Y-93694775D01*
X227678570Y-93694775D02*
X227678570Y-93932870D01*
X227678570Y-93932870D02*
X227630951Y-94028108D01*
X227630951Y-94028108D02*
X227583332Y-94075727D01*
X227583332Y-94075727D02*
X227488094Y-94123346D01*
X227488094Y-94123346D02*
X227297618Y-94123346D01*
X227297618Y-94123346D02*
X227202380Y-94075727D01*
X227202380Y-94075727D02*
X227154761Y-94028108D01*
X227154761Y-94028108D02*
X227107142Y-93932870D01*
X254095237Y-94504299D02*
X254095237Y-93504299D01*
X254095237Y-93504299D02*
X253857142Y-93504299D01*
X253857142Y-93504299D02*
X253714285Y-93551918D01*
X253714285Y-93551918D02*
X253619047Y-93647156D01*
X253619047Y-93647156D02*
X253571428Y-93742394D01*
X253571428Y-93742394D02*
X253523809Y-93932870D01*
X253523809Y-93932870D02*
X253523809Y-94075727D01*
X253523809Y-94075727D02*
X253571428Y-94266203D01*
X253571428Y-94266203D02*
X253619047Y-94361441D01*
X253619047Y-94361441D02*
X253714285Y-94456680D01*
X253714285Y-94456680D02*
X253857142Y-94504299D01*
X253857142Y-94504299D02*
X254095237Y-94504299D01*
X253333333Y-94599537D02*
X252571428Y-94599537D01*
X251904761Y-93504299D02*
X252095237Y-93504299D01*
X252095237Y-93504299D02*
X252190475Y-93551918D01*
X252190475Y-93551918D02*
X252238094Y-93599537D01*
X252238094Y-93599537D02*
X252333332Y-93742394D01*
X252333332Y-93742394D02*
X252380951Y-93932870D01*
X252380951Y-93932870D02*
X252380951Y-94313822D01*
X252380951Y-94313822D02*
X252333332Y-94409060D01*
X252333332Y-94409060D02*
X252285713Y-94456680D01*
X252285713Y-94456680D02*
X252190475Y-94504299D01*
X252190475Y-94504299D02*
X251999999Y-94504299D01*
X251999999Y-94504299D02*
X251904761Y-94456680D01*
X251904761Y-94456680D02*
X251857142Y-94409060D01*
X251857142Y-94409060D02*
X251809523Y-94313822D01*
X251809523Y-94313822D02*
X251809523Y-94075727D01*
X251809523Y-94075727D02*
X251857142Y-93980489D01*
X251857142Y-93980489D02*
X251904761Y-93932870D01*
X251904761Y-93932870D02*
X251999999Y-93885251D01*
X251999999Y-93885251D02*
X252190475Y-93885251D01*
X252190475Y-93885251D02*
X252285713Y-93932870D01*
X252285713Y-93932870D02*
X252333332Y-93980489D01*
X252333332Y-93980489D02*
X252380951Y-94075727D01*
X251190475Y-93504299D02*
X251095237Y-93504299D01*
X251095237Y-93504299D02*
X250999999Y-93551918D01*
X250999999Y-93551918D02*
X250952380Y-93599537D01*
X250952380Y-93599537D02*
X250904761Y-93694775D01*
X250904761Y-93694775D02*
X250857142Y-93885251D01*
X250857142Y-93885251D02*
X250857142Y-94123346D01*
X250857142Y-94123346D02*
X250904761Y-94313822D01*
X250904761Y-94313822D02*
X250952380Y-94409060D01*
X250952380Y-94409060D02*
X250999999Y-94456680D01*
X250999999Y-94456680D02*
X251095237Y-94504299D01*
X251095237Y-94504299D02*
X251190475Y-94504299D01*
X251190475Y-94504299D02*
X251285713Y-94456680D01*
X251285713Y-94456680D02*
X251333332Y-94409060D01*
X251333332Y-94409060D02*
X251380951Y-94313822D01*
X251380951Y-94313822D02*
X251428570Y-94123346D01*
X251428570Y-94123346D02*
X251428570Y-93885251D01*
X251428570Y-93885251D02*
X251380951Y-93694775D01*
X251380951Y-93694775D02*
X251333332Y-93599537D01*
X251333332Y-93599537D02*
X251285713Y-93551918D01*
X251285713Y-93551918D02*
X251190475Y-93504299D01*
X277845237Y-94504299D02*
X277845237Y-93504299D01*
X277845237Y-93504299D02*
X277607142Y-93504299D01*
X277607142Y-93504299D02*
X277464285Y-93551918D01*
X277464285Y-93551918D02*
X277369047Y-93647156D01*
X277369047Y-93647156D02*
X277321428Y-93742394D01*
X277321428Y-93742394D02*
X277273809Y-93932870D01*
X277273809Y-93932870D02*
X277273809Y-94075727D01*
X277273809Y-94075727D02*
X277321428Y-94266203D01*
X277321428Y-94266203D02*
X277369047Y-94361441D01*
X277369047Y-94361441D02*
X277464285Y-94456680D01*
X277464285Y-94456680D02*
X277607142Y-94504299D01*
X277607142Y-94504299D02*
X277845237Y-94504299D01*
X277083333Y-94599537D02*
X276321428Y-94599537D01*
X275654761Y-93504299D02*
X275845237Y-93504299D01*
X275845237Y-93504299D02*
X275940475Y-93551918D01*
X275940475Y-93551918D02*
X275988094Y-93599537D01*
X275988094Y-93599537D02*
X276083332Y-93742394D01*
X276083332Y-93742394D02*
X276130951Y-93932870D01*
X276130951Y-93932870D02*
X276130951Y-94313822D01*
X276130951Y-94313822D02*
X276083332Y-94409060D01*
X276083332Y-94409060D02*
X276035713Y-94456680D01*
X276035713Y-94456680D02*
X275940475Y-94504299D01*
X275940475Y-94504299D02*
X275749999Y-94504299D01*
X275749999Y-94504299D02*
X275654761Y-94456680D01*
X275654761Y-94456680D02*
X275607142Y-94409060D01*
X275607142Y-94409060D02*
X275559523Y-94313822D01*
X275559523Y-94313822D02*
X275559523Y-94075727D01*
X275559523Y-94075727D02*
X275607142Y-93980489D01*
X275607142Y-93980489D02*
X275654761Y-93932870D01*
X275654761Y-93932870D02*
X275749999Y-93885251D01*
X275749999Y-93885251D02*
X275940475Y-93885251D01*
X275940475Y-93885251D02*
X276035713Y-93932870D01*
X276035713Y-93932870D02*
X276083332Y-93980489D01*
X276083332Y-93980489D02*
X276130951Y-94075727D01*
X274607142Y-94504299D02*
X275178570Y-94504299D01*
X274892856Y-94504299D02*
X274892856Y-93504299D01*
X274892856Y-93504299D02*
X274988094Y-93647156D01*
X274988094Y-93647156D02*
X275083332Y-93742394D01*
X275083332Y-93742394D02*
X275178570Y-93790013D01*
X159361904Y-88254299D02*
X159361904Y-89063822D01*
X159361904Y-89063822D02*
X159314285Y-89159060D01*
X159314285Y-89159060D02*
X159266666Y-89206680D01*
X159266666Y-89206680D02*
X159171428Y-89254299D01*
X159171428Y-89254299D02*
X158980952Y-89254299D01*
X158980952Y-89254299D02*
X158885714Y-89206680D01*
X158885714Y-89206680D02*
X158838095Y-89159060D01*
X158838095Y-89159060D02*
X158790476Y-89063822D01*
X158790476Y-89063822D02*
X158790476Y-88254299D01*
X157790476Y-89254299D02*
X158361904Y-89254299D01*
X158076190Y-89254299D02*
X158076190Y-88254299D01*
X158076190Y-88254299D02*
X158171428Y-88397156D01*
X158171428Y-88397156D02*
X158266666Y-88492394D01*
X158266666Y-88492394D02*
X158361904Y-88540013D01*
D11*
X129170000Y-2405000D02*
X129170000Y-4325000D01*
X138330000Y-4325000D02*
X138330000Y-2405000D01*
X153745276Y-88227500D02*
X154254724Y-88227500D01*
X153745276Y-89272500D02*
X154254724Y-89272500D01*
X157127500Y-76604724D02*
X157127500Y-76095276D01*
X158172500Y-76604724D02*
X158172500Y-76095276D01*
X161846267Y-91010000D02*
X161553733Y-91010000D01*
X161846267Y-89990000D02*
X161553733Y-89990000D01*
X170210000Y-80053733D02*
X170210000Y-80346267D01*
X169190000Y-80053733D02*
X169190000Y-80346267D01*
X152353733Y-85990000D02*
X152646267Y-85990000D01*
X152353733Y-87010000D02*
X152646267Y-87010000D01*
X155627500Y-76604724D02*
X155627500Y-76095276D01*
X156672500Y-76604724D02*
X156672500Y-76095276D01*
X130327500Y-10254724D02*
X130327500Y-9745276D01*
X131372500Y-10254724D02*
X131372500Y-9745276D01*
X136022500Y-11545276D02*
X136022500Y-12054724D01*
X134977500Y-11545276D02*
X134977500Y-12054724D01*
X161510000Y-73453733D02*
X161510000Y-73746267D01*
X160490000Y-73453733D02*
X160490000Y-73746267D01*
X28150000Y-50950000D02*
X30150000Y-50950000D01*
X31900000Y-49500000D02*
X31450000Y-49950000D01*
X26400000Y-49500000D02*
X26850000Y-49950000D01*
X31900000Y-46900000D02*
X31900000Y-49500000D01*
X26400000Y-46900000D02*
X26400000Y-49500000D01*
X31900000Y-46900000D02*
X31450000Y-46450000D01*
X26400000Y-46900000D02*
X26850000Y-46450000D01*
X28150000Y-45450000D02*
X30150000Y-45450000D01*
X153672500Y-80103733D02*
X153672500Y-80396267D01*
X152652500Y-80103733D02*
X152652500Y-80396267D01*
X156645276Y-66777500D02*
X157154724Y-66777500D01*
X156645276Y-67822500D02*
X157154724Y-67822500D01*
X163060000Y-73453733D02*
X163060000Y-73746267D01*
X162040000Y-73453733D02*
X162040000Y-73746267D01*
X155172500Y-76203733D02*
X155172500Y-76496267D01*
X154152500Y-76203733D02*
X154152500Y-76496267D01*
X168353733Y-88790000D02*
X168646267Y-88790000D01*
X168353733Y-89810000D02*
X168646267Y-89810000D01*
X165508767Y-81560000D02*
X165216233Y-81560000D01*
X165508767Y-80540000D02*
X165216233Y-80540000D01*
X166250000Y-87700000D02*
X170750000Y-87700000D01*
X166250000Y-82300000D02*
X166250000Y-87700000D01*
X139410000Y-18185436D02*
X139410000Y-19389564D01*
X137590000Y-18185436D02*
X137590000Y-19389564D01*
X11000000Y-16810000D02*
X13000000Y-16810000D01*
X13000000Y-12800000D02*
X13000000Y-16810000D01*
X11000000Y-12800000D02*
X11000000Y-16810000D01*
X30050000Y-16810000D02*
X32050000Y-16810000D01*
X32050000Y-12800000D02*
X32050000Y-16810000D01*
X30050000Y-12800000D02*
X30050000Y-16810000D01*
X49100000Y-16810000D02*
X51100000Y-16810000D01*
X51100000Y-12800000D02*
X51100000Y-16810000D01*
X49100000Y-12800000D02*
X49100000Y-16810000D01*
X68150000Y-16810000D02*
X70150000Y-16810000D01*
X70150000Y-12800000D02*
X70150000Y-16810000D01*
X68150000Y-12800000D02*
X68150000Y-16810000D01*
X87200000Y-16810000D02*
X89200000Y-16810000D01*
X89200000Y-12800000D02*
X89200000Y-16810000D01*
X87200000Y-12800000D02*
X87200000Y-16810000D01*
X106250000Y-16810000D02*
X108250000Y-16810000D01*
X108250000Y-12800000D02*
X108250000Y-16810000D01*
X106250000Y-12800000D02*
X106250000Y-16810000D01*
X117500000Y-16810000D02*
X119500000Y-16810000D01*
X119500000Y-12800000D02*
X119500000Y-16810000D01*
X117500000Y-12800000D02*
X117500000Y-16810000D01*
X150000000Y-16810000D02*
X152000000Y-16810000D01*
X152000000Y-12800000D02*
X152000000Y-16810000D01*
X150000000Y-12800000D02*
X150000000Y-16810000D01*
X163500000Y-16810000D02*
X165500000Y-16810000D01*
X165500000Y-12800000D02*
X165500000Y-16810000D01*
X163500000Y-12800000D02*
X163500000Y-16810000D01*
X182250000Y-16810000D02*
X184250000Y-16810000D01*
X184250000Y-12800000D02*
X184250000Y-16810000D01*
X182250000Y-12800000D02*
X182250000Y-16810000D01*
X201500000Y-16810000D02*
X203500000Y-16810000D01*
X203500000Y-12800000D02*
X203500000Y-16810000D01*
X201500000Y-12800000D02*
X201500000Y-16810000D01*
X220500000Y-16810000D02*
X222500000Y-16810000D01*
X222500000Y-12800000D02*
X222500000Y-16810000D01*
X220500000Y-12800000D02*
X220500000Y-16810000D01*
X239500000Y-16810000D02*
X241500000Y-16810000D01*
X241500000Y-12800000D02*
X241500000Y-16810000D01*
X239500000Y-12800000D02*
X239500000Y-16810000D01*
X258500000Y-16810000D02*
X260500000Y-16810000D01*
X260500000Y-12800000D02*
X260500000Y-16810000D01*
X258500000Y-12800000D02*
X258500000Y-16810000D01*
X277750000Y-16810000D02*
X279750000Y-16810000D01*
X279750000Y-12800000D02*
X279750000Y-16810000D01*
X277750000Y-12800000D02*
X277750000Y-16810000D01*
X15750000Y-35810000D02*
X17750000Y-35810000D01*
X17750000Y-31800000D02*
X17750000Y-35810000D01*
X15750000Y-31800000D02*
X15750000Y-35810000D01*
X39500000Y-35810000D02*
X41500000Y-35810000D01*
X41500000Y-31800000D02*
X41500000Y-35810000D01*
X39500000Y-31800000D02*
X39500000Y-35810000D01*
X58550000Y-35810000D02*
X60550000Y-35810000D01*
X60550000Y-31800000D02*
X60550000Y-35810000D01*
X58550000Y-31800000D02*
X58550000Y-35810000D01*
X77600000Y-35810000D02*
X79600000Y-35810000D01*
X79600000Y-31800000D02*
X79600000Y-35810000D01*
X77600000Y-31800000D02*
X77600000Y-35810000D01*
X96650000Y-35810000D02*
X98650000Y-35810000D01*
X98650000Y-31800000D02*
X98650000Y-35810000D01*
X96650000Y-31800000D02*
X96650000Y-35810000D01*
X115700000Y-35810000D02*
X117700000Y-35810000D01*
X117700000Y-31800000D02*
X117700000Y-35810000D01*
X115700000Y-31800000D02*
X115700000Y-35810000D01*
X134750000Y-35810000D02*
X136750000Y-35810000D01*
X136750000Y-31800000D02*
X136750000Y-35810000D01*
X134750000Y-31800000D02*
X134750000Y-35810000D01*
X153800000Y-35810000D02*
X155800000Y-35810000D01*
X155800000Y-31800000D02*
X155800000Y-35810000D01*
X153800000Y-31800000D02*
X153800000Y-35810000D01*
X172850000Y-35810000D02*
X174850000Y-35810000D01*
X174850000Y-31800000D02*
X174850000Y-35810000D01*
X172850000Y-31800000D02*
X172850000Y-35810000D01*
X191900000Y-35810000D02*
X193900000Y-35810000D01*
X193900000Y-31800000D02*
X193900000Y-35810000D01*
X191900000Y-31800000D02*
X191900000Y-35810000D01*
X210950000Y-35810000D02*
X212950000Y-35810000D01*
X212950000Y-31800000D02*
X212950000Y-35810000D01*
X210950000Y-31800000D02*
X210950000Y-35810000D01*
X230000000Y-35810000D02*
X232000000Y-35810000D01*
X232000000Y-31800000D02*
X232000000Y-35810000D01*
X230000000Y-31800000D02*
X230000000Y-35810000D01*
X249000000Y-35810000D02*
X251000000Y-35810000D01*
X251000000Y-31800000D02*
X251000000Y-35810000D01*
X249000000Y-31800000D02*
X249000000Y-35810000D01*
X273000000Y-35810000D02*
X275000000Y-35810000D01*
X275000000Y-31800000D02*
X275000000Y-35810000D01*
X273000000Y-31800000D02*
X273000000Y-35810000D01*
X18250000Y-55060000D02*
X20250000Y-55060000D01*
X20250000Y-51050000D02*
X20250000Y-55060000D01*
X18250000Y-51050000D02*
X18250000Y-55060000D01*
X44250000Y-55060000D02*
X46250000Y-55060000D01*
X46250000Y-51050000D02*
X46250000Y-55060000D01*
X44250000Y-51050000D02*
X44250000Y-55060000D01*
X63300000Y-55060000D02*
X65300000Y-55060000D01*
X65300000Y-51050000D02*
X65300000Y-55060000D01*
X63300000Y-51050000D02*
X63300000Y-55060000D01*
X82350000Y-55060000D02*
X84350000Y-55060000D01*
X84350000Y-51050000D02*
X84350000Y-55060000D01*
X82350000Y-51050000D02*
X82350000Y-55060000D01*
X101400000Y-55060000D02*
X103400000Y-55060000D01*
X103400000Y-51050000D02*
X103400000Y-55060000D01*
X101400000Y-51050000D02*
X101400000Y-55060000D01*
X120500000Y-55060000D02*
X122500000Y-55060000D01*
X122500000Y-51050000D02*
X122500000Y-55060000D01*
X120500000Y-51050000D02*
X120500000Y-55060000D01*
X139500000Y-55060000D02*
X141500000Y-55060000D01*
X141500000Y-51050000D02*
X141500000Y-55060000D01*
X139500000Y-51050000D02*
X139500000Y-55060000D01*
X158550000Y-55060000D02*
X160550000Y-55060000D01*
X160550000Y-51050000D02*
X160550000Y-55060000D01*
X158550000Y-51050000D02*
X158550000Y-55060000D01*
X177600000Y-55060000D02*
X179600000Y-55060000D01*
X179600000Y-51050000D02*
X179600000Y-55060000D01*
X177600000Y-51050000D02*
X177600000Y-55060000D01*
X196650000Y-55060000D02*
X198650000Y-55060000D01*
X198650000Y-51050000D02*
X198650000Y-55060000D01*
X196650000Y-51050000D02*
X196650000Y-55060000D01*
X215700000Y-55060000D02*
X217700000Y-55060000D01*
X217700000Y-51050000D02*
X217700000Y-55060000D01*
X215700000Y-51050000D02*
X215700000Y-55060000D01*
X234750000Y-55060000D02*
X236750000Y-55060000D01*
X236750000Y-51050000D02*
X236750000Y-55060000D01*
X234750000Y-51050000D02*
X234750000Y-55060000D01*
X265750000Y-54810000D02*
X267750000Y-54810000D01*
X267750000Y-50800000D02*
X267750000Y-54810000D01*
X265750000Y-50800000D02*
X265750000Y-54810000D01*
X22750000Y-74060000D02*
X24750000Y-74060000D01*
X24750000Y-70050000D02*
X24750000Y-74060000D01*
X22750000Y-70050000D02*
X22750000Y-74060000D01*
X53800000Y-74060000D02*
X55800000Y-74060000D01*
X55800000Y-70050000D02*
X55800000Y-74060000D01*
X53800000Y-70050000D02*
X53800000Y-74060000D01*
X72850000Y-74060000D02*
X74850000Y-74060000D01*
X74850000Y-70050000D02*
X74850000Y-74060000D01*
X72850000Y-70050000D02*
X72850000Y-74060000D01*
X91900000Y-74060000D02*
X93900000Y-74060000D01*
X93900000Y-70050000D02*
X93900000Y-74060000D01*
X91900000Y-70050000D02*
X91900000Y-74060000D01*
X110950000Y-74060000D02*
X112950000Y-74060000D01*
X112950000Y-70050000D02*
X112950000Y-74060000D01*
X110950000Y-70050000D02*
X110950000Y-74060000D01*
X130000000Y-74060000D02*
X132000000Y-74060000D01*
X132000000Y-70050000D02*
X132000000Y-74060000D01*
X130000000Y-70050000D02*
X130000000Y-74060000D01*
X149050000Y-74060000D02*
X151050000Y-74060000D01*
X151050000Y-70050000D02*
X151050000Y-74060000D01*
X149050000Y-70050000D02*
X149050000Y-74060000D01*
X168100000Y-74060000D02*
X170100000Y-74060000D01*
X170100000Y-70050000D02*
X170100000Y-74060000D01*
X168100000Y-70050000D02*
X168100000Y-74060000D01*
X187150000Y-74060000D02*
X189150000Y-74060000D01*
X189150000Y-70050000D02*
X189150000Y-74060000D01*
X187150000Y-70050000D02*
X187150000Y-74060000D01*
X206200000Y-74060000D02*
X208200000Y-74060000D01*
X208200000Y-70050000D02*
X208200000Y-74060000D01*
X206200000Y-70050000D02*
X206200000Y-74060000D01*
X225250000Y-74060000D02*
X227250000Y-74060000D01*
X227250000Y-70050000D02*
X227250000Y-74060000D01*
X225250000Y-70050000D02*
X225250000Y-74060000D01*
X261000000Y-74060000D02*
X263000000Y-74060000D01*
X263000000Y-70050000D02*
X263000000Y-74060000D01*
X261000000Y-70050000D02*
X261000000Y-74060000D01*
X13500000Y-93060000D02*
X15500000Y-93060000D01*
X15500000Y-89050000D02*
X15500000Y-93060000D01*
X13500000Y-89050000D02*
X13500000Y-93060000D01*
X37312500Y-93060000D02*
X39312500Y-93060000D01*
X39312500Y-89050000D02*
X39312500Y-93060000D01*
X37312500Y-89050000D02*
X37312500Y-93060000D01*
X61125000Y-93060000D02*
X63125000Y-93060000D01*
X63125000Y-89050000D02*
X63125000Y-93060000D01*
X61125000Y-89050000D02*
X61125000Y-93060000D01*
X132250000Y-93060000D02*
X134250000Y-93060000D01*
X134250000Y-89050000D02*
X134250000Y-93060000D01*
X132250000Y-89050000D02*
X132250000Y-93060000D01*
X203750000Y-93060000D02*
X205750000Y-93060000D01*
X205750000Y-89050000D02*
X205750000Y-93060000D01*
X203750000Y-89050000D02*
X203750000Y-93060000D01*
X227750000Y-93060000D02*
X229750000Y-93060000D01*
X229750000Y-89050000D02*
X229750000Y-93060000D01*
X227750000Y-89050000D02*
X227750000Y-93060000D01*
X251500000Y-93060000D02*
X253500000Y-93060000D01*
X253500000Y-89050000D02*
X253500000Y-93060000D01*
X251500000Y-89050000D02*
X251500000Y-93060000D01*
X275250000Y-93060000D02*
X277250000Y-93060000D01*
X277250000Y-89050000D02*
X277250000Y-93060000D01*
X275250000Y-89050000D02*
X275250000Y-93060000D01*
X155280000Y-79990000D02*
X155765000Y-79990000D01*
X161535000Y-79990000D02*
X162260000Y-79990000D01*
X155040000Y-80290000D02*
X155040000Y-80715000D01*
X162260000Y-79990000D02*
X162260000Y-80715000D01*
X155040000Y-87210000D02*
X155040000Y-86485000D01*
X162260000Y-87210000D02*
X162260000Y-86485000D01*
X155765000Y-87210000D02*
X155040000Y-87210000D01*
X161535000Y-87210000D02*
X162260000Y-87210000D01*
X155040000Y-79990000D02*
X154710000Y-80230000D01*
X154710000Y-79750000D01*
X155040000Y-79990000D01*
G36*
X155040000Y-79990000D02*
G01*
X154710000Y-80230000D01*
X154710000Y-79750000D01*
X155040000Y-79990000D01*
G37*
%LPC*%
D12*
X130860000Y-5100000D03*
X136640000Y-5100000D03*
D13*
X130550000Y-6275000D03*
X131350000Y-6275000D03*
D14*
X132500000Y-6200000D03*
X133500000Y-6200000D03*
X134000000Y-6200000D03*
X135000000Y-6200000D03*
D13*
X136150000Y-6275000D03*
X136950000Y-6275000D03*
X136950000Y-6275000D03*
X136150000Y-6275000D03*
D14*
X135500000Y-6200000D03*
X134500000Y-6200000D03*
X133000000Y-6200000D03*
X132000000Y-6200000D03*
D13*
X131350000Y-6275000D03*
X130550000Y-6275000D03*
D15*
X129430000Y-5600000D03*
D16*
X129430000Y-1400000D03*
D15*
X138070000Y-5600000D03*
D16*
X138070000Y-1400000D03*
D17*
X180843750Y-92585000D03*
D18*
X180843750Y-77375000D03*
D17*
X80843750Y-92585000D03*
D18*
X80843750Y-77375000D03*
D19*
X128145000Y-28450000D03*
D20*
X133225000Y-28450000D03*
D19*
X138305000Y-28450000D03*
D21*
X129415000Y-25910000D03*
X135765000Y-23370000D03*
D19*
X185295000Y-28450000D03*
D20*
X190375000Y-28450000D03*
D19*
X195455000Y-28450000D03*
D21*
X186565000Y-25910000D03*
X192915000Y-23370000D03*
D19*
X175770000Y-9400000D03*
D20*
X180850000Y-9400000D03*
D19*
X185930000Y-9400000D03*
D21*
X177040000Y-6860000D03*
X183390000Y-4320000D03*
D19*
X221013750Y-85600000D03*
D20*
X226093750Y-85600000D03*
D19*
X231173750Y-85600000D03*
D21*
X222283750Y-83060000D03*
X228633750Y-80520000D03*
D22*
X128450000Y-47100000D03*
D19*
X99570000Y-9400000D03*
D20*
X104650000Y-9400000D03*
D19*
X109730000Y-9400000D03*
D21*
X100840000Y-6860000D03*
X107190000Y-4320000D03*
D19*
X244826250Y-85600000D03*
D20*
X249906250Y-85600000D03*
D19*
X254986250Y-85600000D03*
D21*
X246096250Y-83060000D03*
X252446250Y-80520000D03*
D19*
X251970000Y-9400000D03*
D20*
X257050000Y-9400000D03*
D19*
X262130000Y-9400000D03*
D21*
X253240000Y-6860000D03*
X259590000Y-4320000D03*
D19*
X42420000Y-9400000D03*
D20*
X47500000Y-9400000D03*
D19*
X52580000Y-9400000D03*
D21*
X43690000Y-6860000D03*
X50040000Y-4320000D03*
D19*
X23370000Y-9400000D03*
D20*
X28450000Y-9400000D03*
D19*
X33530000Y-9400000D03*
D21*
X24640000Y-6860000D03*
X30990000Y-4320000D03*
D19*
X223395000Y-28450000D03*
D20*
X228475000Y-28450000D03*
D19*
X233555000Y-28450000D03*
D21*
X224665000Y-25910000D03*
X231015000Y-23370000D03*
D19*
X209107500Y-47500000D03*
D20*
X214187500Y-47500000D03*
D19*
X219267500Y-47500000D03*
D21*
X210377500Y-44960000D03*
X216727500Y-42420000D03*
D19*
X142750000Y-4320000D03*
D20*
X142750000Y-9400000D03*
D19*
X142750000Y-14480000D03*
D21*
X145290000Y-5590000D03*
X147830000Y-11940000D03*
D19*
X156720000Y-9400000D03*
D20*
X161800000Y-9400000D03*
D19*
X166880000Y-9400000D03*
D21*
X157990000Y-6860000D03*
X164340000Y-4320000D03*
D19*
X268638750Y-85600000D03*
D20*
X273718750Y-85600000D03*
D19*
X278798750Y-85600000D03*
D21*
X269908750Y-83060000D03*
X276258750Y-80520000D03*
D19*
X37657500Y-47500000D03*
D20*
X42737500Y-47500000D03*
D19*
X47817500Y-47500000D03*
D21*
X38927500Y-44960000D03*
X45277500Y-42420000D03*
D19*
X4320000Y-9400000D03*
D20*
X9400000Y-9400000D03*
D19*
X14480000Y-9400000D03*
D21*
X5590000Y-6860000D03*
X11940000Y-4320000D03*
D19*
X204345000Y-28450000D03*
D20*
X209425000Y-28450000D03*
D19*
X214505000Y-28450000D03*
D21*
X205615000Y-25910000D03*
X211965000Y-23370000D03*
D19*
X259113750Y-47500000D03*
D20*
X264193750Y-47500000D03*
D19*
X269273750Y-47500000D03*
D21*
X260383750Y-44960000D03*
X266733750Y-42420000D03*
D19*
X161482500Y-66550000D03*
D20*
X166562500Y-66550000D03*
D19*
X171642500Y-66550000D03*
D21*
X162752500Y-64010000D03*
X169102500Y-61470000D03*
D19*
X104332500Y-66550000D03*
D20*
X109412500Y-66550000D03*
D19*
X114492500Y-66550000D03*
D21*
X105602500Y-64010000D03*
X111952500Y-61470000D03*
D19*
X123700000Y-14480000D03*
D20*
X123700000Y-9400000D03*
D19*
X123700000Y-4320000D03*
D21*
X121160000Y-13210000D03*
X118620000Y-6860000D03*
D19*
X194820000Y-9400000D03*
D20*
X199900000Y-9400000D03*
D19*
X204980000Y-9400000D03*
D21*
X196090000Y-6860000D03*
X202440000Y-4320000D03*
D23*
X260550000Y-27900000D03*
D19*
X242445000Y-28450000D03*
D20*
X247525000Y-28450000D03*
D19*
X252605000Y-28450000D03*
D21*
X243715000Y-25910000D03*
X250065000Y-23370000D03*
D19*
X109095000Y-28450000D03*
D20*
X114175000Y-28450000D03*
D19*
X119255000Y-28450000D03*
D21*
X110365000Y-25910000D03*
X116715000Y-23370000D03*
D19*
X132907500Y-47500000D03*
D20*
X137987500Y-47500000D03*
D19*
X143067500Y-47500000D03*
D21*
X134177500Y-44960000D03*
X140527500Y-42420000D03*
D19*
X171007500Y-47500000D03*
D20*
X176087500Y-47500000D03*
D19*
X181167500Y-47500000D03*
D21*
X172277500Y-44960000D03*
X178627500Y-42420000D03*
D19*
X151957500Y-47500000D03*
D20*
X157037500Y-47500000D03*
D19*
X162117500Y-47500000D03*
D21*
X153227500Y-44960000D03*
X159577500Y-42420000D03*
D19*
X32895000Y-28450000D03*
D20*
X37975000Y-28450000D03*
D19*
X43055000Y-28450000D03*
D21*
X34165000Y-25910000D03*
X40515000Y-23370000D03*
D19*
X232920000Y-9400000D03*
D20*
X238000000Y-9400000D03*
D19*
X243080000Y-9400000D03*
D21*
X234190000Y-6860000D03*
X240540000Y-4320000D03*
D19*
X85282500Y-66550000D03*
D20*
X90362500Y-66550000D03*
D19*
X95442500Y-66550000D03*
D21*
X86552500Y-64010000D03*
X92902500Y-61470000D03*
D19*
X190057500Y-47500000D03*
D20*
X195137500Y-47500000D03*
D19*
X200217500Y-47500000D03*
D21*
X191327500Y-44960000D03*
X197677500Y-42420000D03*
D24*
X2500000Y-56500000D03*
D19*
X197201250Y-85600000D03*
D20*
X202281250Y-85600000D03*
D19*
X207361250Y-85600000D03*
D21*
X198471250Y-83060000D03*
X204821250Y-80520000D03*
D19*
X54326250Y-85600000D03*
D20*
X59406250Y-85600000D03*
D19*
X64486250Y-85600000D03*
D21*
X55596250Y-83060000D03*
X61946250Y-80520000D03*
D19*
X125763750Y-85600000D03*
D20*
X130843750Y-85600000D03*
D19*
X135923750Y-85600000D03*
D21*
X127033750Y-83060000D03*
X133383750Y-80520000D03*
D19*
X147195000Y-28450000D03*
D20*
X152275000Y-28450000D03*
D19*
X157355000Y-28450000D03*
D21*
X148465000Y-25910000D03*
X154815000Y-23370000D03*
D19*
X75757500Y-47500000D03*
D20*
X80837500Y-47500000D03*
D19*
X85917500Y-47500000D03*
D21*
X77027500Y-44960000D03*
X83377500Y-42420000D03*
D19*
X254351250Y-66550000D03*
D20*
X259431250Y-66550000D03*
D19*
X264511250Y-66550000D03*
D21*
X255621250Y-64010000D03*
X261971250Y-61470000D03*
D19*
X166245000Y-28450000D03*
D20*
X171325000Y-28450000D03*
D19*
X176405000Y-28450000D03*
D21*
X167515000Y-25910000D03*
X173865000Y-23370000D03*
D19*
X123382500Y-66550000D03*
D20*
X128462500Y-66550000D03*
D19*
X133542500Y-66550000D03*
D21*
X124652500Y-64010000D03*
X131002500Y-61470000D03*
D19*
X113857500Y-47500000D03*
D20*
X118937500Y-47500000D03*
D19*
X124017500Y-47500000D03*
D21*
X115127500Y-44960000D03*
X121477500Y-42420000D03*
D19*
X66232500Y-66550000D03*
D20*
X71312500Y-66550000D03*
D19*
X76392500Y-66550000D03*
D21*
X67502500Y-64010000D03*
X73852500Y-61470000D03*
D19*
X213870000Y-9400000D03*
D20*
X218950000Y-9400000D03*
D19*
X224030000Y-9400000D03*
D21*
X215140000Y-6860000D03*
X221490000Y-4320000D03*
D25*
X25200000Y-27900000D03*
D19*
X218632500Y-66550000D03*
D20*
X223712500Y-66550000D03*
D19*
X228792500Y-66550000D03*
D21*
X219902500Y-64010000D03*
X226252500Y-61470000D03*
D19*
X180532500Y-66550000D03*
D20*
X185612500Y-66550000D03*
D19*
X190692500Y-66550000D03*
D21*
X181802500Y-64010000D03*
X188152500Y-61470000D03*
D19*
X271020000Y-9400000D03*
D20*
X276100000Y-9400000D03*
D19*
X281180000Y-9400000D03*
D21*
X272290000Y-6860000D03*
X278640000Y-4320000D03*
D19*
X80520000Y-9400000D03*
D20*
X85600000Y-9400000D03*
D19*
X90680000Y-9400000D03*
D21*
X81790000Y-6860000D03*
X88140000Y-4320000D03*
D19*
X70995000Y-28450000D03*
D20*
X76075000Y-28450000D03*
D19*
X81155000Y-28450000D03*
D21*
X72265000Y-25910000D03*
X78615000Y-23370000D03*
D19*
X266257500Y-28450000D03*
D20*
X271337500Y-28450000D03*
D19*
X276417500Y-28450000D03*
D21*
X267527500Y-25910000D03*
X273877500Y-23370000D03*
D19*
X56707500Y-47500000D03*
D20*
X61787500Y-47500000D03*
D19*
X66867500Y-47500000D03*
D21*
X57977500Y-44960000D03*
X64327500Y-42420000D03*
D19*
X16226250Y-66550000D03*
D20*
X21306250Y-66550000D03*
D19*
X26386250Y-66550000D03*
D21*
X17496250Y-64010000D03*
X23846250Y-61470000D03*
D19*
X6701250Y-85600000D03*
D20*
X11781250Y-85600000D03*
D19*
X16861250Y-85600000D03*
D21*
X7971250Y-83060000D03*
X14321250Y-80520000D03*
D19*
X199582500Y-66550000D03*
D20*
X204662500Y-66550000D03*
D19*
X209742500Y-66550000D03*
D21*
X200852500Y-64010000D03*
X207202500Y-61470000D03*
D23*
X190500000Y-85200000D03*
D19*
X142432500Y-66550000D03*
D20*
X147512500Y-66550000D03*
D19*
X152592500Y-66550000D03*
D21*
X143702500Y-64010000D03*
X150052500Y-61470000D03*
D19*
X61470000Y-9400000D03*
D20*
X66550000Y-9400000D03*
D19*
X71630000Y-9400000D03*
D21*
X62740000Y-6860000D03*
X69090000Y-4320000D03*
D19*
X228157500Y-47500000D03*
D20*
X233237500Y-47500000D03*
D19*
X238317500Y-47500000D03*
D21*
X229427500Y-44960000D03*
X235777500Y-42420000D03*
D19*
X94807500Y-47500000D03*
D20*
X99887500Y-47500000D03*
D19*
X104967500Y-47500000D03*
D21*
X96077500Y-44960000D03*
X102427500Y-42420000D03*
D19*
X47182500Y-66550000D03*
D20*
X52262500Y-66550000D03*
D19*
X57342500Y-66550000D03*
D21*
X48452500Y-64010000D03*
X54802500Y-61470000D03*
D19*
X9082500Y-28450000D03*
D20*
X14162500Y-28450000D03*
D19*
X19242500Y-28450000D03*
D21*
X10352500Y-25910000D03*
X16702500Y-23370000D03*
D19*
X30513750Y-85600000D03*
D20*
X35593750Y-85600000D03*
D19*
X40673750Y-85600000D03*
D21*
X31783750Y-83060000D03*
X38133750Y-80520000D03*
D19*
X11463750Y-47500000D03*
D20*
X16543750Y-47500000D03*
D19*
X21623750Y-47500000D03*
D21*
X12733750Y-44960000D03*
X19083750Y-42420000D03*
D19*
X51945000Y-28450000D03*
D20*
X57025000Y-28450000D03*
D19*
X62105000Y-28450000D03*
D21*
X53215000Y-25910000D03*
X59565000Y-23370000D03*
D24*
X283900000Y-56500000D03*
D19*
X90045000Y-28450000D03*
D20*
X95125000Y-28450000D03*
D19*
X100205000Y-28450000D03*
D21*
X91315000Y-25910000D03*
X97665000Y-23370000D03*
D26*
X154912500Y-88750000D03*
X153087500Y-88750000D03*
D27*
X157650000Y-75437500D03*
X157650000Y-77262500D03*
D28*
X160837500Y-90500000D03*
X162562500Y-90500000D03*
D29*
X169700000Y-81062500D03*
X169700000Y-79337500D03*
D30*
X153362500Y-86500000D03*
X151637500Y-86500000D03*
D27*
X156150000Y-75437500D03*
X156150000Y-77262500D03*
X130850000Y-9087500D03*
X130850000Y-10912500D03*
D31*
X135500000Y-12712500D03*
X135500000Y-10887500D03*
D29*
X161000000Y-74462500D03*
X161000000Y-72737500D03*
D32*
X31025000Y-51200000D03*
X31025000Y-45200000D03*
X27275000Y-51200000D03*
X27275000Y-45200000D03*
D29*
X153162500Y-81112500D03*
X153162500Y-79387500D03*
D26*
X157812500Y-67300000D03*
X155987500Y-67300000D03*
D29*
X162550000Y-74462500D03*
X162550000Y-72737500D03*
X154662500Y-77212500D03*
X154662500Y-75487500D03*
D30*
X169362500Y-89300000D03*
X167637500Y-89300000D03*
D28*
X164500000Y-81050000D03*
X166225000Y-81050000D03*
D33*
X167350000Y-86450000D03*
X167350000Y-83550000D03*
X169650000Y-83550000D03*
X169650000Y-86450000D03*
D34*
X138500000Y-20275000D03*
X138500000Y-17300000D03*
D35*
X12000000Y-16100000D03*
X12000000Y-12800000D03*
X31050000Y-16100000D03*
X31050000Y-12800000D03*
X50100000Y-16100000D03*
X50100000Y-12800000D03*
X69150000Y-16100000D03*
X69150000Y-12800000D03*
X88200000Y-16100000D03*
X88200000Y-12800000D03*
X107250000Y-16100000D03*
X107250000Y-12800000D03*
X118500000Y-16100000D03*
X118500000Y-12800000D03*
X151000000Y-16100000D03*
X151000000Y-12800000D03*
X164500000Y-16100000D03*
X164500000Y-12800000D03*
X183250000Y-16100000D03*
X183250000Y-12800000D03*
X202500000Y-16100000D03*
X202500000Y-12800000D03*
X221500000Y-16100000D03*
X221500000Y-12800000D03*
X240500000Y-16100000D03*
X240500000Y-12800000D03*
X259500000Y-16100000D03*
X259500000Y-12800000D03*
X278750000Y-16100000D03*
X278750000Y-12800000D03*
X16750000Y-35100000D03*
X16750000Y-31800000D03*
X40500000Y-35100000D03*
X40500000Y-31800000D03*
X59550000Y-35100000D03*
X59550000Y-31800000D03*
X78600000Y-35100000D03*
X78600000Y-31800000D03*
X97650000Y-35100000D03*
X97650000Y-31800000D03*
X116700000Y-35100000D03*
X116700000Y-31800000D03*
X135750000Y-35100000D03*
X135750000Y-31800000D03*
X154800000Y-35100000D03*
X154800000Y-31800000D03*
X173850000Y-35100000D03*
X173850000Y-31800000D03*
X192900000Y-35100000D03*
X192900000Y-31800000D03*
X211950000Y-35100000D03*
X211950000Y-31800000D03*
X231000000Y-35100000D03*
X231000000Y-31800000D03*
X250000000Y-35100000D03*
X250000000Y-31800000D03*
X274000000Y-35100000D03*
X274000000Y-31800000D03*
X19250000Y-54350000D03*
X19250000Y-51050000D03*
X45250000Y-54350000D03*
X45250000Y-51050000D03*
X64300000Y-54350000D03*
X64300000Y-51050000D03*
X83350000Y-54350000D03*
X83350000Y-51050000D03*
X102400000Y-54350000D03*
X102400000Y-51050000D03*
X121500000Y-54350000D03*
X121500000Y-51050000D03*
X140500000Y-54350000D03*
X140500000Y-51050000D03*
X159550000Y-54350000D03*
X159550000Y-51050000D03*
X178600000Y-54350000D03*
X178600000Y-51050000D03*
X197650000Y-54350000D03*
X197650000Y-51050000D03*
X216700000Y-54350000D03*
X216700000Y-51050000D03*
X235750000Y-54350000D03*
X235750000Y-51050000D03*
X266750000Y-54100000D03*
X266750000Y-50800000D03*
X23750000Y-73350000D03*
X23750000Y-70050000D03*
X54800000Y-73350000D03*
X54800000Y-70050000D03*
X73850000Y-73350000D03*
X73850000Y-70050000D03*
X92900000Y-73350000D03*
X92900000Y-70050000D03*
X111950000Y-73350000D03*
X111950000Y-70050000D03*
X131000000Y-73350000D03*
X131000000Y-70050000D03*
X150050000Y-73350000D03*
X150050000Y-70050000D03*
X169100000Y-73350000D03*
X169100000Y-70050000D03*
X188150000Y-73350000D03*
X188150000Y-70050000D03*
X207200000Y-73350000D03*
X207200000Y-70050000D03*
X226250000Y-73350000D03*
X226250000Y-70050000D03*
X262000000Y-73350000D03*
X262000000Y-70050000D03*
X14500000Y-92350000D03*
X14500000Y-89050000D03*
X38312500Y-92350000D03*
X38312500Y-89050000D03*
X62125000Y-92350000D03*
X62125000Y-89050000D03*
X133250000Y-92350000D03*
X133250000Y-89050000D03*
X204750000Y-92350000D03*
X204750000Y-89050000D03*
X228750000Y-92350000D03*
X228750000Y-89050000D03*
X252500000Y-92350000D03*
X252500000Y-89050000D03*
X276250000Y-92350000D03*
X276250000Y-89050000D03*
D17*
X252255750Y-40515000D03*
D18*
X252255750Y-55725000D03*
D17*
X276131750Y-40515000D03*
D18*
X276131750Y-55725000D03*
D17*
X9368250Y-59565000D03*
D18*
X9368250Y-74775000D03*
D17*
X33244250Y-59565000D03*
D18*
X33244250Y-74775000D03*
D17*
X247493250Y-59565000D03*
D18*
X247493250Y-74775000D03*
D17*
X271369250Y-59565000D03*
D18*
X271369250Y-74775000D03*
D36*
X156150000Y-80262500D03*
X156650000Y-80262500D03*
X157150000Y-80262500D03*
X157650000Y-80262500D03*
X158150000Y-80262500D03*
X158650000Y-80262500D03*
X159150000Y-80262500D03*
X159650000Y-80262500D03*
X160150000Y-80262500D03*
X160650000Y-80262500D03*
X161150000Y-80262500D03*
D37*
X161987500Y-81100000D03*
X161987500Y-81600000D03*
X161987500Y-82100000D03*
X161987500Y-82600000D03*
X161987500Y-83100000D03*
X161987500Y-83600000D03*
X161987500Y-84100000D03*
X161987500Y-84600000D03*
X161987500Y-85100000D03*
X161987500Y-85600000D03*
X161987500Y-86100000D03*
D36*
X161150000Y-86937500D03*
X160650000Y-86937500D03*
X160150000Y-86937500D03*
X159650000Y-86937500D03*
X159150000Y-86937500D03*
X158650000Y-86937500D03*
X158150000Y-86937500D03*
X157650000Y-86937500D03*
X157150000Y-86937500D03*
X156650000Y-86937500D03*
X156150000Y-86937500D03*
D37*
X155312500Y-86100000D03*
X155312500Y-85600000D03*
X155312500Y-85100000D03*
X155312500Y-84600000D03*
X155312500Y-84100000D03*
X155312500Y-83600000D03*
X155312500Y-83100000D03*
X155312500Y-82600000D03*
X155312500Y-82100000D03*
X155312500Y-81600000D03*
X155312500Y-81100000D03*
D38*
X158650000Y-83600000D03*
%LPD*%
M02*
