G04 #@! TF.GenerationSoftware,KiCad,Pcbnew,8.0.4*
G04 #@! TF.CreationDate,2024-08-16T15:43:28+02:00*
G04 #@! TF.ProjectId,keyboard,6b657962-6f61-4726-942e-6b696361645f,rev?*
G04 #@! TF.SameCoordinates,Original*
G04 #@! TF.FileFunction,Soldermask,Bot*
G04 #@! TF.FilePolarity,Negative*
%FSLAX46Y46*%
G04 Gerber Fmt 4.6, Leading zero omitted, Abs format (unit mm)*
G04 Created by KiCad (PCBNEW 8.0.4) date 2024-08-16 15:43:28*
%MOMM*%
%LPD*%
G01*
G04 APERTURE LIST*
G04 Aperture macros list*
%AMRoundRect*
0 Rectangle with rounded corners*
0 $1 Rounding radius*
0 $2 $3 $4 $5 $6 $7 $8 $9 X,Y pos of 4 corners*
0 Add a 4 corners polygon primitive as box body*
4,1,4,$2,$3,$4,$5,$6,$7,$8,$9,$2,$3,0*
0 Add four circle primitives for the rounded corners*
1,1,$1+$1,$2,$3*
1,1,$1+$1,$4,$5*
1,1,$1+$1,$6,$7*
1,1,$1+$1,$8,$9*
0 Add four rect primitives between the rounded corners*
20,1,$1+$1,$2,$3,$4,$5,0*
20,1,$1+$1,$4,$5,$6,$7,0*
20,1,$1+$1,$6,$7,$8,$9,0*
20,1,$1+$1,$8,$9,$2,$3,0*%
G04 Aperture macros list end*
%ADD10C,0.650000*%
%ADD11R,0.600000X1.100000*%
%ADD12R,0.300000X1.240000*%
%ADD13O,1.000000X2.200000*%
%ADD14O,1.000000X1.800000*%
%ADD15C,3.048000*%
%ADD16C,3.987800*%
%ADD17C,1.750000*%
%ADD18C,4.000000*%
%ADD19C,2.500000*%
%ADD20C,6.500000*%
%ADD21O,8.000000X5.000000*%
%ADD22O,10.000000X5.000000*%
%ADD23C,5.000000*%
%ADD24RoundRect,0.237500X0.250000X0.237500X-0.250000X0.237500X-0.250000X-0.237500X0.250000X-0.237500X0*%
%ADD25RoundRect,0.237500X-0.237500X0.250000X-0.237500X-0.250000X0.237500X-0.250000X0.237500X0.250000X0*%
%ADD26RoundRect,0.237500X-0.300000X-0.237500X0.300000X-0.237500X0.300000X0.237500X-0.300000X0.237500X0*%
%ADD27RoundRect,0.237500X0.237500X-0.300000X0.237500X0.300000X-0.237500X0.300000X-0.237500X-0.300000X0*%
%ADD28RoundRect,0.237500X0.300000X0.237500X-0.300000X0.237500X-0.300000X-0.237500X0.300000X-0.237500X0*%
%ADD29RoundRect,0.237500X0.237500X-0.250000X0.237500X0.250000X-0.237500X0.250000X-0.237500X-0.250000X0*%
%ADD30R,0.750000X1.000000*%
%ADD31R,1.800000X2.100000*%
%ADD32RoundRect,0.250001X0.624999X-0.462499X0.624999X0.462499X-0.624999X0.462499X-0.624999X-0.462499X0*%
%ADD33RoundRect,0.225000X0.375000X-0.225000X0.375000X0.225000X-0.375000X0.225000X-0.375000X-0.225000X0*%
%ADD34RoundRect,0.062500X-0.062500X0.475000X-0.062500X-0.475000X0.062500X-0.475000X0.062500X0.475000X0*%
%ADD35RoundRect,0.062500X-0.475000X0.062500X-0.475000X-0.062500X0.475000X-0.062500X0.475000X0.062500X0*%
%ADD36R,5.200000X5.200000*%
G04 APERTURE END LIST*
D10*
X130860000Y-5100000D03*
X136640000Y-5100000D03*
D11*
X130550000Y-6275000D03*
X131350000Y-6275000D03*
D12*
X132500000Y-6200000D03*
X133500000Y-6200000D03*
X134000000Y-6200000D03*
X135000000Y-6200000D03*
D11*
X136150000Y-6275000D03*
X136950000Y-6275000D03*
X136950000Y-6275000D03*
X136150000Y-6275000D03*
D12*
X135500000Y-6200000D03*
X134500000Y-6200000D03*
X133000000Y-6200000D03*
X132000000Y-6200000D03*
D11*
X131350000Y-6275000D03*
X130550000Y-6275000D03*
D13*
X129430000Y-5600000D03*
D14*
X129430000Y-1400000D03*
D13*
X138070000Y-5600000D03*
D14*
X138070000Y-1400000D03*
D15*
X180843750Y-92585000D03*
D16*
X180843750Y-77375000D03*
D15*
X80843750Y-92585000D03*
D16*
X80843750Y-77375000D03*
D17*
X128145000Y-28450000D03*
D18*
X133225000Y-28450000D03*
D17*
X138305000Y-28450000D03*
D19*
X129415000Y-25910000D03*
X135765000Y-23370000D03*
D17*
X185295000Y-28450000D03*
D18*
X190375000Y-28450000D03*
D17*
X195455000Y-28450000D03*
D19*
X186565000Y-25910000D03*
X192915000Y-23370000D03*
D17*
X175770000Y-9400000D03*
D18*
X180850000Y-9400000D03*
D17*
X185930000Y-9400000D03*
D19*
X177040000Y-6860000D03*
X183390000Y-4320000D03*
D17*
X221013750Y-85600000D03*
D18*
X226093750Y-85600000D03*
D17*
X231173750Y-85600000D03*
D19*
X222283750Y-83060000D03*
X228633750Y-80520000D03*
D20*
X128450000Y-47100000D03*
D17*
X99570000Y-9400000D03*
D18*
X104650000Y-9400000D03*
D17*
X109730000Y-9400000D03*
D19*
X100840000Y-6860000D03*
X107190000Y-4320000D03*
D17*
X244826250Y-85600000D03*
D18*
X249906250Y-85600000D03*
D17*
X254986250Y-85600000D03*
D19*
X246096250Y-83060000D03*
X252446250Y-80520000D03*
D17*
X251970000Y-9400000D03*
D18*
X257050000Y-9400000D03*
D17*
X262130000Y-9400000D03*
D19*
X253240000Y-6860000D03*
X259590000Y-4320000D03*
D17*
X42420000Y-9400000D03*
D18*
X47500000Y-9400000D03*
D17*
X52580000Y-9400000D03*
D19*
X43690000Y-6860000D03*
X50040000Y-4320000D03*
D17*
X23370000Y-9400000D03*
D18*
X28450000Y-9400000D03*
D17*
X33530000Y-9400000D03*
D19*
X24640000Y-6860000D03*
X30990000Y-4320000D03*
D17*
X223395000Y-28450000D03*
D18*
X228475000Y-28450000D03*
D17*
X233555000Y-28450000D03*
D19*
X224665000Y-25910000D03*
X231015000Y-23370000D03*
D17*
X209107500Y-47500000D03*
D18*
X214187500Y-47500000D03*
D17*
X219267500Y-47500000D03*
D19*
X210377500Y-44960000D03*
X216727500Y-42420000D03*
D17*
X142750000Y-4320000D03*
D18*
X142750000Y-9400000D03*
D17*
X142750000Y-14480000D03*
D19*
X145290000Y-5590000D03*
X147830000Y-11940000D03*
D17*
X156720000Y-9400000D03*
D18*
X161800000Y-9400000D03*
D17*
X166880000Y-9400000D03*
D19*
X157990000Y-6860000D03*
X164340000Y-4320000D03*
D17*
X268638750Y-85600000D03*
D18*
X273718750Y-85600000D03*
D17*
X278798750Y-85600000D03*
D19*
X269908750Y-83060000D03*
X276258750Y-80520000D03*
D17*
X37657500Y-47500000D03*
D18*
X42737500Y-47500000D03*
D17*
X47817500Y-47500000D03*
D19*
X38927500Y-44960000D03*
X45277500Y-42420000D03*
D17*
X4320000Y-9400000D03*
D18*
X9400000Y-9400000D03*
D17*
X14480000Y-9400000D03*
D19*
X5590000Y-6860000D03*
X11940000Y-4320000D03*
D17*
X204345000Y-28450000D03*
D18*
X209425000Y-28450000D03*
D17*
X214505000Y-28450000D03*
D19*
X205615000Y-25910000D03*
X211965000Y-23370000D03*
D17*
X259113750Y-47500000D03*
D18*
X264193750Y-47500000D03*
D17*
X269273750Y-47500000D03*
D19*
X260383750Y-44960000D03*
X266733750Y-42420000D03*
D17*
X161482500Y-66550000D03*
D18*
X166562500Y-66550000D03*
D17*
X171642500Y-66550000D03*
D19*
X162752500Y-64010000D03*
X169102500Y-61470000D03*
D17*
X104332500Y-66550000D03*
D18*
X109412500Y-66550000D03*
D17*
X114492500Y-66550000D03*
D19*
X105602500Y-64010000D03*
X111952500Y-61470000D03*
D17*
X123700000Y-14480000D03*
D18*
X123700000Y-9400000D03*
D17*
X123700000Y-4320000D03*
D19*
X121160000Y-13210000D03*
X118620000Y-6860000D03*
D17*
X194820000Y-9400000D03*
D18*
X199900000Y-9400000D03*
D17*
X204980000Y-9400000D03*
D19*
X196090000Y-6860000D03*
X202440000Y-4320000D03*
D21*
X260550000Y-27900000D03*
D17*
X242445000Y-28450000D03*
D18*
X247525000Y-28450000D03*
D17*
X252605000Y-28450000D03*
D19*
X243715000Y-25910000D03*
X250065000Y-23370000D03*
D17*
X109095000Y-28450000D03*
D18*
X114175000Y-28450000D03*
D17*
X119255000Y-28450000D03*
D19*
X110365000Y-25910000D03*
X116715000Y-23370000D03*
D17*
X132907500Y-47500000D03*
D18*
X137987500Y-47500000D03*
D17*
X143067500Y-47500000D03*
D19*
X134177500Y-44960000D03*
X140527500Y-42420000D03*
D17*
X171007500Y-47500000D03*
D18*
X176087500Y-47500000D03*
D17*
X181167500Y-47500000D03*
D19*
X172277500Y-44960000D03*
X178627500Y-42420000D03*
D17*
X151957500Y-47500000D03*
D18*
X157037500Y-47500000D03*
D17*
X162117500Y-47500000D03*
D19*
X153227500Y-44960000D03*
X159577500Y-42420000D03*
D17*
X32895000Y-28450000D03*
D18*
X37975000Y-28450000D03*
D17*
X43055000Y-28450000D03*
D19*
X34165000Y-25910000D03*
X40515000Y-23370000D03*
D17*
X232920000Y-9400000D03*
D18*
X238000000Y-9400000D03*
D17*
X243080000Y-9400000D03*
D19*
X234190000Y-6860000D03*
X240540000Y-4320000D03*
D17*
X85282500Y-66550000D03*
D18*
X90362500Y-66550000D03*
D17*
X95442500Y-66550000D03*
D19*
X86552500Y-64010000D03*
X92902500Y-61470000D03*
D17*
X190057500Y-47500000D03*
D18*
X195137500Y-47500000D03*
D17*
X200217500Y-47500000D03*
D19*
X191327500Y-44960000D03*
X197677500Y-42420000D03*
D22*
X2500000Y-56500000D03*
D17*
X197201250Y-85600000D03*
D18*
X202281250Y-85600000D03*
D17*
X207361250Y-85600000D03*
D19*
X198471250Y-83060000D03*
X204821250Y-80520000D03*
D17*
X54326250Y-85600000D03*
D18*
X59406250Y-85600000D03*
D17*
X64486250Y-85600000D03*
D19*
X55596250Y-83060000D03*
X61946250Y-80520000D03*
D17*
X125763750Y-85600000D03*
D18*
X130843750Y-85600000D03*
D17*
X135923750Y-85600000D03*
D19*
X127033750Y-83060000D03*
X133383750Y-80520000D03*
D17*
X147195000Y-28450000D03*
D18*
X152275000Y-28450000D03*
D17*
X157355000Y-28450000D03*
D19*
X148465000Y-25910000D03*
X154815000Y-23370000D03*
D17*
X75757500Y-47500000D03*
D18*
X80837500Y-47500000D03*
D17*
X85917500Y-47500000D03*
D19*
X77027500Y-44960000D03*
X83377500Y-42420000D03*
D17*
X254351250Y-66550000D03*
D18*
X259431250Y-66550000D03*
D17*
X264511250Y-66550000D03*
D19*
X255621250Y-64010000D03*
X261971250Y-61470000D03*
D17*
X166245000Y-28450000D03*
D18*
X171325000Y-28450000D03*
D17*
X176405000Y-28450000D03*
D19*
X167515000Y-25910000D03*
X173865000Y-23370000D03*
D17*
X123382500Y-66550000D03*
D18*
X128462500Y-66550000D03*
D17*
X133542500Y-66550000D03*
D19*
X124652500Y-64010000D03*
X131002500Y-61470000D03*
D17*
X113857500Y-47500000D03*
D18*
X118937500Y-47500000D03*
D17*
X124017500Y-47500000D03*
D19*
X115127500Y-44960000D03*
X121477500Y-42420000D03*
D17*
X66232500Y-66550000D03*
D18*
X71312500Y-66550000D03*
D17*
X76392500Y-66550000D03*
D19*
X67502500Y-64010000D03*
X73852500Y-61470000D03*
D17*
X213870000Y-9400000D03*
D18*
X218950000Y-9400000D03*
D17*
X224030000Y-9400000D03*
D19*
X215140000Y-6860000D03*
X221490000Y-4320000D03*
D23*
X25200000Y-27900000D03*
D17*
X218632500Y-66550000D03*
D18*
X223712500Y-66550000D03*
D17*
X228792500Y-66550000D03*
D19*
X219902500Y-64010000D03*
X226252500Y-61470000D03*
D17*
X180532500Y-66550000D03*
D18*
X185612500Y-66550000D03*
D17*
X190692500Y-66550000D03*
D19*
X181802500Y-64010000D03*
X188152500Y-61470000D03*
D17*
X271020000Y-9400000D03*
D18*
X276100000Y-9400000D03*
D17*
X281180000Y-9400000D03*
D19*
X272290000Y-6860000D03*
X278640000Y-4320000D03*
D17*
X80520000Y-9400000D03*
D18*
X85600000Y-9400000D03*
D17*
X90680000Y-9400000D03*
D19*
X81790000Y-6860000D03*
X88140000Y-4320000D03*
D17*
X70995000Y-28450000D03*
D18*
X76075000Y-28450000D03*
D17*
X81155000Y-28450000D03*
D19*
X72265000Y-25910000D03*
X78615000Y-23370000D03*
D17*
X266257500Y-28450000D03*
D18*
X271337500Y-28450000D03*
D17*
X276417500Y-28450000D03*
D19*
X267527500Y-25910000D03*
X273877500Y-23370000D03*
D17*
X56707500Y-47500000D03*
D18*
X61787500Y-47500000D03*
D17*
X66867500Y-47500000D03*
D19*
X57977500Y-44960000D03*
X64327500Y-42420000D03*
D17*
X16226250Y-66550000D03*
D18*
X21306250Y-66550000D03*
D17*
X26386250Y-66550000D03*
D19*
X17496250Y-64010000D03*
X23846250Y-61470000D03*
D17*
X6701250Y-85600000D03*
D18*
X11781250Y-85600000D03*
D17*
X16861250Y-85600000D03*
D19*
X7971250Y-83060000D03*
X14321250Y-80520000D03*
D17*
X199582500Y-66550000D03*
D18*
X204662500Y-66550000D03*
D17*
X209742500Y-66550000D03*
D19*
X200852500Y-64010000D03*
X207202500Y-61470000D03*
D21*
X190500000Y-85200000D03*
D17*
X142432500Y-66550000D03*
D18*
X147512500Y-66550000D03*
D17*
X152592500Y-66550000D03*
D19*
X143702500Y-64010000D03*
X150052500Y-61470000D03*
D17*
X61470000Y-9400000D03*
D18*
X66550000Y-9400000D03*
D17*
X71630000Y-9400000D03*
D19*
X62740000Y-6860000D03*
X69090000Y-4320000D03*
D17*
X228157500Y-47500000D03*
D18*
X233237500Y-47500000D03*
D17*
X238317500Y-47500000D03*
D19*
X229427500Y-44960000D03*
X235777500Y-42420000D03*
D17*
X94807500Y-47500000D03*
D18*
X99887500Y-47500000D03*
D17*
X104967500Y-47500000D03*
D19*
X96077500Y-44960000D03*
X102427500Y-42420000D03*
D17*
X47182500Y-66550000D03*
D18*
X52262500Y-66550000D03*
D17*
X57342500Y-66550000D03*
D19*
X48452500Y-64010000D03*
X54802500Y-61470000D03*
D17*
X9082500Y-28450000D03*
D18*
X14162500Y-28450000D03*
D17*
X19242500Y-28450000D03*
D19*
X10352500Y-25910000D03*
X16702500Y-23370000D03*
D17*
X30513750Y-85600000D03*
D18*
X35593750Y-85600000D03*
D17*
X40673750Y-85600000D03*
D19*
X31783750Y-83060000D03*
X38133750Y-80520000D03*
D17*
X11463750Y-47500000D03*
D18*
X16543750Y-47500000D03*
D17*
X21623750Y-47500000D03*
D19*
X12733750Y-44960000D03*
X19083750Y-42420000D03*
D17*
X51945000Y-28450000D03*
D18*
X57025000Y-28450000D03*
D17*
X62105000Y-28450000D03*
D19*
X53215000Y-25910000D03*
X59565000Y-23370000D03*
D22*
X283900000Y-56500000D03*
D17*
X90045000Y-28450000D03*
D18*
X95125000Y-28450000D03*
D17*
X100205000Y-28450000D03*
D19*
X91315000Y-25910000D03*
X97665000Y-23370000D03*
D24*
X154912500Y-88750000D03*
X153087500Y-88750000D03*
D25*
X157650000Y-75437500D03*
X157650000Y-77262500D03*
D26*
X160837500Y-90500000D03*
X162562500Y-90500000D03*
D27*
X169700000Y-81062500D03*
X169700000Y-79337500D03*
D28*
X153362500Y-86500000D03*
X151637500Y-86500000D03*
D25*
X156150000Y-75437500D03*
X156150000Y-77262500D03*
X130850000Y-9087500D03*
X130850000Y-10912500D03*
D29*
X135500000Y-12712500D03*
X135500000Y-10887500D03*
D27*
X161000000Y-74462500D03*
X161000000Y-72737500D03*
D30*
X31025000Y-51200000D03*
X31025000Y-45200000D03*
X27275000Y-51200000D03*
X27275000Y-45200000D03*
D27*
X153162500Y-81112500D03*
X153162500Y-79387500D03*
D24*
X157812500Y-67300000D03*
X155987500Y-67300000D03*
D27*
X162550000Y-74462500D03*
X162550000Y-72737500D03*
X154662500Y-77212500D03*
X154662500Y-75487500D03*
D28*
X169362500Y-89300000D03*
X167637500Y-89300000D03*
D26*
X164500000Y-81050000D03*
X166225000Y-81050000D03*
D31*
X167350000Y-86450000D03*
X167350000Y-83550000D03*
X169650000Y-83550000D03*
X169650000Y-86450000D03*
D32*
X138500000Y-20275000D03*
X138500000Y-17300000D03*
D33*
X12000000Y-16100000D03*
X12000000Y-12800000D03*
X31050000Y-16100000D03*
X31050000Y-12800000D03*
X50100000Y-16100000D03*
X50100000Y-12800000D03*
X69150000Y-16100000D03*
X69150000Y-12800000D03*
X88200000Y-16100000D03*
X88200000Y-12800000D03*
X107250000Y-16100000D03*
X107250000Y-12800000D03*
X118500000Y-16100000D03*
X118500000Y-12800000D03*
X151000000Y-16100000D03*
X151000000Y-12800000D03*
X164500000Y-16100000D03*
X164500000Y-12800000D03*
X183250000Y-16100000D03*
X183250000Y-12800000D03*
X202500000Y-16100000D03*
X202500000Y-12800000D03*
X221500000Y-16100000D03*
X221500000Y-12800000D03*
X240500000Y-16100000D03*
X240500000Y-12800000D03*
X259500000Y-16100000D03*
X259500000Y-12800000D03*
X278750000Y-16100000D03*
X278750000Y-12800000D03*
X16750000Y-35100000D03*
X16750000Y-31800000D03*
X40500000Y-35100000D03*
X40500000Y-31800000D03*
X59550000Y-35100000D03*
X59550000Y-31800000D03*
X78600000Y-35100000D03*
X78600000Y-31800000D03*
X97650000Y-35100000D03*
X97650000Y-31800000D03*
X116700000Y-35100000D03*
X116700000Y-31800000D03*
X135750000Y-35100000D03*
X135750000Y-31800000D03*
X154800000Y-35100000D03*
X154800000Y-31800000D03*
X173850000Y-35100000D03*
X173850000Y-31800000D03*
X192900000Y-35100000D03*
X192900000Y-31800000D03*
X211950000Y-35100000D03*
X211950000Y-31800000D03*
X231000000Y-35100000D03*
X231000000Y-31800000D03*
X250000000Y-35100000D03*
X250000000Y-31800000D03*
X274000000Y-35100000D03*
X274000000Y-31800000D03*
X19250000Y-54350000D03*
X19250000Y-51050000D03*
X45250000Y-54350000D03*
X45250000Y-51050000D03*
X64300000Y-54350000D03*
X64300000Y-51050000D03*
X83350000Y-54350000D03*
X83350000Y-51050000D03*
X102400000Y-54350000D03*
X102400000Y-51050000D03*
X121500000Y-54350000D03*
X121500000Y-51050000D03*
X140500000Y-54350000D03*
X140500000Y-51050000D03*
X159550000Y-54350000D03*
X159550000Y-51050000D03*
X178600000Y-54350000D03*
X178600000Y-51050000D03*
X197650000Y-54350000D03*
X197650000Y-51050000D03*
X216700000Y-54350000D03*
X216700000Y-51050000D03*
X235750000Y-54350000D03*
X235750000Y-51050000D03*
X266750000Y-54100000D03*
X266750000Y-50800000D03*
X23750000Y-73350000D03*
X23750000Y-70050000D03*
X54800000Y-73350000D03*
X54800000Y-70050000D03*
X73850000Y-73350000D03*
X73850000Y-70050000D03*
X92900000Y-73350000D03*
X92900000Y-70050000D03*
X111950000Y-73350000D03*
X111950000Y-70050000D03*
X131000000Y-73350000D03*
X131000000Y-70050000D03*
X150050000Y-73350000D03*
X150050000Y-70050000D03*
X169100000Y-73350000D03*
X169100000Y-70050000D03*
X188150000Y-73350000D03*
X188150000Y-70050000D03*
X207200000Y-73350000D03*
X207200000Y-70050000D03*
X226250000Y-73350000D03*
X226250000Y-70050000D03*
X262000000Y-73350000D03*
X262000000Y-70050000D03*
X14500000Y-92350000D03*
X14500000Y-89050000D03*
X38312500Y-92350000D03*
X38312500Y-89050000D03*
X62125000Y-92350000D03*
X62125000Y-89050000D03*
X133250000Y-92350000D03*
X133250000Y-89050000D03*
X204750000Y-92350000D03*
X204750000Y-89050000D03*
X228750000Y-92350000D03*
X228750000Y-89050000D03*
X252500000Y-92350000D03*
X252500000Y-89050000D03*
X276250000Y-92350000D03*
X276250000Y-89050000D03*
D15*
X252255750Y-40515000D03*
D16*
X252255750Y-55725000D03*
D15*
X276131750Y-40515000D03*
D16*
X276131750Y-55725000D03*
D15*
X9368250Y-59565000D03*
D16*
X9368250Y-74775000D03*
D15*
X33244250Y-59565000D03*
D16*
X33244250Y-74775000D03*
D15*
X247493250Y-59565000D03*
D16*
X247493250Y-74775000D03*
D15*
X271369250Y-59565000D03*
D16*
X271369250Y-74775000D03*
D34*
X156150000Y-80262500D03*
X156650000Y-80262500D03*
X157150000Y-80262500D03*
X157650000Y-80262500D03*
X158150000Y-80262500D03*
X158650000Y-80262500D03*
X159150000Y-80262500D03*
X159650000Y-80262500D03*
X160150000Y-80262500D03*
X160650000Y-80262500D03*
X161150000Y-80262500D03*
D35*
X161987500Y-81100000D03*
X161987500Y-81600000D03*
X161987500Y-82100000D03*
X161987500Y-82600000D03*
X161987500Y-83100000D03*
X161987500Y-83600000D03*
X161987500Y-84100000D03*
X161987500Y-84600000D03*
X161987500Y-85100000D03*
X161987500Y-85600000D03*
X161987500Y-86100000D03*
D34*
X161150000Y-86937500D03*
X160650000Y-86937500D03*
X160150000Y-86937500D03*
X159650000Y-86937500D03*
X159150000Y-86937500D03*
X158650000Y-86937500D03*
X158150000Y-86937500D03*
X157650000Y-86937500D03*
X157150000Y-86937500D03*
X156650000Y-86937500D03*
X156150000Y-86937500D03*
D35*
X155312500Y-86100000D03*
X155312500Y-85600000D03*
X155312500Y-85100000D03*
X155312500Y-84600000D03*
X155312500Y-84100000D03*
X155312500Y-83600000D03*
X155312500Y-83100000D03*
X155312500Y-82600000D03*
X155312500Y-82100000D03*
X155312500Y-81600000D03*
X155312500Y-81100000D03*
D36*
X158650000Y-83600000D03*
M02*
