0
SECTION
2
HEADER
9
$INSUNITS
70
4
0
ENDSEC
0
SECTION
2
TABLES
0
TABLE
2
LTYPE
0
LTYPE
72
65
70
64
2
CONTINUOUS
3
______
73
0
40
0
0
ENDTAB
0
TABLE
2
LAYER
0
ENDTAB
0
ENDSEC
0
SECTION
2
ENTITIES
0
LINE
8
0
10
2.575
20
-2.325
11
16.475
21
-2.325
0
LINE
8
0
10
2.575
20
-16.725
11
16.475
21
-16.725
0
LINE
8
0
10
2.325
20
-2.575
11
2.325
21
-16.475
0
LINE
8
0
10
16.725
20
-2.575
11
16.725
21
-16.475
0
ARC
8
0
10
2.575
20
-2.575
40
0.25
50
90
51
180
0
ARC
8
0
10
16.475
20
-2.575
40
0.25
50
0
51
90
0
ARC
8
0
10
2.575
20
-16.475
40
0.25
50
180
51
270
0
ARC
8
0
10
16.475
20
-16.475
40
0.25
50
270
51
0
0
LINE
8
0
10
21.625
20
-2.325
11
35.525
21
-2.325
0
LINE
8
0
10
21.625
20
-16.725
11
35.525
21
-16.725
0
LINE
8
0
10
21.375
20
-2.575
11
21.375
21
-16.475
0
LINE
8
0
10
35.775
20
-2.575
11
35.775
21
-16.475
0
ARC
8
0
10
21.625
20
-2.575
40
0.25
50
90
51
180
0
ARC
8
0
10
35.525
20
-2.575
40
0.25
50
0
51
90
0
ARC
8
0
10
21.625
20
-16.475
40
0.25
50
180
51
270
0
ARC
8
0
10
35.525
20
-16.475
40
0.25
50
270
51
0
0
LINE
8
0
10
40.675
20
-2.325
11
54.575
21
-2.325
0
LINE
8
0
10
40.675
20
-16.725
11
54.575
21
-16.725
0
LINE
8
0
10
40.425
20
-2.575
11
40.425
21
-16.475
0
LINE
8
0
10
54.825
20
-2.575
11
54.825
21
-16.475
0
ARC
8
0
10
40.675
20
-2.575
40
0.25
50
90
51
180
0
ARC
8
0
10
54.575
20
-2.575
40
0.25
50
0
51
90
0
ARC
8
0
10
40.675
20
-16.475
40
0.25
50
180
51
270
0
ARC
8
0
10
54.575
20
-16.475
40
0.25
50
270
51
0
0
LINE
8
0
10
59.725
20
-2.325
11
73.625
21
-2.325
0
LINE
8
0
10
59.725
20
-16.725
11
73.625
21
-16.725
0
LINE
8
0
10
59.475
20
-2.575
11
59.475
21
-16.475
0
LINE
8
0
10
73.875
20
-2.575
11
73.875
21
-16.475
0
ARC
8
0
10
59.725
20
-2.575
40
0.25
50
90
51
180
0
ARC
8
0
10
73.625
20
-2.575
40
0.25
50
0
51
90
0
ARC
8
0
10
59.725
20
-16.475
40
0.25
50
180
51
270
0
ARC
8
0
10
73.625
20
-16.475
40
0.25
50
270
51
0
0
LINE
8
0
10
78.775
20
-2.325
11
92.675
21
-2.325
0
LINE
8
0
10
78.775
20
-16.725
11
92.675
21
-16.725
0
LINE
8
0
10
78.525
20
-2.575
11
78.525
21
-16.475
0
LINE
8
0
10
92.925
20
-2.575
11
92.925
21
-16.475
0
ARC
8
0
10
78.775
20
-2.575
40
0.25
50
90
51
180
0
ARC
8
0
10
92.675
20
-2.575
40
0.25
50
0
51
90
0
ARC
8
0
10
78.775
20
-16.475
40
0.25
50
180
51
270
0
ARC
8
0
10
92.675
20
-16.475
40
0.25
50
270
51
0
0
LINE
8
0
10
97.825
20
-2.325
11
111.725
21
-2.325
0
LINE
8
0
10
97.825
20
-16.725
11
111.725
21
-16.725
0
LINE
8
0
10
97.575
20
-2.575
11
97.575
21
-16.475
0
LINE
8
0
10
111.975
20
-2.575
11
111.975
21
-16.475
0
ARC
8
0
10
97.825
20
-2.575
40
0.25
50
90
51
180
0
ARC
8
0
10
111.725
20
-2.575
40
0.25
50
0
51
90
0
ARC
8
0
10
97.825
20
-16.475
40
0.25
50
180
51
270
0
ARC
8
0
10
111.725
20
-16.475
40
0.25
50
270
51
0
0
LINE
8
0
10
116.875
20
-2.325
11
130.775
21
-2.325
0
LINE
8
0
10
116.875
20
-16.725
11
130.775
21
-16.725
0
LINE
8
0
10
116.625
20
-2.575
11
116.625
21
-16.475
0
LINE
8
0
10
131.025
20
-2.575
11
131.025
21
-16.475
0
ARC
8
0
10
116.875
20
-2.575
40
0.25
50
90
51
180
0
ARC
8
0
10
130.775
20
-2.575
40
0.25
50
0
51
90
0
ARC
8
0
10
116.875
20
-16.475
40
0.25
50
180
51
270
0
ARC
8
0
10
130.775
20
-16.475
40
0.25
50
270
51
0
0
LINE
8
0
10
135.925
20
-2.325
11
149.825
21
-2.325
0
LINE
8
0
10
135.925
20
-16.725
11
149.825
21
-16.725
0
LINE
8
0
10
135.675
20
-2.575
11
135.675
21
-16.475
0
LINE
8
0
10
150.075
20
-2.575
11
150.075
21
-16.475
0
ARC
8
0
10
135.925
20
-2.575
40
0.25
50
90
51
180
0
ARC
8
0
10
149.825
20
-2.575
40
0.25
50
0
51
90
0
ARC
8
0
10
135.925
20
-16.475
40
0.25
50
180
51
270
0
ARC
8
0
10
149.825
20
-16.475
40
0.25
50
270
51
0
0
LINE
8
0
10
154.975
20
-2.325
11
168.875
21
-2.325
0
LINE
8
0
10
154.975
20
-16.725
11
168.875
21
-16.725
0
LINE
8
0
10
154.725
20
-2.575
11
154.725
21
-16.475
0
LINE
8
0
10
169.125
20
-2.575
11
169.125
21
-16.475
0
ARC
8
0
10
154.975
20
-2.575
40
0.25
50
90
51
180
0
ARC
8
0
10
168.875
20
-2.575
40
0.25
50
0
51
90
0
ARC
8
0
10
154.975
20
-16.475
40
0.25
50
180
51
270
0
ARC
8
0
10
168.875
20
-16.475
40
0.25
50
270
51
0
0
LINE
8
0
10
174.025
20
-2.325
11
187.925
21
-2.325
0
LINE
8
0
10
174.025
20
-16.725
11
187.925
21
-16.725
0
LINE
8
0
10
173.775
20
-2.575
11
173.775
21
-16.475
0
LINE
8
0
10
188.175
20
-2.575
11
188.175
21
-16.475
0
ARC
8
0
10
174.025
20
-2.575
40
0.25
50
90
51
180
0
ARC
8
0
10
187.925
20
-2.575
40
0.25
50
0
51
90
0
ARC
8
0
10
174.025
20
-16.475
40
0.25
50
180
51
270
0
ARC
8
0
10
187.925
20
-16.475
40
0.25
50
270
51
0
0
LINE
8
0
10
193.075
20
-2.325
11
206.975
21
-2.325
0
LINE
8
0
10
193.075
20
-16.725
11
206.975
21
-16.725
0
LINE
8
0
10
192.825
20
-2.575
11
192.825
21
-16.475
0
LINE
8
0
10
207.225
20
-2.575
11
207.225
21
-16.475
0
ARC
8
0
10
193.075
20
-2.575
40
0.25
50
90
51
180
0
ARC
8
0
10
206.975
20
-2.575
40
0.25
50
0
51
90
0
ARC
8
0
10
193.075
20
-16.475
40
0.25
50
180
51
270
0
ARC
8
0
10
206.975
20
-16.475
40
0.25
50
270
51
0
0
LINE
8
0
10
212.125
20
-2.325
11
226.025
21
-2.325
0
LINE
8
0
10
212.125
20
-16.725
11
226.025
21
-16.725
0
LINE
8
0
10
211.875
20
-2.575
11
211.875
21
-16.475
0
LINE
8
0
10
226.275
20
-2.575
11
226.275
21
-16.475
0
ARC
8
0
10
212.125
20
-2.575
40
0.25
50
90
51
180
0
ARC
8
0
10
226.025
20
-2.575
40
0.25
50
0
51
90
0
ARC
8
0
10
212.125
20
-16.475
40
0.25
50
180
51
270
0
ARC
8
0
10
226.025
20
-16.475
40
0.25
50
270
51
0
0
LINE
8
0
10
231.175
20
-2.325
11
245.075
21
-2.325
0
LINE
8
0
10
231.175
20
-16.725
11
245.075
21
-16.725
0
LINE
8
0
10
230.925
20
-2.575
11
230.925
21
-16.475
0
LINE
8
0
10
245.325
20
-2.575
11
245.325
21
-16.475
0
ARC
8
0
10
231.175
20
-2.575
40
0.25
50
90
51
180
0
ARC
8
0
10
245.075
20
-2.575
40
0.25
50
0
51
90
0
ARC
8
0
10
231.175
20
-16.475
40
0.25
50
180
51
270
0
ARC
8
0
10
245.075
20
-16.475
40
0.25
50
270
51
0
0
LINE
8
0
10
250.225
20
-2.325
11
264.125
21
-2.325
0
LINE
8
0
10
250.225
20
-16.725
11
264.125
21
-16.725
0
LINE
8
0
10
249.975
20
-2.575
11
249.975
21
-16.475
0
LINE
8
0
10
264.375
20
-2.575
11
264.375
21
-16.475
0
ARC
8
0
10
250.225
20
-2.575
40
0.25
50
90
51
180
0
ARC
8
0
10
264.125
20
-2.575
40
0.25
50
0
51
90
0
ARC
8
0
10
250.225
20
-16.475
40
0.25
50
180
51
270
0
ARC
8
0
10
264.125
20
-16.475
40
0.25
50
270
51
0
0
LINE
8
0
10
269.275
20
-2.325
11
283.175
21
-2.325
0
LINE
8
0
10
269.275
20
-16.725
11
283.175
21
-16.725
0
LINE
8
0
10
269.025
20
-2.575
11
269.025
21
-16.475
0
LINE
8
0
10
283.425
20
-2.575
11
283.425
21
-16.475
0
ARC
8
0
10
269.275
20
-2.575
40
0.25
50
90
51
180
0
ARC
8
0
10
283.175
20
-2.575
40
0.25
50
0
51
90
0
ARC
8
0
10
269.275
20
-16.475
40
0.25
50
180
51
270
0
ARC
8
0
10
283.175
20
-16.475
40
0.25
50
270
51
0
0
LINE
8
0
10
7.3375
20
-21.375
11
21.2375
21
-21.375
0
LINE
8
0
10
7.3375
20
-35.775
11
21.2375
21
-35.775
0
LINE
8
0
10
7.0875
20
-21.625
11
7.0875
21
-35.525
0
LINE
8
0
10
21.4875
20
-21.625
11
21.4875
21
-35.525
0
ARC
8
0
10
7.3375
20
-21.625
40
0.25
50
90
51
180
0
ARC
8
0
10
21.2375
20
-21.625
40
0.25
50
0
51
90
0
ARC
8
0
10
7.3375
20
-35.525
40
0.25
50
180
51
270
0
ARC
8
0
10
21.2375
20
-35.525
40
0.25
50
270
51
0
0
LINE
8
0
10
31.15
20
-21.375
11
45.05
21
-21.375
0
LINE
8
0
10
31.15
20
-35.775
11
45.05
21
-35.775
0
LINE
8
0
10
30.9
20
-21.625
11
30.9
21
-35.525
0
LINE
8
0
10
45.3
20
-21.625
11
45.3
21
-35.525
0
ARC
8
0
10
31.15
20
-21.625
40
0.25
50
90
51
180
0
ARC
8
0
10
45.05
20
-21.625
40
0.25
50
0
51
90
0
ARC
8
0
10
31.15
20
-35.525
40
0.25
50
180
51
270
0
ARC
8
0
10
45.05
20
-35.525
40
0.25
50
270
51
0
0
LINE
8
0
10
50.2
20
-21.375
11
64.1
21
-21.375
0
LINE
8
0
10
50.2
20
-35.775
11
64.1
21
-35.775
0
LINE
8
0
10
49.95
20
-21.625
11
49.95
21
-35.525
0
LINE
8
0
10
64.35
20
-21.625
11
64.35
21
-35.525
0
ARC
8
0
10
50.2
20
-21.625
40
0.25
50
90
51
180
0
ARC
8
0
10
64.1
20
-21.625
40
0.25
50
0
51
90
0
ARC
8
0
10
50.2
20
-35.525
40
0.25
50
180
51
270
0
ARC
8
0
10
64.1
20
-35.525
40
0.25
50
270
51
0
0
LINE
8
0
10
69.25
20
-21.375
11
83.15
21
-21.375
0
LINE
8
0
10
69.25
20
-35.775
11
83.15
21
-35.775
0
LINE
8
0
10
69
20
-21.625
11
69
21
-35.525
0
LINE
8
0
10
83.4
20
-21.625
11
83.4
21
-35.525
0
ARC
8
0
10
69.25
20
-21.625
40
0.25
50
90
51
180
0
ARC
8
0
10
83.15
20
-21.625
40
0.25
50
0
51
90
0
ARC
8
0
10
69.25
20
-35.525
40
0.25
50
180
51
270
0
ARC
8
0
10
83.15
20
-35.525
40
0.25
50
270
51
0
0
LINE
8
0
10
88.3
20
-21.375
11
102.2
21
-21.375
0
LINE
8
0
10
88.3
20
-35.775
11
102.2
21
-35.775
0
LINE
8
0
10
88.05
20
-21.625
11
88.05
21
-35.525
0
LINE
8
0
10
102.45
20
-21.625
11
102.45
21
-35.525
0
ARC
8
0
10
88.3
20
-21.625
40
0.25
50
90
51
180
0
ARC
8
0
10
102.2
20
-21.625
40
0.25
50
0
51
90
0
ARC
8
0
10
88.3
20
-35.525
40
0.25
50
180
51
270
0
ARC
8
0
10
102.2
20
-35.525
40
0.25
50
270
51
0
0
LINE
8
0
10
107.35
20
-21.375
11
121.25
21
-21.375
0
LINE
8
0
10
107.35
20
-35.775
11
121.25
21
-35.775
0
LINE
8
0
10
107.1
20
-21.625
11
107.1
21
-35.525
0
LINE
8
0
10
121.5
20
-21.625
11
121.5
21
-35.525
0
ARC
8
0
10
107.35
20
-21.625
40
0.25
50
90
51
180
0
ARC
8
0
10
121.25
20
-21.625
40
0.25
50
0
51
90
0
ARC
8
0
10
107.35
20
-35.525
40
0.25
50
180
51
270
0
ARC
8
0
10
121.25
20
-35.525
40
0.25
50
270
51
0
0
LINE
8
0
10
126.4
20
-21.375
11
140.3
21
-21.375
0
LINE
8
0
10
126.4
20
-35.775
11
140.3
21
-35.775
0
LINE
8
0
10
126.15
20
-21.625
11
126.15
21
-35.525
0
LINE
8
0
10
140.55
20
-21.625
11
140.55
21
-35.525
0
ARC
8
0
10
126.4
20
-21.625
40
0.25
50
90
51
180
0
ARC
8
0
10
140.3
20
-21.625
40
0.25
50
0
51
90
0
ARC
8
0
10
126.4
20
-35.525
40
0.25
50
180
51
270
0
ARC
8
0
10
140.3
20
-35.525
40
0.25
50
270
51
0
0
LINE
8
0
10
145.45
20
-21.375
11
159.35
21
-21.375
0
LINE
8
0
10
145.45
20
-35.775
11
159.35
21
-35.775
0
LINE
8
0
10
145.2
20
-21.625
11
145.2
21
-35.525
0
LINE
8
0
10
159.6
20
-21.625
11
159.6
21
-35.525
0
ARC
8
0
10
145.45
20
-21.625
40
0.25
50
90
51
180
0
ARC
8
0
10
159.35
20
-21.625
40
0.25
50
0
51
90
0
ARC
8
0
10
145.45
20
-35.525
40
0.25
50
180
51
270
0
ARC
8
0
10
159.35
20
-35.525
40
0.25
50
270
51
0
0
LINE
8
0
10
164.5
20
-21.375
11
178.4
21
-21.375
0
LINE
8
0
10
164.5
20
-35.775
11
178.4
21
-35.775
0
LINE
8
0
10
164.25
20
-21.625
11
164.25
21
-35.525
0
LINE
8
0
10
178.65
20
-21.625
11
178.65
21
-35.525
0
ARC
8
0
10
164.5
20
-21.625
40
0.25
50
90
51
180
0
ARC
8
0
10
178.4
20
-21.625
40
0.25
50
0
51
90
0
ARC
8
0
10
164.5
20
-35.525
40
0.25
50
180
51
270
0
ARC
8
0
10
178.4
20
-35.525
40
0.25
50
270
51
0
0
LINE
8
0
10
183.55
20
-21.375
11
197.45
21
-21.375
0
LINE
8
0
10
183.55
20
-35.775
11
197.45
21
-35.775
0
LINE
8
0
10
183.3
20
-21.625
11
183.3
21
-35.525
0
LINE
8
0
10
197.7
20
-21.625
11
197.7
21
-35.525
0
ARC
8
0
10
183.55
20
-21.625
40
0.25
50
90
51
180
0
ARC
8
0
10
197.45
20
-21.625
40
0.25
50
0
51
90
0
ARC
8
0
10
183.55
20
-35.525
40
0.25
50
180
51
270
0
ARC
8
0
10
197.45
20
-35.525
40
0.25
50
270
51
0
0
LINE
8
0
10
202.6
20
-21.375
11
216.5
21
-21.375
0
LINE
8
0
10
202.6
20
-35.775
11
216.5
21
-35.775
0
LINE
8
0
10
202.35
20
-21.625
11
202.35
21
-35.525
0
LINE
8
0
10
216.75
20
-21.625
11
216.75
21
-35.525
0
ARC
8
0
10
202.6
20
-21.625
40
0.25
50
90
51
180
0
ARC
8
0
10
216.5
20
-21.625
40
0.25
50
0
51
90
0
ARC
8
0
10
202.6
20
-35.525
40
0.25
50
180
51
270
0
ARC
8
0
10
216.5
20
-35.525
40
0.25
50
270
51
0
0
LINE
8
0
10
221.65
20
-21.375
11
235.55
21
-21.375
0
LINE
8
0
10
221.65
20
-35.775
11
235.55
21
-35.775
0
LINE
8
0
10
221.4
20
-21.625
11
221.4
21
-35.525
0
LINE
8
0
10
235.8
20
-21.625
11
235.8
21
-35.525
0
ARC
8
0
10
221.65
20
-21.625
40
0.25
50
90
51
180
0
ARC
8
0
10
235.55
20
-21.625
40
0.25
50
0
51
90
0
ARC
8
0
10
221.65
20
-35.525
40
0.25
50
180
51
270
0
ARC
8
0
10
235.55
20
-35.525
40
0.25
50
270
51
0
0
LINE
8
0
10
240.7
20
-21.375
11
254.6
21
-21.375
0
LINE
8
0
10
240.7
20
-35.775
11
254.6
21
-35.775
0
LINE
8
0
10
240.45
20
-21.625
11
240.45
21
-35.525
0
LINE
8
0
10
254.85
20
-21.625
11
254.85
21
-35.525
0
ARC
8
0
10
240.7
20
-21.625
40
0.25
50
90
51
180
0
ARC
8
0
10
254.6
20
-21.625
40
0.25
50
0
51
90
0
ARC
8
0
10
240.7
20
-35.525
40
0.25
50
180
51
270
0
ARC
8
0
10
254.6
20
-35.525
40
0.25
50
270
51
0
0
LINE
8
0
10
264.5125
20
-21.375
11
278.4125
21
-21.375
0
LINE
8
0
10
264.5125
20
-35.775
11
278.4125
21
-35.775
0
LINE
8
0
10
264.2625
20
-21.625
11
264.2625
21
-35.525
0
LINE
8
0
10
278.6625
20
-21.625
11
278.6625
21
-35.525
0
ARC
8
0
10
264.5125
20
-21.625
40
0.25
50
90
51
180
0
ARC
8
0
10
278.4125
20
-21.625
40
0.25
50
0
51
90
0
ARC
8
0
10
264.5125
20
-35.525
40
0.25
50
180
51
270
0
ARC
8
0
10
278.4125
20
-35.525
40
0.25
50
270
51
0
0
LINE
8
0
10
4.95625
20
-40.425
11
18.85625
21
-40.425
0
LINE
8
0
10
4.95625
20
-54.825
11
18.85625
21
-54.825
0
LINE
8
0
10
4.70625
20
-40.675
11
4.70625
21
-54.575
0
LINE
8
0
10
19.10625
20
-40.675
11
19.10625
21
-54.575
0
ARC
8
0
10
4.95625
20
-40.675
40
0.25
50
90
51
180
0
ARC
8
0
10
18.85625
20
-40.675
40
0.25
50
0
51
90
0
ARC
8
0
10
4.95625
20
-54.575
40
0.25
50
180
51
270
0
ARC
8
0
10
18.85625
20
-54.575
40
0.25
50
270
51
0
0
LINE
8
0
10
35.9125
20
-40.425
11
49.8125
21
-40.425
0
LINE
8
0
10
35.9125
20
-54.825
11
49.8125
21
-54.825
0
LINE
8
0
10
35.6625
20
-40.675
11
35.6625
21
-54.575
0
LINE
8
0
10
50.0625
20
-40.675
11
50.0625
21
-54.575
0
ARC
8
0
10
35.9125
20
-40.675
40
0.25
50
90
51
180
0
ARC
8
0
10
49.8125
20
-40.675
40
0.25
50
0
51
90
0
ARC
8
0
10
35.9125
20
-54.575
40
0.25
50
180
51
270
0
ARC
8
0
10
49.8125
20
-54.575
40
0.25
50
270
51
0
0
LINE
8
0
10
54.9625
20
-40.425
11
68.8625
21
-40.425
0
LINE
8
0
10
54.9625
20
-54.825
11
68.8625
21
-54.825
0
LINE
8
0
10
54.7125
20
-40.675
11
54.7125
21
-54.575
0
LINE
8
0
10
69.1125
20
-40.675
11
69.1125
21
-54.575
0
ARC
8
0
10
54.9625
20
-40.675
40
0.25
50
90
51
180
0
ARC
8
0
10
68.8625
20
-40.675
40
0.25
50
0
51
90
0
ARC
8
0
10
54.9625
20
-54.575
40
0.25
50
180
51
270
0
ARC
8
0
10
68.8625
20
-54.575
40
0.25
50
270
51
0
0
LINE
8
0
10
74.0125
20
-40.425
11
87.9125
21
-40.425
0
LINE
8
0
10
74.0125
20
-54.825
11
87.9125
21
-54.825
0
LINE
8
0
10
73.7625
20
-40.675
11
73.7625
21
-54.575
0
LINE
8
0
10
88.1625
20
-40.675
11
88.1625
21
-54.575
0
ARC
8
0
10
74.0125
20
-40.675
40
0.25
50
90
51
180
0
ARC
8
0
10
87.9125
20
-40.675
40
0.25
50
0
51
90
0
ARC
8
0
10
74.0125
20
-54.575
40
0.25
50
180
51
270
0
ARC
8
0
10
87.9125
20
-54.575
40
0.25
50
270
51
0
0
LINE
8
0
10
93.0625
20
-40.425
11
106.9625
21
-40.425
0
LINE
8
0
10
93.0625
20
-54.825
11
106.9625
21
-54.825
0
LINE
8
0
10
92.8125
20
-40.675
11
92.8125
21
-54.575
0
LINE
8
0
10
107.2125
20
-40.675
11
107.2125
21
-54.575
0
ARC
8
0
10
93.0625
20
-40.675
40
0.25
50
90
51
180
0
ARC
8
0
10
106.9625
20
-40.675
40
0.25
50
0
51
90
0
ARC
8
0
10
93.0625
20
-54.575
40
0.25
50
180
51
270
0
ARC
8
0
10
106.9625
20
-54.575
40
0.25
50
270
51
0
0
LINE
8
0
10
112.1125
20
-40.425
11
126.0125
21
-40.425
0
LINE
8
0
10
112.1125
20
-54.825
11
126.0125
21
-54.825
0
LINE
8
0
10
111.8625
20
-40.675
11
111.8625
21
-54.575
0
LINE
8
0
10
126.2625
20
-40.675
11
126.2625
21
-54.575
0
ARC
8
0
10
112.1125
20
-40.675
40
0.25
50
90
51
180
0
ARC
8
0
10
126.0125
20
-40.675
40
0.25
50
0
51
90
0
ARC
8
0
10
112.1125
20
-54.575
40
0.25
50
180
51
270
0
ARC
8
0
10
126.0125
20
-54.575
40
0.25
50
270
51
0
0
LINE
8
0
10
131.1625
20
-40.425
11
145.0625
21
-40.425
0
LINE
8
0
10
131.1625
20
-54.825
11
145.0625
21
-54.825
0
LINE
8
0
10
130.9125
20
-40.675
11
130.9125
21
-54.575
0
LINE
8
0
10
145.3125
20
-40.675
11
145.3125
21
-54.575
0
ARC
8
0
10
131.1625
20
-40.675
40
0.25
50
90
51
180
0
ARC
8
0
10
145.0625
20
-40.675
40
0.25
50
0
51
90
0
ARC
8
0
10
131.1625
20
-54.575
40
0.25
50
180
51
270
0
ARC
8
0
10
145.0625
20
-54.575
40
0.25
50
270
51
0
0
LINE
8
0
10
150.2125
20
-40.425
11
164.1125
21
-40.425
0
LINE
8
0
10
150.2125
20
-54.825
11
164.1125
21
-54.825
0
LINE
8
0
10
149.9625
20
-40.675
11
149.9625
21
-54.575
0
LINE
8
0
10
164.3625
20
-40.675
11
164.3625
21
-54.575
0
ARC
8
0
10
150.2125
20
-40.675
40
0.25
50
90
51
180
0
ARC
8
0
10
164.1125
20
-40.675
40
0.25
50
0
51
90
0
ARC
8
0
10
150.2125
20
-54.575
40
0.25
50
180
51
270
0
ARC
8
0
10
164.1125
20
-54.575
40
0.25
50
270
51
0
0
LINE
8
0
10
169.2625
20
-40.425
11
183.1625
21
-40.425
0
LINE
8
0
10
169.2625
20
-54.825
11
183.1625
21
-54.825
0
LINE
8
0
10
169.0125
20
-40.675
11
169.0125
21
-54.575
0
LINE
8
0
10
183.4125
20
-40.675
11
183.4125
21
-54.575
0
ARC
8
0
10
169.2625
20
-40.675
40
0.25
50
90
51
180
0
ARC
8
0
10
183.1625
20
-40.675
40
0.25
50
0
51
90
0
ARC
8
0
10
169.2625
20
-54.575
40
0.25
50
180
51
270
0
ARC
8
0
10
183.1625
20
-54.575
40
0.25
50
270
51
0
0
LINE
8
0
10
188.3125
20
-40.425
11
202.2125
21
-40.425
0
LINE
8
0
10
188.3125
20
-54.825
11
202.2125
21
-54.825
0
LINE
8
0
10
188.0625
20
-40.675
11
188.0625
21
-54.575
0
LINE
8
0
10
202.4625
20
-40.675
11
202.4625
21
-54.575
0
ARC
8
0
10
188.3125
20
-40.675
40
0.25
50
90
51
180
0
ARC
8
0
10
202.2125
20
-40.675
40
0.25
50
0
51
90
0
ARC
8
0
10
188.3125
20
-54.575
40
0.25
50
180
51
270
0
ARC
8
0
10
202.2125
20
-54.575
40
0.25
50
270
51
0
0
LINE
8
0
10
207.3625
20
-40.425
11
221.2625
21
-40.425
0
LINE
8
0
10
207.3625
20
-54.825
11
221.2625
21
-54.825
0
LINE
8
0
10
207.1125
20
-40.675
11
207.1125
21
-54.575
0
LINE
8
0
10
221.5125
20
-40.675
11
221.5125
21
-54.575
0
ARC
8
0
10
207.3625
20
-40.675
40
0.25
50
90
51
180
0
ARC
8
0
10
221.2625
20
-40.675
40
0.25
50
0
51
90
0
ARC
8
0
10
207.3625
20
-54.575
40
0.25
50
180
51
270
0
ARC
8
0
10
221.2625
20
-54.575
40
0.25
50
270
51
0
0
LINE
8
0
10
226.4125
20
-40.425
11
240.3125
21
-40.425
0
LINE
8
0
10
226.4125
20
-54.825
11
240.3125
21
-54.825
0
LINE
8
0
10
226.1625
20
-40.675
11
226.1625
21
-54.575
0
LINE
8
0
10
240.5625
20
-40.675
11
240.5625
21
-54.575
0
ARC
8
0
10
226.4125
20
-40.675
40
0.25
50
90
51
180
0
ARC
8
0
10
240.3125
20
-40.675
40
0.25
50
0
51
90
0
ARC
8
0
10
226.4125
20
-54.575
40
0.25
50
180
51
270
0
ARC
8
0
10
240.3125
20
-54.575
40
0.25
50
270
51
0
0
LINE
8
0
10
257.36875
20
-40.425
11
271.26875
21
-40.425
0
LINE
8
0
10
257.36875
20
-54.825
11
271.26875
21
-54.825
0
LINE
8
0
10
257.11875
20
-40.675
11
257.11875
21
-54.575
0
LINE
8
0
10
271.51875
20
-40.675
11
271.51875
21
-54.575
0
ARC
8
0
10
257.36875
20
-40.675
40
0.25
50
90
51
180
0
ARC
8
0
10
271.26875
20
-40.675
40
0.25
50
0
51
90
0
ARC
8
0
10
257.36875
20
-54.575
40
0.25
50
180
51
270
0
ARC
8
0
10
271.26875
20
-54.575
40
0.25
50
270
51
0
0
LINE
8
0
10
249.10335
20
-41.7354
11
255.65815
21
-41.7354
0
LINE
8
0
10
255.90815
20
-41.9854
11
255.90815
21
-42.2982
0
LINE
8
0
10
256.15815
20
-42.5482
11
264.31875
21
-42.5482
0
LINE
8
0
10
264.31875
20
-53.6416
11
256.15815
21
-53.6416
0
LINE
8
0
10
255.90815
20
-53.8916
11
255.90815
21
-54.179
0
LINE
8
0
10
255.65815
20
-54.429
11
254.35475
21
-54.429
0
LINE
8
0
10
254.10475
20
-54.679
11
254.10475
21
-55.3474
0
LINE
8
0
10
253.85475
20
-55.5974
11
250.90675
21
-55.5974
0
LINE
8
0
10
250.65675
20
-55.3474
11
250.65675
21
-54.679
0
LINE
8
0
10
250.40675
20
-54.429
11
249.10335
21
-54.429
0
LINE
8
0
10
248.85335
20
-54.179
11
248.85335
21
-48.583
0
LINE
8
0
10
248.60335
20
-48.333
11
248.23975
21
-48.333
0
LINE
8
0
10
247.98975
20
-48.083
11
247.98975
21
-45.389
0
LINE
8
0
10
248.23975
20
-45.139
11
248.60335
21
-45.139
0
LINE
8
0
10
248.85335
20
-44.889
11
248.85335
21
-41.9854
0
ARC
8
0
10
255.65815
20
-41.9854
40
0.25
50
0
51
90
0
ARC
8
0
10
256.15815
20
-42.2982
40
0.25
50
180
51
270
0
ARC
8
0
10
256.15815
20
-53.8916
40
0.25
50
90
51
180
0
ARC
8
0
10
255.65815
20
-54.179
40
0.25
50
270
51
0
0
ARC
8
0
10
254.35475
20
-54.679
40
0.25
50
90
51
180
0
ARC
8
0
10
253.85475
20
-55.3474
40
0.25
50
270
51
0
0
ARC
8
0
10
250.90675
20
-55.3474
40
0.25
50
180
51
270
0
ARC
8
0
10
250.40675
20
-54.679
40
0.25
50
0
51
90
0
ARC
8
0
10
249.10335
20
-54.179
40
0.25
50
180
51
270
0
ARC
8
0
10
248.60335
20
-48.583
40
0.25
50
0
51
90
0
ARC
8
0
10
248.23975
20
-48.083
40
0.25
50
180
51
270
0
ARC
8
0
10
248.23975
20
-45.389
40
0.25
50
90
51
180
0
ARC
8
0
10
248.60335
20
-44.889
40
0.25
50
270
51
0
0
ARC
8
0
10
249.10335
20
-41.9854
40
0.25
50
90
51
180
0
LINE
8
0
10
279.53415
20
-41.7354
11
272.97935
21
-41.7354
0
LINE
8
0
10
272.72935
20
-41.9854
11
272.72935
21
-42.2982
0
LINE
8
0
10
272.47935
20
-42.5482
11
264.31875
21
-42.5482
0
LINE
8
0
10
264.31875
20
-53.6416
11
272.47935
21
-53.6416
0
LINE
8
0
10
272.72935
20
-53.8916
11
272.72935
21
-54.179
0
LINE
8
0
10
272.97935
20
-54.429
11
274.28275
21
-54.429
0
LINE
8
0
10
274.53275
20
-54.679
11
274.53275
21
-55.3474
0
LINE
8
0
10
274.78275
20
-55.5974
11
277.73075
21
-55.5974
0
LINE
8
0
10
277.98075
20
-55.3474
11
277.98075
21
-54.679
0
LINE
8
0
10
278.23075
20
-54.429
11
279.53415
21
-54.429
0
LINE
8
0
10
279.78415
20
-54.179
11
279.78415
21
-48.583
0
LINE
8
0
10
280.03415
20
-48.333
11
280.39775
21
-48.333
0
LINE
8
0
10
280.64775
20
-48.083
11
280.64775
21
-45.389
0
LINE
8
0
10
280.39775
20
-45.139
11
280.03415
21
-45.139
0
LINE
8
0
10
279.78415
20
-44.889
11
279.78415
21
-41.9854
0
ARC
8
0
10
272.97935
20
-41.9854
40
0.25
50
90
51
180
0
ARC
8
0
10
272.47935
20
-42.2982
40
0.25
50
270
51
0
0
ARC
8
0
10
272.47935
20
-53.8916
40
0.25
50
0
51
90
0
ARC
8
0
10
272.97935
20
-54.179
40
0.25
50
180
51
270
0
ARC
8
0
10
274.28275
20
-54.679
40
0.25
50
0
51
90
0
ARC
8
0
10
274.78275
20
-55.3474
40
0.25
50
180
51
270
0
ARC
8
0
10
277.73075
20
-55.3474
40
0.25
50
270
51
0
0
ARC
8
0
10
278.23075
20
-54.679
40
0.25
50
90
51
180
0
ARC
8
0
10
279.53415
20
-54.179
40
0.25
50
270
51
0
0
ARC
8
0
10
280.03415
20
-48.583
40
0.25
50
90
51
180
0
ARC
8
0
10
280.39775
20
-48.083
40
0.25
50
270
51
0
0
ARC
8
0
10
280.39775
20
-45.389
40
0.25
50
0
51
90
0
ARC
8
0
10
280.03415
20
-44.889
40
0.25
50
180
51
270
0
ARC
8
0
10
279.53415
20
-41.9854
40
0.25
50
0
51
90
0
LINE
8
0
10
14.48125
20
-59.475
11
28.38125
21
-59.475
0
LINE
8
0
10
14.48125
20
-73.875
11
28.38125
21
-73.875
0
LINE
8
0
10
14.23125
20
-59.725
11
14.23125
21
-73.625
0
LINE
8
0
10
28.63125
20
-59.725
11
28.63125
21
-73.625
0
ARC
8
0
10
14.48125
20
-59.725
40
0.25
50
90
51
180
0
ARC
8
0
10
28.38125
20
-59.725
40
0.25
50
0
51
90
0
ARC
8
0
10
14.48125
20
-73.625
40
0.25
50
180
51
270
0
ARC
8
0
10
28.38125
20
-73.625
40
0.25
50
270
51
0
0
LINE
8
0
10
6.21585
20
-60.7854
11
12.77065
21
-60.7854
0
LINE
8
0
10
13.02065
20
-61.0354
11
13.02065
21
-61.3482
0
LINE
8
0
10
13.27065
20
-61.5982
11
21.43125
21
-61.5982
0
LINE
8
0
10
21.43125
20
-72.6916
11
13.27065
21
-72.6916
0
LINE
8
0
10
13.02065
20
-72.9416
11
13.02065
21
-73.229
0
LINE
8
0
10
12.77065
20
-73.479
11
11.46725
21
-73.479
0
LINE
8
0
10
11.21725
20
-73.729
11
11.21725
21
-74.3974
0
LINE
8
0
10
10.96725
20
-74.6474
11
8.01925
21
-74.6474
0
LINE
8
0
10
7.76925
20
-74.3974
11
7.76925
21
-73.729
0
LINE
8
0
10
7.51925
20
-73.479
11
6.21585
21
-73.479
0
LINE
8
0
10
5.96585
20
-73.229
11
5.96585
21
-67.633
0
LINE
8
0
10
5.71585
20
-67.383
11
5.35225
21
-67.383
0
LINE
8
0
10
5.10225
20
-67.133
11
5.10225
21
-64.439
0
LINE
8
0
10
5.35225
20
-64.189
11
5.71585
21
-64.189
0
LINE
8
0
10
5.96585
20
-63.939
11
5.96585
21
-61.0354
0
ARC
8
0
10
12.77065
20
-61.0354
40
0.25
50
0
51
90
0
ARC
8
0
10
13.27065
20
-61.3482
40
0.25
50
180
51
270
0
ARC
8
0
10
13.27065
20
-72.9416
40
0.25
50
90
51
180
0
ARC
8
0
10
12.77065
20
-73.229
40
0.25
50
270
51
0
0
ARC
8
0
10
11.46725
20
-73.729
40
0.25
50
90
51
180
0
ARC
8
0
10
10.96725
20
-74.3974
40
0.25
50
270
51
0
0
ARC
8
0
10
8.01925
20
-74.3974
40
0.25
50
180
51
270
0
ARC
8
0
10
7.51925
20
-73.729
40
0.25
50
0
51
90
0
ARC
8
0
10
6.21585
20
-73.229
40
0.25
50
180
51
270
0
ARC
8
0
10
5.71585
20
-67.633
40
0.25
50
0
51
90
0
ARC
8
0
10
5.35225
20
-67.133
40
0.25
50
180
51
270
0
ARC
8
0
10
5.35225
20
-64.439
40
0.25
50
90
51
180
0
ARC
8
0
10
5.71585
20
-63.939
40
0.25
50
270
51
0
0
ARC
8
0
10
6.21585
20
-61.0354
40
0.25
50
90
51
180
0
LINE
8
0
10
36.64665
20
-60.7854
11
30.09185
21
-60.7854
0
LINE
8
0
10
29.84185
20
-61.0354
11
29.84185
21
-61.3482
0
LINE
8
0
10
29.59185
20
-61.5982
11
21.43125
21
-61.5982
0
LINE
8
0
10
21.43125
20
-72.6916
11
29.59185
21
-72.6916
0
LINE
8
0
10
29.84185
20
-72.9416
11
29.84185
21
-73.229
0
LINE
8
0
10
30.09185
20
-73.479
11
31.39525
21
-73.479
0
LINE
8
0
10
31.64525
20
-73.729
11
31.64525
21
-74.3974
0
LINE
8
0
10
31.89525
20
-74.6474
11
34.84325
21
-74.6474
0
LINE
8
0
10
35.09325
20
-74.3974
11
35.09325
21
-73.729
0
LINE
8
0
10
35.34325
20
-73.479
11
36.64665
21
-73.479
0
LINE
8
0
10
36.89665
20
-73.229
11
36.89665
21
-67.633
0
LINE
8
0
10
37.14665
20
-67.383
11
37.51025
21
-67.383
0
LINE
8
0
10
37.76025
20
-67.133
11
37.76025
21
-64.439
0
LINE
8
0
10
37.51025
20
-64.189
11
37.14665
21
-64.189
0
LINE
8
0
10
36.89665
20
-63.939
11
36.89665
21
-61.0354
0
ARC
8
0
10
30.09185
20
-61.0354
40
0.25
50
90
51
180
0
ARC
8
0
10
29.59185
20
-61.3482
40
0.25
50
270
51
0
0
ARC
8
0
10
29.59185
20
-72.9416
40
0.25
50
0
51
90
0
ARC
8
0
10
30.09185
20
-73.229
40
0.25
50
180
51
270
0
ARC
8
0
10
31.39525
20
-73.729
40
0.25
50
0
51
90
0
ARC
8
0
10
31.89525
20
-74.3974
40
0.25
50
180
51
270
0
ARC
8
0
10
34.84325
20
-74.3974
40
0.25
50
270
51
0
0
ARC
8
0
10
35.34325
20
-73.729
40
0.25
50
90
51
180
0
ARC
8
0
10
36.64665
20
-73.229
40
0.25
50
270
51
0
0
ARC
8
0
10
37.14665
20
-67.633
40
0.25
50
90
51
180
0
ARC
8
0
10
37.51025
20
-67.133
40
0.25
50
270
51
0
0
ARC
8
0
10
37.51025
20
-64.439
40
0.25
50
0
51
90
0
ARC
8
0
10
37.14665
20
-63.939
40
0.25
50
180
51
270
0
ARC
8
0
10
36.64665
20
-61.0354
40
0.25
50
0
51
90
0
LINE
8
0
10
45.4375
20
-59.475
11
59.3375
21
-59.475
0
LINE
8
0
10
45.4375
20
-73.875
11
59.3375
21
-73.875
0
LINE
8
0
10
45.1875
20
-59.725
11
45.1875
21
-73.625
0
LINE
8
0
10
59.5875
20
-59.725
11
59.5875
21
-73.625
0
ARC
8
0
10
45.4375
20
-59.725
40
0.25
50
90
51
180
0
ARC
8
0
10
59.3375
20
-59.725
40
0.25
50
0
51
90
0
ARC
8
0
10
45.4375
20
-73.625
40
0.25
50
180
51
270
0
ARC
8
0
10
59.3375
20
-73.625
40
0.25
50
270
51
0
0
LINE
8
0
10
64.4875
20
-59.475
11
78.3875
21
-59.475
0
LINE
8
0
10
64.4875
20
-73.875
11
78.3875
21
-73.875
0
LINE
8
0
10
64.2375
20
-59.725
11
64.2375
21
-73.625
0
LINE
8
0
10
78.6375
20
-59.725
11
78.6375
21
-73.625
0
ARC
8
0
10
64.4875
20
-59.725
40
0.25
50
90
51
180
0
ARC
8
0
10
78.3875
20
-59.725
40
0.25
50
0
51
90
0
ARC
8
0
10
64.4875
20
-73.625
40
0.25
50
180
51
270
0
ARC
8
0
10
78.3875
20
-73.625
40
0.25
50
270
51
0
0
LINE
8
0
10
83.5375
20
-59.475
11
97.4375
21
-59.475
0
LINE
8
0
10
83.5375
20
-73.875
11
97.4375
21
-73.875
0
LINE
8
0
10
83.2875
20
-59.725
11
83.2875
21
-73.625
0
LINE
8
0
10
97.6875
20
-59.725
11
97.6875
21
-73.625
0
ARC
8
0
10
83.5375
20
-59.725
40
0.25
50
90
51
180
0
ARC
8
0
10
97.4375
20
-59.725
40
0.25
50
0
51
90
0
ARC
8
0
10
83.5375
20
-73.625
40
0.25
50
180
51
270
0
ARC
8
0
10
97.4375
20
-73.625
40
0.25
50
270
51
0
0
LINE
8
0
10
102.5875
20
-59.475
11
116.4875
21
-59.475
0
LINE
8
0
10
102.5875
20
-73.875
11
116.4875
21
-73.875
0
LINE
8
0
10
102.3375
20
-59.725
11
102.3375
21
-73.625
0
LINE
8
0
10
116.7375
20
-59.725
11
116.7375
21
-73.625
0
ARC
8
0
10
102.5875
20
-59.725
40
0.25
50
90
51
180
0
ARC
8
0
10
116.4875
20
-59.725
40
0.25
50
0
51
90
0
ARC
8
0
10
102.5875
20
-73.625
40
0.25
50
180
51
270
0
ARC
8
0
10
116.4875
20
-73.625
40
0.25
50
270
51
0
0
LINE
8
0
10
121.6375
20
-59.475
11
135.5375
21
-59.475
0
LINE
8
0
10
121.6375
20
-73.875
11
135.5375
21
-73.875
0
LINE
8
0
10
121.3875
20
-59.725
11
121.3875
21
-73.625
0
LINE
8
0
10
135.7875
20
-59.725
11
135.7875
21
-73.625
0
ARC
8
0
10
121.6375
20
-59.725
40
0.25
50
90
51
180
0
ARC
8
0
10
135.5375
20
-59.725
40
0.25
50
0
51
90
0
ARC
8
0
10
121.6375
20
-73.625
40
0.25
50
180
51
270
0
ARC
8
0
10
135.5375
20
-73.625
40
0.25
50
270
51
0
0
LINE
8
0
10
140.6875
20
-59.475
11
154.5875
21
-59.475
0
LINE
8
0
10
140.6875
20
-73.875
11
154.5875
21
-73.875
0
LINE
8
0
10
140.4375
20
-59.725
11
140.4375
21
-73.625
0
LINE
8
0
10
154.8375
20
-59.725
11
154.8375
21
-73.625
0
ARC
8
0
10
140.6875
20
-59.725
40
0.25
50
90
51
180
0
ARC
8
0
10
154.5875
20
-59.725
40
0.25
50
0
51
90
0
ARC
8
0
10
140.6875
20
-73.625
40
0.25
50
180
51
270
0
ARC
8
0
10
154.5875
20
-73.625
40
0.25
50
270
51
0
0
LINE
8
0
10
159.7375
20
-59.475
11
173.6375
21
-59.475
0
LINE
8
0
10
159.7375
20
-73.875
11
173.6375
21
-73.875
0
LINE
8
0
10
159.4875
20
-59.725
11
159.4875
21
-73.625
0
LINE
8
0
10
173.8875
20
-59.725
11
173.8875
21
-73.625
0
ARC
8
0
10
159.7375
20
-59.725
40
0.25
50
90
51
180
0
ARC
8
0
10
173.6375
20
-59.725
40
0.25
50
0
51
90
0
ARC
8
0
10
159.7375
20
-73.625
40
0.25
50
180
51
270
0
ARC
8
0
10
173.6375
20
-73.625
40
0.25
50
270
51
0
0
LINE
8
0
10
178.7875
20
-59.475
11
192.6875
21
-59.475
0
LINE
8
0
10
178.7875
20
-73.875
11
192.6875
21
-73.875
0
LINE
8
0
10
178.5375
20
-59.725
11
178.5375
21
-73.625
0
LINE
8
0
10
192.9375
20
-59.725
11
192.9375
21
-73.625
0
ARC
8
0
10
178.7875
20
-59.725
40
0.25
50
90
51
180
0
ARC
8
0
10
192.6875
20
-59.725
40
0.25
50
0
51
90
0
ARC
8
0
10
178.7875
20
-73.625
40
0.25
50
180
51
270
0
ARC
8
0
10
192.6875
20
-73.625
40
0.25
50
270
51
0
0
LINE
8
0
10
197.8375
20
-59.475
11
211.7375
21
-59.475
0
LINE
8
0
10
197.8375
20
-73.875
11
211.7375
21
-73.875
0
LINE
8
0
10
197.5875
20
-59.725
11
197.5875
21
-73.625
0
LINE
8
0
10
211.9875
20
-59.725
11
211.9875
21
-73.625
0
ARC
8
0
10
197.8375
20
-59.725
40
0.25
50
90
51
180
0
ARC
8
0
10
211.7375
20
-59.725
40
0.25
50
0
51
90
0
ARC
8
0
10
197.8375
20
-73.625
40
0.25
50
180
51
270
0
ARC
8
0
10
211.7375
20
-73.625
40
0.25
50
270
51
0
0
LINE
8
0
10
216.8875
20
-59.475
11
230.7875
21
-59.475
0
LINE
8
0
10
216.8875
20
-73.875
11
230.7875
21
-73.875
0
LINE
8
0
10
216.6375
20
-59.725
11
216.6375
21
-73.625
0
LINE
8
0
10
231.0375
20
-59.725
11
231.0375
21
-73.625
0
ARC
8
0
10
216.8875
20
-59.725
40
0.25
50
90
51
180
0
ARC
8
0
10
230.7875
20
-59.725
40
0.25
50
0
51
90
0
ARC
8
0
10
216.8875
20
-73.625
40
0.25
50
180
51
270
0
ARC
8
0
10
230.7875
20
-73.625
40
0.25
50
270
51
0
0
LINE
8
0
10
252.60625
20
-59.475
11
266.50625
21
-59.475
0
LINE
8
0
10
252.60625
20
-73.875
11
266.50625
21
-73.875
0
LINE
8
0
10
252.35625
20
-59.725
11
252.35625
21
-73.625
0
LINE
8
0
10
266.75625
20
-59.725
11
266.75625
21
-73.625
0
ARC
8
0
10
252.60625
20
-59.725
40
0.25
50
90
51
180
0
ARC
8
0
10
266.50625
20
-59.725
40
0.25
50
0
51
90
0
ARC
8
0
10
252.60625
20
-73.625
40
0.25
50
180
51
270
0
ARC
8
0
10
266.50625
20
-73.625
40
0.25
50
270
51
0
0
LINE
8
0
10
244.34085
20
-60.7854
11
250.89565
21
-60.7854
0
LINE
8
0
10
251.14565
20
-61.0354
11
251.14565
21
-61.3482
0
LINE
8
0
10
251.39565
20
-61.5982
11
259.55625
21
-61.5982
0
LINE
8
0
10
259.55625
20
-72.6916
11
251.39565
21
-72.6916
0
LINE
8
0
10
251.14565
20
-72.9416
11
251.14565
21
-73.229
0
LINE
8
0
10
250.89565
20
-73.479
11
249.59225
21
-73.479
0
LINE
8
0
10
249.34225
20
-73.729
11
249.34225
21
-74.3974
0
LINE
8
0
10
249.09225
20
-74.6474
11
246.14425
21
-74.6474
0
LINE
8
0
10
245.89425
20
-74.3974
11
245.89425
21
-73.729
0
LINE
8
0
10
245.64425
20
-73.479
11
244.34085
21
-73.479
0
LINE
8
0
10
244.09085
20
-73.229
11
244.09085
21
-67.633
0
LINE
8
0
10
243.84085
20
-67.383
11
243.47725
21
-67.383
0
LINE
8
0
10
243.22725
20
-67.133
11
243.22725
21
-64.439
0
LINE
8
0
10
243.47725
20
-64.189
11
243.84085
21
-64.189
0
LINE
8
0
10
244.09085
20
-63.939
11
244.09085
21
-61.0354
0
ARC
8
0
10
250.89565
20
-61.0354
40
0.25
50
0
51
90
0
ARC
8
0
10
251.39565
20
-61.3482
40
0.25
50
180
51
270
0
ARC
8
0
10
251.39565
20
-72.9416
40
0.25
50
90
51
180
0
ARC
8
0
10
250.89565
20
-73.229
40
0.25
50
270
51
0
0
ARC
8
0
10
249.59225
20
-73.729
40
0.25
50
90
51
180
0
ARC
8
0
10
249.09225
20
-74.3974
40
0.25
50
270
51
0
0
ARC
8
0
10
246.14425
20
-74.3974
40
0.25
50
180
51
270
0
ARC
8
0
10
245.64425
20
-73.729
40
0.25
50
0
51
90
0
ARC
8
0
10
244.34085
20
-73.229
40
0.25
50
180
51
270
0
ARC
8
0
10
243.84085
20
-67.633
40
0.25
50
0
51
90
0
ARC
8
0
10
243.47725
20
-67.133
40
0.25
50
180
51
270
0
ARC
8
0
10
243.47725
20
-64.439
40
0.25
50
90
51
180
0
ARC
8
0
10
243.84085
20
-63.939
40
0.25
50
270
51
0
0
ARC
8
0
10
244.34085
20
-61.0354
40
0.25
50
90
51
180
0
LINE
8
0
10
274.77165
20
-60.7854
11
268.21685
21
-60.7854
0
LINE
8
0
10
267.96685
20
-61.0354
11
267.96685
21
-61.3482
0
LINE
8
0
10
267.71685
20
-61.5982
11
259.55625
21
-61.5982
0
LINE
8
0
10
259.55625
20
-72.6916
11
267.71685
21
-72.6916
0
LINE
8
0
10
267.96685
20
-72.9416
11
267.96685
21
-73.229
0
LINE
8
0
10
268.21685
20
-73.479
11
269.52025
21
-73.479
0
LINE
8
0
10
269.77025
20
-73.729
11
269.77025
21
-74.3974
0
LINE
8
0
10
270.02025
20
-74.6474
11
272.96825
21
-74.6474
0
LINE
8
0
10
273.21825
20
-74.3974
11
273.21825
21
-73.729
0
LINE
8
0
10
273.46825
20
-73.479
11
274.77165
21
-73.479
0
LINE
8
0
10
275.02165
20
-73.229
11
275.02165
21
-67.633
0
LINE
8
0
10
275.27165
20
-67.383
11
275.63525
21
-67.383
0
LINE
8
0
10
275.88525
20
-67.133
11
275.88525
21
-64.439
0
LINE
8
0
10
275.63525
20
-64.189
11
275.27165
21
-64.189
0
LINE
8
0
10
275.02165
20
-63.939
11
275.02165
21
-61.0354
0
ARC
8
0
10
268.21685
20
-61.0354
40
0.25
50
90
51
180
0
ARC
8
0
10
267.71685
20
-61.3482
40
0.25
50
270
51
0
0
ARC
8
0
10
267.71685
20
-72.9416
40
0.25
50
0
51
90
0
ARC
8
0
10
268.21685
20
-73.229
40
0.25
50
180
51
270
0
ARC
8
0
10
269.52025
20
-73.729
40
0.25
50
0
51
90
0
ARC
8
0
10
270.02025
20
-74.3974
40
0.25
50
180
51
270
0
ARC
8
0
10
272.96825
20
-74.3974
40
0.25
50
270
51
0
0
ARC
8
0
10
273.46825
20
-73.729
40
0.25
50
90
51
180
0
ARC
8
0
10
274.77165
20
-73.229
40
0.25
50
270
51
0
0
ARC
8
0
10
275.27165
20
-67.633
40
0.25
50
90
51
180
0
ARC
8
0
10
275.63525
20
-67.133
40
0.25
50
270
51
0
0
ARC
8
0
10
275.63525
20
-64.439
40
0.25
50
0
51
90
0
ARC
8
0
10
275.27165
20
-63.939
40
0.25
50
180
51
270
0
ARC
8
0
10
274.77165
20
-61.0354
40
0.25
50
0
51
90
0
LINE
8
0
10
4.95625
20
-78.525
11
18.85625
21
-78.525
0
LINE
8
0
10
4.95625
20
-92.925
11
18.85625
21
-92.925
0
LINE
8
0
10
4.70625
20
-78.775
11
4.70625
21
-92.675
0
LINE
8
0
10
19.10625
20
-78.775
11
19.10625
21
-92.675
0
ARC
8
0
10
4.95625
20
-78.775
40
0.25
50
90
51
180
0
ARC
8
0
10
18.85625
20
-78.775
40
0.25
50
0
51
90
0
ARC
8
0
10
4.95625
20
-92.675
40
0.25
50
180
51
270
0
ARC
8
0
10
18.85625
20
-92.675
40
0.25
50
270
51
0
0
LINE
8
0
10
28.76875
20
-78.525
11
42.66875
21
-78.525
0
LINE
8
0
10
28.76875
20
-92.925
11
42.66875
21
-92.925
0
LINE
8
0
10
28.51875
20
-78.775
11
28.51875
21
-92.675
0
LINE
8
0
10
42.91875
20
-78.775
11
42.91875
21
-92.675
0
ARC
8
0
10
28.76875
20
-78.775
40
0.25
50
90
51
180
0
ARC
8
0
10
42.66875
20
-78.775
40
0.25
50
0
51
90
0
ARC
8
0
10
28.76875
20
-92.675
40
0.25
50
180
51
270
0
ARC
8
0
10
42.66875
20
-92.675
40
0.25
50
270
51
0
0
LINE
8
0
10
52.58125
20
-78.525
11
66.48125
21
-78.525
0
LINE
8
0
10
52.58125
20
-92.925
11
66.48125
21
-92.925
0
LINE
8
0
10
52.33125
20
-78.775
11
52.33125
21
-92.675
0
LINE
8
0
10
66.73125
20
-78.775
11
66.73125
21
-92.675
0
ARC
8
0
10
52.58125
20
-78.775
40
0.25
50
90
51
180
0
ARC
8
0
10
66.48125
20
-78.775
40
0.25
50
0
51
90
0
ARC
8
0
10
52.58125
20
-92.675
40
0.25
50
180
51
270
0
ARC
8
0
10
66.48125
20
-92.675
40
0.25
50
270
51
0
0
LINE
8
0
10
124.01875
20
-78.525
11
137.91875
21
-78.525
0
LINE
8
0
10
124.01875
20
-92.925
11
137.91875
21
-92.925
0
LINE
8
0
10
123.76875
20
-78.775
11
123.76875
21
-92.675
0
LINE
8
0
10
138.16875
20
-78.775
11
138.16875
21
-92.675
0
ARC
8
0
10
124.01875
20
-78.775
40
0.25
50
90
51
180
0
ARC
8
0
10
137.91875
20
-78.775
40
0.25
50
0
51
90
0
ARC
8
0
10
124.01875
20
-92.675
40
0.25
50
180
51
270
0
ARC
8
0
10
137.91875
20
-92.675
40
0.25
50
270
51
0
0
LINE
8
0
10
77.69135
20
-79.8354
11
84.24615
21
-79.8354
0
LINE
8
0
10
84.49615
20
-80.0854
11
84.49615
21
-82.975
0
LINE
8
0
10
84.74615
20
-83.225
11
130.96875
21
-83.225
0
LINE
8
0
10
130.96875
20
-88.225
11
84.74615
21
-88.225
0
LINE
8
0
10
84.49615
20
-88.475
11
84.49615
21
-92.279
0
LINE
8
0
10
84.24615
20
-92.529
11
82.94275
21
-92.529
0
LINE
8
0
10
82.69275
20
-92.779
11
82.69275
21
-93.4474
0
LINE
8
0
10
82.44275
20
-93.6974
11
79.49475
21
-93.6974
0
LINE
8
0
10
79.24475
20
-93.4474
11
79.24475
21
-92.779
0
LINE
8
0
10
78.99475
20
-92.529
11
77.69135
21
-92.529
0
LINE
8
0
10
77.44135
20
-92.279
11
77.44135
21
-86.683
0
LINE
8
0
10
77.19135
20
-86.433
11
76.82775
21
-86.433
0
LINE
8
0
10
76.57775
20
-86.183
11
76.57775
21
-83.489
0
LINE
8
0
10
76.82775
20
-83.239
11
77.19135
21
-83.239
0
LINE
8
0
10
77.44135
20
-82.989
11
77.44135
21
-80.0854
0
ARC
8
0
10
84.24615
20
-80.0854
40
0.25
50
0
51
90
0
ARC
8
0
10
84.74615
20
-82.975
40
0.25
50
180
51
270
0
ARC
8
0
10
84.74615
20
-88.475
40
0.25
50
90
51
180
0
ARC
8
0
10
84.24615
20
-92.279
40
0.25
50
270
51
0
0
ARC
8
0
10
82.94275
20
-92.779
40
0.25
50
90
51
180
0
ARC
8
0
10
82.44275
20
-93.4474
40
0.25
50
270
51
0
0
ARC
8
0
10
79.49475
20
-93.4474
40
0.25
50
180
51
270
0
ARC
8
0
10
78.99475
20
-92.779
40
0.25
50
0
51
90
0
ARC
8
0
10
77.69135
20
-92.279
40
0.25
50
180
51
270
0
ARC
8
0
10
77.19135
20
-86.683
40
0.25
50
0
51
90
0
ARC
8
0
10
76.82775
20
-86.183
40
0.25
50
180
51
270
0
ARC
8
0
10
76.82775
20
-83.489
40
0.25
50
90
51
180
0
ARC
8
0
10
77.19135
20
-82.989
40
0.25
50
270
51
0
0
ARC
8
0
10
77.69135
20
-80.0854
40
0.25
50
90
51
180
0
LINE
8
0
10
184.24615
20
-79.8354
11
177.69135
21
-79.8354
0
LINE
8
0
10
177.44135
20
-80.0854
11
177.44135
21
-82.975
0
LINE
8
0
10
177.19135
20
-83.225
11
130.96875
21
-83.225
0
LINE
8
0
10
130.96875
20
-88.225
11
177.19135
21
-88.225
0
LINE
8
0
10
177.44135
20
-88.475
11
177.44135
21
-92.279
0
LINE
8
0
10
177.69135
20
-92.529
11
178.99475
21
-92.529
0
LINE
8
0
10
179.24475
20
-92.779
11
179.24475
21
-93.4474
0
LINE
8
0
10
179.49475
20
-93.6974
11
182.44275
21
-93.6974
0
LINE
8
0
10
182.69275
20
-93.4474
11
182.69275
21
-92.779
0
LINE
8
0
10
182.94275
20
-92.529
11
184.24615
21
-92.529
0
LINE
8
0
10
184.49615
20
-92.279
11
184.49615
21
-86.683
0
LINE
8
0
10
184.74615
20
-86.433
11
185.10975
21
-86.433
0
LINE
8
0
10
185.35975
20
-86.183
11
185.35975
21
-83.489
0
LINE
8
0
10
185.10975
20
-83.239
11
184.74615
21
-83.239
0
LINE
8
0
10
184.49615
20
-82.989
11
184.49615
21
-80.0854
0
ARC
8
0
10
177.69135
20
-80.0854
40
0.25
50
90
51
180
0
ARC
8
0
10
177.19135
20
-82.975
40
0.25
50
270
51
0
0
ARC
8
0
10
177.19135
20
-88.475
40
0.25
50
0
51
90
0
ARC
8
0
10
177.69135
20
-92.279
40
0.25
50
180
51
270
0
ARC
8
0
10
178.99475
20
-92.779
40
0.25
50
0
51
90
0
ARC
8
0
10
179.49475
20
-93.4474
40
0.25
50
180
51
270
0
ARC
8
0
10
182.44275
20
-93.4474
40
0.25
50
270
51
0
0
ARC
8
0
10
182.94275
20
-92.779
40
0.25
50
90
51
180
0
ARC
8
0
10
184.24615
20
-92.279
40
0.25
50
270
51
0
0
ARC
8
0
10
184.74615
20
-86.683
40
0.25
50
90
51
180
0
ARC
8
0
10
185.10975
20
-86.183
40
0.25
50
270
51
0
0
ARC
8
0
10
185.10975
20
-83.489
40
0.25
50
0
51
90
0
ARC
8
0
10
184.74615
20
-82.989
40
0.25
50
180
51
270
0
ARC
8
0
10
184.24615
20
-80.0854
40
0.25
50
0
51
90
0
LINE
8
0
10
195.45625
20
-78.525
11
209.35625
21
-78.525
0
LINE
8
0
10
195.45625
20
-92.925
11
209.35625
21
-92.925
0
LINE
8
0
10
195.20625
20
-78.775
11
195.20625
21
-92.675
0
LINE
8
0
10
209.60625
20
-78.775
11
209.60625
21
-92.675
0
ARC
8
0
10
195.45625
20
-78.775
40
0.25
50
90
51
180
0
ARC
8
0
10
209.35625
20
-78.775
40
0.25
50
0
51
90
0
ARC
8
0
10
195.45625
20
-92.675
40
0.25
50
180
51
270
0
ARC
8
0
10
209.35625
20
-92.675
40
0.25
50
270
51
0
0
LINE
8
0
10
219.26875
20
-78.525
11
233.16875
21
-78.525
0
LINE
8
0
10
219.26875
20
-92.925
11
233.16875
21
-92.925
0
LINE
8
0
10
219.01875
20
-78.775
11
219.01875
21
-92.675
0
LINE
8
0
10
233.41875
20
-78.775
11
233.41875
21
-92.675
0
ARC
8
0
10
219.26875
20
-78.775
40
0.25
50
90
51
180
0
ARC
8
0
10
233.16875
20
-78.775
40
0.25
50
0
51
90
0
ARC
8
0
10
219.26875
20
-92.675
40
0.25
50
180
51
270
0
ARC
8
0
10
233.16875
20
-92.675
40
0.25
50
270
51
0
0
LINE
8
0
10
243.08125
20
-78.525
11
256.98125
21
-78.525
0
LINE
8
0
10
243.08125
20
-92.925
11
256.98125
21
-92.925
0
LINE
8
0
10
242.83125
20
-78.775
11
242.83125
21
-92.675
0
LINE
8
0
10
257.23125
20
-78.775
11
257.23125
21
-92.675
0
ARC
8
0
10
243.08125
20
-78.775
40
0.25
50
90
51
180
0
ARC
8
0
10
256.98125
20
-78.775
40
0.25
50
0
51
90
0
ARC
8
0
10
243.08125
20
-92.675
40
0.25
50
180
51
270
0
ARC
8
0
10
256.98125
20
-92.675
40
0.25
50
270
51
0
0
LINE
8
0
10
266.89375
20
-78.525
11
280.79375
21
-78.525
0
LINE
8
0
10
266.89375
20
-92.925
11
280.79375
21
-92.925
0
LINE
8
0
10
266.64375
20
-78.775
11
266.64375
21
-92.675
0
LINE
8
0
10
281.04375
20
-78.775
11
281.04375
21
-92.675
0
ARC
8
0
10
266.89375
20
-78.775
40
0.25
50
90
51
180
0
ARC
8
0
10
280.79375
20
-78.775
40
0.25
50
0
51
90
0
ARC
8
0
10
266.89375
20
-92.675
40
0.25
50
180
51
270
0
ARC
8
0
10
280.79375
20
-92.675
40
0.25
50
270
51
0
0
LINE
8
0
10
0
20
-95.25
11
285.75
21
-95.25
0
LINE
8
0
10
0
20
0
11
285.75
21
0
0
LINE
8
0
10
0
20
-95.25
11
0
21
0
0
LINE
8
0
10
285.75
20
-95.25
11
285.75
21
0
0
ENDSEC
0
EOF