M48
; DRILL file {KiCad 8.0.4} date 2024-08-16T15:44:31+0200
; FORMAT={-:-/ absolute / metric / decimal}
; #@! TF.CreationDate,2024-08-16T15:44:31+02:00
; #@! TF.GenerationSoftware,Kicad,Pcbnew,8.0.4
; #@! TF.FileFunction,Plated,1,2,PTH
FMAT,2
METRIC
; #@! TA.AperFunction,Plated,PTH,ViaDrill
T1C0.300
; #@! TA.AperFunction,Plated,PTH,ComponentDrill
T2C0.600
; #@! TA.AperFunction,Plated,PTH,ComponentDrill
T3C1.500
; #@! TA.AperFunction,Plated,PTH,ComponentDrill
T4C2.500
%
G90
G05
T1
X38.8Y-75.9
X52.5Y-75.1
X88.4Y-75.1
X91.3Y-93.5
X103.1Y-73.4
X106.1Y-73.4
X111.4Y-35.15
X121.2Y-93.3
X126.4Y-16.15
X126.8Y-54.4
X131.35Y-7.45
X132.6Y-9.0
X133.5Y-56.0
X134.0Y-9.0
X136.4Y-20.3
X136.8Y-8.55
X138.3Y-7.9
X140.4Y-17.3
X140.75Y-70.0
X141.7Y-92.4
X145.6Y-18.0
X146.5Y-82.1
X147.172Y-81.428
X147.844Y-80.756
X148.5Y-80.0
X148.6Y-85.5
X149.1Y-46.7
X150.25Y-86.5
X150.4Y-52.8
X152.8Y-52.7
X152.9Y-57.2
X153.5Y-76.8
X154.412Y-86.8
X154.9Y-66.35
X156.056Y-78.606
X156.1Y-74.5
X157.7Y-74.5
X159.1Y-66.7
X160.255Y-78.605
X160.65Y-89.15
X163.45Y-82.1
X163.95Y-76.15
X164.15Y-79.15
X165.5Y-82.8
X171.8Y-83.4
X174.0Y-76.8
X185.0Y-76.4
X221.034Y-76.5
X228.4Y-74.6
T3
X5.59Y-6.86
X7.971Y-83.06
X10.352Y-25.91
X11.94Y-4.32
X12.734Y-44.96
X14.321Y-80.52
X16.703Y-23.37
X17.496Y-64.01
X19.084Y-42.42
X23.846Y-61.47
X24.64Y-6.86
X30.99Y-4.32
X31.784Y-83.06
X34.165Y-25.91
X38.134Y-80.52
X38.927Y-44.96
X40.515Y-23.37
X43.69Y-6.86
X45.277Y-42.42
X48.453Y-64.01
X50.04Y-4.32
X53.215Y-25.91
X54.802Y-61.47
X55.596Y-83.06
X57.977Y-44.96
X59.565Y-23.37
X61.946Y-80.52
X62.74Y-6.86
X64.328Y-42.42
X67.502Y-64.01
X69.09Y-4.32
X72.265Y-25.91
X73.852Y-61.47
X77.028Y-44.96
X78.615Y-23.37
X81.79Y-6.86
X83.377Y-42.42
X86.552Y-64.01
X88.14Y-4.32
X91.315Y-25.91
X92.902Y-61.47
X96.078Y-44.96
X97.665Y-23.37
X100.84Y-6.86
X102.427Y-42.42
X105.602Y-64.01
X107.19Y-4.32
X110.365Y-25.91
X111.953Y-61.47
X115.127Y-44.96
X116.715Y-23.37
X118.62Y-6.86
X121.16Y-13.21
X121.477Y-42.42
X124.652Y-64.01
X127.034Y-83.06
X129.415Y-25.91
X131.002Y-61.47
X133.384Y-80.52
X134.177Y-44.96
X135.765Y-23.37
X140.528Y-42.42
X143.702Y-64.01
X145.29Y-5.59
X147.83Y-11.94
X148.465Y-25.91
X150.052Y-61.47
X153.227Y-44.96
X154.815Y-23.37
X157.99Y-6.86
X159.577Y-42.42
X162.752Y-64.01
X164.34Y-4.32
X167.515Y-25.91
X169.102Y-61.47
X172.278Y-44.96
X173.865Y-23.37
X177.04Y-6.86
X178.627Y-42.42
X181.802Y-64.01
X183.39Y-4.32
X186.565Y-25.91
X188.153Y-61.47
X191.327Y-44.96
X192.915Y-23.37
X196.09Y-6.86
X197.677Y-42.42
X198.471Y-83.06
X200.852Y-64.01
X202.44Y-4.32
X204.821Y-80.52
X205.615Y-25.91
X207.202Y-61.47
X210.377Y-44.96
X211.965Y-23.37
X215.14Y-6.86
X216.727Y-42.42
X219.903Y-64.01
X221.49Y-4.32
X222.284Y-83.06
X224.665Y-25.91
X226.252Y-61.47
X228.634Y-80.52
X229.427Y-44.96
X231.015Y-23.37
X234.19Y-6.86
X235.778Y-42.42
X240.54Y-4.32
X243.715Y-25.91
X246.096Y-83.06
X250.065Y-23.37
X252.446Y-80.52
X253.24Y-6.86
X255.621Y-64.01
X259.59Y-4.32
X260.384Y-44.96
X261.971Y-61.47
X266.734Y-42.42
X267.527Y-25.91
X269.909Y-83.06
X272.29Y-6.86
X273.877Y-23.37
X276.259Y-80.52
X278.64Y-4.32
T4
X25.2Y-27.9
T2
X129.43Y-1.0G85X129.43Y-1.8
G05
X129.43Y-5.05G85X129.43Y-6.15
G05
X138.07Y-1.0G85X138.07Y-1.8
G05
X138.07Y-5.05G85X138.07Y-6.15
G05
T4
X0.25Y-56.5G85X4.75Y-56.5
G05
X127.2Y-47.1G85X129.7Y-47.1
G05
X189.25Y-85.2G85X191.75Y-85.2
G05
X259.3Y-27.9G85X261.8Y-27.9
G05
X281.65Y-56.5G85X286.15Y-56.5
G05
M30
