M48
; DRILL file {KiCad 8.0.4} date 2024-08-16T15:44:31+0200
; FORMAT={-:-/ absolute / metric / decimal}
; #@! TF.CreationDate,2024-08-16T15:44:31+02:00
; #@! TF.GenerationSoftware,Kicad,Pcbnew,8.0.4
; #@! TF.FileFunction,NonPlated,1,2,NPTH
FMAT,2
METRIC
; #@! TA.AperFunction,NonPlated,NPTH,ComponentDrill
T1C0.650
; #@! TA.AperFunction,NonPlated,NPTH,ComponentDrill
T2C1.750
; #@! TA.AperFunction,NonPlated,NPTH,ComponentDrill
T3C3.048
; #@! TA.AperFunction,NonPlated,NPTH,ComponentDrill
T4C3.988
; #@! TA.AperFunction,NonPlated,NPTH,ComponentDrill
T5C4.000
%
G90
G05
T1
X130.86Y-5.1
X136.64Y-5.1
T2
X4.32Y-9.4
X6.701Y-85.6
X9.082Y-28.45
X11.464Y-47.5
X14.48Y-9.4
X16.226Y-66.55
X16.861Y-85.6
X19.242Y-28.45
X21.624Y-47.5
X23.37Y-9.4
X26.386Y-66.55
X30.514Y-85.6
X32.895Y-28.45
X33.53Y-9.4
X37.657Y-47.5
X40.674Y-85.6
X42.42Y-9.4
X43.055Y-28.45
X47.182Y-66.55
X47.817Y-47.5
X51.945Y-28.45
X52.58Y-9.4
X54.326Y-85.6
X56.707Y-47.5
X57.342Y-66.55
X61.47Y-9.4
X62.105Y-28.45
X64.486Y-85.6
X66.233Y-66.55
X66.867Y-47.5
X70.995Y-28.45
X71.63Y-9.4
X75.757Y-47.5
X76.392Y-66.55
X80.52Y-9.4
X81.155Y-28.45
X85.282Y-66.55
X85.917Y-47.5
X90.045Y-28.45
X90.68Y-9.4
X94.807Y-47.5
X95.442Y-66.55
X99.57Y-9.4
X100.205Y-28.45
X104.332Y-66.55
X104.968Y-47.5
X109.095Y-28.45
X109.73Y-9.4
X113.858Y-47.5
X114.492Y-66.55
X119.255Y-28.45
X123.382Y-66.55
X123.7Y-4.32
X123.7Y-14.48
X124.017Y-47.5
X125.764Y-85.6
X128.145Y-28.45
X132.907Y-47.5
X133.542Y-66.55
X135.924Y-85.6
X138.305Y-28.45
X142.433Y-66.55
X142.75Y-4.32
X142.75Y-14.48
X143.067Y-47.5
X147.195Y-28.45
X151.957Y-47.5
X152.593Y-66.55
X156.72Y-9.4
X157.355Y-28.45
X161.482Y-66.55
X162.118Y-47.5
X166.245Y-28.45
X166.88Y-9.4
X171.007Y-47.5
X171.642Y-66.55
X175.77Y-9.4
X176.405Y-28.45
X180.532Y-66.55
X181.167Y-47.5
X185.295Y-28.45
X185.93Y-9.4
X190.058Y-47.5
X190.692Y-66.55
X194.82Y-9.4
X195.455Y-28.45
X197.201Y-85.6
X199.582Y-66.55
X200.218Y-47.5
X204.345Y-28.45
X204.98Y-9.4
X207.361Y-85.6
X209.107Y-47.5
X209.742Y-66.55
X213.87Y-9.4
X214.505Y-28.45
X218.632Y-66.55
X219.267Y-47.5
X221.014Y-85.6
X223.395Y-28.45
X224.03Y-9.4
X228.157Y-47.5
X228.792Y-66.55
X231.174Y-85.6
X232.92Y-9.4
X233.555Y-28.45
X238.317Y-47.5
X242.445Y-28.45
X243.08Y-9.4
X244.826Y-85.6
X251.97Y-9.4
X252.605Y-28.45
X254.351Y-66.55
X254.986Y-85.6
X259.114Y-47.5
X262.13Y-9.4
X264.511Y-66.55
X266.257Y-28.45
X268.639Y-85.6
X269.274Y-47.5
X271.02Y-9.4
X276.417Y-28.45
X278.799Y-85.6
X281.18Y-9.4
T3
X9.368Y-59.565
X33.244Y-59.565
X80.844Y-92.585
X180.844Y-92.585
X247.493Y-59.565
X252.256Y-40.515
X271.369Y-59.565
X276.132Y-40.515
T4
X9.368Y-74.775
X33.244Y-74.775
X80.844Y-77.375
X180.844Y-77.375
X247.493Y-74.775
X252.256Y-55.725
X271.369Y-74.775
X276.132Y-55.725
T5
X9.4Y-9.4
X11.781Y-85.6
X14.162Y-28.45
X16.544Y-47.5
X21.306Y-66.55
X28.45Y-9.4
X35.594Y-85.6
X37.975Y-28.45
X42.737Y-47.5
X47.5Y-9.4
X52.262Y-66.55
X57.025Y-28.45
X59.406Y-85.6
X61.787Y-47.5
X66.55Y-9.4
X71.312Y-66.55
X76.075Y-28.45
X80.837Y-47.5
X85.6Y-9.4
X90.362Y-66.55
X95.125Y-28.45
X99.887Y-47.5
X104.65Y-9.4
X109.412Y-66.55
X114.175Y-28.45
X118.938Y-47.5
X123.7Y-9.4
X128.463Y-66.55
X130.844Y-85.6
X133.225Y-28.45
X137.987Y-47.5
X142.75Y-9.4
X147.512Y-66.55
X152.275Y-28.45
X157.037Y-47.5
X161.8Y-9.4
X166.562Y-66.55
X171.325Y-28.45
X176.088Y-47.5
X180.85Y-9.4
X185.612Y-66.55
X190.375Y-28.45
X195.137Y-47.5
X199.9Y-9.4
X202.281Y-85.6
X204.662Y-66.55
X209.425Y-28.45
X214.188Y-47.5
X218.95Y-9.4
X223.712Y-66.55
X226.094Y-85.6
X228.475Y-28.45
X233.237Y-47.5
X238.0Y-9.4
X247.525Y-28.45
X249.906Y-85.6
X257.05Y-9.4
X259.431Y-66.55
X264.194Y-47.5
X271.337Y-28.45
X273.719Y-85.6
X276.1Y-9.4
M30
