M48
; DRILL file {KiCad 8.0.4} date 2024-08-26T00:00:52+0200
; FORMAT={-:-/ absolute / metric / decimal}
; #@! TF.CreationDate,2024-08-26T00:00:52+02:00
; #@! TF.GenerationSoftware,Kicad,Pcbnew,8.0.4
; #@! TF.FileFunction,NonPlated,1,2,NPTH
FMAT,2
METRIC
; #@! TA.AperFunction,NonPlated,NPTH,ComponentDrill
T1C0.650
; #@! TA.AperFunction,NonPlated,NPTH,ComponentDrill
T2C1.750
; #@! TA.AperFunction,NonPlated,NPTH,ComponentDrill
T3C3.048
; #@! TA.AperFunction,NonPlated,NPTH,ComponentDrill
T4C3.988
; #@! TA.AperFunction,NonPlated,NPTH,ComponentDrill
T5C4.000
%
G90
G05
T1
X6.16Y3.7
X11.94Y3.7
X130.46Y3.9
X136.24Y3.9
T2
X-5.08Y0.0
X-2.7Y-57.15
X-2.699Y-76.2
X-0.318Y-19.05
X-0.318Y-38.1
X-0.299Y-76.2
X2.064Y-38.1
X5.08Y0.0
X6.826Y-57.15
X7.46Y-57.15
X7.461Y-76.2
X9.842Y-19.05
X9.842Y-38.1
X9.861Y-76.2
X12.224Y-38.1
X13.97Y0.0
X16.986Y-57.15
X18.72Y-57.15
X21.12Y-76.2
X23.495Y-19.05
X23.52Y-76.2
X24.13Y0.0
X28.258Y-38.1
X28.88Y-57.15
X31.28Y-76.2
X33.02Y0.0
X33.655Y-19.05
X33.68Y-76.2
X37.782Y-57.15
X38.417Y-38.1
X42.545Y-19.05
X43.18Y0.0
X44.926Y-76.2
X47.307Y-38.1
X47.326Y-76.2
X47.942Y-57.15
X52.07Y0.0
X52.705Y-19.05
X55.086Y-76.2
X56.832Y-57.15
X57.467Y-38.1
X57.486Y-76.2
X61.595Y-19.05
X62.23Y0.0
X66.358Y-38.1
X66.992Y-57.15
X71.12Y0.0
X71.755Y-19.05
X75.882Y-57.15
X76.517Y-38.1
X80.645Y-19.05
X81.28Y0.0
X85.407Y-38.1
X86.042Y-57.15
X90.17Y0.0
X90.805Y-19.05
X94.932Y-57.15
X95.567Y-38.1
X99.695Y-19.05
X100.33Y0.0
X104.457Y-38.1
X105.093Y-57.15
X109.22Y0.0
X109.855Y-19.05
X113.983Y-57.15
X114.617Y-38.1
X116.364Y-76.2
X118.745Y-19.05
X119.38Y0.0
X123.507Y-38.1
X124.142Y-57.15
X126.524Y-76.2
X128.27Y0.0
X128.27Y-76.201
X128.905Y-19.05
X133.032Y-57.15
X133.667Y-38.1
X137.795Y-19.05
X138.43Y0.0
X138.43Y-76.201
X142.558Y-38.1
X143.192Y-57.15
X147.32Y0.0
X147.955Y-19.05
X152.082Y-57.15
X152.718Y-38.1
X156.845Y-19.05
X157.48Y0.0
X161.607Y-38.1
X162.243Y-57.15
X166.37Y0.0
X167.005Y-19.05
X171.132Y-57.15
X171.767Y-38.1
X175.895Y-19.05
X176.53Y0.0
X180.657Y-38.1
X181.292Y-57.15
X185.42Y0.0
X186.055Y-19.05
X187.801Y-76.2
X190.183Y-57.15
X190.817Y-38.1
X194.945Y-19.05
X195.58Y0.0
X197.961Y-76.2
X199.707Y-38.1
X200.343Y-57.15
X204.47Y0.0
X205.105Y-19.05
X209.214Y-76.2
X209.232Y-57.15
X209.867Y-38.1
X211.614Y-76.2
X213.995Y-19.05
X214.63Y0.0
X218.757Y-38.1
X219.374Y-76.2
X219.392Y-57.15
X221.774Y-76.2
X223.52Y0.0
X224.155Y-19.05
X228.917Y-38.1
X233.026Y-76.2
X233.045Y-19.05
X233.68Y0.0
X235.42Y-57.15
X235.426Y-76.2
X237.82Y-38.1
X242.57Y0.0
X243.186Y-76.2
X243.205Y-19.05
X244.951Y-57.15
X245.58Y-57.15
X245.586Y-76.2
X247.98Y-38.1
X249.714Y-38.1
X252.12Y0.0
X252.73Y0.0
X255.111Y-57.15
X256.839Y-76.2
X256.858Y-19.05
X259.239Y-76.2
X259.874Y-38.1
X261.62Y0.0
X261.62Y-57.15
X262.28Y0.0
X264.32Y-23.49
X264.32Y-33.65
X266.999Y-76.2
X267.017Y-19.05
X269.399Y-76.2
X271.78Y0.0
X271.78Y-57.15
T3
X-0.032Y-50.165
X23.844Y-50.165
X71.444Y-83.185
X76.2Y-83.186
X171.444Y-83.185
X190.5Y-83.186
X238.093Y-50.16
X242.856Y-31.115
X257.335Y-16.632
X257.335Y-40.508
X261.969Y-50.16
X266.732Y-31.115
T4
X-0.032Y-65.375
X23.844Y-65.375
X71.444Y-67.975
X76.2Y-67.976
X171.444Y-67.975
X190.5Y-67.976
X238.093Y-65.37
X242.856Y-46.325
X261.969Y-65.37
X266.732Y-46.325
X272.545Y-16.632
X272.545Y-40.508
T5
X0.0Y0.0
X2.38Y-57.15
X4.763Y-19.05
X4.763Y-38.1
X7.144Y-38.1
X11.906Y-57.15
X19.05Y0.0
X23.8Y-57.15
X28.575Y-19.05
X33.337Y-38.1
X38.1Y0.0
X42.862Y-57.15
X47.625Y-19.05
X52.387Y-38.1
X57.15Y0.0
X61.912Y-57.15
X66.675Y-19.05
X71.438Y-38.1
X76.2Y0.0
X80.962Y-57.15
X85.725Y-19.05
X90.487Y-38.1
X95.25Y0.0
X100.012Y-57.15
X104.775Y-19.05
X109.537Y-38.1
X114.3Y0.0
X119.062Y-57.15
X121.444Y-76.2
X123.825Y-19.05
X128.588Y-38.1
X133.35Y0.0
X133.35Y-76.201
X138.112Y-57.15
X142.875Y-19.05
X147.637Y-38.1
X152.4Y0.0
X157.162Y-57.15
X161.925Y-19.05
X166.688Y-38.1
X171.45Y0.0
X176.213Y-57.15
X180.975Y-19.05
X185.737Y-38.1
X190.5Y0.0
X192.881Y-76.2
X195.262Y-57.15
X200.025Y-19.05
X204.787Y-38.1
X209.55Y0.0
X214.312Y-57.15
X219.075Y-19.05
X223.837Y-38.1
X228.6Y0.0
X238.125Y-19.05
X240.5Y-57.15
X242.9Y-38.1
X247.65Y0.0
X250.031Y-57.15
X254.794Y-38.1
X257.2Y0.0
X261.938Y-19.05
X264.32Y-28.57
X266.7Y0.0
X266.7Y-57.15
T5
X2.381Y-76.2G85X4.781Y-76.2
G05
X26.2Y-76.2G85X28.6Y-76.2
G05
X50.006Y-76.2G85X52.406Y-76.2
G05
X214.294Y-76.2G85X216.694Y-76.2
G05
X238.106Y-76.2G85X240.506Y-76.2
G05
X261.919Y-76.2G85X264.319Y-76.2
G05
M30
