G04 #@! TF.GenerationSoftware,KiCad,Pcbnew,8.0.4*
G04 #@! TF.CreationDate,2024-08-26T00:00:45+02:00*
G04 #@! TF.ProjectId,keyboard,6b657962-6f61-4726-942e-6b696361645f,rev?*
G04 #@! TF.SameCoordinates,Original*
G04 #@! TF.FileFunction,Legend,Bot*
G04 #@! TF.FilePolarity,Positive*
%FSLAX46Y46*%
G04 Gerber Fmt 4.6, Leading zero omitted, Abs format (unit mm)*
G04 Created by KiCad (PCBNEW 8.0.4) date 2024-08-26 00:00:45*
%MOMM*%
%LPD*%
G01*
G04 APERTURE LIST*
G04 Aperture macros list*
%AMRoundRect*
0 Rectangle with rounded corners*
0 $1 Rounding radius*
0 $2 $3 $4 $5 $6 $7 $8 $9 X,Y pos of 4 corners*
0 Add a 4 corners polygon primitive as box body*
4,1,4,$2,$3,$4,$5,$6,$7,$8,$9,$2,$3,0*
0 Add four circle primitives for the rounded corners*
1,1,$1+$1,$2,$3*
1,1,$1+$1,$4,$5*
1,1,$1+$1,$6,$7*
1,1,$1+$1,$8,$9*
0 Add four rect primitives between the rounded corners*
20,1,$1+$1,$2,$3,$4,$5,0*
20,1,$1+$1,$4,$5,$6,$7,0*
20,1,$1+$1,$6,$7,$8,$9,0*
20,1,$1+$1,$8,$9,$2,$3,0*%
G04 Aperture macros list end*
%ADD10C,0.150000*%
%ADD11C,0.160000*%
%ADD12C,0.120000*%
%ADD13RoundRect,0.237500X-0.344715X0.008839X0.008839X-0.344715X0.344715X-0.008839X-0.008839X0.344715X0*%
%ADD14C,1.750000*%
%ADD15C,4.000000*%
%ADD16C,2.500000*%
%ADD17O,4.900000X2.500000*%
%ADD18C,3.048000*%
%ADD19C,3.987800*%
%ADD20RoundRect,0.225000X-0.375000X0.225000X-0.375000X-0.225000X0.375000X-0.225000X0.375000X0.225000X0*%
%ADD21RoundRect,0.225000X0.375000X-0.225000X0.375000X0.225000X-0.375000X0.225000X-0.375000X-0.225000X0*%
%ADD22RoundRect,0.140000X0.219203X0.021213X0.021213X0.219203X-0.219203X-0.021213X-0.021213X-0.219203X0*%
%ADD23RoundRect,0.140000X-0.219203X-0.021213X-0.021213X-0.219203X0.219203X0.021213X0.021213X0.219203X0*%
%ADD24O,8.000000X5.000000*%
%ADD25O,10.000000X5.000000*%
%ADD26RoundRect,0.237500X-0.250000X-0.237500X0.250000X-0.237500X0.250000X0.237500X-0.250000X0.237500X0*%
%ADD27RoundRect,0.140000X-0.140000X-0.170000X0.140000X-0.170000X0.140000X0.170000X-0.140000X0.170000X0*%
%ADD28RoundRect,0.237500X0.250000X0.237500X-0.250000X0.237500X-0.250000X-0.237500X0.250000X-0.237500X0*%
%ADD29RoundRect,0.250000X-0.625000X0.375000X-0.625000X-0.375000X0.625000X-0.375000X0.625000X0.375000X0*%
%ADD30R,1.700000X1.700000*%
%ADD31O,1.700000X1.700000*%
%ADD32RoundRect,0.140000X0.140000X0.170000X-0.140000X0.170000X-0.140000X-0.170000X0.140000X-0.170000X0*%
%ADD33RoundRect,0.075000X-0.415425X-0.521491X0.521491X0.415425X0.415425X0.521491X-0.521491X-0.415425X0*%
%ADD34RoundRect,0.075000X0.415425X-0.521491X0.521491X-0.415425X-0.415425X0.521491X-0.521491X0.415425X0*%
%ADD35C,5.000000*%
%ADD36RoundRect,0.150000X0.275000X-0.150000X0.275000X0.150000X-0.275000X0.150000X-0.275000X-0.150000X0*%
%ADD37RoundRect,0.175000X0.225000X-0.175000X0.225000X0.175000X-0.225000X0.175000X-0.225000X-0.175000X0*%
%ADD38R,1.000000X1.700000*%
%ADD39RoundRect,0.225000X-0.017678X0.335876X-0.335876X0.017678X0.017678X-0.335876X0.335876X-0.017678X0*%
%ADD40C,0.650000*%
%ADD41R,0.600000X1.100000*%
%ADD42R,0.300000X1.240000*%
%ADD43R,0.300000X1.020000*%
%ADD44R,0.300000X1.120000*%
%ADD45O,1.000000X1.800000*%
%ADD46O,1.000000X2.200000*%
%ADD47RoundRect,0.150000X0.512500X0.150000X-0.512500X0.150000X-0.512500X-0.150000X0.512500X-0.150000X0*%
%ADD48C,6.000000*%
%ADD49RoundRect,0.175000X-0.175000X-0.325000X0.175000X-0.325000X0.175000X0.325000X-0.175000X0.325000X0*%
%ADD50RoundRect,0.150000X-0.200000X-0.150000X0.200000X-0.150000X0.200000X0.150000X-0.200000X0.150000X0*%
G04 APERTURE END LIST*
D10*
X103667035Y-82732572D02*
X104239454Y-82631557D01*
X104071096Y-83136633D02*
X104778202Y-82429526D01*
X104778202Y-82429526D02*
X104508828Y-82160152D01*
X104508828Y-82160152D02*
X104407813Y-82126480D01*
X104407813Y-82126480D02*
X104340470Y-82126480D01*
X104340470Y-82126480D02*
X104239454Y-82160152D01*
X104239454Y-82160152D02*
X104138439Y-82261167D01*
X104138439Y-82261167D02*
X104104767Y-82362183D01*
X104104767Y-82362183D02*
X104104767Y-82429526D01*
X104104767Y-82429526D02*
X104138439Y-82530541D01*
X104138439Y-82530541D02*
X104407813Y-82799915D01*
X102993600Y-82059137D02*
X103397661Y-82463198D01*
X103195630Y-82261167D02*
X103902737Y-81554061D01*
X103902737Y-81554061D02*
X103869065Y-81722419D01*
X103869065Y-81722419D02*
X103869065Y-81857106D01*
X103869065Y-81857106D02*
X103902737Y-81958122D01*
X103262973Y-80914297D02*
X103195630Y-80846954D01*
X103195630Y-80846954D02*
X103094615Y-80813282D01*
X103094615Y-80813282D02*
X103027271Y-80813282D01*
X103027271Y-80813282D02*
X102926256Y-80846954D01*
X102926256Y-80846954D02*
X102757897Y-80947969D01*
X102757897Y-80947969D02*
X102589538Y-81116328D01*
X102589538Y-81116328D02*
X102488523Y-81284686D01*
X102488523Y-81284686D02*
X102454851Y-81385702D01*
X102454851Y-81385702D02*
X102454851Y-81453045D01*
X102454851Y-81453045D02*
X102488523Y-81554060D01*
X102488523Y-81554060D02*
X102555867Y-81621404D01*
X102555867Y-81621404D02*
X102656882Y-81655076D01*
X102656882Y-81655076D02*
X102724225Y-81655076D01*
X102724225Y-81655076D02*
X102825241Y-81621404D01*
X102825241Y-81621404D02*
X102993599Y-81520389D01*
X102993599Y-81520389D02*
X103161958Y-81352030D01*
X103161958Y-81352030D02*
X103262973Y-81183671D01*
X103262973Y-81183671D02*
X103296645Y-81082656D01*
X103296645Y-81082656D02*
X103296645Y-81015312D01*
X103296645Y-81015312D02*
X103262973Y-80914297D01*
X102185082Y-83550619D02*
X102757501Y-83449604D01*
X102589143Y-83954680D02*
X103296249Y-83247573D01*
X103296249Y-83247573D02*
X103026875Y-82978199D01*
X103026875Y-82978199D02*
X102925860Y-82944527D01*
X102925860Y-82944527D02*
X102858517Y-82944527D01*
X102858517Y-82944527D02*
X102757501Y-82978199D01*
X102757501Y-82978199D02*
X102656486Y-83079214D01*
X102656486Y-83079214D02*
X102622814Y-83180230D01*
X102622814Y-83180230D02*
X102622814Y-83247573D01*
X102622814Y-83247573D02*
X102656486Y-83348588D01*
X102656486Y-83348588D02*
X102925860Y-83617962D01*
X101848364Y-83213901D02*
X101713677Y-83079214D01*
X101713677Y-83079214D02*
X101680005Y-82978199D01*
X101680005Y-82978199D02*
X101680005Y-82910856D01*
X101680005Y-82910856D02*
X101713677Y-82742497D01*
X101713677Y-82742497D02*
X101814692Y-82574138D01*
X101814692Y-82574138D02*
X102084066Y-82304764D01*
X102084066Y-82304764D02*
X102185082Y-82271092D01*
X102185082Y-82271092D02*
X102252425Y-82271092D01*
X102252425Y-82271092D02*
X102353440Y-82304764D01*
X102353440Y-82304764D02*
X102488127Y-82439451D01*
X102488127Y-82439451D02*
X102521799Y-82540466D01*
X102521799Y-82540466D02*
X102521799Y-82607810D01*
X102521799Y-82607810D02*
X102488127Y-82708825D01*
X102488127Y-82708825D02*
X102319769Y-82877184D01*
X102319769Y-82877184D02*
X102218753Y-82910856D01*
X102218753Y-82910856D02*
X102151410Y-82910856D01*
X102151410Y-82910856D02*
X102050395Y-82877184D01*
X102050395Y-82877184D02*
X101915708Y-82742497D01*
X101915708Y-82742497D02*
X101882036Y-82641482D01*
X101882036Y-82641482D02*
X101882036Y-82574138D01*
X101882036Y-82574138D02*
X101915708Y-82473123D01*
D11*
X93542858Y-64934060D02*
X93590477Y-64981680D01*
X93590477Y-64981680D02*
X93733334Y-65029299D01*
X93733334Y-65029299D02*
X93828572Y-65029299D01*
X93828572Y-65029299D02*
X93971429Y-64981680D01*
X93971429Y-64981680D02*
X94066667Y-64886441D01*
X94066667Y-64886441D02*
X94114286Y-64791203D01*
X94114286Y-64791203D02*
X94161905Y-64600727D01*
X94161905Y-64600727D02*
X94161905Y-64457870D01*
X94161905Y-64457870D02*
X94114286Y-64267394D01*
X94114286Y-64267394D02*
X94066667Y-64172156D01*
X94066667Y-64172156D02*
X93971429Y-64076918D01*
X93971429Y-64076918D02*
X93828572Y-64029299D01*
X93828572Y-64029299D02*
X93733334Y-64029299D01*
X93733334Y-64029299D02*
X93590477Y-64076918D01*
X93590477Y-64076918D02*
X93542858Y-64124537D01*
X92590477Y-65029299D02*
X93161905Y-65029299D01*
X92876191Y-65029299D02*
X92876191Y-64029299D01*
X92876191Y-64029299D02*
X92971429Y-64172156D01*
X92971429Y-64172156D02*
X93066667Y-64267394D01*
X93066667Y-64267394D02*
X93161905Y-64315013D01*
X92114286Y-65029299D02*
X91923810Y-65029299D01*
X91923810Y-65029299D02*
X91828572Y-64981680D01*
X91828572Y-64981680D02*
X91780953Y-64934060D01*
X91780953Y-64934060D02*
X91685715Y-64791203D01*
X91685715Y-64791203D02*
X91638096Y-64600727D01*
X91638096Y-64600727D02*
X91638096Y-64219775D01*
X91638096Y-64219775D02*
X91685715Y-64124537D01*
X91685715Y-64124537D02*
X91733334Y-64076918D01*
X91733334Y-64076918D02*
X91828572Y-64029299D01*
X91828572Y-64029299D02*
X92019048Y-64029299D01*
X92019048Y-64029299D02*
X92114286Y-64076918D01*
X92114286Y-64076918D02*
X92161905Y-64124537D01*
X92161905Y-64124537D02*
X92209524Y-64219775D01*
X92209524Y-64219775D02*
X92209524Y-64457870D01*
X92209524Y-64457870D02*
X92161905Y-64553108D01*
X92161905Y-64553108D02*
X92114286Y-64600727D01*
X92114286Y-64600727D02*
X92019048Y-64648346D01*
X92019048Y-64648346D02*
X91828572Y-64648346D01*
X91828572Y-64648346D02*
X91733334Y-64600727D01*
X91733334Y-64600727D02*
X91685715Y-64553108D01*
X91685715Y-64553108D02*
X91638096Y-64457870D01*
X89157142Y-79940939D02*
X89109523Y-79893320D01*
X89109523Y-79893320D02*
X88966666Y-79845700D01*
X88966666Y-79845700D02*
X88871428Y-79845700D01*
X88871428Y-79845700D02*
X88728571Y-79893320D01*
X88728571Y-79893320D02*
X88633333Y-79988558D01*
X88633333Y-79988558D02*
X88585714Y-80083796D01*
X88585714Y-80083796D02*
X88538095Y-80274272D01*
X88538095Y-80274272D02*
X88538095Y-80417129D01*
X88538095Y-80417129D02*
X88585714Y-80607605D01*
X88585714Y-80607605D02*
X88633333Y-80702843D01*
X88633333Y-80702843D02*
X88728571Y-80798081D01*
X88728571Y-80798081D02*
X88871428Y-80845700D01*
X88871428Y-80845700D02*
X88966666Y-80845700D01*
X88966666Y-80845700D02*
X89109523Y-80798081D01*
X89109523Y-80798081D02*
X89157142Y-80750462D01*
X89538095Y-80750462D02*
X89585714Y-80798081D01*
X89585714Y-80798081D02*
X89680952Y-80845700D01*
X89680952Y-80845700D02*
X89919047Y-80845700D01*
X89919047Y-80845700D02*
X90014285Y-80798081D01*
X90014285Y-80798081D02*
X90061904Y-80750462D01*
X90061904Y-80750462D02*
X90109523Y-80655224D01*
X90109523Y-80655224D02*
X90109523Y-80559986D01*
X90109523Y-80559986D02*
X90061904Y-80417129D01*
X90061904Y-80417129D02*
X89490476Y-79845700D01*
X89490476Y-79845700D02*
X90109523Y-79845700D01*
X90728571Y-80845700D02*
X90823809Y-80845700D01*
X90823809Y-80845700D02*
X90919047Y-80798081D01*
X90919047Y-80798081D02*
X90966666Y-80750462D01*
X90966666Y-80750462D02*
X91014285Y-80655224D01*
X91014285Y-80655224D02*
X91061904Y-80464748D01*
X91061904Y-80464748D02*
X91061904Y-80226653D01*
X91061904Y-80226653D02*
X91014285Y-80036177D01*
X91014285Y-80036177D02*
X90966666Y-79940939D01*
X90966666Y-79940939D02*
X90919047Y-79893320D01*
X90919047Y-79893320D02*
X90823809Y-79845700D01*
X90823809Y-79845700D02*
X90728571Y-79845700D01*
X90728571Y-79845700D02*
X90633333Y-79893320D01*
X90633333Y-79893320D02*
X90585714Y-79940939D01*
X90585714Y-79940939D02*
X90538095Y-80036177D01*
X90538095Y-80036177D02*
X90490476Y-80226653D01*
X90490476Y-80226653D02*
X90490476Y-80464748D01*
X90490476Y-80464748D02*
X90538095Y-80655224D01*
X90538095Y-80655224D02*
X90585714Y-80750462D01*
X90585714Y-80750462D02*
X90633333Y-80798081D01*
X90633333Y-80798081D02*
X90728571Y-80845700D01*
X99742857Y-82859060D02*
X99790476Y-82906680D01*
X99790476Y-82906680D02*
X99933333Y-82954299D01*
X99933333Y-82954299D02*
X100028571Y-82954299D01*
X100028571Y-82954299D02*
X100171428Y-82906680D01*
X100171428Y-82906680D02*
X100266666Y-82811441D01*
X100266666Y-82811441D02*
X100314285Y-82716203D01*
X100314285Y-82716203D02*
X100361904Y-82525727D01*
X100361904Y-82525727D02*
X100361904Y-82382870D01*
X100361904Y-82382870D02*
X100314285Y-82192394D01*
X100314285Y-82192394D02*
X100266666Y-82097156D01*
X100266666Y-82097156D02*
X100171428Y-82001918D01*
X100171428Y-82001918D02*
X100028571Y-81954299D01*
X100028571Y-81954299D02*
X99933333Y-81954299D01*
X99933333Y-81954299D02*
X99790476Y-82001918D01*
X99790476Y-82001918D02*
X99742857Y-82049537D01*
X98790476Y-82954299D02*
X99361904Y-82954299D01*
X99076190Y-82954299D02*
X99076190Y-81954299D01*
X99076190Y-81954299D02*
X99171428Y-82097156D01*
X99171428Y-82097156D02*
X99266666Y-82192394D01*
X99266666Y-82192394D02*
X99361904Y-82240013D01*
X98457142Y-81954299D02*
X97838095Y-81954299D01*
X97838095Y-81954299D02*
X98171428Y-82335251D01*
X98171428Y-82335251D02*
X98028571Y-82335251D01*
X98028571Y-82335251D02*
X97933333Y-82382870D01*
X97933333Y-82382870D02*
X97885714Y-82430489D01*
X97885714Y-82430489D02*
X97838095Y-82525727D01*
X97838095Y-82525727D02*
X97838095Y-82763822D01*
X97838095Y-82763822D02*
X97885714Y-82859060D01*
X97885714Y-82859060D02*
X97933333Y-82906680D01*
X97933333Y-82906680D02*
X98028571Y-82954299D01*
X98028571Y-82954299D02*
X98314285Y-82954299D01*
X98314285Y-82954299D02*
X98409523Y-82906680D01*
X98409523Y-82906680D02*
X98457142Y-82859060D01*
X141566666Y6945700D02*
X141899999Y7421891D01*
X142138094Y6945700D02*
X142138094Y7945700D01*
X142138094Y7945700D02*
X141757142Y7945700D01*
X141757142Y7945700D02*
X141661904Y7898081D01*
X141661904Y7898081D02*
X141614285Y7850462D01*
X141614285Y7850462D02*
X141566666Y7755224D01*
X141566666Y7755224D02*
X141566666Y7612367D01*
X141566666Y7612367D02*
X141614285Y7517129D01*
X141614285Y7517129D02*
X141661904Y7469510D01*
X141661904Y7469510D02*
X141757142Y7421891D01*
X141757142Y7421891D02*
X142138094Y7421891D01*
X141233332Y7945700D02*
X140614285Y7945700D01*
X140614285Y7945700D02*
X140947618Y7564748D01*
X140947618Y7564748D02*
X140804761Y7564748D01*
X140804761Y7564748D02*
X140709523Y7517129D01*
X140709523Y7517129D02*
X140661904Y7469510D01*
X140661904Y7469510D02*
X140614285Y7374272D01*
X140614285Y7374272D02*
X140614285Y7136177D01*
X140614285Y7136177D02*
X140661904Y7040939D01*
X140661904Y7040939D02*
X140709523Y6993320D01*
X140709523Y6993320D02*
X140804761Y6945700D01*
X140804761Y6945700D02*
X141090475Y6945700D01*
X141090475Y6945700D02*
X141185713Y6993320D01*
X141185713Y6993320D02*
X141233332Y7040939D01*
X89317857Y-64359060D02*
X89365476Y-64406680D01*
X89365476Y-64406680D02*
X89508333Y-64454299D01*
X89508333Y-64454299D02*
X89603571Y-64454299D01*
X89603571Y-64454299D02*
X89746428Y-64406680D01*
X89746428Y-64406680D02*
X89841666Y-64311441D01*
X89841666Y-64311441D02*
X89889285Y-64216203D01*
X89889285Y-64216203D02*
X89936904Y-64025727D01*
X89936904Y-64025727D02*
X89936904Y-63882870D01*
X89936904Y-63882870D02*
X89889285Y-63692394D01*
X89889285Y-63692394D02*
X89841666Y-63597156D01*
X89841666Y-63597156D02*
X89746428Y-63501918D01*
X89746428Y-63501918D02*
X89603571Y-63454299D01*
X89603571Y-63454299D02*
X89508333Y-63454299D01*
X89508333Y-63454299D02*
X89365476Y-63501918D01*
X89365476Y-63501918D02*
X89317857Y-63549537D01*
X88365476Y-64454299D02*
X88936904Y-64454299D01*
X88651190Y-64454299D02*
X88651190Y-63454299D01*
X88651190Y-63454299D02*
X88746428Y-63597156D01*
X88746428Y-63597156D02*
X88841666Y-63692394D01*
X88841666Y-63692394D02*
X88936904Y-63740013D01*
X87508333Y-63787632D02*
X87508333Y-64454299D01*
X87746428Y-63406680D02*
X87984523Y-64120965D01*
X87984523Y-64120965D02*
X87365476Y-64120965D01*
X141591666Y1795700D02*
X141924999Y2271891D01*
X142163094Y1795700D02*
X142163094Y2795700D01*
X142163094Y2795700D02*
X141782142Y2795700D01*
X141782142Y2795700D02*
X141686904Y2748081D01*
X141686904Y2748081D02*
X141639285Y2700462D01*
X141639285Y2700462D02*
X141591666Y2605224D01*
X141591666Y2605224D02*
X141591666Y2462367D01*
X141591666Y2462367D02*
X141639285Y2367129D01*
X141639285Y2367129D02*
X141686904Y2319510D01*
X141686904Y2319510D02*
X141782142Y2271891D01*
X141782142Y2271891D02*
X142163094Y2271891D01*
X140734523Y2462367D02*
X140734523Y1795700D01*
X140972618Y2843320D02*
X141210713Y2129034D01*
X141210713Y2129034D02*
X140591666Y2129034D01*
X22833333Y-36205489D02*
X23166666Y-36205489D01*
X23166666Y-36729299D02*
X23166666Y-35729299D01*
X23166666Y-35729299D02*
X22690476Y-35729299D01*
X21785714Y-36729299D02*
X22357142Y-36729299D01*
X22071428Y-36729299D02*
X22071428Y-35729299D01*
X22071428Y-35729299D02*
X22166666Y-35872156D01*
X22166666Y-35872156D02*
X22261904Y-35967394D01*
X22261904Y-35967394D02*
X22357142Y-36015013D01*
X23283333Y-28454299D02*
X23283333Y-29168584D01*
X23283333Y-29168584D02*
X23330952Y-29311441D01*
X23330952Y-29311441D02*
X23426190Y-29406680D01*
X23426190Y-29406680D02*
X23569047Y-29454299D01*
X23569047Y-29454299D02*
X23664285Y-29454299D01*
X22664285Y-28882870D02*
X22759523Y-28835251D01*
X22759523Y-28835251D02*
X22807142Y-28787632D01*
X22807142Y-28787632D02*
X22854761Y-28692394D01*
X22854761Y-28692394D02*
X22854761Y-28644775D01*
X22854761Y-28644775D02*
X22807142Y-28549537D01*
X22807142Y-28549537D02*
X22759523Y-28501918D01*
X22759523Y-28501918D02*
X22664285Y-28454299D01*
X22664285Y-28454299D02*
X22473809Y-28454299D01*
X22473809Y-28454299D02*
X22378571Y-28501918D01*
X22378571Y-28501918D02*
X22330952Y-28549537D01*
X22330952Y-28549537D02*
X22283333Y-28644775D01*
X22283333Y-28644775D02*
X22283333Y-28692394D01*
X22283333Y-28692394D02*
X22330952Y-28787632D01*
X22330952Y-28787632D02*
X22378571Y-28835251D01*
X22378571Y-28835251D02*
X22473809Y-28882870D01*
X22473809Y-28882870D02*
X22664285Y-28882870D01*
X22664285Y-28882870D02*
X22759523Y-28930489D01*
X22759523Y-28930489D02*
X22807142Y-28978108D01*
X22807142Y-28978108D02*
X22854761Y-29073346D01*
X22854761Y-29073346D02*
X22854761Y-29263822D01*
X22854761Y-29263822D02*
X22807142Y-29359060D01*
X22807142Y-29359060D02*
X22759523Y-29406680D01*
X22759523Y-29406680D02*
X22664285Y-29454299D01*
X22664285Y-29454299D02*
X22473809Y-29454299D01*
X22473809Y-29454299D02*
X22378571Y-29406680D01*
X22378571Y-29406680D02*
X22330952Y-29359060D01*
X22330952Y-29359060D02*
X22283333Y-29263822D01*
X22283333Y-29263822D02*
X22283333Y-29073346D01*
X22283333Y-29073346D02*
X22330952Y-28978108D01*
X22330952Y-28978108D02*
X22378571Y-28930489D01*
X22378571Y-28930489D02*
X22473809Y-28882870D01*
X88692857Y-79209059D02*
X88740476Y-79256679D01*
X88740476Y-79256679D02*
X88883333Y-79304298D01*
X88883333Y-79304298D02*
X88978571Y-79304298D01*
X88978571Y-79304298D02*
X89121428Y-79256679D01*
X89121428Y-79256679D02*
X89216666Y-79161440D01*
X89216666Y-79161440D02*
X89264285Y-79066202D01*
X89264285Y-79066202D02*
X89311904Y-78875726D01*
X89311904Y-78875726D02*
X89311904Y-78732869D01*
X89311904Y-78732869D02*
X89264285Y-78542393D01*
X89264285Y-78542393D02*
X89216666Y-78447155D01*
X89216666Y-78447155D02*
X89121428Y-78351917D01*
X89121428Y-78351917D02*
X88978571Y-78304298D01*
X88978571Y-78304298D02*
X88883333Y-78304298D01*
X88883333Y-78304298D02*
X88740476Y-78351917D01*
X88740476Y-78351917D02*
X88692857Y-78399536D01*
X87740476Y-79304298D02*
X88311904Y-79304298D01*
X88026190Y-79304298D02*
X88026190Y-78304298D01*
X88026190Y-78304298D02*
X88121428Y-78447155D01*
X88121428Y-78447155D02*
X88216666Y-78542393D01*
X88216666Y-78542393D02*
X88311904Y-78590012D01*
X86835714Y-78304298D02*
X87311904Y-78304298D01*
X87311904Y-78304298D02*
X87359523Y-78780488D01*
X87359523Y-78780488D02*
X87311904Y-78732869D01*
X87311904Y-78732869D02*
X87216666Y-78685250D01*
X87216666Y-78685250D02*
X86978571Y-78685250D01*
X86978571Y-78685250D02*
X86883333Y-78732869D01*
X86883333Y-78732869D02*
X86835714Y-78780488D01*
X86835714Y-78780488D02*
X86788095Y-78875726D01*
X86788095Y-78875726D02*
X86788095Y-79113821D01*
X86788095Y-79113821D02*
X86835714Y-79209059D01*
X86835714Y-79209059D02*
X86883333Y-79256679D01*
X86883333Y-79256679D02*
X86978571Y-79304298D01*
X86978571Y-79304298D02*
X87216666Y-79304298D01*
X87216666Y-79304298D02*
X87311904Y-79256679D01*
X87311904Y-79256679D02*
X87359523Y-79209059D01*
X89792857Y-71909060D02*
X89840476Y-71956680D01*
X89840476Y-71956680D02*
X89983333Y-72004299D01*
X89983333Y-72004299D02*
X90078571Y-72004299D01*
X90078571Y-72004299D02*
X90221428Y-71956680D01*
X90221428Y-71956680D02*
X90316666Y-71861441D01*
X90316666Y-71861441D02*
X90364285Y-71766203D01*
X90364285Y-71766203D02*
X90411904Y-71575727D01*
X90411904Y-71575727D02*
X90411904Y-71432870D01*
X90411904Y-71432870D02*
X90364285Y-71242394D01*
X90364285Y-71242394D02*
X90316666Y-71147156D01*
X90316666Y-71147156D02*
X90221428Y-71051918D01*
X90221428Y-71051918D02*
X90078571Y-71004299D01*
X90078571Y-71004299D02*
X89983333Y-71004299D01*
X89983333Y-71004299D02*
X89840476Y-71051918D01*
X89840476Y-71051918D02*
X89792857Y-71099537D01*
X88840476Y-72004299D02*
X89411904Y-72004299D01*
X89126190Y-72004299D02*
X89126190Y-71004299D01*
X89126190Y-71004299D02*
X89221428Y-71147156D01*
X89221428Y-71147156D02*
X89316666Y-71242394D01*
X89316666Y-71242394D02*
X89411904Y-71290013D01*
X88507142Y-71004299D02*
X87840476Y-71004299D01*
X87840476Y-71004299D02*
X88269047Y-72004299D01*
X97961904Y-80254299D02*
X97961904Y-81063822D01*
X97961904Y-81063822D02*
X97914285Y-81159060D01*
X97914285Y-81159060D02*
X97866666Y-81206680D01*
X97866666Y-81206680D02*
X97771428Y-81254299D01*
X97771428Y-81254299D02*
X97580952Y-81254299D01*
X97580952Y-81254299D02*
X97485714Y-81206680D01*
X97485714Y-81206680D02*
X97438095Y-81159060D01*
X97438095Y-81159060D02*
X97390476Y-81063822D01*
X97390476Y-81063822D02*
X97390476Y-80254299D01*
X97009523Y-80254299D02*
X96390476Y-80254299D01*
X96390476Y-80254299D02*
X96723809Y-80635251D01*
X96723809Y-80635251D02*
X96580952Y-80635251D01*
X96580952Y-80635251D02*
X96485714Y-80682870D01*
X96485714Y-80682870D02*
X96438095Y-80730489D01*
X96438095Y-80730489D02*
X96390476Y-80825727D01*
X96390476Y-80825727D02*
X96390476Y-81063822D01*
X96390476Y-81063822D02*
X96438095Y-81159060D01*
X96438095Y-81159060D02*
X96485714Y-81206680D01*
X96485714Y-81206680D02*
X96580952Y-81254299D01*
X96580952Y-81254299D02*
X96866666Y-81254299D01*
X96866666Y-81254299D02*
X96961904Y-81206680D01*
X96961904Y-81206680D02*
X97009523Y-81159060D01*
X17341666Y5350700D02*
X17674999Y5826891D01*
X17913094Y5350700D02*
X17913094Y6350700D01*
X17913094Y6350700D02*
X17532142Y6350700D01*
X17532142Y6350700D02*
X17436904Y6303081D01*
X17436904Y6303081D02*
X17389285Y6255462D01*
X17389285Y6255462D02*
X17341666Y6160224D01*
X17341666Y6160224D02*
X17341666Y6017367D01*
X17341666Y6017367D02*
X17389285Y5922129D01*
X17389285Y5922129D02*
X17436904Y5874510D01*
X17436904Y5874510D02*
X17532142Y5826891D01*
X17532142Y5826891D02*
X17913094Y5826891D01*
X16960713Y6255462D02*
X16913094Y6303081D01*
X16913094Y6303081D02*
X16817856Y6350700D01*
X16817856Y6350700D02*
X16579761Y6350700D01*
X16579761Y6350700D02*
X16484523Y6303081D01*
X16484523Y6303081D02*
X16436904Y6255462D01*
X16436904Y6255462D02*
X16389285Y6160224D01*
X16389285Y6160224D02*
X16389285Y6064986D01*
X16389285Y6064986D02*
X16436904Y5922129D01*
X16436904Y5922129D02*
X17008332Y5350700D01*
X17008332Y5350700D02*
X16389285Y5350700D01*
X107692857Y-70684060D02*
X107740476Y-70731680D01*
X107740476Y-70731680D02*
X107883333Y-70779299D01*
X107883333Y-70779299D02*
X107978571Y-70779299D01*
X107978571Y-70779299D02*
X108121428Y-70731680D01*
X108121428Y-70731680D02*
X108216666Y-70636441D01*
X108216666Y-70636441D02*
X108264285Y-70541203D01*
X108264285Y-70541203D02*
X108311904Y-70350727D01*
X108311904Y-70350727D02*
X108311904Y-70207870D01*
X108311904Y-70207870D02*
X108264285Y-70017394D01*
X108264285Y-70017394D02*
X108216666Y-69922156D01*
X108216666Y-69922156D02*
X108121428Y-69826918D01*
X108121428Y-69826918D02*
X107978571Y-69779299D01*
X107978571Y-69779299D02*
X107883333Y-69779299D01*
X107883333Y-69779299D02*
X107740476Y-69826918D01*
X107740476Y-69826918D02*
X107692857Y-69874537D01*
X106740476Y-70779299D02*
X107311904Y-70779299D01*
X107026190Y-70779299D02*
X107026190Y-69779299D01*
X107026190Y-69779299D02*
X107121428Y-69922156D01*
X107121428Y-69922156D02*
X107216666Y-70017394D01*
X107216666Y-70017394D02*
X107311904Y-70065013D01*
X106169047Y-70207870D02*
X106264285Y-70160251D01*
X106264285Y-70160251D02*
X106311904Y-70112632D01*
X106311904Y-70112632D02*
X106359523Y-70017394D01*
X106359523Y-70017394D02*
X106359523Y-69969775D01*
X106359523Y-69969775D02*
X106311904Y-69874537D01*
X106311904Y-69874537D02*
X106264285Y-69826918D01*
X106264285Y-69826918D02*
X106169047Y-69779299D01*
X106169047Y-69779299D02*
X105978571Y-69779299D01*
X105978571Y-69779299D02*
X105883333Y-69826918D01*
X105883333Y-69826918D02*
X105835714Y-69874537D01*
X105835714Y-69874537D02*
X105788095Y-69969775D01*
X105788095Y-69969775D02*
X105788095Y-70017394D01*
X105788095Y-70017394D02*
X105835714Y-70112632D01*
X105835714Y-70112632D02*
X105883333Y-70160251D01*
X105883333Y-70160251D02*
X105978571Y-70207870D01*
X105978571Y-70207870D02*
X106169047Y-70207870D01*
X106169047Y-70207870D02*
X106264285Y-70255489D01*
X106264285Y-70255489D02*
X106311904Y-70303108D01*
X106311904Y-70303108D02*
X106359523Y-70398346D01*
X106359523Y-70398346D02*
X106359523Y-70588822D01*
X106359523Y-70588822D02*
X106311904Y-70684060D01*
X106311904Y-70684060D02*
X106264285Y-70731680D01*
X106264285Y-70731680D02*
X106169047Y-70779299D01*
X106169047Y-70779299D02*
X105978571Y-70779299D01*
X105978571Y-70779299D02*
X105883333Y-70731680D01*
X105883333Y-70731680D02*
X105835714Y-70684060D01*
X105835714Y-70684060D02*
X105788095Y-70588822D01*
X105788095Y-70588822D02*
X105788095Y-70398346D01*
X105788095Y-70398346D02*
X105835714Y-70303108D01*
X105835714Y-70303108D02*
X105883333Y-70255489D01*
X105883333Y-70255489D02*
X105978571Y-70207870D01*
X1466666Y4950700D02*
X1799999Y5426891D01*
X2038094Y4950700D02*
X2038094Y5950700D01*
X2038094Y5950700D02*
X1657142Y5950700D01*
X1657142Y5950700D02*
X1561904Y5903081D01*
X1561904Y5903081D02*
X1514285Y5855462D01*
X1514285Y5855462D02*
X1466666Y5760224D01*
X1466666Y5760224D02*
X1466666Y5617367D01*
X1466666Y5617367D02*
X1514285Y5522129D01*
X1514285Y5522129D02*
X1561904Y5474510D01*
X1561904Y5474510D02*
X1657142Y5426891D01*
X1657142Y5426891D02*
X2038094Y5426891D01*
X514285Y4950700D02*
X1085713Y4950700D01*
X799999Y4950700D02*
X799999Y5950700D01*
X799999Y5950700D02*
X895237Y5807843D01*
X895237Y5807843D02*
X990475Y5712605D01*
X990475Y5712605D02*
X1085713Y5664986D01*
X11633333Y-28404299D02*
X11633333Y-29118584D01*
X11633333Y-29118584D02*
X11680952Y-29261441D01*
X11680952Y-29261441D02*
X11776190Y-29356680D01*
X11776190Y-29356680D02*
X11919047Y-29404299D01*
X11919047Y-29404299D02*
X12014285Y-29404299D01*
X10728571Y-28737632D02*
X10728571Y-29404299D01*
X10966666Y-28356680D02*
X11204761Y-29070965D01*
X11204761Y-29070965D02*
X10585714Y-29070965D01*
X65880490Y-73766666D02*
X65928109Y-73909523D01*
X65928109Y-73909523D02*
X65975728Y-73957142D01*
X65975728Y-73957142D02*
X66070966Y-74004761D01*
X66070966Y-74004761D02*
X66213823Y-74004761D01*
X66213823Y-74004761D02*
X66309061Y-73957142D01*
X66309061Y-73957142D02*
X66356681Y-73909523D01*
X66356681Y-73909523D02*
X66404300Y-73814285D01*
X66404300Y-73814285D02*
X66404300Y-73433333D01*
X66404300Y-73433333D02*
X65404300Y-73433333D01*
X65404300Y-73433333D02*
X65404300Y-73766666D01*
X65404300Y-73766666D02*
X65451919Y-73861904D01*
X65451919Y-73861904D02*
X65499538Y-73909523D01*
X65499538Y-73909523D02*
X65594776Y-73957142D01*
X65594776Y-73957142D02*
X65690014Y-73957142D01*
X65690014Y-73957142D02*
X65785252Y-73909523D01*
X65785252Y-73909523D02*
X65832871Y-73861904D01*
X65832871Y-73861904D02*
X65880490Y-73766666D01*
X65880490Y-73766666D02*
X65880490Y-73433333D01*
X65404300Y-74623809D02*
X65404300Y-74814285D01*
X65404300Y-74814285D02*
X65451919Y-74909523D01*
X65451919Y-74909523D02*
X65547157Y-75004761D01*
X65547157Y-75004761D02*
X65737633Y-75052380D01*
X65737633Y-75052380D02*
X66070966Y-75052380D01*
X66070966Y-75052380D02*
X66261442Y-75004761D01*
X66261442Y-75004761D02*
X66356681Y-74909523D01*
X66356681Y-74909523D02*
X66404300Y-74814285D01*
X66404300Y-74814285D02*
X66404300Y-74623809D01*
X66404300Y-74623809D02*
X66356681Y-74528571D01*
X66356681Y-74528571D02*
X66261442Y-74433333D01*
X66261442Y-74433333D02*
X66070966Y-74385714D01*
X66070966Y-74385714D02*
X65737633Y-74385714D01*
X65737633Y-74385714D02*
X65547157Y-74433333D01*
X65547157Y-74433333D02*
X65451919Y-74528571D01*
X65451919Y-74528571D02*
X65404300Y-74623809D01*
X65404300Y-75671428D02*
X65404300Y-75861904D01*
X65404300Y-75861904D02*
X65451919Y-75957142D01*
X65451919Y-75957142D02*
X65547157Y-76052380D01*
X65547157Y-76052380D02*
X65737633Y-76099999D01*
X65737633Y-76099999D02*
X66070966Y-76099999D01*
X66070966Y-76099999D02*
X66261442Y-76052380D01*
X66261442Y-76052380D02*
X66356681Y-75957142D01*
X66356681Y-75957142D02*
X66404300Y-75861904D01*
X66404300Y-75861904D02*
X66404300Y-75671428D01*
X66404300Y-75671428D02*
X66356681Y-75576190D01*
X66356681Y-75576190D02*
X66261442Y-75480952D01*
X66261442Y-75480952D02*
X66070966Y-75433333D01*
X66070966Y-75433333D02*
X65737633Y-75433333D01*
X65737633Y-75433333D02*
X65547157Y-75480952D01*
X65547157Y-75480952D02*
X65451919Y-75576190D01*
X65451919Y-75576190D02*
X65404300Y-75671428D01*
X65404300Y-76385714D02*
X65404300Y-76957142D01*
X66404300Y-76671428D02*
X65404300Y-76671428D01*
X66404300Y-77814285D02*
X66404300Y-77242857D01*
X66404300Y-77528571D02*
X65404300Y-77528571D01*
X65404300Y-77528571D02*
X65547157Y-77433333D01*
X65547157Y-77433333D02*
X65642395Y-77338095D01*
X65642395Y-77338095D02*
X65690014Y-77242857D01*
X91792857Y-82109060D02*
X91840476Y-82156680D01*
X91840476Y-82156680D02*
X91983333Y-82204299D01*
X91983333Y-82204299D02*
X92078571Y-82204299D01*
X92078571Y-82204299D02*
X92221428Y-82156680D01*
X92221428Y-82156680D02*
X92316666Y-82061441D01*
X92316666Y-82061441D02*
X92364285Y-81966203D01*
X92364285Y-81966203D02*
X92411904Y-81775727D01*
X92411904Y-81775727D02*
X92411904Y-81632870D01*
X92411904Y-81632870D02*
X92364285Y-81442394D01*
X92364285Y-81442394D02*
X92316666Y-81347156D01*
X92316666Y-81347156D02*
X92221428Y-81251918D01*
X92221428Y-81251918D02*
X92078571Y-81204299D01*
X92078571Y-81204299D02*
X91983333Y-81204299D01*
X91983333Y-81204299D02*
X91840476Y-81251918D01*
X91840476Y-81251918D02*
X91792857Y-81299537D01*
X90840476Y-82204299D02*
X91411904Y-82204299D01*
X91126190Y-82204299D02*
X91126190Y-81204299D01*
X91126190Y-81204299D02*
X91221428Y-81347156D01*
X91221428Y-81347156D02*
X91316666Y-81442394D01*
X91316666Y-81442394D02*
X91411904Y-81490013D01*
X89983333Y-81204299D02*
X90173809Y-81204299D01*
X90173809Y-81204299D02*
X90269047Y-81251918D01*
X90269047Y-81251918D02*
X90316666Y-81299537D01*
X90316666Y-81299537D02*
X90411904Y-81442394D01*
X90411904Y-81442394D02*
X90459523Y-81632870D01*
X90459523Y-81632870D02*
X90459523Y-82013822D01*
X90459523Y-82013822D02*
X90411904Y-82109060D01*
X90411904Y-82109060D02*
X90364285Y-82156680D01*
X90364285Y-82156680D02*
X90269047Y-82204299D01*
X90269047Y-82204299D02*
X90078571Y-82204299D01*
X90078571Y-82204299D02*
X89983333Y-82156680D01*
X89983333Y-82156680D02*
X89935714Y-82109060D01*
X89935714Y-82109060D02*
X89888095Y-82013822D01*
X89888095Y-82013822D02*
X89888095Y-81775727D01*
X89888095Y-81775727D02*
X89935714Y-81680489D01*
X89935714Y-81680489D02*
X89983333Y-81632870D01*
X89983333Y-81632870D02*
X90078571Y-81585251D01*
X90078571Y-81585251D02*
X90269047Y-81585251D01*
X90269047Y-81585251D02*
X90364285Y-81632870D01*
X90364285Y-81632870D02*
X90411904Y-81680489D01*
X90411904Y-81680489D02*
X90459523Y-81775727D01*
X86517857Y-75484060D02*
X86565476Y-75531680D01*
X86565476Y-75531680D02*
X86708333Y-75579299D01*
X86708333Y-75579299D02*
X86803571Y-75579299D01*
X86803571Y-75579299D02*
X86946428Y-75531680D01*
X86946428Y-75531680D02*
X87041666Y-75436441D01*
X87041666Y-75436441D02*
X87089285Y-75341203D01*
X87089285Y-75341203D02*
X87136904Y-75150727D01*
X87136904Y-75150727D02*
X87136904Y-75007870D01*
X87136904Y-75007870D02*
X87089285Y-74817394D01*
X87089285Y-74817394D02*
X87041666Y-74722156D01*
X87041666Y-74722156D02*
X86946428Y-74626918D01*
X86946428Y-74626918D02*
X86803571Y-74579299D01*
X86803571Y-74579299D02*
X86708333Y-74579299D01*
X86708333Y-74579299D02*
X86565476Y-74626918D01*
X86565476Y-74626918D02*
X86517857Y-74674537D01*
X85565476Y-75579299D02*
X86136904Y-75579299D01*
X85851190Y-75579299D02*
X85851190Y-74579299D01*
X85851190Y-74579299D02*
X85946428Y-74722156D01*
X85946428Y-74722156D02*
X86041666Y-74817394D01*
X86041666Y-74817394D02*
X86136904Y-74865013D01*
X85184523Y-74674537D02*
X85136904Y-74626918D01*
X85136904Y-74626918D02*
X85041666Y-74579299D01*
X85041666Y-74579299D02*
X84803571Y-74579299D01*
X84803571Y-74579299D02*
X84708333Y-74626918D01*
X84708333Y-74626918D02*
X84660714Y-74674537D01*
X84660714Y-74674537D02*
X84613095Y-74769775D01*
X84613095Y-74769775D02*
X84613095Y-74865013D01*
X84613095Y-74865013D02*
X84660714Y-75007870D01*
X84660714Y-75007870D02*
X85232142Y-75579299D01*
X85232142Y-75579299D02*
X84613095Y-75579299D01*
X84342857Y-72809060D02*
X84390476Y-72856680D01*
X84390476Y-72856680D02*
X84533333Y-72904299D01*
X84533333Y-72904299D02*
X84628571Y-72904299D01*
X84628571Y-72904299D02*
X84771428Y-72856680D01*
X84771428Y-72856680D02*
X84866666Y-72761441D01*
X84866666Y-72761441D02*
X84914285Y-72666203D01*
X84914285Y-72666203D02*
X84961904Y-72475727D01*
X84961904Y-72475727D02*
X84961904Y-72332870D01*
X84961904Y-72332870D02*
X84914285Y-72142394D01*
X84914285Y-72142394D02*
X84866666Y-72047156D01*
X84866666Y-72047156D02*
X84771428Y-71951918D01*
X84771428Y-71951918D02*
X84628571Y-71904299D01*
X84628571Y-71904299D02*
X84533333Y-71904299D01*
X84533333Y-71904299D02*
X84390476Y-71951918D01*
X84390476Y-71951918D02*
X84342857Y-71999537D01*
X83390476Y-72904299D02*
X83961904Y-72904299D01*
X83676190Y-72904299D02*
X83676190Y-71904299D01*
X83676190Y-71904299D02*
X83771428Y-72047156D01*
X83771428Y-72047156D02*
X83866666Y-72142394D01*
X83866666Y-72142394D02*
X83961904Y-72190013D01*
X82438095Y-72904299D02*
X83009523Y-72904299D01*
X82723809Y-72904299D02*
X82723809Y-71904299D01*
X82723809Y-71904299D02*
X82819047Y-72047156D01*
X82819047Y-72047156D02*
X82914285Y-72142394D01*
X82914285Y-72142394D02*
X83009523Y-72190013D01*
X133683333Y8445700D02*
X133683333Y7731415D01*
X133683333Y7731415D02*
X133730952Y7588558D01*
X133730952Y7588558D02*
X133826190Y7493320D01*
X133826190Y7493320D02*
X133969047Y7445700D01*
X133969047Y7445700D02*
X134064285Y7445700D01*
X133254761Y8350462D02*
X133207142Y8398081D01*
X133207142Y8398081D02*
X133111904Y8445700D01*
X133111904Y8445700D02*
X132873809Y8445700D01*
X132873809Y8445700D02*
X132778571Y8398081D01*
X132778571Y8398081D02*
X132730952Y8350462D01*
X132730952Y8350462D02*
X132683333Y8255224D01*
X132683333Y8255224D02*
X132683333Y8159986D01*
X132683333Y8159986D02*
X132730952Y8017129D01*
X132730952Y8017129D02*
X133302380Y7445700D01*
X133302380Y7445700D02*
X132683333Y7445700D01*
X92586904Y-67229299D02*
X92586904Y-68038822D01*
X92586904Y-68038822D02*
X92539285Y-68134060D01*
X92539285Y-68134060D02*
X92491666Y-68181680D01*
X92491666Y-68181680D02*
X92396428Y-68229299D01*
X92396428Y-68229299D02*
X92205952Y-68229299D01*
X92205952Y-68229299D02*
X92110714Y-68181680D01*
X92110714Y-68181680D02*
X92063095Y-68134060D01*
X92063095Y-68134060D02*
X92015476Y-68038822D01*
X92015476Y-68038822D02*
X92015476Y-67229299D01*
X91015476Y-68229299D02*
X91586904Y-68229299D01*
X91301190Y-68229299D02*
X91301190Y-67229299D01*
X91301190Y-67229299D02*
X91396428Y-67372156D01*
X91396428Y-67372156D02*
X91491666Y-67467394D01*
X91491666Y-67467394D02*
X91586904Y-67515013D01*
X80695699Y-76623809D02*
X81171890Y-76957142D01*
X80695699Y-77195237D02*
X81695699Y-77195237D01*
X81695699Y-77195237D02*
X81695699Y-76814285D01*
X81695699Y-76814285D02*
X81648080Y-76719047D01*
X81648080Y-76719047D02*
X81600461Y-76671428D01*
X81600461Y-76671428D02*
X81505223Y-76623809D01*
X81505223Y-76623809D02*
X81362366Y-76623809D01*
X81362366Y-76623809D02*
X81267128Y-76671428D01*
X81267128Y-76671428D02*
X81219509Y-76719047D01*
X81219509Y-76719047D02*
X81171890Y-76814285D01*
X81171890Y-76814285D02*
X81171890Y-77195237D01*
X80743319Y-76242856D02*
X80695699Y-76099999D01*
X80695699Y-76099999D02*
X80695699Y-75861904D01*
X80695699Y-75861904D02*
X80743319Y-75766666D01*
X80743319Y-75766666D02*
X80790938Y-75719047D01*
X80790938Y-75719047D02*
X80886176Y-75671428D01*
X80886176Y-75671428D02*
X80981414Y-75671428D01*
X80981414Y-75671428D02*
X81076652Y-75719047D01*
X81076652Y-75719047D02*
X81124271Y-75766666D01*
X81124271Y-75766666D02*
X81171890Y-75861904D01*
X81171890Y-75861904D02*
X81219509Y-76052380D01*
X81219509Y-76052380D02*
X81267128Y-76147618D01*
X81267128Y-76147618D02*
X81314747Y-76195237D01*
X81314747Y-76195237D02*
X81409985Y-76242856D01*
X81409985Y-76242856D02*
X81505223Y-76242856D01*
X81505223Y-76242856D02*
X81600461Y-76195237D01*
X81600461Y-76195237D02*
X81648080Y-76147618D01*
X81648080Y-76147618D02*
X81695699Y-76052380D01*
X81695699Y-76052380D02*
X81695699Y-75814285D01*
X81695699Y-75814285D02*
X81648080Y-75671428D01*
X81695699Y-75385713D02*
X81695699Y-74814285D01*
X80695699Y-75099999D02*
X81695699Y-75099999D01*
X80695699Y-73957142D02*
X80695699Y-74528570D01*
X80695699Y-74242856D02*
X81695699Y-74242856D01*
X81695699Y-74242856D02*
X81552842Y-74338094D01*
X81552842Y-74338094D02*
X81457604Y-74433332D01*
X81457604Y-74433332D02*
X81409985Y-74528570D01*
X9383333Y6845700D02*
X9383333Y6131415D01*
X9383333Y6131415D02*
X9430952Y5988558D01*
X9430952Y5988558D02*
X9526190Y5893320D01*
X9526190Y5893320D02*
X9669047Y5845700D01*
X9669047Y5845700D02*
X9764285Y5845700D01*
X8383333Y5845700D02*
X8954761Y5845700D01*
X8669047Y5845700D02*
X8669047Y6845700D01*
X8669047Y6845700D02*
X8764285Y6702843D01*
X8764285Y6702843D02*
X8859523Y6607605D01*
X8859523Y6607605D02*
X8954761Y6559986D01*
X81661904Y-68029299D02*
X81661904Y-68838822D01*
X81661904Y-68838822D02*
X81614285Y-68934060D01*
X81614285Y-68934060D02*
X81566666Y-68981680D01*
X81566666Y-68981680D02*
X81471428Y-69029299D01*
X81471428Y-69029299D02*
X81280952Y-69029299D01*
X81280952Y-69029299D02*
X81185714Y-68981680D01*
X81185714Y-68981680D02*
X81138095Y-68934060D01*
X81138095Y-68934060D02*
X81090476Y-68838822D01*
X81090476Y-68838822D02*
X81090476Y-68029299D01*
X80185714Y-68362632D02*
X80185714Y-69029299D01*
X80423809Y-67981680D02*
X80661904Y-68695965D01*
X80661904Y-68695965D02*
X80042857Y-68695965D01*
D12*
X104355889Y-81494815D02*
X103995655Y-81134581D01*
X105094815Y-80755889D02*
X104734581Y-80395655D01*
X103210654Y-82649580D02*
X102850420Y-82289346D01*
X103949580Y-81910654D02*
X103589346Y-81550420D01*
X245150000Y-72399999D02*
X245150000Y-68389999D01*
X247150000Y-68389999D02*
X245150000Y-68389999D01*
X247150000Y-72399999D02*
X247150000Y-68389999D01*
X125350000Y-21700000D02*
X125350000Y-25710000D01*
X125350000Y-25710000D02*
X127350000Y-25710000D01*
X127350000Y-21700000D02*
X127350000Y-25710000D01*
X206300000Y-40800000D02*
X206300000Y-44810000D01*
X206300000Y-44810000D02*
X208300000Y-44810000D01*
X208300000Y-40800000D02*
X208300000Y-44810000D01*
X114000000Y-3725000D02*
X114000000Y-7735000D01*
X114000000Y-7735000D02*
X116000000Y-7735000D01*
X116000000Y-3725000D02*
X116000000Y-7735000D01*
X239600000Y-21700000D02*
X239600000Y-25710000D01*
X239600000Y-25710000D02*
X241600000Y-25710000D01*
X241600000Y-21700000D02*
X241600000Y-25710000D01*
X92883151Y-66450132D02*
X93035654Y-66602635D01*
X93392268Y-65941015D02*
X93544771Y-66093518D01*
X59500000Y-69700000D02*
X59500000Y-73710000D01*
X59500000Y-73710000D02*
X61500000Y-73710000D01*
X61500000Y-69700000D02*
X61500000Y-73710000D01*
X94950000Y-3725000D02*
X94950000Y-7735000D01*
X94950000Y-7735000D02*
X96950000Y-7735000D01*
X96950000Y-3725000D02*
X96950000Y-7735000D01*
X91611104Y-80070221D02*
X91458601Y-79917718D01*
X92120221Y-79561104D02*
X91967718Y-79408601D01*
X225400000Y-40800000D02*
X225400000Y-44810000D01*
X225400000Y-44810000D02*
X227400000Y-44810000D01*
X227400000Y-40800000D02*
X227400000Y-44810000D01*
X158700000Y-59700000D02*
X158700000Y-63710000D01*
X158700000Y-63710000D02*
X160700000Y-63710000D01*
X160700000Y-59700000D02*
X160700000Y-63710000D01*
X100813829Y-82158985D02*
X100661326Y-82006482D01*
X101322946Y-81649868D02*
X101170443Y-81497365D01*
X101500000Y-59700000D02*
X101500000Y-63710000D01*
X101500000Y-63710000D02*
X103500000Y-63710000D01*
X103500000Y-59700000D02*
X103500000Y-63710000D01*
X190200000Y-3725000D02*
X190200000Y-7735000D01*
X190200000Y-7735000D02*
X192200000Y-7735000D01*
X192200000Y-3725000D02*
X192200000Y-7735000D01*
X266400000Y-3725000D02*
X266400000Y-7735000D01*
X266400000Y-7735000D02*
X268400000Y-7735000D01*
X268400000Y-3725000D02*
X268400000Y-7735000D01*
X56850000Y-3725000D02*
X56850000Y-7735000D01*
X56850000Y-7735000D02*
X58850000Y-7735000D01*
X58850000Y-3725000D02*
X58850000Y-7735000D01*
X141679724Y6147500D02*
X141170276Y6147500D01*
X141679724Y5102500D02*
X141170276Y5102500D01*
X88677835Y-64940000D02*
X88462163Y-64940000D01*
X88677835Y-65660000D02*
X88462163Y-65660000D01*
X49150000Y-21700000D02*
X49150000Y-25710000D01*
X49150000Y-25710000D02*
X51150000Y-25710000D01*
X51150000Y-21700000D02*
X51150000Y-25710000D01*
X141170276Y4572500D02*
X141679724Y4572500D01*
X141170276Y3527500D02*
X141679724Y3527500D01*
X19340000Y-36952064D02*
X19340000Y-35747936D01*
X21160000Y-36952064D02*
X21160000Y-35747936D01*
X120600000Y-59700000D02*
X120600000Y-63710000D01*
X120600000Y-63710000D02*
X122600000Y-63710000D01*
X122600000Y-59700000D02*
X122600000Y-63710000D01*
X171150000Y-3725000D02*
X171150000Y-7735000D01*
X171150000Y-7735000D02*
X173150000Y-7735000D01*
X173150000Y-3725000D02*
X173150000Y-7735000D01*
X197600000Y-72399999D02*
X197600000Y-68389999D01*
X199600000Y-68389999D02*
X197600000Y-68389999D01*
X199600000Y-72399999D02*
X199600000Y-68389999D01*
X37800000Y-3725000D02*
X37800000Y-7735000D01*
X37800000Y-7735000D02*
X39800000Y-7735000D01*
X39800000Y-3725000D02*
X39800000Y-7735000D01*
X168200000Y-40800000D02*
X168200000Y-44810000D01*
X168200000Y-44810000D02*
X170200000Y-44810000D01*
X170200000Y-40800000D02*
X170200000Y-44810000D01*
X252400000Y-59100000D02*
X252400000Y-63110000D01*
X252400000Y-63110000D02*
X254400000Y-63110000D01*
X254400000Y-59100000D02*
X254400000Y-63110000D01*
X149200000Y-40800000D02*
X149200000Y-44810000D01*
X149200000Y-44810000D02*
X151200000Y-44810000D01*
X151200000Y-40800000D02*
X151200000Y-44810000D01*
X18795000Y-22525000D02*
X18795000Y-30205000D01*
X18795000Y-32805000D02*
X18795000Y-31475000D01*
X20125000Y-32805000D02*
X18795000Y-32805000D01*
X21455000Y-22525000D02*
X18795000Y-22525000D01*
X21455000Y-22525000D02*
X21455000Y-30205000D01*
X21455000Y-30205000D02*
X18795000Y-30205000D01*
X245300000Y-40300000D02*
X245300000Y-44310000D01*
X245300000Y-44310000D02*
X247300000Y-44310000D01*
X247300000Y-40300000D02*
X247300000Y-44310000D01*
X90054724Y-78528307D02*
X90207227Y-78680810D01*
X90563841Y-78019190D02*
X90716344Y-78171693D01*
X88462164Y-69940000D02*
X88677836Y-69940000D01*
X88462164Y-70660000D02*
X88677836Y-70660000D01*
X30100000Y-21700000D02*
X30100000Y-25710000D01*
X30100000Y-25710000D02*
X32100000Y-25710000D01*
X32100000Y-21700000D02*
X32100000Y-25710000D01*
X152100000Y-3725000D02*
X152100000Y-7735000D01*
X152100000Y-7735000D02*
X154100000Y-7735000D01*
X154100000Y-3725000D02*
X154100000Y-7735000D01*
X187300000Y-40800000D02*
X187300000Y-44810000D01*
X187300000Y-44810000D02*
X189300000Y-44810000D01*
X189300000Y-40800000D02*
X189300000Y-44810000D01*
X91997737Y-74050000D02*
X92315935Y-73731802D01*
X92315935Y-74368198D02*
X91997737Y-74050000D01*
X96784850Y-78837113D02*
X97103048Y-79155311D01*
X97103048Y-68944689D02*
X96784850Y-69262887D01*
X97103048Y-79155311D02*
X97421246Y-78837113D01*
X97421246Y-69262887D02*
X97103048Y-68944689D01*
X101890161Y-73731802D02*
X102208359Y-74050000D01*
X102208359Y-74050000D02*
X101890161Y-74368198D01*
X96940413Y-79346230D02*
X96459581Y-79827062D01*
X96367657Y-79254306D01*
X96940413Y-79346230D01*
G36*
X96940413Y-79346230D02*
G01*
X96459581Y-79827062D01*
X96367657Y-79254306D01*
X96940413Y-79346230D01*
G37*
X139700000Y-59700000D02*
X139700000Y-63710000D01*
X139700000Y-63710000D02*
X141700000Y-63710000D01*
X141700000Y-59700000D02*
X141700000Y-63710000D01*
X16920276Y4897500D02*
X17429724Y4897500D01*
X16920276Y3852500D02*
X17429724Y3852500D01*
X53950000Y-40800000D02*
X53950000Y-44810000D01*
X53950000Y-44810000D02*
X55950000Y-44810000D01*
X55950000Y-40800000D02*
X55950000Y-44810000D01*
X138170000Y-72400000D02*
X138170000Y-68390000D01*
X140170000Y-68390000D02*
X138170000Y-68390000D01*
X140170000Y-72400000D02*
X140170000Y-68390000D01*
X104661104Y-71220221D02*
X104508601Y-71067718D01*
X105170221Y-70711104D02*
X105017718Y-70558601D01*
X1045276Y4497500D02*
X1554724Y4497500D01*
X1045276Y3452500D02*
X1554724Y3452500D01*
X18750000Y-3725000D02*
X18750000Y-7735000D01*
X18750000Y-7735000D02*
X20750000Y-7735000D01*
X20750000Y-3725000D02*
X20750000Y-7735000D01*
X12695000Y-26585000D02*
X12695000Y-27085000D01*
X12695000Y-27085000D02*
X13195000Y-27385000D01*
X12695000Y-30765000D02*
X12695000Y-31265000D01*
X13195000Y-27385000D02*
X13195000Y-30465000D01*
X13195000Y-30465000D02*
X12695000Y-30765000D01*
X17415000Y-25515000D02*
X14085000Y-25515000D01*
X17415000Y-26565000D02*
X17415000Y-25515000D01*
X17415000Y-31285000D02*
X17415000Y-32335000D01*
X17415000Y-32335000D02*
X14085000Y-32335000D01*
X17625000Y-31285000D02*
X17415000Y-31285000D01*
X18125000Y-30725000D02*
X18478553Y-30975000D01*
X18478553Y-30475000D02*
X18125000Y-30725000D01*
X18478553Y-30975000D02*
X18478553Y-30475000D01*
X92100000Y-40800000D02*
X92100000Y-44810000D01*
X92100000Y-44810000D02*
X94100000Y-44810000D01*
X94100000Y-40800000D02*
X94100000Y-44810000D01*
X268900000Y-72399999D02*
X268900000Y-68389999D01*
X270900000Y-68389999D02*
X268900000Y-68389999D01*
X270900000Y-72399999D02*
X270900000Y-68389999D01*
X38370000Y-72399999D02*
X38370000Y-68389999D01*
X40370000Y-68389999D02*
X38370000Y-68389999D01*
X40370000Y-72399999D02*
X40370000Y-68389999D01*
X8700000Y-40800000D02*
X8700000Y-44810000D01*
X8700000Y-44810000D02*
X10700000Y-44810000D01*
X10700000Y-40800000D02*
X10700000Y-44810000D01*
X44400000Y-59700000D02*
X44400000Y-63710000D01*
X44400000Y-63710000D02*
X46400000Y-63710000D01*
X46400000Y-59700000D02*
X46400000Y-63710000D01*
X261800000Y-40300000D02*
X261800000Y-44310000D01*
X261800000Y-44310000D02*
X263800000Y-44310000D01*
X263800000Y-40300000D02*
X263800000Y-44310000D01*
X73000000Y-40800000D02*
X73000000Y-44810000D01*
X73000000Y-44810000D02*
X75000000Y-44810000D01*
X75000000Y-40800000D02*
X75000000Y-44810000D01*
X66950000Y-74350000D02*
X67400000Y-73900000D01*
X66950000Y-76850000D02*
X66950000Y-74350000D01*
X66950000Y-76850000D02*
X67400000Y-77300000D01*
X70700000Y-72850000D02*
X68700000Y-72850000D01*
X70700000Y-78350000D02*
X68700000Y-78350000D01*
X72450000Y-74350000D02*
X72000000Y-73900000D01*
X72450000Y-76850000D02*
X72000000Y-77300000D01*
X72450000Y-76850000D02*
X72450000Y-74350000D01*
X220600000Y-21700000D02*
X220600000Y-25710000D01*
X220600000Y-25710000D02*
X222600000Y-25710000D01*
X222600000Y-21700000D02*
X222600000Y-25710000D01*
X92879779Y-81338896D02*
X93032282Y-81491399D01*
X93388896Y-80829779D02*
X93541399Y-80982282D01*
X221400000Y-72399999D02*
X221400000Y-68389999D01*
X223400000Y-68389999D02*
X221400000Y-68389999D01*
X223400000Y-72399999D02*
X223400000Y-68389999D01*
X68200000Y-21700000D02*
X68200000Y-25710000D01*
X68200000Y-25710000D02*
X70200000Y-25710000D01*
X70200000Y-21700000D02*
X70200000Y-25710000D01*
X182500000Y-21700000D02*
X182500000Y-25710000D01*
X182500000Y-25710000D02*
X184500000Y-25710000D01*
X184500000Y-21700000D02*
X184500000Y-25710000D01*
X34900000Y-40800000D02*
X34900000Y-44810000D01*
X34900000Y-44810000D02*
X36900000Y-44810000D01*
X36900000Y-40800000D02*
X36900000Y-44810000D01*
X86037978Y-72590773D02*
X86236789Y-72391962D01*
X86759227Y-73312022D02*
X86958038Y-73113211D01*
X82500000Y-59700000D02*
X82500000Y-63710000D01*
X82500000Y-63710000D02*
X84500000Y-63710000D01*
X84500000Y-59700000D02*
X84500000Y-63710000D01*
X83592164Y-70590000D02*
X83807836Y-70590000D01*
X83592164Y-71310000D02*
X83807836Y-71310000D01*
X215850000Y-59700000D02*
X215850000Y-63710000D01*
X215850000Y-63710000D02*
X217850000Y-63710000D01*
X217850000Y-59700000D02*
X217850000Y-63710000D01*
X196800000Y-59700000D02*
X196800000Y-63710000D01*
X196800000Y-63710000D02*
X198800000Y-63710000D01*
X198800000Y-59700000D02*
X198800000Y-63710000D01*
X106300000Y-21700000D02*
X106300000Y-25710000D01*
X106300000Y-25710000D02*
X108300000Y-25710000D01*
X108300000Y-21700000D02*
X108300000Y-25710000D01*
X128770000Y6595000D02*
X128770000Y4675000D01*
X137930000Y4675000D02*
X137930000Y6595000D01*
X87769999Y-66215000D02*
X88569999Y-66215000D01*
X87769999Y-69335000D02*
X88569999Y-69335000D01*
X89369999Y-66215000D02*
X88569999Y-66215000D01*
X89369999Y-69335000D02*
X88569999Y-69335000D01*
X89869999Y-66265000D02*
X89629999Y-65935000D01*
X90109999Y-65935000D01*
X89869999Y-66265000D01*
G36*
X89869999Y-66265000D02*
G01*
X89629999Y-65935000D01*
X90109999Y-65935000D01*
X89869999Y-66265000D01*
G37*
X26200000Y-59100000D02*
X26200000Y-63110000D01*
X26200000Y-63110000D02*
X28200000Y-63110000D01*
X28200000Y-59100000D02*
X28200000Y-63110000D01*
X74650000Y-74350000D02*
X74650000Y-76850000D01*
X74650000Y-74350000D02*
X75100000Y-73900000D01*
X74650000Y-76850000D02*
X75100000Y-77300000D01*
X76400000Y-72850000D02*
X78400000Y-72850000D01*
X76400000Y-78350000D02*
X78400000Y-78350000D01*
X80150000Y-74350000D02*
X79700000Y-73900000D01*
X80150000Y-74350000D02*
X80150000Y-76850000D01*
X80150000Y-76850000D02*
X79700000Y-77300000D01*
X14800000Y-59100000D02*
X14800000Y-63110000D01*
X14800000Y-63110000D02*
X16800000Y-63110000D01*
X16800000Y-59100000D02*
X16800000Y-63110000D01*
X4470000Y6395000D02*
X4470000Y4475000D01*
X13630000Y4475000D02*
X13630000Y6395000D01*
X6350000Y-21775000D02*
X6350000Y-25785000D01*
X6350000Y-25785000D02*
X8350000Y-25785000D01*
X8350000Y-21775000D02*
X8350000Y-25785000D01*
X-300000Y-3725000D02*
X-300000Y-7735000D01*
X-300000Y-7735000D02*
X1700000Y-7735000D01*
X1700000Y-3725000D02*
X1700000Y-7735000D01*
X269000000Y-59100000D02*
X269000000Y-63110000D01*
X269000000Y-63110000D02*
X271000000Y-63110000D01*
X271000000Y-59100000D02*
X271000000Y-63110000D01*
X9920000Y-72399999D02*
X9920000Y-68389999D01*
X11920000Y-68389999D02*
X9920000Y-68389999D01*
X11920000Y-72399999D02*
X11920000Y-68389999D01*
X63450000Y-59700000D02*
X63450000Y-63710000D01*
X63450000Y-63710000D02*
X65450000Y-63710000D01*
X65450000Y-59700000D02*
X65450000Y-63710000D01*
X201550000Y-21700000D02*
X201550000Y-25710000D01*
X201550000Y-25710000D02*
X203550000Y-25710000D01*
X203550000Y-21700000D02*
X203550000Y-25710000D01*
X163450000Y-21700000D02*
X163450000Y-25710000D01*
X163450000Y-25710000D02*
X165450000Y-25710000D01*
X165450000Y-21700000D02*
X165450000Y-25710000D01*
X177750000Y-59700000D02*
X177750000Y-63710000D01*
X177750000Y-63710000D02*
X179750000Y-63710000D01*
X179750000Y-59700000D02*
X179750000Y-63710000D01*
X255450000Y-21800000D02*
X255450000Y-25810000D01*
X255450000Y-25810000D02*
X257450000Y-25810000D01*
X257450000Y-21800000D02*
X257450000Y-25810000D01*
X87250000Y-21700000D02*
X87250000Y-25710000D01*
X87250000Y-25710000D02*
X89250000Y-25710000D01*
X89250000Y-21700000D02*
X89250000Y-25710000D01*
X228300000Y-3725000D02*
X228300000Y-7735000D01*
X228300000Y-7735000D02*
X230300000Y-7735000D01*
X230300000Y-3725000D02*
X230300000Y-7735000D01*
X144400000Y-21700000D02*
X144400000Y-25710000D01*
X144400000Y-25710000D02*
X146400000Y-25710000D01*
X146400000Y-21700000D02*
X146400000Y-25710000D01*
X75900000Y-3725000D02*
X75900000Y-7735000D01*
X75900000Y-7735000D02*
X77900000Y-7735000D01*
X77900000Y-3725000D02*
X77900000Y-7735000D01*
X82930000Y-70110000D02*
X84200000Y-70110000D01*
X84200000Y-66990000D02*
X82900000Y-66990000D01*
X82790000Y-70390000D02*
X82310000Y-70390000D01*
X82550000Y-70060000D01*
X82790000Y-70390000D01*
G36*
X82790000Y-70390000D02*
G01*
X82310000Y-70390000D01*
X82550000Y-70060000D01*
X82790000Y-70390000D01*
G37*
X133050000Y-3725000D02*
X133050000Y-7735000D01*
X133050000Y-7735000D02*
X135050000Y-7735000D01*
X135050000Y-3725000D02*
X135050000Y-7735000D01*
X130100000Y-40800000D02*
X130100000Y-44810000D01*
X130100000Y-44810000D02*
X132100000Y-44810000D01*
X132100000Y-40800000D02*
X132100000Y-44810000D01*
X209250000Y-3725000D02*
X209250000Y-7735000D01*
X209250000Y-7735000D02*
X211250000Y-7735000D01*
X211250000Y-3725000D02*
X211250000Y-7735000D01*
X256600000Y-3725000D02*
X256600000Y-7735000D01*
X256600000Y-7735000D02*
X258600000Y-7735000D01*
X258600000Y-3725000D02*
X258600000Y-7735000D01*
X111100000Y-40800000D02*
X111100000Y-44810000D01*
X111100000Y-44810000D02*
X113100000Y-44810000D01*
X113100000Y-40800000D02*
X113100000Y-44810000D01*
%LPC*%
D13*
X103900000Y-80300000D03*
X105190470Y-81590470D03*
X102754765Y-81454765D03*
X104045235Y-82745235D03*
D14*
X118745000Y-19050000D03*
D15*
X123825000Y-19050000D03*
D14*
X128905000Y-19050000D03*
D16*
X120015000Y-16510000D03*
X126365000Y-13970000D03*
D14*
X175895000Y-19050000D03*
D15*
X180975000Y-19050000D03*
D14*
X186055000Y-19050000D03*
D16*
X177165000Y-16510000D03*
X183515000Y-13970000D03*
D14*
X176530000Y0D03*
D15*
X171450000Y0D03*
D14*
X166370000Y0D03*
D16*
X175260000Y-2540000D03*
X168910000Y-5080000D03*
D14*
X209213750Y-76200000D03*
X211613750Y-76200000D03*
X219373750Y-76200000D03*
X221773750Y-76200000D03*
D17*
X211683750Y-73660000D03*
D16*
X212883750Y-73660000D03*
D17*
X218033750Y-71120000D03*
D16*
X219233750Y-71120000D03*
D14*
X100330000Y0D03*
D15*
X95250000Y0D03*
D14*
X90170000Y0D03*
D16*
X99060000Y-2540000D03*
X92710000Y-5080000D03*
D14*
X233026250Y-76200000D03*
X235426250Y-76200000D03*
X243186250Y-76200000D03*
X245586250Y-76200000D03*
D17*
X235496250Y-73660000D03*
D16*
X236696250Y-73660000D03*
D17*
X241846250Y-71120000D03*
D16*
X243046250Y-71120000D03*
D14*
X252730000Y0D03*
D15*
X247650000Y0D03*
D14*
X242570000Y0D03*
D16*
X251460000Y-2540000D03*
X245110000Y-5080000D03*
D14*
X43180000Y0D03*
D15*
X38100000Y0D03*
D14*
X33020000Y0D03*
D16*
X41910000Y-2540000D03*
X35560000Y-5080000D03*
D14*
X24130000Y0D03*
D15*
X19050000Y0D03*
D14*
X13970000Y0D03*
D16*
X22860000Y-2540000D03*
X16510000Y-5080000D03*
D14*
X261620000Y-57150000D03*
D15*
X266700000Y-57150000D03*
D14*
X271780000Y-57150000D03*
D16*
X262890000Y-54610000D03*
X269240000Y-52070000D03*
D14*
X213995000Y-19050000D03*
D15*
X219075000Y-19050000D03*
D14*
X224155000Y-19050000D03*
D16*
X215265000Y-16510000D03*
X221615000Y-13970000D03*
D14*
X199707500Y-38100000D03*
D15*
X204787500Y-38100000D03*
D14*
X209867500Y-38100000D03*
D16*
X200977500Y-35560000D03*
X207327500Y-33020000D03*
D14*
X138430000Y0D03*
D15*
X133350000Y0D03*
D14*
X128270000Y0D03*
D16*
X137160000Y-2540000D03*
X130810000Y-5080000D03*
D14*
X157480000Y0D03*
D15*
X152400000Y0D03*
D14*
X147320000Y0D03*
D16*
X156210000Y-2540000D03*
X149860000Y-5080000D03*
D14*
X256838750Y-76200000D03*
X259238750Y-76200000D03*
X266998750Y-76200000D03*
X269398750Y-76200000D03*
D17*
X259308750Y-73660000D03*
D16*
X260508750Y-73660000D03*
D17*
X265658750Y-71120000D03*
D16*
X266858750Y-71120000D03*
D18*
X242855750Y-31115000D03*
D19*
X242855750Y-46325000D03*
D18*
X266731750Y-31115000D03*
D19*
X266731750Y-46325000D03*
D14*
X28257500Y-38100000D03*
D15*
X33337500Y-38100000D03*
D14*
X38417500Y-38100000D03*
D16*
X29527500Y-35560000D03*
X35877500Y-33020000D03*
D14*
X237820000Y-38100000D03*
D15*
X242900000Y-38100000D03*
D14*
X247980000Y-38100000D03*
D16*
X239090000Y-35560000D03*
X245440000Y-33020000D03*
D14*
X5080000Y0D03*
D15*
X0Y0D03*
D14*
X-5080000Y0D03*
D16*
X3810000Y-2540000D03*
X-2540000Y-5080000D03*
D14*
X-2700000Y-57150000D03*
D15*
X2380000Y-57150000D03*
D14*
X7460000Y-57150000D03*
D16*
X-1430000Y-54610000D03*
X4920000Y-52070000D03*
D14*
X194945000Y-19050000D03*
D15*
X200025000Y-19050000D03*
D14*
X205105000Y-19050000D03*
D16*
X196215000Y-16510000D03*
X202565000Y-13970000D03*
D14*
X249713750Y-38100000D03*
D15*
X254793750Y-38100000D03*
D14*
X259873750Y-38100000D03*
D16*
X250983750Y-35560000D03*
X257333750Y-33020000D03*
D14*
X152082500Y-57150000D03*
D15*
X157162500Y-57150000D03*
D14*
X162242500Y-57150000D03*
D16*
X153352500Y-54610000D03*
X159702500Y-52070000D03*
D14*
X94932500Y-57150000D03*
D15*
X100012500Y-57150000D03*
D14*
X105092500Y-57150000D03*
D16*
X96202500Y-54610000D03*
X102552500Y-52070000D03*
D14*
X119380000Y0D03*
D15*
X114300000Y0D03*
D14*
X109220000Y0D03*
D16*
X118110000Y-2540000D03*
X111760000Y-5080000D03*
D14*
X195580000Y0D03*
D15*
X190500000Y0D03*
D14*
X185420000Y0D03*
D16*
X194310000Y-2540000D03*
X187960000Y-5080000D03*
D18*
X171443750Y-83185000D03*
D19*
X171443750Y-67975000D03*
D18*
X71443750Y-83185000D03*
D19*
X71443750Y-67975000D03*
D14*
X262280000Y0D03*
D15*
X257200000Y0D03*
D14*
X252120000Y0D03*
D16*
X261010000Y-2540000D03*
X254660000Y-5080000D03*
D14*
X233045000Y-19050000D03*
D15*
X238125000Y-19050000D03*
D14*
X243205000Y-19050000D03*
D16*
X234315000Y-16510000D03*
X240665000Y-13970000D03*
D14*
X99695000Y-19050000D03*
D15*
X104775000Y-19050000D03*
D14*
X109855000Y-19050000D03*
D16*
X100965000Y-16510000D03*
X107315000Y-13970000D03*
D18*
X-31750Y-50165000D03*
D19*
X-31750Y-65375000D03*
D18*
X23844250Y-50165000D03*
D19*
X23844250Y-65375000D03*
D14*
X264320000Y-23490000D03*
D15*
X264320000Y-28570000D03*
D14*
X264320000Y-33650000D03*
D16*
X266860000Y-24760000D03*
X269400000Y-31110000D03*
D14*
X123507500Y-38100000D03*
D15*
X128587500Y-38100000D03*
D14*
X133667500Y-38100000D03*
D16*
X124777500Y-35560000D03*
X131127500Y-33020000D03*
D14*
X161607500Y-38100000D03*
D15*
X166687500Y-38100000D03*
D14*
X171767500Y-38100000D03*
D16*
X162877500Y-35560000D03*
X169227500Y-33020000D03*
D14*
X-2698750Y-76200000D03*
X-298750Y-76200000D03*
X7461250Y-76200000D03*
X9861250Y-76200000D03*
D17*
X-228750Y-73660000D03*
D16*
X971250Y-73660000D03*
D17*
X6121250Y-71120000D03*
D16*
X7321250Y-71120000D03*
D18*
X257335000Y-40508000D03*
D19*
X272545000Y-40508000D03*
D18*
X257335000Y-16632000D03*
D19*
X272545000Y-16632000D03*
D14*
X142557500Y-38100000D03*
D15*
X147637500Y-38100000D03*
D14*
X152717500Y-38100000D03*
D16*
X143827500Y-35560000D03*
X150177500Y-33020000D03*
D14*
X23495000Y-19050000D03*
D15*
X28575000Y-19050000D03*
D14*
X33655000Y-19050000D03*
D16*
X24765000Y-16510000D03*
X31115000Y-13970000D03*
D14*
X233680000Y0D03*
D15*
X228600000Y0D03*
D14*
X223520000Y0D03*
D16*
X232410000Y-2540000D03*
X226060000Y-5080000D03*
D14*
X18720000Y-57150000D03*
D15*
X23800000Y-57150000D03*
D14*
X28880000Y-57150000D03*
D16*
X19990000Y-54610000D03*
X26340000Y-52070000D03*
D14*
X75882500Y-57150000D03*
D15*
X80962500Y-57150000D03*
D14*
X86042500Y-57150000D03*
D16*
X77152500Y-54610000D03*
X83502500Y-52070000D03*
D14*
X180657500Y-38100000D03*
D15*
X185737500Y-38100000D03*
D14*
X190817500Y-38100000D03*
D16*
X181927500Y-35560000D03*
X188277500Y-33020000D03*
D18*
X190500000Y-83186270D03*
D19*
X190500000Y-67976270D03*
D18*
X76200000Y-83186270D03*
D19*
X76200000Y-67976270D03*
D14*
X187801250Y-76200000D03*
D15*
X192881250Y-76200000D03*
D14*
X197961250Y-76200000D03*
D16*
X189071250Y-73660000D03*
X195421250Y-71120000D03*
D18*
X238093250Y-50160050D03*
D19*
X238093250Y-65370050D03*
D18*
X261969250Y-50160050D03*
D19*
X261969250Y-65370050D03*
D14*
X44926250Y-76200000D03*
X47326250Y-76200000D03*
X55086250Y-76200000D03*
X57486250Y-76200000D03*
D17*
X47396250Y-73660000D03*
D16*
X48596250Y-73660000D03*
D17*
X53746250Y-71120000D03*
D16*
X54946250Y-71120000D03*
D14*
X116363750Y-76200000D03*
D15*
X121443750Y-76200000D03*
D14*
X126523750Y-76200000D03*
D16*
X117633750Y-73660000D03*
X123983750Y-71120000D03*
D14*
X137795000Y-19050000D03*
D15*
X142875000Y-19050000D03*
D14*
X147955000Y-19050000D03*
D16*
X139065000Y-16510000D03*
X145415000Y-13970000D03*
D14*
X66357500Y-38100000D03*
D15*
X71437500Y-38100000D03*
D14*
X76517500Y-38100000D03*
D16*
X67627500Y-35560000D03*
X73977500Y-33020000D03*
D14*
X244951250Y-57150000D03*
D15*
X250031250Y-57150000D03*
D14*
X255111250Y-57150000D03*
D16*
X246221250Y-54610000D03*
X252571250Y-52070000D03*
D14*
X156845000Y-19050000D03*
D15*
X161925000Y-19050000D03*
D14*
X167005000Y-19050000D03*
D16*
X158115000Y-16510000D03*
X164465000Y-13970000D03*
D14*
X113982500Y-57150000D03*
D15*
X119062500Y-57150000D03*
D14*
X124142500Y-57150000D03*
D16*
X115252500Y-54610000D03*
X121602500Y-52070000D03*
D14*
X104457500Y-38100000D03*
D15*
X109537500Y-38100000D03*
D14*
X114617500Y-38100000D03*
D16*
X105727500Y-35560000D03*
X112077500Y-33020000D03*
D14*
X56832500Y-57150000D03*
D15*
X61912500Y-57150000D03*
D14*
X66992500Y-57150000D03*
D16*
X58102500Y-54610000D03*
X64452500Y-52070000D03*
D14*
X214630000Y0D03*
D15*
X209550000Y0D03*
D14*
X204470000Y0D03*
D16*
X213360000Y-2540000D03*
X207010000Y-5080000D03*
D14*
X209232500Y-57150000D03*
D15*
X214312500Y-57150000D03*
D14*
X219392500Y-57150000D03*
D16*
X210502500Y-54610000D03*
X216852500Y-52070000D03*
D14*
X171132500Y-57150000D03*
D15*
X176212500Y-57150000D03*
D14*
X181292500Y-57150000D03*
D16*
X172402500Y-54610000D03*
X178752500Y-52070000D03*
D14*
X271780000Y0D03*
D15*
X266700000Y0D03*
D14*
X261620000Y0D03*
D16*
X270510000Y-2540000D03*
X264160000Y-5080000D03*
D14*
X81280000Y0D03*
D15*
X76200000Y0D03*
D14*
X71120000Y0D03*
D16*
X80010000Y-2540000D03*
X73660000Y-5080000D03*
D14*
X61595000Y-19050000D03*
D15*
X66675000Y-19050000D03*
D14*
X71755000Y-19050000D03*
D16*
X62865000Y-16510000D03*
X69215000Y-13970000D03*
D14*
X267017500Y-19050000D03*
D15*
X261937500Y-19050000D03*
D14*
X256857500Y-19050000D03*
D16*
X265747500Y-21590000D03*
X259397500Y-24130000D03*
D14*
X47307500Y-38100000D03*
D15*
X52387500Y-38100000D03*
D14*
X57467500Y-38100000D03*
D16*
X48577500Y-35560000D03*
X54927500Y-33020000D03*
D14*
X235420000Y-57150000D03*
D15*
X240500000Y-57150000D03*
D14*
X245580000Y-57150000D03*
D16*
X236690000Y-54610000D03*
X243040000Y-52070000D03*
D14*
X6826250Y-57150000D03*
D15*
X11906250Y-57150000D03*
D14*
X16986250Y-57150000D03*
D16*
X8096250Y-54610000D03*
X14446250Y-52070000D03*
D14*
X190182500Y-57150000D03*
D15*
X195262500Y-57150000D03*
D14*
X200342500Y-57150000D03*
D16*
X191452500Y-54610000D03*
X197802500Y-52070000D03*
D14*
X133032500Y-57150000D03*
D15*
X138112500Y-57150000D03*
D14*
X143192500Y-57150000D03*
D16*
X134302500Y-54610000D03*
X140652500Y-52070000D03*
D14*
X62230000Y0D03*
D15*
X57150000Y0D03*
D14*
X52070000Y0D03*
D16*
X60960000Y-2540000D03*
X54610000Y-5080000D03*
D14*
X218757500Y-38100000D03*
D15*
X223837500Y-38100000D03*
D14*
X228917500Y-38100000D03*
D16*
X220027500Y-35560000D03*
X226377500Y-33020000D03*
D14*
X-317500Y-38100000D03*
D15*
X4762500Y-38100000D03*
D14*
X9842500Y-38100000D03*
D16*
X952500Y-35560000D03*
X7302500Y-33020000D03*
D14*
X85407500Y-38100000D03*
D15*
X90487500Y-38100000D03*
D14*
X95567500Y-38100000D03*
D16*
X86677500Y-35560000D03*
X93027500Y-33020000D03*
D14*
X37782500Y-57150000D03*
D15*
X42862500Y-57150000D03*
D14*
X47942500Y-57150000D03*
D16*
X39052500Y-54610000D03*
X45402500Y-52070000D03*
D14*
X-317500Y-19050000D03*
D15*
X4762500Y-19050000D03*
D14*
X9842500Y-19050000D03*
D16*
X952500Y-16510000D03*
X7302500Y-13970000D03*
D14*
X21120000Y-76200000D03*
X23520000Y-76200000D03*
X31280000Y-76200000D03*
X33680000Y-76200000D03*
D17*
X23590000Y-73660000D03*
D16*
X24790000Y-73660000D03*
D17*
X29940000Y-71120000D03*
D16*
X31140000Y-71120000D03*
D14*
X2063750Y-38100000D03*
D15*
X7143750Y-38100000D03*
D14*
X12223750Y-38100000D03*
D16*
X3333750Y-35560000D03*
X9683750Y-33020000D03*
D14*
X42545000Y-19050000D03*
D15*
X47625000Y-19050000D03*
D14*
X52705000Y-19050000D03*
D16*
X43815000Y-16510000D03*
X50165000Y-13970000D03*
D14*
X80645000Y-19050000D03*
D15*
X85725000Y-19050000D03*
D14*
X90805000Y-19050000D03*
D16*
X81915000Y-16510000D03*
X88265000Y-13970000D03*
D14*
X128270000Y-76201270D03*
D15*
X133350000Y-76201270D03*
D14*
X138430000Y-76201270D03*
D16*
X129540000Y-73661270D03*
X135890000Y-71121270D03*
D20*
X246150000Y-69099999D03*
X246150000Y-72399999D03*
D21*
X126350000Y-25000000D03*
X126350000Y-21700000D03*
X207300000Y-44100000D03*
X207300000Y-40800000D03*
X115000000Y-7025000D03*
X115000000Y-3725000D03*
X240600000Y-25000000D03*
X240600000Y-21700000D03*
D22*
X93553372Y-66611236D03*
X92874550Y-65932414D03*
D21*
X60500000Y-73000000D03*
X60500000Y-69700000D03*
X95950000Y-7025000D03*
X95950000Y-3725000D03*
D23*
X91450000Y-79400000D03*
X92128822Y-80078822D03*
D21*
X226400000Y-44100000D03*
X226400000Y-40800000D03*
X159700000Y-63000000D03*
X159700000Y-59700000D03*
D23*
X100652725Y-81488764D03*
X101331547Y-82167586D03*
D21*
X102500000Y-63000000D03*
X102500000Y-59700000D03*
X191200000Y-7025000D03*
X191200000Y-3725000D03*
X267400000Y-7025000D03*
X267400000Y-3725000D03*
D24*
X181350000Y-76000000D03*
D21*
X57850000Y-7025000D03*
X57850000Y-3725000D03*
D25*
X274500000Y-47100000D03*
D26*
X140512500Y5625000D03*
X142337500Y5625000D03*
D27*
X88089999Y-65300000D03*
X89049999Y-65300000D03*
D21*
X50150000Y-25000000D03*
X50150000Y-21700000D03*
D28*
X142337500Y4050000D03*
X140512500Y4050000D03*
D29*
X20250000Y-34950000D03*
X20250000Y-37750000D03*
D21*
X121600000Y-63000000D03*
X121600000Y-59700000D03*
X172150000Y-7025000D03*
X172150000Y-3725000D03*
D20*
X198600000Y-69099999D03*
X198600000Y-72399999D03*
D21*
X38800000Y-7025000D03*
X38800000Y-3725000D03*
X169200000Y-44100000D03*
X169200000Y-40800000D03*
X253400000Y-62400000D03*
X253400000Y-59100000D03*
X150200000Y-44100000D03*
X150200000Y-40800000D03*
D30*
X20125000Y-31475000D03*
D31*
X20125000Y-28935000D03*
X20125000Y-26395000D03*
X20125000Y-23855000D03*
D21*
X246300000Y-43600000D03*
X246300000Y-40300000D03*
D22*
X90724945Y-78689411D03*
X90046123Y-78010589D03*
D32*
X89050000Y-70300000D03*
X88090000Y-70300000D03*
D21*
X31100000Y-25000000D03*
X31100000Y-21700000D03*
X153100000Y-7025000D03*
X153100000Y-3725000D03*
X188300000Y-44100000D03*
X188300000Y-40800000D03*
D33*
X96104260Y-78937876D03*
X95750706Y-78584322D03*
X95397153Y-78230769D03*
X95043599Y-77877215D03*
X94690046Y-77523662D03*
X94336493Y-77170109D03*
X93982939Y-76816555D03*
X93629386Y-76463002D03*
X93275833Y-76109449D03*
X92922279Y-75755895D03*
X92568726Y-75402342D03*
X92215172Y-75048788D03*
D34*
X92215172Y-73051212D03*
X92568726Y-72697658D03*
X92922279Y-72344105D03*
X93275833Y-71990551D03*
X93629386Y-71636998D03*
X93982939Y-71283445D03*
X94336493Y-70929891D03*
X94690046Y-70576338D03*
X95043599Y-70222785D03*
X95397153Y-69869231D03*
X95750706Y-69515678D03*
X96104260Y-69162124D03*
D33*
X98101836Y-69162124D03*
X98455390Y-69515678D03*
X98808943Y-69869231D03*
X99162497Y-70222785D03*
X99516050Y-70576338D03*
X99869603Y-70929891D03*
X100223157Y-71283445D03*
X100576710Y-71636998D03*
X100930263Y-71990551D03*
X101283817Y-72344105D03*
X101637370Y-72697658D03*
X101990924Y-73051212D03*
D34*
X101990924Y-75048788D03*
X101637370Y-75402342D03*
X101283817Y-75755895D03*
X100930263Y-76109449D03*
X100576710Y-76463002D03*
X100223157Y-76816555D03*
X99869603Y-77170109D03*
X99516050Y-77523662D03*
X99162497Y-77877215D03*
X98808943Y-78230769D03*
X98455390Y-78584322D03*
X98101836Y-78937876D03*
D21*
X140700000Y-63000000D03*
X140700000Y-59700000D03*
D28*
X18087500Y4375000D03*
X16262500Y4375000D03*
D35*
X16050000Y-18700000D03*
D21*
X54950000Y-44100000D03*
X54950000Y-40800000D03*
D20*
X139170000Y-69100000D03*
X139170000Y-72400000D03*
D23*
X104500000Y-70550000D03*
X105178822Y-71228822D03*
D28*
X2212500Y3975000D03*
X387500Y3975000D03*
D21*
X19750000Y-7025000D03*
X19750000Y-3725000D03*
D36*
X17200000Y-30725000D03*
X17200000Y-29525000D03*
X17200000Y-28325000D03*
X17200000Y-27125000D03*
D37*
X13425000Y-31875000D03*
X13425000Y-25975000D03*
D21*
X93100000Y-44100000D03*
X93100000Y-40800000D03*
D20*
X269900000Y-69099999D03*
X269900000Y-72399999D03*
X39370000Y-69099999D03*
X39370000Y-72399999D03*
D21*
X9700000Y-44100000D03*
X9700000Y-40800000D03*
X45400000Y-63000000D03*
X45400000Y-59700000D03*
X262800000Y-43600000D03*
X262800000Y-40300000D03*
X74000000Y-44100000D03*
X74000000Y-40800000D03*
D38*
X67800000Y-72450000D03*
X67800000Y-78750000D03*
X71600000Y-72450000D03*
X71600000Y-78750000D03*
D21*
X221600000Y-25000000D03*
X221600000Y-21700000D03*
D22*
X93550000Y-81500000D03*
X92871178Y-80821178D03*
D20*
X222400000Y-69099999D03*
X222400000Y-72399999D03*
D21*
X69200000Y-25000000D03*
X69200000Y-21700000D03*
X183500000Y-25000000D03*
X183500000Y-21700000D03*
X35900000Y-44100000D03*
X35900000Y-40800000D03*
D39*
X87046016Y-72303984D03*
X85950000Y-73400000D03*
D21*
X83500000Y-63000000D03*
X83500000Y-59700000D03*
D32*
X84180000Y-70950000D03*
X83220000Y-70950000D03*
D21*
X216850000Y-63000000D03*
X216850000Y-59700000D03*
D24*
X250900000Y-18700000D03*
D21*
X197800000Y-63000000D03*
X197800000Y-59700000D03*
D25*
X-6900000Y-47300000D03*
D21*
X107300000Y-25000000D03*
X107300000Y-21700000D03*
D40*
X130460000Y3900000D03*
X136240000Y3900000D03*
D41*
X130150000Y2725000D03*
X130950000Y2725000D03*
D42*
X132100000Y2800000D03*
D43*
X133100000Y2910000D03*
X133600000Y2910000D03*
D42*
X134600000Y2800000D03*
D41*
X135750000Y2725000D03*
X136550000Y2725000D03*
X136550000Y2725000D03*
X135750000Y2725000D03*
D42*
X135100000Y2800000D03*
D44*
X134100000Y2860000D03*
X132600000Y2860000D03*
D42*
X131600000Y2800000D03*
D41*
X130950000Y2725000D03*
X130150000Y2725000D03*
D45*
X129030000Y7600000D03*
D46*
X129030000Y3400000D03*
D45*
X137670000Y7600000D03*
D46*
X137670000Y3400000D03*
D47*
X89707499Y-66825000D03*
X89707499Y-68725000D03*
X87432499Y-67775000D03*
D21*
X27200000Y-62400000D03*
X27200000Y-59100000D03*
D38*
X79300000Y-78750000D03*
X79300000Y-72450000D03*
X75500000Y-78750000D03*
X75500000Y-72450000D03*
D48*
X119050000Y-37800000D03*
D21*
X15800000Y-62400000D03*
X15800000Y-59100000D03*
D40*
X6160000Y3700000D03*
X11940000Y3700000D03*
D41*
X5850000Y2525000D03*
X6650000Y2525000D03*
D42*
X7800000Y2600000D03*
X8800000Y2600000D03*
X9300000Y2600000D03*
X10300000Y2600000D03*
D41*
X11450000Y2525000D03*
X12250000Y2525000D03*
X12250000Y2525000D03*
X11450000Y2525000D03*
D42*
X10800000Y2600000D03*
X9800000Y2600000D03*
X8300000Y2600000D03*
X7300000Y2600000D03*
D41*
X6650000Y2525000D03*
X5850000Y2525000D03*
D45*
X4730000Y7400000D03*
D46*
X4730000Y3200000D03*
D45*
X13370000Y7400000D03*
D46*
X13370000Y3200000D03*
D21*
X7350000Y-25075000D03*
X7350000Y-21775000D03*
X700000Y-7025000D03*
X700000Y-3725000D03*
X270000000Y-62400000D03*
X270000000Y-59100000D03*
D20*
X10920000Y-69099999D03*
X10920000Y-72399999D03*
D21*
X64450000Y-63000000D03*
X64450000Y-59700000D03*
X202550000Y-25000000D03*
X202550000Y-21700000D03*
X164450000Y-25000000D03*
X164450000Y-21700000D03*
X178750000Y-63000000D03*
X178750000Y-59700000D03*
X256450000Y-25100000D03*
X256450000Y-21800000D03*
X88250000Y-25000000D03*
X88250000Y-21700000D03*
X229300000Y-7025000D03*
X229300000Y-3725000D03*
X145400000Y-25000000D03*
X145400000Y-21700000D03*
X76900000Y-7025000D03*
X76900000Y-3725000D03*
D49*
X82550000Y-69300000D03*
D50*
X82550000Y-67600000D03*
X84550000Y-67600000D03*
X84550000Y-69500000D03*
D21*
X134050000Y-7025000D03*
X134050000Y-3725000D03*
X131100000Y-44100000D03*
X131100000Y-40800000D03*
X210250000Y-7025000D03*
X210250000Y-3725000D03*
X257600000Y-7025000D03*
X257600000Y-3725000D03*
X112100000Y-44100000D03*
X112100000Y-40800000D03*
%LPD*%
M02*
