G04 #@! TF.GenerationSoftware,KiCad,Pcbnew,8.0.4*
G04 #@! TF.CreationDate,2024-08-26T00:00:45+02:00*
G04 #@! TF.ProjectId,keyboard,6b657962-6f61-4726-942e-6b696361645f,rev?*
G04 #@! TF.SameCoordinates,Original*
G04 #@! TF.FileFunction,Soldermask,Bot*
G04 #@! TF.FilePolarity,Negative*
%FSLAX46Y46*%
G04 Gerber Fmt 4.6, Leading zero omitted, Abs format (unit mm)*
G04 Created by KiCad (PCBNEW 8.0.4) date 2024-08-26 00:00:45*
%MOMM*%
%LPD*%
G01*
G04 APERTURE LIST*
G04 Aperture macros list*
%AMRoundRect*
0 Rectangle with rounded corners*
0 $1 Rounding radius*
0 $2 $3 $4 $5 $6 $7 $8 $9 X,Y pos of 4 corners*
0 Add a 4 corners polygon primitive as box body*
4,1,4,$2,$3,$4,$5,$6,$7,$8,$9,$2,$3,0*
0 Add four circle primitives for the rounded corners*
1,1,$1+$1,$2,$3*
1,1,$1+$1,$4,$5*
1,1,$1+$1,$6,$7*
1,1,$1+$1,$8,$9*
0 Add four rect primitives between the rounded corners*
20,1,$1+$1,$2,$3,$4,$5,0*
20,1,$1+$1,$4,$5,$6,$7,0*
20,1,$1+$1,$6,$7,$8,$9,0*
20,1,$1+$1,$8,$9,$2,$3,0*%
G04 Aperture macros list end*
%ADD10RoundRect,0.237500X-0.344715X0.008839X0.008839X-0.344715X0.344715X-0.008839X-0.008839X0.344715X0*%
%ADD11C,1.750000*%
%ADD12C,4.000000*%
%ADD13C,2.500000*%
%ADD14O,4.900000X2.500000*%
%ADD15C,3.048000*%
%ADD16C,3.987800*%
%ADD17RoundRect,0.225000X-0.375000X0.225000X-0.375000X-0.225000X0.375000X-0.225000X0.375000X0.225000X0*%
%ADD18RoundRect,0.225000X0.375000X-0.225000X0.375000X0.225000X-0.375000X0.225000X-0.375000X-0.225000X0*%
%ADD19RoundRect,0.140000X0.219203X0.021213X0.021213X0.219203X-0.219203X-0.021213X-0.021213X-0.219203X0*%
%ADD20RoundRect,0.140000X-0.219203X-0.021213X-0.021213X-0.219203X0.219203X0.021213X0.021213X0.219203X0*%
%ADD21O,8.000000X5.000000*%
%ADD22O,10.000000X5.000000*%
%ADD23RoundRect,0.237500X-0.250000X-0.237500X0.250000X-0.237500X0.250000X0.237500X-0.250000X0.237500X0*%
%ADD24RoundRect,0.140000X-0.140000X-0.170000X0.140000X-0.170000X0.140000X0.170000X-0.140000X0.170000X0*%
%ADD25RoundRect,0.237500X0.250000X0.237500X-0.250000X0.237500X-0.250000X-0.237500X0.250000X-0.237500X0*%
%ADD26RoundRect,0.250000X-0.625000X0.375000X-0.625000X-0.375000X0.625000X-0.375000X0.625000X0.375000X0*%
%ADD27R,1.700000X1.700000*%
%ADD28O,1.700000X1.700000*%
%ADD29RoundRect,0.140000X0.140000X0.170000X-0.140000X0.170000X-0.140000X-0.170000X0.140000X-0.170000X0*%
%ADD30RoundRect,0.075000X-0.415425X-0.521491X0.521491X0.415425X0.415425X0.521491X-0.521491X-0.415425X0*%
%ADD31RoundRect,0.075000X0.415425X-0.521491X0.521491X-0.415425X-0.415425X0.521491X-0.521491X0.415425X0*%
%ADD32C,5.000000*%
%ADD33RoundRect,0.150000X0.275000X-0.150000X0.275000X0.150000X-0.275000X0.150000X-0.275000X-0.150000X0*%
%ADD34RoundRect,0.175000X0.225000X-0.175000X0.225000X0.175000X-0.225000X0.175000X-0.225000X-0.175000X0*%
%ADD35R,1.000000X1.700000*%
%ADD36RoundRect,0.225000X-0.017678X0.335876X-0.335876X0.017678X0.017678X-0.335876X0.335876X-0.017678X0*%
%ADD37C,0.650000*%
%ADD38R,0.600000X1.100000*%
%ADD39R,0.300000X1.240000*%
%ADD40R,0.300000X1.020000*%
%ADD41R,0.300000X1.120000*%
%ADD42O,1.000000X1.800000*%
%ADD43O,1.000000X2.200000*%
%ADD44RoundRect,0.150000X0.512500X0.150000X-0.512500X0.150000X-0.512500X-0.150000X0.512500X-0.150000X0*%
%ADD45C,6.000000*%
%ADD46RoundRect,0.175000X-0.175000X-0.325000X0.175000X-0.325000X0.175000X0.325000X-0.175000X0.325000X0*%
%ADD47RoundRect,0.150000X-0.200000X-0.150000X0.200000X-0.150000X0.200000X0.150000X-0.200000X0.150000X0*%
G04 APERTURE END LIST*
D10*
X103900000Y-80300000D03*
X105190470Y-81590470D03*
X102754765Y-81454765D03*
X104045235Y-82745235D03*
D11*
X118745000Y-19050000D03*
D12*
X123825000Y-19050000D03*
D11*
X128905000Y-19050000D03*
D13*
X120015000Y-16510000D03*
X126365000Y-13970000D03*
D11*
X175895000Y-19050000D03*
D12*
X180975000Y-19050000D03*
D11*
X186055000Y-19050000D03*
D13*
X177165000Y-16510000D03*
X183515000Y-13970000D03*
D11*
X176530000Y0D03*
D12*
X171450000Y0D03*
D11*
X166370000Y0D03*
D13*
X175260000Y-2540000D03*
X168910000Y-5080000D03*
D11*
X209213750Y-76200000D03*
X211613750Y-76200000D03*
X219373750Y-76200000D03*
X221773750Y-76200000D03*
D14*
X211683750Y-73660000D03*
D13*
X212883750Y-73660000D03*
D14*
X218033750Y-71120000D03*
D13*
X219233750Y-71120000D03*
D11*
X100330000Y0D03*
D12*
X95250000Y0D03*
D11*
X90170000Y0D03*
D13*
X99060000Y-2540000D03*
X92710000Y-5080000D03*
D11*
X233026250Y-76200000D03*
X235426250Y-76200000D03*
X243186250Y-76200000D03*
X245586250Y-76200000D03*
D14*
X235496250Y-73660000D03*
D13*
X236696250Y-73660000D03*
D14*
X241846250Y-71120000D03*
D13*
X243046250Y-71120000D03*
D11*
X252730000Y0D03*
D12*
X247650000Y0D03*
D11*
X242570000Y0D03*
D13*
X251460000Y-2540000D03*
X245110000Y-5080000D03*
D11*
X43180000Y0D03*
D12*
X38100000Y0D03*
D11*
X33020000Y0D03*
D13*
X41910000Y-2540000D03*
X35560000Y-5080000D03*
D11*
X24130000Y0D03*
D12*
X19050000Y0D03*
D11*
X13970000Y0D03*
D13*
X22860000Y-2540000D03*
X16510000Y-5080000D03*
D11*
X261620000Y-57150000D03*
D12*
X266700000Y-57150000D03*
D11*
X271780000Y-57150000D03*
D13*
X262890000Y-54610000D03*
X269240000Y-52070000D03*
D11*
X213995000Y-19050000D03*
D12*
X219075000Y-19050000D03*
D11*
X224155000Y-19050000D03*
D13*
X215265000Y-16510000D03*
X221615000Y-13970000D03*
D11*
X199707500Y-38100000D03*
D12*
X204787500Y-38100000D03*
D11*
X209867500Y-38100000D03*
D13*
X200977500Y-35560000D03*
X207327500Y-33020000D03*
D11*
X138430000Y0D03*
D12*
X133350000Y0D03*
D11*
X128270000Y0D03*
D13*
X137160000Y-2540000D03*
X130810000Y-5080000D03*
D11*
X157480000Y0D03*
D12*
X152400000Y0D03*
D11*
X147320000Y0D03*
D13*
X156210000Y-2540000D03*
X149860000Y-5080000D03*
D11*
X256838750Y-76200000D03*
X259238750Y-76200000D03*
X266998750Y-76200000D03*
X269398750Y-76200000D03*
D14*
X259308750Y-73660000D03*
D13*
X260508750Y-73660000D03*
D14*
X265658750Y-71120000D03*
D13*
X266858750Y-71120000D03*
D15*
X242855750Y-31115000D03*
D16*
X242855750Y-46325000D03*
D15*
X266731750Y-31115000D03*
D16*
X266731750Y-46325000D03*
D11*
X28257500Y-38100000D03*
D12*
X33337500Y-38100000D03*
D11*
X38417500Y-38100000D03*
D13*
X29527500Y-35560000D03*
X35877500Y-33020000D03*
D11*
X237820000Y-38100000D03*
D12*
X242900000Y-38100000D03*
D11*
X247980000Y-38100000D03*
D13*
X239090000Y-35560000D03*
X245440000Y-33020000D03*
D11*
X5080000Y0D03*
D12*
X0Y0D03*
D11*
X-5080000Y0D03*
D13*
X3810000Y-2540000D03*
X-2540000Y-5080000D03*
D11*
X-2700000Y-57150000D03*
D12*
X2380000Y-57150000D03*
D11*
X7460000Y-57150000D03*
D13*
X-1430000Y-54610000D03*
X4920000Y-52070000D03*
D11*
X194945000Y-19050000D03*
D12*
X200025000Y-19050000D03*
D11*
X205105000Y-19050000D03*
D13*
X196215000Y-16510000D03*
X202565000Y-13970000D03*
D11*
X249713750Y-38100000D03*
D12*
X254793750Y-38100000D03*
D11*
X259873750Y-38100000D03*
D13*
X250983750Y-35560000D03*
X257333750Y-33020000D03*
D11*
X152082500Y-57150000D03*
D12*
X157162500Y-57150000D03*
D11*
X162242500Y-57150000D03*
D13*
X153352500Y-54610000D03*
X159702500Y-52070000D03*
D11*
X94932500Y-57150000D03*
D12*
X100012500Y-57150000D03*
D11*
X105092500Y-57150000D03*
D13*
X96202500Y-54610000D03*
X102552500Y-52070000D03*
D11*
X119380000Y0D03*
D12*
X114300000Y0D03*
D11*
X109220000Y0D03*
D13*
X118110000Y-2540000D03*
X111760000Y-5080000D03*
D11*
X195580000Y0D03*
D12*
X190500000Y0D03*
D11*
X185420000Y0D03*
D13*
X194310000Y-2540000D03*
X187960000Y-5080000D03*
D15*
X171443750Y-83185000D03*
D16*
X171443750Y-67975000D03*
D15*
X71443750Y-83185000D03*
D16*
X71443750Y-67975000D03*
D11*
X262280000Y0D03*
D12*
X257200000Y0D03*
D11*
X252120000Y0D03*
D13*
X261010000Y-2540000D03*
X254660000Y-5080000D03*
D11*
X233045000Y-19050000D03*
D12*
X238125000Y-19050000D03*
D11*
X243205000Y-19050000D03*
D13*
X234315000Y-16510000D03*
X240665000Y-13970000D03*
D11*
X99695000Y-19050000D03*
D12*
X104775000Y-19050000D03*
D11*
X109855000Y-19050000D03*
D13*
X100965000Y-16510000D03*
X107315000Y-13970000D03*
D15*
X-31750Y-50165000D03*
D16*
X-31750Y-65375000D03*
D15*
X23844250Y-50165000D03*
D16*
X23844250Y-65375000D03*
D11*
X264320000Y-23490000D03*
D12*
X264320000Y-28570000D03*
D11*
X264320000Y-33650000D03*
D13*
X266860000Y-24760000D03*
X269400000Y-31110000D03*
D11*
X123507500Y-38100000D03*
D12*
X128587500Y-38100000D03*
D11*
X133667500Y-38100000D03*
D13*
X124777500Y-35560000D03*
X131127500Y-33020000D03*
D11*
X161607500Y-38100000D03*
D12*
X166687500Y-38100000D03*
D11*
X171767500Y-38100000D03*
D13*
X162877500Y-35560000D03*
X169227500Y-33020000D03*
D11*
X-2698750Y-76200000D03*
X-298750Y-76200000D03*
X7461250Y-76200000D03*
X9861250Y-76200000D03*
D14*
X-228750Y-73660000D03*
D13*
X971250Y-73660000D03*
D14*
X6121250Y-71120000D03*
D13*
X7321250Y-71120000D03*
D15*
X257335000Y-40508000D03*
D16*
X272545000Y-40508000D03*
D15*
X257335000Y-16632000D03*
D16*
X272545000Y-16632000D03*
D11*
X142557500Y-38100000D03*
D12*
X147637500Y-38100000D03*
D11*
X152717500Y-38100000D03*
D13*
X143827500Y-35560000D03*
X150177500Y-33020000D03*
D11*
X23495000Y-19050000D03*
D12*
X28575000Y-19050000D03*
D11*
X33655000Y-19050000D03*
D13*
X24765000Y-16510000D03*
X31115000Y-13970000D03*
D11*
X233680000Y0D03*
D12*
X228600000Y0D03*
D11*
X223520000Y0D03*
D13*
X232410000Y-2540000D03*
X226060000Y-5080000D03*
D11*
X18720000Y-57150000D03*
D12*
X23800000Y-57150000D03*
D11*
X28880000Y-57150000D03*
D13*
X19990000Y-54610000D03*
X26340000Y-52070000D03*
D11*
X75882500Y-57150000D03*
D12*
X80962500Y-57150000D03*
D11*
X86042500Y-57150000D03*
D13*
X77152500Y-54610000D03*
X83502500Y-52070000D03*
D11*
X180657500Y-38100000D03*
D12*
X185737500Y-38100000D03*
D11*
X190817500Y-38100000D03*
D13*
X181927500Y-35560000D03*
X188277500Y-33020000D03*
D15*
X190500000Y-83186270D03*
D16*
X190500000Y-67976270D03*
D15*
X76200000Y-83186270D03*
D16*
X76200000Y-67976270D03*
D11*
X187801250Y-76200000D03*
D12*
X192881250Y-76200000D03*
D11*
X197961250Y-76200000D03*
D13*
X189071250Y-73660000D03*
X195421250Y-71120000D03*
D15*
X238093250Y-50160050D03*
D16*
X238093250Y-65370050D03*
D15*
X261969250Y-50160050D03*
D16*
X261969250Y-65370050D03*
D11*
X44926250Y-76200000D03*
X47326250Y-76200000D03*
X55086250Y-76200000D03*
X57486250Y-76200000D03*
D14*
X47396250Y-73660000D03*
D13*
X48596250Y-73660000D03*
D14*
X53746250Y-71120000D03*
D13*
X54946250Y-71120000D03*
D11*
X116363750Y-76200000D03*
D12*
X121443750Y-76200000D03*
D11*
X126523750Y-76200000D03*
D13*
X117633750Y-73660000D03*
X123983750Y-71120000D03*
D11*
X137795000Y-19050000D03*
D12*
X142875000Y-19050000D03*
D11*
X147955000Y-19050000D03*
D13*
X139065000Y-16510000D03*
X145415000Y-13970000D03*
D11*
X66357500Y-38100000D03*
D12*
X71437500Y-38100000D03*
D11*
X76517500Y-38100000D03*
D13*
X67627500Y-35560000D03*
X73977500Y-33020000D03*
D11*
X244951250Y-57150000D03*
D12*
X250031250Y-57150000D03*
D11*
X255111250Y-57150000D03*
D13*
X246221250Y-54610000D03*
X252571250Y-52070000D03*
D11*
X156845000Y-19050000D03*
D12*
X161925000Y-19050000D03*
D11*
X167005000Y-19050000D03*
D13*
X158115000Y-16510000D03*
X164465000Y-13970000D03*
D11*
X113982500Y-57150000D03*
D12*
X119062500Y-57150000D03*
D11*
X124142500Y-57150000D03*
D13*
X115252500Y-54610000D03*
X121602500Y-52070000D03*
D11*
X104457500Y-38100000D03*
D12*
X109537500Y-38100000D03*
D11*
X114617500Y-38100000D03*
D13*
X105727500Y-35560000D03*
X112077500Y-33020000D03*
D11*
X56832500Y-57150000D03*
D12*
X61912500Y-57150000D03*
D11*
X66992500Y-57150000D03*
D13*
X58102500Y-54610000D03*
X64452500Y-52070000D03*
D11*
X214630000Y0D03*
D12*
X209550000Y0D03*
D11*
X204470000Y0D03*
D13*
X213360000Y-2540000D03*
X207010000Y-5080000D03*
D11*
X209232500Y-57150000D03*
D12*
X214312500Y-57150000D03*
D11*
X219392500Y-57150000D03*
D13*
X210502500Y-54610000D03*
X216852500Y-52070000D03*
D11*
X171132500Y-57150000D03*
D12*
X176212500Y-57150000D03*
D11*
X181292500Y-57150000D03*
D13*
X172402500Y-54610000D03*
X178752500Y-52070000D03*
D11*
X271780000Y0D03*
D12*
X266700000Y0D03*
D11*
X261620000Y0D03*
D13*
X270510000Y-2540000D03*
X264160000Y-5080000D03*
D11*
X81280000Y0D03*
D12*
X76200000Y0D03*
D11*
X71120000Y0D03*
D13*
X80010000Y-2540000D03*
X73660000Y-5080000D03*
D11*
X61595000Y-19050000D03*
D12*
X66675000Y-19050000D03*
D11*
X71755000Y-19050000D03*
D13*
X62865000Y-16510000D03*
X69215000Y-13970000D03*
D11*
X267017500Y-19050000D03*
D12*
X261937500Y-19050000D03*
D11*
X256857500Y-19050000D03*
D13*
X265747500Y-21590000D03*
X259397500Y-24130000D03*
D11*
X47307500Y-38100000D03*
D12*
X52387500Y-38100000D03*
D11*
X57467500Y-38100000D03*
D13*
X48577500Y-35560000D03*
X54927500Y-33020000D03*
D11*
X235420000Y-57150000D03*
D12*
X240500000Y-57150000D03*
D11*
X245580000Y-57150000D03*
D13*
X236690000Y-54610000D03*
X243040000Y-52070000D03*
D11*
X6826250Y-57150000D03*
D12*
X11906250Y-57150000D03*
D11*
X16986250Y-57150000D03*
D13*
X8096250Y-54610000D03*
X14446250Y-52070000D03*
D11*
X190182500Y-57150000D03*
D12*
X195262500Y-57150000D03*
D11*
X200342500Y-57150000D03*
D13*
X191452500Y-54610000D03*
X197802500Y-52070000D03*
D11*
X133032500Y-57150000D03*
D12*
X138112500Y-57150000D03*
D11*
X143192500Y-57150000D03*
D13*
X134302500Y-54610000D03*
X140652500Y-52070000D03*
D11*
X62230000Y0D03*
D12*
X57150000Y0D03*
D11*
X52070000Y0D03*
D13*
X60960000Y-2540000D03*
X54610000Y-5080000D03*
D11*
X218757500Y-38100000D03*
D12*
X223837500Y-38100000D03*
D11*
X228917500Y-38100000D03*
D13*
X220027500Y-35560000D03*
X226377500Y-33020000D03*
D11*
X-317500Y-38100000D03*
D12*
X4762500Y-38100000D03*
D11*
X9842500Y-38100000D03*
D13*
X952500Y-35560000D03*
X7302500Y-33020000D03*
D11*
X85407500Y-38100000D03*
D12*
X90487500Y-38100000D03*
D11*
X95567500Y-38100000D03*
D13*
X86677500Y-35560000D03*
X93027500Y-33020000D03*
D11*
X37782500Y-57150000D03*
D12*
X42862500Y-57150000D03*
D11*
X47942500Y-57150000D03*
D13*
X39052500Y-54610000D03*
X45402500Y-52070000D03*
D11*
X-317500Y-19050000D03*
D12*
X4762500Y-19050000D03*
D11*
X9842500Y-19050000D03*
D13*
X952500Y-16510000D03*
X7302500Y-13970000D03*
D11*
X21120000Y-76200000D03*
X23520000Y-76200000D03*
X31280000Y-76200000D03*
X33680000Y-76200000D03*
D14*
X23590000Y-73660000D03*
D13*
X24790000Y-73660000D03*
D14*
X29940000Y-71120000D03*
D13*
X31140000Y-71120000D03*
D11*
X2063750Y-38100000D03*
D12*
X7143750Y-38100000D03*
D11*
X12223750Y-38100000D03*
D13*
X3333750Y-35560000D03*
X9683750Y-33020000D03*
D11*
X42545000Y-19050000D03*
D12*
X47625000Y-19050000D03*
D11*
X52705000Y-19050000D03*
D13*
X43815000Y-16510000D03*
X50165000Y-13970000D03*
D11*
X80645000Y-19050000D03*
D12*
X85725000Y-19050000D03*
D11*
X90805000Y-19050000D03*
D13*
X81915000Y-16510000D03*
X88265000Y-13970000D03*
D11*
X128270000Y-76201270D03*
D12*
X133350000Y-76201270D03*
D11*
X138430000Y-76201270D03*
D13*
X129540000Y-73661270D03*
X135890000Y-71121270D03*
D17*
X246150000Y-69099999D03*
X246150000Y-72399999D03*
D18*
X126350000Y-25000000D03*
X126350000Y-21700000D03*
X207300000Y-44100000D03*
X207300000Y-40800000D03*
X115000000Y-7025000D03*
X115000000Y-3725000D03*
X240600000Y-25000000D03*
X240600000Y-21700000D03*
D19*
X93553372Y-66611236D03*
X92874550Y-65932414D03*
D18*
X60500000Y-73000000D03*
X60500000Y-69700000D03*
X95950000Y-7025000D03*
X95950000Y-3725000D03*
D20*
X91450000Y-79400000D03*
X92128822Y-80078822D03*
D18*
X226400000Y-44100000D03*
X226400000Y-40800000D03*
X159700000Y-63000000D03*
X159700000Y-59700000D03*
D20*
X100652725Y-81488764D03*
X101331547Y-82167586D03*
D18*
X102500000Y-63000000D03*
X102500000Y-59700000D03*
X191200000Y-7025000D03*
X191200000Y-3725000D03*
X267400000Y-7025000D03*
X267400000Y-3725000D03*
D21*
X181350000Y-76000000D03*
D18*
X57850000Y-7025000D03*
X57850000Y-3725000D03*
D22*
X274500000Y-47100000D03*
D23*
X140512500Y5625000D03*
X142337500Y5625000D03*
D24*
X88089999Y-65300000D03*
X89049999Y-65300000D03*
D18*
X50150000Y-25000000D03*
X50150000Y-21700000D03*
D25*
X142337500Y4050000D03*
X140512500Y4050000D03*
D26*
X20250000Y-34950000D03*
X20250000Y-37750000D03*
D18*
X121600000Y-63000000D03*
X121600000Y-59700000D03*
X172150000Y-7025000D03*
X172150000Y-3725000D03*
D17*
X198600000Y-69099999D03*
X198600000Y-72399999D03*
D18*
X38800000Y-7025000D03*
X38800000Y-3725000D03*
X169200000Y-44100000D03*
X169200000Y-40800000D03*
X253400000Y-62400000D03*
X253400000Y-59100000D03*
X150200000Y-44100000D03*
X150200000Y-40800000D03*
D27*
X20125000Y-31475000D03*
D28*
X20125000Y-28935000D03*
X20125000Y-26395000D03*
X20125000Y-23855000D03*
D18*
X246300000Y-43600000D03*
X246300000Y-40300000D03*
D19*
X90724945Y-78689411D03*
X90046123Y-78010589D03*
D29*
X89050000Y-70300000D03*
X88090000Y-70300000D03*
D18*
X31100000Y-25000000D03*
X31100000Y-21700000D03*
X153100000Y-7025000D03*
X153100000Y-3725000D03*
X188300000Y-44100000D03*
X188300000Y-40800000D03*
D30*
X96104260Y-78937876D03*
X95750706Y-78584322D03*
X95397153Y-78230769D03*
X95043599Y-77877215D03*
X94690046Y-77523662D03*
X94336493Y-77170109D03*
X93982939Y-76816555D03*
X93629386Y-76463002D03*
X93275833Y-76109449D03*
X92922279Y-75755895D03*
X92568726Y-75402342D03*
X92215172Y-75048788D03*
D31*
X92215172Y-73051212D03*
X92568726Y-72697658D03*
X92922279Y-72344105D03*
X93275833Y-71990551D03*
X93629386Y-71636998D03*
X93982939Y-71283445D03*
X94336493Y-70929891D03*
X94690046Y-70576338D03*
X95043599Y-70222785D03*
X95397153Y-69869231D03*
X95750706Y-69515678D03*
X96104260Y-69162124D03*
D30*
X98101836Y-69162124D03*
X98455390Y-69515678D03*
X98808943Y-69869231D03*
X99162497Y-70222785D03*
X99516050Y-70576338D03*
X99869603Y-70929891D03*
X100223157Y-71283445D03*
X100576710Y-71636998D03*
X100930263Y-71990551D03*
X101283817Y-72344105D03*
X101637370Y-72697658D03*
X101990924Y-73051212D03*
D31*
X101990924Y-75048788D03*
X101637370Y-75402342D03*
X101283817Y-75755895D03*
X100930263Y-76109449D03*
X100576710Y-76463002D03*
X100223157Y-76816555D03*
X99869603Y-77170109D03*
X99516050Y-77523662D03*
X99162497Y-77877215D03*
X98808943Y-78230769D03*
X98455390Y-78584322D03*
X98101836Y-78937876D03*
D18*
X140700000Y-63000000D03*
X140700000Y-59700000D03*
D25*
X18087500Y4375000D03*
X16262500Y4375000D03*
D32*
X16050000Y-18700000D03*
D18*
X54950000Y-44100000D03*
X54950000Y-40800000D03*
D17*
X139170000Y-69100000D03*
X139170000Y-72400000D03*
D20*
X104500000Y-70550000D03*
X105178822Y-71228822D03*
D25*
X2212500Y3975000D03*
X387500Y3975000D03*
D18*
X19750000Y-7025000D03*
X19750000Y-3725000D03*
D33*
X17200000Y-30725000D03*
X17200000Y-29525000D03*
X17200000Y-28325000D03*
X17200000Y-27125000D03*
D34*
X13425000Y-31875000D03*
X13425000Y-25975000D03*
D18*
X93100000Y-44100000D03*
X93100000Y-40800000D03*
D17*
X269900000Y-69099999D03*
X269900000Y-72399999D03*
X39370000Y-69099999D03*
X39370000Y-72399999D03*
D18*
X9700000Y-44100000D03*
X9700000Y-40800000D03*
X45400000Y-63000000D03*
X45400000Y-59700000D03*
X262800000Y-43600000D03*
X262800000Y-40300000D03*
X74000000Y-44100000D03*
X74000000Y-40800000D03*
D35*
X67800000Y-72450000D03*
X67800000Y-78750000D03*
X71600000Y-72450000D03*
X71600000Y-78750000D03*
D18*
X221600000Y-25000000D03*
X221600000Y-21700000D03*
D19*
X93550000Y-81500000D03*
X92871178Y-80821178D03*
D17*
X222400000Y-69099999D03*
X222400000Y-72399999D03*
D18*
X69200000Y-25000000D03*
X69200000Y-21700000D03*
X183500000Y-25000000D03*
X183500000Y-21700000D03*
X35900000Y-44100000D03*
X35900000Y-40800000D03*
D36*
X87046016Y-72303984D03*
X85950000Y-73400000D03*
D18*
X83500000Y-63000000D03*
X83500000Y-59700000D03*
D29*
X84180000Y-70950000D03*
X83220000Y-70950000D03*
D18*
X216850000Y-63000000D03*
X216850000Y-59700000D03*
D21*
X250900000Y-18700000D03*
D18*
X197800000Y-63000000D03*
X197800000Y-59700000D03*
D22*
X-6900000Y-47300000D03*
D18*
X107300000Y-25000000D03*
X107300000Y-21700000D03*
D37*
X130460000Y3900000D03*
X136240000Y3900000D03*
D38*
X130150000Y2725000D03*
X130950000Y2725000D03*
D39*
X132100000Y2800000D03*
D40*
X133100000Y2910000D03*
X133600000Y2910000D03*
D39*
X134600000Y2800000D03*
D38*
X135750000Y2725000D03*
X136550000Y2725000D03*
X136550000Y2725000D03*
X135750000Y2725000D03*
D39*
X135100000Y2800000D03*
D41*
X134100000Y2860000D03*
X132600000Y2860000D03*
D39*
X131600000Y2800000D03*
D38*
X130950000Y2725000D03*
X130150000Y2725000D03*
D42*
X129030000Y7600000D03*
D43*
X129030000Y3400000D03*
D42*
X137670000Y7600000D03*
D43*
X137670000Y3400000D03*
D44*
X89707499Y-66825000D03*
X89707499Y-68725000D03*
X87432499Y-67775000D03*
D18*
X27200000Y-62400000D03*
X27200000Y-59100000D03*
D35*
X79300000Y-78750000D03*
X79300000Y-72450000D03*
X75500000Y-78750000D03*
X75500000Y-72450000D03*
D45*
X119050000Y-37800000D03*
D18*
X15800000Y-62400000D03*
X15800000Y-59100000D03*
D37*
X6160000Y3700000D03*
X11940000Y3700000D03*
D38*
X5850000Y2525000D03*
X6650000Y2525000D03*
D39*
X7800000Y2600000D03*
X8800000Y2600000D03*
X9300000Y2600000D03*
X10300000Y2600000D03*
D38*
X11450000Y2525000D03*
X12250000Y2525000D03*
X12250000Y2525000D03*
X11450000Y2525000D03*
D39*
X10800000Y2600000D03*
X9800000Y2600000D03*
X8300000Y2600000D03*
X7300000Y2600000D03*
D38*
X6650000Y2525000D03*
X5850000Y2525000D03*
D42*
X4730000Y7400000D03*
D43*
X4730000Y3200000D03*
D42*
X13370000Y7400000D03*
D43*
X13370000Y3200000D03*
D18*
X7350000Y-25075000D03*
X7350000Y-21775000D03*
X700000Y-7025000D03*
X700000Y-3725000D03*
X270000000Y-62400000D03*
X270000000Y-59100000D03*
D17*
X10920000Y-69099999D03*
X10920000Y-72399999D03*
D18*
X64450000Y-63000000D03*
X64450000Y-59700000D03*
X202550000Y-25000000D03*
X202550000Y-21700000D03*
X164450000Y-25000000D03*
X164450000Y-21700000D03*
X178750000Y-63000000D03*
X178750000Y-59700000D03*
X256450000Y-25100000D03*
X256450000Y-21800000D03*
X88250000Y-25000000D03*
X88250000Y-21700000D03*
X229300000Y-7025000D03*
X229300000Y-3725000D03*
X145400000Y-25000000D03*
X145400000Y-21700000D03*
X76900000Y-7025000D03*
X76900000Y-3725000D03*
D46*
X82550000Y-69300000D03*
D47*
X82550000Y-67600000D03*
X84550000Y-67600000D03*
X84550000Y-69500000D03*
D18*
X134050000Y-7025000D03*
X134050000Y-3725000D03*
X131100000Y-44100000D03*
X131100000Y-40800000D03*
X210250000Y-7025000D03*
X210250000Y-3725000D03*
X257600000Y-7025000D03*
X257600000Y-3725000D03*
X112100000Y-44100000D03*
X112100000Y-40800000D03*
M02*
